<?xml version="1.0" encoding="utf-8"?>
<!-- Generator: Adobe Illustrator 24.0.1, SVG Export Plug-In . SVG Version: 6.00 Build 0)  -->
<svg version="1.1"
	 id="svg1306" xmlns:cc="http://creativecommons.org/ns#" xmlns:dc="http://purl.org/dc/elements/1.1/" xmlns:inkscape="http://www.inkscape.org/namespaces/inkscape" xmlns:rdf="http://www.w3.org/1999/02/22-rdf-syntax-ns#" xmlns:sodipodi="http://sodipodi.sourceforge.net/DTD/sodipodi-0.dtd" xmlns:svg="http://www.w3.org/2000/svg"
	 xmlns="http://www.w3.org/2000/svg" xmlns:xlink="http://www.w3.org/1999/xlink" x="0px" y="0px" viewBox="0 0 45 45"
	 style="enable-background:new 0 0 45 45;" xml:space="preserve">
<style type="text/css">
	.st0{fill:#729FCF;stroke:#204A87;stroke-width:1.0746;stroke-miterlimit:2;}
	.st1{opacity:0.4611;fill:url(#path12231_1_);enable-background:new    ;}
	.st2{fill:url(#path12233_1_);}
	.st3{fill:#555753;}
	.st4{fill:url(#path8889_1_);}
	.st5{fill:#888A85;}
	.st6{opacity:0.4944;fill:url(#path8897_1_);enable-background:new    ;}
	.st7{opacity:0.4944;fill:url(#path8903_1_);enable-background:new    ;}
	.st8{opacity:0.4944;fill:url(#path8909_1_);enable-background:new    ;}
	.st9{opacity:0.4944;fill:url(#path8915_1_);enable-background:new    ;}
	.st10{fill:#888A85;stroke:#555753;stroke-width:0.9995;stroke-miterlimit:1.9987;}
	.st11{fill:url(#path12582_1_);}
	.st12{opacity:0.4778;fill:url(#path12586_1_);enable-background:new    ;}
	.st13{opacity:0.4778;fill:url(#path12595_1_);enable-background:new    ;}
	.st14{opacity:0.4778;fill:url(#path12599_1_);enable-background:new    ;}
	.st15{opacity:0.4778;fill:url(#path12603_1_);enable-background:new    ;}
	.st16{opacity:0.4778;fill:url(#path12605_1_);enable-background:new    ;}
	.st17{fill-rule:evenodd;clip-rule:evenodd;fill:#555753;}
	.st18{opacity:0.4778;fill:url(#path12611_1_);enable-background:new    ;}
	.st19{fill:url(#path12331_1_);}
	.st20{opacity:0.4778;fill:url(#path12335_1_);enable-background:new    ;}
	.st21{opacity:0.4778;fill:url(#path12343_1_);enable-background:new    ;}
	.st22{opacity:0.4778;fill:url(#path12349_1_);enable-background:new    ;}
	.st23{opacity:0.4778;fill:url(#path12353_1_);enable-background:new    ;}
	.st24{opacity:0.4778;fill:url(#path12355_1_);enable-background:new    ;}
	.st25{opacity:0.4778;fill:url(#path12361_1_);enable-background:new    ;}
	.st26{opacity:0.4611;fill:url(#path12195_1_);enable-background:new    ;}
	.st27{fill:url(#path12197_1_);}
	.st28{opacity:0.4611;fill:url(#path12243_1_);enable-background:new    ;}
	.st29{fill:url(#path12245_1_);}
	.st30{opacity:0.4611;fill:url(#path6061_1_);enable-background:new    ;}
	.st31{fill:url(#path6063_1_);}
	.st32{opacity:0.4611;fill:url(#path12207_1_);enable-background:new    ;}
	.st33{fill:url(#path12209_1_);}
	.st34{opacity:0.4611;fill:url(#path12219_1_);enable-background:new    ;}
	.st35{fill:url(#path12221_1_);}
</style>
<g id="layer1">
	<g id="g12227" transform="translate(-202.9549,271.0066)">
		<path id="path12229" class="st0" d="M230.1-229c-1-0.6-1.4-1.9-0.8-2.9c1.3-2.1,3.1-1.5,4-3.7C234.6-234.3,234.1-227.4,230.1-229z
			"/>
		
			<radialGradient id="path12231_1_" cx="3661.6924" cy="207.0955" r="21.7436" gradientTransform="matrix(7.065158e-02 4.154803e-02 -6.201499e-02 0.1094 -14.631 -405.8231)" gradientUnits="userSpaceOnUse">
			<stop  offset="0" style="stop-color:#FFFFFF"/>
			<stop  offset="1" style="stop-color:#FFFFFF;stop-opacity:0"/>
		</radialGradient>
		<path id="path12231" class="st1" d="M232.8-230.1c-0.5,0.9-1.6,1.2-2.4,0.7c-0.8-0.5-1.1-1.6-0.6-2.5s2.6-0.5,3.3-2.3
			C233.9-233.7,233.3-231,232.8-230.1z"/>
		
			<linearGradient id="path12233_1_" gradientUnits="userSpaceOnUse" x1="756.1805" y1="-2905.6233" x2="776.6866" y2="-2927.1018" gradientTransform="matrix(-5.358613e-02 0.1028 -9.281434e-02 -5.937964e-02 1.3247 -484.1581)">
			<stop  offset="0" style="stop-color:#FFFFFF"/>
			<stop  offset="1" style="stop-color:#FFFFFF;stop-opacity:0"/>
		</linearGradient>
		<path id="path12233" class="st2" d="M231.5-229.2c-4.6-1.1,0.2-4.7,1-3.9C228.9-231.8,231.5-229.2,231.5-229.2z"/>
	</g>
	<g id="g12627" transform="matrix(0.999675,0.000000,0.000000,1.000000,-286.8482,245.0001)">
		<g id="g12533">
			<path id="path8887" class="st3" d="M310-243.2c-2.8,0-5.1,1.6-6.4,3.8c-0.9-0.5-2-0.8-3.1-0.8c-3.9,0-7,3.1-7,7s3.1,7,7,7
				c2.4,0,4.4-1.3,5.7-3.2c1.1,0.7,2.4,1.2,3.8,1.2c0.9,0,1.8-0.2,2.6-0.5c0.5,0.9,1.2,1.6,2,2.2c0,0.1-0.1,0.2-0.1,0.4
				c0,3.9,3.1,7,7,7s7-3.1,7-7c0-2.4-1.3-4.4-3.1-5.6c0-0.1,0.1-0.2,0.1-0.4c0-3.9-3.1-7-7-7c-0.6,0-1.2,0.2-1.8,0.4
				C315.5-241.4,313-243.2,310-243.2z"/>
			
				<linearGradient id="path8889_1_" gradientUnits="userSpaceOnUse" x1="801.1635" y1="-186.4772" x2="839.0247" y2="-173.44" gradientTransform="matrix(0.9994 0 0 1 -504.7095 -51)">
				<stop  offset="0" style="stop-color:#FFFFFF"/>
				<stop  offset="1" style="stop-color:#FFFFFF;stop-opacity:0"/>
			</linearGradient>
			<path id="path8889" class="st4" d="M310-242.2c-2.8,0-5.1,1.8-6.1,4.2c-1-0.7-2.1-1.2-3.4-1.2c-3.3,0-6,2.7-6,6s2.7,6,6,6
				c2.4,0,4.5-1.5,5.4-3.5c1.1,0.9,2.5,1.5,4.1,1.5c1.1,0,2-0.3,2.9-0.8c0.4,1,1.1,1.8,1.9,2.4c-0.2,0.6-0.4,1.2-0.4,1.8
				c0,3.6,2.9,6.5,6.5,6.5s6.5-2.9,6.5-6.5c0-2.4-1.3-4.3-3.2-5.5c0.1-0.3,0.2-0.7,0.2-1c0-3.3-2.7-6-6-6c-0.9,0-1.7,0.2-2.4,0.5
				C315.2-240.3,312.8-242.2,310-242.2z"/>
			<path id="path8891" class="st5" d="M327.5-225.7c0,3.6-2.9,6.5-6.5,6.5s-6.5-2.9-6.5-6.5l0,0c0-3.6,2.9-6.5,6.5-6.5
				C324.5-232.2,327.5-229.3,327.5-225.7L327.5-225.7z"/>
			<g id="g12520">
				<path id="path8895" class="st5" d="M315.5-235.7c0,3-2.5,5.5-5.5,5.5s-5.5-2.5-5.5-5.5s2.5-5.5,5.5-5.5S315.5-238.7,315.5-235.7
					z"/>
				
					<linearGradient id="path8897_1_" gradientUnits="userSpaceOnUse" x1="839.8746" y1="-159.5535" x2="845.6279" y2="-154.6965" gradientTransform="matrix(0.882 0 0 0.8826 -434.6015 -98.1285)">
					<stop  offset="0" style="stop-color:#FFFFFF"/>
					<stop  offset="1" style="stop-color:#FFFFFF;stop-opacity:0"/>
				</linearGradient>
				<path id="path8897" class="st6" d="M315.5-235.7c0,3-2.5,5.5-5.5,5.5s-5.5-2.5-5.5-5.5s2.5-5.5,5.5-5.5S315.5-238.7,315.5-235.7
					z"/>
			</g>
			<g id="g12516">
				<path id="path8901" class="st5" d="M323.5-231.7c0,3-2.5,5.5-5.5,5.5s-5.5-2.5-5.5-5.5l0,0c0-3,2.5-5.5,5.5-5.5
					S323.5-234.7,323.5-231.7z"/>
				
					<linearGradient id="path8903_1_" gradientUnits="userSpaceOnUse" x1="838.9625" y1="-164.9345" x2="844.9199" y2="-158.9724" gradientTransform="matrix(0.9111 0 0 0.9117 -450.9696 -85.9456)">
					<stop  offset="0" style="stop-color:#FFFFFF"/>
					<stop  offset="1" style="stop-color:#FFFFFF;stop-opacity:0"/>
				</linearGradient>
				<path id="path8903" class="st7" d="M323.5-231.7c0,3-2.5,5.5-5.5,5.5s-5.5-2.5-5.5-5.5l0,0c0-3,2.5-5.5,5.5-5.5
					S323.5-234.7,323.5-231.7z"/>
			</g>
			<g id="g12524">
				<path id="path8907" class="st5" d="M305.5-233.2c0,2.8-2.2,5-5,5s-5-2.2-5-5s2.2-5,5-5S305.5-236,305.5-233.2L305.5-233.2z"/>
				
					<linearGradient id="path8909_1_" gradientUnits="userSpaceOnUse" x1="777.5046" y1="-210.3322" x2="781.8851" y2="-206.8517" gradientTransform="matrix(1.142 0 0 1.1428 -590.6802 4.5627)">
					<stop  offset="0" style="stop-color:#FFFFFF"/>
					<stop  offset="1" style="stop-color:#FFFFFF;stop-opacity:0"/>
				</linearGradient>
				<path id="path8909" class="st8" d="M305.5-233.2c0,2.8-2.2,5-5,5s-5-2.2-5-5s2.2-5,5-5S305.5-236,305.5-233.2L305.5-233.2z"/>
			</g>
			<g id="g12529">
				<path id="path8913" class="st5" d="M316.5-229.2c0,3.9-3.1,7-7,7s-7-3.1-7-7l0,0c0-3.9,3.1-7,7-7
					C313.3-236.2,316.5-233.1,316.5-229.2L316.5-229.2z"/>
				
					<linearGradient id="path8915_1_" gradientUnits="userSpaceOnUse" x1="802.0952" y1="-189.2309" x2="809.7451" y2="-183.4015" gradientTransform="matrix(1.038 0 0 1.0386 -527.9829 -36.4362)">
					<stop  offset="0" style="stop-color:#FFFFFF"/>
					<stop  offset="1" style="stop-color:#FFFFFF;stop-opacity:0"/>
				</linearGradient>
				<path id="path8915" class="st9" d="M316.5-229.2c0,3.9-3.1,7-7,7s-7-3.1-7-7l0,0c0-3.9,3.1-7,7-7
					C313.3-236.2,316.5-233.1,316.5-229.2L316.5-229.2z"/>
			</g>
		</g>
		<g id="g12578" transform="translate(72.00007,7.999930)">
			<path id="path12580" class="st10" d="M245-238.7c-2.3,0-4.1,1.6-4.7,3.6c-0.7-0.4-1.4-0.6-2.3-0.6c-2.8,0-5,2.2-5,5
				c0,0.6,0.2,1.1,0.3,1.6c-1.4,0.8-2.3,2.2-2.3,3.9c0,2.5,2,4.5,4.5,4.5c0.2,0,18.8,0,19,0c2.5,0,4.5-2,4.5-4.5
				c0-1.7-1-3.1-2.3-3.9c0.2-0.5,0.3-1,0.3-1.6c0-2.8-2.2-5-5-5c-0.8,0-1.6,0.3-2.3,0.6C249.1-237.1,247.2-238.7,245-238.7z"/>
			
				<linearGradient id="path12582_1_" gradientUnits="userSpaceOnUse" x1="699.3936" y1="-234.7959" x2="713.4005" y2="-225.7139" gradientTransform="matrix(0.9994 0 0 1 -463.7778 1.0001)">
				<stop  offset="0" style="stop-color:#FFFFFF"/>
				<stop  offset="1" style="stop-color:#FFFFFF;stop-opacity:0"/>
			</linearGradient>
			<path id="path12582" class="st11" d="M245-238.2c-2.2,0-3.7,1.3-4.4,3.8c-0.7-0.3-1.5-0.8-2.4-0.8c-2.7,0-4.8,1.9-4.8,4.5
				c0,0.5,0.3,1.3,0.4,1.8c-1.3,0.7-2.4,1.9-2.4,3.4c0,2.3,1.5,4.3,4.3,4.3c0.2,0,18.2,0,18.3,0c2.8,0,4.3-1.9,4.3-4.3
				c0-1.6-1.1-2.7-2.4-3.4c0.2-0.5,0.5-1.3,0.5-1.8c0-2.6-2.1-4.6-4.8-4.6c-0.8,0-1.6,0.5-2.3,0.8
				C248.7-236.8,247.1-238.2,245-238.2z"/>
			<path id="path12584" class="st5" d="M248.5-233.7c0,1.9-1.6,3.5-3.5,3.5s-3.5-1.6-3.5-3.5s1.6-3.5,3.5-3.5
				S248.5-235.6,248.5-233.7L248.5-233.7z"/>
			
				<linearGradient id="path12586_1_" gradientUnits="userSpaceOnUse" x1="704.7972" y1="-244.8922" x2="706.9562" y2="-241.4614" gradientTransform="matrix(1.056 0 0 1.0566 -500.527 22.9762)">
				<stop  offset="0" style="stop-color:#FFFFFF"/>
				<stop  offset="1" style="stop-color:#FFFFFF;stop-opacity:0"/>
			</linearGradient>
			<path id="path12586" class="st12" d="M248.5-233.7c0,1.9-1.6,3.5-3.5,3.5s-3.5-1.6-3.5-3.5s1.6-3.5,3.5-3.5
				S248.5-235.6,248.5-233.7L248.5-233.7z"/>
			<rect id="rect12588" x="235.5" y="-231.2" class="st5" width="20" height="9"/>
			<path id="path12591" class="st5" d="M238.5-225.2c0,1.7-1.3,3-3,3s-3-1.3-3-3s1.3-3,3-3S238.5-226.9,238.5-225.2L238.5-225.2z"/>
			<path id="path12593" class="st5" d="M255.5-230.7c0,1.9-1.6,3.5-3.5,3.5s-3.5-1.6-3.5-3.5s1.6-3.5,3.5-3.5
				S255.5-232.6,255.5-230.7L255.5-230.7z"/>
			
				<linearGradient id="path12595_1_" gradientUnits="userSpaceOnUse" x1="703.7716" y1="-246.4107" x2="707.1137" y2="-241.2645" gradientTransform="matrix(1.056 0 0 1.0566 -493.527 25.9762)">
				<stop  offset="0" style="stop-color:#FFFFFF"/>
				<stop  offset="1" style="stop-color:#FFFFFF;stop-opacity:0"/>
			</linearGradient>
			<path id="path12595" class="st13" d="M255.5-230.7c0,1.9-1.6,3.5-3.5,3.5s-3.5-1.6-3.5-3.5s1.6-3.5,3.5-3.5
				S255.5-232.6,255.5-230.7L255.5-230.7z"/>
			<path id="path12597" class="st5" d="M241.5-230.7c0,1.9-1.6,3.5-3.5,3.5s-3.5-1.6-3.5-3.5s1.6-3.5,3.5-3.5
				S241.5-232.6,241.5-230.7L241.5-230.7z"/>
			
				<linearGradient id="path12599_1_" gradientUnits="userSpaceOnUse" x1="703.6347" y1="-245.3655" x2="707.0851" y2="-241.8694" gradientTransform="matrix(1.056 0 0 1.0566 -507.527 25.9762)">
				<stop  offset="0" style="stop-color:#FFFFFF"/>
				<stop  offset="1" style="stop-color:#FFFFFF;stop-opacity:0"/>
			</linearGradient>
			<path id="path12599" class="st14" d="M241.5-230.7c0,1.9-1.6,3.5-3.5,3.5s-3.5-1.6-3.5-3.5s1.6-3.5,3.5-3.5
				S241.5-232.6,241.5-230.7L241.5-230.7z"/>
			<path id="path12601" class="st5" d="M243.9-234.2c-3.6,0-6.5,2.9-6.5,6.5c0,2.4,1.3,4.3,3.3,5.5h6.5c1.9-1.1,3.2-3.1,3.2-5.5
				C250.4-231.3,247.5-234.2,243.9-234.2z"/>
			
				<linearGradient id="path12603_1_" gradientUnits="userSpaceOnUse" x1="706.2416" y1="-232.5828" x2="710.2753" y2="-227.3961" gradientTransform="matrix(0.9994 0 0 1 -464.7778 1.0001)">
				<stop  offset="0" style="stop-color:#FFFFFF"/>
				<stop  offset="1" style="stop-color:#FFFFFF;stop-opacity:0"/>
			</linearGradient>
			<path id="path12603" class="st15" d="M244-234.2c-3.6,0-6.5,2.9-6.5,6.5c0,2.4,1.3,4.4,3.3,5.5h6.5c1.9-1.1,3.2-3.1,3.2-5.5
				C250.5-231.3,247.5-234.2,244-234.2z"/>
			
				<linearGradient id="path12605_1_" gradientUnits="userSpaceOnUse" x1="736.7044" y1="-211.8685" x2="739.8041" y2="-209.0919" gradientTransform="matrix(0.9051 0 0 0.9057 -433.0326 -34.8733)">
				<stop  offset="0" style="stop-color:#FFFFFF"/>
				<stop  offset="1" style="stop-color:#FFFFFF;stop-opacity:0"/>
			</linearGradient>
			<path id="path12605" class="st16" d="M238.5-225.2c0,1.7-1.3,3-3,3s-3-1.3-3-3s1.3-3,3-3C237.1-228.2,238.5-226.9,238.5-225.2
				L238.5-225.2z"/>
			<path id="path12607" class="st17" d="M257.4-230.5c0,2.7-3.3,3.7-3.3,3.7s2.3-1.6,2.3-3.7H257.4z"/>
			<path id="path12609" class="st5" d="M252.5-226.2c0,2.2-1.8,4-4,4c-2.2,0-4-1.8-4-4s1.8-4,4-4
				C250.7-230.2,252.5-228.4,252.5-226.2L252.5-226.2z"/>
			
				<linearGradient id="path12611_1_" gradientUnits="userSpaceOnUse" x1="678.0891" y1="-271.2716" x2="682.1865" y2="-266.8698" gradientTransform="matrix(1.2068 0 0 1.2075 -574.0212 96.8257)">
				<stop  offset="0" style="stop-color:#FFFFFF"/>
				<stop  offset="1" style="stop-color:#FFFFFF;stop-opacity:0"/>
			</linearGradient>
			<path id="path12611" class="st18" d="M252.5-226.2c0,2.2-1.8,4-4,4c-2.2,0-4-1.8-4-4s1.8-4,4-4
				C250.7-230.2,252.5-228.4,252.5-226.2L252.5-226.2z"/>
		</g>
		<g id="g12393" transform="translate(56.98577,3.983930)">
			<path id="path12329" class="st10" d="M245-238.7c-2.3,0-4.1,1.6-4.7,3.6c-0.7-0.4-1.4-0.6-2.3-0.6c-2.8,0-5,2.2-5,5
				c0,0.6,0.2,1.1,0.3,1.6c-1.4,0.8-2.3,2.2-2.3,3.9c0,2.5,2,4.5,4.5,4.5c0.2,0,18.8,0,19,0c2.5,0,4.5-2,4.5-4.5
				c0-1.7-1-3.1-2.3-3.9c0.2-0.5,0.3-1,0.3-1.6c0-2.8-2.2-5-5-5c-0.8,0-1.6,0.3-2.3,0.6C249.1-237.1,247.2-238.7,245-238.7z"/>
			
				<linearGradient id="path12331_1_" gradientUnits="userSpaceOnUse" x1="729.4269" y1="-234.7957" x2="743.4338" y2="-225.7138" gradientTransform="matrix(0.9994 0 0 1 -493.7921 1.0001)">
				<stop  offset="0" style="stop-color:#FFFFFF"/>
				<stop  offset="1" style="stop-color:#FFFFFF;stop-opacity:0"/>
			</linearGradient>
			<path id="path12331" class="st19" d="M245-238.2c-2.2,0-3.7,1.3-4.4,3.8c-0.7-0.3-1.5-0.8-2.4-0.8c-2.7,0-4.8,1.9-4.8,4.5
				c0,0.5,0.3,1.3,0.4,1.8c-1.3,0.7-2.4,1.9-2.4,3.4c0,2.3,1.5,4.3,4.3,4.3c0.2,0,18.2,0,18.3,0c2.8,0,4.3-1.9,4.3-4.3
				c0-1.6-1.1-2.7-2.4-3.4c0.2-0.5,0.5-1.3,0.5-1.8c0-2.6-2.1-4.6-4.8-4.6c-0.8,0-1.6,0.5-2.3,0.8
				C248.7-236.8,247.1-238.2,245-238.2z"/>
			<path id="path12333" class="st5" d="M248.5-233.7c0,1.9-1.6,3.5-3.5,3.5s-3.5-1.6-3.5-3.5s1.6-3.5,3.5-3.5
				S248.5-235.6,248.5-233.7L248.5-233.7z"/>
			
				<linearGradient id="path12335_1_" gradientUnits="userSpaceOnUse" x1="734.8303" y1="-244.8919" x2="736.9893" y2="-241.4611" gradientTransform="matrix(1.056 0 0 1.0566 -532.2405 22.9762)">
				<stop  offset="0" style="stop-color:#FFFFFF"/>
				<stop  offset="1" style="stop-color:#FFFFFF;stop-opacity:0"/>
			</linearGradient>
			<path id="path12335" class="st20" d="M248.5-233.7c0,1.9-1.6,3.5-3.5,3.5s-3.5-1.6-3.5-3.5s1.6-3.5,3.5-3.5
				S248.5-235.6,248.5-233.7L248.5-233.7z"/>
			<rect id="rect12337" x="235.5" y="-231.2" class="st5" width="20" height="9"/>
			<path id="path12339" class="st5" d="M238.5-225.2c0,1.7-1.3,3-3,3s-3-1.3-3-3s1.3-3,3-3S238.5-226.9,238.5-225.2L238.5-225.2z"/>
			<path id="path12341" class="st5" d="M255.5-230.7c0,1.9-1.6,3.5-3.5,3.5s-3.5-1.6-3.5-3.5s1.6-3.5,3.5-3.5
				S255.5-232.6,255.5-230.7L255.5-230.7z"/>
			
				<linearGradient id="path12343_1_" gradientUnits="userSpaceOnUse" x1="733.8047" y1="-246.4104" x2="737.1467" y2="-241.2642" gradientTransform="matrix(1.056 0 0 1.0566 -525.2405 25.9762)">
				<stop  offset="0" style="stop-color:#FFFFFF"/>
				<stop  offset="1" style="stop-color:#FFFFFF;stop-opacity:0"/>
			</linearGradient>
			<path id="path12343" class="st21" d="M255.5-230.7c0,1.9-1.6,3.5-3.5,3.5s-3.5-1.6-3.5-3.5s1.6-3.5,3.5-3.5
				S255.5-232.6,255.5-230.7L255.5-230.7z"/>
			<path id="path12347" class="st5" d="M241.5-230.7c0,1.9-1.6,3.5-3.5,3.5s-3.5-1.6-3.5-3.5s1.6-3.5,3.5-3.5
				S241.5-232.6,241.5-230.7L241.5-230.7z"/>
			
				<linearGradient id="path12349_1_" gradientUnits="userSpaceOnUse" x1="733.6679" y1="-245.3652" x2="737.1183" y2="-241.8691" gradientTransform="matrix(1.056 0 0 1.0566 -539.2405 25.9762)">
				<stop  offset="0" style="stop-color:#FFFFFF"/>
				<stop  offset="1" style="stop-color:#FFFFFF;stop-opacity:0"/>
			</linearGradient>
			<path id="path12349" class="st22" d="M241.5-230.7c0,1.9-1.6,3.5-3.5,3.5s-3.5-1.6-3.5-3.5s1.6-3.5,3.5-3.5
				S241.5-232.6,241.5-230.7L241.5-230.7z"/>
			<path id="path12351" class="st5" d="M243.9-234.2c-3.6,0-6.5,2.9-6.5,6.5c0,2.4,1.3,4.3,3.3,5.5h6.5c1.9-1.1,3.3-3.1,3.3-5.5
				C250.4-231.3,247.5-234.2,243.9-234.2z"/>
			
				<linearGradient id="path12353_1_" gradientUnits="userSpaceOnUse" x1="736.2813" y1="-232.5876" x2="740.3148" y2="-227.4009" gradientTransform="matrix(0.9994 0 0 1 -494.7921 1.0001)">
				<stop  offset="0" style="stop-color:#FFFFFF"/>
				<stop  offset="1" style="stop-color:#FFFFFF;stop-opacity:0"/>
			</linearGradient>
			<path id="path12353" class="st23" d="M244-234.2c-3.6,0-6.5,2.9-6.5,6.5c0,2.4,1.3,4.4,3.3,5.5h6.5c1.9-1.1,3.3-3.1,3.3-5.5
				C250.5-231.3,247.5-234.2,244-234.2z"/>
			
				<linearGradient id="path12355_1_" gradientUnits="userSpaceOnUse" x1="766.7473" y1="-211.879" x2="769.847" y2="-209.1024" gradientTransform="matrix(0.9051 0 0 0.9057 -460.2156 -34.8735)">
				<stop  offset="0" style="stop-color:#FFFFFF"/>
				<stop  offset="1" style="stop-color:#FFFFFF;stop-opacity:0"/>
			</linearGradient>
			<path id="path12355" class="st24" d="M238.5-225.2c0,1.7-1.3,3-3,3s-3-1.3-3-3s1.3-3,3-3S238.5-226.9,238.5-225.2L238.5-225.2z"
				/>
			<path id="path12357" class="st17" d="M257.4-230.5c0,2.7-3.3,3.7-3.3,3.7s2.3-1.6,2.3-3.7H257.4z"/>
			<path id="path12359" class="st5" d="M252.5-226.2c0,2.2-1.8,4-4,4s-4-1.8-4-4s1.8-4,4-4S252.5-228.4,252.5-226.2L252.5-226.2z"/>
			
				<linearGradient id="path12361_1_" gradientUnits="userSpaceOnUse" x1="708.1224" y1="-271.2714" x2="712.2197" y2="-266.8696" gradientTransform="matrix(1.2068 0 0 1.2075 -610.2651 96.8259)">
				<stop  offset="0" style="stop-color:#FFFFFF"/>
				<stop  offset="1" style="stop-color:#FFFFFF;stop-opacity:0"/>
			</linearGradient>
			<path id="path12361" class="st25" d="M252.5-226.2c0,2.2-1.8,4-4,4s-4-1.8-4-4s1.8-4,4-4S252.5-228.4,252.5-226.2L252.5-226.2z"
				/>
		</g>
	</g>
	<g id="g12191" transform="translate(-222.9549,261.0144)">
		<path id="path12193" class="st0" d="M230.1-229c-1-0.6-1.4-1.9-0.8-2.9c1.3-2.1,3.1-1.5,4-3.7C234.6-234.3,234.1-227.4,230.1-229z
			"/>
		
			<radialGradient id="path12195_1_" cx="3701.6924" cy="207.0955" r="21.7436" gradientTransform="matrix(7.065158e-02 4.154803e-02 -6.201499e-02 0.1094 -17.457 -407.4849)" gradientUnits="userSpaceOnUse">
			<stop  offset="0" style="stop-color:#FFFFFF"/>
			<stop  offset="1" style="stop-color:#FFFFFF;stop-opacity:0"/>
		</radialGradient>
		<path id="path12195" class="st26" d="M232.8-230.1c-0.5,0.9-1.6,1.2-2.4,0.7c-0.8-0.5-1.1-1.6-0.6-2.5s2.6-0.5,3.3-2.3
			C233.9-233.7,233.3-231,232.8-230.1z"/>
		
			<linearGradient id="path12197_1_" gradientUnits="userSpaceOnUse" x1="796.1821" y1="-2905.6218" x2="816.6882" y2="-2927.1001" gradientTransform="matrix(-5.358613e-02 0.1028 -9.281434e-02 -5.937964e-02 3.4681 -488.2711)">
			<stop  offset="0" style="stop-color:#FFFFFF"/>
			<stop  offset="1" style="stop-color:#FFFFFF;stop-opacity:0"/>
		</linearGradient>
		<path id="path12197" class="st27" d="M231.5-229.2c-4.6-1.1,0.2-4.7,1-3.9C228.9-231.8,231.5-229.2,231.5-229.2z"/>
	</g>
	<g id="g12239" transform="translate(-193.9565,268.0066)">
		<path id="path12241" class="st0" d="M230.1-229c-1-0.6-1.4-1.9-0.8-2.9c1.3-2.1,3.1-1.5,4-3.7C234.6-234.3,234.1-227.4,230.1-229z
			"/>
		
			<radialGradient id="path12243_1_" cx="3643.6956" cy="207.0955" r="21.7436" gradientTransform="matrix(7.065158e-02 4.154803e-02 -6.201499e-02 0.1094 -13.3595 -405.0753)" gradientUnits="userSpaceOnUse">
			<stop  offset="0" style="stop-color:#FFFFFF"/>
			<stop  offset="1" style="stop-color:#FFFFFF;stop-opacity:0"/>
		</radialGradient>
		<path id="path12243" class="st28" d="M232.8-230.1c-0.5,0.9-1.6,1.2-2.4,0.7c-0.8-0.5-1.1-1.6-0.6-2.5s2.6-0.5,3.3-2.3
			C233.9-233.7,233.3-231,232.8-230.1z"/>
		
			<linearGradient id="path12245_1_" gradientUnits="userSpaceOnUse" x1="738.183" y1="-2905.624" x2="758.6891" y2="-2927.1023" gradientTransform="matrix(-5.358613e-02 0.1028 -9.281434e-02 -5.937964e-02 0.3603 -482.3075)">
			<stop  offset="0" style="stop-color:#FFFFFF"/>
			<stop  offset="1" style="stop-color:#FFFFFF;stop-opacity:0"/>
		</linearGradient>
		<path id="path12245" class="st29" d="M231.5-229.2c-4.6-1.1,0.2-4.7,1-3.9C228.9-231.8,231.5-229.2,231.5-229.2z"/>
	</g>
	<g id="g12186" transform="translate(-224.9550,271.0079)">
		<path id="path6059" class="st0" d="M230.1-229c-1-0.6-1.4-1.9-0.8-2.9c1.3-2.1,3.1-1.5,4-3.7C234.6-234.3,234.1-227.4,230.1-229z"
			/>
		
			<radialGradient id="path6061_1_" cx="3705.6926" cy="207.0955" r="21.7436" gradientTransform="matrix(7.065158e-02 4.154803e-02 -6.201499e-02 0.1094 -17.7397 -407.6512)" gradientUnits="userSpaceOnUse">
			<stop  offset="0" style="stop-color:#FFFFFF"/>
			<stop  offset="1" style="stop-color:#FFFFFF;stop-opacity:0"/>
		</radialGradient>
		<path id="path6061" class="st30" d="M232.8-230.1c-0.5,0.9-1.6,1.2-2.4,0.7c-0.8-0.5-1.1-1.6-0.6-2.5s2.6-0.5,3.3-2.3
			C233.9-233.7,233.3-231,232.8-230.1z"/>
		
			<linearGradient id="path6063_1_" gradientUnits="userSpaceOnUse" x1="800.1824" y1="-2905.6218" x2="820.6885" y2="-2927.1001" gradientTransform="matrix(-5.358613e-02 0.1028 -9.281434e-02 -5.937964e-02 3.6825 -488.6824)">
			<stop  offset="0" style="stop-color:#FFFFFF"/>
			<stop  offset="1" style="stop-color:#FFFFFF;stop-opacity:0"/>
		</linearGradient>
		<path id="path6063" class="st31" d="M231.5-229.2c-4.6-1.1,0.2-4.7,1-3.9C228.9-231.8,231.5-229.2,231.5-229.2z"/>
	</g>
	<g id="g12203" transform="translate(-214.9565,266.0066)">
		<path id="path12205" class="st0" d="M230.1-229c-1-0.6-1.4-1.9-0.8-2.9c1.3-2.1,3.1-1.5,4-3.7C234.6-234.3,234.1-227.4,230.1-229z
			"/>
		
			<radialGradient id="path12207_1_" cx="3685.6956" cy="207.0955" r="21.7436" gradientTransform="matrix(7.065158e-02 4.154803e-02 -6.201499e-02 0.1094 -16.3268 -406.8203)" gradientUnits="userSpaceOnUse">
			<stop  offset="0" style="stop-color:#FFFFFF"/>
			<stop  offset="1" style="stop-color:#FFFFFF;stop-opacity:0"/>
		</radialGradient>
		<path id="path12207" class="st32" d="M232.8-230.1c-0.5,0.9-1.6,1.2-2.4,0.7c-0.8-0.5-1.1-1.6-0.6-2.5s2.6-0.5,3.3-2.3
			C233.9-233.7,233.3-231,232.8-230.1z"/>
		
			<linearGradient id="path12209_1_" gradientUnits="userSpaceOnUse" x1="780.1849" y1="-2905.6221" x2="800.691" y2="-2927.1006" gradientTransform="matrix(-5.358613e-02 0.1028 -9.281434e-02 -5.937964e-02 2.611 -486.6262)">
			<stop  offset="0" style="stop-color:#FFFFFF"/>
			<stop  offset="1" style="stop-color:#FFFFFF;stop-opacity:0"/>
		</linearGradient>
		<path id="path12209" class="st33" d="M231.5-229.2c-4.6-1.1,0.2-4.7,1-3.9C228.9-231.8,231.5-229.2,231.5-229.2z"/>
	</g>
	<g id="g12215" transform="translate(-200.9565,261.0144)">
		<path id="path12217" class="st0" d="M230.1-229c-1-0.6-1.4-1.9-0.8-2.9c1.3-2.1,3.1-1.5,4-3.7C234.6-234.3,234.1-227.4,230.1-229z
			"/>
		
			<radialGradient id="path12219_1_" cx="3657.6956" cy="207.0955" r="21.7436" gradientTransform="matrix(7.065158e-02 4.154803e-02 -6.201499e-02 0.1094 -14.3486 -405.6569)" gradientUnits="userSpaceOnUse">
			<stop  offset="0" style="stop-color:#FFFFFF"/>
			<stop  offset="1" style="stop-color:#FFFFFF;stop-opacity:0"/>
		</radialGradient>
		<path id="path12219" class="st34" d="M232.8-230.1c-0.5,0.9-1.6,1.2-2.4,0.7c-0.8-0.5-1.1-1.6-0.6-2.5s2.6-0.5,3.3-2.3
			C233.9-233.7,233.3-231,232.8-230.1z"/>
		
			<linearGradient id="path12221_1_" gradientUnits="userSpaceOnUse" x1="752.1835" y1="-2905.6235" x2="772.6896" y2="-2927.1018" gradientTransform="matrix(-5.358613e-02 0.1028 -9.281434e-02 -5.937964e-02 1.1105 -483.7471)">
			<stop  offset="0" style="stop-color:#FFFFFF"/>
			<stop  offset="1" style="stop-color:#FFFFFF;stop-opacity:0"/>
		</linearGradient>
		<path id="path12221" class="st35" d="M231.5-229.2c-4.6-1.1,0.2-4.7,1-3.9C228.9-231.8,231.5-229.2,231.5-229.2z"/>
	</g>
</g>
</svg>
