<?xml version="1.0" encoding="utf-8"?>
<!-- Generator: Adobe Illustrator 24.0.1, SVG Export Plug-In . SVG Version: 6.00 Build 0)  -->
<svg version="1.1"
	 id="svg1306" xmlns:cc="http://creativecommons.org/ns#" xmlns:dc="http://purl.org/dc/elements/1.1/" xmlns:inkscape="http://www.inkscape.org/namespaces/inkscape" xmlns:rdf="http://www.w3.org/1999/02/22-rdf-syntax-ns#" xmlns:sodipodi="http://sodipodi.sourceforge.net/DTD/sodipodi-0.dtd" xmlns:svg="http://www.w3.org/2000/svg"
	 xmlns="http://www.w3.org/2000/svg" xmlns:xlink="http://www.w3.org/1999/xlink" x="0px" y="0px" viewBox="0 0 45 45"
	 style="enable-background:new 0 0 45 45;" xml:space="preserve">
<style type="text/css">
	.st0{fill:#555753;}
	.st1{fill:url(#path12829_2_);}
	.st2{fill:#888A85;}
	.st3{opacity:0.4944;fill:url(#path12837_2_);enable-background:new    ;}
	.st4{opacity:0.4944;fill:url(#path12843_2_);enable-background:new    ;}
	.st5{opacity:0.4944;fill:url(#path12849_2_);enable-background:new    ;}
	.st6{opacity:0.4944;fill:url(#path12855_2_);enable-background:new    ;}
	.st7{fill-rule:evenodd;clip-rule:evenodd;fill:#EDD400;stroke:url(#path11179_2_);}
	.st8{fill-rule:evenodd;clip-rule:evenodd;fill:url(#path11181_2_);}
	.st9{fill:#888A85;stroke:#555753;stroke-miterlimit:2;}
	.st10{fill:url(#path12861_1_);}
	.st11{opacity:0.4778;fill:url(#path12865_2_);enable-background:new    ;}
	.st12{opacity:0.4778;fill:url(#path12873_1_);enable-background:new    ;}
	.st13{opacity:0.4778;fill:url(#path12877_1_);enable-background:new    ;}
	.st14{opacity:0.4778;fill:url(#path12881_1_);enable-background:new    ;}
	.st15{opacity:0.4778;fill:url(#path12883_1_);enable-background:new    ;}
	.st16{fill-rule:evenodd;clip-rule:evenodd;fill:#555753;}
	.st17{opacity:0.4778;fill:url(#path12889_1_);enable-background:new    ;}
	.st18{fill-rule:evenodd;clip-rule:evenodd;fill:#EDD400;stroke:url(#path11185_2_);}
	.st19{fill-rule:evenodd;clip-rule:evenodd;fill:url(#path11187_2_);}
	.st20{fill:url(#path13209_2_);}
	.st21{fill:url(#path12895_2_);}
	.st22{opacity:0.4778;fill:url(#path12899_2_);enable-background:new    ;}
	.st23{opacity:0.4778;fill:url(#path12907_2_);enable-background:new    ;}
	.st24{opacity:0.4778;fill:url(#path12911_2_);enable-background:new    ;}
	.st25{opacity:0.4778;fill:url(#path12915_2_);enable-background:new    ;}
	.st26{opacity:0.4778;fill:url(#path12917_2_);enable-background:new    ;}
	.st27{opacity:0.4778;fill:url(#path12923_2_);enable-background:new    ;}
	.st28{fill:url(#path11418_2_);}
	.st29{fill:#729FCF;stroke:#204A87;stroke-width:1.0746;stroke-miterlimit:2;}
	.st30{opacity:0.4611;fill:url(#path12231_1_);enable-background:new    ;}
	.st31{fill:url(#path12233_1_);}
	.st32{opacity:0.4611;fill:url(#path12195_1_);enable-background:new    ;}
	.st33{fill:url(#path12197_1_);}
	.st34{opacity:0.4611;fill:url(#path12243_1_);enable-background:new    ;}
	.st35{fill:url(#path12245_1_);}
</style>
<g id="layer1_30_">
	<g id="g12825_1_" transform="translate(-287.0204,244.9995)">
		<path id="path12827_1_" class="st0" d="M310-245c-2.8,0-5.1,1.6-6.4,3.8c-0.9-0.5-2-0.8-3.1-0.8c-3.9,0-7,3.1-7,7s3.1,7,7,7
			c2.4,0,4.4-1.3,5.7-3.2c1.1,0.7,2.4,1.2,3.8,1.2c0.9,0,1.8-0.2,2.6-0.5c0.5,0.9,1.2,1.6,2,2.2c0,0.1-0.1,0.2-0.1,0.4
			c0,3.9,3.1,7,7,7s7-3.1,7-7c0-2.4-1.3-4.4-3.1-5.6c0-0.1,0.1-0.2,0.1-0.4c0-3.9-3.1-7-7-7c-0.6,0-1.2,0.2-1.8,0.4
			C315.6-243.2,313-245,310-245z"/>
		
			<linearGradient id="path12829_2_" gradientUnits="userSpaceOnUse" x1="801.0742" y1="-188.2378" x2="838.9355" y2="-175.2005" gradientTransform="matrix(1 0 0 1 -505.0408 -51)">
			<stop  offset="0" style="stop-color:#FFFFFF"/>
			<stop  offset="1" style="stop-color:#FFFFFF;stop-opacity:0"/>
		</linearGradient>
		<path id="path12829_1_" class="st1" d="M310-244c-2.8,0-5.1,1.8-6.1,4.2c-1-0.7-2.1-1.2-3.4-1.2c-3.3,0-6,2.7-6,6s2.7,6,6,6
			c2.4,0,4.5-1.5,5.4-3.5c1.1,0.9,2.5,1.5,4.1,1.5c1.1,0,2-0.3,2.9-0.8c0.4,1,1.1,1.8,1.9,2.4c-0.2,0.6-0.4,1.2-0.4,1.8
			c0,3.6,2.9,6.5,6.5,6.5s6.5-2.9,6.5-6.5c0-2.4-1.3-4.3-3.2-5.5c0.1-0.3,0.2-0.7,0.2-1c0-3.3-2.7-6-6-6c-0.9,0-1.7,0.2-2.4,0.5
			C315.3-242.1,312.9-244,310-244z"/>
		<path id="path12831_1_" class="st2" d="M327.5-227.5c0,3.6-2.9,6.5-6.5,6.5s-6.5-2.9-6.5-6.5l0,0c0-3.6,2.9-6.5,6.5-6.5
			S327.5-231.1,327.5-227.5L327.5-227.5z"/>
		<g id="g12833_1_">
			<path id="path12835_1_" class="st2" d="M315.5-237.5c0,3-2.5,5.5-5.5,5.5s-5.5-2.5-5.5-5.5s2.5-5.5,5.5-5.5
				S315.5-240.5,315.5-237.5z"/>
			
				<linearGradient id="path12837_2_" gradientUnits="userSpaceOnUse" x1="839.4551" y1="-161.7793" x2="845.2084" y2="-156.9224" gradientTransform="matrix(0.8826 0 0 0.8826 -434.6575 -97.8936)">
				<stop  offset="0" style="stop-color:#FFFFFF"/>
				<stop  offset="1" style="stop-color:#FFFFFF;stop-opacity:0"/>
			</linearGradient>
			<path id="path12837_1_" class="st3" d="M315.5-237.5c0,3-2.5,5.5-5.5,5.5s-5.5-2.5-5.5-5.5s2.5-5.5,5.5-5.5
				S315.5-240.5,315.5-237.5z"/>
		</g>
		<g id="g12839_1_">
			<path id="path12841_1_" class="st2" d="M323.5-233.5c0,3-2.5,5.5-5.5,5.5s-5.5-2.5-5.5-5.5l0,0c0-3,2.5-5.5,5.5-5.5
				S323.5-236.5,323.5-233.5z"/>
			
				<linearGradient id="path12843_2_" gradientUnits="userSpaceOnUse" x1="838.6118" y1="-167.0274" x2="844.5692" y2="-161.0652" gradientTransform="matrix(0.9117 0 0 0.9117 -451.0939 -85.769)">
				<stop  offset="0" style="stop-color:#FFFFFF"/>
				<stop  offset="1" style="stop-color:#FFFFFF;stop-opacity:0"/>
			</linearGradient>
			<path id="path12843_1_" class="st4" d="M323.5-233.5c0,3-2.5,5.5-5.5,5.5s-5.5-2.5-5.5-5.5l0,0c0-3,2.5-5.5,5.5-5.5
				S323.5-236.5,323.5-233.5z"/>
		</g>
		<g id="g12845_1_">
			<path id="path12847_1_" class="st2" d="M305.5-235c0,2.8-2.2,5-5,5s-5-2.2-5-5s2.2-5,5-5S305.5-237.8,305.5-235L305.5-235z"/>
			
				<linearGradient id="path12849_2_" gradientUnits="userSpaceOnUse" x1="777.6432" y1="-211.5933" x2="782.0238" y2="-208.1128" gradientTransform="matrix(1.1428 0 0 1.1428 -591.3645 4.2771)">
				<stop  offset="0" style="stop-color:#FFFFFF"/>
				<stop  offset="1" style="stop-color:#FFFFFF;stop-opacity:0"/>
			</linearGradient>
			<path id="path12849_1_" class="st5" d="M305.5-235c0,2.8-2.2,5-5,5s-5-2.2-5-5s2.2-5,5-5S305.5-237.8,305.5-235L305.5-235z"/>
		</g>
		<g id="g12851_1_">
			<path id="path12853_1_" class="st2" d="M316.5-231c0,3.9-3.1,7-7,7s-7-3.1-7-7l0,0c0-3.9,3.1-7,7-7S316.5-234.9,316.5-231
				L316.5-231z"/>
			
				<linearGradient id="path12855_2_" gradientUnits="userSpaceOnUse" x1="802.0688" y1="-190.8452" x2="809.7186" y2="-185.0158" gradientTransform="matrix(1.0386 0 0 1.0386 -528.4047 -36.5134)">
				<stop  offset="0" style="stop-color:#FFFFFF"/>
				<stop  offset="1" style="stop-color:#FFFFFF;stop-opacity:0"/>
			</linearGradient>
			<path id="path12855_1_" class="st6" d="M316.5-231c0,3.9-3.1,7-7,7s-7-3.1-7-7l0,0c0-3.9,3.1-7,7-7S316.5-234.9,316.5-231
				L316.5-231z"/>
		</g>
	</g>
	<g id="g11177_1_" transform="translate(208.8564,357.8851)">
		
			<linearGradient id="path11179_2_" gradientUnits="userSpaceOnUse" x1="-609.1695" y1="-124.5386" x2="-610.2945" y2="-111.7886" gradientTransform="matrix(1 0 0 1 431.518 -203.1598)">
			<stop  offset="0" style="stop-color:#FCAF3E"/>
			<stop  offset="1" style="stop-color:#FCAF3E;stop-opacity:0"/>
		</linearGradient>
		<path id="path11179_1_" class="st7" d="M-173.7-330.1l-3.1,4.3h3.8c0,0-2.7,4.5-7.6,12.9c2.1-7.9,3-11,3-11h-5.2l4-6.2
			L-173.7-330.1L-173.7-330.1z"/>
		
			<linearGradient id="path11181_2_" gradientUnits="userSpaceOnUse" x1="-606.9646" y1="-126.5958" x2="-612.6781" y2="-122.6183" gradientTransform="matrix(1 0 0 1 431.8715 -198.9171)">
			<stop  offset="0" style="stop-color:#FFFFFF"/>
			<stop  offset="1" style="stop-color:#FFFFFF;stop-opacity:0"/>
		</linearGradient>
		<path id="path11181_1_" class="st8" d="M-174.2-330.3l-3.7,5.2l4-0.2c0,0-0.1,0.5-5,8.9c2.1-7.9,2.1-8,2.1-8l-4.9,0.1l3.7-5.7
			L-174.2-330.3z"/>
	</g>
	<g id="g12857_4_" transform="translate(-215.0060,252.9994)">
		<path id="path12859_4_" class="st9" d="M245-240.5c-2.3,0-4.1,1.6-4.7,3.6c-0.7-0.4-1.4-0.6-2.3-0.6c-2.8,0-5,2.2-5,5
			c0,0.6,0.2,1.1,0.3,1.6c-1.4,0.8-2.3,2.2-2.3,3.9c0,2.5,2,4.5,4.5,4.5c0.2,0,18.8,0,19,0c2.5,0,4.5-2,4.5-4.5c0-1.7-1-3.1-2.3-3.9
			c0.2-0.5,0.3-1,0.3-1.6c0-2.8-2.2-5-5-5c-0.8,0-1.6,0.3-2.3,0.6C249.2-238.9,247.3-240.5,245-240.5z"/>
		
			<linearGradient id="path12861_1_" gradientUnits="userSpaceOnUse" x1="699.2546" y1="-236.5371" x2="713.2615" y2="-227.4552" gradientTransform="matrix(1 0 0 1 -464.0121 1.0001)">
			<stop  offset="0" style="stop-color:#FFFFFF"/>
			<stop  offset="1" style="stop-color:#FFFFFF;stop-opacity:0"/>
		</linearGradient>
		<path id="path12861_4_" class="st10" d="M245-240c-2.2,0-3.7,1.3-4.4,3.8c-0.7-0.3-1.5-0.8-2.4-0.8c-2.7,0-4.8,1.9-4.8,4.5
			c0,0.5,0.3,1.3,0.4,1.8c-1.3,0.7-2.4,1.9-2.4,3.4c0,2.3,1.5,4.3,4.3,4.3c0.2,0,18.2,0,18.3,0c2.8,0,4.3-1.9,4.3-4.3
			c0-1.6-1.1-2.7-2.4-3.4c0.2-0.5,0.5-1.3,0.5-1.8c0-2.6-2.1-4.6-4.8-4.6c-0.8,0-1.6,0.5-2.3,0.8C248.8-238.6,247.2-240,245-240z"/>
		<path id="path12863_1_" class="st2" d="M248.5-235.5c0,1.9-1.6,3.5-3.5,3.5s-3.5-1.6-3.5-3.5s1.6-3.5,3.5-3.5
			C247-239,248.5-237.4,248.5-235.5L248.5-235.5z"/>
		
			<linearGradient id="path12865_2_" gradientUnits="userSpaceOnUse" x1="704.7491" y1="-246.4435" x2="706.9081" y2="-243.0127" gradientTransform="matrix(1.0566 0 0 1.0566 -500.8898 22.863)">
			<stop  offset="0" style="stop-color:#FFFFFF"/>
			<stop  offset="1" style="stop-color:#FFFFFF;stop-opacity:0"/>
		</linearGradient>
		<path id="path12865_1_" class="st11" d="M248.5-235.5c0,1.9-1.6,3.5-3.5,3.5s-3.5-1.6-3.5-3.5s1.6-3.5,3.5-3.5
			C247-239,248.5-237.4,248.5-235.5L248.5-235.5z"/>
		<rect id="rect12867_4_" x="235.5" y="-233" class="st2" width="20" height="9"/>
		<path id="path12869_4_" class="st2" d="M238.5-227c0,1.7-1.3,3-3,3s-3-1.3-3-3s1.3-3,3-3S238.5-228.7,238.5-227L238.5-227z"/>
		<path id="path12871_4_" class="st2" d="M255.5-232.5c0,1.9-1.6,3.5-3.5,3.5s-3.5-1.6-3.5-3.5s1.6-3.5,3.5-3.5
			C254-236,255.5-234.4,255.5-232.5L255.5-232.5z"/>
		
			<linearGradient id="path12873_1_" gradientUnits="userSpaceOnUse" x1="703.7249" y1="-247.9618" x2="707.067" y2="-242.8155" gradientTransform="matrix(1.0566 0 0 1.0566 -493.8898 25.863)">
			<stop  offset="0" style="stop-color:#FFFFFF"/>
			<stop  offset="1" style="stop-color:#FFFFFF;stop-opacity:0"/>
		</linearGradient>
		<path id="path12873_4_" class="st12" d="M255.5-232.5c0,1.9-1.6,3.5-3.5,3.5s-3.5-1.6-3.5-3.5s1.6-3.5,3.5-3.5
			C254-236,255.5-234.4,255.5-232.5L255.5-232.5z"/>
		<path id="path12875_4_" class="st2" d="M241.5-232.5c0,1.9-1.6,3.5-3.5,3.5s-3.5-1.6-3.5-3.5s1.6-3.5,3.5-3.5
			C240-236,241.5-234.4,241.5-232.5L241.5-232.5z"/>
		
			<linearGradient id="path12877_1_" gradientUnits="userSpaceOnUse" x1="703.6006" y1="-246.9174" x2="707.051" y2="-243.4213" gradientTransform="matrix(1.0566 0 0 1.0566 -507.8898 25.863)">
			<stop  offset="0" style="stop-color:#FFFFFF"/>
			<stop  offset="1" style="stop-color:#FFFFFF;stop-opacity:0"/>
		</linearGradient>
		<path id="path12877_4_" class="st13" d="M241.5-232.5c0,1.9-1.6,3.5-3.5,3.5s-3.5-1.6-3.5-3.5s1.6-3.5,3.5-3.5
			C240-236,241.5-234.4,241.5-232.5L241.5-232.5z"/>
		<path id="path12879_4_" class="st2" d="M244-236c-3.6,0-6.5,2.9-6.5,6.5c0,2.4,1.3,4.3,3.3,5.5h6.5c1.9-1.1,3.3-3.1,3.3-5.5
			C250.5-233.1,247.6-236,244-236z"/>
		
			<linearGradient id="path12881_1_" gradientUnits="userSpaceOnUse" x1="706.0905" y1="-234.3348" x2="710.1241" y2="-229.1481" gradientTransform="matrix(1 0 0 1 -465.0121 1.0001)">
			<stop  offset="0" style="stop-color:#FFFFFF"/>
			<stop  offset="1" style="stop-color:#FFFFFF;stop-opacity:0"/>
		</linearGradient>
		<path id="path12881_4_" class="st14" d="M244-236c-3.6,0-6.5,2.9-6.5,6.5c0,2.4,1.3,4.4,3.3,5.5h6.5c1.9-1.1,3.3-3.1,3.3-5.5
			C250.5-233.1,247.6-236,244-236z"/>
		
			<linearGradient id="path12883_1_" gradientUnits="userSpaceOnUse" x1="736.3215" y1="-213.9995" x2="739.4212" y2="-211.2229" gradientTransform="matrix(0.9057 0 0 0.9057 -433.0529 -34.6847)">
			<stop  offset="0" style="stop-color:#FFFFFF"/>
			<stop  offset="1" style="stop-color:#FFFFFF;stop-opacity:0"/>
		</linearGradient>
		<path id="path12883_4_" class="st15" d="M238.5-227c0,1.7-1.3,3-3,3s-3-1.3-3-3s1.3-3,3-3S238.5-228.7,238.5-227L238.5-227z"/>
		<path id="path12885_1_" class="st16" d="M257.5-232.3c0,2.7-3.3,3.7-3.3,3.7s2.3-1.6,2.3-3.7H257.5z"/>
		<path id="path12887_4_" class="st2" d="M252.5-228c0,2.2-1.8,4-4,4s-4-1.8-4-4s1.8-4,4-4S252.5-230.2,252.5-228L252.5-228z"/>
		
			<linearGradient id="path12889_1_" gradientUnits="userSpaceOnUse" x1="678.3103" y1="-272.3813" x2="682.4077" y2="-267.9794" gradientTransform="matrix(1.2075 0 0 1.2075 -574.7263 96.4107)">
			<stop  offset="0" style="stop-color:#FFFFFF"/>
			<stop  offset="1" style="stop-color:#FFFFFF;stop-opacity:0"/>
		</linearGradient>
		<path id="path12889_4_" class="st17" d="M252.5-228c0,2.2-1.8,4-4,4s-4-1.8-4-4s1.8-4,4-4S252.5-230.2,252.5-228L252.5-228z"/>
	</g>
	<g id="g11183_1_" transform="translate(192.8564,354.8851)">
		
			<linearGradient id="path11185_2_" gradientUnits="userSpaceOnUse" x1="-577.1695" y1="-124.0531" x2="-578.2945" y2="-111.3031" gradientTransform="matrix(1 0 0 1 399.518 -203.1598)">
			<stop  offset="0" style="stop-color:#FCAF3E"/>
			<stop  offset="1" style="stop-color:#FCAF3E;stop-opacity:0"/>
		</linearGradient>
		<path id="path11185_1_" class="st18" d="M-173.7-329.6l-3.1,4.3h3.8c0,0-2.7,4.5-7.6,12.9c2.1-7.9,3-11,3-11h-5.2l4-6.2
			L-173.7-329.6L-173.7-329.6z"/>
		
			<linearGradient id="path11187_2_" gradientUnits="userSpaceOnUse" x1="-574.9646" y1="-126.1102" x2="-580.6781" y2="-122.1327" gradientTransform="matrix(1 0 0 1 399.8715 -198.9171)">
			<stop  offset="0" style="stop-color:#FFFFFF"/>
			<stop  offset="1" style="stop-color:#FFFFFF;stop-opacity:0"/>
		</linearGradient>
		<path id="path11187_1_" class="st19" d="M-174.2-329.8l-3.7,5.2l4-0.2c0,0-0.1,0.5-5,8.9c2.1-7.9,2.1-8,2.1-8l-4.9,0.1l3.7-5.7
			L-174.2-329.8z"/>
	</g>
	
		<radialGradient id="path13209_2_" cx="-216.0176" cy="111.178" r="14.5014" gradientTransform="matrix(0.9309 0 0 0.4482 231.1345 -21.0677)" gradientUnits="userSpaceOnUse">
		<stop  offset="0" style="stop-color:#FFFFFF"/>
		<stop  offset="1" style="stop-color:#FFFFFF;stop-opacity:0"/>
	</radialGradient>
	<path id="path13209_1_" class="st20" d="M30.2,13c-2,0-3.7,1.1-4.5,2.6c-0.6-0.2-1.2-0.4-1.9-0.4c-2.8,0-5.1,2.1-5.1,4.7
		c0,0.5,0.1,0.9,0.3,1.3c-1.5,0.9-2.5,2.3-2.5,4c0,2.7,0.7,5,5.2,4.8c0,0,17.5,0.1,17.7,0c3.1,0.2,4.1-2.4,4.1-4.7
		c0-1.7-0.8-3-2.3-3.9c0-0.3,0-0.6,0-0.8c0-2.6-2.3-4.7-5.1-4.7c-0.4,0-0.7,0.1-1.1,0.2C34.2,14.3,32.4,13,30.2,13z"/>
	<g id="g12891_1_" transform="translate(-230.0203,248.9834)">
		<path id="path12893_1_" class="st9" d="M245-240.5c-2.3,0-4.1,1.6-4.7,3.6c-0.7-0.4-1.4-0.6-2.3-0.6c-2.8,0-5,2.2-5,5
			c0,0.6,0.2,1.1,0.3,1.6c-1.4,0.8-2.3,2.2-2.3,3.9c0,2.5,2,4.5,4.5,4.5c0.2,0,18.8,0,19,0c2.5,0,4.5-2,4.5-4.5c0-1.7-1-3.1-2.3-3.9
			c0.2-0.5,0.3-1,0.3-1.6c0-2.8-2.2-5-5-5c-0.8,0-1.6,0.3-2.3,0.6C249.2-238.9,247.3-240.5,245-240.5z"/>
		
			<linearGradient id="path12895_2_" gradientUnits="userSpaceOnUse" x1="729.2831" y1="-236.5372" x2="743.2901" y2="-227.4552" gradientTransform="matrix(1 0 0 1 -494.0407 1.0001)">
			<stop  offset="0" style="stop-color:#FFFFFF"/>
			<stop  offset="1" style="stop-color:#FFFFFF;stop-opacity:0"/>
		</linearGradient>
		<path id="path12895_1_" class="st21" d="M245-240c-2.2,0-3.7,1.3-4.4,3.8c-0.7-0.3-1.5-0.8-2.4-0.8c-2.7,0-4.8,1.9-4.8,4.5
			c0,0.5,0.3,1.3,0.4,1.8c-1.3,0.7-2.4,1.9-2.4,3.4c0,2.3,1.5,4.3,4.3,4.3c0.2,0,18.2,0,18.3,0c2.8,0,4.3-1.9,4.3-4.3
			c0-1.6-1.1-2.7-2.4-3.4c0.2-0.5,0.5-1.3,0.5-1.8c0-2.6-2.1-4.6-4.8-4.6c-0.8,0-1.6,0.5-2.3,0.8C248.8-238.6,247.2-240,245-240z"/>
		<path id="path12897_1_" class="st2" d="M248.5-235.5c0,1.9-1.6,3.5-3.5,3.5s-3.5-1.6-3.5-3.5s1.6-3.5,3.5-3.5
			C247-239,248.5-237.4,248.5-235.5L248.5-235.5z"/>
		
			<linearGradient id="path12899_2_" gradientUnits="userSpaceOnUse" x1="734.7778" y1="-246.4435" x2="736.9368" y2="-243.0127" gradientTransform="matrix(1.0566 0 0 1.0566 -532.618 22.8631)">
			<stop  offset="0" style="stop-color:#FFFFFF"/>
			<stop  offset="1" style="stop-color:#FFFFFF;stop-opacity:0"/>
		</linearGradient>
		<path id="path12899_1_" class="st22" d="M248.5-235.5c0,1.9-1.6,3.5-3.5,3.5s-3.5-1.6-3.5-3.5s1.6-3.5,3.5-3.5
			C247-239,248.5-237.4,248.5-235.5L248.5-235.5z"/>
		<rect id="rect12901_1_" x="235.5" y="-233" class="st2" width="20" height="9"/>
		<path id="path12903_1_" class="st2" d="M238.5-227c0,1.7-1.3,3-3,3s-3-1.3-3-3s1.3-3,3-3S238.5-228.7,238.5-227L238.5-227z"/>
		<path id="path12905_1_" class="st2" d="M255.5-232.5c0,1.9-1.6,3.5-3.5,3.5s-3.5-1.6-3.5-3.5s1.6-3.5,3.5-3.5
			C254-236,255.5-234.4,255.5-232.5L255.5-232.5z"/>
		
			<linearGradient id="path12907_2_" gradientUnits="userSpaceOnUse" x1="733.7535" y1="-247.9617" x2="737.0956" y2="-242.8155" gradientTransform="matrix(1.0566 0 0 1.0566 -525.618 25.8631)">
			<stop  offset="0" style="stop-color:#FFFFFF"/>
			<stop  offset="1" style="stop-color:#FFFFFF;stop-opacity:0"/>
		</linearGradient>
		<path id="path12907_1_" class="st23" d="M255.5-232.5c0,1.9-1.6,3.5-3.5,3.5s-3.5-1.6-3.5-3.5s1.6-3.5,3.5-3.5
			C254-236,255.5-234.4,255.5-232.5L255.5-232.5z"/>
		<path id="path12909_1_" class="st2" d="M241.5-232.5c0,1.9-1.6,3.5-3.5,3.5s-3.5-1.6-3.5-3.5s1.6-3.5,3.5-3.5
			C240-236,241.5-234.4,241.5-232.5L241.5-232.5z"/>
		
			<linearGradient id="path12911_2_" gradientUnits="userSpaceOnUse" x1="733.6292" y1="-246.9174" x2="737.0796" y2="-243.4213" gradientTransform="matrix(1.0566 0 0 1.0566 -539.618 25.8631)">
			<stop  offset="0" style="stop-color:#FFFFFF"/>
			<stop  offset="1" style="stop-color:#FFFFFF;stop-opacity:0"/>
		</linearGradient>
		<path id="path12911_1_" class="st24" d="M241.5-232.5c0,1.9-1.6,3.5-3.5,3.5s-3.5-1.6-3.5-3.5s1.6-3.5,3.5-3.5
			C240-236,241.5-234.4,241.5-232.5L241.5-232.5z"/>
		<path id="path12913_1_" class="st2" d="M244-236c-3.6,0-6.5,2.9-6.5,6.5c0,2.4,1.3,4.3,3.3,5.5h6.5c1.9-1.1,3.3-3.1,3.3-5.5
			C250.5-233.1,247.6-236,244-236z"/>
		
			<linearGradient id="path12915_2_" gradientUnits="userSpaceOnUse" x1="736.1191" y1="-234.3349" x2="740.1526" y2="-229.1482" gradientTransform="matrix(1 0 0 1 -495.0407 1.0001)">
			<stop  offset="0" style="stop-color:#FFFFFF"/>
			<stop  offset="1" style="stop-color:#FFFFFF;stop-opacity:0"/>
		</linearGradient>
		<path id="path12915_1_" class="st25" d="M244-236c-3.6,0-6.5,2.9-6.5,6.5c0,2.4,1.3,4.4,3.3,5.5h6.5c1.9-1.1,3.3-3.1,3.3-5.5
			C250.5-233.1,247.6-236,244-236z"/>
		
			<linearGradient id="path12917_2_" gradientUnits="userSpaceOnUse" x1="766.3498" y1="-213.9991" x2="769.4496" y2="-211.2225" gradientTransform="matrix(0.9057 0 0 0.9057 -460.2493 -34.6848)">
			<stop  offset="0" style="stop-color:#FFFFFF"/>
			<stop  offset="1" style="stop-color:#FFFFFF;stop-opacity:0"/>
		</linearGradient>
		<path id="path12917_1_" class="st26" d="M238.5-227c0,1.7-1.3,3-3,3s-3-1.3-3-3s1.3-3,3-3S238.5-228.7,238.5-227L238.5-227z"/>
		<path id="path12919_1_" class="st16" d="M257.5-232.3c0,2.7-3.3,3.7-3.3,3.7s2.3-1.6,2.3-3.7H257.5z"/>
		<path id="path12921_1_" class="st2" d="M252.5-228c0,2.2-1.8,4-4,4s-4-1.8-4-4s1.8-4,4-4S252.5-230.2,252.5-228L252.5-228z"/>
		
			<linearGradient id="path12923_2_" gradientUnits="userSpaceOnUse" x1="708.3394" y1="-272.3817" x2="712.4367" y2="-267.9798" gradientTransform="matrix(1.2075 0 0 1.2075 -610.9865 96.4109)">
			<stop  offset="0" style="stop-color:#FFFFFF"/>
			<stop  offset="1" style="stop-color:#FFFFFF;stop-opacity:0"/>
		</linearGradient>
		<path id="path12923_1_" class="st27" d="M252.5-228c0,2.2-1.8,4-4,4s-4-1.8-4-4s1.8-4,4-4S252.5-230.2,252.5-228L252.5-228z"/>
	</g>
	
		<radialGradient id="path11418_2_" cx="-216.0176" cy="111.178" r="14.5014" gradientTransform="matrix(0.9309 0 0 0.4482 215.697 -25.0672)" gradientUnits="userSpaceOnUse">
		<stop  offset="0" style="stop-color:#FFFFFF"/>
		<stop  offset="1" style="stop-color:#FFFFFF;stop-opacity:0"/>
	</radialGradient>
	<path id="path11418_1_" class="st28" d="M14.7,9c-2,0-3.7,1.1-4.5,2.6c-0.6-0.2-1.2-0.4-1.9-0.4c-2.8,0-5.1,2.1-5.1,4.7
		c0,0.5,0.1,0.9,0.3,1.3c-1.4,0.9-2.3,2.3-2.3,3.9c0,2.7,0.7,5,5.2,4.8c0,0,17.5,0.1,17.7,0c3.1,0.2,4.1-2.4,4.1-4.7
		c0-1.7-0.8-3-2.3-3.9c0-0.3,0-0.6,0-0.8c0-2.6-2.3-4.7-5.1-4.7c-0.4,0-0.7,0.1-1.1,0.2C18.8,10.3,16.9,9,14.7,9z"/>
	<g id="g12227_6_" transform="translate(-202.9549,271.0066)">
		<path id="path12229_6_" class="st29" d="M222.7-227.4c-1-0.6-1.4-1.9-0.8-2.9c1.3-2.1,3.1-1.5,4-3.7
			C227.2-232.7,226.7-225.8,222.7-227.4z"/>
		
			<radialGradient id="path12231_1_" cx="3561.7034" cy="244.3575" r="21.7436" gradientTransform="matrix(7.065158e-02 4.154803e-02 -6.201499e-02 0.1094 -12.6482 -404.125)" gradientUnits="userSpaceOnUse">
			<stop  offset="0" style="stop-color:#FFFFFF"/>
			<stop  offset="1" style="stop-color:#FFFFFF;stop-opacity:0"/>
		</radialGradient>
		<path id="path12231_6_" class="st30" d="M225.4-228.5c-0.5,0.9-1.6,1.2-2.4,0.7c-0.8-0.5-1.1-1.6-0.6-2.5s2.6-0.5,3.3-2.3
			C226.5-232.1,225.9-229.4,225.4-228.5z"/>
		
			<linearGradient id="path12233_1_" gradientUnits="userSpaceOnUse" x1="799.1996" y1="-2826.1475" x2="819.7057" y2="-2847.6257" gradientTransform="matrix(-5.358613e-02 0.1028 -9.281434e-02 -5.937964e-02 3.6175 -482.245)">
			<stop  offset="0" style="stop-color:#FFFFFF"/>
			<stop  offset="1" style="stop-color:#FFFFFF;stop-opacity:0"/>
		</linearGradient>
		<path id="path12233_20_" class="st31" d="M224.1-227.6c-4.6-1.1,0.2-4.7,1-3.9C221.5-230.2,224.1-227.6,224.1-227.6z"/>
	</g>
	<g id="g12191_6_" transform="translate(-222.9549,261.0144)">
		<path id="path12193_6_" class="st29" d="M227.7-231.4c-1-0.6-1.4-1.9-0.8-2.9c1.3-2.1,3.1-1.5,4-3.7
			C232.2-236.7,231.7-229.8,227.7-231.4z"/>
		
			<radialGradient id="path12195_1_" cx="3630.7124" cy="196.7808" r="21.7436" gradientTransform="matrix(7.065158e-02 4.154803e-02 -6.201499e-02 0.1094 -15.4743 -405.7868)" gradientUnits="userSpaceOnUse">
			<stop  offset="0" style="stop-color:#FFFFFF"/>
			<stop  offset="1" style="stop-color:#FFFFFF;stop-opacity:0"/>
		</radialGradient>
		<path id="path12195_6_" class="st32" d="M230.4-232.5c-0.5,0.9-1.6,1.2-2.4,0.7c-0.8-0.5-1.1-1.6-0.6-2.5s2.6-0.5,3.3-2.3
			C231.5-236.1,230.9-233.4,230.4-232.5z"/>
		
			<linearGradient id="path12197_1_" gradientUnits="userSpaceOnUse" x1="786.701" y1="-2849.7126" x2="807.2072" y2="-2871.1912" gradientTransform="matrix(-5.358613e-02 0.1028 -9.281434e-02 -5.937964e-02 5.7609 -486.3579)">
			<stop  offset="0" style="stop-color:#FFFFFF"/>
			<stop  offset="1" style="stop-color:#FFFFFF;stop-opacity:0"/>
		</linearGradient>
		<path id="path12197_6_" class="st33" d="M229.1-231.6c-4.6-1.1,0.2-4.7,1-3.9C226.5-234.2,229.1-231.6,229.1-231.6z"/>
	</g>
	<g id="g12239_5_" transform="translate(-193.9565,268.0066)">
		<path id="path12241_5_" class="st29" d="M226.7-239.4c-1-0.6-1.4-1.9-0.8-2.9c1.3-2.1,3.1-1.5,4-3.7
			C231.2-244.7,230.7-237.8,226.7-239.4z"/>
		
			<radialGradient id="path12243_1_" cx="3513.9634" cy="145.9714" r="21.7436" gradientTransform="matrix(7.065158e-02 4.154803e-02 -6.201499e-02 0.1094 -11.3768 -403.3773)" gradientUnits="userSpaceOnUse">
			<stop  offset="0" style="stop-color:#FFFFFF"/>
			<stop  offset="1" style="stop-color:#FFFFFF;stop-opacity:0"/>
		</radialGradient>
		<path id="path12243_4_" class="st34" d="M229.4-240.5c-0.5,0.9-1.6,1.2-2.4,0.7c-0.8-0.5-1.1-1.6-0.6-2.5s2.6-0.5,3.3-2.3
			C230.5-244.1,229.9-241.4,229.4-240.5z"/>
		
			<linearGradient id="path12245_1_" gradientUnits="userSpaceOnUse" x1="675.0248" y1="-2807.9573" x2="695.5309" y2="-2829.4355" gradientTransform="matrix(-5.358613e-02 0.1028 -9.281434e-02 -5.937964e-02 2.6531 -480.3944)">
			<stop  offset="0" style="stop-color:#FFFFFF"/>
			<stop  offset="1" style="stop-color:#FFFFFF;stop-opacity:0"/>
		</linearGradient>
		<path id="path12245_4_" class="st35" d="M228.1-239.6c-4.6-1.1,0.2-4.7,1-3.9C225.5-242.2,228.1-239.6,228.1-239.6z"/>
	</g>
</g>
</svg>
