<?xml version="1.0" encoding="utf-8"?>
<!-- Generator: Adobe Illustrator 24.0.1, SVG Export Plug-In . SVG Version: 6.00 Build 0)  -->
<svg version="1.1"
	 id="svg1306" xmlns:cc="http://creativecommons.org/ns#" xmlns:dc="http://purl.org/dc/elements/1.1/" xmlns:inkscape="http://www.inkscape.org/namespaces/inkscape" xmlns:rdf="http://www.w3.org/1999/02/22-rdf-syntax-ns#" xmlns:sodipodi="http://sodipodi.sourceforge.net/DTD/sodipodi-0.dtd" xmlns:svg="http://www.w3.org/2000/svg"
	 xmlns="http://www.w3.org/2000/svg" xmlns:xlink="http://www.w3.org/1999/xlink" x="0px" y="0px" viewBox="0 0 45 45"
	 style="enable-background:new 0 0 45 45;" xml:space="preserve">
<style type="text/css">
	.st0{fill:#729FCF;stroke:#3465A4;stroke-width:1.082;stroke-linejoin:round;stroke-miterlimit:1;}
	.st1{fill:url(#rect6088_1_);}
	.st2{fill:url(#rect6088_2_);}
	.st3{fill:url(#rect6088_3_);}
	.st4{fill:#555753;}
	.st5{fill:url(#path13219_1_);}
	.st6{fill:#888A85;}
	.st7{opacity:0.4944;fill:url(#path13227_1_);enable-background:new    ;}
	.st8{opacity:0.4944;fill:url(#path13233_1_);enable-background:new    ;}
	.st9{opacity:0.4944;fill:url(#path13239_1_);enable-background:new    ;}
	.st10{opacity:0.4944;fill:url(#path13245_1_);enable-background:new    ;}
	.st11{fill:#888A85;stroke:#555753;stroke-width:0.9992;stroke-miterlimit:1.9981;}
	.st12{fill:url(#path13251_1_);}
	.st13{opacity:0.4778;fill:url(#path13255_1_);enable-background:new    ;}
	.st14{opacity:0.4778;fill:url(#path13263_1_);enable-background:new    ;}
	.st15{opacity:0.4778;fill:url(#path13267_1_);enable-background:new    ;}
	.st16{opacity:0.4778;fill:url(#path13271_1_);enable-background:new    ;}
	.st17{opacity:0.4778;fill:url(#path13273_1_);enable-background:new    ;}
	.st18{fill-rule:evenodd;clip-rule:evenodd;fill:#555753;}
	.st19{opacity:0.4778;fill:url(#path13279_1_);enable-background:new    ;}
	.st20{fill:url(#path13285_1_);}
	.st21{opacity:0.4778;fill:url(#path13289_1_);enable-background:new    ;}
	.st22{opacity:0.4778;fill:url(#path13297_1_);enable-background:new    ;}
	.st23{opacity:0.4778;fill:url(#path13301_1_);enable-background:new    ;}
	.st24{opacity:0.4778;fill:url(#path13305_1_);enable-background:new    ;}
	.st25{opacity:0.4778;fill:url(#path13307_1_);enable-background:new    ;}
	.st26{opacity:0.4778;fill:url(#path13313_1_);enable-background:new    ;}
</style>
<g id="layer1_28_">
	<g id="g11337_6_" transform="translate(-339.9823,245.0132)">
		<path id="rect6086_6_" class="st0" d="M355.7-218.8h2.2c1.3,0,2,0.5,1.4,1.2L349.1-204c-0.5,0.7-2,1.2-3.3,1.2h-2.2
			c-1.3,0-2-0.5-1.4-1.2l10.2-13.6C352.9-218.3,354.3-218.8,355.7-218.8z"/>
		
			<linearGradient id="rect6088_1_" gradientUnits="userSpaceOnUse" x1="1086.926" y1="-127.8109" x2="1091.5898" y2="-127.8109" gradientTransform="matrix(1.0884 0 0.5442 -0.6746 -765.4821 -297.0268)">
			<stop  offset="0" style="stop-color:#FFFFFF"/>
			<stop  offset="1" style="stop-color:#FFFFFF;stop-opacity:0"/>
		</linearGradient>
		<path id="rect6088_6_" class="st1" d="M352.6-217c0.6-0.8,2.1-1.3,3.1-1.3h2.1c1.3,0,1,0.5,0.5,1.1l-9.6,12.7
			c-0.3,0.4-1.5,1.1-3,1.1c-0.5,0-1.6,0-2,0c0,0-1.7,0.1-0.6-1.1L352.6-217z"/>
	</g>
	<g id="g11337_7_" transform="translate(-339.9823,245.0132)">
		<path id="rect6086_7_" class="st0" d="M366.7-218.8h2.2c1.3,0,2,0.5,1.4,1.2L360.1-204c-0.5,0.7-2,1.2-3.3,1.2h-2.2
			c-1.3,0-2-0.5-1.4-1.2l10.2-13.6C363.9-218.3,365.3-218.8,366.7-218.8z"/>
		
			<linearGradient id="rect6088_2_" gradientUnits="userSpaceOnUse" x1="1097.0322" y1="-127.8109" x2="1101.696" y2="-127.8109" gradientTransform="matrix(1.0884 0 0.5442 -0.6746 -765.4821 -297.0268)">
			<stop  offset="0" style="stop-color:#FFFFFF"/>
			<stop  offset="1" style="stop-color:#FFFFFF;stop-opacity:0"/>
		</linearGradient>
		<path id="rect6088_7_" class="st2" d="M363.6-217c0.6-0.8,2.1-1.3,3.1-1.3h2.1c1.3,0,1,0.5,0.5,1.1l-9.6,12.7
			c-0.3,0.4-1.5,1.1-3,1.1c-0.5,0-1.6,0-2,0c0,0-1.7,0.1-0.6-1.1L363.6-217z"/>
	</g>
	<g id="g11337_8_" transform="translate(-339.9823,245.0132)">
		<path id="rect6086_8_" class="st0" d="M377.7-218.8h2.2c1.3,0,2,0.5,1.4,1.2L371.1-204c-0.5,0.7-2,1.2-3.3,1.2h-2.2
			c-1.3,0-2-0.5-1.4-1.2l10.2-13.6C374.9-218.3,376.3-218.8,377.7-218.8z"/>
		
			<linearGradient id="rect6088_3_" gradientUnits="userSpaceOnUse" x1="1107.1384" y1="-127.8109" x2="1111.8022" y2="-127.8109" gradientTransform="matrix(1.0884 0 0.5442 -0.6746 -765.4821 -297.0268)">
			<stop  offset="0" style="stop-color:#FFFFFF"/>
			<stop  offset="1" style="stop-color:#FFFFFF;stop-opacity:0"/>
		</linearGradient>
		<path id="rect6088_8_" class="st3" d="M374.6-217c0.6-0.8,2.1-1.3,3.1-1.3h2.1c1.3,0,1,0.5,0.5,1.1l-9.6,12.7
			c-0.3,0.4-1.5,1.1-3,1.1c-0.5,0-1.6,0-2,0c0,0-1.7,0.1-0.6-1.1L374.6-217z"/>
	</g>
	<g id="g13213_2_" transform="matrix(0.999675,0.000000,0.000000,1.000000,-286.8562,245.0000)">
		<g id="g13215_2_">
			<path id="path13217_2_" class="st4" d="M310-243.3c-2.8,0-5.1,1.6-6.4,3.8c-0.9-0.5-2-0.8-3.1-0.8c-3.9,0-7,3.1-7,7s3.1,7,7,7
				c2.4,0,4.4-1.3,5.7-3.2c1.1,0.7,2.4,1.2,3.8,1.2c0.9,0,1.8-0.2,2.6-0.5c0.5,0.9,1.2,1.6,2,2.2c0,0.1-0.1,0.2-0.1,0.4
				c0,3.9,3.1,7,7,7s7-3.1,7-7c0-2.4-1.3-4.4-3.1-5.6c0-0.1,0.1-0.2,0.1-0.4c0-3.9-3.1-7-7-7c-0.6,0-1.2,0.2-1.8,0.4
				C315.5-241.5,313-243.3,310-243.3z"/>
			
				<linearGradient id="path13219_1_" gradientUnits="userSpaceOnUse" x1="1088.4799" y1="-12.4855" x2="1126.3412" y2="-25.5228" gradientTransform="matrix(0.9991 0 0 -1 -791.5054 -250)">
				<stop  offset="0" style="stop-color:#FFFFFF"/>
				<stop  offset="1" style="stop-color:#FFFFFF;stop-opacity:0"/>
			</linearGradient>
			<path id="path13219_2_" class="st5" d="M310-242.3c-2.8,0-5.1,1.8-6.1,4.2c-1-0.7-2.1-1.2-3.4-1.2c-3.3,0-6,2.7-6,6
				c0,3.3,2.7,6,6,6c2.4,0,4.5-1.5,5.4-3.5c1.1,0.9,2.5,1.5,4.1,1.5c1.1,0,2-0.3,2.9-0.8c0.4,1,1.1,1.8,1.9,2.4
				c-0.2,0.6-0.4,1.2-0.4,1.8c0,3.6,2.9,6.5,6.5,6.5s6.5-2.9,6.5-6.5c0-2.4-1.3-4.3-3.2-5.5c0.1-0.3,0.2-0.7,0.2-1c0-3.3-2.7-6-6-6
				c-0.9,0-1.7,0.2-2.4,0.5C315.2-240.4,312.9-242.3,310-242.3z"/>
			<path id="path13221_2_" class="st6" d="M327.5-225.8c0,3.6-2.9,6.5-6.5,6.5s-6.5-2.9-6.5-6.5l0,0c0-3.6,2.9-6.5,6.5-6.5
				S327.5-229.4,327.5-225.8L327.5-225.8z"/>
			<g id="g13223_2_">
				<path id="path13225_2_" class="st6" d="M315.5-235.8c0,3-2.5,5.5-5.5,5.5s-5.5-2.5-5.5-5.5s2.5-5.5,5.5-5.5
					S315.5-238.8,315.5-235.8z"/>
				
					<linearGradient id="path13227_1_" gradientUnits="userSpaceOnUse" x1="1140.9374" y1="-53.099" x2="1146.6907" y2="-57.9559" gradientTransform="matrix(0.8817 0 0 -0.8826 -699.8108 -285.8581)">
					<stop  offset="0" style="stop-color:#FFFFFF"/>
					<stop  offset="1" style="stop-color:#FFFFFF;stop-opacity:0"/>
				</linearGradient>
				<path id="path13227_2_" class="st7" d="M315.5-235.8c0,3-2.5,5.5-5.5,5.5s-5.5-2.5-5.5-5.5s2.5-5.5,5.5-5.5
					S315.5-238.8,315.5-235.8z"/>
			</g>
			<g id="g13229_2_">
				<path id="path13231_2_" class="st6" d="M323.5-231.8c0,3-2.5,5.5-5.5,5.5s-5.5-2.5-5.5-5.5l0,0c0-3,2.5-5.5,5.5-5.5
					S323.5-234.8,323.5-231.8z"/>
				
					<linearGradient id="path13233_1_" gradientUnits="userSpaceOnUse" x1="1136.2903" y1="-43.9985" x2="1142.2477" y2="-49.9607" gradientTransform="matrix(0.9108 0 0 -0.9117 -721.5296 -276.4688)">
					<stop  offset="0" style="stop-color:#FFFFFF"/>
					<stop  offset="1" style="stop-color:#FFFFFF;stop-opacity:0"/>
				</linearGradient>
				<path id="path13233_2_" class="st8" d="M323.5-231.8c0,3-2.5,5.5-5.5,5.5s-5.5-2.5-5.5-5.5l0,0c0-3,2.5-5.5,5.5-5.5
					S323.5-234.8,323.5-231.8z"/>
			</g>
			<g id="g13235_2_">
				<path id="path13237_2_" class="st6" d="M305.5-233.3c0,2.8-2.2,5-5,5s-5-2.2-5-5c0-2.8,2.2-5,5-5S305.5-236.1,305.5-233.3
					L305.5-233.3z"/>
				
					<linearGradient id="path13239_1_" gradientUnits="userSpaceOnUse" x1="1051.9456" y1="24.2446" x2="1056.326" y2="20.7641" gradientTransform="matrix(1.1416 0 0 -1.1428 -903.6966 -208.1461)">
					<stop  offset="0" style="stop-color:#FFFFFF"/>
					<stop  offset="1" style="stop-color:#FFFFFF;stop-opacity:0"/>
				</linearGradient>
				<path id="path13239_2_" class="st9" d="M305.5-233.3c0,2.8-2.2,5-5,5s-5-2.2-5-5c0-2.8,2.2-5,5-5S305.5-236.1,305.5-233.3
					L305.5-233.3z"/>
			</g>
			<g id="g13241_2_">
				<path id="path13243_2_" class="st6" d="M316.5-229.3c0,3.9-3.1,7-7,7s-7-3.1-7-7l0,0c0-3.9,3.1-7,7-7
					C313.3-236.3,316.5-233.2,316.5-229.3L316.5-229.3z"/>
				
					<linearGradient id="path13245_1_" gradientUnits="userSpaceOnUse" x1="1085.5679" y1="-5.9193" x2="1093.2178" y2="-11.7487" gradientTransform="matrix(1.0377 0 0 -1.0386 -821.8763 -239.1418)">
					<stop  offset="0" style="stop-color:#FFFFFF"/>
					<stop  offset="1" style="stop-color:#FFFFFF;stop-opacity:0"/>
				</linearGradient>
				<path id="path13245_2_" class="st10" d="M316.5-229.3c0,3.9-3.1,7-7,7s-7-3.1-7-7l0,0c0-3.9,3.1-7,7-7
					C313.3-236.3,316.5-233.2,316.5-229.3L316.5-229.3z"/>
			</g>
		</g>
		<g id="g13247_2_" transform="translate(72.00007,7.999930)">
			<path id="path13249_2_" class="st11" d="M245-238.8c-2.3,0-4.1,1.6-4.7,3.6c-0.7-0.4-1.4-0.6-2.3-0.6c-2.8,0-5,2.2-5,5
				c0,0.6,0.2,1.1,0.3,1.6c-1.4,0.8-2.3,2.2-2.3,3.9c0,2.5,2,4.5,4.5,4.5c0.2,0,18.8,0,19,0c2.5,0,4.5-2,4.5-4.5
				c0-1.7-1-3.1-2.3-3.9c0.2-0.5,0.3-1,0.3-1.6c0-2.8-2.2-5-5-5c-0.8,0-1.6,0.3-2.3,0.6C249.1-237.2,247.3-238.8,245-238.8z"/>
			
				<linearGradient id="path13251_1_" gradientUnits="userSpaceOnUse" x1="914.6729" y1="27.8253" x2="928.6797" y2="18.7434" gradientTransform="matrix(0.9991 0 0 -1 -678.6403 -205.9998)">
				<stop  offset="0" style="stop-color:#FFFFFF"/>
				<stop  offset="1" style="stop-color:#FFFFFF;stop-opacity:0"/>
			</linearGradient>
			<path id="path13251_2_" class="st12" d="M245-238.3c-2.2,0-3.7,1.3-4.4,3.8c-0.7-0.3-1.5-0.8-2.4-0.8c-2.7,0-4.8,1.9-4.8,4.5
				c0,0.5,0.3,1.3,0.4,1.8c-1.3,0.7-2.4,1.9-2.4,3.4c0,2.3,1.5,4.3,4.3,4.3c0.2,0,18.2,0,18.3,0c2.8,0,4.3-1.9,4.3-4.3
				c0-1.6-1.1-2.7-2.4-3.4c0.2-0.5,0.5-1.3,0.5-1.8c0-2.6-2.1-4.6-4.8-4.6c-0.8,0-1.6,0.5-2.3,0.8
				C248.8-236.9,247.2-238.3,245-238.3z"/>
			<path id="path13253_2_" class="st6" d="M248.5-233.8c0,1.9-1.6,3.5-3.5,3.5s-3.5-1.6-3.5-3.5s1.6-3.5,3.5-3.5
				S248.5-235.7,248.5-233.8L248.5-233.8z"/>
			
				<linearGradient id="path13255_1_" gradientUnits="userSpaceOnUse" x1="914.5378" y1="43.431" x2="916.6968" y2="40.0002" gradientTransform="matrix(1.0557 0 0 -1.0566 -721.7228 -189.9101)">
				<stop  offset="0" style="stop-color:#FFFFFF"/>
				<stop  offset="1" style="stop-color:#FFFFFF;stop-opacity:0"/>
			</linearGradient>
			<path id="path13255_2_" class="st13" d="M248.5-233.8c0,1.9-1.6,3.5-3.5,3.5s-3.5-1.6-3.5-3.5s1.6-3.5,3.5-3.5
				S248.5-235.7,248.5-233.8L248.5-233.8z"/>
			<rect id="rect13257_2_" x="235.5" y="-231.3" class="st6" width="20" height="9"/>
			<path id="path13259_2_" class="st6" d="M238.5-225.3c0,1.7-1.3,3-3,3s-3-1.3-3-3s1.3-3,3-3C237.1-228.3,238.5-227,238.5-225.3
				L238.5-225.3z"/>
			<path id="path13261_2_" class="st6" d="M255.5-230.8c0,1.9-1.6,3.5-3.5,3.5s-3.5-1.6-3.5-3.5s1.6-3.5,3.5-3.5
				S255.5-232.7,255.5-230.8L255.5-230.8z"/>
			
				<linearGradient id="path13263_1_" gradientUnits="userSpaceOnUse" x1="913.5125" y1="44.9495" x2="916.8545" y2="39.8033" gradientTransform="matrix(1.0557 0 0 -1.0566 -714.7228 -186.9101)">
				<stop  offset="0" style="stop-color:#FFFFFF"/>
				<stop  offset="1" style="stop-color:#FFFFFF;stop-opacity:0"/>
			</linearGradient>
			<path id="path13263_2_" class="st14" d="M255.5-230.8c0,1.9-1.6,3.5-3.5,3.5s-3.5-1.6-3.5-3.5s1.6-3.5,3.5-3.5
				S255.5-232.7,255.5-230.8L255.5-230.8z"/>
			<path id="path13265_2_" class="st6" d="M241.5-230.8c0,1.9-1.6,3.5-3.5,3.5s-3.5-1.6-3.5-3.5s1.6-3.5,3.5-3.5
				S241.5-232.7,241.5-230.8L241.5-230.8z"/>
			
				<linearGradient id="path13267_1_" gradientUnits="userSpaceOnUse" x1="913.3798" y1="43.9034" x2="916.8302" y2="40.4073" gradientTransform="matrix(1.0557 0 0 -1.0566 -728.7228 -186.9101)">
				<stop  offset="0" style="stop-color:#FFFFFF"/>
				<stop  offset="1" style="stop-color:#FFFFFF;stop-opacity:0"/>
			</linearGradient>
			<path id="path13267_2_" class="st15" d="M241.5-230.8c0,1.9-1.6,3.5-3.5,3.5s-3.5-1.6-3.5-3.5s1.6-3.5,3.5-3.5
				S241.5-232.7,241.5-230.8L241.5-230.8z"/>
			<path id="path13269_2_" class="st6" d="M244-234.3c-3.6,0-6.5,2.9-6.5,6.5c0,2.4,1.3,4.3,3.3,5.5h6.5c1.9-1.1,3.3-3.1,3.3-5.5
				C250.5-231.4,247.5-234.3,244-234.3z"/>
			
				<linearGradient id="path13271_1_" gradientUnits="userSpaceOnUse" x1="921.5352" y1="25.6232" x2="925.5688" y2="20.4366" gradientTransform="matrix(0.9991 0 0 -1 -679.6403 -205.9998)">
				<stop  offset="0" style="stop-color:#FFFFFF"/>
				<stop  offset="1" style="stop-color:#FFFFFF;stop-opacity:0"/>
			</linearGradient>
			<path id="path13271_2_" class="st16" d="M244-234.3c-3.6,0-6.5,2.9-6.5,6.5c0,2.4,1.3,4.4,3.3,5.5h6.5c1.9-1.1,3.3-3.1,3.3-5.5
				C250.5-231.4,247.6-234.3,244-234.3z"/>
			
				<linearGradient id="path13273_1_" gradientUnits="userSpaceOnUse" x1="962.7579" y1="-5.802" x2="965.8577" y2="-8.5786" gradientTransform="matrix(0.9048 0 0 -0.9057 -637.3434 -232.066)">
				<stop  offset="0" style="stop-color:#FFFFFF"/>
				<stop  offset="1" style="stop-color:#FFFFFF;stop-opacity:0"/>
			</linearGradient>
			<path id="path13273_2_" class="st17" d="M238.5-225.3c0,1.7-1.3,3-3,3s-3-1.3-3-3s1.3-3,3-3S238.5-227,238.5-225.3L238.5-225.3z"
				/>
			<path id="path13275_2_" class="st18" d="M257.4-230.6c0,2.7-3.3,3.7-3.3,3.7s2.3-1.6,2.3-3.7H257.4z"/>
			<path id="path13277_2_" class="st6" d="M252.5-226.3c0,2.2-1.8,4-4,4s-4-1.8-4-4s1.8-4,4-4S252.5-228.5,252.5-226.3L252.5-226.3z
				"/>
			
				<linearGradient id="path13279_1_" gradientUnits="userSpaceOnUse" x1="875.6475" y1="82.0045" x2="879.7449" y2="77.6026" gradientTransform="matrix(1.2064 0 0 -1.2075 -812.091 -131.7542)">
				<stop  offset="0" style="stop-color:#FFFFFF"/>
				<stop  offset="1" style="stop-color:#FFFFFF;stop-opacity:0"/>
			</linearGradient>
			<path id="path13279_2_" class="st19" d="M252.5-226.3c0,2.2-1.8,4-4,4s-4-1.8-4-4s1.8-4,4-4S252.5-228.5,252.5-226.3L252.5-226.3
				z"/>
		</g>
		<g id="g13281_2_" transform="translate(56.98577,3.983930)">
			<path id="path13283_2_" class="st11" d="M245-238.8c-2.3,0-4.1,1.6-4.7,3.6c-0.7-0.4-1.4-0.6-2.3-0.6c-2.8,0-5,2.2-5,5
				c0,0.6,0.2,1.1,0.3,1.6c-1.4,0.8-2.3,2.2-2.3,3.9c0,2.5,2,4.5,4.5,4.5c0.2,0,18.8,0,19,0c2.5,0,4.5-2,4.5-4.5
				c0-1.7-1-3.1-2.3-3.9c0.2-0.5,0.3-1,0.3-1.6c0-2.8-2.2-5-5-5c-0.8,0-1.6,0.3-2.3,0.6C249.1-237.2,247.3-238.8,245-238.8z"/>
			
				<linearGradient id="path13285_1_" gradientUnits="userSpaceOnUse" x1="959.7302" y1="31.8407" x2="973.7371" y2="22.7588" gradientTransform="matrix(0.9991 0 0 -1 -723.655 -201.9838)">
				<stop  offset="0" style="stop-color:#FFFFFF"/>
				<stop  offset="1" style="stop-color:#FFFFFF;stop-opacity:0"/>
			</linearGradient>
			<path id="path13285_2_" class="st20" d="M245-238.3c-2.2,0-3.7,1.3-4.4,3.8c-0.7-0.3-1.5-0.8-2.4-0.8c-2.7,0-4.8,1.9-4.8,4.5
				c0,0.5,0.3,1.3,0.4,1.8c-1.3,0.7-2.4,1.9-2.4,3.4c0,2.3,1.5,4.3,4.3,4.3c0.2,0,18.2,0,18.3,0c2.8,0,4.3-1.9,4.3-4.3
				c0-1.6-1.1-2.7-2.4-3.4c0.2-0.5,0.5-1.3,0.5-1.8c0-2.6-2.1-4.6-4.8-4.6c-0.8,0-1.6,0.5-2.3,0.8
				C248.8-236.9,247.2-238.3,245-238.3z"/>
			<path id="path13287_2_" class="st6" d="M248.5-233.8c0,1.9-1.6,3.5-3.5,3.5s-3.5-1.6-3.5-3.5s1.6-3.5,3.5-3.5
				S248.5-235.7,248.5-233.8L248.5-233.8z"/>
			
				<linearGradient id="path13289_1_" gradientUnits="userSpaceOnUse" x1="959.5941" y1="47.4462" x2="961.7531" y2="44.0154" gradientTransform="matrix(1.0557 0 0 -1.0566 -769.2863 -185.6668)">
				<stop  offset="0" style="stop-color:#FFFFFF"/>
				<stop  offset="1" style="stop-color:#FFFFFF;stop-opacity:0"/>
			</linearGradient>
			<path id="path13289_2_" class="st21" d="M248.5-233.8c0,1.9-1.6,3.5-3.5,3.5s-3.5-1.6-3.5-3.5s1.6-3.5,3.5-3.5
				S248.5-235.7,248.5-233.8L248.5-233.8z"/>
			<rect id="rect13291_2_" x="235.5" y="-231.3" class="st6" width="20" height="9"/>
			<path id="path13293_2_" class="st6" d="M238.5-225.3c0,1.7-1.3,3-3,3s-3-1.3-3-3s1.3-3,3-3C237.1-228.3,238.5-227,238.5-225.3
				L238.5-225.3z"/>
			<path id="path13295_2_" class="st6" d="M255.5-230.8c0,1.9-1.6,3.5-3.5,3.5s-3.5-1.6-3.5-3.5s1.6-3.5,3.5-3.5
				S255.5-232.7,255.5-230.8L255.5-230.8z"/>
			
				<linearGradient id="path13297_1_" gradientUnits="userSpaceOnUse" x1="958.5687" y1="48.9647" x2="961.9108" y2="43.8185" gradientTransform="matrix(1.0557 0 0 -1.0566 -762.2863 -182.6668)">
				<stop  offset="0" style="stop-color:#FFFFFF"/>
				<stop  offset="1" style="stop-color:#FFFFFF;stop-opacity:0"/>
			</linearGradient>
			<path id="path13297_2_" class="st22" d="M255.5-230.8c0,1.9-1.6,3.5-3.5,3.5s-3.5-1.6-3.5-3.5s1.6-3.5,3.5-3.5
				S255.5-232.7,255.5-230.8L255.5-230.8z"/>
			<path id="path13299_2_" class="st6" d="M241.5-230.8c0,1.9-1.6,3.5-3.5,3.5s-3.5-1.6-3.5-3.5s1.6-3.5,3.5-3.5
				S241.5-232.7,241.5-230.8L241.5-230.8z"/>
			
				<linearGradient id="path13301_1_" gradientUnits="userSpaceOnUse" x1="958.4364" y1="47.9186" x2="961.8868" y2="44.4225" gradientTransform="matrix(1.0557 0 0 -1.0566 -776.2863 -182.6668)">
				<stop  offset="0" style="stop-color:#FFFFFF"/>
				<stop  offset="1" style="stop-color:#FFFFFF;stop-opacity:0"/>
			</linearGradient>
			<path id="path13301_2_" class="st23" d="M241.5-230.8c0,1.9-1.6,3.5-3.5,3.5s-3.5-1.6-3.5-3.5s1.6-3.5,3.5-3.5
				S241.5-232.7,241.5-230.8L241.5-230.8z"/>
			<path id="path13303_2_" class="st6" d="M244-234.3c-3.6,0-6.5,2.9-6.5,6.5c0,2.4,1.3,4.3,3.3,5.5h6.5c1.9-1.1,3.3-3.1,3.3-5.5
				C250.5-231.4,247.5-234.3,244-234.3z"/>
			
				<linearGradient id="path13305_1_" gradientUnits="userSpaceOnUse" x1="966.5921" y1="29.6387" x2="970.6256" y2="24.452" gradientTransform="matrix(0.9991 0 0 -1 -724.655 -201.9838)">
				<stop  offset="0" style="stop-color:#FFFFFF"/>
				<stop  offset="1" style="stop-color:#FFFFFF;stop-opacity:0"/>
			</linearGradient>
			<path id="path13305_2_" class="st24" d="M244-234.3c-3.6,0-6.5,2.9-6.5,6.5c0,2.4,1.3,4.4,3.3,5.5h6.5c1.9-1.1,3.3-3.1,3.3-5.5
				C250.5-231.4,247.6-234.3,244-234.3z"/>
			
				<linearGradient id="path13307_1_" gradientUnits="userSpaceOnUse" x1="1007.8153" y1="-1.7864" x2="1010.915" y2="-4.5629" gradientTransform="matrix(0.9048 0 0 -0.9057 -678.1113 -228.4289)">
				<stop  offset="0" style="stop-color:#FFFFFF"/>
				<stop  offset="1" style="stop-color:#FFFFFF;stop-opacity:0"/>
			</linearGradient>
			<path id="path13307_2_" class="st25" d="M238.5-225.3c0,1.7-1.3,3-3,3s-3-1.3-3-3s1.3-3,3-3S238.5-227,238.5-225.3L238.5-225.3z"
				/>
			<path id="path13309_2_" class="st18" d="M257.4-230.6c0,2.7-3.3,3.7-3.3,3.7s2.3-1.6,2.3-3.7H257.4z"/>
			<path id="path13311_2_" class="st6" d="M252.5-226.3c0,2.2-1.8,4-4,4s-4-1.8-4-4s1.8-4,4-4S252.5-228.5,252.5-226.3L252.5-226.3z
				"/>
			
				<linearGradient id="path13313_1_" gradientUnits="userSpaceOnUse" x1="920.705" y1="86.0203" x2="924.8024" y2="81.6184" gradientTransform="matrix(1.2064 0 0 -1.2075 -866.4483 -126.9047)">
				<stop  offset="0" style="stop-color:#FFFFFF"/>
				<stop  offset="1" style="stop-color:#FFFFFF;stop-opacity:0"/>
			</linearGradient>
			<path id="path13313_2_" class="st26" d="M252.5-226.3c0,2.2-1.8,4-4,4s-4-1.8-4-4s1.8-4,4-4S252.5-228.5,252.5-226.3L252.5-226.3
				z"/>
		</g>
	</g>
</g>
</svg>
