<?xml version="1.0" encoding="utf-8"?>
<!-- Generator: Adobe Illustrator 24.0.1, SVG Export Plug-In . SVG Version: 6.00 Build 0)  -->
<svg version="1.1"
	 id="svg1306" xmlns:cc="http://creativecommons.org/ns#" xmlns:dc="http://purl.org/dc/elements/1.1/" xmlns:inkscape="http://www.inkscape.org/namespaces/inkscape" xmlns:rdf="http://www.w3.org/1999/02/22-rdf-syntax-ns#" xmlns:sodipodi="http://sodipodi.sourceforge.net/DTD/sodipodi-0.dtd" xmlns:svg="http://www.w3.org/2000/svg"
	 xmlns="http://www.w3.org/2000/svg" xmlns:xlink="http://www.w3.org/1999/xlink" x="0px" y="0px" viewBox="0 0 45 45"
	 style="enable-background:new 0 0 45 45;" xml:space="preserve">
<style type="text/css">
	.st0{fill:#888A85;}
	.st1{fill:url(#path8720_1_);}
	.st2{fill:#C4C5C2;}
	.st3{fill:url(#path8728_1_);}
	.st4{fill:url(#path8734_1_);}
	.st5{fill:url(#path8740_1_);}
	.st6{fill:url(#path8746_1_);}
	.st7{fill:url(#path8752_1_);}
	.st8{fill:#C4C5C2;stroke:#888A85;stroke-miterlimit:2;}
	.st9{fill:url(#path8802_1_);}
	.st10{fill:url(#path8808_1_);}
	.st11{fill:url(#path8818_1_);}
	.st12{fill:url(#path8824_1_);}
	.st13{fill:url(#path8830_1_);}
	.st14{fill:url(#path8832_1_);}
	.st15{fill-rule:evenodd;clip-rule:evenodd;fill:#888A85;}
	.st16{fill:url(#path8840_1_);}
	.st17{fill:url(#path8758_1_);}
	.st18{fill:url(#path8764_1_);}
	.st19{fill:url(#path8774_1_);}
	.st20{fill:url(#path8780_1_);}
	.st21{fill:url(#path8786_1_);}
	.st22{fill:url(#path8788_1_);}
	.st23{fill:url(#path8796_1_);}
	.st24{fill:#FFFFFF;stroke:#729FCF;stroke-miterlimit:10;}
	.st25{fill:#FFFFFF;stroke:#729FCF;stroke-width:1.4748;stroke-miterlimit:1;}
	.st26{fill:#FFFFFF;stroke:#729FCF;stroke-width:1.4678;stroke-miterlimit:1;}
	.st27{fill:#FFFFFF;stroke:#729FCF;stroke-width:0.8992;stroke-miterlimit:1;}
	.st28{fill:#FFFFFF;stroke:#729FCF;stroke-width:0.9182;stroke-miterlimit:1;}
	.st29{fill:#FFFFFF;stroke:#729FCF;stroke-width:1.4641;stroke-miterlimit:1;}
</style>
<g id="layer1">
	<g id="g9947" transform="translate(-340.0455,298.0001)">
		<path id="path8718" class="st0" d="M363-296.3c-2.8,0-5.1,1.6-6.4,3.8c-0.9-0.5-2-0.8-3.1-0.8c-3.9,0-7,3.1-7,7s3.1,7,7,7
			c2.4,0,4.4-1.3,5.7-3.2c1.1,0.7,2.4,1.2,3.8,1.2c0.9,0,1.8-0.2,2.6-0.5c0.5,0.9,1.2,1.6,2,2.2c0,0.1-0.1,0.2-0.1,0.4
			c0,3.9,3.1,7,7,7s7-3.1,7-7c0-2.4-1.3-4.4-3.1-5.6c0-0.1,0.1-0.2,0.1-0.4c0-3.9-3.1-7-7-7c-0.6,0-1.2,0.2-1.8,0.4
			C368.6-294.5,366.1-296.3,363-296.3z"/>
		
			<linearGradient id="path8720_1_" gradientUnits="userSpaceOnUse" x1="907.0437" y1="-186.3439" x2="957.4562" y2="-169.4175" gradientTransform="matrix(1 0 0 1 -558.068 -104)">
			<stop  offset="0" style="stop-color:#FFFFFF"/>
			<stop  offset="1" style="stop-color:#FFFFFF;stop-opacity:0"/>
		</linearGradient>
		<path id="path8720" class="st1" d="M363-295.3c-2.8,0-5.1,1.8-6.1,4.2c-1-0.7-2.1-1.2-3.4-1.2c-3.3,0-6,2.7-6,6s2.7,6,6,6
			c2.4,0,4.5-1.5,5.4-3.5c1.1,0.9,2.5,1.5,4.1,1.5c1.1,0,2-0.3,2.9-0.8c0.4,1,1.1,1.8,1.9,2.4c-0.2,0.6-0.4,1.2-0.4,1.8
			c0,3.6,2.9,6.5,6.5,6.5s6.5-2.9,6.5-6.5c0-2.4-1.3-4.3-3.2-5.5c0.1-0.3,0.2-0.7,0.2-1c0-3.3-2.7-6-6-6c-0.9,0-1.7,0.2-2.4,0.5
			C368.3-293.4,365.9-295.3,363-295.3z"/>
		<path id="path8722" class="st2" d="M380.5-278.8c0,3.6-2.9,6.5-6.5,6.5s-6.5-2.9-6.5-6.5l0,0c0-3.6,2.9-6.5,6.5-6.5
			S380.5-282.4,380.5-278.8L380.5-278.8z"/>
		<g id="g8724" transform="translate(122.0230,102.0000)">
			<path id="path8726" class="st2" d="M246.5-390.8c0,3-2.5,5.5-5.5,5.5s-5.5-2.5-5.5-5.5s2.5-5.5,5.5-5.5S246.5-393.8,246.5-390.8z
				"/>
			
				<linearGradient id="path8728_1_" gradientUnits="userSpaceOnUse" x1="701.6954" y1="-159.5448" x2="707.4488" y2="-154.6879" gradientTransform="matrix(0.8826 0 0 0.8826 -382.0952 -253.1331)">
				<stop  offset="0" style="stop-color:#FFFFFF"/>
				<stop  offset="1" style="stop-color:#FFFFFF;stop-opacity:0"/>
			</linearGradient>
			<path id="path8728" class="st3" d="M246.5-390.8c0,3-2.5,5.5-5.5,5.5s-5.5-2.5-5.5-5.5s2.5-5.5,5.5-5.5S246.5-393.8,246.5-390.8z
				"/>
		</g>
		<g id="g8730" transform="translate(122.0230,102.0000)">
			<path id="path8732" class="st2" d="M254.5-386.8c0,3-2.5,5.5-5.5,5.5s-5.5-2.5-5.5-5.5l0,0c0-3,2.5-5.5,5.5-5.5
				S254.5-389.8,254.5-386.8z"/>
			
				<linearGradient id="path8734_1_" gradientUnits="userSpaceOnUse" x1="700.7822" y1="-164.929" x2="706.7396" y2="-158.9668" gradientTransform="matrix(0.9117 0 0 0.9117 -394.4578 -240.9499)">
				<stop  offset="0" style="stop-color:#FFFFFF"/>
				<stop  offset="1" style="stop-color:#FFFFFF;stop-opacity:0"/>
			</linearGradient>
			<path id="path8734" class="st4" d="M254.5-386.8c0,3-2.5,5.5-5.5,5.5s-5.5-2.5-5.5-5.5l0,0c0-3,2.5-5.5,5.5-5.5
				S254.5-389.8,254.5-386.8z"/>
		</g>
		<g id="g8736" transform="translate(122.0230,102.0000)">
			<path id="path8738" class="st2" d="M236.5-388.3c0,2.8-2.2,5-5,5s-5-2.2-5-5s2.2-5,5-5S236.5-391.1,236.5-388.3L236.5-388.3z"/>
			
				<linearGradient id="path8740_1_" gradientUnits="userSpaceOnUse" x1="639.3768" y1="-210.3264" x2="643.7573" y2="-206.8459" gradientTransform="matrix(1.1428 0 0 1.1428 -502.3774 -150.4371)">
				<stop  offset="0" style="stop-color:#FFFFFF"/>
				<stop  offset="1" style="stop-color:#FFFFFF;stop-opacity:0"/>
			</linearGradient>
			<path id="path8740" class="st5" d="M236.5-388.3c0,2.8-2.2,5-5,5s-5-2.2-5-5s2.2-5,5-5S236.5-391.1,236.5-388.3L236.5-388.3z"/>
		</g>
		<g id="g8742" transform="translate(122.0230,102.0000)">
			<path id="path8744" class="st2" d="M247.5-384.3c0,3.9-3.1,7-7,7s-7-3.1-7-7l0,0c0-3.9,3.1-7,7-7S247.5-388.2,247.5-384.3
				L247.5-384.3z"/>
			
				<linearGradient id="path8746_1_" gradientUnits="userSpaceOnUse" x1="663.972" y1="-189.2456" x2="671.6218" y2="-183.4162" gradientTransform="matrix(1.0386 0 0 1.0386 -454.0026 -191.4418)">
				<stop  offset="0" style="stop-color:#FFFFFF"/>
				<stop  offset="1" style="stop-color:#FFFFFF;stop-opacity:0"/>
			</linearGradient>
			<path id="path8746" class="st6" d="M247.5-384.3c0,3.9-3.1,7-7,7s-7-3.1-7-7l0,0c0-3.9,3.1-7,7-7S247.5-388.2,247.5-384.3
				L247.5-384.3z"/>
		</g>
		<g id="g8748" transform="matrix(0.935028,0.000000,0.000000,0.935028,499.8484,-187.6162)">
			<path id="path8750" class="st2" d="M-154.8-98.6c0,3-2.4,5.4-5.4,5.4s-5.4-2.4-5.4-5.4s2.4-5.4,5.4-5.4S-154.8-101.6-154.8-98.6z
				"/>
			
				<linearGradient id="path8752_1_" gradientUnits="userSpaceOnUse" x1="-618.3089" y1="26.8492" x2="-615.1165" y2="30.8389" gradientTransform="matrix(1.5192 0 0 1.5192 775.3746 -144.3768)">
				<stop  offset="0" style="stop-color:#FFFFFF"/>
				<stop  offset="1" style="stop-color:#FFFFFF;stop-opacity:0"/>
			</linearGradient>
			<path id="path8752" class="st7" d="M-154.7-98.7c0,3-2.4,5.4-5.4,5.4s-5.4-2.4-5.4-5.4s2.4-5.4,5.4-5.4
				C-157.1-104.1-154.7-101.7-154.7-98.7z"/>
		</g>
		<g id="g8798" transform="translate(91.02300,162.0000)">
			<path id="path8800" class="st8" d="M279-445.8c-2.3,0-4.1,1.6-4.7,3.6c-0.7-0.4-1.4-0.6-2.3-0.6c-2.8,0-5,2.2-5,5
				c0,0.6,0.2,1.1,0.3,1.6c-1.4,0.8-2.3,2.2-2.3,3.9c0,2.5,2,4.5,4.5,4.5c0.2,0,18.8,0,19,0c2.5,0,4.5-2,4.5-4.5
				c0-1.7-1-3.1-2.3-3.9c0.2-0.5,0.3-1,0.3-1.6c0-2.8-2.2-5-5-5c-0.8,0-1.6,0.3-2.3,0.6C283.1-444.2,281.3-445.8,279-445.8z"/>
			
				<linearGradient id="path8802_1_" gradientUnits="userSpaceOnUse" x1="767.2621" y1="-234.8029" x2="781.269" y2="-225.721" gradientTransform="matrix(1 0 0 1 -498.045 -206)">
				<stop  offset="0" style="stop-color:#FFFFFF"/>
				<stop  offset="1" style="stop-color:#FFFFFF;stop-opacity:0"/>
			</linearGradient>
			<path id="path8802" class="st9" d="M279-445.3c-2.2,0-3.7,1.3-4.4,3.8c-0.7-0.3-1.5-0.8-2.4-0.8c-2.7,0-4.8,1.9-4.8,4.5
				c0,0.5,0.3,1.3,0.4,1.8c-1.3,0.7-2.4,1.9-2.4,3.4c0,2.3,1.5,4.3,4.3,4.3c0.2,0,18.2,0,18.3,0c2.8,0,4.3-1.9,4.3-4.3
				c0-1.6-1.1-2.7-2.4-3.4c0.2-0.5,0.5-1.3,0.5-1.8c0-2.6-2.1-4.6-4.8-4.6c-0.8,0-1.6,0.5-2.3,0.8
				C282.8-443.9,281.2-445.3,279-445.3z"/>
			<g id="g8804">
				<path id="path8806" class="st2" d="M282.5-440.8c0,1.9-1.6,3.5-3.5,3.5s-3.5-1.6-3.5-3.5s1.6-3.5,3.5-3.5
					S282.5-442.7,282.5-440.8L282.5-440.8z"/>
				
					<linearGradient id="path8808_1_" gradientUnits="userSpaceOnUse" x1="772.6491" y1="-244.9039" x2="774.8081" y2="-241.4731" gradientTransform="matrix(1.0566 0 0 1.0566 -538.6603 -184.0247)">
					<stop  offset="0" style="stop-color:#FFFFFF"/>
					<stop  offset="1" style="stop-color:#FFFFFF;stop-opacity:0"/>
				</linearGradient>
				<path id="path8808" class="st10" d="M282.5-440.8c0,1.9-1.6,3.5-3.5,3.5s-3.5-1.6-3.5-3.5s1.6-3.5,3.5-3.5
					S282.5-442.7,282.5-440.8L282.5-440.8z"/>
			</g>
			<rect id="rect8810" x="269.5" y="-438.3" class="st2" width="20" height="9"/>
			<path id="path8812" class="st2" d="M272.5-432.3c0,1.7-1.3,3-3,3s-3-1.3-3-3s1.3-3,3-3S272.5-434,272.5-432.3L272.5-432.3z"/>
			<g id="g8814">
				<path id="path8816" class="st2" d="M289.5-437.8c0,1.9-1.6,3.5-3.5,3.5s-3.5-1.6-3.5-3.5s1.6-3.5,3.5-3.5
					S289.5-439.7,289.5-437.8L289.5-437.8z"/>
				
					<linearGradient id="path8818_1_" gradientUnits="userSpaceOnUse" x1="771.6245" y1="-246.422" x2="774.9666" y2="-241.2758" gradientTransform="matrix(1.0566 0 0 1.0566 -531.6603 -181.0247)">
					<stop  offset="0" style="stop-color:#FFFFFF"/>
					<stop  offset="1" style="stop-color:#FFFFFF;stop-opacity:0"/>
				</linearGradient>
				<path id="path8818" class="st11" d="M289.5-437.8c0,1.9-1.6,3.5-3.5,3.5s-3.5-1.6-3.5-3.5s1.6-3.5,3.5-3.5
					S289.5-439.7,289.5-437.8L289.5-437.8z"/>
			</g>
			<g id="g8820">
				<path id="path8822" class="st2" d="M275.5-437.8c0,1.9-1.6,3.5-3.5,3.5s-3.5-1.6-3.5-3.5s1.6-3.5,3.5-3.5
					S275.5-439.7,275.5-437.8L275.5-437.8z"/>
				
					<linearGradient id="path8824_1_" gradientUnits="userSpaceOnUse" x1="771.4964" y1="-245.3748" x2="774.9468" y2="-241.8786" gradientTransform="matrix(1.0566 0 0 1.0566 -545.6603 -181.0247)">
					<stop  offset="0" style="stop-color:#FFFFFF"/>
					<stop  offset="1" style="stop-color:#FFFFFF;stop-opacity:0"/>
				</linearGradient>
				<path id="path8824" class="st12" d="M275.5-437.8c0,1.9-1.6,3.5-3.5,3.5s-3.5-1.6-3.5-3.5s1.6-3.5,3.5-3.5
					S275.5-439.7,275.5-437.8L275.5-437.8z"/>
			</g>
			<g id="g8826" transform="translate(-1.000000,0.000000)">
				<path id="path8828" class="st2" d="M279-441.3c-3.6,0-6.5,2.9-6.5,6.5c0,2.4,1.3,4.3,3.3,5.5h6.5c1.9-1.1,3.3-3.1,3.3-5.5
					C285.5-438.4,282.6-441.3,279-441.3z"/>
				
					<linearGradient id="path8830_1_" gradientUnits="userSpaceOnUse" x1="776.1036" y1="-232.6012" x2="780.1371" y2="-227.4145" gradientTransform="matrix(1 0 0 1 -500.045 -206)">
					<stop  offset="0" style="stop-color:#FFFFFF"/>
					<stop  offset="1" style="stop-color:#FFFFFF;stop-opacity:0"/>
				</linearGradient>
				<path id="path8830" class="st13" d="M279-441.3c-3.6,0-6.5,2.9-6.5,6.5c0,2.4,1.3,4.4,3.3,5.5h6.5c1.9-1.1,3.3-3.1,3.3-5.5
					C285.5-438.4,282.6-441.3,279-441.3z"/>
			</g>
			
				<linearGradient id="path8832_1_" gradientUnits="userSpaceOnUse" x1="804.5413" y1="-211.8816" x2="807.641" y2="-209.105" gradientTransform="matrix(0.9057 0 0 0.9057 -460.8576 -241.8651)">
				<stop  offset="0" style="stop-color:#FFFFFF"/>
				<stop  offset="1" style="stop-color:#FFFFFF;stop-opacity:0"/>
			</linearGradient>
			<path id="path8832" class="st14" d="M272.5-432.3c0,1.7-1.3,3-3,3s-3-1.3-3-3s1.3-3,3-3S272.5-434,272.5-432.3L272.5-432.3z"/>
			<path id="path8834" class="st15" d="M291.5-437.6c0,2.7-3.3,3.7-3.3,3.7s2.3-1.6,2.3-3.7H291.5z"/>
			<g id="g8836" transform="matrix(1.142857,0.000000,0.000000,1.142857,-28.57139,67.00008)">
				<path id="path8838" class="st2" d="M275.7-437.8c0,1.9-1.6,3.5-3.5,3.5s-3.5-1.6-3.5-3.5s1.6-3.5,3.5-3.5
					S275.7-439.7,275.7-437.8L275.7-437.8z"/>
				
					<linearGradient id="path8840_1_" gradientUnits="userSpaceOnUse" x1="633.7898" y1="-248.8494" x2="637.8872" y2="-244.4475" gradientTransform="matrix(1.38 0 0 1.38 -606.0819 -98.2866)">
					<stop  offset="0" style="stop-color:#FFFFFF"/>
					<stop  offset="1" style="stop-color:#FFFFFF;stop-opacity:0"/>
				</linearGradient>
				<path id="path8840" class="st16" d="M275.7-437.8c0,1.9-1.6,3.5-3.5,3.5s-3.5-1.6-3.5-3.5s1.6-3.5,3.5-3.5
					S275.7-439.7,275.7-437.8L275.7-437.8z"/>
			</g>
		</g>
		<g id="g8754" transform="translate(76.02041,158.0000)">
			<path id="path8756" class="st8" d="M279-445.8c-2.3,0-4.1,1.6-4.7,3.6c-0.7-0.4-1.4-0.6-2.3-0.6c-2.8,0-5,2.2-5,5
				c0,0.6,0.2,1.1,0.3,1.6c-1.4,0.8-2.3,2.2-2.3,3.9c0,2.5,2,4.5,4.5,4.5c0.2,0,18.8,0,19,0c2.5,0,4.5-2,4.5-4.5
				c0-1.7-1-3.1-2.3-3.9c0.2-0.5,0.3-1,0.3-1.6c0-2.8-2.2-5-5-5c-0.8,0-1.6,0.3-2.3,0.6C283.1-444.2,281.3-445.8,279-445.8z"/>
			
				<linearGradient id="path8758_1_" gradientUnits="userSpaceOnUse" x1="797.2673" y1="-234.8028" x2="811.2742" y2="-225.7209" gradientTransform="matrix(1 0 0 1 -528.0502 -206)">
				<stop  offset="0" style="stop-color:#FFFFFF"/>
				<stop  offset="1" style="stop-color:#FFFFFF;stop-opacity:0"/>
			</linearGradient>
			<path id="path8758" class="st17" d="M279-445.3c-2.2,0-3.7,1.3-4.4,3.8c-0.7-0.3-1.5-0.8-2.4-0.8c-2.7,0-4.8,1.9-4.8,4.5
				c0,0.5,0.3,1.3,0.4,1.8c-1.3,0.7-2.4,1.9-2.4,3.4c0,2.3,1.5,4.3,4.3,4.3c0.2,0,18.2,0,18.3,0c2.8,0,4.3-1.9,4.3-4.3
				c0-1.6-1.1-2.7-2.4-3.4c0.2-0.5,0.5-1.3,0.5-1.8c0-2.6-2.1-4.6-4.8-4.6c-0.8,0-1.6,0.5-2.3,0.8
				C282.8-443.9,281.2-445.3,279-445.3z"/>
			<g id="g8760">
				<path id="path8762" class="st2" d="M282.5-440.8c0,1.9-1.6,3.5-3.5,3.5s-3.5-1.6-3.5-3.5s1.6-3.5,3.5-3.5
					S282.5-442.7,282.5-440.8L282.5-440.8z"/>
				
					<linearGradient id="path8764_1_" gradientUnits="userSpaceOnUse" x1="802.6544" y1="-244.904" x2="804.8135" y2="-241.4732" gradientTransform="matrix(1.0566 0 0 1.0566 -570.3639 -184.0247)">
					<stop  offset="0" style="stop-color:#FFFFFF"/>
					<stop  offset="1" style="stop-color:#FFFFFF;stop-opacity:0"/>
				</linearGradient>
				<path id="path8764" class="st18" d="M282.5-440.8c0,1.9-1.6,3.5-3.5,3.5s-3.5-1.6-3.5-3.5s1.6-3.5,3.5-3.5
					S282.5-442.7,282.5-440.8L282.5-440.8z"/>
			</g>
			<rect id="rect8766" x="269.5" y="-438.3" class="st2" width="20" height="9"/>
			<path id="path8768" class="st2" d="M272.5-432.3c0,1.7-1.3,3-3,3s-3-1.3-3-3s1.3-3,3-3S272.5-434,272.5-432.3L272.5-432.3z"/>
			<g id="g8770">
				<path id="path8772" class="st2" d="M289.5-437.8c0,1.9-1.6,3.5-3.5,3.5s-3.5-1.6-3.5-3.5s1.6-3.5,3.5-3.5
					S289.5-439.7,289.5-437.8L289.5-437.8z"/>
				
					<linearGradient id="path8774_1_" gradientUnits="userSpaceOnUse" x1="801.6298" y1="-246.422" x2="804.9719" y2="-241.2758" gradientTransform="matrix(1.0566 0 0 1.0566 -563.3639 -181.0247)">
					<stop  offset="0" style="stop-color:#FFFFFF"/>
					<stop  offset="1" style="stop-color:#FFFFFF;stop-opacity:0"/>
				</linearGradient>
				<path id="path8774" class="st19" d="M289.5-437.8c0,1.9-1.6,3.5-3.5,3.5s-3.5-1.6-3.5-3.5s1.6-3.5,3.5-3.5
					S289.5-439.7,289.5-437.8L289.5-437.8z"/>
			</g>
			<g id="g8776">
				<path id="path8778" class="st2" d="M275.5-437.8c0,1.9-1.6,3.5-3.5,3.5s-3.5-1.6-3.5-3.5s1.6-3.5,3.5-3.5
					S275.5-439.7,275.5-437.8L275.5-437.8z"/>
				
					<linearGradient id="path8780_1_" gradientUnits="userSpaceOnUse" x1="801.5016" y1="-245.3748" x2="804.952" y2="-241.8787" gradientTransform="matrix(1.0566 0 0 1.0566 -577.3639 -181.0247)">
					<stop  offset="0" style="stop-color:#FFFFFF"/>
					<stop  offset="1" style="stop-color:#FFFFFF;stop-opacity:0"/>
				</linearGradient>
				<path id="path8780" class="st20" d="M275.5-437.8c0,1.9-1.6,3.5-3.5,3.5s-3.5-1.6-3.5-3.5s1.6-3.5,3.5-3.5
					S275.5-439.7,275.5-437.8L275.5-437.8z"/>
			</g>
			<g id="g8782" transform="translate(-1.000000,0.000000)">
				<path id="path8784" class="st2" d="M279-441.3c-3.6,0-6.5,2.9-6.5,6.5c0,2.4,1.3,4.3,3.3,5.5h6.5c1.9-1.1,3.3-3.1,3.3-5.5
					C285.5-438.4,282.6-441.3,279-441.3z"/>
				
					<linearGradient id="path8786_1_" gradientUnits="userSpaceOnUse" x1="806.1088" y1="-232.6012" x2="810.1423" y2="-227.4145" gradientTransform="matrix(1 0 0 1 -530.0502 -206)">
					<stop  offset="0" style="stop-color:#FFFFFF"/>
					<stop  offset="1" style="stop-color:#FFFFFF;stop-opacity:0"/>
				</linearGradient>
				<path id="path8786" class="st21" d="M279-441.3c-3.6,0-6.5,2.9-6.5,6.5c0,2.4,1.3,4.4,3.3,5.5h6.5c1.9-1.1,3.3-3.1,3.3-5.5
					C285.5-438.4,282.6-441.3,279-441.3z"/>
			</g>
			
				<linearGradient id="path8788_1_" gradientUnits="userSpaceOnUse" x1="834.5461" y1="-211.8812" x2="837.6458" y2="-209.1046" gradientTransform="matrix(0.9057 0 0 0.9057 -488.0327 -241.8653)">
				<stop  offset="0" style="stop-color:#FFFFFF"/>
				<stop  offset="1" style="stop-color:#FFFFFF;stop-opacity:0"/>
			</linearGradient>
			<path id="path8788" class="st22" d="M272.5-432.3c0,1.7-1.3,3-3,3s-3-1.3-3-3s1.3-3,3-3S272.5-434,272.5-432.3L272.5-432.3z"/>
			<path id="path8790" class="st15" d="M291.5-437.6c0,2.7-3.3,3.7-3.3,3.7s2.3-1.6,2.3-3.7H291.5z"/>
			<g id="g8792" transform="matrix(1.142857,0.000000,0.000000,1.142857,-28.57139,67.00008)">
				<path id="path8794" class="st2" d="M275.7-437.8c0,1.9-1.6,3.5-3.5,3.5s-3.5-1.6-3.5-3.5s1.6-3.5,3.5-3.5
					S275.7-439.7,275.7-437.8L275.7-437.8z"/>
				
					<linearGradient id="path8796_1_" gradientUnits="userSpaceOnUse" x1="658.4037" y1="-248.4122" x2="662.501" y2="-244.0103" gradientTransform="matrix(1.38 0 0 1.38 -640.0494 -98.8902)">
					<stop  offset="0" style="stop-color:#FFFFFF"/>
					<stop  offset="1" style="stop-color:#FFFFFF;stop-opacity:0"/>
				</linearGradient>
				<path id="path8796" class="st23" d="M275.7-437.8c0,1.9-1.6,3.5-3.5,3.5s-3.5-1.6-3.5-3.5s1.6-3.5,3.5-3.5
					S275.7-439.7,275.7-437.8L275.7-437.8z"/>
			</g>
		</g>
	</g>
	<g id="g12157" transform="translate(-163.0077,222.0147)">
		<path id="path12159" class="st24" d="M172-190.3c0,0.8-0.7,1.5-1.5,1.5s-1.5-0.7-1.5-1.5s0.7-1.5,1.5-1.5
			C171.4-191.8,172-191.1,172-190.3z"/>
		<path id="path12161" class="st24" d="M180.1-186.8c0,1.1-0.9,2-2,2s-2-0.9-2-2s0.9-2,2-2S180.1-187.9,180.1-186.8z"/>
		<path id="path12163" class="st25" d="M173-182.3c0,0.8-0.7,1.5-1.5,1.5s-1.5-0.7-1.5-1.5s0.7-1.5,1.5-1.5S173-183.1,173-182.3z"/>
		<path id="path12165" class="st26" d="M202-185.3c0,0.8-0.7,1.5-1.5,1.5s-1.5-0.7-1.5-1.5s0.7-1.5,1.5-1.5S202-186.1,202-185.3z"/>
		<path id="path12167" class="st27" d="M191-189.3c0,1.4-1.1,2.5-2.4,2.5c-1.4,0-2.4-1.1-2.4-2.5s1.1-2.5,2.4-2.5
			C189.9-191.7,191-190.6,191-189.3z"/>
		<path id="path12169" class="st28" d="M196-182.1c0,1.3-1.1,2.3-2.5,2.3s-2.5-1-2.5-2.3s1.1-2.3,2.5-2.3S196-183.4,196-182.1z"/>
		<path id="path12171" class="st29" d="M185-181.3c0,0.8-0.7,1.5-1.5,1.5s-1.5-0.7-1.5-1.5s0.7-1.5,1.5-1.5S185-182.1,185-181.3z"/>
	</g>
</g>
</svg>
