<?xml version="1.0" encoding="utf-8"?>
<!-- Generator: Adobe Illustrator 24.0.1, SVG Export Plug-In . SVG Version: 6.00 Build 0)  -->
<svg version="1.1"
	 id="svg1306" xmlns:cc="http://creativecommons.org/ns#" xmlns:dc="http://purl.org/dc/elements/1.1/" xmlns:inkscape="http://www.inkscape.org/namespaces/inkscape" xmlns:rdf="http://www.w3.org/1999/02/22-rdf-syntax-ns#" xmlns:sodipodi="http://sodipodi.sourceforge.net/DTD/sodipodi-0.dtd" xmlns:svg="http://www.w3.org/2000/svg"
	 xmlns="http://www.w3.org/2000/svg" xmlns:xlink="http://www.w3.org/1999/xlink" x="0px" y="0px" viewBox="0 0 45 45"
	 style="enable-background:new 0 0 45 45;" xml:space="preserve">
<style type="text/css">
	.st0{fill:#888A85;}
	.st1{fill:url(#path8291_1_);}
	.st2{fill:#C4C5C2;}
	.st3{fill:url(#path8329_1_);}
	.st4{fill:url(#path8370_1_);}
	.st5{fill:url(#path8313_1_);}
	.st6{fill:url(#path8395_1_);}
	.st7{fill:url(#path4522_1_);}
	.st8{fill:#C4C5C2;stroke:#888A85;stroke-miterlimit:2;}
	.st9{fill:url(#path7798_1_);}
	.st10{fill:url(#path7804_1_);}
	.st11{fill:url(#path7814_1_);}
	.st12{fill:url(#path7820_1_);}
	.st13{fill:url(#path7826_1_);}
	.st14{fill:url(#path7828_1_);}
	.st15{fill-rule:evenodd;clip-rule:evenodd;fill:#888A85;}
	.st16{fill:url(#path7836_1_);}
	.st17{fill:url(#path7856_1_);}
	.st18{fill:url(#path7862_1_);}
	.st19{fill:url(#path7872_1_);}
	.st20{fill:url(#path7878_1_);}
	.st21{fill:url(#path7884_1_);}
	.st22{fill:url(#path7886_1_);}
	.st23{fill:url(#path7896_1_);}
</style>
<g id="layer1">
	<g id="g10011" transform="translate(-287.0000,298.0000)">
		<path id="path8267" class="st0" d="M310-292c-2.8,0-5.1,1.6-6.4,3.8c-0.9-0.5-2-0.8-3.1-0.8c-3.9,0-7,3.1-7,7s3.1,7,7,7
			c2.4,0,4.4-1.3,5.7-3.2c1.1,0.7,2.4,1.2,3.8,1.2c0.9,0,1.8-0.2,2.6-0.5c0.5,0.9,1.2,1.6,2,2.2c0,0.1-0.1,0.2-0.1,0.4
			c0,3.9,3.1,7,7,7s7-3.1,7-7c0-2.4-1.3-4.4-3.1-5.6c0-0.1,0.1-0.2,0.1-0.4c0-3.9-3.1-7-7-7c-0.6,0-1.2,0.2-1.8,0.4
			C315.6-290.2,313-292,310-292z"/>
		
			<linearGradient id="path8291_1_" gradientUnits="userSpaceOnUse" x1="800.9315" y1="-182.0982" x2="851.3441" y2="-165.1718" gradientTransform="matrix(1 0 0 1 -504.9974 -104)">
			<stop  offset="0" style="stop-color:#FFFFFF"/>
			<stop  offset="1" style="stop-color:#FFFFFF;stop-opacity:0"/>
		</linearGradient>
		<path id="path8291" class="st1" d="M310-291c-2.8,0-5.1,1.8-6.1,4.2c-1-0.7-2.1-1.2-3.4-1.2c-3.3,0-6,2.7-6,6s2.7,6,6,6
			c2.4,0,4.5-1.5,5.4-3.5c1.1,0.9,2.5,1.5,4.1,1.5c1.1,0,2-0.3,2.9-0.8c0.4,1,1.1,1.8,1.9,2.4c-0.2,0.6-0.4,1.2-0.4,1.8
			c0,3.6,2.9,6.5,6.5,6.5s6.5-2.9,6.5-6.5c0-2.4-1.3-4.3-3.2-5.5c0.1-0.3,0.2-0.7,0.2-1c0-3.3-2.7-6-6-6c-0.9,0-1.7,0.2-2.4,0.5
			C315.2-289.1,312.9-291,310-291z"/>
		<path id="path8414" class="st2" d="M327.5-274.5c0,3.6-2.9,6.5-6.5,6.5s-6.5-2.9-6.5-6.5l0,0c0-3.6,2.9-6.5,6.5-6.5
			S327.5-278.1,327.5-274.5L327.5-274.5z"/>
		<g id="g8349" transform="translate(69.00259,102.0000)">
			<path id="path8327" class="st2" d="M246.5-386.5c0,3-2.5,5.5-5.5,5.5s-5.5-2.5-5.5-5.5s2.5-5.5,5.5-5.5S246.5-389.5,246.5-386.5z
				"/>
			
				<linearGradient id="path8329_1_" gradientUnits="userSpaceOnUse" x1="701.6288" y1="-154.7352" x2="707.382" y2="-149.8783" gradientTransform="matrix(0.8826 0 0 0.8826 -382.0509 -253.1331)">
				<stop  offset="0" style="stop-color:#FFFFFF"/>
				<stop  offset="1" style="stop-color:#FFFFFF;stop-opacity:0"/>
			</linearGradient>
			<path id="path8329" class="st3" d="M246.5-386.5c0,3-2.5,5.5-5.5,5.5s-5.5-2.5-5.5-5.5s2.5-5.5,5.5-5.5S246.5-389.5,246.5-386.5z
				"/>
		</g>
		<g id="g8389" transform="translate(69.00259,102.0000)">
			<path id="path8368" class="st2" d="M254.5-382.5c0,3-2.5,5.5-5.5,5.5s-5.5-2.5-5.5-5.5l0,0c0-3,2.5-5.5,5.5-5.5
				S254.5-385.5,254.5-382.5z"/>
			
				<linearGradient id="path8370_1_" gradientUnits="userSpaceOnUse" x1="700.7184" y1="-160.273" x2="706.6758" y2="-154.3108" gradientTransform="matrix(0.9117 0 0 0.9117 -394.412 -240.9499)">
				<stop  offset="0" style="stop-color:#FFFFFF"/>
				<stop  offset="1" style="stop-color:#FFFFFF;stop-opacity:0"/>
			</linearGradient>
			<path id="path8370" class="st4" d="M254.5-382.5c0,3-2.5,5.5-5.5,5.5s-5.5-2.5-5.5-5.5l0,0c0-3,2.5-5.5,5.5-5.5
				S254.5-385.5,254.5-382.5z"/>
		</g>
		<g id="g8323" transform="translate(69.00259,102.0000)">
			<path id="path8311" class="st2" d="M236.5-384c0,2.8-2.2,5-5,5s-5-2.2-5-5s2.2-5,5-5S236.5-386.8,236.5-384L236.5-384z"/>
			
				<linearGradient id="path8313_1_" gradientUnits="userSpaceOnUse" x1="639.3132" y1="-206.6116" x2="643.6937" y2="-203.1311" gradientTransform="matrix(1.1428 0 0 1.1428 -502.3201 -150.4371)">
				<stop  offset="0" style="stop-color:#FFFFFF"/>
				<stop  offset="1" style="stop-color:#FFFFFF;stop-opacity:0"/>
			</linearGradient>
			<path id="path8313" class="st5" d="M236.5-384c0,2.8-2.2,5-5,5s-5-2.2-5-5s2.2-5,5-5S236.5-386.8,236.5-384L236.5-384z"/>
		</g>
		<g id="g8406" transform="translate(69.00259,102.0000)">
			<path id="path8393" class="st2" d="M247.5-380c0,3.9-3.1,7-7,7s-7-3.1-7-7l0,0c0-3.9,3.1-7,7-7S247.5-383.9,247.5-380L247.5-380z
				"/>
			
				<linearGradient id="path8395_1_" gradientUnits="userSpaceOnUse" x1="663.9066" y1="-185.1581" x2="671.5565" y2="-179.3287" gradientTransform="matrix(1.0386 0 0 1.0386 -453.9505 -191.4418)">
				<stop  offset="0" style="stop-color:#FFFFFF"/>
				<stop  offset="1" style="stop-color:#FFFFFF;stop-opacity:0"/>
			</linearGradient>
			<path id="path8395" class="st6" d="M247.5-380c0,3.9-3.1,7-7,7s-7-3.1-7-7l0,0c0-3.9,3.1-7,7-7S247.5-383.9,247.5-380L247.5-380z
				"/>
		</g>
		<g id="g4518" transform="matrix(0.935028,0.000000,0.000000,0.935028,446.8280,-187.6162)">
			<path id="path4520" class="st2" d="M-154.8-94.1c0,3-2.4,5.4-5.4,5.4s-5.4-2.4-5.4-5.4s2.4-5.4,5.4-5.4S-154.8-97.1-154.8-94.1z"
				/>
			
				<linearGradient id="path4522_1_" gradientUnits="userSpaceOnUse" x1="-618.3776" y1="29.8427" x2="-615.1852" y2="33.8323" gradientTransform="matrix(1.5192 0 0 1.5192 775.459 -144.3768)">
				<stop  offset="0" style="stop-color:#FFFFFF"/>
				<stop  offset="1" style="stop-color:#FFFFFF;stop-opacity:0"/>
			</linearGradient>
			<path id="path4522" class="st7" d="M-154.7-94.2c0,3-2.4,5.4-5.4,5.4s-5.4-2.4-5.4-5.4s2.4-5.4,5.4-5.4
				C-157.2-99.6-154.7-97.2-154.7-94.2z"/>
		</g>
		<g id="g7794" transform="translate(38.00259,162.0000)">
			<path id="path7796" class="st8" d="M279-441.5c-2.3,0-4.1,1.6-4.7,3.6c-0.7-0.4-1.4-0.6-2.3-0.6c-2.8,0-5,2.2-5,5
				c0,0.6,0.2,1.1,0.3,1.6c-1.4,0.8-2.3,2.2-2.3,3.9c0,2.5,2,4.5,4.5,4.5c0.2,0,18.8,0,19,0c2.5,0,4.5-2,4.5-4.5
				c0-1.7-1-3.1-2.3-3.9c0.2-0.5,0.3-1,0.3-1.6c0-2.8-2.2-5-5-5c-0.8,0-1.6,0.3-2.3,0.6C283.1-439.9,281.3-441.5,279-441.5z"/>
			
				<linearGradient id="path7798_1_" gradientUnits="userSpaceOnUse" x1="767.1943" y1="-230.5569" x2="781.2012" y2="-221.475" gradientTransform="matrix(1 0 0 1 -497.9948 -206)">
				<stop  offset="0" style="stop-color:#FFFFFF"/>
				<stop  offset="1" style="stop-color:#FFFFFF;stop-opacity:0"/>
			</linearGradient>
			<path id="path7798" class="st9" d="M279-441c-2.2,0-3.7,1.3-4.4,3.8c-0.7-0.3-1.5-0.8-2.4-0.8c-2.7,0-4.8,1.9-4.8,4.5
				c0,0.5,0.3,1.3,0.4,1.8c-1.3,0.7-2.4,1.9-2.4,3.4c0,2.3,1.5,4.3,4.3,4.3c0.2,0,18.2,0,18.3,0c2.8,0,4.3-1.9,4.3-4.3
				c0-1.6-1.1-2.7-2.4-3.4c0.2-0.5,0.5-1.3,0.5-1.8c0-2.6-2.1-4.6-4.8-4.6c-0.8,0-1.6,0.5-2.3,0.8C282.8-439.6,281.2-441,279-441z"
				/>
			<g id="g7800">
				<path id="path7802" class="st2" d="M282.5-436.5c0,1.9-1.6,3.5-3.5,3.5s-3.5-1.6-3.5-3.5s1.6-3.5,3.5-3.5
					S282.5-438.4,282.5-436.5L282.5-436.5z"/>
				
					<linearGradient id="path7804_1_" gradientUnits="userSpaceOnUse" x1="772.5922" y1="-240.8852" x2="774.7512" y2="-237.4544" gradientTransform="matrix(1.0566 0 0 1.0566 -538.6072 -184.0247)">
					<stop  offset="0" style="stop-color:#FFFFFF"/>
					<stop  offset="1" style="stop-color:#FFFFFF;stop-opacity:0"/>
				</linearGradient>
				<path id="path7804" class="st10" d="M282.5-436.5c0,1.9-1.6,3.5-3.5,3.5s-3.5-1.6-3.5-3.5s1.6-3.5,3.5-3.5
					S282.5-438.4,282.5-436.5L282.5-436.5z"/>
			</g>
			<rect id="rect7806" x="269.5" y="-434" class="st2" width="20" height="9"/>
			<path id="path7808" class="st2" d="M272.5-428c0,1.7-1.3,3-3,3s-3-1.3-3-3s1.3-3,3-3S272.5-429.7,272.5-428L272.5-428z"/>
			<g id="g7810">
				<path id="path7812" class="st2" d="M289.5-433.5c0,1.9-1.6,3.5-3.5,3.5s-3.5-1.6-3.5-3.5s1.6-3.5,3.5-3.5
					S289.5-435.4,289.5-433.5L289.5-433.5z"/>
				
					<linearGradient id="path7814_1_" gradientUnits="userSpaceOnUse" x1="771.5674" y1="-242.4034" x2="774.9094" y2="-237.2572" gradientTransform="matrix(1.0566 0 0 1.0566 -531.6072 -181.0247)">
					<stop  offset="0" style="stop-color:#FFFFFF"/>
					<stop  offset="1" style="stop-color:#FFFFFF;stop-opacity:0"/>
				</linearGradient>
				<path id="path7814" class="st11" d="M289.5-433.5c0,1.9-1.6,3.5-3.5,3.5s-3.5-1.6-3.5-3.5s1.6-3.5,3.5-3.5
					S289.5-435.4,289.5-433.5L289.5-433.5z"/>
			</g>
			<g id="g7816">
				<path id="path7818" class="st2" d="M275.5-433.5c0,1.9-1.6,3.5-3.5,3.5s-3.5-1.6-3.5-3.5s1.6-3.5,3.5-3.5
					S275.5-435.4,275.5-433.5L275.5-433.5z"/>
				
					<linearGradient id="path7820_1_" gradientUnits="userSpaceOnUse" x1="771.4346" y1="-241.3573" x2="774.8849" y2="-237.8612" gradientTransform="matrix(1.0566 0 0 1.0566 -545.6072 -181.0247)">
					<stop  offset="0" style="stop-color:#FFFFFF"/>
					<stop  offset="1" style="stop-color:#FFFFFF;stop-opacity:0"/>
				</linearGradient>
				<path id="path7820" class="st12" d="M275.5-433.5c0,1.9-1.6,3.5-3.5,3.5s-3.5-1.6-3.5-3.5s1.6-3.5,3.5-3.5
					S275.5-435.4,275.5-433.5L275.5-433.5z"/>
			</g>
			<g id="g7822" transform="translate(-1.000000,0.000000)">
				<path id="path7824" class="st2" d="M279-437c-3.6,0-6.5,2.9-6.5,6.5c0,2.4,1.3,4.3,3.3,5.5h6.5c1.9-1.1,3.3-3.1,3.3-5.5
					C285.5-434.1,282.5-437,279-437z"/>
				
					<linearGradient id="path7826_1_" gradientUnits="userSpaceOnUse" x1="776.044" y1="-228.356" x2="780.0775" y2="-223.1693" gradientTransform="matrix(1 0 0 1 -499.9948 -206)">
					<stop  offset="0" style="stop-color:#FFFFFF"/>
					<stop  offset="1" style="stop-color:#FFFFFF;stop-opacity:0"/>
				</linearGradient>
				<path id="path7826" class="st13" d="M279-437c-3.6,0-6.5,2.9-6.5,6.5c0,2.4,1.3,4.4,3.3,5.5h6.5c1.9-1.1,3.3-3.1,3.3-5.5
					C285.5-434.1,282.6-437,279-437z"/>
			</g>
			
				<linearGradient id="path7828_1_" gradientUnits="userSpaceOnUse" x1="804.4758" y1="-207.1947" x2="807.5755" y2="-204.4181" gradientTransform="matrix(0.9057 0 0 0.9057 -460.8122 -241.8651)">
				<stop  offset="0" style="stop-color:#FFFFFF"/>
				<stop  offset="1" style="stop-color:#FFFFFF;stop-opacity:0"/>
			</linearGradient>
			<path id="path7828" class="st14" d="M272.5-428c0,1.7-1.3,3-3,3s-3-1.3-3-3s1.3-3,3-3S272.5-429.7,272.5-428L272.5-428z"/>
			<path id="path7830" class="st15" d="M291.5-433.3c0,2.7-3.3,3.7-3.3,3.7s2.3-1.6,2.3-3.7H291.5z"/>
			<g id="g7832" transform="matrix(1.142857,0.000000,0.000000,1.142857,-28.57139,67.00008)">
				<path id="path7834" class="st2" d="M275.7-434c0,1.9-1.6,3.5-3.5,3.5s-3.5-1.6-3.5-3.5s1.6-3.5,3.5-3.5S275.7-435.9,275.7-434
					L275.7-434z"/>
				
					<linearGradient id="path7836_1_" gradientUnits="userSpaceOnUse" x1="633.7413" y1="-246.1579" x2="637.8386" y2="-241.756" gradientTransform="matrix(1.38 0 0 1.38 -606.0251 -98.2866)">
					<stop  offset="0" style="stop-color:#FFFFFF"/>
					<stop  offset="1" style="stop-color:#FFFFFF;stop-opacity:0"/>
				</linearGradient>
				<path id="path7836" class="st16" d="M275.7-434c0,1.9-1.6,3.5-3.5,3.5s-3.5-1.6-3.5-3.5s1.6-3.5,3.5-3.5S275.7-435.9,275.7-434
					L275.7-434z"/>
			</g>
		</g>
		<g id="g7852" transform="translate(23.00000,158.0000)">
			<path id="path7854" class="st8" d="M279-441.5c-2.3,0-4.1,1.6-4.7,3.6c-0.7-0.4-1.4-0.6-2.3-0.6c-2.8,0-5,2.2-5,5
				c0,0.6,0.2,1.1,0.3,1.6c-1.4,0.8-2.3,2.2-2.3,3.9c0,2.5,2,4.5,4.5,4.5c0.2,0,18.8,0,19,0c2.5,0,4.5-2,4.5-4.5
				c0-1.7-1-3.1-2.3-3.9c0.2-0.5,0.3-1,0.3-1.6c0-2.8-2.2-5-5-5c-0.8,0-1.6,0.3-2.3,0.6C283.1-439.9,281.3-441.5,279-441.5z"/>
			
				<linearGradient id="path7856_1_" gradientUnits="userSpaceOnUse" x1="797.1995" y1="-230.5569" x2="811.2064" y2="-221.475" gradientTransform="matrix(1 0 0 1 -528 -206)">
				<stop  offset="0" style="stop-color:#FFFFFF"/>
				<stop  offset="1" style="stop-color:#FFFFFF;stop-opacity:0"/>
			</linearGradient>
			<path id="path7856" class="st17" d="M279-441c-2.2,0-3.7,1.3-4.4,3.8c-0.7-0.3-1.5-0.8-2.4-0.8c-2.7,0-4.8,1.9-4.8,4.5
				c0,0.5,0.3,1.3,0.4,1.8c-1.3,0.7-2.4,1.9-2.4,3.4c0,2.3,1.5,4.3,4.3,4.3c0.2,0,18.2,0,18.3,0c2.8,0,4.3-1.9,4.3-4.3
				c0-1.6-1.1-2.7-2.4-3.4c0.2-0.5,0.5-1.3,0.5-1.8c0-2.6-2.1-4.6-4.8-4.6c-0.8,0-1.6,0.5-2.3,0.8C282.8-439.6,281.2-441,279-441z"
				/>
			<g id="g7858">
				<path id="path7860" class="st2" d="M282.5-436.5c0,1.9-1.6,3.5-3.5,3.5s-3.5-1.6-3.5-3.5s1.6-3.5,3.5-3.5
					S282.5-438.4,282.5-436.5L282.5-436.5z"/>
				
					<linearGradient id="path7862_1_" gradientUnits="userSpaceOnUse" x1="802.5975" y1="-240.8853" x2="804.7565" y2="-237.4545" gradientTransform="matrix(1.0566 0 0 1.0566 -570.3108 -184.0247)">
					<stop  offset="0" style="stop-color:#FFFFFF"/>
					<stop  offset="1" style="stop-color:#FFFFFF;stop-opacity:0"/>
				</linearGradient>
				<path id="path7862" class="st18" d="M282.5-436.5c0,1.9-1.6,3.5-3.5,3.5s-3.5-1.6-3.5-3.5s1.6-3.5,3.5-3.5
					S282.5-438.4,282.5-436.5L282.5-436.5z"/>
			</g>
			<rect id="rect7864" x="269.5" y="-434" class="st2" width="20" height="9"/>
			<path id="path7866" class="st2" d="M272.5-428c0,1.7-1.3,3-3,3s-3-1.3-3-3s1.3-3,3-3S272.5-429.7,272.5-428L272.5-428z"/>
			<g id="g7868">
				<path id="path7870" class="st2" d="M289.5-433.5c0,1.9-1.6,3.5-3.5,3.5s-3.5-1.6-3.5-3.5s1.6-3.5,3.5-3.5
					S289.5-435.4,289.5-433.5L289.5-433.5z"/>
				
					<linearGradient id="path7872_1_" gradientUnits="userSpaceOnUse" x1="801.5726" y1="-242.4035" x2="804.9147" y2="-237.2573" gradientTransform="matrix(1.0566 0 0 1.0566 -563.3108 -181.0247)">
					<stop  offset="0" style="stop-color:#FFFFFF"/>
					<stop  offset="1" style="stop-color:#FFFFFF;stop-opacity:0"/>
				</linearGradient>
				<path id="path7872" class="st19" d="M289.5-433.5c0,1.9-1.6,3.5-3.5,3.5s-3.5-1.6-3.5-3.5s1.6-3.5,3.5-3.5
					S289.5-435.4,289.5-433.5L289.5-433.5z"/>
			</g>
			<g id="g7874">
				<path id="path7876" class="st2" d="M275.5-433.5c0,1.9-1.6,3.5-3.5,3.5s-3.5-1.6-3.5-3.5s1.6-3.5,3.5-3.5
					S275.5-435.4,275.5-433.5L275.5-433.5z"/>
				
					<linearGradient id="path7878_1_" gradientUnits="userSpaceOnUse" x1="801.4398" y1="-241.3573" x2="804.8902" y2="-237.8612" gradientTransform="matrix(1.0566 0 0 1.0566 -577.3108 -181.0247)">
					<stop  offset="0" style="stop-color:#FFFFFF"/>
					<stop  offset="1" style="stop-color:#FFFFFF;stop-opacity:0"/>
				</linearGradient>
				<path id="path7878" class="st20" d="M275.5-433.5c0,1.9-1.6,3.5-3.5,3.5s-3.5-1.6-3.5-3.5s1.6-3.5,3.5-3.5
					S275.5-435.4,275.5-433.5L275.5-433.5z"/>
			</g>
			<g id="g7880" transform="translate(-1.000000,0.000000)">
				<path id="path7882" class="st2" d="M279-437c-3.6,0-6.5,2.9-6.5,6.5c0,2.4,1.3,4.3,3.3,5.5h6.5c1.9-1.1,3.3-3.1,3.3-5.5
					C285.5-434.1,282.5-437,279-437z"/>
				
					<linearGradient id="path7884_1_" gradientUnits="userSpaceOnUse" x1="806.0491" y1="-228.356" x2="810.0827" y2="-223.1693" gradientTransform="matrix(1 0 0 1 -530 -206)">
					<stop  offset="0" style="stop-color:#FFFFFF"/>
					<stop  offset="1" style="stop-color:#FFFFFF;stop-opacity:0"/>
				</linearGradient>
				<path id="path7884" class="st21" d="M279-437c-3.6,0-6.5,2.9-6.5,6.5c0,2.4,1.3,4.4,3.3,5.5h6.5c1.9-1.1,3.3-3.1,3.3-5.5
					C285.5-434.1,282.6-437,279-437z"/>
			</g>
			
				<linearGradient id="path7886_1_" gradientUnits="userSpaceOnUse" x1="834.4806" y1="-207.1943" x2="837.5803" y2="-204.4177" gradientTransform="matrix(0.9057 0 0 0.9057 -487.9873 -241.8653)">
				<stop  offset="0" style="stop-color:#FFFFFF"/>
				<stop  offset="1" style="stop-color:#FFFFFF;stop-opacity:0"/>
			</linearGradient>
			<path id="path7886" class="st22" d="M272.5-428c0,1.7-1.3,3-3,3s-3-1.3-3-3s1.3-3,3-3S272.5-429.7,272.5-428L272.5-428z"/>
			<path id="path7888" class="st15" d="M291.5-433.3c0,2.7-3.3,3.7-3.3,3.7s2.3-1.6,2.3-3.7H291.5z"/>
			<g id="g7890" transform="matrix(1.142857,0.000000,0.000000,1.142857,-28.57139,67.00008)">
				<path id="path7892" class="st2" d="M275.7-434c0,1.9-1.6,3.5-3.5,3.5s-3.5-1.6-3.5-3.5s1.6-3.5,3.5-3.5S275.7-435.9,275.7-434
					L275.7-434z"/>
				
					<linearGradient id="path7896_1_" gradientUnits="userSpaceOnUse" x1="658.3552" y1="-245.7207" x2="662.4526" y2="-241.3188" gradientTransform="matrix(1.38 0 0 1.38 -639.9926 -98.8902)">
					<stop  offset="0" style="stop-color:#FFFFFF"/>
					<stop  offset="1" style="stop-color:#FFFFFF;stop-opacity:0"/>
				</linearGradient>
				<path id="path7896" class="st23" d="M275.7-434c0,1.9-1.6,3.5-3.5,3.5s-3.5-1.6-3.5-3.5s1.6-3.5,3.5-3.5S275.7-435.9,275.7-434
					L275.7-434z"/>
			</g>
		</g>
	</g>
</g>
</svg>
