<?xml version="1.0" encoding="utf-8"?>
<!-- Generator: Adobe Illustrator 24.0.1, SVG Export Plug-In . SVG Version: 6.00 Build 0)  -->
<svg version="1.1"
	 id="svg1306" xmlns:cc="http://creativecommons.org/ns#" xmlns:dc="http://purl.org/dc/elements/1.1/" xmlns:inkscape="http://www.inkscape.org/namespaces/inkscape" xmlns:rdf="http://www.w3.org/1999/02/22-rdf-syntax-ns#" xmlns:sodipodi="http://sodipodi.sourceforge.net/DTD/sodipodi-0.dtd" xmlns:svg="http://www.w3.org/2000/svg"
	 xmlns="http://www.w3.org/2000/svg" xmlns:xlink="http://www.w3.org/1999/xlink" x="0px" y="0px" viewBox="0 0 45 45"
	 style="enable-background:new 0 0 45 45;" xml:space="preserve">
<style type="text/css">
	.st0{fill:#729FCF;stroke:#204A87;stroke-width:1.0746;stroke-miterlimit:2;}
	.st1{opacity:0.4611;fill:url(#path12231_1_);enable-background:new    ;}
	.st2{fill:url(#path12233_1_);}
	.st3{fill:#888A85;}
	.st4{fill:url(#path8291_1_);}
	.st5{fill:#C4C5C2;}
	.st6{fill:url(#path8329_1_);}
	.st7{fill:url(#path8370_1_);}
	.st8{fill:url(#path8313_1_);}
	.st9{fill:url(#path8395_1_);}
	.st10{fill:url(#path4522_1_);}
	.st11{fill:#C4C5C2;stroke:#888A85;stroke-miterlimit:2;}
	.st12{fill:url(#path7798_1_);}
	.st13{fill:url(#path7804_1_);}
	.st14{fill:url(#path7814_1_);}
	.st15{fill:url(#path7820_1_);}
	.st16{fill:url(#path7826_1_);}
	.st17{fill:url(#path7828_1_);}
	.st18{fill-rule:evenodd;clip-rule:evenodd;fill:#888A85;}
	.st19{fill:url(#path7836_1_);}
	.st20{fill:url(#path7856_1_);}
	.st21{fill:url(#path7862_1_);}
	.st22{fill:url(#path7872_1_);}
	.st23{fill:url(#path7878_1_);}
	.st24{fill:url(#path7884_1_);}
	.st25{fill:url(#path7886_1_);}
	.st26{fill:url(#path7896_1_);}
	.st27{opacity:0.4611;fill:url(#path12195_1_);enable-background:new    ;}
	.st28{fill:url(#path12197_1_);}
	.st29{opacity:0.4611;fill:url(#path12243_1_);enable-background:new    ;}
	.st30{fill:url(#path12245_1_);}
	.st31{opacity:0.4611;fill:url(#path6061_1_);enable-background:new    ;}
	.st32{fill:url(#path6063_1_);}
	.st33{opacity:0.4611;fill:url(#path12207_1_);enable-background:new    ;}
	.st34{fill:url(#path12209_1_);}
	.st35{opacity:0.4611;fill:url(#path12219_1_);enable-background:new    ;}
	.st36{fill:url(#path12221_1_);}
</style>
<g id="layer1_18_">
	<g id="g12227_3_" transform="translate(-202.9549,271.0066)">
		<path id="path12229_3_" class="st0" d="M231.8-228.8c-1.2,0-2.1-1-2.1-2.2c0.2-2.5,2-2.8,1.8-5.2
			C233.2-235.6,236-229.3,231.8-228.8z"/>
		
			<radialGradient id="path12231_1_" cx="3354.2185" cy="-2863.2854" r="21.7436" gradientTransform="matrix(8.188726e-02 3.515823e-03 3.392042e-03 -0.1257 -33.1382 -602.8224)" gradientUnits="userSpaceOnUse">
			<stop  offset="0" style="stop-color:#FFFFFF"/>
			<stop  offset="1" style="stop-color:#FFFFFF;stop-opacity:0"/>
		</radialGradient>
		<path id="path12231_3_" class="st1" d="M233.6-231.1c0,1-0.8,1.8-1.8,1.7c-1,0-1.8-0.9-1.7-1.9s2.1-1.6,1.9-3.6
			C232.9-234.8,233.6-232.1,233.6-231.1z"/>
		
			<linearGradient id="path12233_1_" gradientUnits="userSpaceOnUse" x1="3620.918" y1="2377.8389" x2="3641.4241" y2="2399.3174" gradientTransform="matrix(9.709367e-04 0.116 0.1098 8.855417e-03 -34.7553 -674.3118)">
			<stop  offset="0" style="stop-color:#FFFFFF"/>
			<stop  offset="1" style="stop-color:#FFFFFF;stop-opacity:0"/>
		</linearGradient>
		<path id="path12233_3_" class="st2" d="M232.9-229.7c-4.6,1.2-2-4.3-1-3.9C229.4-230.7,232.9-229.7,232.9-229.7z"/>
	</g>
	<g id="g10011_3_" transform="translate(-287.0000,298.0000)">
		<path id="path8267_3_" class="st3" d="M310-296.3c-2.8,0-5.1,1.6-6.4,3.8c-0.9-0.5-2-0.8-3.1-0.8c-3.9,0-7,3.1-7,7
			c0,3.9,3.1,7,7,7c2.4,0,4.4-1.3,5.7-3.2c1.1,0.7,2.4,1.2,3.8,1.2c0.9,0,1.8-0.2,2.6-0.5c0.5,0.9,1.2,1.6,2,2.2
			c0,0.1-0.1,0.2-0.1,0.4c0,3.9,3.1,7,7,7s7-3.1,7-7c0-2.4-1.3-4.4-3.1-5.6c0-0.1,0.1-0.2,0.1-0.4c0-3.9-3.1-7-7-7
			c-0.6,0-1.2,0.2-1.8,0.4C315.6-294.5,313-296.3,310-296.3z"/>
		
			<linearGradient id="path8291_1_" gradientUnits="userSpaceOnUse" x1="1087.9315" y1="-65.6479" x2="1138.344" y2="-82.5742" gradientTransform="matrix(1 0 0 -1 -791.9974 -356)">
			<stop  offset="0" style="stop-color:#FFFFFF"/>
			<stop  offset="1" style="stop-color:#FFFFFF;stop-opacity:0"/>
		</linearGradient>
		<path id="path8291_3_" class="st4" d="M310-295.3c-2.8,0-5.1,1.8-6.1,4.2c-1-0.7-2.1-1.2-3.4-1.2c-3.3,0-6,2.7-6,6s2.7,6,6,6
			c2.4,0,4.5-1.5,5.4-3.5c1.1,0.9,2.5,1.5,4.1,1.5c1.1,0,2-0.3,2.9-0.8c0.4,1,1.1,1.8,1.9,2.4c-0.2,0.6-0.4,1.2-0.4,1.8
			c0,3.6,2.9,6.5,6.5,6.5s6.5-2.9,6.5-6.5c0-2.4-1.3-4.3-3.2-5.5c0.1-0.3,0.2-0.7,0.2-1c0-3.3-2.7-6-6-6c-0.9,0-1.7,0.2-2.4,0.5
			C315.2-293.4,312.9-295.3,310-295.3z"/>
		<path id="path8414_3_" class="st5" d="M327.5-278.8c0,3.6-2.9,6.5-6.5,6.5s-6.5-2.9-6.5-6.5l0,0c0-3.6,2.9-6.5,6.5-6.5
			S327.5-282.4,327.5-278.8L327.5-278.8z"/>
		<g id="g8349_3_" transform="translate(69.00259,102.0000)">
			<path id="path8327_3_" class="st5" d="M246.5-390.8c0,3-2.5,5.5-5.5,5.5s-5.5-2.5-5.5-5.5s2.5-5.5,5.5-5.5
				S246.5-393.8,246.5-390.8z"/>
			
				<linearGradient id="path8329_1_" gradientUnits="userSpaceOnUse" x1="933.3268" y1="-208.1457" x2="939.0801" y2="-213.0026" gradientTransform="matrix(0.8826 0 0 -0.8826 -586.5476 -577.6657)">
				<stop  offset="0" style="stop-color:#FFFFFF"/>
				<stop  offset="1" style="stop-color:#FFFFFF;stop-opacity:0"/>
			</linearGradient>
			<path id="path8329_3_" class="st6" d="M246.5-390.8c0,3-2.5,5.5-5.5,5.5s-5.5-2.5-5.5-5.5s2.5-5.5,5.5-5.5
				S246.5-393.8,246.5-390.8z"/>
		</g>
		<g id="g8389_3_" transform="translate(69.00259,102.0000)">
			<path id="path8368_3_" class="st5" d="M254.5-386.8c0,3-2.5,5.5-5.5,5.5s-5.5-2.5-5.5-5.5l0,0c0-3,2.5-5.5,5.5-5.5
				S254.5-389.8,254.5-386.8z"/>
			
				<linearGradient id="path8370_1_" gradientUnits="userSpaceOnUse" x1="928.6913" y1="-199.0368" x2="934.6489" y2="-204.9989" gradientTransform="matrix(0.9117 0 0 -0.9117 -602.2551 -572.7866)">
				<stop  offset="0" style="stop-color:#FFFFFF"/>
				<stop  offset="1" style="stop-color:#FFFFFF;stop-opacity:0"/>
			</linearGradient>
			<path id="path8370_3_" class="st7" d="M254.5-386.8c0,3-2.5,5.5-5.5,5.5s-5.5-2.5-5.5-5.5l0,0c0-3,2.5-5.5,5.5-5.5
				S254.5-389.8,254.5-386.8z"/>
		</g>
		<g id="g8323_3_" transform="translate(69.00259,102.0000)">
			<path id="path8311_3_" class="st5" d="M236.5-388.3c0,2.8-2.2,5-5,5s-5-2.2-5-5s2.2-5,5-5S236.5-391.1,236.5-388.3L236.5-388.3z"
				/>
			
				<linearGradient id="path8313_1_" gradientUnits="userSpaceOnUse" x1="844.4401" y1="-130.7955" x2="848.8206" y2="-134.276" gradientTransform="matrix(1.1428 0 0 -1.1428 -736.7391 -540.2799)">
				<stop  offset="0" style="stop-color:#FFFFFF"/>
				<stop  offset="1" style="stop-color:#FFFFFF;stop-opacity:0"/>
			</linearGradient>
			<path id="path8313_3_" class="st8" d="M236.5-388.3c0,2.8-2.2,5-5,5s-5-2.2-5-5s2.2-5,5-5S236.5-391.1,236.5-388.3L236.5-388.3z"
				/>
		</g>
		<g id="g8406_3_" transform="translate(69.00259,102.0000)">
			<path id="path8393_3_" class="st5" d="M247.5-384.3c0,3.9-3.1,7-7,7s-7-3.1-7-7l0,0c0-3.9,3.1-7,7-7S247.5-388.2,247.5-384.3
				L247.5-384.3z"/>
			
				<linearGradient id="path8395_1_" gradientUnits="userSpaceOnUse" x1="878.0759" y1="-160.918" x2="885.7257" y2="-166.7473" gradientTransform="matrix(1.0386 0 0 -1.0386 -676.3868 -555.1304)">
				<stop  offset="0" style="stop-color:#FFFFFF"/>
				<stop  offset="1" style="stop-color:#FFFFFF;stop-opacity:0"/>
			</linearGradient>
			<path id="path8395_3_" class="st9" d="M247.5-384.3c0,3.9-3.1,7-7,7s-7-3.1-7-7l0,0c0-3.9,3.1-7,7-7S247.5-388.2,247.5-384.3
				L247.5-384.3z"/>
		</g>
		<g id="g4518_3_" transform="matrix(0.935028,0.000000,0.000000,0.935028,446.8280,-187.6162)">
			<path id="path4520_3_" class="st5" d="M-154.8-98.6c0,3-2.4,5.4-5.4,5.4s-5.4-2.4-5.4-5.4s2.4-5.4,5.4-5.4
				S-154.8-101.6-154.8-98.6z"/>
			
				<linearGradient id="path4522_1_" gradientUnits="userSpaceOnUse" x1="-864.7787" y1="-65.1418" x2="-861.5864" y2="-69.1315" gradientTransform="matrix(1.4205 0 0 -1.4205 1064.379 -196.0794)">
				<stop  offset="0" style="stop-color:#FFFFFF"/>
				<stop  offset="1" style="stop-color:#FFFFFF;stop-opacity:0"/>
			</linearGradient>
			<path id="path4522_3_" class="st10" d="M-154.7-98.6c0,3-2.4,5.4-5.4,5.4s-5.4-2.4-5.4-5.4s2.4-5.4,5.4-5.4
				C-157.2-104.1-154.7-101.6-154.7-98.6z"/>
		</g>
		<g id="g7794_3_" transform="translate(38.00259,162.0000)">
			<path id="path7796_3_" class="st11" d="M279-445.8c-2.3,0-4.1,1.6-4.7,3.6c-0.7-0.4-1.4-0.6-2.3-0.6c-2.8,0-5,2.2-5,5
				c0,0.6,0.2,1.1,0.3,1.6c-1.4,0.8-2.3,2.2-2.3,3.9c0,2.5,2,4.5,4.5,4.5c0.2,0,18.8,0,19,0c2.5,0,4.5-2,4.5-4.5
				c0-1.7-1-3.1-2.3-3.9c0.2-0.5,0.3-1,0.3-1.6c0-2.8-2.2-5-5-5c-0.8,0-1.6,0.3-2.3,0.6C283.1-444.2,281.3-445.8,279-445.8z"/>
			
				<linearGradient id="path7798_1_" gradientUnits="userSpaceOnUse" x1="1016.1917" y1="-179.1891" x2="1030.1986" y2="-188.2711" gradientTransform="matrix(1 0 0 -1 -746.9922 -620)">
				<stop  offset="0" style="stop-color:#FFFFFF"/>
				<stop  offset="1" style="stop-color:#FFFFFF;stop-opacity:0"/>
			</linearGradient>
			<path id="path7798_3_" class="st12" d="M279-445.3c-2.2,0-3.7,1.3-4.4,3.8c-0.7-0.3-1.5-0.8-2.4-0.8c-2.7,0-4.8,1.9-4.8,4.5
				c0,0.5,0.3,1.3,0.4,1.8c-1.3,0.7-2.4,1.9-2.4,3.4c0,2.3,1.5,4.3,4.3,4.3c0.2,0,18.2,0,18.3,0c2.8,0,4.3-1.9,4.3-4.3
				c0-1.6-1.1-2.7-2.4-3.4c0.2-0.5,0.5-1.3,0.5-1.8c0-2.6-2.1-4.6-4.8-4.6c-0.8,0-1.6,0.5-2.3,0.8
				C282.8-443.9,281.2-445.3,279-445.3z"/>
			<g id="g7800_3_">
				<path id="path7802_3_" class="st5" d="M282.5-440.8c0,1.9-1.6,3.5-3.5,3.5s-3.5-1.6-3.5-3.5c0-1.9,1.6-3.5,3.5-3.5
					S282.5-442.7,282.5-440.8L282.5-440.8z"/>
				
					<linearGradient id="path7804_1_" gradientUnits="userSpaceOnUse" x1="1016.0721" y1="-163.5712" x2="1018.2312" y2="-167.002" gradientTransform="matrix(1.0566 0 0 -1.0566 -795.8682 -615.6273)">
					<stop  offset="0" style="stop-color:#FFFFFF"/>
					<stop  offset="1" style="stop-color:#FFFFFF;stop-opacity:0"/>
				</linearGradient>
				<path id="path7804_3_" class="st13" d="M282.5-440.8c0,1.9-1.6,3.5-3.5,3.5s-3.5-1.6-3.5-3.5c0-1.9,1.6-3.5,3.5-3.5
					S282.5-442.7,282.5-440.8L282.5-440.8z"/>
			</g>
			<rect id="rect7806_3_" x="269.5" y="-438.3" class="st5" width="20" height="9"/>
			<path id="path7808_3_" class="st5" d="M272.5-432.3c0,1.7-1.3,3-3,3s-3-1.3-3-3s1.3-3,3-3S272.5-434,272.5-432.3L272.5-432.3z"/>
			<g id="g7810_3_">
				<path id="path7812_3_" class="st5" d="M289.5-437.8c0,1.9-1.6,3.5-3.5,3.5s-3.5-1.6-3.5-3.5c0-1.9,1.6-3.5,3.5-3.5
					S289.5-439.7,289.5-437.8L289.5-437.8z"/>
				
					<linearGradient id="path7814_1_" gradientUnits="userSpaceOnUse" x1="1015.0473" y1="-162.053" x2="1018.3894" y2="-167.1992" gradientTransform="matrix(1.0566 0 0 -1.0566 -788.8682 -612.6273)">
					<stop  offset="0" style="stop-color:#FFFFFF"/>
					<stop  offset="1" style="stop-color:#FFFFFF;stop-opacity:0"/>
				</linearGradient>
				<path id="path7814_3_" class="st14" d="M289.5-437.8c0,1.9-1.6,3.5-3.5,3.5s-3.5-1.6-3.5-3.5c0-1.9,1.6-3.5,3.5-3.5
					S289.5-439.7,289.5-437.8L289.5-437.8z"/>
			</g>
			<g id="g7816_3_">
				<path id="path7818_3_" class="st5" d="M275.5-437.8c0,1.9-1.6,3.5-3.5,3.5s-3.5-1.6-3.5-3.5c0-1.9,1.6-3.5,3.5-3.5
					S275.5-439.7,275.5-437.8L275.5-437.8z"/>
				
					<linearGradient id="path7820_1_" gradientUnits="userSpaceOnUse" x1="1014.9145" y1="-163.0991" x2="1018.3648" y2="-166.5952" gradientTransform="matrix(1.0566 0 0 -1.0566 -802.8682 -612.6273)">
					<stop  offset="0" style="stop-color:#FFFFFF"/>
					<stop  offset="1" style="stop-color:#FFFFFF;stop-opacity:0"/>
				</linearGradient>
				<path id="path7820_3_" class="st15" d="M275.5-437.8c0,1.9-1.6,3.5-3.5,3.5s-3.5-1.6-3.5-3.5c0-1.9,1.6-3.5,3.5-3.5
					S275.5-439.7,275.5-437.8L275.5-437.8z"/>
			</g>
			<g id="g7822_3_" transform="translate(-1.000000,0.000000)">
				<path id="path7824_3_" class="st5" d="M279-441.3c-3.6,0-6.5,2.9-6.5,6.5c0,2.4,1.3,4.3,3.3,5.5h6.5c1.9-1.1,3.3-3.1,3.3-5.5
					C285.5-438.4,282.5-441.3,279-441.3z"/>
				
					<linearGradient id="path7826_1_" gradientUnits="userSpaceOnUse" x1="1026.0415" y1="-181.3901" x2="1030.075" y2="-186.5768" gradientTransform="matrix(1 0 0 -1 -749.9922 -620)">
					<stop  offset="0" style="stop-color:#FFFFFF"/>
					<stop  offset="1" style="stop-color:#FFFFFF;stop-opacity:0"/>
				</linearGradient>
				<path id="path7826_3_" class="st16" d="M279-441.3c-3.6,0-6.5,2.9-6.5,6.5c0,2.4,1.3,4.4,3.3,5.5h6.5c1.9-1.1,3.3-3.1,3.3-5.5
					C285.5-438.4,282.6-441.3,279-441.3z"/>
			</g>
			
				<linearGradient id="path7828_1_" gradientUnits="userSpaceOnUse" x1="1064.1975" y1="-212.8328" x2="1067.2972" y2="-215.6093" gradientTransform="matrix(0.9057 0 0 -0.9057 -696.0421 -626.5378)">
				<stop  offset="0" style="stop-color:#FFFFFF"/>
				<stop  offset="1" style="stop-color:#FFFFFF;stop-opacity:0"/>
			</linearGradient>
			<path id="path7828_3_" class="st17" d="M272.5-432.3c0,1.7-1.3,3-3,3s-3-1.3-3-3s1.3-3,3-3S272.5-434,272.5-432.3L272.5-432.3z"
				/>
			<path id="path7830_3_" class="st18" d="M291.5-437.6c0,2.7-3.3,3.7-3.3,3.7s2.3-1.6,2.3-3.7H291.5z"/>
			<g id="g7832_3_" transform="matrix(1.142857,0.000000,0.000000,1.142857,-28.57139,67.00008)">
				<path id="path7834_3_" class="st5" d="M275.7-437.7c0,1.9-1.6,3.5-3.5,3.5s-3.5-1.6-3.5-3.5s1.6-3.5,3.5-3.5
					S275.7-439.6,275.7-437.7L275.7-437.7z"/>
				
					<linearGradient id="path7836_1_" gradientUnits="userSpaceOnUse" x1="764.1654" y1="-169.957" x2="768.2628" y2="-174.3589" gradientTransform="matrix(1.5771 0 0 -1.5771 -936.71 -709.7067)">
					<stop  offset="0" style="stop-color:#FFFFFF"/>
					<stop  offset="1" style="stop-color:#FFFFFF;stop-opacity:0"/>
				</linearGradient>
				<path id="path7836_3_" class="st19" d="M275.7-437.7c0,1.9-1.6,3.5-3.5,3.5s-3.5-1.6-3.5-3.5s1.6-3.5,3.5-3.5
					S275.7-439.6,275.7-437.7L275.7-437.7z"/>
			</g>
		</g>
		<g id="g7852_3_" transform="translate(23.00000,158.0000)">
			<path id="path7854_3_" class="st11" d="M279-445.8c-2.3,0-4.1,1.6-4.7,3.6c-0.7-0.4-1.4-0.6-2.3-0.6c-2.8,0-5,2.2-5,5
				c0,0.6,0.2,1.1,0.3,1.6c-1.4,0.8-2.3,2.2-2.3,3.9c0,2.5,2,4.5,4.5,4.5c0.2,0,18.8,0,19,0c2.5,0,4.5-2,4.5-4.5
				c0-1.7-1-3.1-2.3-3.9c0.2-0.5,0.3-1,0.3-1.6c0-2.8-2.2-5-5-5c-0.8,0-1.6,0.3-2.3,0.6C283.1-444.2,281.3-445.8,279-445.8z"/>
			
				<linearGradient id="path7856_1_" gradientUnits="userSpaceOnUse" x1="1061.1996" y1="-175.1892" x2="1075.2064" y2="-184.2711" gradientTransform="matrix(1 0 0 -1 -792 -616)">
				<stop  offset="0" style="stop-color:#FFFFFF"/>
				<stop  offset="1" style="stop-color:#FFFFFF;stop-opacity:0"/>
			</linearGradient>
			<path id="path7856_3_" class="st20" d="M279-445.3c-2.2,0-3.7,1.3-4.4,3.8c-0.7-0.3-1.5-0.8-2.4-0.8c-2.7,0-4.8,1.9-4.8,4.5
				c0,0.5,0.3,1.3,0.4,1.8c-1.3,0.7-2.4,1.9-2.4,3.4c0,2.3,1.5,4.3,4.3,4.3c0.2,0,18.2,0,18.3,0c2.8,0,4.3-1.9,4.3-4.3
				c0-1.6-1.1-2.7-2.4-3.4c0.2-0.5,0.5-1.3,0.5-1.8c0-2.6-2.1-4.6-4.8-4.6c-0.8,0-1.6,0.5-2.3,0.8
				C282.8-443.9,281.2-445.3,279-445.3z"/>
			<g id="g7858_3_">
				<path id="path7860_3_" class="st5" d="M282.5-440.8c0,1.9-1.6,3.5-3.5,3.5s-3.5-1.6-3.5-3.5c0-1.9,1.6-3.5,3.5-3.5
					S282.5-442.7,282.5-440.8L282.5-440.8z"/>
				
					<linearGradient id="path7862_1_" gradientUnits="userSpaceOnUse" x1="1061.08" y1="-159.5712" x2="1063.239" y2="-163.002" gradientTransform="matrix(1.0566 0 0 -1.0566 -843.4234 -611.4009)">
					<stop  offset="0" style="stop-color:#FFFFFF"/>
					<stop  offset="1" style="stop-color:#FFFFFF;stop-opacity:0"/>
				</linearGradient>
				<path id="path7862_3_" class="st21" d="M282.5-440.8c0,1.9-1.6,3.5-3.5,3.5s-3.5-1.6-3.5-3.5c0-1.9,1.6-3.5,3.5-3.5
					S282.5-442.7,282.5-440.8L282.5-440.8z"/>
			</g>
			<rect id="rect7864_3_" x="269.5" y="-438.3" class="st5" width="20" height="9"/>
			<path id="path7866_3_" class="st5" d="M272.5-432.3c0,1.7-1.3,3-3,3s-3-1.3-3-3s1.3-3,3-3S272.5-434,272.5-432.3L272.5-432.3z"/>
			<g id="g7868_3_">
				<path id="path7870_3_" class="st5" d="M289.5-437.8c0,1.9-1.6,3.5-3.5,3.5s-3.5-1.6-3.5-3.5c0-1.9,1.6-3.5,3.5-3.5
					S289.5-439.7,289.5-437.8L289.5-437.8z"/>
				
					<linearGradient id="path7872_1_" gradientUnits="userSpaceOnUse" x1="1060.0551" y1="-158.0529" x2="1063.3972" y2="-163.1992" gradientTransform="matrix(1.0566 0 0 -1.0566 -836.4234 -608.4009)">
					<stop  offset="0" style="stop-color:#FFFFFF"/>
					<stop  offset="1" style="stop-color:#FFFFFF;stop-opacity:0"/>
				</linearGradient>
				<path id="path7872_3_" class="st22" d="M289.5-437.8c0,1.9-1.6,3.5-3.5,3.5s-3.5-1.6-3.5-3.5c0-1.9,1.6-3.5,3.5-3.5
					S289.5-439.7,289.5-437.8L289.5-437.8z"/>
			</g>
			<g id="g7874_3_">
				<path id="path7876_3_" class="st5" d="M275.5-437.8c0,1.9-1.6,3.5-3.5,3.5s-3.5-1.6-3.5-3.5c0-1.9,1.6-3.5,3.5-3.5
					S275.5-439.7,275.5-437.8L275.5-437.8z"/>
				
					<linearGradient id="path7878_1_" gradientUnits="userSpaceOnUse" x1="1059.9224" y1="-159.0991" x2="1063.3726" y2="-162.5952" gradientTransform="matrix(1.0566 0 0 -1.0566 -850.4234 -608.4009)">
					<stop  offset="0" style="stop-color:#FFFFFF"/>
					<stop  offset="1" style="stop-color:#FFFFFF;stop-opacity:0"/>
				</linearGradient>
				<path id="path7878_3_" class="st23" d="M275.5-437.8c0,1.9-1.6,3.5-3.5,3.5s-3.5-1.6-3.5-3.5c0-1.9,1.6-3.5,3.5-3.5
					S275.5-439.7,275.5-437.8L275.5-437.8z"/>
			</g>
			<g id="g7880_3_" transform="translate(-1.000000,0.000000)">
				<path id="path7882_3_" class="st5" d="M279-441.3c-3.6,0-6.5,2.9-6.5,6.5c0,2.4,1.3,4.3,3.3,5.5h6.5c1.9-1.1,3.3-3.1,3.3-5.5
					C285.5-438.4,282.5-441.3,279-441.3z"/>
				
					<linearGradient id="path7884_1_" gradientUnits="userSpaceOnUse" x1="1071.0491" y1="-177.3901" x2="1075.0828" y2="-182.5768" gradientTransform="matrix(1 0 0 -1 -795 -616)">
					<stop  offset="0" style="stop-color:#FFFFFF"/>
					<stop  offset="1" style="stop-color:#FFFFFF;stop-opacity:0"/>
				</linearGradient>
				<path id="path7884_3_" class="st24" d="M279-441.3c-3.6,0-6.5,2.9-6.5,6.5c0,2.4,1.3,4.4,3.3,5.5h6.5c1.9-1.1,3.3-3.1,3.3-5.5
					C285.5-438.4,282.6-441.3,279-441.3z"/>
			</g>
			
				<linearGradient id="path7886_1_" gradientUnits="userSpaceOnUse" x1="1109.2048" y1="-208.8332" x2="1112.3047" y2="-211.6097" gradientTransform="matrix(0.9057 0 0 -0.9057 -736.805 -622.9152)">
				<stop  offset="0" style="stop-color:#FFFFFF"/>
				<stop  offset="1" style="stop-color:#FFFFFF;stop-opacity:0"/>
			</linearGradient>
			<path id="path7886_3_" class="st25" d="M272.5-432.3c0,1.7-1.3,3-3,3s-3-1.3-3-3s1.3-3,3-3S272.5-434,272.5-432.3L272.5-432.3z"
				/>
			<path id="path7888_3_" class="st18" d="M291.5-437.6c0,2.7-3.3,3.7-3.3,3.7s2.3-1.6,2.3-3.7H291.5z"/>
			<g id="g7890_3_" transform="matrix(1.142857,0.000000,0.000000,1.142857,-28.57139,67.00008)">
				<path id="path7892_3_" class="st5" d="M275.7-437.7c0,1.9-1.6,3.5-3.5,3.5s-3.5-1.6-3.5-3.5s1.6-3.5,3.5-3.5
					S275.7-439.6,275.7-437.7L275.7-437.7z"/>
				
					<linearGradient id="path7896_1_" gradientUnits="userSpaceOnUse" x1="798.8299" y1="-166.8396" x2="802.9272" y2="-171.2415" gradientTransform="matrix(1.5771 0 0 -1.5771 -991.381 -704.7903)">
					<stop  offset="0" style="stop-color:#FFFFFF"/>
					<stop  offset="1" style="stop-color:#FFFFFF;stop-opacity:0"/>
				</linearGradient>
				<path id="path7896_3_" class="st26" d="M275.7-437.7c0,1.9-1.6,3.5-3.5,3.5s-3.5-1.6-3.5-3.5s1.6-3.5,3.5-3.5
					S275.7-439.6,275.7-437.7L275.7-437.7z"/>
			</g>
		</g>
	</g>
	<g id="g12191_3_" transform="translate(-222.9549,261.0144)">
		<path id="path12193_3_" class="st0" d="M231.8-228.8c-1.2,0-2.1-1-2.1-2.2c0.2-2.5,2-2.8,1.8-5.2
			C233.2-235.6,236-229.3,231.8-228.8z"/>
		
			<radialGradient id="path12195_1_" cx="3414.2185" cy="-2853.2932" r="21.7436" gradientTransform="matrix(8.188726e-02 3.515823e-03 3.392042e-03 -0.1257 -38.0854 -601.7772)" gradientUnits="userSpaceOnUse">
			<stop  offset="0" style="stop-color:#FFFFFF"/>
			<stop  offset="1" style="stop-color:#FFFFFF;stop-opacity:0"/>
		</radialGradient>
		<path id="path12195_3_" class="st27" d="M233.6-231.1c0,1-0.8,1.8-1.8,1.7c-1,0-1.8-0.9-1.7-1.9s2.1-1.6,1.9-3.6
			C232.9-234.8,233.6-232.1,233.6-231.1z"/>
		
			<linearGradient id="path12197_1_" gradientUnits="userSpaceOnUse" x1="3680.9146" y1="2387.8342" x2="3701.4207" y2="2409.3127" gradientTransform="matrix(9.709367e-04 0.116 0.1098 8.855417e-03 -35.9109 -681.3599)">
			<stop  offset="0" style="stop-color:#FFFFFF"/>
			<stop  offset="1" style="stop-color:#FFFFFF;stop-opacity:0"/>
		</linearGradient>
		<path id="path12197_3_" class="st28" d="M232.9-229.7c-4.6,1.2-2-4.3-1-3.9C229.4-230.7,232.9-229.7,232.9-229.7z"/>
	</g>
	<g id="g12239_3_" transform="translate(-193.9565,268.0066)">
		<path id="path12241_3_" class="st0" d="M231.8-228.8c-1.2,0-2.1-1-2.1-2.2c0.2-2.5,2-2.8,1.8-5.2
			C233.2-235.6,236-229.3,231.8-228.8z"/>
		
			<radialGradient id="path12243_1_" cx="3327.2234" cy="-2860.2854" r="21.7436" gradientTransform="matrix(8.188726e-02 3.515823e-03 3.392042e-03 -0.1257 -30.9379 -602.3505)" gradientUnits="userSpaceOnUse">
			<stop  offset="0" style="stop-color:#FFFFFF"/>
			<stop  offset="1" style="stop-color:#FFFFFF;stop-opacity:0"/>
		</radialGradient>
		<path id="path12243_3_" class="st29" d="M233.6-231.1c0,1-0.8,1.8-1.8,1.7c-1,0-1.8-0.9-1.7-1.9s2.1-1.6,1.9-3.6
			C232.9-234.8,233.6-232.1,233.6-231.1z"/>
		
			<linearGradient id="path12245_1_" gradientUnits="userSpaceOnUse" x1="3593.925" y1="2380.8367" x2="3614.4312" y2="2402.3152" gradientTransform="matrix(9.709367e-04 0.116 0.1098 8.855417e-03 -35.0584 -671.2075)">
			<stop  offset="0" style="stop-color:#FFFFFF"/>
			<stop  offset="1" style="stop-color:#FFFFFF;stop-opacity:0"/>
		</linearGradient>
		<path id="path12245_3_" class="st30" d="M232.9-229.7c-4.6,1.2-2-4.3-1-3.9C229.4-230.7,232.9-229.7,232.9-229.7z"/>
	</g>
	<g id="g12186_3_" transform="translate(-224.9550,271.0079)">
		<path id="path6059_3_" class="st0" d="M231.8-228.8c-1.2,0-2.1-1-2.1-2.2c0.2-2.5,2-2.8,1.8-5.2
			C233.2-235.6,236-229.3,231.8-228.8z"/>
		
			<radialGradient id="path6061_1_" cx="3420.219" cy="-2863.2866" r="21.7436" gradientTransform="matrix(8.188726e-02 3.515823e-03 3.392042e-03 -0.1257 -38.5428 -603.0547)" gradientUnits="userSpaceOnUse">
			<stop  offset="0" style="stop-color:#FFFFFF"/>
			<stop  offset="1" style="stop-color:#FFFFFF;stop-opacity:0"/>
		</radialGradient>
		<path id="path6061_3_" class="st31" d="M233.6-231.1c0,1-0.8,1.8-1.8,1.7c-1,0-1.8-0.9-1.7-1.9s2.1-1.6,1.9-3.6
			C232.9-234.8,233.6-232.1,233.6-231.1z"/>
		
			<linearGradient id="path6063_1_" gradientUnits="userSpaceOnUse" x1="3686.9155" y1="2377.8403" x2="3707.4216" y2="2399.3186" gradientTransform="matrix(9.709367e-04 0.116 0.1098 8.855417e-03 -34.8192 -681.9672)">
			<stop  offset="0" style="stop-color:#FFFFFF"/>
			<stop  offset="1" style="stop-color:#FFFFFF;stop-opacity:0"/>
		</linearGradient>
		<path id="path6063_3_" class="st32" d="M232.9-229.7c-4.6,1.2-2-4.3-1-3.9C229.4-230.7,232.9-229.7,232.9-229.7z"/>
	</g>
	<g id="g12203_3_" transform="translate(-214.9565,266.0066)">
		<path id="path12205_3_" class="st0" d="M231.8-228.8c-1.2,0-2.1-1-2.1-2.2c0.2-2.5,2-2.8,1.8-5.2
			C233.2-235.6,236-229.3,231.8-228.8z"/>
		
			<radialGradient id="path12207_1_" cx="3390.2234" cy="-2858.2854" r="21.7436" gradientTransform="matrix(8.188726e-02 3.515823e-03 3.392042e-03 -0.1257 -36.1035 -602.3205)" gradientUnits="userSpaceOnUse">
			<stop  offset="0" style="stop-color:#FFFFFF"/>
			<stop  offset="1" style="stop-color:#FFFFFF;stop-opacity:0"/>
		</radialGradient>
		<path id="path12207_3_" class="st33" d="M233.6-231.1c0,1-0.8,1.8-1.8,1.7c-1,0-1.8-0.9-1.7-1.9s2.1-1.6,1.9-3.6
			C232.9-234.8,233.6-232.1,233.6-231.1z"/>
		
			<linearGradient id="path12209_1_" gradientUnits="userSpaceOnUse" x1="3656.9211" y1="2382.8403" x2="3677.4272" y2="2404.3188" gradientTransform="matrix(9.709367e-04 0.116 0.1098 8.855417e-03 -35.3393 -678.5324)">
			<stop  offset="0" style="stop-color:#FFFFFF"/>
			<stop  offset="1" style="stop-color:#FFFFFF;stop-opacity:0"/>
		</linearGradient>
		<path id="path12209_3_" class="st34" d="M232.9-229.7c-4.6,1.2-2-4.3-1-3.9C229.4-230.7,232.9-229.7,232.9-229.7z"/>
	</g>
	<g id="g12215_3_" transform="translate(-200.9565,261.0144)">
		<path id="path12217_3_" class="st0" d="M231.8-228.8c-1.2,0-2.1-1-2.1-2.2c0.2-2.5,2-2.8,1.8-5.2
			C233.2-235.6,236-229.3,231.8-228.8z"/>
		
			<radialGradient id="path12219_1_" cx="3348.2234" cy="-2853.2932" r="21.7436" gradientTransform="matrix(8.188726e-02 3.515823e-03 3.392042e-03 -0.1257 -32.6812 -601.5453)" gradientUnits="userSpaceOnUse">
			<stop  offset="0" style="stop-color:#FFFFFF"/>
			<stop  offset="1" style="stop-color:#FFFFFF;stop-opacity:0"/>
		</radialGradient>
		<path id="path12219_3_" class="st35" d="M233.6-231.1c0,1-0.8,1.8-1.8,1.7c-1,0-1.8-0.9-1.7-1.9s2.1-1.6,1.9-3.6
			C232.9-234.8,233.6-232.1,233.6-231.1z"/>
		
			<linearGradient id="path12221_1_" gradientUnits="userSpaceOnUse" x1="3614.9226" y1="2387.8313" x2="3635.4287" y2="2409.3098" gradientTransform="matrix(9.709367e-04 0.116 0.1098 8.855417e-03 -35.8469 -673.7051)">
			<stop  offset="0" style="stop-color:#FFFFFF"/>
			<stop  offset="1" style="stop-color:#FFFFFF;stop-opacity:0"/>
		</linearGradient>
		<path id="path12221_3_" class="st36" d="M232.9-229.7c-4.6,1.2-2-4.3-1-3.9C229.4-230.7,232.9-229.7,232.9-229.7z"/>
	</g>
</g>
</svg>
