<?xml version="1.0" encoding="utf-8"?>
<!-- Generator: Adobe Illustrator 24.0.1, SVG Export Plug-In . SVG Version: 6.00 Build 0)  -->
<svg version="1.1"
	 id="svg1306" xmlns:cc="http://creativecommons.org/ns#" xmlns:dc="http://purl.org/dc/elements/1.1/" xmlns:inkscape="http://www.inkscape.org/namespaces/inkscape" xmlns:rdf="http://www.w3.org/1999/02/22-rdf-syntax-ns#" xmlns:sodipodi="http://sodipodi.sourceforge.net/DTD/sodipodi-0.dtd" xmlns:svg="http://www.w3.org/2000/svg"
	 xmlns="http://www.w3.org/2000/svg" xmlns:xlink="http://www.w3.org/1999/xlink" x="0px" y="0px" viewBox="0 0 45 45"
	 style="enable-background:new 0 0 45 45;" xml:space="preserve">
<style type="text/css">
	.st0{fill:#888A85;}
	.st1{fill:url(#path8720_2_);}
	.st2{fill:#C4C5C2;}
	.st3{fill:url(#path8728_2_);}
	.st4{fill:url(#path8734_2_);}
	.st5{fill:url(#path8740_2_);}
	.st6{fill:url(#path8746_2_);}
	.st7{fill:url(#path8752_2_);}
	.st8{fill:#C4C5C2;stroke:#888A85;stroke-miterlimit:2;}
	.st9{fill:url(#path8802_2_);}
	.st10{fill:url(#path8808_2_);}
	.st11{fill:url(#path8818_2_);}
	.st12{fill:url(#path8824_2_);}
	.st13{fill:url(#path8830_2_);}
	.st14{fill:url(#path8832_2_);}
	.st15{fill-rule:evenodd;clip-rule:evenodd;fill:#888A85;}
	.st16{fill:url(#path8840_2_);}
	.st17{fill:url(#path8758_2_);}
	.st18{fill:url(#path8764_2_);}
	.st19{fill:url(#path8774_2_);}
	.st20{fill:url(#path8780_2_);}
	.st21{fill:url(#path8786_2_);}
	.st22{fill:url(#path8788_2_);}
	.st23{fill:url(#path8796_2_);}
	.st24{fill:#FFFFFF;stroke:#729FCF;stroke-miterlimit:10;}
	.st25{fill:#FFFFFF;stroke:#729FCF;stroke-width:1.4748;stroke-miterlimit:1;}
	.st26{fill:#FFFFFF;stroke:#729FCF;stroke-width:1.4678;stroke-miterlimit:1;}
	.st27{fill:#FFFFFF;stroke:#729FCF;stroke-width:1.4641;stroke-miterlimit:1;}
</style>
<g id="layer1_24_">
	<g id="g9947_1_" transform="translate(-340.0455,298.0001)">
		<path id="path8718_1_" class="st0" d="M363-294.3c-2.8,0-5.1,1.6-6.4,3.8c-0.9-0.5-2-0.8-3.1-0.8c-3.9,0-7,3.1-7,7s3.1,7,7,7
			c2.4,0,4.4-1.3,5.7-3.2c1.1,0.7,2.4,1.2,3.8,1.2c0.9,0,1.8-0.2,2.6-0.5c0.5,0.9,1.2,1.6,2,2.2c0,0.1-0.1,0.2-0.1,0.4
			c0,3.9,3.1,7,7,7s7-3.1,7-7c0-2.4-1.3-4.4-3.1-5.6c0-0.1,0.1-0.2,0.1-0.4c0-3.9-3.1-7-7-7c-0.6,0-1.2,0.2-1.8,0.4
			C368.6-292.5,366-294.3,363-294.3z"/>
		
			<linearGradient id="path8720_2_" gradientUnits="userSpaceOnUse" x1="1247.0891" y1="-67.6561" x2="1297.5017" y2="-84.5825" gradientTransform="matrix(1 0 0 -1 -898.1135 -356.0001)">
			<stop  offset="0" style="stop-color:#FFFFFF"/>
			<stop  offset="1" style="stop-color:#FFFFFF;stop-opacity:0"/>
		</linearGradient>
		<path id="path8720_1_" class="st1" d="M363-293.3c-2.8,0-5.1,1.8-6.1,4.2c-1-0.7-2.1-1.2-3.4-1.2c-3.3,0-6,2.7-6,6s2.7,6,6,6
			c2.4,0,4.5-1.5,5.4-3.5c1.1,0.9,2.5,1.5,4.1,1.5c1.1,0,2-0.3,2.9-0.8c0.4,1,1.1,1.8,1.9,2.4c-0.2,0.6-0.4,1.2-0.4,1.8
			c0,3.6,2.9,6.5,6.5,6.5s6.5-2.9,6.5-6.5c0-2.4-1.3-4.3-3.2-5.5c0.1-0.3,0.2-0.7,0.2-1c0-3.3-2.7-6-6-6c-0.9,0-1.7,0.2-2.4,0.5
			C368.3-291.4,365.9-293.3,363-293.3z"/>
		<path id="path8722_1_" class="st2" d="M380.5-276.8c0,3.6-2.9,6.5-6.5,6.5s-6.5-2.9-6.5-6.5l0,0c0-3.6,2.9-6.5,6.5-6.5
			S380.5-280.4,380.5-276.8L380.5-276.8z"/>
		<g id="g8724_1_" transform="translate(122.0230,102.0000)">
			<path id="path8726_1_" class="st2" d="M246.5-388.8c0,3-2.5,5.5-5.5,5.5s-5.5-2.5-5.5-5.5s2.5-5.5,5.5-5.5
				S246.5-391.8,246.5-388.8z"/>
			
				<linearGradient id="path8728_2_" gradientUnits="userSpaceOnUse" x1="933.4186" y1="-210.4218" x2="939.1718" y2="-215.2787" gradientTransform="matrix(0.8826 0 0 -0.8826 -586.6141 -577.6658)">
				<stop  offset="0" style="stop-color:#FFFFFF"/>
				<stop  offset="1" style="stop-color:#FFFFFF;stop-opacity:0"/>
			</linearGradient>
			<path id="path8728_1_" class="st3" d="M246.5-388.8c0,3-2.5,5.5-5.5,5.5s-5.5-2.5-5.5-5.5s2.5-5.5,5.5-5.5
				S246.5-391.8,246.5-388.8z"/>
		</g>
		<g id="g8730_1_" transform="translate(122.0230,102.0000)">
			<path id="path8732_1_" class="st2" d="M254.5-384.8c0,3-2.5,5.5-5.5,5.5s-5.5-2.5-5.5-5.5l0,0c0-3,2.5-5.5,5.5-5.5
				S254.5-387.8,254.5-384.8z"/>
			
				<linearGradient id="path8734_2_" gradientUnits="userSpaceOnUse" x1="928.7805" y1="-201.2405" x2="934.7379" y2="-207.2027" gradientTransform="matrix(0.9117 0 0 -0.9117 -602.3238 -572.7867)">
				<stop  offset="0" style="stop-color:#FFFFFF"/>
				<stop  offset="1" style="stop-color:#FFFFFF;stop-opacity:0"/>
			</linearGradient>
			<path id="path8734_1_" class="st4" d="M254.5-384.8c0,3-2.5,5.5-5.5,5.5s-5.5-2.5-5.5-5.5l0,0c0-3,2.5-5.5,5.5-5.5
				S254.5-387.8,254.5-384.8z"/>
		</g>
		<g id="g8736_1_" transform="translate(122.0230,102.0000)">
			<path id="path8738_1_" class="st2" d="M236.5-386.3c0,2.8-2.2,5-5,5s-5-2.2-5-5s2.2-5,5-5S236.5-389.1,236.5-386.3L236.5-386.3z"
				/>
			
				<linearGradient id="path8740_2_" gradientUnits="userSpaceOnUse" x1="844.5288" y1="-132.5533" x2="848.9093" y2="-136.0338" gradientTransform="matrix(1.1428 0 0 -1.1428 -736.8251 -540.28)">
				<stop  offset="0" style="stop-color:#FFFFFF"/>
				<stop  offset="1" style="stop-color:#FFFFFF;stop-opacity:0"/>
			</linearGradient>
			<path id="path8740_1_" class="st5" d="M236.5-386.3c0,2.8-2.2,5-5,5s-5-2.2-5-5s2.2-5,5-5S236.5-389.1,236.5-386.3L236.5-386.3z"
				/>
		</g>
		<g id="g8742_1_" transform="translate(122.0230,102.0000)">
			<path id="path8744_1_" class="st2" d="M247.5-382.3c0,3.9-3.1,7-7,7s-7-3.1-7-7l0,0c0-3.9,3.1-7,7-7S247.5-386.2,247.5-382.3
				L247.5-382.3z"/>
			
				<linearGradient id="path8746_2_" gradientUnits="userSpaceOnUse" x1="878.1664" y1="-162.852" x2="885.8162" y2="-168.6814" gradientTransform="matrix(1.0386 0 0 -1.0386 -676.465 -555.1305)">
				<stop  offset="0" style="stop-color:#FFFFFF"/>
				<stop  offset="1" style="stop-color:#FFFFFF;stop-opacity:0"/>
			</linearGradient>
			<path id="path8746_1_" class="st6" d="M247.5-382.3c0,3.9-3.1,7-7,7s-7-3.1-7-7l0,0c0-3.9,3.1-7,7-7S247.5-386.2,247.5-382.3
				L247.5-382.3z"/>
		</g>
		<g id="g8748_1_" transform="matrix(0.935028,0.000000,0.000000,0.935028,499.8484,-187.6162)">
			<path id="path8750_1_" class="st2" d="M-154.8-96.5c0,3-2.4,5.4-5.4,5.4s-5.4-2.4-5.4-5.4s2.4-5.4,5.4-5.4
				S-154.8-99.5-154.8-96.5z"/>
			
				<linearGradient id="path8752_2_" gradientUnits="userSpaceOnUse" x1="-864.685" y1="-66.6543" x2="-861.4927" y2="-70.644" gradientTransform="matrix(1.4205 0 0 -1.4205 1064.2563 -196.0796)">
				<stop  offset="0" style="stop-color:#FFFFFF"/>
				<stop  offset="1" style="stop-color:#FFFFFF;stop-opacity:0"/>
			</linearGradient>
			<path id="path8752_1_" class="st7" d="M-154.7-96.5c0,3-2.4,5.4-5.4,5.4s-5.4-2.4-5.4-5.4s2.4-5.4,5.4-5.4
				C-157.2-102-154.7-99.5-154.7-96.5z"/>
		</g>
		<g id="g8798_1_" transform="translate(91.02300,162.0000)">
			<path id="path8800_1_" class="st8" d="M279-443.8c-2.3,0-4.1,1.6-4.7,3.6c-0.7-0.4-1.4-0.6-2.3-0.6c-2.8,0-5,2.2-5,5
				c0,0.6,0.2,1.1,0.3,1.6c-1.4,0.8-2.3,2.2-2.3,3.9c0,2.5,2,4.5,4.5,4.5c0.2,0,18.8,0,19,0c2.5,0,4.5-2,4.5-4.5
				c0-1.7-1-3.1-2.3-3.9c0.2-0.5,0.3-1,0.3-1.6c0-2.8-2.2-5-5-5c-0.8,0-1.6,0.3-2.3,0.6C283.1-442.2,281.3-443.8,279-443.8z"/>
			
				<linearGradient id="path8802_2_" gradientUnits="userSpaceOnUse" x1="1016.2846" y1="-181.1972" x2="1030.2915" y2="-190.2791" gradientTransform="matrix(1 0 0 -1 -747.0675 -620.0001)">
				<stop  offset="0" style="stop-color:#FFFFFF"/>
				<stop  offset="1" style="stop-color:#FFFFFF;stop-opacity:0"/>
			</linearGradient>
			<path id="path8802_1_" class="st9" d="M279-443.3c-2.2,0-3.7,1.3-4.4,3.8c-0.7-0.3-1.5-0.8-2.4-0.8c-2.7,0-4.8,1.9-4.8,4.5
				c0,0.5,0.3,1.3,0.4,1.8c-1.3,0.7-2.4,1.9-2.4,3.4c0,2.3,1.5,4.3,4.3,4.3c0.2,0,18.2,0,18.3,0c2.8,0,4.3-1.9,4.3-4.3
				c0-1.6-1.1-2.7-2.4-3.4c0.2-0.5,0.5-1.3,0.5-1.8c0-2.6-2.1-4.6-4.8-4.6c-0.8,0-1.6,0.5-2.3,0.8
				C282.8-441.9,281.2-443.3,279-443.3z"/>
			<g id="g8804_1_">
				<path id="path8806_1_" class="st2" d="M282.5-438.8c0,1.9-1.6,3.5-3.5,3.5s-3.5-1.6-3.5-3.5s1.6-3.5,3.5-3.5
					S282.5-440.7,282.5-438.8L282.5-438.8z"/>
				
					<linearGradient id="path8808_2_" gradientUnits="userSpaceOnUse" x1="1016.1541" y1="-165.4715" x2="1018.3132" y2="-168.9024" gradientTransform="matrix(1.0566 0 0 -1.0566 -795.9477 -615.6274)">
					<stop  offset="0" style="stop-color:#FFFFFF"/>
					<stop  offset="1" style="stop-color:#FFFFFF;stop-opacity:0"/>
				</linearGradient>
				<path id="path8808_1_" class="st10" d="M282.5-438.8c0,1.9-1.6,3.5-3.5,3.5s-3.5-1.6-3.5-3.5s1.6-3.5,3.5-3.5
					S282.5-440.7,282.5-438.8L282.5-438.8z"/>
			</g>
			<rect id="rect8810_1_" x="269.5" y="-436.3" class="st2" width="20" height="9"/>
			<path id="path8812_1_" class="st2" d="M272.5-430.3c0,1.7-1.3,3-3,3s-3-1.3-3-3s1.3-3,3-3S272.5-432,272.5-430.3L272.5-430.3z"/>
			<g id="g8814_1_">
				<path id="path8816_1_" class="st2" d="M289.5-435.8c0,1.9-1.6,3.5-3.5,3.5s-3.5-1.6-3.5-3.5s1.6-3.5,3.5-3.5
					S289.5-437.7,289.5-435.8L289.5-435.8z"/>
				
					<linearGradient id="path8818_2_" gradientUnits="userSpaceOnUse" x1="1015.1295" y1="-163.9534" x2="1018.4716" y2="-169.0997" gradientTransform="matrix(1.0566 0 0 -1.0566 -788.9477 -612.6274)">
					<stop  offset="0" style="stop-color:#FFFFFF"/>
					<stop  offset="1" style="stop-color:#FFFFFF;stop-opacity:0"/>
				</linearGradient>
				<path id="path8818_1_" class="st11" d="M289.5-435.8c0,1.9-1.6,3.5-3.5,3.5s-3.5-1.6-3.5-3.5s1.6-3.5,3.5-3.5
					S289.5-437.7,289.5-435.8L289.5-435.8z"/>
			</g>
			<g id="g8820_1_">
				<path id="path8822_1_" class="st2" d="M275.5-435.8c0,1.9-1.6,3.5-3.5,3.5s-3.5-1.6-3.5-3.5s1.6-3.5,3.5-3.5
					S275.5-437.7,275.5-435.8L275.5-435.8z"/>
				
					<linearGradient id="path8824_2_" gradientUnits="userSpaceOnUse" x1="1015.0013" y1="-165.0007" x2="1018.4518" y2="-168.4968" gradientTransform="matrix(1.0566 0 0 -1.0566 -802.9477 -612.6274)">
					<stop  offset="0" style="stop-color:#FFFFFF"/>
					<stop  offset="1" style="stop-color:#FFFFFF;stop-opacity:0"/>
				</linearGradient>
				<path id="path8824_1_" class="st12" d="M275.5-435.8c0,1.9-1.6,3.5-3.5,3.5s-3.5-1.6-3.5-3.5s1.6-3.5,3.5-3.5
					S275.5-437.7,275.5-435.8L275.5-435.8z"/>
			</g>
			<g id="g8826_1_" transform="translate(-1.000000,0.000000)">
				<path id="path8828_1_" class="st2" d="M279-439.3c-3.6,0-6.5,2.9-6.5,6.5c0,2.4,1.3,4.3,3.3,5.5h6.5c1.9-1.1,3.3-3.1,3.3-5.5
					C285.5-436.4,282.5-439.3,279-439.3z"/>
				
					<linearGradient id="path8830_2_" gradientUnits="userSpaceOnUse" x1="1026.1262" y1="-183.3989" x2="1030.1597" y2="-188.5856" gradientTransform="matrix(1 0 0 -1 -750.0675 -620.0001)">
					<stop  offset="0" style="stop-color:#FFFFFF"/>
					<stop  offset="1" style="stop-color:#FFFFFF;stop-opacity:0"/>
				</linearGradient>
				<path id="path8830_1_" class="st13" d="M279-439.3c-3.6,0-6.5,2.9-6.5,6.5c0,2.4,1.3,4.4,3.3,5.5h6.5c1.9-1.1,3.3-3.1,3.3-5.5
					C285.5-436.4,282.6-439.3,279-439.3z"/>
			</g>
			
				<linearGradient id="path8832_2_" gradientUnits="userSpaceOnUse" x1="1064.2881" y1="-215.051" x2="1067.3878" y2="-217.8275" gradientTransform="matrix(0.9057 0 0 -0.9057 -696.1102 -626.5379)">
				<stop  offset="0" style="stop-color:#FFFFFF"/>
				<stop  offset="1" style="stop-color:#FFFFFF;stop-opacity:0"/>
			</linearGradient>
			<path id="path8832_1_" class="st14" d="M272.5-430.3c0,1.7-1.3,3-3,3s-3-1.3-3-3s1.3-3,3-3S272.5-432,272.5-430.3L272.5-430.3z"
				/>
			<path id="path8834_1_" class="st15" d="M291.5-435.6c0,2.7-3.3,3.7-3.3,3.7s2.3-1.6,2.3-3.7H291.5z"/>
			<g id="g8836_1_" transform="matrix(1.142857,0.000000,0.000000,1.142857,-28.57139,67.00008)">
				<path id="path8838_1_" class="st2" d="M275.7-436c0,1.9-1.6,3.5-3.5,3.5s-3.5-1.6-3.5-3.5s1.6-3.5,3.5-3.5
					S275.7-437.9,275.7-436L275.7-436z"/>
				
					<linearGradient id="path8840_2_" gradientUnits="userSpaceOnUse" x1="764.2615" y1="-171.0422" x2="768.3588" y2="-175.4441" gradientTransform="matrix(1.5771 0 0 -1.5771 -936.8015 -709.7068)">
					<stop  offset="0" style="stop-color:#FFFFFF"/>
					<stop  offset="1" style="stop-color:#FFFFFF;stop-opacity:0"/>
				</linearGradient>
				<path id="path8840_1_" class="st16" d="M275.7-436c0,1.9-1.6,3.5-3.5,3.5s-3.5-1.6-3.5-3.5s1.6-3.5,3.5-3.5
					S275.7-437.9,275.7-436L275.7-436z"/>
			</g>
		</g>
		<g id="g8754_1_" transform="translate(76.02041,158.0000)">
			<path id="path8756_1_" class="st8" d="M279-443.8c-2.3,0-4.1,1.6-4.7,3.6c-0.7-0.4-1.4-0.6-2.3-0.6c-2.8,0-5,2.2-5,5
				c0,0.6,0.2,1.1,0.3,1.6c-1.4,0.8-2.3,2.2-2.3,3.9c0,2.5,2,4.5,4.5,4.5c0.2,0,18.8,0,19,0c2.5,0,4.5-2,4.5-4.5
				c0-1.7-1-3.1-2.3-3.9c0.2-0.5,0.3-1,0.3-1.6c0-2.8-2.2-5-5-5c-0.8,0-1.6,0.3-2.3,0.6C283.1-442.2,281.3-443.8,279-443.8z"/>
			
				<linearGradient id="path8758_2_" gradientUnits="userSpaceOnUse" x1="1061.2924" y1="-177.1973" x2="1075.2993" y2="-186.2791" gradientTransform="matrix(1 0 0 -1 -792.0753 -616.0001)">
				<stop  offset="0" style="stop-color:#FFFFFF"/>
				<stop  offset="1" style="stop-color:#FFFFFF;stop-opacity:0"/>
			</linearGradient>
			<path id="path8758_1_" class="st17" d="M279-443.3c-2.2,0-3.7,1.3-4.4,3.8c-0.7-0.3-1.5-0.8-2.4-0.8c-2.7,0-4.8,1.9-4.8,4.5
				c0,0.5,0.3,1.3,0.4,1.8c-1.3,0.7-2.4,1.9-2.4,3.4c0,2.3,1.5,4.3,4.3,4.3c0.2,0,18.2,0,18.3,0c2.8,0,4.3-1.9,4.3-4.3
				c0-1.6-1.1-2.7-2.4-3.4c0.2-0.5,0.5-1.3,0.5-1.8c0-2.6-2.1-4.6-4.8-4.6c-0.8,0-1.6,0.5-2.3,0.8
				C282.8-441.9,281.2-443.3,279-443.3z"/>
			<g id="g8760_1_">
				<path id="path8762_1_" class="st2" d="M282.5-438.8c0,1.9-1.6,3.5-3.5,3.5s-3.5-1.6-3.5-3.5s1.6-3.5,3.5-3.5
					S282.5-440.7,282.5-438.8L282.5-438.8z"/>
				
					<linearGradient id="path8764_2_" gradientUnits="userSpaceOnUse" x1="1061.162" y1="-161.4713" x2="1063.3209" y2="-164.9023" gradientTransform="matrix(1.0566 0 0 -1.0566 -843.503 -611.401)">
					<stop  offset="0" style="stop-color:#FFFFFF"/>
					<stop  offset="1" style="stop-color:#FFFFFF;stop-opacity:0"/>
				</linearGradient>
				<path id="path8764_1_" class="st18" d="M282.5-438.8c0,1.9-1.6,3.5-3.5,3.5s-3.5-1.6-3.5-3.5s1.6-3.5,3.5-3.5
					S282.5-440.7,282.5-438.8L282.5-438.8z"/>
			</g>
			<rect id="rect8766_1_" x="269.5" y="-436.3" class="st2" width="20" height="9"/>
			<path id="path8768_1_" class="st2" d="M272.5-430.3c0,1.7-1.3,3-3,3s-3-1.3-3-3s1.3-3,3-3S272.5-432,272.5-430.3L272.5-430.3z"/>
			<g id="g8770_1_">
				<path id="path8772_1_" class="st2" d="M289.5-435.8c0,1.9-1.6,3.5-3.5,3.5s-3.5-1.6-3.5-3.5s1.6-3.5,3.5-3.5
					S289.5-437.7,289.5-435.8L289.5-435.8z"/>
				
					<linearGradient id="path8774_2_" gradientUnits="userSpaceOnUse" x1="1060.1376" y1="-159.9533" x2="1063.4794" y2="-165.0996" gradientTransform="matrix(1.0566 0 0 -1.0566 -836.503 -608.401)">
					<stop  offset="0" style="stop-color:#FFFFFF"/>
					<stop  offset="1" style="stop-color:#FFFFFF;stop-opacity:0"/>
				</linearGradient>
				<path id="path8774_1_" class="st19" d="M289.5-435.8c0,1.9-1.6,3.5-3.5,3.5s-3.5-1.6-3.5-3.5s1.6-3.5,3.5-3.5
					S289.5-437.7,289.5-435.8L289.5-435.8z"/>
			</g>
			<g id="g8776_1_">
				<path id="path8778_1_" class="st2" d="M275.5-435.8c0,1.9-1.6,3.5-3.5,3.5s-3.5-1.6-3.5-3.5s1.6-3.5,3.5-3.5
					S275.5-437.7,275.5-435.8L275.5-435.8z"/>
				
					<linearGradient id="path8780_2_" gradientUnits="userSpaceOnUse" x1="1060.0093" y1="-161.0006" x2="1063.4596" y2="-164.4967" gradientTransform="matrix(1.0566 0 0 -1.0566 -850.503 -608.401)">
					<stop  offset="0" style="stop-color:#FFFFFF"/>
					<stop  offset="1" style="stop-color:#FFFFFF;stop-opacity:0"/>
				</linearGradient>
				<path id="path8780_1_" class="st20" d="M275.5-435.8c0,1.9-1.6,3.5-3.5,3.5s-3.5-1.6-3.5-3.5s1.6-3.5,3.5-3.5
					S275.5-437.7,275.5-435.8L275.5-435.8z"/>
			</g>
			<g id="g8782_1_" transform="translate(-1.000000,0.000000)">
				<path id="path8784_1_" class="st2" d="M279-439.3c-3.6,0-6.5,2.9-6.5,6.5c0,2.4,1.3,4.3,3.3,5.5h6.5c1.9-1.1,3.3-3.1,3.3-5.5
					C285.5-436.4,282.5-439.3,279-439.3z"/>
				
					<linearGradient id="path8786_2_" gradientUnits="userSpaceOnUse" x1="1071.1338" y1="-179.3989" x2="1075.1675" y2="-184.5856" gradientTransform="matrix(1 0 0 -1 -795.0753 -616.0001)">
					<stop  offset="0" style="stop-color:#FFFFFF"/>
					<stop  offset="1" style="stop-color:#FFFFFF;stop-opacity:0"/>
				</linearGradient>
				<path id="path8786_1_" class="st21" d="M279-439.3c-3.6,0-6.5,2.9-6.5,6.5c0,2.4,1.3,4.4,3.3,5.5h6.5c1.9-1.1,3.3-3.1,3.3-5.5
					C285.5-436.4,282.6-439.3,279-439.3z"/>
			</g>
			
				<linearGradient id="path8788_2_" gradientUnits="userSpaceOnUse" x1="1109.2954" y1="-211.0516" x2="1112.3953" y2="-213.828" gradientTransform="matrix(0.9057 0 0 -0.9057 -736.8731 -622.9153)">
				<stop  offset="0" style="stop-color:#FFFFFF"/>
				<stop  offset="1" style="stop-color:#FFFFFF;stop-opacity:0"/>
			</linearGradient>
			<path id="path8788_1_" class="st22" d="M272.5-430.3c0,1.7-1.3,3-3,3s-3-1.3-3-3s1.3-3,3-3S272.5-432,272.5-430.3L272.5-430.3z"
				/>
			<path id="path8790_1_" class="st15" d="M291.5-435.6c0,2.7-3.3,3.7-3.3,3.7s2.3-1.6,2.3-3.7H291.5z"/>
			<g id="g8792_1_" transform="matrix(1.142857,0.000000,0.000000,1.142857,-28.57139,67.00008)">
				<path id="path8794_1_" class="st2" d="M275.7-436c0,1.9-1.6,3.5-3.5,3.5s-3.5-1.6-3.5-3.5s1.6-3.5,3.5-3.5
					S275.7-437.9,275.7-436L275.7-436z"/>
				
					<linearGradient id="path8796_2_" gradientUnits="userSpaceOnUse" x1="798.926" y1="-167.9248" x2="803.0233" y2="-172.3267" gradientTransform="matrix(1.5771 0 0 -1.5771 -991.4725 -704.7904)">
					<stop  offset="0" style="stop-color:#FFFFFF"/>
					<stop  offset="1" style="stop-color:#FFFFFF;stop-opacity:0"/>
				</linearGradient>
				<path id="path8796_1_" class="st23" d="M275.7-436c0,1.9-1.6,3.5-3.5,3.5s-3.5-1.6-3.5-3.5s1.6-3.5,3.5-3.5
					S275.7-437.9,275.7-436L275.7-436z"/>
			</g>
		</g>
	</g>
	<g id="g12157_1_" transform="translate(-163.0077,222.0147)">
		<path id="path12159_1_" class="st24" d="M174-190.3c0,0.8-0.7,1.5-1.5,1.5s-1.5-0.7-1.5-1.5s0.7-1.5,1.5-1.5S174-191.1,174-190.3z
			"/>
		<path id="path12159_4_" class="st24" d="M186-184.3c0,0.8-0.7,1.5-1.5,1.5s-1.5-0.7-1.5-1.5s0.7-1.5,1.5-1.5S186-185.1,186-184.3z
			"/>
		<path id="path12163_1_" class="st25" d="M195-188.3c0,0.8-0.7,1.5-1.5,1.5s-1.5-0.7-1.5-1.5s0.7-1.5,1.5-1.5S195-189.1,195-188.3z
			"/>
		<path id="path12165_1_" class="st26" d="M201-183.3c0,0.8-0.7,1.5-1.5,1.5s-1.5-0.7-1.5-1.5s0.7-1.5,1.5-1.5S201-184.1,201-183.3z
			"/>
		<path id="path12171_1_" class="st27" d="M177-183.3c0,0.8-0.7,1.5-1.5,1.5s-1.5-0.7-1.5-1.5s0.7-1.5,1.5-1.5S177-184.1,177-183.3z
			"/>
	</g>
</g>
</svg>
