<?xml version="1.0" encoding="utf-8"?>
<!-- Generator: Adobe Illustrator 24.0.1, SVG Export Plug-In . SVG Version: 6.00 Build 0)  -->
<svg version="1.1"
	 id="svg1306" xmlns:cc="http://creativecommons.org/ns#" xmlns:dc="http://purl.org/dc/elements/1.1/" xmlns:inkscape="http://www.inkscape.org/namespaces/inkscape" xmlns:rdf="http://www.w3.org/1999/02/22-rdf-syntax-ns#" xmlns:sodipodi="http://sodipodi.sourceforge.net/DTD/sodipodi-0.dtd" xmlns:svg="http://www.w3.org/2000/svg"
	 xmlns="http://www.w3.org/2000/svg" xmlns:xlink="http://www.w3.org/1999/xlink" x="0px" y="0px" viewBox="0 0 45 45"
	 style="enable-background:new 0 0 45 45;" xml:space="preserve">
<style type="text/css">
	.st0{fill:#EAECE8;}
	.st1{opacity:0.1056;fill-rule:evenodd;clip-rule:evenodd;fill:#787974;enable-background:new    ;}
	.st2{opacity:0.1889;fill-rule:evenodd;clip-rule:evenodd;fill:#787974;enable-background:new    ;}
	.st3{opacity:0.1833;fill-rule:evenodd;clip-rule:evenodd;fill:#787974;enable-background:new    ;}
	.st4{opacity:0.4722;fill-rule:evenodd;clip-rule:evenodd;fill:#F3F4F2;enable-background:new    ;}
	.st5{opacity:0.1167;fill-rule:evenodd;clip-rule:evenodd;fill:#787974;enable-background:new    ;}
	.st6{fill:none;stroke:#000000;stroke-width:0.9987;stroke-miterlimit:3.9896;}
	.st7{opacity:0.2;fill-rule:evenodd;clip-rule:evenodd;fill:#938F8B;enable-background:new    ;}
	.st8{opacity:0.2889;fill-rule:evenodd;clip-rule:evenodd;fill:#938F8B;enable-background:new    ;}
	.st9{opacity:0.1778;fill-rule:evenodd;clip-rule:evenodd;fill:url(#path5359_2_);enable-background:new    ;}
	.st10{opacity:0.6167;fill:#FFFFFF;enable-background:new    ;}
	.st11{opacity:0.5444;fill:#FFFFFF;enable-background:new    ;}
	.st12{opacity:0.5444;fill:#C2C3BE;enable-background:new    ;}
	.st13{opacity:0.5667;fill:#C2C3BE;enable-background:new    ;}
	.st14{fill-rule:evenodd;clip-rule:evenodd;fill:#FFFFFF;}
	.st15{opacity:0.3167;}
	.st16{fill:#A3A4A0;}
	.st17{fill:#FFFFFF;}
	.st18{fill:none;stroke:#888A85;stroke-width:0.9987;stroke-miterlimit:5.5315;}
	.st19{fill:none;stroke:#FFFFFF;stroke-width:0.9987;stroke-linecap:square;stroke-miterlimit:5.2502;}
	.st20{fill:#C4C5C2;stroke:#888A85;stroke-miterlimit:2;}
	.st21{fill:url(#path6960_2_);}
	.st22{fill:#C4C5C2;}
	.st23{fill:url(#path6966_2_);}
	.st24{fill:url(#path6976_2_);}
	.st25{fill:url(#path6982_2_);}
	.st26{fill:url(#path6988_2_);}
	.st27{fill:url(#path6990_2_);}
	.st28{fill-rule:evenodd;clip-rule:evenodd;fill:#888A85;}
	.st29{fill:url(#path6998_2_);}
</style>
<g id="layer1_12_">
	<g id="g5441_1_" transform="matrix(0.998698,0.000000,0.000000,0.998698,-342.5410,469.4118)">
		<path id="path5439_1_" class="st0" d="M381.3-448.2c0,10.2-8.3,18.3-18.3,18.3c-10.2,0-18.3-8.3-18.3-18.3l0,0
			c0-10.2,8.3-18.3,18.3-18.3C373.1-466.5,381.3-458.4,381.3-448.2L381.3-448.2z"/>
		<g id="g5405_1_" transform="translate(37.12500,-1.625000)">
			<path id="path5342_1_" class="st1" d="M317.6-462.4c0,0.3-0.1,0.5-0.4,0.8c-0.3,0.4-0.4,0.5-0.1,1c0.1,0.1,0.8,0,1,0
				c0.4-0.1,1-0.3,1.4-0.5c0.3-0.1,0.5-0.1,1-0.3c0.4-0.1,0.8,0.1,1,0.3s-0.7,0.7-0.7,0.7c-0.3,0.1-0.7,0.3-1,0.4
				c-0.4,0.1-0.8,0.3-1.2,0.3c-0.4,0.1-0.7,0.3-1.1,0.4c-0.4,0.3-0.8,0.7-1.2,1.1c-0.4,0.4-0.5,0.8-0.4,1.2c0.1,0.4,0.3,0.7,0.7,0.7
				c0.4,0.1,0.7-0.1,1-0.4c0.3-0.4,0.4-1,0.8-1.2c0.3-0.3,0.5-0.5,0.8-0.8s0.5-0.4,1-0.3c0.3,0.1,0.5,0.4,1,0.5
				c0.3,0,0.8-0.4,1.1-0.5l0.1-0.1c0.3-0.1,0.8-0.1,1.1-0.1c0.4,0,0.7,0.1,1,0.3c0.4,0.1,0.7,0.1,1.1,0.4c0.4,0.3,0.5,0.5,0.8,0.8
				c0.1,0.4,0.3,0.5,0.5,0.8c0.3,0.3,0.8,0.5,1.1,0.8c0.1,0.1,0.3,0.7,0.4,1c0.1,0.4,0.1,0.8,0,1.2c-0.3,0.4-0.4,0.8-0.7,1.2
				c-0.1,0.4-0.7,0.7-1.1,1c-0.4,0.4-1.1,0.4-1.5,0.8c-0.5,0.5-0.5,0.8-1.1,1.5c-0.4,0.5,0,0.8,0.5,0.7c0.4-0.1,0.8-0.3,1.4-0.3
				c0.1,0,0.1,0,0.3,0c0.5-0.1,1-0.5,1.5-0.7c0.7-0.1,2,0.8,2.7,1.2c0.5,0.3-0.1,0.8-0.3,1c-0.4,0.3-0.8,0.3-1.4,0.3
				c-0.3,0-0.7-0.1-1-0.1c-0.4-0.1-0.7-0.1-1.1,0.1c-0.4,0.3-0.3,0.7-0.1,1c0.3,0.4,0.5,0.5,0.7,1c0.1,0.4-0.3,0.7-0.5,1
				c-0.3,0.1-1,0-1.4,0c-0.5,0-1,0.3-1.4,0.5c-0.1,0.1-0.3,0.8-0.4,1.1c0,0.1,0,0.1,0,0.3c-0.1,0.5,0,0.8,0.3,1.2
				c0.1,0.3,0.4,0.7,0.5,1c0.1,0.4,0.3,0.7,0.1,1.1s-0.3,0.7-0.3,1s0.3,1,0.4,1.1c0.1,0.5,0,0.5-0.3,1c-0.3,0.3-0.8,0.4-1.1,0.5
				c-0.3,0.1-1,0-1.2-0.1c-0.4-0.1-0.7,0.1-1,0.3c-0.4,0.3-0.4,0.4-0.8,0c-0.4-0.4-0.7-1-0.8-1.5c0-0.1,0-0.1,0-0.3
				c-0.1-0.4,0-0.8,0-1.2c0-0.4,0.1-0.7,0.1-1.1c0-0.4-1.1,0.4-1.4,0.5c-0.1,0-0.3,0.1-0.4,0.1c-0.5,0.3-0.5,0.7-0.5,1.2
				c0,0.4,0.3,0.8,0.3,1.4c0,0.4-0.5,0.5-1,0.5c-0.5,0-0.8-0.7-1.1-1c-0.4-0.4-1-0.7-1.1-1.1c-0.3-0.5-0.4-1,0.3-1.4
				c0.4-0.3,0.8-0.3,1.1-0.7c0.3-0.4,0.7-0.8,0-1.1c-0.4-0.1-0.7-0.3-1.1-0.1c-0.1,0-0.1,0-0.3,0c-1,0.1-1,0.1-1.8-0.3
				c-0.5-0.3-0.8-0.8-1.2-1.2s-0.7-1-0.8-1.5c-0.1-0.5-0.3-1-0.4-1.4c-0.1-0.4-0.1-0.8-0.1-1.2c0-0.4-0.1-0.8-0.1-1.2
				c0-0.4,0-1,0-1.4s0-0.8,0-1.4c0-0.4,0.1-0.8,0.1-1.2v-0.1c0-0.4,0.3-1,0.4-1.4c0.1-0.4,0.4-0.7,0.5-1.1c0.1-0.4,0.4-0.7,0.5-1
				c0.3-0.4,0.5-0.7,0.8-1.1c0.4-0.5,1-1.1,1.5-1.6c0.3-0.3,0.5-0.7,0.8-1.1c0.4-0.4,1-0.7,1.4-1.1c0.4-0.3,0.7-0.5,1-1
				c0.1-0.3,0.3-0.7,0.5-1C317.3-462.2,317.6-462.4,317.6-462.4z"/>
			<path id="path5345_1_" class="st2" d="M332.6-455.4c-0.5,0.1-1.6,0.3-2.3,0.1c-0.5-0.1-0.5-0.4-1.1,0.1l-0.1,0.1
				c-0.3,0.3-0.4,0.4-0.4,0.8c0,0.3,0,0.7,0,1s0,0.8,0,1.1c0.1,0.4,0.1,0.7,0.4,1.1c0.1,0.3,0.3,0.5,0.5,0.8c0.4,0.3,1,0.4,1.4,0.5
				c0.3,0.1,0.8,0,1.1,0c0.4,0,0.5,0,0.5,0.5c0,0.4-0.8,1-1.1,1.4c-0.3,0.4-0.1,0.8,0,1.2c0.1,0.4,0.1,0.7,0.3,1.1s0.1,0.7,0.5,1
				c0.3,0.3,1,0,1.2,0.4c0.1,0.3,0.1,0.5,0.1,0.8c0,0.4,0.1,0.7,0.5,0.4c0.4-0.1,0.7-0.1,1-0.5c0.3-0.4,0.4-0.8,0.5-1.2
				c0.1-0.4,0.5-0.4,0.8-0.4c0.4,0,0.7,0.1,1.1,0c0.5-0.1,0.7-0.3,1.1-0.7c0.5-0.5,0.4-0.8,0.5-1.5c0-0.3,0-0.7-0.1-0.8
				c0-0.1,0-0.1,0-0.3c-0.1-0.3-0.7-0.3-1-0.3c-0.5,0-1.4-0.3-1.8-0.4c-0.3,0-1-1-1.1-1.1c-0.3-0.3-0.4-0.5-0.4-0.8
				c-0.1-0.4,0-1-0.1-1.4c-0.1-0.5,0-0.8-0.4-1.2c-0.3-0.3-0.4-0.7-0.5-1.1c-0.1-0.4-0.4-0.7-0.7-1
				C332.9-455.4,332.9-455.3,332.6-455.4z"/>
			<path id="path5347_1_" class="st3" d="M340.9-452.3c-0.3,0-0.5,0.4-0.8,0.5c-0.3,0.3-0.1,0.7-0.1,1c0,0.4,0.1,0.7,0.1,1.1
				c0.1,0.3,0.4,0.7,0.5,0.8c0.3,0.3,0.7,0.4,1.1,0.5c0.5,0.1,0.8,0.1,1.1-0.4c0.1-0.4,0.3-0.7,0.3-1.1c0-0.4,0-0.7-0.1-1.1
				c-0.1-0.4-0.3-0.7-0.7-0.8c-0.3-0.1-0.5-0.4-0.8-0.7C341.3-452.3,341.1-452.3,340.9-452.3z"/>
			<path id="path5349_1_" class="st4" d="M323.8-435.3c0.3-0.1,1.1-1.1,1.8-1.5c0.1-0.1,0.3-0.1,0.3-0.3c0.5-0.5,1.1-1.2,1.5-1.9
				c0.7-1,1-1.9,1.2-3c0.3-1.4,0.4-0.4,0,0.4c0,0.1-0.1,0.3-0.1,0.4c-0.1,0.5-0.3,1.2-0.4,1.8c-0.3,0.8-1,1.4-1.1,2.2
				c-0.1,0.4-0.3,1-0.1,1.4c0.1,0.4,0.7-0.5,1.1-0.7c0.5-0.1,0.7-0.3,0.7,0.3c0,0.4-0.1,1-0.3,1.4c-0.1,0.7,1.8,0.1,2.2,0
				c1.4-0.4,2.3-0.8,3.4-1.8c1.2-1,2.2-2.2,3.4-3.3c1-1,1.4-1.5,0.8,0c0,0.1-0.1,0.3-0.1,0.4c0,0.1-0.1,0.3-0.1,0.4
				c-0.3,0.8-0.8,1.6-1.6,2.2c-1.1,0.8-1.9,2.2-3.1,2.7c-0.5,0.3-1,0.4-1.5,0.5c-0.5,0.3,1,0.4,1.2,0.5c2.7,0.5-2.2,0.8-2.9,0.8
				c-1,0-1.5-0.3-2.3,0.3c-0.3,0.1,1.2,0.8,1.4,0.8c0.7,0.1,1.2,0.5,1.9,0.5c1.1,0-2.4,0.4-3.4,0.1c-0.8-0.3-1.6-0.4-2.4-0.5
				c-0.4-0.1-0.8,0-1.2,0c-0.1,0,0,1.1,0,1.2c0,0.8-0.3,1.5-0.5,0.3c-0.3-0.7-0.5-1.2-0.5-1.9c0-0.4-0.5,0.7-0.8,1
				c-0.4,0.5-1.1,1.2-1.2,1.2c0,0,0.4-0.8,0.5-1.4c0.1-0.4,0.8-1.5,0.3-1.6c-0.4-0.1-1,0-1.4-0.1c-0.7-0.1-1.4-0.3-1.9-0.5
				c-1.1-0.5-3-1.1-4.2-1.4c-0.1,0-2-2-0.3-0.3c1.2,1.2,3,1.9,4.6,1.9c0.5,0,1.4-0.1,1.8-0.3c0.3-0.1,0.7-0.5,1.1-0.7
				c0.4-0.1-0.5-0.5-0.8-0.8c-0.1-0.1-0.1-0.3-0.3-0.3c-1-1.2-1.4-2.7-2.4-3.9c-0.1-0.1-2.9-3.3-1.6-2.2c1.4,1.1,2.4,2,3.5,3.3
				c0.5,0.7,1.1,1.5,1.6,2.2c0.5,0.7,0.4-0.1,0.3-0.5c-0.3-1-0.1-2.3-0.1-3.4c0-1.4,0.7,1.4,0.8,1.6c0.1,0.7,0.5,1.5,1.1,0.8
				c0.5-0.7,0.5-0.8,0.5,0c0,0.1,0,0.1,0,0.3C323.7-436.1,323.7-435.7,323.8-435.3z"/>
			<path id="path5351_1_" class="st5" d="M339.6-447.3c0.1,0.1,0.3,0.5,0.3,0.8c0,0.1-1,0.8-1.1,1c-0.3,0.3-0.3,0.7-0.4,1.1
				c-0.1,0.4-0.1,0.7-0.1,1.1c0.1,0.4,0.3,0.7,0.4,1.1s0.5,0.5,0.8,1c0.4,0.4,0.8,0.4,1.4,0.5c0.5,0.1-0.4,0.7-0.5,0.8
				c-0.4,0.3-0.7,0.4-1,0.8c-0.3,0.4,0.3,0.7,0.5,0.8c0.3,0.1,0.8-0.4,1-0.7c0.3-0.3,0.5-0.5,0.5-1c0-0.3,0.1-0.7,0.1-1.1
				c0-0.4,0.1-0.8,0.1-1.1c0.1-0.5,0.3-0.7,0.5-1s0.3-0.8,0.1-1.1c-0.1-0.3-0.3-0.7-0.4-1c-0.1-0.3-0.5-0.5-0.8-0.5
				c-0.3-0.1-0.8-0.7-1-0.8C340.1-447,340-447.3,339.6-447.3z"/>
			<path id="path5353_1_" class="st6" d="M316.1-448.6L316.1-448.6z"/>
			<path id="path5355_1_" class="st7" d="M322.7-461.8c0.3,0,0.8-0.3,1.1-0.3c0.4-0.1,1,0.1,1.4,0.1c0,0,0.4,0.5,0.8,0.5
				c0.1,0,0.1,0,0.3,0c0.3,0,0.7,0.3,1,0.5c0.3,0.3,0,0.7-0.1,0.8c-0.4,0.4-0.7,0.1-1-0.1s-0.4-0.4-0.8-0.5c-0.4-0.1-0.8,0-1.1,0
				c-0.4,0.1-0.7,0.3-1.2,0.3c-0.1,0-0.7-0.7-0.8-0.8C322.2-461.4,322.6-461.8,322.7-461.8z"/>
			<path id="path5357_1_" class="st8" d="M329.2-460.9c0.3,0.1,0.8,0,1.4,0c0.5-0.1,1.2-0.1,1.8,0c0.3,0.1,2.2,0.4,1.4,0.8
				c-0.4,0.3-0.8,0.3-1.2,0.5c-0.4,0.3,0.5,0.4,0.8,0.4c0.5,0,0.3,0.7,0.1,1c-0.3,0.4-0.1,1,0,1.2c0.1,0.4,0.7,0.3,1.1,0.3
				c0.4,0,0.8,0,1.1,0.4c0.3,0.3,0.5,0.7,0.4,1s-1,0.4-1.2,0.4c-0.3,0-1.1-1.1-1.1-1.1c-0.3-0.3-0.7,0-1,0c-0.5,0.1-1-0.5-1.2-0.8
				c-0.4-0.3-0.5-0.7-0.8-1.1c-0.3-0.4,0.1-0.7-0.5-0.7c-0.4,0-0.7-0.1-1-0.3c-0.4-0.3-0.8-0.1-0.8-0.8c0-0.5,0-0.7,0.5-1
				C328.8-460.7,329.1-460.7,329.2-460.9z"/>
			
				<radialGradient id="path5359_2_" cx="9910.6279" cy="6978.0215" r="533.6835" gradientTransform="matrix(1.938711e-02 0 0 2.512195e-02 127.6499 -624.3391)" gradientUnits="userSpaceOnUse">
				<stop  offset="0" style="stop-color:#787974"/>
				<stop  offset="1" style="stop-color:#787974;stop-opacity:0"/>
			</radialGradient>
			<path id="path5359_1_" class="st9" d="M317.7-462.5c0,0.3-0.1,0.5-0.4,0.8c-0.3,0.4-0.4,0.5-0.1,1c0.1,0.1,0.8,0,1,0
				c0.4-0.1,1-0.3,1.4-0.5c0.3-0.1,0.5-0.1,1-0.3c0.4-0.1,0.8,0.1,1,0.3s-0.7,0.7-0.7,0.7c-0.3,0.1-0.7,0.3-1,0.4
				c-0.4,0.1-0.8,0.3-1.2,0.3c-0.4,0.1-0.7,0.3-1.1,0.4c-0.4,0.3-0.8,0.7-1.2,1.1c-0.4,0.4-0.5,0.8-0.4,1.2c0.1,0.4,0.3,0.7,0.7,0.7
				c0.4,0.1,0.7-0.1,1-0.4c0.3-0.4,0.4-1,0.8-1.2c0.3-0.3,0.5-0.5,0.8-0.8s0.5-0.4,1-0.3c0.3,0.1,0.5,0.4,1,0.5
				c0.3,0,0.8-0.4,1.1-0.5l0.1-0.1c0.3-0.1,0.8-0.1,1.1-0.1c0.4,0,0.7,0.1,1,0.3c0.4,0.1,0.7,0.1,1.1,0.4c0.4,0.3,0.5,0.5,0.8,0.8
				c0.1,0.4,0.3,0.5,0.5,0.8c0.3,0.3,0.8,0.5,1.1,0.8c0.1,0.1,0.3,0.7,0.4,1c0.1,0.4,0.1,0.8,0,1.2c-0.3,0.4-0.4,0.8-0.7,1.2
				c-0.1,0.4-0.7,0.7-1.1,1c-0.4,0.4-1.1,0.4-1.5,0.8c-0.5,0.5-0.5,0.8-1.1,1.5c-0.4,0.5,0,0.8,0.5,0.7c0.4-0.1,0.8-0.3,1.4-0.3
				c0.1,0,0.1,0,0.3,0c0.5-0.1,1-0.5,1.5-0.7c0.7-0.1,2,0.8,2.7,1.2c0.5,0.3-0.1,0.8-0.3,1c-0.4,0.3-0.8,0.3-1.4,0.3
				c-0.3,0-0.7-0.1-1-0.1c-0.4-0.1-0.7-0.1-1.1,0.1c-0.4,0.3-0.3,0.7-0.1,1c0.3,0.4,0.5,0.5,0.7,1c0.1,0.4-0.3,0.7-0.5,1
				c-0.3,0.1-1,0-1.4,0c-0.5,0-1,0.3-1.4,0.5c-0.1,0.1-0.3,0.8-0.4,1.1c0,0.1,0,0.1,0,0.3c-0.1,0.5,0,0.8,0.3,1.2
				c0.1,0.3,0.4,0.7,0.5,1c0.1,0.4,0.3,0.7,0.1,1.1s-0.3,0.7-0.3,1s0.3,1,0.4,1.1c0.1,0.5,0,0.5-0.3,1c-0.3,0.3-0.8,0.4-1.1,0.5
				c-0.3,0.1-1,0-1.2-0.1c-0.4-0.1-0.7,0.1-1,0.3c-0.4,0.3-0.4,0.4-0.8,0c-0.4-0.4-0.7-1-0.8-1.5c0-0.1,0-0.1,0-0.3
				c-0.1-0.4,0-0.8,0-1.2c0-0.4,0.1-0.7,0.1-1.1c0-0.4-1.1,0.4-1.4,0.5c-0.1,0-0.3,0.1-0.4,0.1c-0.5,0.3-0.5,0.7-0.5,1.2
				c0,0.4,0.3,0.8,0.3,1.4c0,0.4-0.5,0.5-1,0.5c-0.5,0-0.8-0.7-1.1-1c-0.4-0.4-1-0.7-1.1-1.1c-0.3-0.5-0.4-1,0.3-1.4
				c0.4-0.3,0.8-0.3,1.1-0.7c0.3-0.4,0.7-0.8,0-1.1c-0.4-0.1-0.7-0.3-1.1-0.1c-0.1,0-0.1,0-0.3,0c-1,0.1-1,0.1-1.8-0.3
				c-0.5-0.3-0.8-0.8-1.2-1.2s-0.7-1-0.8-1.5c-0.1-0.5-0.3-1-0.4-1.4c-0.1-0.4-0.1-0.8-0.1-1.2c0-0.4-0.1-0.8-0.1-1.2
				c0-0.4,0-1,0-1.4s0-0.8,0-1.4c0-0.4,0.1-0.8,0.1-1.2v-0.1c0-0.4,0.3-1,0.4-1.4c0.1-0.4,0.4-0.7,0.5-1.1c0.1-0.4,0.4-0.7,0.5-1
				c0.3-0.4,0.5-0.7,0.8-1.1c0.4-0.5,1-1.1,1.5-1.6c0.3-0.3,0.5-0.7,0.8-1.1c0.4-0.4,1-0.7,1.4-1.1c0.4-0.3,0.7-0.5,1-1
				c0.1-0.3,0.3-0.7,0.5-1C317.3-462.4,317.6-462.5,317.7-462.5z"/>
			<path id="path5361_1_" class="st10" d="M322.7-445.8c0,0.5-0.4,1-1,1s-1-0.4-1-1l0,0c0-0.5,0.4-1,1-1S322.7-446.3,322.7-445.8z"
				/>
			<path id="path5363_1_" class="st11" d="M313.9-453.1c0,0.3-0.3,0.5-0.5,0.5c-0.3,0-0.5-0.3-0.5-0.5l0,0c0-0.3,0.3-0.5,0.5-0.5
				C313.6-453.7,313.9-453.4,313.9-453.1z"/>
			<path id="path5365_1_" class="st12" d="M336-446.9c0,0.5-0.4,1-1,1s-1-0.4-1-1l0,0c0-0.5,0.4-1,1-1S336-447.4,336-446.9z"/>
			<path id="path5367_1_" class="st13" d="M329.1-433c0,0.5-0.4,1-1,1s-1-0.4-1-1l0,0c0-0.5,0.4-1,1-1S329.1-433.5,329.1-433z"/>
			<path id="path5369_1_" class="st10" d="M334.8-446.6c0,0.3-0.3,0.5-0.5,0.5s-0.5-0.3-0.5-0.5l0,0c0-0.3,0.3-0.5,0.5-0.5
				S334.8-447,334.8-446.6z"/>
			<path id="path5371_1_" class="st10" d="M323.5-432.3c0,0.3-0.3,0.5-0.5,0.5c-0.3,0-0.5-0.3-0.5-0.5l0,0c0-0.3,0.3-0.5,0.5-0.5
				C323.3-432.9,323.5-432.6,323.5-432.3z"/>
			<path id="path5373_1_" class="st10" d="M332.5-438.6c0,0.3-0.3,0.5-0.5,0.5c-0.3,0-0.5-0.3-0.5-0.5l0,0c0-0.3,0.3-0.5,0.5-0.5
				C332.2-439.1,332.5-439,332.5-438.6z"/>
			<path id="path5375_1_" class="st10" d="M339.6-454.2c0,0.3-0.3,0.5-0.5,0.5s-0.5-0.3-0.5-0.5l0,0c0-0.3,0.3-0.5,0.5-0.5
				S339.6-454.5,339.6-454.2z"/>
			<path id="path5377_1_" class="st10" d="M335.5-453.1c0,0.3-0.3,0.5-0.5,0.5c-0.3,0-0.5-0.3-0.5-0.5l0,0c0-0.3,0.3-0.5,0.5-0.5
				C335.2-453.7,335.5-453.4,335.5-453.1z"/>
			<path id="path5379_1_" class="st10" d="M337.1-459.1c0,0.3-0.3,0.5-0.5,0.5c-0.3,0-0.5-0.3-0.5-0.5l0,0c0-0.3,0.3-0.5,0.5-0.5
				C336.9-459.6,337.1-459.5,337.1-459.1z"/>
			<path id="path5381_1_" class="st10" d="M325-441.1c0,0.3-0.3,0.5-0.5,0.5c-0.3,0-0.5-0.3-0.5-0.5l0,0c0-0.3,0.3-0.5,0.5-0.5
				C324.8-441.7,325-441.4,325-441.1z"/>
			<path id="path5383_1_" class="st14" d="M323.7-434.9c0.3-0.1,1.1-1,1.6-1.4c0.1-0.1,0.1-0.1,0.3-0.3c0.5-0.4,1-1.1,1.4-1.8
				c0.7-1,1-1.8,1.1-2.7c0.3-1.4,0.3-0.4,0,0.4c0,0.1,0,0.3-0.1,0.4c-0.1,0.5-0.1,1.1-0.4,1.6c-0.3,0.7-0.8,1.4-1,2
				c-0.1,0.4-0.3,0.8-0.1,1.2s0.7-0.4,1.1-0.5c0.5-0.1,0.7-0.3,0.7,0.3c0,0.4-0.1,0.8-0.3,1.2c-0.1,0.5,1.6,0.1,2,0
				c1.2-0.3,2.2-0.7,3.1-1.6c1.1-1,2-1.9,3.1-3c0.8-0.8,1.2-1.4,0.7,0c0,0.1-0.1,0.3-0.1,0.4c0,0.1-0.1,0.3-0.1,0.4
				c-0.3,0.7-0.8,1.5-1.5,2c-1.1,0.7-1.8,1.9-2.9,2.6c-0.4,0.3-1,0.3-1.4,0.5c-0.4,0.3,1,0.4,1.2,0.4c2.6,0.5-2,0.8-2.6,0.8
				c-1,0-1.4-0.1-2.2,0.3c-0.3,0.1,1.2,0.7,1.2,0.7c0.5,0.1,1.1,0.5,1.8,0.5c1.1,0-2.2,0.3-3.1,0.1c-0.8-0.1-1.5-0.4-2.3-0.5
				c-0.4-0.1-0.8,0-1.2,0c-0.1,0,0,1.1,0,1.1c0,0.7-0.1,1.4-0.5,0.3c-0.1-0.5-0.5-1.2-0.5-1.8c0-0.4-0.5,0.5-0.8,1
				c-0.3,0.4-1,1.1-1.1,1.1c0,0,0.3-0.7,0.4-1.2c0.1-0.4,0.7-1.4,0.3-1.5c-0.4-0.1-1,0-1.4-0.1c-0.5-0.1-1.2-0.3-1.8-0.5
				c-1.1-0.5-2.7-1-3.8-1.2c-0.1,0-1.8-1.9-0.1-0.3c1.1,1.1,2.7,1.8,4.2,1.8c0.5,0,1.2-0.1,1.6-0.3c0.3,0,0.7-0.4,1-0.5
				s-0.5-0.4-0.8-0.7c-0.1-0.1-0.1-0.1-0.3-0.3c-1-1.1-1.2-2.6-2.3-3.5c-0.1-0.1-2.6-3-1.5-2c1.2,1,2.3,1.9,3.3,3
				c0.5,0.5,1,1.4,1.5,2c0.5,0.7,0.4-0.1,0.3-0.5c-0.3-1-0.1-2.2-0.1-3.1c0-1.2,0.7,1.2,0.7,1.5c0.1,0.7,0.5,1.4,1,0.8
				c0.5-0.7,0.5-0.8,0.5,0v0.1C323.7-435.6,323.7-435.3,323.7-434.9z"/>
			<g id="g5385_1_" transform="translate(461.6971,-517.2066)" class="st15">
				<path id="path5387_1_" class="st16" d="M-127.8,64.8c0,1.2-1.1,2.3-2.4,2.3s-2.4-1.1-2.4-2.3s1.1-2.3,2.4-2.3
					C-128.9,62.5-127.8,63.5-127.8,64.8z"/>
				<path id="path5389_1_" class="st16" d="M-125.1,70.2c0,1.2-1.1,2.3-2.4,2.3c-1.4,0-2.4-1.1-2.4-2.3c0-1.2,1.1-2.3,2.4-2.3
					C-126.2,67.9-125.1,69-125.1,70.2z"/>
				<path id="path5391_1_" class="st16" d="M-122.5,70.1c0,0.8-0.7,1.5-1.5,1.5s-1.5-0.7-1.5-1.5s0.7-1.5,1.5-1.5
					C-123.2,68.6-122.5,69.3-122.5,70.1z"/>
				<path id="path5393_1_" class="st16" d="M-135.9,62.6c0,1.9-1.6,3.5-3.7,3.5s-3.7-1.6-3.7-3.5c0-1.9,1.6-3.5,3.7-3.5
					C-137.5,59.1-135.9,60.7-135.9,62.6z"/>
				<path id="path5395_1_" class="st16" d="M-143.1,71c0,2.3-1.9,4.1-4.3,4.1s-4.3-1.9-4.3-4.1s1.9-4.1,4.3-4.1
					S-143.1,68.7-143.1,71z"/>
				<path id="path5397_1_" class="st16" d="M-138.3,74.8c0,1.8-1.5,3.3-3.4,3.3c-1.9,0-3.4-1.5-3.4-3.3s1.5-3.3,3.4-3.3
					C-139.8,71.6-138.3,73.1-138.3,74.8z"/>
				<path id="path5399_1_" class="st16" d="M-140.5,65.9c0,1.8-1.5,3.3-3.4,3.3c-1.9,0-3.4-1.5-3.4-3.3s1.5-3.3,3.4-3.3
					C-142,62.6-140.5,64.1-140.5,65.9z"/>
			</g>
			<path id="path5401_1_" class="st17" d="M324.8-433.3c0,0.5-0.4,1-1,1s-1-0.4-1-1s0.4-1,1-1S324.8-433.8,324.8-433.3z"/>
		</g>
		<path id="path9201_1_" class="st18" d="M381.3-448c0,10.2-8.3,18.3-18.3,18.3c-10.2,0-18.3-8.3-18.3-18.3l0,0
			c0-10.2,8.3-18.3,18.3-18.3C373.1-466.4,381.3-458.2,381.3-448L381.3-448z"/>
		<path id="path9203_1_" class="st19" d="M373-461.8c7.6,5.6,9.2,16.2,3.7,23.8c-5.6,7.6-16.2,9.2-23.8,3.7
			c-7.6-5.6-9.2-16.2-3.7-23.8C354.8-465.7,365.4-467.3,373-461.8z"/>
	</g>
	<g id="g6956_1_" transform="translate(-249.0000,467.8749)">
		<path id="path6958_1_" class="st20" d="M279.1-444c-2.2,0-3.9,1.5-4.6,3.5c-0.7-0.4-1.4-0.5-2.2-0.5c-2.7,0-4.9,2.2-4.9,4.9
			c0,0.5,0.1,1.1,0.3,1.6c-1.4,0.8-2.3,2.2-2.3,3.8c0,2.4,1.9,4.3,4.3,4.3c0.1,0,18.2,0,18.5,0c2.4,0,4.3-1.9,4.3-4.3
			c0-1.6-1-3-2.3-3.8c0.1-0.5,0.3-1,0.3-1.6c0-2.7-2.2-4.9-4.9-4.9c-0.8,0-1.5,0.3-2.2,0.5C283.1-442.5,281.3-444,279.1-444z"/>
		
			<linearGradient id="path6960_2_" gradientUnits="userSpaceOnUse" x1="767.7211" y1="-233.3805" x2="781.3195" y2="-224.5635" gradientTransform="matrix(1 0 0 1 -498 -206)">
			<stop  offset="0" style="stop-color:#FFFFFF"/>
			<stop  offset="1" style="stop-color:#FFFFFF;stop-opacity:0"/>
		</linearGradient>
		<path id="path6960_1_" class="st21" d="M279.1-443.5c-2.2,0-3.7,1.4-4.2,3.7c-0.7-0.3-1.5-0.8-2.3-0.8c-2.6,0-4.6,1.9-4.6,4.3
			c0,0.5,0.3,1.4,0.4,1.8c-1.2,0.7-2.3,1.9-2.3,3.3c0,2.3,1.5,4.1,4.2,4.1c0.1,0,17.7,0,17.8,0c2.7,0,4.2-1.9,4.2-4.1
			c0-1.5-1.1-2.6-2.3-3.3c0.1-0.4,0.4-1.2,0.4-1.8c0-2.6-2-4.5-4.6-4.5c-0.8,0-1.6,0.4-2.3,0.8C282.8-442.1,281.3-443.5,279.1-443.5
			z"/>
		<g id="g6962_1_">
			<path id="path6964_1_" class="st22" d="M282.5-439.1c0,1.9-1.5,3.4-3.4,3.4c-1.9,0-3.4-1.5-3.4-3.4s1.5-3.4,3.4-3.4
				C281-442.5,282.5-441,282.5-439.1L282.5-439.1z"/>
			
				<linearGradient id="path6966_2_" gradientUnits="userSpaceOnUse" x1="772.86" y1="-243.2529" x2="774.9561" y2="-239.9221" gradientTransform="matrix(1.0566 0 0 1.0566 -538.726 -184.138)">
				<stop  offset="0" style="stop-color:#FFFFFF"/>
				<stop  offset="1" style="stop-color:#FFFFFF;stop-opacity:0"/>
			</linearGradient>
			<path id="path6966_1_" class="st23" d="M282.5-439.1c0,1.9-1.5,3.4-3.4,3.4c-1.9,0-3.4-1.5-3.4-3.4s1.5-3.4,3.4-3.4
				C281-442.5,282.5-441,282.5-439.1L282.5-439.1z"/>
		</g>
		<rect id="rect6968_1_" x="269.9" y="-436.7" class="st22" width="19.4" height="8.7"/>
		<path id="path6970_1_" class="st22" d="M272.9-431c0,1.6-1.4,2.9-2.9,2.9c-1.5,0-2.9-1.4-2.9-2.9s1.4-2.9,2.9-2.9
			C271.5-433.8,272.9-432.5,272.9-431L272.9-431z"/>
		<g id="g6972_1_">
			<path id="path6974_1_" class="st22" d="M289.3-436.3c0,1.9-1.5,3.4-3.4,3.4c-1.9,0-3.4-1.5-3.4-3.4s1.5-3.4,3.4-3.4
				C287.8-439.7,289.3-438.2,289.3-436.3L289.3-436.3z"/>
			
				<linearGradient id="path6976_2_" gradientUnits="userSpaceOnUse" x1="771.6967" y1="-244.8256" x2="774.9413" y2="-239.8294" gradientTransform="matrix(1.0566 0 0 1.0566 -531.726 -181.138)">
				<stop  offset="0" style="stop-color:#FFFFFF"/>
				<stop  offset="1" style="stop-color:#FFFFFF;stop-opacity:0"/>
			</linearGradient>
			<path id="path6976_1_" class="st24" d="M289.3-436.3c0,1.9-1.5,3.4-3.4,3.4c-1.9,0-3.4-1.5-3.4-3.4s1.5-3.4,3.4-3.4
				C287.8-439.7,289.3-438.2,289.3-436.3L289.3-436.3z"/>
		</g>
		<g id="g6978_1_">
			<path id="path6980_1_" class="st22" d="M275.7-436.3c0,1.9-1.5,3.4-3.4,3.4c-1.9,0-3.4-1.5-3.4-3.4s1.5-3.4,3.4-3.4
				C274.3-439.7,275.7-438.2,275.7-436.3L275.7-436.3z"/>
			
				<linearGradient id="path6982_2_" gradientUnits="userSpaceOnUse" x1="771.955" y1="-243.8135" x2="775.3048" y2="-240.4194" gradientTransform="matrix(1.0566 0 0 1.0566 -545.726 -181.138)">
				<stop  offset="0" style="stop-color:#FFFFFF"/>
				<stop  offset="1" style="stop-color:#FFFFFF;stop-opacity:0"/>
			</linearGradient>
			<path id="path6982_1_" class="st25" d="M275.7-436.3c0,1.9-1.5,3.4-3.4,3.4c-1.9,0-3.4-1.5-3.4-3.4s1.5-3.4,3.4-3.4
				C274.3-439.7,275.7-438.2,275.7-436.3L275.7-436.3z"/>
		</g>
		<g id="g6984_1_" transform="translate(-1.000000,0.000000)">
			<path id="path6986_1_" class="st22" d="M279.2-439.7c-3.5,0-6.3,2.9-6.3,6.3c0,2.3,1.4,4.2,3.1,5.3h6.3c1.9-1.1,3.1-3,3.1-5.3
				C285.4-436.8,282.6-439.7,279.2-439.7z"/>
			
				<linearGradient id="path6988_2_" gradientUnits="userSpaceOnUse" x1="776.3522" y1="-231.1373" x2="780.2682" y2="-226.1019" gradientTransform="matrix(1 0 0 1 -500 -206)">
				<stop  offset="0" style="stop-color:#FFFFFF"/>
				<stop  offset="1" style="stop-color:#FFFFFF;stop-opacity:0"/>
			</linearGradient>
			<path id="path6988_1_" class="st26" d="M279.2-439.7c-3.5,0-6.3,2.9-6.3,6.3c0,2.3,1.4,4.2,3.1,5.3h6.3c1.9-1.1,3.1-3,3.1-5.3
				C285.4-436.8,282.6-439.7,279.2-439.7z"/>
		</g>
		
			<linearGradient id="path6990_2_" gradientUnits="userSpaceOnUse" x1="804.8745" y1="-210.6723" x2="807.8837" y2="-207.9767" gradientTransform="matrix(0.9057 0 0 0.9057 -460.6283 -241.6762)">
			<stop  offset="0" style="stop-color:#FFFFFF"/>
			<stop  offset="1" style="stop-color:#FFFFFF;stop-opacity:0"/>
		</linearGradient>
		<path id="path6990_1_" class="st27" d="M272.9-431c0,1.6-1.4,2.9-2.9,2.9c-1.6,0-2.9-1.4-2.9-2.9c0-1.6,1.4-2.9,2.9-2.9
			C271.5-433.8,272.9-432.5,272.9-431L272.9-431z"/>
		<path id="path6992_1_" class="st28" d="M291.1-436.2c0,2.6-2.9,3.7-2.9,3.7s1.9-1.6,1.9-3.5L291.1-436.2z"/>
		<g id="g6994_1_" transform="matrix(1.142857,0.000000,0.000000,1.142857,-28.57139,67.00008)">
			<path id="path6996_1_" class="st22" d="M275.6-436.5c0,1.9-1.5,3.4-3.4,3.4s-3.4-1.5-3.4-3.4c0-1.9,1.5-3.4,3.4-3.4
				S275.6-438.4,275.6-436.5L275.6-436.5z"/>
			
				<linearGradient id="path6998_2_" gradientUnits="userSpaceOnUse" x1="634.2928" y1="-248.2646" x2="638.2707" y2="-243.9911" gradientTransform="matrix(1.38 0 0 1.38 -606.6959 -97.7633)">
				<stop  offset="0" style="stop-color:#FFFFFF"/>
				<stop  offset="1" style="stop-color:#FFFFFF;stop-opacity:0"/>
			</linearGradient>
			<path id="path6998_1_" class="st29" d="M275.6-436.5c0,1.9-1.5,3.4-3.4,3.4s-3.4-1.5-3.4-3.4c0-1.9,1.5-3.4,3.4-3.4
				S275.6-438.4,275.6-436.5L275.6-436.5z"/>
		</g>
	</g>
</g>
</svg>
