<?xml version="1.0" encoding="utf-8"?>
<!-- Generator: Adobe Illustrator 24.0.1, SVG Export Plug-In . SVG Version: 6.00 Build 0)  -->
<svg version="1.1"
	 id="svg1306" xmlns:cc="http://creativecommons.org/ns#" xmlns:dc="http://purl.org/dc/elements/1.1/" xmlns:inkscape="http://www.inkscape.org/namespaces/inkscape" xmlns:rdf="http://www.w3.org/1999/02/22-rdf-syntax-ns#" xmlns:sodipodi="http://sodipodi.sourceforge.net/DTD/sodipodi-0.dtd" xmlns:svg="http://www.w3.org/2000/svg"
	 xmlns="http://www.w3.org/2000/svg" xmlns:xlink="http://www.w3.org/1999/xlink" x="0px" y="0px" viewBox="0 0 45 45"
	 style="enable-background:new 0 0 45 45;" xml:space="preserve">
<style type="text/css">
	.st0{fill:#729FCF;stroke:#204A87;stroke-width:1.0746;stroke-miterlimit:2;}
	.st1{opacity:0.4611;fill:url(#path12231_1_);enable-background:new    ;}
	.st2{fill:url(#path12233_1_);}
	.st3{fill:#555753;}
	.st4{fill:url(#path8889_1_);}
	.st5{fill:#888A85;}
	.st6{opacity:0.4944;fill:url(#path8897_1_);enable-background:new    ;}
	.st7{opacity:0.4944;fill:url(#path8903_1_);enable-background:new    ;}
	.st8{opacity:0.4944;fill:url(#path8909_1_);enable-background:new    ;}
	.st9{opacity:0.4944;fill:url(#path8915_1_);enable-background:new    ;}
	.st10{fill:#888A85;stroke:#555753;stroke-width:0.9992;stroke-miterlimit:1.9981;}
	.st11{fill:url(#path12582_1_);}
	.st12{opacity:0.4778;fill:url(#path12586_1_);enable-background:new    ;}
	.st13{opacity:0.4778;fill:url(#path12595_1_);enable-background:new    ;}
	.st14{opacity:0.4778;fill:url(#path12599_1_);enable-background:new    ;}
	.st15{opacity:0.4778;fill:url(#path12603_1_);enable-background:new    ;}
	.st16{opacity:0.4778;fill:url(#path12605_1_);enable-background:new    ;}
	.st17{fill-rule:evenodd;clip-rule:evenodd;fill:#555753;}
	.st18{opacity:0.4778;fill:url(#path12611_1_);enable-background:new    ;}
	.st19{fill:url(#path12331_1_);}
	.st20{opacity:0.4778;fill:url(#path12335_1_);enable-background:new    ;}
	.st21{opacity:0.4778;fill:url(#path12343_1_);enable-background:new    ;}
	.st22{opacity:0.4778;fill:url(#path12349_1_);enable-background:new    ;}
	.st23{opacity:0.4778;fill:url(#path12353_1_);enable-background:new    ;}
	.st24{opacity:0.4778;fill:url(#path12355_1_);enable-background:new    ;}
	.st25{opacity:0.4778;fill:url(#path12361_1_);enable-background:new    ;}
	.st26{opacity:0.4611;fill:url(#path12195_1_);enable-background:new    ;}
	.st27{fill:url(#path12197_1_);}
	.st28{opacity:0.4611;fill:url(#path12243_1_);enable-background:new    ;}
	.st29{fill:url(#path12245_1_);}
	.st30{fill:#FFFFFF;stroke:#729FCF;stroke-width:1.4641;stroke-miterlimit:1;}
	.st31{fill:#FFFFFF;stroke:#729FCF;stroke-miterlimit:10;}
</style>
<g id="layer1_31_">
	<g id="g12227_4_" transform="translate(-202.9549,271.0066)">
		<path id="path12229_4_" class="st0" d="M222.1-228.8c-1-0.6-1.4-1.9-0.8-2.9c1.3-2.1,3.1-1.5,4-3.7
			C226.6-234.1,226.1-227.2,222.1-228.8z"/>
		
			<radialGradient id="path12231_1_" cx="5390.9941" cy="-653.8469" r="21.7436" gradientTransform="matrix(7.065158e-02 4.154803e-02 6.201499e-02 -0.1094 -117.1267 -526.3235)" gradientUnits="userSpaceOnUse">
			<stop  offset="0" style="stop-color:#FFFFFF"/>
			<stop  offset="1" style="stop-color:#FFFFFF;stop-opacity:0"/>
		</radialGradient>
		<path id="path12231_4_" class="st1" d="M224.8-229.9c-0.5,0.9-1.6,1.2-2.4,0.7c-0.8-0.5-1.1-1.6-0.6-2.5s2.6-0.5,3.3-2.3
			C225.9-233.5,225.3-230.8,224.8-229.9z"/>
		
			<linearGradient id="path12233_1_" gradientUnits="userSpaceOnUse" x1="1165.7167" y1="3985.8755" x2="1186.2228" y2="4007.3538" gradientTransform="matrix(-5.358613e-02 0.1028 9.281434e-02 5.937964e-02 -84.9951 -590.1888)">
			<stop  offset="0" style="stop-color:#FFFFFF"/>
			<stop  offset="1" style="stop-color:#FFFFFF;stop-opacity:0"/>
		</linearGradient>
		<path id="path12233_19_" class="st2" d="M223.5-229c-4.6-1.1,0.2-4.7,1-3.9C220.9-231.6,223.5-229,223.5-229z"/>
	</g>
	<g id="g12627_7_" transform="matrix(0.999675,0.000000,0.000000,1.000000,-286.8482,245.0001)">
		<g id="g12533_7_">
			<path id="path8887_7_" class="st3" d="M310-243c-2.8,0-5.1,1.6-6.4,3.8c-0.9-0.5-2-0.8-3.1-0.8c-3.9,0-7,3.1-7,7s3.1,7,7,7
				c2.4,0,4.4-1.3,5.7-3.2c1.1,0.7,2.4,1.2,3.8,1.2c0.9,0,1.8-0.2,2.6-0.5c0.5,0.9,1.2,1.6,2,2.2c0,0.1-0.1,0.2-0.1,0.4
				c0,3.9,3.1,7,7,7s7-3.1,7-7c0-2.4-1.3-4.4-3.1-5.6c0-0.1,0.1-0.2,0.1-0.4c0-3.9-3.1-7-7-7c-0.6,0-1.2,0.2-1.8,0.4
				C315.5-241.2,313-243,310-243z"/>
			
				<linearGradient id="path8889_1_" gradientUnits="userSpaceOnUse" x1="1088.4415" y1="-12.7373" x2="1126.3027" y2="-25.7746" gradientTransform="matrix(0.9991 0 0 -1 -791.4814 -250.0001)">
				<stop  offset="0" style="stop-color:#FFFFFF"/>
				<stop  offset="1" style="stop-color:#FFFFFF;stop-opacity:0"/>
			</linearGradient>
			<path id="path8889_7_" class="st4" d="M310-242c-2.8,0-5.1,1.8-6.1,4.2c-1-0.7-2.1-1.2-3.4-1.2c-3.3,0-6,2.7-6,6s2.7,6,6,6
				c2.4,0,4.5-1.5,5.4-3.5c1.1,0.9,2.5,1.5,4.1,1.5c1.1,0,2-0.3,2.9-0.8c0.4,1,1.1,1.8,1.9,2.4c-0.2,0.6-0.4,1.2-0.4,1.8
				c0,3.6,2.9,6.5,6.5,6.5s6.5-2.9,6.5-6.5c0-2.4-1.3-4.3-3.2-5.5c0.1-0.3,0.2-0.7,0.2-1c0-3.3-2.7-6-6-6c-0.9,0-1.7,0.2-2.4,0.5
				C315.2-240.1,312.9-242,310-242z"/>
			<path id="path8891_7_" class="st5" d="M327.5-225.5c0,3.6-2.9,6.5-6.5,6.5s-6.5-2.9-6.5-6.5l0,0c0-3.6,2.9-6.5,6.5-6.5
				S327.5-229.1,327.5-225.5L327.5-225.5z"/>
			<g id="g12520_7_">
				<path id="path8895_7_" class="st5" d="M315.5-235.5c0,3-2.5,5.5-5.5,5.5s-5.5-2.5-5.5-5.5s2.5-5.5,5.5-5.5
					S315.5-238.5,315.5-235.5z"/>
				
					<linearGradient id="path8897_1_" gradientUnits="userSpaceOnUse" x1="1140.9028" y1="-53.3809" x2="1146.6561" y2="-58.2378" gradientTransform="matrix(0.8817 0 0 -0.8826 -699.7896 -285.8582)">
					<stop  offset="0" style="stop-color:#FFFFFF"/>
					<stop  offset="1" style="stop-color:#FFFFFF;stop-opacity:0"/>
				</linearGradient>
				<path id="path8897_7_" class="st6" d="M315.5-235.5c0,3-2.5,5.5-5.5,5.5s-5.5-2.5-5.5-5.5s2.5-5.5,5.5-5.5
					S315.5-238.5,315.5-235.5z"/>
			</g>
			<g id="g12516_7_">
				<path id="path8901_7_" class="st5" d="M323.5-231.5c0,3-2.5,5.5-5.5,5.5s-5.5-2.5-5.5-5.5l0,0c0-3,2.5-5.5,5.5-5.5
					S323.5-234.5,323.5-231.5z"/>
				
					<linearGradient id="path8903_1_" gradientUnits="userSpaceOnUse" x1="1136.2574" y1="-44.2712" x2="1142.2148" y2="-50.2334" gradientTransform="matrix(0.9108 0 0 -0.9117 -721.5077 -276.4689)">
					<stop  offset="0" style="stop-color:#FFFFFF"/>
					<stop  offset="1" style="stop-color:#FFFFFF;stop-opacity:0"/>
				</linearGradient>
				<path id="path8903_7_" class="st7" d="M323.5-231.5c0,3-2.5,5.5-5.5,5.5s-5.5-2.5-5.5-5.5l0,0c0-3,2.5-5.5,5.5-5.5
					S323.5-234.5,323.5-231.5z"/>
			</g>
			<g id="g12524_7_">
				<path id="path8907_7_" class="st5" d="M305.5-233c0,2.8-2.2,5-5,5s-5-2.2-5-5s2.2-5,5-5S305.5-235.8,305.5-233L305.5-233z"/>
				
					<linearGradient id="path8909_1_" gradientUnits="userSpaceOnUse" x1="1051.9128" y1="24.0268" x2="1056.2935" y2="20.5463" gradientTransform="matrix(1.1416 0 0 -1.1428 -903.6692 -208.1462)">
					<stop  offset="0" style="stop-color:#FFFFFF"/>
					<stop  offset="1" style="stop-color:#FFFFFF;stop-opacity:0"/>
				</linearGradient>
				<path id="path8909_7_" class="st8" d="M305.5-233c0,2.8-2.2,5-5,5s-5-2.2-5-5s2.2-5,5-5S305.5-235.8,305.5-233L305.5-233z"/>
			</g>
			<g id="g12529_7_">
				<path id="path8913_7_" class="st5" d="M316.5-229c0,3.9-3.1,7-7,7s-7-3.1-7-7l0,0c0-3.9,3.1-7,7-7
					C313.3-236,316.5-232.9,316.5-229L316.5-229z"/>
				
					<linearGradient id="path8915_1_" gradientUnits="userSpaceOnUse" x1="1085.5341" y1="-6.1589" x2="1093.184" y2="-11.9883" gradientTransform="matrix(1.0377 0 0 -1.0386 -821.8514 -239.1419)">
					<stop  offset="0" style="stop-color:#FFFFFF"/>
					<stop  offset="1" style="stop-color:#FFFFFF;stop-opacity:0"/>
				</linearGradient>
				<path id="path8915_7_" class="st9" d="M316.5-229c0,3.9-3.1,7-7,7s-7-3.1-7-7l0,0c0-3.9,3.1-7,7-7
					C313.3-236,316.5-232.9,316.5-229L316.5-229z"/>
			</g>
		</g>
		<g id="g12578_7_" transform="translate(72.00007,7.999930)">
			<path id="path12580_7_" class="st10" d="M245-238.5c-2.3,0-4.1,1.6-4.7,3.6c-0.7-0.4-1.4-0.6-2.3-0.6c-2.8,0-5,2.2-5,5
				c0,0.6,0.2,1.1,0.3,1.6c-1.4,0.8-2.3,2.2-2.3,3.9c0,2.5,2,4.5,4.5,4.5c0.2,0,18.8,0,19,0c2.5,0,4.5-2,4.5-4.5
				c0-1.7-1-3.1-2.3-3.9c0.2-0.5,0.3-1,0.3-1.6c0-2.8-2.2-5-5-5c-0.8,0-1.6,0.3-2.3,0.6C249.1-236.9,247.2-238.5,245-238.5z"/>
			
				<linearGradient id="path12582_1_" gradientUnits="userSpaceOnUse" x1="914.6376" y1="27.5759" x2="928.6445" y2="18.494" gradientTransform="matrix(0.9991 0 0 -1 -678.6163 -205.9999)">
				<stop  offset="0" style="stop-color:#FFFFFF"/>
				<stop  offset="1" style="stop-color:#FFFFFF;stop-opacity:0"/>
			</linearGradient>
			<path id="path12582_7_" class="st11" d="M245-238c-2.2,0-3.7,1.3-4.4,3.8c-0.7-0.3-1.5-0.8-2.4-0.8c-2.7,0-4.8,1.9-4.8,4.5
				c0,0.5,0.3,1.3,0.4,1.8c-1.3,0.7-2.4,1.9-2.4,3.4c0,2.3,1.5,4.3,4.3,4.3c0.2,0,18.2,0,18.3,0c2.8,0,4.3-1.9,4.3-4.3
				c0-1.6-1.1-2.7-2.4-3.4c0.2-0.5,0.5-1.3,0.5-1.8c0-2.6-2.1-4.6-4.8-4.6c-0.8,0-1.6,0.5-2.3,0.8C248.8-236.6,247.2-238,245-238z"
				/>
			<path id="path12584_7_" class="st5" d="M248.5-233.5c0,1.9-1.6,3.5-3.5,3.5s-3.5-1.6-3.5-3.5s1.6-3.5,3.5-3.5
				S248.5-235.4,248.5-233.5L248.5-233.5z"/>
			
				<linearGradient id="path12586_1_" gradientUnits="userSpaceOnUse" x1="914.5095" y1="43.195" x2="916.6685" y2="39.7642" gradientTransform="matrix(1.0557 0 0 -1.0566 -721.6974 -189.9102)">
				<stop  offset="0" style="stop-color:#FFFFFF"/>
				<stop  offset="1" style="stop-color:#FFFFFF;stop-opacity:0"/>
			</linearGradient>
			<path id="path12586_7_" class="st12" d="M248.5-233.5c0,1.9-1.6,3.5-3.5,3.5s-3.5-1.6-3.5-3.5s1.6-3.5,3.5-3.5
				S248.5-235.4,248.5-233.5L248.5-233.5z"/>
			<rect id="rect12588_7_" x="235.5" y="-231" class="st5" width="20" height="9"/>
			<path id="path12591_7_" class="st5" d="M238.5-225c0,1.7-1.3,3-3,3s-3-1.3-3-3s1.3-3,3-3C237.1-228,238.5-226.7,238.5-225
				L238.5-225z"/>
			<path id="path12593_7_" class="st5" d="M255.5-230.5c0,1.9-1.6,3.5-3.5,3.5s-3.5-1.6-3.5-3.5s1.6-3.5,3.5-3.5
				S255.5-232.4,255.5-230.5L255.5-230.5z"/>
			
				<linearGradient id="path12595_1_" gradientUnits="userSpaceOnUse" x1="913.4838" y1="44.7136" x2="916.8259" y2="39.5674" gradientTransform="matrix(1.0557 0 0 -1.0566 -714.6974 -186.9102)">
				<stop  offset="0" style="stop-color:#FFFFFF"/>
				<stop  offset="1" style="stop-color:#FFFFFF;stop-opacity:0"/>
			</linearGradient>
			<path id="path12595_7_" class="st13" d="M255.5-230.5c0,1.9-1.6,3.5-3.5,3.5s-3.5-1.6-3.5-3.5s1.6-3.5,3.5-3.5
				S255.5-232.4,255.5-230.5L255.5-230.5z"/>
			<path id="path12597_7_" class="st5" d="M241.5-230.5c0,1.9-1.6,3.5-3.5,3.5s-3.5-1.6-3.5-3.5s1.6-3.5,3.5-3.5
				S241.5-232.4,241.5-230.5L241.5-230.5z"/>
			
				<linearGradient id="path12599_1_" gradientUnits="userSpaceOnUse" x1="913.3482" y1="43.6682" x2="916.7986" y2="40.1721" gradientTransform="matrix(1.0557 0 0 -1.0566 -728.6974 -186.9102)">
				<stop  offset="0" style="stop-color:#FFFFFF"/>
				<stop  offset="1" style="stop-color:#FFFFFF;stop-opacity:0"/>
			</linearGradient>
			<path id="path12599_7_" class="st14" d="M241.5-230.5c0,1.9-1.6,3.5-3.5,3.5s-3.5-1.6-3.5-3.5s1.6-3.5,3.5-3.5
				S241.5-232.4,241.5-230.5L241.5-230.5z"/>
			<path id="path12601_7_" class="st5" d="M243.9-234c-3.6,0-6.5,2.9-6.5,6.5c0,2.4,1.3,4.3,3.3,5.5h6.5c1.9-1.1,3.3-3.1,3.3-5.5
				C250.4-231.1,247.5-234,243.9-234z"/>
			
				<linearGradient id="path12603_1_" gradientUnits="userSpaceOnUse" x1="921.5051" y1="25.3744" x2="925.5388" y2="20.1877" gradientTransform="matrix(0.9991 0 0 -1 -679.6163 -205.9999)">
				<stop  offset="0" style="stop-color:#FFFFFF"/>
				<stop  offset="1" style="stop-color:#FFFFFF;stop-opacity:0"/>
			</linearGradient>
			<path id="path12603_7_" class="st15" d="M244-234c-3.6,0-6.5,2.9-6.5,6.5c0,2.4,1.3,4.4,3.3,5.5h6.5c1.9-1.1,3.3-3.1,3.3-5.5
				C250.5-231.1,247.6-234,244-234z"/>
			
				<linearGradient id="path12605_1_" gradientUnits="userSpaceOnUse" x1="962.7241" y1="-6.0766" x2="965.8239" y2="-8.8531" gradientTransform="matrix(0.9048 0 0 -0.9057 -637.3217 -232.0661)">
				<stop  offset="0" style="stop-color:#FFFFFF"/>
				<stop  offset="1" style="stop-color:#FFFFFF;stop-opacity:0"/>
			</linearGradient>
			<path id="path12605_7_" class="st16" d="M238.5-225c0,1.7-1.3,3-3,3s-3-1.3-3-3s1.3-3,3-3S238.5-226.7,238.5-225L238.5-225z"/>
			<path id="path12607_7_" class="st17" d="M257.4-230.3c0,2.7-3.3,3.7-3.3,3.7s2.3-1.6,2.3-3.7H257.4z"/>
			<path id="path12609_7_" class="st5" d="M252.5-226c0,2.2-1.8,4-4,4c-2.2,0-4-1.8-4-4s1.8-4,4-4C250.7-230,252.5-228.2,252.5-226
				L252.5-226z"/>
			
				<linearGradient id="path12611_1_" gradientUnits="userSpaceOnUse" x1="875.6172" y1="81.7984" x2="879.7147" y2="77.3966" gradientTransform="matrix(1.2064 0 0 -1.2075 -812.062 -131.7543)">
				<stop  offset="0" style="stop-color:#FFFFFF"/>
				<stop  offset="1" style="stop-color:#FFFFFF;stop-opacity:0"/>
			</linearGradient>
			<path id="path12611_7_" class="st18" d="M252.5-226c0,2.2-1.8,4-4,4c-2.2,0-4-1.8-4-4s1.8-4,4-4C250.7-230,252.5-228.2,252.5-226
				L252.5-226z"/>
		</g>
		<g id="g12393_7_" transform="translate(56.98577,3.983930)">
			<path id="path12329_7_" class="st10" d="M245-238.5c-2.3,0-4.1,1.6-4.7,3.6c-0.7-0.4-1.4-0.6-2.3-0.6c-2.8,0-5,2.2-5,5
				c0,0.6,0.2,1.1,0.3,1.6c-1.4,0.8-2.3,2.2-2.3,3.9c0,2.5,2,4.5,4.5,4.5c0.2,0,18.8,0,19,0c2.5,0,4.5-2,4.5-4.5
				c0-1.7-1-3.1-2.3-3.9c0.2-0.5,0.3-1,0.3-1.6c0-2.8-2.2-5-5-5c-0.8,0-1.6,0.3-2.3,0.6C249.1-236.9,247.2-238.5,245-238.5z"/>
			
				<linearGradient id="path12331_1_" gradientUnits="userSpaceOnUse" x1="959.6948" y1="31.5914" x2="973.7017" y2="22.5095" gradientTransform="matrix(0.9991 0 0 -1 -723.631 -201.9839)">
				<stop  offset="0" style="stop-color:#FFFFFF"/>
				<stop  offset="1" style="stop-color:#FFFFFF;stop-opacity:0"/>
			</linearGradient>
			<path id="path12331_7_" class="st19" d="M245-238c-2.2,0-3.7,1.3-4.4,3.8c-0.7-0.3-1.5-0.8-2.4-0.8c-2.7,0-4.8,1.9-4.8,4.5
				c0,0.5,0.3,1.3,0.4,1.8c-1.3,0.7-2.4,1.9-2.4,3.4c0,2.3,1.5,4.3,4.3,4.3c0.2,0,18.2,0,18.3,0c2.8,0,4.3-1.9,4.3-4.3
				c0-1.6-1.1-2.7-2.4-3.4c0.2-0.5,0.5-1.3,0.5-1.8c0-2.6-2.1-4.6-4.8-4.6c-0.8,0-1.6,0.5-2.3,0.8C248.8-236.6,247.2-238,245-238z"
				/>
			<path id="path12333_7_" class="st5" d="M248.5-233.5c0,1.9-1.6,3.5-3.5,3.5s-3.5-1.6-3.5-3.5s1.6-3.5,3.5-3.5
				S248.5-235.4,248.5-233.5L248.5-233.5z"/>
			
				<linearGradient id="path12335_1_" gradientUnits="userSpaceOnUse" x1="959.5657" y1="47.2102" x2="961.7247" y2="43.7794" gradientTransform="matrix(1.0557 0 0 -1.0566 -769.2608 -185.6669)">
				<stop  offset="0" style="stop-color:#FFFFFF"/>
				<stop  offset="1" style="stop-color:#FFFFFF;stop-opacity:0"/>
			</linearGradient>
			<path id="path12335_7_" class="st20" d="M248.5-233.5c0,1.9-1.6,3.5-3.5,3.5s-3.5-1.6-3.5-3.5s1.6-3.5,3.5-3.5
				S248.5-235.4,248.5-233.5L248.5-233.5z"/>
			<rect id="rect12337_7_" x="235.5" y="-231" class="st5" width="20" height="9"/>
			<path id="path12339_7_" class="st5" d="M238.5-225c0,1.7-1.3,3-3,3s-3-1.3-3-3s1.3-3,3-3C237.1-228,238.5-226.7,238.5-225
				L238.5-225z"/>
			<path id="path12341_7_" class="st5" d="M255.5-230.5c0,1.9-1.6,3.5-3.5,3.5s-3.5-1.6-3.5-3.5s1.6-3.5,3.5-3.5
				S255.5-232.4,255.5-230.5L255.5-230.5z"/>
			
				<linearGradient id="path12343_1_" gradientUnits="userSpaceOnUse" x1="958.5401" y1="48.7288" x2="961.8822" y2="43.5825" gradientTransform="matrix(1.0557 0 0 -1.0566 -762.2608 -182.6669)">
				<stop  offset="0" style="stop-color:#FFFFFF"/>
				<stop  offset="1" style="stop-color:#FFFFFF;stop-opacity:0"/>
			</linearGradient>
			<path id="path12343_7_" class="st21" d="M255.5-230.5c0,1.9-1.6,3.5-3.5,3.5s-3.5-1.6-3.5-3.5s1.6-3.5,3.5-3.5
				S255.5-232.4,255.5-230.5L255.5-230.5z"/>
			<path id="path12347_7_" class="st5" d="M241.5-230.5c0,1.9-1.6,3.5-3.5,3.5s-3.5-1.6-3.5-3.5s1.6-3.5,3.5-3.5
				S241.5-232.4,241.5-230.5L241.5-230.5z"/>
			
				<linearGradient id="path12349_1_" gradientUnits="userSpaceOnUse" x1="958.4048" y1="47.6833" x2="961.8552" y2="44.1872" gradientTransform="matrix(1.0557 0 0 -1.0566 -776.2608 -182.6669)">
				<stop  offset="0" style="stop-color:#FFFFFF"/>
				<stop  offset="1" style="stop-color:#FFFFFF;stop-opacity:0"/>
			</linearGradient>
			<path id="path12349_7_" class="st22" d="M241.5-230.5c0,1.9-1.6,3.5-3.5,3.5s-3.5-1.6-3.5-3.5s1.6-3.5,3.5-3.5
				S241.5-232.4,241.5-230.5L241.5-230.5z"/>
			<path id="path12351_7_" class="st5" d="M243.9-234c-3.6,0-6.5,2.9-6.5,6.5c0,2.4,1.3,4.3,3.3,5.5h6.5c1.9-1.1,3.3-3.1,3.3-5.5
				C250.4-231.1,247.5-234,243.9-234z"/>
			
				<linearGradient id="path12353_1_" gradientUnits="userSpaceOnUse" x1="966.562" y1="29.3899" x2="970.5955" y2="24.2032" gradientTransform="matrix(0.9991 0 0 -1 -724.631 -201.9839)">
				<stop  offset="0" style="stop-color:#FFFFFF"/>
				<stop  offset="1" style="stop-color:#FFFFFF;stop-opacity:0"/>
			</linearGradient>
			<path id="path12353_7_" class="st23" d="M244-234c-3.6,0-6.5,2.9-6.5,6.5c0,2.4,1.3,4.4,3.3,5.5h6.5c1.9-1.1,3.3-3.1,3.3-5.5
				C250.5-231.1,247.6-234,244-234z"/>
			
				<linearGradient id="path12355_1_" gradientUnits="userSpaceOnUse" x1="1007.7813" y1="-2.0608" x2="1010.881" y2="-4.8374" gradientTransform="matrix(0.9048 0 0 -0.9057 -678.0897 -228.429)">
				<stop  offset="0" style="stop-color:#FFFFFF"/>
				<stop  offset="1" style="stop-color:#FFFFFF;stop-opacity:0"/>
			</linearGradient>
			<path id="path12355_7_" class="st24" d="M238.5-225c0,1.7-1.3,3-3,3s-3-1.3-3-3s1.3-3,3-3S238.5-226.7,238.5-225L238.5-225z"/>
			<path id="path12357_7_" class="st17" d="M257.4-230.3c0,2.7-3.3,3.7-3.3,3.7s2.3-1.6,2.3-3.7H257.4z"/>
			<path id="path12359_7_" class="st5" d="M252.5-226c0,2.2-1.8,4-4,4s-4-1.8-4-4s1.8-4,4-4S252.5-228.2,252.5-226L252.5-226z"/>
			
				<linearGradient id="path12361_1_" gradientUnits="userSpaceOnUse" x1="920.6747" y1="85.8144" x2="924.7721" y2="81.4125" gradientTransform="matrix(1.2064 0 0 -1.2075 -866.4194 -126.9048)">
				<stop  offset="0" style="stop-color:#FFFFFF"/>
				<stop  offset="1" style="stop-color:#FFFFFF;stop-opacity:0"/>
			</linearGradient>
			<path id="path12361_7_" class="st25" d="M252.5-226c0,2.2-1.8,4-4,4s-4-1.8-4-4s1.8-4,4-4S252.5-228.2,252.5-226L252.5-226z"/>
		</g>
	</g>
	<g id="g12191_4_" transform="translate(-222.9549,261.0144)">
		<path id="path12193_4_" class="st0" d="M232.1-228.8c-1-0.6-1.4-1.9-0.8-2.9c1.3-2.1,3.1-1.5,4-3.7
			C236.6-234.1,236.1-227.2,232.1-228.8z"/>
		
			<radialGradient id="path12195_1_" cx="5557.1489" cy="-603.5421" r="21.7436" gradientTransform="matrix(7.065158e-02 4.154803e-02 6.201499e-02 -0.1094 -121.9855 -527.7231)" gradientUnits="userSpaceOnUse">
			<stop  offset="0" style="stop-color:#FFFFFF"/>
			<stop  offset="1" style="stop-color:#FFFFFF;stop-opacity:0"/>
		</radialGradient>
		<path id="path12195_4_" class="st26" d="M234.8-229.9c-0.5,0.9-1.6,1.2-2.4,0.7c-0.8-0.5-1.1-1.6-0.6-2.5s2.6-0.5,3.3-2.3
			C235.9-233.5,235.3-230.8,234.8-229.9z"/>
		
			<linearGradient id="path12197_1_" gradientUnits="userSpaceOnUse" x1="1179.0604" y1="4076.677" x2="1199.5665" y2="4098.1553" gradientTransform="matrix(-5.358613e-02 0.1028 9.281434e-02 5.937964e-02 -82.7074 -596.951)">
			<stop  offset="0" style="stop-color:#FFFFFF"/>
			<stop  offset="1" style="stop-color:#FFFFFF;stop-opacity:0"/>
		</linearGradient>
		<path id="path12197_4_" class="st27" d="M233.5-229c-4.6-1.1,0.2-4.7,1-3.9C230.9-231.6,233.5-229,233.5-229z"/>
	</g>
	<g id="g12239_20_" transform="translate(-193.9565,268.0066)">
		<path id="path12241_20_" class="st0" d="M227.1-228.8c-1-0.6-1.4-1.9-0.8-2.9c1.3-2.1,3.1-1.5,4-3.7
			C231.6-234.1,231.1-227.2,227.1-228.8z"/>
		
			<radialGradient id="path12243_1_" cx="5417.0767" cy="-630.6906" r="21.7436" gradientTransform="matrix(7.065158e-02 4.154803e-02 6.201499e-02 -0.1094 -115.4056 -524.8738)" gradientUnits="userSpaceOnUse">
			<stop  offset="0" style="stop-color:#FFFFFF"/>
			<stop  offset="1" style="stop-color:#FFFFFF;stop-opacity:0"/>
		</radialGradient>
		<path id="path12243_5_" class="st28" d="M229.8-229.9c-0.5,0.9-1.6,1.2-2.4,0.7c-0.8-0.5-1.1-1.6-0.6-2.5s2.6-0.5,3.3-2.3
			C230.9-233.5,230.3-230.8,229.8-229.9z"/>
		
			<linearGradient id="path12245_1_" gradientUnits="userSpaceOnUse" x1="1115.3917" y1="4029.2817" x2="1135.8978" y2="4050.7603" gradientTransform="matrix(-5.358613e-02 0.1028 9.281434e-02 5.937964e-02 -86.7202 -587.5913)">
			<stop  offset="0" style="stop-color:#FFFFFF"/>
			<stop  offset="1" style="stop-color:#FFFFFF;stop-opacity:0"/>
		</linearGradient>
		<path id="path12245_5_" class="st29" d="M228.5-229c-4.6-1.1,0.2-4.7,1-3.9C225.9-231.6,228.5-229,228.5-229z"/>
	</g>
	<path id="path12171_6_" class="st30" d="M21.7,28c0,0.8-0.7,1.5-1.5,1.5s-1.5-0.7-1.5-1.5s0.7-1.5,1.5-1.5S21.7,27.1,21.7,28z"/>
	<path id="path12161_5_" class="st31" d="M29.8,31.5c0,1.1-0.9,2-2,2s-2-0.9-2-2c0-1.1,0.9-2,2-2S29.8,30.4,29.8,31.5z"/>
	<path id="path12159_7_" class="st31" d="M13.8,37c0,0.8-0.7,1.5-1.5,1.5s-1.5-0.7-1.5-1.5s0.7-1.5,1.5-1.5S13.8,36.1,13.8,37z"/>
</g>
</svg>
