<?xml version="1.0" standalone="no"?>
<!DOCTYPE svg PUBLIC "-//W3C//DTD SVG 20010904//EN"
 "http://www.w3.org/TR/2001/REC-SVG-20010904/DTD/svg10.dtd">
<svg version="1.0" xmlns="http://www.w3.org/2000/svg"
 width="1024.000000pt" height="1024.000000pt" viewBox="0 0 1024.000000 1024.000000"
 preserveAspectRatio="xMidYMid meet">
<metadata>
Created by potrace 1.14, written by Peter Selinger 2001-2017
</metadata>
<g transform="translate(0.000000,1024.000000) scale(0.100000,-0.100000)"
fill="#000000" stroke="none">
<path d="M6135 9586 c-34 -15 -66 -49 -82 -86 -9 -21 -13 -86 -14 -187 -1
-310 3 -400 19 -430 18 -33 73 -71 111 -78 19 -3 38 -8 43 -11 4 -3 8 0 8 5 0
6 3 10 8 10 51 -8 113 51 126 121 1 3 4 10 7 15 3 6 4 21 2 35 -2 14 -3 36 -2
50 0 14 0 32 0 40 -1 8 -1 24 -1 35 1 11 1 26 1 33 -2 28 -2 40 -2 102 1 36 1
74 1 85 0 11 0 45 0 75 0 88 -19 137 -68 169 -42 28 -116 36 -157 17z"/>
<path d="M4289 9091 c-68 -31 -106 -101 -95 -171 3 -21 35 -87 70 -147 93
-157 112 -192 143 -252 41 -78 100 -138 146 -146 110 -21 201 58 193 168 -3
36 -24 83 -76 167 -14 23 -105 181 -127 220 -52 95 -85 139 -118 154 -48 23
-96 25 -136 7z"/>
<path d="M8007 9097 c-50 -12 -82 -46 -142 -152 -27 -48 -60 -104 -72 -124
-12 -20 -30 -52 -40 -71 -9 -19 -35 -64 -57 -99 -35 -55 -40 -72 -41 -122 0
-62 16 -94 69 -133 41 -31 131 -29 179 4 20 14 37 28 37 32 0 4 18 36 40 70
22 35 40 69 40 76 0 6 5 12 10 12 6 0 10 5 10 11 0 6 27 56 60 111 33 54 60
103 60 108 0 6 4 10 10 10 6 0 9 3 8 8 -1 4 6 22 16 40 10 19 16 50 15 70 -8
109 -98 175 -202 149z"/>
<path d="M2997 8524 c-3 -4 -41 -8 -84 -9 -43 -2 -91 -6 -108 -9 -16 -2 -50
-8 -75 -11 -42 -6 -187 -39 -220 -51 -8 -3 -15 -5 -15 -4 0 1 -22 -7 -50 -18
-54 -20 -76 -28 -87 -31 -4 -1 -39 -18 -78 -37 -39 -19 -75 -34 -79 -34 -5 0
-11 -3 -13 -8 -1 -4 -38 -28 -82 -52 -43 -25 -81 -51 -83 -57 -3 -7 -10 -13
-15 -13 -28 0 -233 -188 -323 -296 -22 -26 -46 -53 -52 -60 -7 -7 -13 -16 -13
-21 -1 -4 -14 -24 -30 -43 -17 -19 -30 -38 -30 -42 0 -4 -8 -17 -17 -28 -10
-11 -16 -23 -15 -27 2 -3 -1 -9 -6 -12 -13 -9 -92 -155 -92 -171 0 -7 -7 -21
-15 -30 -8 -9 -16 -25 -18 -36 -1 -10 -5 -23 -8 -29 -6 -9 -41 -110 -45 -127
-1 -5 -2 -9 -4 -10 -1 -2 -3 -10 -5 -18 -1 -8 -8 -33 -13 -55 -10 -37 -15 -57
-26 -125 -8 -43 -22 -151 -25 -187 -1 -7 -14 -11 -34 -9 -29 3 -108 -5 -188
-19 -110 -20 -296 -108 -397 -190 -37 -29 -120 -117 -157 -166 -43 -54 -105
-154 -110 -174 -2 -10 -12 -38 -38 -100 -6 -16 -12 -32 -13 -35 0 -3 -5 -30
-12 -60 -20 -97 -23 -124 -22 -205 1 -104 10 -178 29 -243 5 -18 11 -36 12
-40 8 -30 33 -95 52 -132 27 -52 62 -115 67 -120 3 -3 17 -21 30 -40 49 -72
188 -198 261 -237 l37 -19 -47 -24 c-151 -77 -369 -255 -459 -375 -40 -55 -92
-135 -92 -144 0 -5 -3 -11 -7 -13 -10 -4 -81 -147 -98 -198 -1 -3 -4 -12 -8
-20 -11 -28 -46 -155 -52 -190 -3 -19 -9 -55 -13 -80 -8 -53 -8 -308 1 -365
30 -198 98 -380 202 -545 69 -109 258 -308 332 -350 15 -8 32 -20 38 -26 12
-14 134 -84 195 -112 93 -42 222 -84 300 -96 19 -3 46 -8 60 -11 22 -4 207
-18 235 -17 6 1 62 1 125 1 63 0 128 0 144 1 23 0 27 -3 21 -17 -4 -10 -8 -25
-10 -33 -2 -8 -10 -42 -18 -75 -14 -54 -31 -165 -31 -205 0 -22 -21 -31 -79
-36 -120 -9 -253 -56 -356 -127 -59 -40 -159 -140 -198 -197 -36 -54 -90 -165
-98 -200 -2 -14 -11 -51 -19 -83 -9 -38 -13 -95 -11 -170 3 -108 5 -124 18
-157 3 -8 8 -28 12 -45 11 -52 70 -168 118 -230 114 -151 272 -250 459 -289
70 -15 406 -16 3560 -13 1916 1 3492 5 3503 9 11 4 47 14 80 22 121 29 246 87
355 164 67 48 186 162 230 220 46 61 120 187 120 205 0 9 5 17 10 17 6 0 10 8
10 18 0 9 7 30 15 46 9 16 16 40 17 53 1 12 5 23 9 23 3 0 6 6 6 13 0 6 4 28
8 47 19 100 23 146 20 260 -2 73 -10 152 -19 190 -9 36 -19 73 -21 83 -19 82
-109 264 -160 324 -5 6 -21 26 -35 44 -14 18 -49 57 -78 86 l-52 53 42 1 c24
1 46 1 49 1 54 -7 215 3 267 17 20 6 53 13 72 16 19 3 39 10 44 16 6 5 16 9
24 9 19 0 156 60 163 72 3 5 8 8 10 7 9 -8 151 96 210 154 81 79 125 133 181
227 42 71 103 212 112 262 3 13 5 23 6 23 2 0 9 29 15 65 3 14 8 77 11 141 12
216 -29 382 -147 597 -12 23 -31 51 -41 62 -10 10 -18 22 -18 25 0 12 -115
133 -175 185 -42 35 -166 116 -172 112 -3 -2 -9 0 -12 5 -8 11 -74 41 -141 65
-83 28 -166 46 -255 53 -91 7 -107 19 -104 75 1 19 -2 53 -6 75 -5 22 -9 51
-11 65 -1 14 -3 25 -4 25 -1 0 -3 9 -4 20 -6 47 -47 205 -63 245 -4 8 -7 17
-8 20 -6 24 -21 62 -37 100 -11 24 -21 49 -23 55 -4 19 -19 50 -45 95 -15 25
-26 47 -26 50 2 14 -171 274 -193 290 -4 3 -25 27 -46 55 -22 27 -57 66 -79
85 -35 33 -67 80 -66 97 1 8 -10 92 -15 123 -2 8 -6 36 -9 63 -4 26 -11 58
-16 72 -5 14 -7 25 -4 25 4 0 1 6 -5 13 -6 8 -8 17 -5 20 4 4 2 19 -4 34 -6
15 -20 62 -32 103 -13 41 -29 89 -36 107 -8 17 -14 33 -14 36 0 3 -5 18 -12
34 -6 15 -12 30 -13 33 0 3 -13 31 -28 63 -15 32 -27 60 -27 62 0 3 -11 23
-25 45 -14 22 -23 40 -20 40 3 0 -11 25 -30 55 -19 30 -35 59 -35 65 0 5 -4
10 -10 10 -5 0 -10 6 -10 13 0 6 -18 36 -40 65 -22 28 -37 52 -34 52 3 0 -1 6
-8 13 -7 8 -26 31 -43 52 -109 141 -217 255 -340 360 -38 33 -76 66 -83 73 -7
6 -17 12 -20 12 -4 0 -18 10 -32 23 -69 62 -393 247 -505 287 -11 4 -31 12
-45 18 -72 30 -162 60 -199 67 -9 2 -16 4 -16 5 0 1 -7 3 -15 5 -8 1 -35 8
-60 15 -25 7 -54 14 -65 16 -11 2 -42 8 -70 13 -73 15 -113 21 -175 27 -30 3
-73 7 -95 9 -66 7 -294 7 -305 0 -5 -3 -10 0 -10 7 0 8 -3 9 -8 3 -8 -12 -4
-11 -102 -19 -41 -4 -86 -9 -100 -11 -72 -11 -107 -17 -122 -21 -9 -3 -25 -7
-35 -9 -10 -2 -36 -9 -58 -15 -22 -6 -51 -13 -65 -16 -14 -2 -47 -12 -75 -21
-27 -10 -53 -17 -57 -18 -3 0 -10 -3 -14 -7 -4 -5 -14 -8 -22 -8 -8 0 -28 -6
-45 -14 -18 -8 -61 -27 -97 -41 -115 -47 -363 -185 -424 -237 -6 -4 -41 -30
-77 -57 -36 -27 -81 -63 -99 -80 -28 -25 -35 -27 -46 -16 -8 7 -14 20 -14 28
0 9 -3 17 -7 19 -5 2 -21 29 -38 61 -16 32 -37 66 -46 76 -9 10 -23 29 -30 42
-77 138 -310 360 -517 494 -68 43 -248 134 -275 139 -7 1 -21 7 -32 13 -20 11
-179 59 -224 68 -13 2 -30 6 -39 9 -16 4 -44 9 -127 22 -16 2 -61 6 -98 8 -38
2 -71 6 -74 9 -3 3 -15 2 -27 -3 -12 -4 -29 -4 -38 1 -8 5 -18 6 -21 3z"/>
<path d="M9350 7736 c-5 -5 -10 -7 -10 -2 0 4 -13 -2 -29 -13 -16 -12 -34 -21
-39 -21 -6 0 -12 -3 -14 -7 -3 -8 -66 -44 -115 -67 -13 -6 -23 -14 -23 -18 0
-5 -4 -8 -10 -8 -5 0 -44 -20 -86 -45 -41 -25 -78 -45 -81 -45 -3 0 -25 -16
-49 -35 -28 -24 -47 -49 -55 -74 -14 -47 -4 -130 17 -138 8 -3 14 -11 14 -17
0 -7 20 -23 45 -36 33 -17 54 -21 85 -17 36 5 137 49 150 66 3 3 24 15 47 26
24 11 43 23 43 28 0 4 6 7 14 7 8 0 21 6 28 13 15 15 49 31 61 29 4 -1 7 2 7
6 0 5 32 26 71 47 101 56 130 89 143 162 9 46 -31 121 -80 149 -44 26 -113 31
-134 10z"/>
<path d="M9375 5893 c-35 -9 -85 -53 -99 -88 -22 -51 -14 -117 17 -158 35 -46
81 -66 148 -65 30 1 60 -1 66 -5 7 -4 14 -3 18 3 4 6 12 7 24 1 9 -5 23 -6 30
-1 8 4 26 4 42 0 15 -5 30 -6 33 -2 8 7 69 7 89 -1 10 -4 17 -2 17 3 0 6 9 6
24 0 13 -5 27 -6 30 -3 5 6 66 6 101 1 22 -3 88 37 111 67 26 35 38 93 28 138
-7 34 -62 93 -99 107 -26 10 -540 13 -580 3z"/>
</g>
</svg>
