<svg xmlns="http://www.w3.org/2000/svg" viewBox="0 0 48 48"><defs><style>.a{fill:#74acdf;}.b{fill:#fff;}.c,.d,.e,.f,.h{fill:#f6b40e;stroke:#85340a;stroke-width:0.15px;}.g{fill:#85340a;}.i{fill:#843511;}</style></defs><title>fi_ar</title><circle class="a" cx="24" cy="24" r="24"/><path class="b" d="M48,24a23.5946,23.5946,0,0,1-1.38,8H1.38a23.8784,23.8784,0,0,1,0-16H46.62A23.5946,23.5946,0,0,1,48,24Z"/><path class="c" d="M23.6966,24.1258l2.7316,5.9512s.047.1138.1229.0824.0287-.1451.0287-.1451l-2.2767-6.14M24.2379,26.19c-.0333.9051.5234,1.4029.4506,2.2111a2.878,2.878,0,0,0,.4742,1.58c.1031.3144-.1113.5023-.019.547s.2947-.2036.2288-.65-.4051-.58-.3254-1.5667-.4038-1.2171-.2861-2.1176"/><path class="d" d="M23.6716,24l.2462,6.5436s0,.123.082.1231.082-.1231.082-.1231L24.3281,24m-.9464,2.1143c-.3771.8234-.0533,1.4964-.43,2.2152a2.877,2.877,0,0,0-.1664,1.6408c-.0251.33-.2951.4215-.2269.4981s.35-.0753.46-.5134-.1525-.69.2989-1.572.0927-1.2789.5461-2.0658"/><path class="e" d="M23.6966,23.8744l-2.2767,6.14s-.0472.1137.0286.1452.1229-.0824.1229-.0824l2.7317-5.9513M22.62,25.7168c-.6635.6165-.6218,1.3621-1.2448,1.8821a2.876,2.876,0,0,0-.7816,1.4523c-.1494.2951-.434.2764-.4.3733s.3524.0645.6217-.2981.1234-.6963.8778-1.338.5751-1.1461,1.295-1.7"/><path class="f" d="M23.7677,23.7679,19.3148,28.569s-.0871.0869-.0291.145.145-.029.145-.029l4.8012-4.4529m-2.1642.8258c-.8489.3156-1.0958,1.02-1.87,1.2624A2.8778,2.8778,0,0,0,18.92,27.3629c-.251.2155-.5067.0894-.5127.1918s.3009.1944.6885-.0375.38-.5961,1.323-.9.97-.8388,1.8469-1.0747"/><path class="g" d="M24.4138,26.3434c.0435.8691.5363,1.254.44,2.0461.2125-.6264-.3-1.112-.2707-2.0371m-.7343-2.2807,1.8708,4.0874L24.1515,23.946"/><path class="g" d="M23.4855,26.3233c-.2924.82.0156,1.3639-.3769,2.0586.436-.4974.1485-1.142.5294-1.9856m.1944-2.3881L23.9966,28.5l.164-4.4924"/><path class="g" d="M22.6356,25.95c-.5839.6453-.5075,1.266-1.1361,1.7576.5932-.2926.5743-.9983,1.2491-1.6319m1.0934-2.1318-1.5674,4.213,1.8707-4.0876"/><path class="g" d="M21.9934,25.279c-.7864.3729-.9534.9754-1.7222,1.1892.66-.0435.9126-.7026,1.7784-1.03m1.8261-1.5512-3.06,3.2925,3.2926-3.0605"/><path class="c" d="M23.8742,23.6966,17.923,26.4282s-.1138.047-.0824.1229.1451.0287.1451.0287l6.14-2.2767M21.81,24.2379c-.9051-.0333-1.4029.5234-2.2111.4506a2.878,2.878,0,0,0-1.58.4742c-.3144.1031-.5023-.1113-.547-.019s.2036.2947.65.2288.58-.4051,1.5667-.3254,1.2171-.4038,2.1176-.2861"/><path class="f" d="M24,23.6716l-6.5436.2462s-.123,0-.1231.082.1231.082.1231.082L24,24.3281m-2.1143-.9464c-.8234-.3771-1.4964-.0533-2.2152-.43a2.877,2.877,0,0,0-1.6408-.1664c-.33-.0251-.4215-.2951-.4981-.2269s.0753.35.5134.46.69-.1525,1.572.2989,1.2789.0927,2.0658.5461"/><path class="e" d="M24.1256,23.6966l-6.14-2.2767s-.1137-.0472-.1452.0286.0824.1229.0824.1229l5.9513,2.7317M22.2832,22.62c-.6165-.6635-1.3621-.6218-1.8821-1.2448a2.876,2.876,0,0,0-1.4523-.7816c-.2951-.1494-.2764-.434-.3733-.4s-.0645.3524.2981.6217.6963.1234,1.338.8778,1.1461.5751,1.7,1.295"/><path class="d" d="M24.2321,23.7677,19.431,19.3148s-.0869-.0871-.145-.0291.029.145.029.145l4.4529,4.8012m-.8258-2.1642c-.3156-.8489-1.02-1.0958-1.2624-1.87A2.8778,2.8778,0,0,0,20.6371,18.92c-.2155-.251-.0894-.5067-.1918-.5127s-.1944.3009.0375.6885.5961.38.9,1.323.8388.97,1.0747,1.8469"/><path class="g" d="M21.6566,24.4138c-.8691.0435-1.254.5363-2.0461.44.6264.2125,1.112-.3,2.0371-.2707m2.2807-.7343-4.0874,1.8708,4.2131-1.5676"/><path class="g" d="M21.6767,23.4855c-.82-.2924-1.3639.0156-2.0586-.3769.4974.436,1.142.1485,1.9856.5294m2.3881.1944L19.5,23.9966l4.4924.164"/><path class="g" d="M22.05,22.6356c-.6453-.5839-1.266-.5075-1.7576-1.1361.2926.5932.9983.5743,1.6319,1.2491m2.1318,1.0934-4.213-1.5674,4.0876,1.8707"/><path class="g" d="M22.721,21.9934c-.3729-.7864-.9754-.9534-1.1892-1.7222.0435.66.7026.9126,1.03,1.7784m1.5512,1.8261-3.2925-3.06,3.0605,3.2926"/><path class="c" d="M24.3034,23.8742,21.5718,17.923s-.047-.1138-.1229-.0824-.0287.1451-.0287.1451l2.2767,6.14m.0652-2.3155c.0333-.9051-.5234-1.4029-.4506-2.2111a2.878,2.878,0,0,0-.4742-1.58c-.1031-.3144.1113-.5023.019-.547s-.2947.2036-.2288.65.4051.58.3254,1.5667.4038,1.2171.2861,2.1176"/><path class="d" d="M24.3284,24l-.2462-6.5436s0-.123-.082-.1231-.082.1231-.082.1231L23.6719,24m.9464-2.1143c.3771-.8234.0533-1.4964.43-2.2152a2.877,2.877,0,0,0,.1664-1.6408c.0251-.33.2951-.4215.2269-.4981s-.35.0753-.46.5134.1525.69-.2989,1.572-.0927,1.2789-.5461,2.0658"/><path class="e" d="M24.3034,24.1256l2.2767-6.14s.0472-.1137-.0286-.1452-.1229.0824-.1229.0824l-2.7317,5.9513M25.38,22.2832c.6635-.6165.6218-1.3621,1.2448-1.8821a2.876,2.876,0,0,0,.7816-1.4523c.1494-.2951.434-.2764.4-.3733s-.3524-.0645-.6217.2981-.1234.6963-.8778,1.338-.5751,1.1461-1.295,1.7"/><path class="f" d="M24.2323,24.2321l4.4529-4.8011s.0871-.0869.0291-.145-.145.029-.145.029l-4.8012,4.4529m2.1642-.8258c.8489-.3156,1.0958-1.02,1.87-1.2624a2.8778,2.8778,0,0,0,1.2779-1.0426c.251-.2155.5067-.0894.5127-.1918s-.3009-.1944-.6885.0375-.38.5961-1.323.9-.97.8388-1.8469,1.0747"/><path class="g" d="M23.5862,21.6566c-.0435-.8691-.5363-1.254-.44-2.0461-.2125.6264.3,1.112.2707,2.0371m.7343,2.2807-1.8708-4.0874,1.5676,4.2131"/><path class="g" d="M24.5145,21.6767c.2924-.82-.0156-1.3639.3769-2.0586-.436.4974-.1485,1.142-.5294,1.9856m-.1944,2.3881L24.0034,19.5l-.164,4.4924"/><path class="g" d="M25.3644,22.05c.5839-.6453.5075-1.266,1.1361-1.7576-.5932.2926-.5743.9983-1.2491,1.6319M24.158,24.0565l1.5674-4.213-1.8707,4.0876"/><path class="g" d="M26.0066,22.721c.7864-.3729.9534-.9754,1.7222-1.1892-.66.0435-.9126.7026-1.7784,1.03m-1.8261,1.5512,3.06-3.2925-3.2926,3.0605"/><path class="c" d="M24.1258,24.3034l5.9512-2.7316s.1138-.047.0824-.1229-.1451-.0287-.1451-.0287l-6.14,2.2767m2.3155.0652c.9051.0333,1.4029-.5234,2.2111-.4506a2.878,2.878,0,0,0,1.58-.4742c.3144-.1031.5023.1113.547.019s-.2036-.2947-.65-.2288-.58.4051-1.5667.3254-1.2171.4038-2.1176.2861"/><path class="h" d="M24,24.3284l6.5436-.2462s.123,0,.1231-.082-.1231-.082-.1231-.082L24,23.6719m2.1143.9464c.8234.3771,1.4964.0533,2.2152.43a2.877,2.877,0,0,0,1.6408.1664c.33.0251.4215.2951.4981.2269s-.0753-.35-.5134-.46-.69.1525-1.572-.2989-1.2789-.0927-2.0658-.5461"/><path class="e" d="M23.8744,24.3034l6.14,2.2767s.1137.0472.1452-.0286-.0824-.1229-.0824-.1229l-5.9513-2.7317M25.7168,25.38c.6165.6635,1.3621.6218,1.8821,1.2448a2.876,2.876,0,0,0,1.4523.7816c.2951.1494.2764.434.3733.4s.0645-.3524-.2981-.6217-.6963-.1234-1.338-.8778-1.1461-.5751-1.7-1.295"/><path class="d" d="M23.7679,24.2323l4.8011,4.4529s.0869.0871.145.0291-.029-.145-.029-.145l-4.4529-4.8012m.8258,2.1642c.3156.8489,1.02,1.0958,1.2624,1.87a2.8778,2.8778,0,0,0,1.0426,1.2779c.2155.251.0894.5067.1918.5127s.1944-.3009-.0375-.6885-.5961-.38-.9-1.323-.8388-.97-1.0747-1.8469"/><path class="g" d="M26.3434,23.5862c.8691-.0435,1.254-.5363,2.0461-.44-.6264-.2125-1.112.3-2.0371.2707m-2.2807.7343,4.0874-1.8708L23.946,23.8485"/><path class="g" d="M26.3233,24.5145c.82.2924,1.3639-.0156,2.0586.3769-.4974-.436-1.142-.1485-1.9856-.5294m-2.3881-.1944L28.5,24.0034l-4.4924-.164"/><path class="g" d="M25.95,25.3644c.6453.5839,1.266.5075,1.7576,1.1361-.2926-.5932-.9983-.5743-1.6319-1.2491M23.9435,24.158l4.213,1.5674-4.0876-1.8707"/><path class="g" d="M25.279,26.0066c.3729.7864.9754.9534,1.1892,1.7222-.0435-.66-.7026-.9126-1.03-1.7784m-1.5512-1.8261,3.2925,3.06-3.0605-3.2926"/><circle class="c" cx="24" cy="24" r="2.6667"/><path class="g" d="M23.592,24.3686a.1846.1846,0,0,0,.036.366.1814.1814,0,0,0,.15-.078.3889.3889,0,0,0,.222.06c.0081,0,.0185,0,.024,0a.3889.3889,0,0,0,.222-.06.1814.1814,0,0,0,.15.078.1846.1846,0,0,0,.036-.366.1236.1236,0,1,1-.165.123.28.28,0,0,1-.51,0,.1231.1231,0,1,1-.165-.123Z"/><path class="g" d="M23.7926,24.9149c-.2052,0-.2863.1859-.471.309a3.693,3.693,0,0,0,.327-.204c.1437-.082.2661.018.348.018H24c.0819,0,.2044-.1.348-.018a3.67,3.67,0,0,0,.33.204c-.1846-.1231-.2687-.309-.474-.309a.5508.5508,0,0,0-.204.063h-.003A.5479.5479,0,0,0,23.7926,24.9149Z"/><path class="g" d="M23.7235,25.1578a1.4066,1.4066,0,0,0-.342.066c.3694-.0821.4509.042.615.042H24c.1642,0,.2457-.1241.615-.042a1.0938,1.0938,0,0,0-.615-.042h-.003a2.209,2.209,0,0,0-.273-.024Z"/><path class="g" d="M23.4,25.2211c-.0238,0-.05,0-.078.003.4308.0411.2237.288.675.288H24c.4513,0,.2471-.2469.678-.288-.4513-.0409-.3086.225-.678.225h-.003c-.3463,0-.24-.2324-.597-.228Z"/><path class="g" d="M24.37,25.8874a.3693.3693,0,1,0-.7385,0,.38.38,0,0,1,.7385,0Z"/><path class="g" d="M22.3421,23.4259a1.0645,1.0645,0,0,1,1.3949-.164.8041.8041,0,0,1,.1529.3427.9925.9925,0,0,1-.2147.7445.1541.1541,0,0,1,.0823.041,1.4609,1.4609,0,0,0,.167-.9356,1.3283,1.3283,0,0,0-.0643-.2338.9823.9823,0,0,0-1.5178.2052Z"/><path class="g" d="M25.6819,23.4259a1.0645,1.0645,0,0,0-1.3949-.164.8041.8041,0,0,0-.1529.3427.9925.9925,0,0,0,.2147.7445.1541.1541,0,0,0-.0823.041,1.4609,1.4609,0,0,1-.167-.9356,1.3283,1.3283,0,0,1,.0643-.2338.9823.9823,0,0,1,1.5178.2052Z"/><path class="g" d="M25.4362,23.7542a.8066.8066,0,0,1-.9026.1231c-.2051-.1231-.2051-.164-.1642-.164s.0819.0409.2461.123a1.0123,1.0123,0,0,0,.82-.082Z"/><path class="g" d="M22.5878,23.7542a.8066.8066,0,0,0,.9026.1231c.2051-.1231.2051-.164.1642-.164s-.0819.0409-.2461.123a1.0123,1.0123,0,0,1-.82-.082Z"/><path class="g" d="M23.08,23.303a.5442.5442,0,0,1,.4513.1642.5343.5343,0,0,0,.2051.1026c.02.02,0,.082-.0409.0614a1.1765,1.1765,0,0,1-.2461-.164.5121.5121,0,0,0-.3693-.1026c-.3692,0-.5743.3076-.6153.2871s.2052-.3487.6153-.3487Z"/><path class="g" d="M24.9437,23.303a.5442.5442,0,0,0-.4513.1642.5343.5343,0,0,1-.2051.1026c-.02.02,0,.082.0409.0614a1.1765,1.1765,0,0,0,.2461-.164.5121.5121,0,0,1,.3693-.1026c.3692,0,.5743.3076.6153.2871s-.2052-.3487-.6153-.3487Z"/><path class="i" d="M24.9091,23.43a.5275.5275,0,0,0-.459.243.835.835,0,0,0,.966-.021.7039.7039,0,0,0-.507-.222Zm-.003.042c.1773-.0033.3429.0781.366.159a.541.541,0,0,1-.738.042.4324.4324,0,0,1,.372-.201Z"/><path class="i" d="M23.0677,23.43a.5276.5276,0,0,0-.459.243.835.835,0,0,0,.966-.021.7039.7039,0,0,0-.507-.222Zm-.003.042c.1773-.0033.3429.0781.366.159a.5409.5409,0,0,1-.7379.042.4321.4321,0,0,1,.3719-.201Z"/><circle class="g" cx="24.9026" cy="23.6304" r="0.1846"/><circle class="g" cx="23.0918" cy="23.6304" r="0.1846"/></svg>