<svg xmlns="http://www.w3.org/2000/svg" viewBox="0 0 48 48"><defs><style>.a{fill:red;fill-rule:evenodd;}</style></defs><title>fi_al</title><path class="a" d="M24,0h0A24,24,0,1,0,48,24,24.0062,24.0062,0,0,0,24,0Z"/><path d="M37.04,29.21c-.42-.5-.89-.53-1.48.1-.62.02-1.05.03-1.67.05.34-.28.51-.49.84-.77.51.16,1.01.1,1.23-.47a.9308.9308,0,0,1,.77-.32.8408.8408,0,0,0-1.06-.09c-.78-.35-.85.15-.98.47-.53.35-.96.64-1.48.99-1.08-.32-1.95-.49-3.02-.8.23-.24.47-.46.7-.71.06-.2-.05-.3-.22-.33a3.84,3.84,0,0,1-3.33-2.78c-.26-.73.29-.94.48-.5a3.5841,3.5841,0,0,0,1.32,1.82c.27.18,1.07.04.6-.4a2.153,2.153,0,0,1-.95-1.53c0-.48.51-.7.79-.24a4.4642,4.4642,0,0,0,.88,1.99,2.1829,2.1829,0,0,0,1.23.77c.48-.01.97-.52.32-.89a2.0652,2.0652,0,0,1-1.43-1.36c-.16-.84.01-1.25.53-.84.74.82,2.15,2.35,2.88,3.06a1.9409,1.9409,0,0,0,2.53.01c.44-.48.28-1.01-.39-.89-1.53.12-2.69-.62-3.96-2.62-.25-.46-.31-1.11.24-.62a5.5886,5.5886,0,0,0,2.41,1.85c.86.3,1.65.2,1.84-.13.32-.54.25-1.14-.33-.94a2.7626,2.7626,0,0,1-1.83-.06,5.4852,5.4852,0,0,1-2.18-1.81c-.26-.54-.18-1.01.35-.73,1.26,1.05,2.88,1.89,3.7,1.38.61-.37.62-1.32-.15-1.26-1.55.21-2.14-.13-3.63-1.42-.35-.25-.32-.88.22-.47,1.26.79,2.97,1.1,3.64.68.61-.37.52-1.5-.5-1.1-.82.49-1.72.47-3.53-.79-.45-.37-.11-.85.26-.65,1.45.81,3.57,1.16,4.12-.48.22-.64-.17-1-.74-.57a2.6361,2.6361,0,0,1-3.45.01c-.21-.01-.65-.79.08-.67,1.9.42,3.77.06,4.1-1.26.2-.42-.18-1.17-.87-.54a3.8551,3.8551,0,0,1-3.09.9c-.61-.13-.62-.79-.1-.89a5.527,5.527,0,0,0,2.65-.8,2.9365,2.9365,0,0,0,1.54-1.8c.12-.72-.59-1.49-1.02-.73a5.02,5.02,0,0,1-3.59,2.37c-.08-.13-.28-.48-.53-.38a26.8787,26.8787,0,0,0-3.23,1.51c-.23.12.04.73.09.96a1.56,1.56,0,0,1-.32,1.19,1.1935,1.1935,0,0,1-.98.29c-.58-.16-.89-.66-.79-1.54a2.0984,2.0984,0,0,1,.52-1.08,3.7423,3.7423,0,0,1,1.09-.92,9.0655,9.0655,0,0,1,2.28-.65c.58-.12.87-.34.91-.57-.28.06-.73.3-1.04.24a1.3657,1.3657,0,0,1-.57-.28,6.5251,6.5251,0,0,1,.98.01,5.4919,5.4919,0,0,0,.89-.11,1.289,1.289,0,0,0,1-.66c.09-.44-.2-.52-.47-.24a3.626,3.626,0,0,1-.43.44,1.58,1.58,0,0,1-.57.24,2.7265,2.7265,0,0,1-1.18.02,2.2685,2.2685,0,0,1,.48-.41.8153.8153,0,0,1,.54-.14.6321.6321,0,0,1,.39.31c.08-.48-.06-1.01-1.36-.79.02-.36-.75-.52-1.22-.51a4.0287,4.0287,0,0,0-1.2.34,8.3248,8.3248,0,0,1-1.95.38,8.77,8.77,0,0,0,.92.66,3.0229,3.0229,0,0,0-1.35,1.02,3.6028,3.6028,0,0,1,.93.06,3.0594,3.0594,0,0,0-1.53.77,3.23,3.23,0,0,1,.45.09c.1.04.06.09-.01.16-.17.11-.85.91-1.05,1.09-.2-.18-.88-.98-1.05-1.09-.07-.07-.11-.12-.01-.16a3.23,3.23,0,0,1,.45-.09,3.0594,3.0594,0,0,0-1.53-.77,3.6028,3.6028,0,0,1,.93-.06,3.0229,3.0229,0,0,0-1.35-1.02,8.77,8.77,0,0,0,.92-.66,8.3248,8.3248,0,0,1-1.95-.38,4.0287,4.0287,0,0,0-1.2-.34c-.47-.01-1.24.15-1.22.51-1.3-.22-1.44.31-1.36.79a.6321.6321,0,0,1,.39-.31.8153.8153,0,0,1,.54.14,2.2685,2.2685,0,0,1,.48.41,2.7265,2.7265,0,0,1-1.18-.02,1.58,1.58,0,0,1-.57-.24,3.626,3.626,0,0,1-.43-.44c-.27-.28-.56-.2-.47.24a1.289,1.289,0,0,0,1,.66,5.4919,5.4919,0,0,0,.89.11,6.5251,6.5251,0,0,1,.98-.01,1.3657,1.3657,0,0,1-.57.28c-.31.06-.76-.18-1.04-.24.04.23.33.45.91.57a9.0655,9.0655,0,0,1,2.28.65,3.7423,3.7423,0,0,1,1.09.92,2.0984,2.0984,0,0,1,.52,1.08c.1.88-.21,1.38-.79,1.54a1.1935,1.1935,0,0,1-.98-.29,1.56,1.56,0,0,1-.32-1.19c.05-.23.32-.84.09-.96a26.8787,26.8787,0,0,0-3.23-1.51c-.25-.1-.45.25-.53.38a5.02,5.02,0,0,1-3.59-2.37c-.43-.76-1.14.01-1.02.73a2.9365,2.9365,0,0,0,1.54,1.8,5.527,5.527,0,0,0,2.65.8c.52.1.51.76-.1.89a3.8551,3.8551,0,0,1-3.09-.9c-.69-.63-1.07.12-.87.54.33,1.32,2.2,1.68,4.1,1.26.73-.12.29.66.08.67a2.6361,2.6361,0,0,1-3.45-.01c-.57-.43-.96-.07-.74.57.55,1.64,2.67,1.29,4.12.48.37-.2.71.28.26.65-1.81,1.26-2.71,1.28-3.53.79-1.02-.4-1.11.73-.5,1.1.67.42,2.38.11,3.64-.68.54-.41.57.22.22.47-1.49,1.29-2.08,1.63-3.63,1.42-.77-.06-.76.89-.15,1.26.82.51,2.44-.33,3.7-1.38.53-.28.61.19.35.73a5.4852,5.4852,0,0,1-2.18,1.81,2.7626,2.7626,0,0,1-1.83.06c-.58-.2-.65.4-.33.94.19.33.98.43,1.84.13a5.5886,5.5886,0,0,0,2.41-1.85c.55-.49.49.16.24.62-1.27,2-2.43,2.74-3.96,2.62-.67-.12-.83.41-.39.89a1.9409,1.9409,0,0,0,2.53-.01c.73-.71,2.14-2.24,2.88-3.06.52-.41.69,0,.53.84a2.0652,2.0652,0,0,1-1.43,1.36c-.65.37-.16.88.32.89a2.1829,2.1829,0,0,0,1.23-.77,4.4642,4.4642,0,0,0,.88-1.99c.28-.46.79-.24.79.24a2.153,2.153,0,0,1-.95,1.53c-.47.44.33.58.6.4a3.5841,3.5841,0,0,0,1.32-1.82c.19-.44.74-.23.48.5a3.84,3.84,0,0,1-3.33,2.78c-.17.03-.28.13-.22.33.23.25.47.47.7.71-1.07.31-1.94.48-3.02.8-.52-.35-.95-.64-1.48-.99-.13-.32-.2-.82-.98-.47a.8408.8408,0,0,0-1.06.09.9308.9308,0,0,1,.77.32c.22.57.72.63,1.23.47.33.28.5.49.84.77-.62-.02-1.05-.03-1.67-.05-.59-.63-1.06-.6-1.48-.1a.6944.6944,0,0,0-.68.44c.34-.14.56-.18.71-.03.63.37,1.04.29,1.35,0,.6.04,1.15.07,1.75.11-.22.19-.52.29-.75.48-.9-.26-1.38.09-1.54.83a1.6526,1.6526,0,0,0-.12.93,1.1378,1.1378,0,0,1,.49-.7c.8.2,1.11-.13,1.15-.61.39-.32.98-.39,1.37-.71.46.14.68.23,1.14.38a.8445.8445,0,0,0,1.13.56c.71.03.58.32.64.55a.6439.6439,0,0,0-.25-.96.6351.6351,0,0,0-.98-.38c-.44-.12-.55-.3-.99-.43,1.1-.35,1.88-.43,2.98-.78.28.26.5.45.77.68.15.09.29.11.38,0a21.1436,21.1436,0,0,1,1.63-2.53,2.3132,2.3132,0,0,1,.9-.73.5132.5132,0,0,1,.52.13,1.0079,1.0079,0,0,1,.19.82,2.6732,2.6732,0,0,1-.36,1.1,4.3282,4.3282,0,0,1-.57.83,4.7259,4.7259,0,0,1-1.26,1.05c-.64.41-.91.23-1.4.2-.64.07-.81.38-.28.81a1.8837,1.8837,0,0,0,1.28.22c.3-.05.66-.45.92-.66.28-.33.76.06.43.45a2.5469,2.5469,0,0,1-1.9,1.15c-.77.1-.62.53-.12.74a2.01,2.01,0,0,0,2.16-.79c.32-.36.55-.37.49.18-.32.99-.76,1.37-1.47,1.42-.58-.06-.59.39-.16.69.96.67,1.66-.47,1.99-1.15.23-.62.59-.33.63.18A2.4778,2.4778,0,0,1,22,35.62c.63,1.01,1.37,2.04,2,3.05.63-1.01,1.37-2.04,2-3.05a2.4778,2.4778,0,0,1-1.13-1.94c.04-.51.4-.8.63-.18.33.68,1.03,1.82,1.99,1.15.43-.3.42-.75-.16-.69-.71-.05-1.15-.43-1.47-1.42-.06-.55.17-.54.49-.18a2.01,2.01,0,0,0,2.16.79c.5-.21.65-.64-.12-.74a2.5469,2.5469,0,0,1-1.9-1.15c-.33-.39.15-.78.43-.45.26.21.62.61.92.66a1.8837,1.8837,0,0,0,1.28-.22c.53-.43.36-.74-.28-.81-.49.03-.76.21-1.4-.2a4.7259,4.7259,0,0,1-1.26-1.05,4.3282,4.3282,0,0,1-.57-.83,2.6732,2.6732,0,0,1-.36-1.1,1.0079,1.0079,0,0,1,.19-.82.5132.5132,0,0,1,.52-.13,2.3132,2.3132,0,0,1,.9.73,21.1436,21.1436,0,0,1,1.63,2.53c.09.11.23.09.38,0,.27-.23.49-.42.77-.68,1.1.35,1.88.43,2.98.78-.44.13-.55.31-.99.43a.6351.6351,0,0,0-.98.38.6439.6439,0,0,0-.25.96c.06-.23-.07-.52.64-.55a.8445.8445,0,0,0,1.13-.56c.46-.15.68-.24,1.14-.38.39.32.98.39,1.37.71.04.48.35.81,1.15.61a1.1378,1.1378,0,0,1,.49.7,1.6526,1.6526,0,0,0-.12-.93c-.16-.74-.64-1.09-1.54-.83-.23-.19-.53-.29-.75-.48.6-.04,1.15-.07,1.75-.11.31.29.72.37,1.35,0,.15-.15.37-.11.71.03A.6944.6944,0,0,0,37.04,29.21ZM28.72,10.17c.38,0,.62.12.62.27,0,.17-.24.31-.62.31s-.61-.13-.61-.29S28.34,10.17,28.72,10.17Zm-9.44.58c-.38,0-.62-.14-.62-.31,0-.15.24-.27.62-.27s.61.13.61.29S19.66,10.75,19.28,10.75Z"/></svg>