<?xml version="1.0" encoding="utf-8"?>
<!-- Generator: Adobe Illustrator 24.0.1, SVG Export Plug-In . SVG Version: 6.00 Build 0)  -->
<svg version="1.1"
	 id="svg1306" xmlns:cc="http://creativecommons.org/ns#" xmlns:dc="http://purl.org/dc/elements/1.1/" xmlns:inkscape="http://www.inkscape.org/namespaces/inkscape" xmlns:rdf="http://www.w3.org/1999/02/22-rdf-syntax-ns#" xmlns:sodipodi="http://sodipodi.sourceforge.net/DTD/sodipodi-0.dtd" xmlns:svg="http://www.w3.org/2000/svg"
	 xmlns="http://www.w3.org/2000/svg" xmlns:xlink="http://www.w3.org/1999/xlink" x="0px" y="0px" viewBox="0 0 48 48"
	 style="enable-background:new 0 0 48 48;" xml:space="preserve">
<style type="text/css">
	.st0{fill-rule:evenodd;clip-rule:evenodd;fill:#FFFFFF;}
	.st1{fill-rule:evenodd;clip-rule:evenodd;fill:#0072C6;}
	.st2{fill-rule:evenodd;clip-rule:evenodd;}
	.st3{fill-rule:evenodd;clip-rule:evenodd;fill:#CE1126;}
	.st4{fill-rule:evenodd;clip-rule:evenodd;fill:#FCD116;}
</style>
<g>
	<circle class="st0" cx="24" cy="24" r="24"/>
	<path class="st1" d="M0.6,29.2h46.9c0.4-1.7,0.6-3.4,0.6-5.2c0-1.8-0.2-3.5-0.6-5.2H0.6C0.2,20.5,0,22.2,0,24S0.2,27.5,0.6,29.2z"
		/>
	<path class="st2" d="M0.6,18.8h46.9C45,8,35.5,0,24,0S3,8,0.6,18.8z"/>
	<g>
		<path class="st3" d="M47.7,20.3L24,48c13.3,0,24-10.7,24-24C48,22.8,47.9,21.5,47.7,20.3L47.7,20.3z M24,48L24,48
			C10.7,48,0,37.3,0,24c0-1.2,0.1-2.5,0.3-3.7L24,48z"/>
	</g>
	<polygon class="st4" points="31.8,17.2 38.5,12.8 30.6,14.3 35.1,7.7 28.4,12.1 30,4.3 25.6,11 24,3.1 22.4,11 18,4.3 19.6,12.1 
		12.9,7.7 17.4,14.3 9.5,12.8 16.2,17.2 8.3,18.8 39.6,18.8 	"/>
</g>
</svg>
