<?xml version="1.0" encoding="utf-8"?>
<!-- Generator: Adobe Illustrator 24.0.1, SVG Export Plug-In . SVG Version: 6.00 Build 0)  -->
<svg version="1.1"
	 id="svg1306" xmlns:cc="http://creativecommons.org/ns#" xmlns:dc="http://purl.org/dc/elements/1.1/" xmlns:inkscape="http://www.inkscape.org/namespaces/inkscape" xmlns:rdf="http://www.w3.org/1999/02/22-rdf-syntax-ns#" xmlns:sodipodi="http://sodipodi.sourceforge.net/DTD/sodipodi-0.dtd" xmlns:svg="http://www.w3.org/2000/svg"
	 xmlns="http://www.w3.org/2000/svg" xmlns:xlink="http://www.w3.org/1999/xlink" x="0px" y="0px" viewBox="0 0 48 48"
	 style="enable-background:new 0 0 48 48;" xml:space="preserve">
<style type="text/css">
	.st0{fill-rule:evenodd;clip-rule:evenodd;fill:#FF0000;}
	.st1{fill-rule:evenodd;clip-rule:evenodd;fill:#00732F;}
	.st2{fill-rule:evenodd;clip-rule:evenodd;fill:#FFFFFF;}
	.st3{fill-rule:evenodd;clip-rule:evenodd;}
</style>
<g>
	<path class="st0" d="M10.8,44V4C4.3,8.3,0,15.6,0,24S4.3,39.7,10.8,44z"/>
	<path class="st1" d="M24,0L24,0c10.5,0,19.4,6.7,22.7,16H10.8V4C14.6,1.5,19.1,0,24,0z"/>
	<path class="st2" d="M10.8,16h35.9c0.9,2.5,1.4,5.2,1.4,8s-0.5,5.5-1.4,8H10.8V16z"/>
	<path class="st3" d="M46.6,32H10.8v12c3.8,2.5,8.3,4,13.2,4C34.4,48,43.3,41.3,46.6,32z"/>
</g>
</svg>
