<?xml version="1.0" encoding="utf-8"?>
<!-- Generator: Adobe Illustrator 24.0.1, SVG Export Plug-In . SVG Version: 6.00 Build 0)  -->
<svg version="1.1"
	 id="svg1306" xmlns:cc="http://creativecommons.org/ns#" xmlns:dc="http://purl.org/dc/elements/1.1/" xmlns:inkscape="http://www.inkscape.org/namespaces/inkscape" xmlns:rdf="http://www.w3.org/1999/02/22-rdf-syntax-ns#" xmlns:sodipodi="http://sodipodi.sourceforge.net/DTD/sodipodi-0.dtd" xmlns:svg="http://www.w3.org/2000/svg"
	 xmlns="http://www.w3.org/2000/svg" xmlns:xlink="http://www.w3.org/1999/xlink" x="0px" y="0px" viewBox="0 0 48 48"
	 style="enable-background:new 0 0 48 48;" xml:space="preserve">
<style type="text/css">
	.st0{fill:#CE1720;}
	.st1{fill:#007C30;}
	.st2{fill:#FFFFFF;}
</style>
<title>Flag of Belarus</title>
<circle class="st0" cx="24" cy="24" r="24"/>
<path class="st1" d="M46.6,32C43.3,41.3,34.4,48,24,48c-4.7,0-9.1-1.4-12.8-3.7V32H46.6z"/>
<g>
	<path id="a_1_" class="st2" d="M10.2,9.8H9.7v-1h0.4V9.8z M7.3,9.8H6.9v-1h0.4V9.8z M11.2,16.3h-0.3V17h-0.3v0.9h-0.5v0.8H9.4v-0.8
		H8.9V17H8.5v-0.7h0.6v-0.8H8V16H7.3v0.9H6.7v1h0.4v0.7h0.4v0.7h0.3v0.7h0.5v0.6h0.4v0.6h0.5v0.7h0.7v-0.8h0.5v-0.7h0.4v-0.5h0.4
		v-1.2h-0.4v-1.1h0.4V16.3z"/>
	<path id="a_3_" class="st2" d="M10.2,38.2H9.7v1h0.4V38.2z M7.3,38.2H6.9v1h0.4V38.2z M11.2,31.7h-0.3V31h-0.3v-0.9h-0.5v-0.8H9.4
		v0.8H8.9V31H8.5v0.7h0.6v0.8H8V32H7.3v-0.9H6.7v-1h0.4v-0.7h0.4v-0.7h0.3v-0.7h0.5v-0.6h0.4v-0.6h0.5v-0.7h0.7v0.8h0.5v0.7h0.4v0.5
		h0.4v1.2h-0.4v1.1h0.4V31.7z"/>
	<path class="st2" d="M0.5,21.8h0.4v0.7h0.4v0.4h0.4v0.7h0.4v0.6H1.7v0.7H1.3v0.4H0.9v0.7H0.5V21.8z M11.2,21.8v4.5h-0.4v-0.7h-0.4
		v-0.4H9.9v-0.7H9.6v-0.6h0.4v-0.7h0.4v-0.4h0.4v-0.7H11.2z M3.8,24.5h0.4v-1H3.8V24.5z M7.9,24.5v-1H7.4v1H7.9z M5.6,21.3h0.4v-1
		H5.6V21.3z M5.6,26.7v1h0.4v-1H5.6z M3,22.7h0.7v-0.6h0.5v-0.5h0.3V21h0.3v-0.7h0.4v-0.7h0.2v-0.7h0.7v0.7h0.2v0.7h0.4V21h0.3v0.5
		h0.3v0.5H8v0.6h0.7v2.7H8v0.6H7.4v0.5H7.2V27H6.9v0.7H6.4v0.7H6.2v0.7H5.5v-0.7H5.3v-0.7H4.8V27H4.5v-0.5H4.2v-0.5H3.7v-0.6H3V22.7
		z M5.6,23.1v-0.8H5.2v-0.5H4.8v1.3h0.4v0.5h0.3v0.7H5.2v0.5H4.8v1.3h0.4v-0.5h0.4v-0.8h0.4v0.8h0.4v0.5h0.4v-1.3H6.5v-0.5H6.2v-0.7
		h0.3v-0.5h0.4v-1.3H6.5v0.5H6.1v0.8H5.6z"/>
	<path class="st2" d="M11.2,5.6V4.1h-0.4v0.7h-0.4v0.9H9.7v0.7H9.3v0.8H8.9v0.6H8.1V7.2H7.8V6.3h0C6.9,7.1,6.2,7.9,5.4,8.8h0.8V8
		h0.5V7.3h0.5V8h0.5v0.8h0.4v1H7.9v0.8H7.3v0.7H6.8v-0.7H6.3V9.8H5.4v0.8H4.9v0.7H4.3v-0.7H4.2C4,10.8,3.8,11,3.6,11.3H4v0.5h0.4
		v0.8h0.4v0.7h0.4V14h0.3v0.6h0.6V14h0.3v-0.7h0.4v-0.7h0.4v-0.8h0.4v-0.5h0.5v-0.8h0.6v0.8h0.5v0.5h0.4v0.8h0.4v0.7h0.3V14h0.3v0.9
		h0.4v-2.3h-0.4v-1.1h0.4V9.8h-0.4v0.8h-0.5v0.7H9.7v-0.7H9.2V9.8H8.7v-1h0.4V8h0.5V7.3h0.5V8h0.5v0.8h0.4V6.6h-0.4v-1H11.2z
		 M6,12.7H5.6v-1.4H6V12.7z"/>
	<path class="st2" d="M4.9,16.9v1H4.5v0.8H4.1v0.7H3.8v0.8H3.3v0.6H3v0.6H2.5v0.8H1.8v-0.8H1.3v-0.8H0.9V20H0.5v-1
		c0-0.1,0-0.2,0.1-0.3h0.4v-1.1H0.8C0.9,17.5,1,17.2,1,17h0.1v0.8h0.5v0.8h0.6v-0.8h0.5V17h0.4v-0.7H2.5v-0.8h1.1V16h0.7v0.9H4.9z"
		/>
	<path class="st2" d="M4.9,30.1v1H4.3V32H3.7v0.5H2.5v-0.8h0.6V31H2.8v-0.8H2.3v-0.8H1.6v0.8H1.2V31H1c-0.1-0.3-0.2-0.5-0.2-0.8h0.1
		v-1.1H0.6c0-0.1,0-0.2-0.1-0.3v-1h0.4v-0.5h0.4v-0.8h0.5v-0.8h0.7v0.8H3v0.6h0.4v0.6h0.5v0.8h0.3v0.7h0.4v0.8H4.9z"/>
	<path class="st2" d="M11.2,35.4v-2.3h-0.4V34h-0.3v0.7h-0.3v0.7H9.7v0.8H9.3v0.5H8.8v0.8H8.2v-0.8H7.7v-0.5H7.3v-0.8H6.8v-0.7H6.5
		V34H6.2v-0.6H5.5V34H5.2v0.7H4.8v0.7H4.4v0.8H4v0.5H3.6C3.8,37,4,37.2,4.2,37.5h0.2v-0.7h0.5v0.7h0.5v0.8h0.9v-0.8h0.5v-0.7h0.5
		v0.7h0.5v0.8h0.4v1H7.9V40H7.3v0.7H6.8V40H6.3v-0.8H5.4c0.7,0.9,1.5,1.7,2.3,2.5h0v-0.8h0.4v-0.6h0.8v0.6h0.4v0.8h0.5v0.7h0.6v0.9
		h0.4v0.7h0.4v-1.5h-0.4v-1h0.4v-2.2h-0.4V40h-0.5v0.7H9.7V40H9.2v-0.8H8.7v-1h0.4v-0.8h0.5v-0.7h0.5v0.7h0.5v0.8h0.4v-1.8h-0.4
		v-1.1H11.2z M6,36.8H5.6v-1.4H6V36.8z"/>
</g>
</svg>
