<?xml version="1.0" encoding="utf-8"?>
<!-- Generator: Adobe Illustrator 24.0.1, SVG Export Plug-In . SVG Version: 6.00 Build 0)  -->
<svg version="1.1"
	 id="svg1306" xmlns:cc="http://creativecommons.org/ns#" xmlns:dc="http://purl.org/dc/elements/1.1/" xmlns:inkscape="http://www.inkscape.org/namespaces/inkscape" xmlns:rdf="http://www.w3.org/1999/02/22-rdf-syntax-ns#" xmlns:sodipodi="http://sodipodi.sourceforge.net/DTD/sodipodi-0.dtd" xmlns:svg="http://www.w3.org/2000/svg"
	 xmlns="http://www.w3.org/2000/svg" xmlns:xlink="http://www.w3.org/1999/xlink" x="0px" y="0px" viewBox="0 0 48 48"
	 style="enable-background:new 0 0 48 48;" xml:space="preserve">
<style type="text/css">
	.st0{fill-rule:evenodd;clip-rule:evenodd;fill:#D52B1E;}
	.st1{fill-rule:evenodd;clip-rule:evenodd;fill:#FEFEFE;}
</style>
<g>
	<g>
		<path class="st0" d="M11.3,44.4V3.6C4.5,7.9,0,15.4,0,24l0,0C0,32.6,4.5,40.1,11.3,44.4z"/>
		<path class="st0" d="M36.7,3.6v40.7C43.5,40.1,48,32.6,48,24S43.5,7.9,36.7,3.6z"/>
		<path class="st1" d="M36.7,44.4V3.6C33,1.3,28.7,0,24,0s-9,1.3-12.7,3.6v40.7C15,46.7,19.3,48,24,48S33,46.7,36.7,44.4z"/>
	</g>
	<path class="st0" d="M24,11.3l-2,4c-0.2,0.4-0.6,0.4-1.1,0.1l-1.5-0.8l1.1,6.1c0.2,1.1-0.5,1.1-0.9,0.6l-2.6-3l-0.4,1.5
		c0,0.2-0.3,0.4-0.6,0.4l-3.3-0.7l0.9,3.2c0.2,0.7,0.3,1-0.2,1.2l-1.2,0.6l5.6,4.8c0.2,0.2,0.3,0.5,0.3,0.8l-0.5,1.7
		c1.9-0.2,3.7-0.4,5.6-0.7c0.2,0,0.5,0.2,0.5,0.4l-0.3,6.2h0.9l-0.2-6.2c0-0.2,0.3-0.4,0.4-0.4c1.9,0.2,3.7,0.4,5.6,0.7l-0.5-1.7
		c-0.1-0.3,0-0.6,0.3-0.8l5.6-4.8l-1.2-0.6c-0.5-0.2-0.4-0.5-0.2-1.2l0.9-3.3l-3.3,0.7c-0.3,0.1-0.5-0.2-0.6-0.4l-0.4-1.5l-2.6,3
		c-0.4,0.5-1.1,0.5-0.9-0.6l1.1-6.1l-1.5,0.8c-0.4,0.2-0.8,0.3-1.1-0.1L24,11.3z"/>
</g>
</svg>
