<svg xmlns="http://www.w3.org/2000/svg" viewBox="0 0 48 48"><defs><style>.a{fill:#fff;fill-rule:evenodd;}.b{fill:#4e5b31;}.c{fill:#d57800;}</style></defs><title>fi_cy</title><path class="a" d="M24,48h0A24,24,0,1,0,0,24,24.0062,24.0062,0,0,0,24,48Z"/><path class="b" d="M24.83,37.0936a.0646.0646,0,0,1-.022-.0155L24.8,37.0707a1.3673,1.3673,0,0,1-.1-.1041c-.0844-.0958-.1976-.2361-.2971-.36-.1972-.246-.36-.4578-.391-.4977l-.05-.0654-.4919-.1517-.3592-.1674.1919-.2157.6592.2822.4919.1009.91.6691-.0007.0006c-.0019.0015-.1323.11-.262.228-.0578.0525-.1307.12-.1822.1762a.7136.7136,0,0,0-.0589.0722.57.57,0,0,0-.0294.0558m-3.3782-1.0146a2.5107,2.5107,0,0,1-1.26-.3526H20.191V35.726a.6488.6488,0,0,1,.1823-.1964,1.1682,1.1682,0,0,1,.703-.2h.0074a3.76,3.76,0,0,1,1.5436.4289,2.2817,2.2817,0,0,1-1.1758.32l.0006.0006Zm-1.86-.4123a.2686.2686,0,0,1-.2008-.0845.4074.4074,0,0,1-.09-.1823.93.93,0,0,1-.0223-.2671.2767.2767,0,0,1,.099-.0224h.0071a.3988.3988,0,0,1,.338.2747.2752.2752,0,0,1,.0174.1942.1532.1532,0,0,1-.1482.0868Zm3.273-.3794a2.3416,2.3416,0,0,1-1.7627-.86.9936.9936,0,0,1-.1668-.6308v-.0009h.0008a.7333.7333,0,0,1,.1683-.0185c.2925,0,1.0406.1471,1.7607,1.51l0,.0009-.0012-.0007ZM20.611,35.07a1.9157,1.9157,0,0,1-1.0628-.2406.6534.6534,0,0,1-.2335-.2613.4283.4283,0,0,1-.0376-.1281,1.437,1.437,0,0,1,.4918-.1045c.0242-.0012.0487-.0018.0743-.0019a2.1393,2.1393,0,0,1,1.4976.6827l.0006.0006h-.0007a5.7,5.7,0,0,1-.73.0532Zm-2.2743-.0874a2.354,2.354,0,0,1-1.6-.5755l0,0h.0013a4.9741,4.9741,0,0,1,.9831-.1306c.0309-.0007.0621-.0011.0934-.0012a1.7549,1.7549,0,0,1,1.0565.2676.3127.3127,0,0,1,.138.1763.1446.1446,0,0,1-.0669.1361,1.0085,1.0085,0,0,1-.5665.1278l-.038.0012Zm-1.6048-.8233a.2028.2028,0,0,1-.157-.0739.3712.3712,0,0,1-.07-.16.9.9,0,0,1-.0184-.2327v-.0012a.19.19,0,0,1,.077-.0174h0a.24.24,0,0,1,.164.0734.44.44,0,0,1,.1069.1675.2552.2552,0,0,1,.0114.1669.1214.1214,0,0,1-.114.0766Zm3.7069-.0836a.2686.2686,0,0,1-.2008-.0844.4088.4088,0,0,1-.09-.1823.93.93,0,0,1-.0222-.2671.2767.2767,0,0,1,.0989-.0224h.0071a.3988.3988,0,0,1,.3381.2747.2752.2752,0,0,1,.0174.1942.1529.1529,0,0,1-.1482.0868Zm-1.8057-.0747a2.7188,2.7188,0,0,1-1.7723-.55,1.1589,1.1589,0,0,1-.2685-.3449.7358.7358,0,0,1-.0575-.1544l.0013-.0006a.8515.8515,0,0,1,.2461-.0367h.0233A2.5055,2.5055,0,0,1,18.6328,34v.0006ZM19.7155,33.9a2.4293,2.4293,0,0,1-1.4961-.7338,1.5307,1.5307,0,0,1-.33-.5534,1.1863,1.1863,0,0,1,.247-.03l.0332,0,.035,0a1.629,1.629,0,0,1,1.5108,1.3164h.0006Zm-4.1167-.3851a3.123,3.123,0,0,1-.7574-.0907,1.08,1.08,0,0,1-.6771-.3813.4.4,0,0,1-.0653-.1605.2716.2716,0,0,1-.002-.068l.002-.0007a2.8692,2.8692,0,0,1,.6627-.0841l.0459,0a2.7739,2.7739,0,0,1,.5424.0526,1.72,1.72,0,0,1,1.0167.6422v.0006h-.0008a3.1457,3.1457,0,0,1-.7676.09Zm1.8614-.6764a.2691.2691,0,0,1-.2009-.0823.4115.4115,0,0,1-.09-.1842.9125.9125,0,0,1-.0223-.2651.2767.2767,0,0,1,.099-.0224h.0071a.4.4,0,0,1,.3381.2748.2692.2692,0,0,1,.0154.1921.1492.1492,0,0,1-.1463.0874Zm-1.4-.1919a3.0551,3.0551,0,0,1-.7579-.3309,1.6087,1.6087,0,0,1-.833-1.1926h.0009a.45.45,0,0,1,.0809-.01l.0212,0a.9713.9713,0,0,1,.5793.227,3.31,3.31,0,0,1,.9088,1.3078Zm.9139-.0336a2.4709,2.4709,0,0,1-.6-.3853A3.8478,3.8478,0,0,1,15.3161,30.75a.4859.4859,0,0,1,.1827-.0454l.0194-.0006.0293.0006a.92.92,0,0,1,.6431.346,4.1731,4.1731,0,0,1,.7854,1.5612l.0006.002-.0019-.0006Zm-2.368-.069a.4338.4338,0,0,1-.4406-.2369.4921.4921,0,0,1-.0351-.2347v-.0013a.6719.6719,0,0,1,.152-.02h.0105a.6279.6279,0,0,1,.5119.2433c.0162.024.0657.1072.0247.1723-.0329.0513-.1076.0773-.2235.0773Zm-.6764-.8532a4.041,4.041,0,0,1-.7056-.06.7326.7326,0,0,1-.5075-.4658,1.6214,1.6214,0,0,1-.114-.3961h.0008a1.9231,1.9231,0,0,1,1.4236.4722.7417.7417,0,0,1,.203.4384H14.23c-.0013,0-.12.0114-.3.0114Zm.8759-.8752c-.0011-.0014-.0972-.12-.1921-.2678a.9686.9686,0,0,1-.1918-.4487c0-.1276-.03-.3968-.0479-.5458-.0227-.1891-.0456-.3509-.0475-.3646h.0008a.7873.7873,0,0,1,.5262.6707c0,.4736-.0467.9509-.0472.9557v.0007h-.0006Zm-.6542-.045-.0159-.0013a2.58,2.58,0,0,1-.7013-.3052,2.999,2.999,0,0,1-.7359-.5567,1.2541,1.2541,0,0,1-.2457-.7427,2.7483,2.7483,0,0,1,.0055-.4536.2616.2616,0,0,1,.0833-.0127.7327.7327,0,0,1,.3919.163,3.1486,3.1486,0,0,1,.4111.3492,6.2851,6.2851,0,0,1,.456.5049l.002.0025c.0168.03.1607.29.2728.542a1.7524,1.7524,0,0,1,.1282.3639.1969.1969,0,0,1,0,.1128.0574.0574,0,0,1-.0244.0284.0686.0686,0,0,1-.0279.0057Z"/><path class="b" d="M23.17,37.0936a.0646.0646,0,0,0,.022-.0155l.0079-.0074a1.3673,1.3673,0,0,0,.1-.1041c.0844-.0958.1976-.2361.2971-.36.1972-.246.36-.4578.391-.4977l.05-.0654.4919-.1517.3592-.1674-.1919-.2157-.6592.2822-.4919.1009-.91.6691.0007.0006c.0019.0015.1323.11.262.228.0578.0525.1307.12.1822.1762a.7136.7136,0,0,1,.0589.0722.57.57,0,0,1,.0294.0558m3.3782-1.0146a2.5107,2.5107,0,0,0,1.26-.3526h.0005V35.726a.6488.6488,0,0,0-.1823-.1964,1.1682,1.1682,0,0,0-.703-.2h-.0074a3.76,3.76,0,0,0-1.5436.4289,2.2817,2.2817,0,0,0,1.1758.32l-.0006.0006Zm1.86-.4123a.2686.2686,0,0,0,.2008-.0845.4074.4074,0,0,0,.09-.1823.93.93,0,0,0,.0223-.2671.2767.2767,0,0,0-.099-.0224h-.0071a.3988.3988,0,0,0-.338.2747.2752.2752,0,0,0-.0174.1942.1532.1532,0,0,0,.1482.0868Zm-3.273-.3794a2.3416,2.3416,0,0,0,1.7627-.86.9936.9936,0,0,0,.1668-.6308v-.0009h-.0008a.7333.7333,0,0,0-.1683-.0185c-.2925,0-1.0406.1471-1.7607,1.51l0,.0009.0012-.0007ZM27.389,35.07a1.9157,1.9157,0,0,0,1.0628-.2406.6534.6534,0,0,0,.2335-.2613.4283.4283,0,0,0,.0376-.1281,1.437,1.437,0,0,0-.4918-.1045c-.0242-.0012-.0487-.0018-.0743-.0019a2.1393,2.1393,0,0,0-1.4976.6827l-.0006.0006h.0007a5.7,5.7,0,0,0,.73.0532Zm2.2743-.0874a2.354,2.354,0,0,0,1.6-.5755l0,0h-.0013a4.9741,4.9741,0,0,0-.9831-.1306c-.0309-.0007-.0621-.0011-.0934-.0012a1.7549,1.7549,0,0,0-1.0565.2676.3127.3127,0,0,0-.138.1763.1446.1446,0,0,0,.0669.1361,1.0085,1.0085,0,0,0,.5665.1278l.038.0012Zm1.6048-.8233a.2028.2028,0,0,0,.157-.0739.3712.3712,0,0,0,.07-.16.9.9,0,0,0,.0184-.2327v-.0012a.19.19,0,0,0-.077-.0174h0a.24.24,0,0,0-.164.0734.44.44,0,0,0-.1069.1675.2552.2552,0,0,0-.0114.1669.1214.1214,0,0,0,.114.0766Zm-3.7069-.0836a.2686.2686,0,0,0,.2008-.0844.4088.4088,0,0,0,.09-.1823.93.93,0,0,0,.0222-.2671.2767.2767,0,0,0-.0989-.0224h-.0071a.3988.3988,0,0,0-.3381.2747.2752.2752,0,0,0-.0174.1942.1529.1529,0,0,0,.1482.0868Zm1.8057-.0747a2.7188,2.7188,0,0,0,1.7723-.55,1.1589,1.1589,0,0,0,.2685-.3449.7358.7358,0,0,0,.0575-.1544l-.0013-.0006a.8515.8515,0,0,0-.2461-.0367h-.0233A2.5055,2.5055,0,0,0,29.3672,34v.0006ZM28.2845,33.9a2.4293,2.4293,0,0,0,1.4961-.7338,1.5307,1.5307,0,0,0,.33-.5534,1.1863,1.1863,0,0,0-.247-.03l-.0332,0-.035,0a1.629,1.629,0,0,0-1.5108,1.3164h-.0006Zm4.1167-.3851a3.123,3.123,0,0,0,.7574-.0907,1.08,1.08,0,0,0,.6771-.3813.4.4,0,0,0,.0653-.1605.2716.2716,0,0,0,.002-.068l-.002-.0007a2.8692,2.8692,0,0,0-.6627-.0841l-.0459,0a2.7739,2.7739,0,0,0-.5424.0526,1.72,1.72,0,0,0-1.0167.6422v.0006h.0008a3.1457,3.1457,0,0,0,.7676.09ZM30.54,32.8383a.2691.2691,0,0,0,.2009-.0823.4115.4115,0,0,0,.09-.1842.9125.9125,0,0,0,.0223-.2651.2767.2767,0,0,0-.099-.0224h-.0071a.4.4,0,0,0-.3381.2748.2692.2692,0,0,0-.0154.1921.1492.1492,0,0,0,.1463.0874Zm1.4-.1919a3.0551,3.0551,0,0,0,.7579-.3309,1.6087,1.6087,0,0,0,.833-1.1926H33.53a.45.45,0,0,0-.0809-.01l-.0212,0a.9713.9713,0,0,0-.5793.227,3.31,3.31,0,0,0-.9088,1.3078Zm-.9139-.0336a2.4709,2.4709,0,0,0,.6-.3853A3.8478,3.8478,0,0,0,32.6839,30.75a.4859.4859,0,0,0-.1827-.0454l-.0194-.0006-.0293.0006a.92.92,0,0,0-.6431.346,4.1731,4.1731,0,0,0-.7854,1.5612l-.0006.002.0019-.0006Zm2.368-.069a.4338.4338,0,0,0,.4406-.2369.4921.4921,0,0,0,.0351-.2347v-.0013a.6719.6719,0,0,0-.152-.02h-.0105a.6279.6279,0,0,0-.5119.2433c-.0162.024-.0657.1072-.0247.1723.0329.0513.1076.0773.2235.0773Zm.6764-.8532a4.041,4.041,0,0,0,.7056-.06.7326.7326,0,0,0,.5075-.4658,1.6214,1.6214,0,0,0,.114-.3961h-.0008a1.9231,1.9231,0,0,0-1.4236.4722.7417.7417,0,0,0-.203.4384H33.77c.0013,0,.12.0114.3.0114Zm-.8759-.8752c.0011-.0014.0972-.12.1921-.2678a.9686.9686,0,0,0,.1918-.4487c0-.1276.03-.3968.0479-.5458.0227-.1891.0456-.3509.0475-.3646h-.0008a.7873.7873,0,0,0-.5262.6707c0,.4736.0467.9509.0472.9557v.0007h.0006Zm.6542-.045.0159-.0013a2.58,2.58,0,0,0,.7013-.3052,2.999,2.999,0,0,0,.7359-.5567,1.2541,1.2541,0,0,0,.2457-.7427,2.7483,2.7483,0,0,0-.0055-.4536.2616.2616,0,0,0-.0833-.0127.7327.7327,0,0,0-.3919.163,3.1486,3.1486,0,0,0-.4111.3492,6.2851,6.2851,0,0,0-.456.5049l-.002.0025c-.0168.03-.1607.29-.2728.542a1.7524,1.7524,0,0,0-.1282.3639.1969.1969,0,0,0,0,.1128.0574.0574,0,0,0,.0244.0284.0686.0686,0,0,0,.0279.0057Z"/><path class="c" d="M41.5517,11.5846l-.1492.0594-.0584.0233-.1808-.01-.1693.0813-.3.2051-.0132.01-.1119.0292-.1039-.0448-.0591.0268-.02.1216-.0562.0874-.0691.0486-.24.0245-.202.1042-.2629-.07-.1221.0478-.26.2338-.1326.0629-.0464-.0027-.1759-.0091-.0743.0244-.111.1072-.21.0163-.0655.0453-.1024.2065-.1111.1145-.0633.0134-.0688-.0253-.0518.0091-.0234.1321-.05.0554-.1406.0484-.1123.0935-.0985.0507-.132-.0033h-.03l-.1315.0725-.247.0217-.1029.0981-.0226.021-.048.029-.0786.0468-.019.0117-.095-.0169-.1108.0439-.0449-.069-.0766.0461-.1014.0043-.1266-.0563-.0964-.0429-.0705.01-.0245.1228-.0025.0131-.0741.0986-.1383.0838-.019.0245-.1574.2032-.2991.3145-.2529.1284-.2621.08-.1837.1507-.4813.2386-.76.3783-.1553.05-.223.0356-.3976.1465-.3508.1058-.02.0059-.07.0211-.4946.15-.23-.0243-.1364.05-.355-.0394-.247.0049-.1562.0325-.2937.1409-.4957.2382-.1638.15-.255.133-.2986.0945.0007-.1254-.0018-.0054-.1036.0328-.0748.0236-.2423.0374h-.1347l-.0837-.0243-.0127.0043-.4951.1627-.5522.0534-.2763.0886-.2065-.0033-.1291.0384-.2533.031-.09-.0241-.02-.0056-.7442.0323-.34-.0385-.1624.037-.2724-.0916-.397-.0461L24.32,17.001l-.209-.0619-.0944.0544-.0707.0075-.1689-.0612-.0608-.0015-.1393.0506-.08-.0205-.0745-.0595-.1749-.026-.1065-.09-.5953.0789-.1616-.0475-.5417-.1579-.0862.0044-.1077.0805-.1614.0589-.14.0364-.1907.0063-.2217-.0581-.2284-.1107-.0844-.02-.1884.019-.0576.0052-.3462-.1857-.446-.2787-.3026-.1457-.1136-.0184-.0153.054.0564.1774.019.1757-.0058.1623-.0031.1005.0283.09.1092.1211.0456.1216.0333.3347,0,.34-.0531.5415-.018.0824-.0633.2805-.0579.2577-.2246.6861-.0616.0851-.1515.1033-.3432.2336-.2527.1456-.08.0332-.2051.0155-.1278-.0064-.1592-.0862-.1562-.04-.2047-.1472-.228-.0471-.25-.1443-.065-.078-.1359-.0127-.1885-.0566v0l-.0692-.0207-.0478-.0139h0l-.2407-.0064-.2242-.1034-.118-.0285-.1613-.0082-.1689.0785h0l-.0856.04-.1081-.043-.0782.0049-.0886.134-.0109.02-.0611.0323-.076-.001L14.81,19.666l-.0643.0281-.0866.0376h0l-.0766.0333-.0373.0162-.0007-.0007-.0229.0047-.0409.0071-.0507.01-.0893-.0522-.0475-.028-.08-.0162-.0428.0309-.0085.1457-.0391.0873-.1242.11-.1262.1111-.088.13-.2328.5313-.1457.2144-.0453.05-.1531.1685-.1353.1049-.3117.2416-.2951.11-.2541.0519-.1236.0005-.2343-.0311-.21-.0646-.2312-.1446-.2533-.2037-.3669-.3625-.052-.0312-.0108-.0073-.1156-.0739-.0857.0022-.0336.0554-.0184.08-.0155.0709-.042.4033.0031.0233.0221.1661.2786.39.086.2069.0142.0236.0575.0966.0437.0737.0044.0074.095.2843-.0669.16.0338.1076-.0846.0657-.0156.0928.25.3137.0546.1384-.061.1918-.0973.1058-.0272.029.0137.081.1152.1036.1956.1742.1043.2587.0794.07.0922-.02.0513.0391.0777-.0013.0765.0765.05.024.0783.039.0618.0806.0137.2477.1154.3078.0018.1668.0006.0237.0718.1234.0226.0974-.038.2577.0915.0827.0992-.02.0641.01.103.0857.1247.19.122-.0178.0774.0373.3737.3378.0848.0428.0046.0027.061.0306.076.0765.1176-.078.013-.0014.1278-.0112.0561.038.1077.0727.1415-.0018.3068.094.1342.0344.27.1677.1146.071.0679.0551.09.0736.18.0775.1545.037.0838.02.0633.0243.0016-.004h.0009l-.0015.004.3346.1282.1813.0423.1677.0617.122.0443.09.0015.1266-.1065.1227-.0071.1019.0253.0995-.0166.1573-.097.0308-.0455.1115-.0532.3765-.0467.11.0357.2825-.1229.1892.0527.1675-.0594.366.0813.0973.0684.1088.1245.0133.0006.1211.0023-.0507.0843.16.1676.1443.2182.01.0288.1049.3081.078.1091.0546.1523.0027.0993-.0849.0648-.0139.0369-.0048.0137.0172.0415.0321-.0175.0609-.0338.0743-.0115.1308.0139.0864.0091.1364-.0677.09-.045.1452.0625.16-.0017.067.03.19.086.0969.0091.0357-.0235.0228-.0542-.0117-.0633-.0729-.0836-.16-.186-.0656-.0957-.05-.1384-.0155-.1771-.011-.1194.02-.1569.043-.0559.0317-.1247h.0006l.0081-.0326.0891-.1182.2358-.1515.2534-.2269.2-.132.2065-.0895.0055-.0253.023.0092.5252-.1785.0086-.001.2339-.0407,1.5782.1111.0585-.0177v0l.0526-.1476.0283-.0274.019-.0178.1736-.0764.0811-.0116.2252.0556.0922.0228.1477-.0828.1048.0017.2164-.1181.1337.0033.0506-.02.2605-.1872.2508-.0718.0653-.0347.0229-.0127.2572-.1358.1633-.1255.141-.0749.1544-.04.4041-.0285.0812-.1354.1738-.0231.105-.1185.12-.0488.0861-.124.0721-.1039.1008-.0584.323-.02.3828.0474.0507-.0307.0865-.3088.0906-.0579.2439-.3554.0008-.13v-.1081l.04-.1541-.0273-.2781.0323-.2815.1517-.3579.1335-.1443.2154-.1457.11-.0477.1551-.0261h0l.0228-.0039.04-.0067.5341-.0074c.0074-.0055.1942-.0026.1942-.0026l.1781-.0024.4507.08.032.0056.152.0493.1757.1366.1861.1817.0349.0339.12.0507.0365.0159.0994-.0159.1417-.0738.1069-.09.1457-.08.0035-.0051.0821-.1233.0024-.0026.0018,0v-.0007h-.0014l.0324-.0491.2816-.11.3313-.019.0372-.02.0207-.0111.0875-.1028.082-.0006.1986.0718.1393-.0277.1109.0443.0861-.01.1624-.019.1745.1227.1016.0127.3584.21.0186.003.01.0018.0205.0034L34.67,23.03l.0634-.0183.0083-.0025.008.0111.0407.0574.0559.008.0661-.0882-.0263-.04-.01-.0145-.128-.0261-.115-.1963.1095-.1179-.1717-.2106-.0285-.0349-.01-.0148-.0594-.09-.3-.4583-.3916-.3125h0l-.1371-.11-.0009-.0006-.048-.038-.209-.2127-.1493-.1982-.02-.0427-.0308-.0673-.09-.1949-.1559-.12-.1271-.1387-.0063-.0082-.2622-.3563-.0431-.06-.0619-.0358-.1309-.0009-.0126-.0127-.0074-.0076.0044-.0047.0628-.0624.07-.0176.03-.069-.1335-.3863-.0009-.0135-.01-.1235.1088-.5608.0139-.0684.1855-.3773.1149-.0941.1254-.2465.1076-.1576.103-.1.0179-.0106.1859-.1125.1561-.022.1487-.0209.26.08.247-.0048.0482-.0051.1121-.0127.1843-.0581.087-.0537.0452-.0692.0942-.3158.03-.1005.0581-.1092.3361-.3869.254-.2349.5712-.4189.28-.1671.1428-.0853,1.2746-.5666.3313-.3357.1725-.1746.3054-.2049.3572-.1464.3074-.2433.0672-.0845.0846-.2723.0705-.0171.0633-.1376.0181-.0392.2509-.1768.0284-.0141.9745-.4883.1417.0194.076-.1135.2835-.0476.0522-.0089.07-.0349.0595-.1013v-.02l.0082-.2706.06-.0732.033-.1783.0311-.0412.0325-.0428.08-.0565-.0139-.0336Z"/></svg>