<?xml version="1.0" encoding="utf-8"?>
<!-- Generator: Adobe Illustrator 24.0.1, SVG Export Plug-In . SVG Version: 6.00 Build 0)  -->
<svg version="1.1"
	 id="svg1306" xmlns:cc="http://creativecommons.org/ns#" xmlns:dc="http://purl.org/dc/elements/1.1/" xmlns:inkscape="http://www.inkscape.org/namespaces/inkscape" xmlns:rdf="http://www.w3.org/1999/02/22-rdf-syntax-ns#" xmlns:sodipodi="http://sodipodi.sourceforge.net/DTD/sodipodi-0.dtd" xmlns:svg="http://www.w3.org/2000/svg"
	 xmlns="http://www.w3.org/2000/svg" xmlns:xlink="http://www.w3.org/1999/xlink" x="0px" y="0px" viewBox="0 0 48 48"
	 style="enable-background:new 0 0 48 48;" xml:space="preserve">
<style type="text/css">
	.st0{fill-rule:evenodd;clip-rule:evenodd;fill:#FFFFFF;}
	.st1{fill-rule:evenodd;clip-rule:evenodd;fill:#0033A0;}
	.st2{fill-rule:evenodd;clip-rule:evenodd;fill:#DA281B;}
</style>
<g>
	<path class="st0" d="M24,48L24,48c13.3,0,24-10.8,24-24C48,10.7,37.3,0,24,0S0,10.7,0,24C0,37.2,10.7,48,24,48z"/>
	<path class="st1" d="M24,48L24,48V0l0,0C10.7,0,0,10.7,0,24C0,37.2,10.7,48,24,48z"/>
	<path class="st2" d="M24,48L24,48c13.3,0,24-10.8,24-24l0,0H0l0,0C0,37.2,10.7,48,24,48z"/>
	<polygon class="st0" points="14.2,12.7 15.5,16.8 12,14.3 8.5,16.8 9.8,12.7 6.3,10.1 10.7,10.1 12,6 13.3,10.1 17.7,10.1 	"/>
</g>
</svg>
