<svg xmlns="http://www.w3.org/2000/svg" viewBox="0 0 48 48"><defs><style>.a,.c,.g,.h,.j,.l{fill:#fff;}.b{fill:#ce1126;}.c,.e,.f,.g,.h,.i,.j,.m{stroke:#c09300;}.c,.e,.f,.g{stroke-linejoin:round;}.c,.e,.f,.h,.i,.j{stroke-width:0.1px;}.d,.e,.k{fill:#c09300;}.f,.i,.m{fill:none;}.g{stroke-width:0.2px;}.j,.m{stroke-miterlimit:10;}.k,.l{fill-rule:evenodd;}.m{stroke-width:0.06px;}</style></defs><title>fi_eg</title><circle cx="24" cy="24" r="24"/><path class="a" d="M48,24a23.5946,23.5946,0,0,1-1.38,8H1.38A23.5946,23.5946,0,0,1,0,24a24,24,0,0,1,48,0Z"/><path class="b" d="M46.62,16H1.38a23.99,23.99,0,0,1,45.24,0Z"/><path class="c" d="M24.0644,24.1922l5.479,5.0863-.39-9.2375c-.0573-1.4-1.2739-1.0789-2.1576-.5738A3.2987,3.2987,0,0,1,24,19.6621a3.2989,3.2989,0,0,1-2.9955-.1949c-.8837-.505-2.1-.8263-2.1576.5737l-.39,9.2376Z"/><path class="d" d="M19.4772,19.7194l-.3787,8.9856-.6428.5734.39-9.2375a1.9235,1.9235,0,0,1,.6312-.3214Zm.77.6432-.3214,7.5164-.6425.6576.39-8.6792c.1264.1262.5052.436.5738.5048Zm.7.5736-.2524,6.269-.5164.5048.3214-7.1525c.126.1263.3784.31.4474.3787Zm.7576.3216-.2525,5.343-.5051.41.2525-5.9475a1.8366,1.8366,0,0,0,.5051.195Zm.7,0L22.2206,25.71l-.5164.505.1952-4.9a1.3286,1.3286,0,0,0,.505-.0575Z"/><path class="d" d="M28.522,19.7194l.3787,8.9856.6428.5734-.39-9.2375a1.9254,1.9254,0,0,0-.6312-.3214Zm-.77.6432.3213,7.5164.6426.6576-.39-8.6792c-.1263.1262-.5051.436-.5737.5048Zm-.7.5736.2524,6.269.5164.5048L27.5,20.5575c-.1259.1263-.3784.31-.4473.3787Zm-.7576.3216.2525,5.343.505.41L26.8,21.0628a1.8372,1.8372,0,0,1-.505.195Zm-.7,0,.1837,4.4526.5164.505-.1952-4.9a1.3281,1.3281,0,0,1-.5049-.0575Z"/><path class="e" d="M24.2524,25.205l.769,3.5-.2526.2524-.264-.1951-.4361-3.1214.1836,3.1214L24,29.084l-.2525-.3213.1837-3.1214-.4361,3.1214-.2642.1951-.2523-.2524.7689-3.5Z"/><path class="c" d="M22.278,23.6674l-1.5264,5.4164,2.1.3214.895-4.0739-1.469-1.6639Z"/><path class="f" d="M21.7732,25.5154l.1836.4474.9924-.9478"/><path class="f" d="M22.46,24.3938l.2076,1.9477.6313-.8262m-.2525.3209.3448,1.19m.1352-.4372-.6974,1.0593m.2175,1.0573L22.8237,27.65l-.1949-1.0739-.4672.6327-.2049-.73-.654.6708.3326,1.22.459-.7548.2524.7689.4713-.7329m-1.6192,1.3066.424-.5955.2762.9166.3787-.6426.2526.7691"/><path class="c" d="M25.7212,23.6674l1.5264,5.4164-2.1.3214-.8951-4.0739,1.4691-1.6639Z"/><path class="f" d="M26.226,25.5154l-.1837.4474L25.05,25.015"/><path class="f" d="M25.5388,24.3938l-.2077,1.9477L24.7,25.5153m.2525.3209-.3448,1.19m-.1352-.4372.6974,1.0593m-.2175,1.0573.2232-1.0558.1949-1.0739.4672.6327.2049-.73.654.6708-.3326,1.22-.459-.7548-.2525.7689-.4712-.7329M26.8,28.9578l-.424-.5955-.2762.9166-.3788-.6426-.2526.7691"/><path class="g" d="M24,31.505a16.9055,16.9055,0,0,0,4.017-.3787c.3788-.0687.3788-.2638.3788-.5164.3789-.1262.1836-.5737.4476-.5737-.264.069-.3213-.4475-.6426-.3785,0-.4477-.4477-.505-.8264-.379a12.7165,12.7165,0,0,1-3.3744.31,15.7725,15.7725,0,0,1-3.3744-.31c-.3787-.126-.8261-.0687-.8261.379-.3215-.069-.3788.4475-.6427.3786.2639,0,.0687.4474.4475.5736,0,.2526,0,.4477.39.5164A16.7344,16.7344,0,0,0,24,31.505Z"/><path class="c" d="M21.8308,29.0834a6.4376,6.4376,0,0,0,1.538.0689c.2523,0,.4359.436-.069.505a6.0431,6.0431,0,0,1-1.5264-.069c-.3214-.0574-1.0215-.1835-1.4691-.31-.4476-.1949-.1261-.5734.1261-.5161a8.4366,8.4366,0,0,0,1.4.3212Zm4.3384,0a6.3681,6.3681,0,0,1-1.5265.0689c-.2641,0-.4477.436.0574.505a6.0406,6.0406,0,0,0,1.5262-.069c.3215-.0574,1.0215-.1835,1.4691-.31.4477-.1949.1265-.5734-.1262-.5161a8.4337,8.4337,0,0,1-1.4.3212Z"/><path class="c" d="M20.2468,28.8314a.4421.4421,0,0,0-.4474.631c.0573-.1262.3213-.1262.3787-.2525.0687-.1949-.0574-.1949.0687-.3785Zm1.5264,1.1736c0-.2522.2523-.2212.2523-.4737,0-.1262-.0687-.3214-.1949-.3214a.2716.2716,0,0,0-.2526.2524C21.5206,29.7149,21.7732,29.7528,21.7732,30.005Zm1.8168-.7264c.3784,0,.3409.5051.1572.7576,0-.1836-.3213-.2525-.3213-.3785C23.4259,29.4623,23.716,29.4623,23.59,29.2786Zm4.1624-.4472a.4422.4422,0,0,1,.4476.631c-.0574-.1262-.3214-.1262-.3787-.2525-.0689-.1949.0574-.1949-.0689-.3785ZM26.226,30.005c0-.2522-.2523-.2212-.2523-.4737,0-.1262.0688-.3214.1951-.3214a.2715.2715,0,0,1,.2524.2524c.0575.2526-.1952.2905-.1952.5427Zm-1.8168-.7264c-.3786,0-.3411.5051-.1574.7576,0-.1836.3212-.2525.3212-.3785,0-.1954-.29-.1954-.1638-.3791Z"/><path class="c" d="M20.3732,28.9578a.6226.6226,0,0,1,.3788.1262l-.3792-.1264Zm.63.1952a1.4151,1.4151,0,0,1,.4477.126l-.4481-.1264Zm2.296.252a1.064,1.064,0,0,0-.4474.0572l.4472-.0576Zm-.7,0a.5056.5056,0,0,0-.4475,0H22.6Zm5.0272-.4472a.651.651,0,0,0-.3789.1262Zm-.6312.1952a1.4146,1.4146,0,0,0-.4476.126l.4479-.1264Zm-2.296.252a1.065,1.065,0,0,1,.4476.0572l-.448-.0576Zm.7,0a.5058.5058,0,0,1,.4476,0H25.4Z"/><path class="d" d="M20.2668,29.9666a.0635.0635,0,0,1-.0544-.082c.0131-.0487.0521-.0766.089-.0635.0234.0083.0664.0516.0665.0671,0,.0178-.0224.06-.0322.06a.0234.0234,0,0,0-.0145.0081.0663.0663,0,0,1-.0544.01Zm4.3944.3136a.092.092,0,0,1-.0412-.0579.1055.1055,0,0,1,.0743-.0817.1442.1442,0,0,1,.0667.0348.065.065,0,0,1-.0123.0966.1225.1225,0,0,1-.0875.0082Zm.0288.1984a.0624.0624,0,0,1-.0487-.0651c-.0028-.0388.001-.0449.042-.0672l.0292-.016.0278.0124c.0384.0171.0554.0356.0568.0614a.0788.0788,0,0,1-.0512.0706.0532.0532,0,0,1-.0559.0039Zm-4.07-.8712a.2041.2041,0,0,0-.0875.0375c-.0519.0122-.1124.0441-.1625.01-.0494-.0152-.1151-.0032-.1225.0575a.0865.0865,0,0,0,.13.0475c.0328-.043.1225-.0682.1325.005-.0366.0554-.0324.1287-.0625.1875a.2556.2556,0,0,1-.04.1025.203.203,0,0,0-.1075.0225.17.17,0,0,0-.13.07.3721.3721,0,0,0-.0725.15c.0086.058.075.0746.125.0775.0533.0147.1067.0339.16.05.0868.0194.1681.0508.255.07.1267.0382.26.0558.3875.09a.1969.1969,0,0,0,.04.01c.053.011.0806-.0466.085-.09.0263-.0928.0463-.1871.0725-.28.018-.0372.04-.1214-.0325-.1025a.2909.2909,0,0,1-.1275.065c-.07.0041-.03.0756-.0025.105a.19.19,0,0,1-.04.14c-.0416.0264-.0937-.0045-.1375-.015-.046.0008-.1379-.0226-.095-.085.0152-.0461.0165-.0966.035-.1425a.6461.6461,0,0,0,.0375-.155c-.0289-.0622-.0783.02-.1175.0275-.027.0188-.1285.0268-.075.075.046.035.0107.0958.0025.14-.003.0616-.067.0763-.1175.0625-.05-.0024-.12-.04-.0775-.095.01-.046.0257-.0912.035-.1375l.055-.165a.4627.4627,0,0,1,.05-.14c.0014-.0548.0382-.102.0375-.1575-.0038-.0271-.0159-.037-.0325-.0375Zm-.2875.58a.0289.0289,0,0,1,.0175.0025c.02.0085.0205.0248,0,.0425a.066.066,0,0,1-.0225.015c-.0374-.0032-.0485-.0088-.05-.0225-.0014-.0121.0024-.0156.0275-.0275A.11.11,0,0,1,20.3321,30.1874Zm-.0829.4016c-.04-.0373-.0333-.0645.0254-.1083.0251-.0187.04-.0165.069.01.0442.04.046.0658.007.1a.0615.0615,0,0,1-.05.0208A.0569.0569,0,0,1,20.2492,30.589Zm.244.0736a.0687.0687,0,0,1-.0509-.0829l.0011-.0041c.01-.0348.0162-.0382.0672-.0387.0572-.0006.0683.009.0688.0594,0,.0283-.0018.0349-.016.048a.0858.0858,0,0,1-.07.0183Zm7.1288.0064a.0442.0442,0,0,1-.0221-.0412c0-.0328.0187-.0569.06-.0755.0546-.0247.0768-.0213.0974.0149.0273.0481.026.0677-.0068.1-.018.0179-.0214.019-.0628.0194S27.6422,30.6859,27.622,30.669Zm-6.8048.092a.06.06,0,0,1-.0446-.0645c0-.0267.0016-.031.02-.0456a.1058.1058,0,0,1,.0463-.02.0512.0512,0,0,1,.0463.011c.0441.0309.0534.0615.0279.0913A.0811.0811,0,0,1,20.8172,30.761Zm1.7536.0784c-.0065-.008-.0207-.0128-.0222-.023a.5055.5055,0,0,1,.0188-.1318.7743.7743,0,0,1,.0155-.1263c.015-.0742.015-.1506.0322-.2243a.4186.4186,0,0,1,.0154-.1124c.0126-.0578.0011-.1181.0181-.1752-.0018-.0214.0228-.0786.0445-.0447a.7331.7331,0,0,0,.1137.1212c.035.02.0029.05-.0213.06a.0754.0754,0,0,0-.039.0817c-.0046.0332-.0179.0646-.0193.0984-.007.05-.0056.1-.0121.15a.7842.7842,0,0,0-.0139.151c.0007.0319-.0145.0608-.0124.0928a.1339.1339,0,0,1-.0326.0938.0754.0754,0,0,1-.0854-.0114Zm2.376-.784a1.1151,1.1151,0,0,0-.1075.0975c-.0474.0359.0389.0568.05.0875a.75.75,0,0,1,.015.145.3682.3682,0,0,1,.0175.1375c-.0042.05-.0691.0393-.0975.0675-.0394.0166-.0551.0553-.085.0825a.3317.3317,0,0,0-.0275.13c.0028.0358-.0242.076,0,.1075l.01.015c.0081.0116.0274.0024.04.005a.3426.3426,0,0,0,.12-.0125,2.3241,2.3241,0,0,1,.2925-.0225c.06.0019.1176-.0189.1775-.0175.0469.01.068-.0405.0675-.0775-.0266-.0523-.0036-.1143-.025-.1675a.9443.9443,0,0,1-.02-.17.048.048,0,0,0-.085-.0275c-.0273.0276-.0715.0331-.0925.0675-.0238.0482.05.0483.0625.085a.424.424,0,0,1,.0125.1175c.0091.0474-.0424.05-.075.055-.043.0161-.1032.0269-.1275-.025a.4391.4391,0,0,1-.0175-.12c-.0011-.0713-.0182-.1415-.0225-.2125-.0041-.0877-.0193-.1749-.025-.2625-.0008-.0364-.0057-.0958-.0575-.085Zm-.05.66.025.0025.0025.03.0025.03-.0325.01a.2593.2593,0,0,1-.0325.0075l-.015-.01c-.0176-.0127-.0131-.0308.01-.055a.04.04,0,0,1,.04-.015ZM22.5,29.973c-.03.0108-.069.0555-.1.055-.07.005-.0606.0736-.01.0975a.35.35,0,0,1,.0025.07c.01.0632-.03.114-.0225.1775-.0036.07-.0246.1374-.0275.2075-.02.0723-.02.1466-.0325.22-.0084.0659-.056.0426-.0975.025,0-.0285-.0022-.0564-.0025-.085.0173-.0653-.0353-.0844-.0875-.0925a.0667.0667,0,0,1-.07-.09c.0236-.0281.0829-.02.12-.025.0785.0163.0753-.0889.035-.125-.0276-.0508-.0959-.0727-.115-.125a.19.19,0,0,0-.095-.1725.2064.2064,0,0,0-.185.1425c-.0362.0105-.0723.0214-.1075.035-.0567.0142-.1376.1126-.06.15.0435.012.176.0422.1175.1025a.125.125,0,0,1-.1525.0425c-.0579,0-.1224-.0281-.12-.095a.69.69,0,0,0-.0375-.18c-.0119-.0671-.0881-.0514-.0925.01a.1072.1072,0,0,0-.01.1625.2261.2261,0,0,1-.025.18c-.0153.07-.0925.0724-.1475.095-.027.01-.13-.0062-.0925.0525a.3576.3576,0,0,0,.195.025.2145.2145,0,0,0,.155-.11c.0442-.0448.12-.0213.1775-.0225.0618,0,.125.0434.185.015.0174-.0451.0977-.12.1225-.0425a.0968.0968,0,0,0,.12.0975c.0691-.0039.0435.0489.0425.09a.1712.1712,0,0,0,.115.145.15.15,0,0,0,.065,0c.06-.0188.1243-.0455.1425-.1125a1.5237,1.5237,0,0,0,.0425-.1725,2.158,2.158,0,0,0,.035-.2725c.0221-.083.0157-.1708.0325-.255.0106-.0625.0184-.125.025-.1875-.0074-.0333-.0218-.0389-.04-.0325Zm-.5425.3325c.0121.0015.0188.0163.02.0425a.0594.0594,0,0,0,.035.0575c.0146.0037.0133.0191-.0025.03a.099.099,0,0,1-.055.01.128.128,0,0,1-.1-.0375l-.015-.015.0225-.015a.5022.5022,0,0,0,.045-.04C21.93,30.3148,21.945,30.304,21.9571,30.3055Zm5.2825-.63a.6676.6676,0,0,0-.1325.02c-.0832-.0052-.125.0822-.045.125.0481.1228.1232-.0253.2-.015.115.0224.1247.1466.1425.24a1.217,1.217,0,0,0,.06.27c.0769.0856-.0577.1392-.115.0725-.0489-.0531-.1537-.1184-.2125-.045-.0723.0306-.0753.1272-.135.155-.0967.0295-.1089-.09-.16-.14-.047-.0659-.1369-.0717-.21-.095-.0343-.0695-.0165-.1876-.0875-.235-.06.0244-.1691.1362-.0775.1875.0894.0769-.0391.1121-.08.165a.41.41,0,0,0-.0775.2375c-.1008.0557-.12-.063-.1325-.1375-.0079-.0889-.0829-.0628-.135-.03-.0762.0309-.1143.1032-.1675.16a1.502,1.502,0,0,0,.0025.1625c.0173.0649.0962.0344.145.03.0783-.0327.11.05.0475.0975-.0426.0541-.1776.0259-.165.1125a.6821.6821,0,0,0,.1325,0,.2363.2363,0,0,0,.19-.1825c.0115-.0847.1334-.0692.2-.0875.0832-.024.1835-.03.2025.075.0567.06.18.1267.2425.045a.1924.1924,0,0,0,.09-.18c-.013-.0628.1015-.065.13-.03.0418.0686.1721.0484.2351.01.0669-.0494.0814-.1364.1775-.1375.1425-.0427.2907-.0673.43-.12.1128-.0246-.0168-.0958-.045-.1375-.0859-.0425-.1607.1314-.2576.045-.0748-.0573-.07-.1661-.0974-.25a.5971.5971,0,0,0-.0925-.32.2477.2477,0,0,0-.2026-.0675Zm-.545.7575a.0881.0881,0,0,1,.04.015.1054.1054,0,0,1,.06.0775c0,.017-.0044.0182-.03.03a.1631.1631,0,0,1-.04.015c-.0145,0-.05-.0285-.05-.04a.1945.1945,0,0,0-.01-.0375c-.0094-.0256-.008-.0253.005-.0425.0083-.011.0149-.0172.025-.0175Zm.5225.0275a.056.056,0,0,1,.06.03c.0145.0263.0046.0465-.0325.0625a.1892.1892,0,0,1-.035.0125.18.18,0,0,1-.03-.0175c-.0216-.0142-.0248-.0211-.025-.0375,0-.0252.0279-.0477.0625-.05Zm-.715.0075c.0087-.0013.0166.0032.0275.0125a.0627.0627,0,0,1,.0225.0475.18.18,0,0,1,0,.05c-.0039.0181-.0043.0173-.045.0175-.0512,0-.056-.0051-.055-.0525.0006-.03.0009-.0382.0175-.055a.0621.0621,0,0,1,.0325-.02Zm-.44.115a.0457.0457,0,0,1,.035.035c.0052.0254.0006.037-.02.0475a.1069.1069,0,0,1-.07.005.0482.0482,0,0,1-.015-.015c-.0055-.01-.0045-.0144.0025-.02.0048-.0039.01-.01.01-.0125a.067.067,0,0,1,.0125-.0225.0433.0433,0,0,1,.045-.0175Zm.74.095a.0522.0522,0,0,1,.035.0125.0274.0274,0,0,1-.0025.045.1708.1708,0,0,1-.09,0,.0161.0161,0,0,1-.0125-.0175c0-.0113.003-.0182.0225-.0275a.1168.1168,0,0,1,.0475-.0125Zm-1.3737.3855c-.0077-.005-.019-.0094-.0076-.0177a.1125.1125,0,0,1,.0659-.0416.2738.2738,0,0,0,.11-.09c.004-.0266.0339-.0411.0338-.0689a.4587.4587,0,0,0-.0068-.1141.1408.1408,0,0,0-.0661-.0779c-.0205-.0161-.0539-.0206-.0615-.0491-.0042-.0274.02-.0483.0289-.0728.0178-.0337.0329-.0691.052-.102.0208-.023.0527-.0012.0635.021a.2587.2587,0,0,1,.036.0718.2211.2211,0,0,1,.0544.093.1706.1706,0,0,1,.03.0772c0,.0334.0188.063.0176.0965a.3464.3464,0,0,1-.0153.134c-.0112.0235-.0337.0375-.0485.0586a.28.28,0,0,1-.0864.0589c-.0231.0073-.0366.034-.0656.0275a.6814.6814,0,0,1-.1237,0c.0026.0044-.0125-.0073-.01-.0046Zm-.548.036c-.0194-.02-.0236-.0284-.0239-.048s.0036-.0277.0226-.0469c.0351-.0354.0522-.0362.1127-.0056.0579.0293.0775.0319.0826.0112s.0383-.0383.07-.0385a.0656.0656,0,0,1,.0473.0163c.02.0157.0211.0181.0216.0544s0,.0384-.0232.0588a.05.05,0,0,1-.0533.018.061.061,0,0,1-.0616-.0471c-.0041-.02-.0112-.0247-.0164-.0111a.0308.0308,0,0,1-.0191.0119.18.18,0,0,0-.0636.04.0609.0609,0,0,1-.0415.0105.0541.0541,0,0,1-.0542-.0239Zm-1.5856-.712a.1252.1252,0,0,0-.1175.0975c.0121.06.0621.1192.03.1825.0222.0811-.0609.1118-.1175.065a1.158,1.158,0,0,0-.1025-.2325c-.0644-.0182-.0924.0846-.1375.12.0224.06.0876.1146.095.19a.1917.1917,0,0,1-.0925.1925c-.0549.0524-.13.0337-.1975.045-.082.0479.06.0654.0975.0675a.2753.2753,0,0,0,.2325-.065c.0615-.0294.0567-.1358.13-.1475.127-.0057.253.02.38.0225.0679.0163.1731-.0081.22.0425a.2136.2136,0,0,0,.1475.1775c.04.0111.0819-.0383.1225-.0475.0772-.0246.0537-.12.1-.1575.132-.0071.2653-.0056.3975-.0075.0251.0006.0326-.0352.05-.05-.0029-.0511-.0048-.1018-.0125-.1525-.0255-.0645.0041-.1476-.0425-.2025-.0664-.0181-.1229.0427-.19.0475a.2229.2229,0,0,0-.14.185c-.0439.0717-.1142-.0128-.09-.0725a.3986.3986,0,0,0-.0025-.08c-.0406-.0486-.1116-.0327-.1675-.04-.0815.0033-.161-.0143-.2425-.0125a1.1558,1.1558,0,0,1-.215-.0125c-.0825-.0023-.0712-.083-.085-.14A.0818.0818,0,0,0,23.2948,30.3874Zm.16.295a.7821.7821,0,0,1,.08.0075c.0344.0057.0712-.0118.105,0,.0781.0133.1563.01.235.0175a.0777.0777,0,0,1,.05.0275V30.9c-.0024.0206.0061.0479-.0125.0625a.0562.0562,0,0,1-.02.01.087.087,0,0,1-.055-.04.5492.5492,0,0,1,.0025-.085c-.0006-.0074.0032-.019,0-.025a.1.1,0,0,0-.0575-.02c-.068-.0023-.1346-.0073-.2025-.01a.8533.8533,0,0,1-.17-.01c-.0215-.0078-.0494-.0051-.0625-.0275-.0188-.0218.0083-.0477.0275-.0575a.1821.1821,0,0,1,.08-.015Zm.9025.02c.0127,0,.0167.004.0225.0275l.01.04c.0029.0095-.0018.0125-.015.0175-.04.0149-.0789.0134-.0925-.005-.0062-.0083.001-.0347.0125-.045a.1247.1247,0,0,1,.0625-.035Z"/><path class="h" d="M24.9845,20.2475c.0533.0032-.0722-.2855-.0722-.2855.1412.1444.6744.1788.6744.1788-.32-.1412-.64-1.2076-.6022-2.0576.0345-.8532-.1223-1.1888-.2478-1.3143a2.017,2.017,0,0,0-1.0131-.32c-.1914-.0093-.16.1443-.16.1443a1.3027,1.3027,0,0,0-.8688-.0188c-.1506.1-.182.6023-.0722.5144.2666-.2132.4988-.0188.6587.2133a2.1328,2.1328,0,0,1-.0722,1.4554,4.8948,4.8948,0,0,1-.7967,1.4177,1.8753,1.8753,0,0,0,.7622-.2822l-.1066.4422a2.7263,2.7263,0,0,0,.6022-.4077l.32.3356a3.2628,3.2628,0,0,1,.32-.3356,1.1575,1.1575,0,0,0,.6743.32Z"/><path class="i" d="M23.6893,18.2059a4.75,4.75,0,0,1-.5144,1.6875m.7968-1.7219a6.537,6.537,0,0,1-.3012,1.7565m.5516-1.7029a12.7939,12.7939,0,0,0,.0878,1.7031m.229-1.6311a4.7315,4.7315,0,0,0,.3732,1.6655"/><path class="d" d="M23.3661,17.5691a.6363.6363,0,0,0-.0847-.2667c-.16-.232-.392-.4265-.6587-.2132,0,0,.091-.2824.2854-.2917.1506-.0095.4924.1129.7937.6273,0,0-.2228-.05-.2761-.0032-.1.0879-.06.1475-.06.1475Zm-.7712-.828a.3072.3072,0,0,1,.1-.1663,1.3027,1.3027,0,0,1,.8688.0188s-.0314-.1536.16-.1442a2.0163,2.0163,0,0,1,1.013.32.6315.6315,0,0,1,.1192.1913H24.85c-.0784-.11-.3012-.1034-.3545-.0972a1.43,1.43,0,0,0-.251.0345.5058.5058,0,0,0-.1788.0627c-.0344.0282-.0627.1318-.116.1318-.0847,0-.0784-.022-.1-.0471-.0282-.0345-.0439-.0847-.0721-.0816-.0878.0158-.229-.0533-.4077-.1944a.5461.5461,0,0,0-.48-.16.3694.3694,0,0,0-.3012.1475Z"/><circle class="a" cx="23.9056" cy="16.854" r="0.0941"/><path class="j" d="M23.998,26.1786a6.0854,6.0854,0,0,0,2.3874-4.9506,1.0227,1.0227,0,0,1-.2032.0206,3.8737,3.8737,0,0,1-2.1591-.7114,4.4428,4.4428,0,0,1-2.2059.7114.997.997,0,0,1-.2032-.0206,6.0766,6.0766,0,0,0,2.384,4.9506Z"/><path class="k" d="M23.27,21.17v4.05a5.6744,5.6744,0,0,1-1.24-2.29,6.3945,6.3945,0,0,1-.2-1.16c0-.1-.01-.22-.01-.33.02,0,.05.01.07.01A5.0849,5.0849,0,0,0,23.27,21.17Z"/><path class="l" d="M24.73,21.18v4.04a5.9585,5.9585,0,0,1-.73.69,5.3153,5.3153,0,0,1-.73-.69V21.17a3.2845,3.2845,0,0,0,.75-.36A2.236,2.236,0,0,0,24.73,21.18Z"/><path class="k" d="M26.18,21.44c0,.08-.01.22-.01.33a6.5477,6.5477,0,0,1-.2,1.16,5.74,5.74,0,0,1-1.24,2.29V21.18a4.9461,4.9461,0,0,0,1.38.27Z"/><path class="m" d="M26.1772,21.4434l-.0678.0021a4.2654,4.2654,0,0,1-2.094-.6366,4.827,4.827,0,0,1-2.1261.6366.3779.3779,0,0,1-.068-.0069c-.0011.1113.0047.2266.0116.3315a5.8457,5.8457,0,0,0,.199,1.1641,5.684,5.684,0,0,0,1.9657,2.9724,5.6932,5.6932,0,0,0,1.9681-2.9748,5.8531,5.8531,0,0,0,.2-1.164c.0061-.11.0122-.2442.0118-.3244Z"/></svg>