<svg xmlns="http://www.w3.org/2000/svg" viewBox="0 0 48 48"><defs><style>.a{fill:#0d5eaf;}.b{fill:#fff;}</style></defs><title>fi_gr</title><circle class="a" cx="24" cy="24" r="24"/><path class="b" d="M47.85,26.67A23.1023,23.1023,0,0,1,46.62,32H1.38A23.1023,23.1023,0,0,1,.15,26.67H10.67V16H1.38a23.1288,23.1288,0,0,1,2.67-5.33h6.62V4.05A23.1288,23.1288,0,0,1,16,1.38v9.29H26.67V16H16V26.67Z"/><path class="b" d="M43.95,37.33a23.6068,23.6068,0,0,1-4.88,5.34H8.93a23.6068,23.6068,0,0,1-4.88-5.34Z"/><path class="b" d="M43.95,10.67H26.67V5.33h12.4A23.6068,23.6068,0,0,1,43.95,10.67Z"/><path class="b" d="M47.85,21.33H26.67V16H46.62A23.1023,23.1023,0,0,1,47.85,21.33Z"/></svg>