<?xml version="1.0" encoding="utf-8"?>
<!-- Generator: Adobe Illustrator 24.0.1, SVG Export Plug-In . SVG Version: 6.00 Build 0)  -->
<svg version="1.1"
	 id="svg1306" xmlns:cc="http://creativecommons.org/ns#" xmlns:dc="http://purl.org/dc/elements/1.1/" xmlns:inkscape="http://www.inkscape.org/namespaces/inkscape" xmlns:rdf="http://www.w3.org/1999/02/22-rdf-syntax-ns#" xmlns:sodipodi="http://sodipodi.sourceforge.net/DTD/sodipodi-0.dtd" xmlns:svg="http://www.w3.org/2000/svg"
	 xmlns="http://www.w3.org/2000/svg" xmlns:xlink="http://www.w3.org/1999/xlink" x="0px" y="0px" viewBox="0 0 48 48"
	 style="enable-background:new 0 0 48 48;" xml:space="preserve">
<style type="text/css">
	.st0{fill-rule:evenodd;clip-rule:evenodd;fill:#CE2939;}
	.st1{fill-rule:evenodd;clip-rule:evenodd;fill:#FFFFFF;}
	.st2{fill-rule:evenodd;clip-rule:evenodd;fill:#477050;}
</style>
<g>
	<path class="st0" d="M24,0L24,0C10.7,0,0,10.8,0,24c0,13.3,10.7,24,24,24s24-10.7,24-24C48,10.8,37.3,0,24,0z"/>
	<path class="st1" d="M46.6,16H1.4C0.5,18.5,0,21.2,0,24c0,13.3,10.7,24,24,24s24-10.7,24-24C48,21.2,47.5,18.5,46.6,16z"/>
	<path class="st2" d="M46.6,32H1.4C4.7,41.3,13.5,48,24,48S43.3,41.3,46.6,32z"/>
</g>
</svg>
