<?xml version="1.0" encoding="utf-8"?>
<!-- Generator: Adobe Illustrator 24.0.1, SVG Export Plug-In . SVG Version: 6.00 Build 0)  -->
<svg version="1.1"
	 id="svg1306" xmlns:cc="http://creativecommons.org/ns#" xmlns:dc="http://purl.org/dc/elements/1.1/" xmlns:inkscape="http://www.inkscape.org/namespaces/inkscape" xmlns:rdf="http://www.w3.org/1999/02/22-rdf-syntax-ns#" xmlns:sodipodi="http://sodipodi.sourceforge.net/DTD/sodipodi-0.dtd" xmlns:svg="http://www.w3.org/2000/svg"
	 xmlns="http://www.w3.org/2000/svg" xmlns:xlink="http://www.w3.org/1999/xlink" x="0px" y="0px" viewBox="0 0 48 48"
	 style="enable-background:new 0 0 48 48;" xml:space="preserve">
<style type="text/css">
	.st0{fill-rule:evenodd;clip-rule:evenodd;fill:#169B62;}
	.st1{fill-rule:evenodd;clip-rule:evenodd;fill:#FFFFFF;}
	.st2{fill-rule:evenodd;clip-rule:evenodd;fill:#FF883E;}
</style>
<g>
	<path class="st0" d="M16,46.5V1.4C6.7,4.7,0,13.6,0,24S6.7,43.2,16,46.5z"/>
	<path class="st1" d="M32,46.5V1.4C29.5,0.5,26.8,0,24,0l0,0c-2.8,0-5.5,0.5-8,1.4v45.2c2.5,0.9,5.2,1.4,8,1.4
		C26.8,47.9,29.5,47.4,32,46.5z"/>
	<path class="st2" d="M32,1.4v45.2c9.3-3.3,16-12.2,16-22.6C48,13.6,41.3,4.7,32,1.4z"/>
</g>
</svg>
