<?xml version="1.0" encoding="utf-8"?>
<!-- Generator: Adobe Illustrator 24.0.1, SVG Export Plug-In . SVG Version: 6.00 Build 0)  -->
<svg version="1.1"
	 id="svg1306" xmlns:cc="http://creativecommons.org/ns#" xmlns:dc="http://purl.org/dc/elements/1.1/" xmlns:inkscape="http://www.inkscape.org/namespaces/inkscape" xmlns:rdf="http://www.w3.org/1999/02/22-rdf-syntax-ns#" xmlns:sodipodi="http://sodipodi.sourceforge.net/DTD/sodipodi-0.dtd" xmlns:svg="http://www.w3.org/2000/svg"
	 xmlns="http://www.w3.org/2000/svg" xmlns:xlink="http://www.w3.org/1999/xlink" x="0px" y="0px" viewBox="0 0 48 48"
	 style="enable-background:new 0 0 48 48;" xml:space="preserve">
<style type="text/css">
	.st0{fill-rule:evenodd;clip-rule:evenodd;fill:#007749;}
	.st1{fill-rule:evenodd;clip-rule:evenodd;}
	.st2{fill-rule:evenodd;clip-rule:evenodd;fill:#FFB81C;}
</style>
<path class="st0" d="M42.5,39.3L24,28.5L5.5,39.3C9.9,44.6,16.5,48,24,48S38.1,44.6,42.5,39.3z"/>
<path class="st0" d="M5.5,8.7L24,19.5L42.5,8.7C38.1,3.4,31.5,0,24,0S9.9,3.4,5.5,8.7z"/>
<path class="st1" d="M1.6,32.6L16.3,24L1.6,15.4C0.6,18.1,0,21,0,24S0.6,29.9,1.6,32.6z"/>
<path class="st1" d="M46.4,15.4L31.7,24l14.7,8.6c1-2.7,1.6-5.6,1.6-8.6S47.4,18.1,46.4,15.4z"/>
<path class="st2" d="M31.7,24l14.7,8.6c-0.5,1.2-1.1,2.4-1.7,3.5c-0.6,1.1-1.4,2.2-2.2,3.2L24,28.5L5.5,39.3c-0.8-1-1.6-2.1-2.2-3.2
	c-0.7-1.1-1.2-2.3-1.7-3.5L16.3,24L1.6,15.4c0.5-1.2,1-2.4,1.7-3.5c0.6-1.1,1.4-2.2,2.2-3.2L24,19.5L42.5,8.7c0.8,1,1.6,2.1,2.2,3.2
	c0.7,1.1,1.2,2.3,1.7,3.5L31.7,24z"/>
</svg>
