<svg xmlns="http://www.w3.org/2000/svg" viewBox="0 0 48 48"><defs><style>.a{fill:red;}.a,.b{fill-rule:evenodd;}.b{fill:#ffed00;}</style></defs><title>fi_kg</title><path class="a" d="M24,0h0A24,24,0,1,0,48,24,24.0062,24.0062,0,0,0,24,0Z"/><path class="b" d="M26.1172,14.4607l.2757-5.3138A.0473.0473,0,0,0,26.3,9.134l-1.3625,5.1216c-.0042.0171-.0075.0337-.01.05a.6.6,0,1,0,1.186.1864Zm1.4669.4484,1.1088-5.2042a.0473.0473,0,0,0-.09-.0276L26.451,14.5205c-.0069.0164-.0128.0322-.018.0482a.6.6,0,0,0,1.142.3708Zm1.3779.6737,1.9142-4.9647a.0472.0472,0,0,0-.0846-.0413l-2.8875,4.4441c-.0093.015-.0176.03-.0252.0447a.6.6,0,0,0,1.0694.5459Zm1.2549.8809,2.6673-4.604a.0472.0472,0,0,0-.0771-.054L29.26,15.7432c-.0116.0135-.022.0266-.0319.04a.6.6,0,1,0,.9709.7066Zm1.102,1.0653L34.67,13.3962a.0473.0473,0,0,0-.0677-.0655l-4.1168,3.3375c-.0136.0115-.0259.0229-.0378.0348a.6.6,0,0,0,.849.849Zm.9229,1.2235,3.9538-3.5608a.0472.0472,0,0,0-.0568-.0751l-4.5861,2.6562c-.0151.0091-.0291.0184-.0427.0283a.6.6,0,1,0,.7065.9709Zm.7206,1.3534,4.4621-2.8984a.0472.0472,0,0,0-.0443-.0831L32.4351,19.03c-.0164.0066-.0317.0136-.0467.0213a.6.6,0,0,0,.546,1.0694Zm.4989,1.45,4.8628-2.16a.0473.0473,0,0,0-.0307-.0891L33.11,20.4111c-.0172.0042-.0334.0086-.05.0139a.6.6,0,0,0,.3708,1.142Zm.2641,1.5109L38.8676,21.7a.0473.0473,0,0,0-.0163-.0928l-5.2926.2739c-.0177.0014-.0343.0033-.051.0059a.6.6,0,1,0,.1864,1.1861Zm.0256,1.5322,5.2921-.5524a.0472.0472,0,0,0-.0017-.0941l-5.2709-.5511c-.0177-.0015-.0345-.0022-.0514-.0022a.6.6,0,0,0,0,1.2007Zm-.2117,1.5179,5.3137.2756a.0473.0473,0,0,0,.0129-.0934L33.7445,24.937c-.0173-.0041-.0338-.0074-.05-.01a.6.6,0,0,0-.1864,1.1862ZM33.091,27.584l5.2041,1.1089a.0473.0473,0,0,0,.0274-.09l-4.8431-2.1519c-.0164-.0068-.0321-.0127-.0482-.018A.6.6,0,0,0,33.06,27.575Zm-.6738,1.378,4.9646,1.9141a.0472.0472,0,0,0,.0413-.0846l-4.444-2.8874c-.0151-.0094-.03-.0176-.0447-.0252a.6.6,0,0,0-.546,1.0694Zm-.8809,1.2549,4.604,2.6673a.0472.0472,0,0,0,.054-.0771L32.2567,29.26c-.0134-.0116-.0265-.0221-.04-.032a.6.6,0,0,0-.7065.9709Zm-1.0653,1.102L34.6038,34.67a.0472.0472,0,0,0,.0654-.0677l-3.3374-4.1169c-.0115-.0136-.0229-.0258-.0348-.0377a.6.6,0,0,0-.849.849Zm-1.2236.9229,3.5609,3.9537a.0472.0472,0,0,0,.0751-.0566l-2.6562-4.5862c-.0091-.0151-.0184-.0291-.0283-.0426a.6.6,0,1,0-.9709.7065Zm-1.3533.7206,2.8984,4.4622a.0473.0473,0,0,0,.0831-.0444L28.97,32.4351c-.0067-.0164-.0137-.0316-.0213-.0466a.6.6,0,1,0-1.0694.5459Zm-1.45.4989,2.16,4.8628a.0473.0473,0,0,0,.0891-.0307L27.5888,33.11c-.0041-.0173-.0086-.0335-.0138-.05a.6.6,0,1,0-1.142.3708Zm-1.511.2641L26.3,38.8676a.0472.0472,0,0,0,.0927-.0164l-.2739-5.2925c-.0013-.0176-.0032-.0344-.0058-.051a.6.6,0,1,0-1.1861.1864Zm-1.5322.0256.5525,5.292a.0473.0473,0,0,0,.0942-.0016l.551-5.271c.0015-.0177.0021-.0345.0021-.0513a.6.6,0,1,0-1.2006,0Zm-1.5177-.2117-.2757,5.3137a.0473.0473,0,0,0,.0933.0129l1.3625-5.1215c.0042-.0172.0075-.0337.01-.05a.6.6,0,1,0-1.1861-.1864Zm-1.4669-.4484-1.1088,5.2042a.0473.0473,0,0,0,.09.0275l2.1519-4.8432c.0068-.0164.0127-.0321.0179-.0482a.6.6,0,1,0-1.142-.3708Zm-1.3779-.6738-1.9142,4.9648a.0473.0473,0,0,0,.0847.0412l2.8874-4.444c.0094-.0151.0176-.03.0252-.0447a.6.6,0,1,0-1.0693-.5459Zm-1.2549-.8808L15.1158,36.14a.0473.0473,0,0,0,.0771.0541L18.74,32.2568c.0116-.0134.022-.0266.0319-.04a.6.6,0,1,0-.9708-.7065Zm-1.102-1.0653L13.33,34.6038a.0473.0473,0,0,0,.0678.0655l4.1167-3.3375c.0136-.0116.0259-.0229.0378-.0348a.6.6,0,0,0-.8489-.849Zm-.9229-1.2236-3.9538,3.5608a.0473.0473,0,0,0,.0568.0752l4.5861-2.6562c.0151-.0092.029-.0184.0428-.0283a.6.6,0,0,0-.7066-.9709Zm-.7206-1.3533-4.4621,2.8984a.0472.0472,0,0,0,.0443.083L15.5649,28.97c.0164-.0067.0317-.0137.0466-.0213a.6.6,0,1,0-.5459-1.0694Zm-.4989-1.4505-4.8628,2.16a.0473.0473,0,0,0,.0307.0892L14.89,27.5888c.0172-.0041.0334-.0085.05-.0138a.6.6,0,0,0-.3709-1.1421Zm-.2642-1.5108L9.1324,26.3a.0473.0473,0,0,0,.0163.0928l5.2926-.2739c.0177-.0013.0343-.0032.051-.0058a.6.6,0,0,0-.1864-1.1862Zm-.0255-1.5323-5.2921.5524a.0473.0473,0,0,0,.0017.0943l5.271.5509c.0176.0014.0344.0022.0513.0022a.6.6,0,0,0,0-1.2007Zm.2117-1.5178L9.147,21.6071a.0473.0473,0,0,0-.0129.0933l5.1215,1.3626c.0172.0041.0337.0074.05.01a.6.6,0,1,0,.1864-1.1861Zm.4483-1.4668L9.7049,19.3071a.0472.0472,0,0,0-.0274.09l4.8431,2.1519c.0164.0069.0321.0127.0481.018a.6.6,0,0,0,.3709-1.142Zm.6738-1.3779-4.9646-1.9143a.0473.0473,0,0,0-.0413.0847l4.444,2.8875c.0151.0094.03.0176.0447.0252a.6.6,0,1,0,.5459-1.0694Zm.8809-1.2549L11.86,15.1157a.0472.0472,0,0,0-.054.0771L15.7433,18.74c.0134.0115.0265.0219.04.0319a.6.6,0,0,0,.7066-.9709ZM17.529,16.681,13.3962,13.33a.0473.0473,0,0,0-.0654.0678l3.3374,4.1167c.0115.0136.0229.0259.0349.0378a.6.6,0,0,0,.8489-.849Zm1.2236-.9229-3.5608-3.9538a.0473.0473,0,0,0-.0751.0569l2.6561,4.586c.0091.0152.0185.0291.0284.0428a.6.6,0,1,0,.9708-.7066Zm1.3534-.7205-2.8984-4.4622a.0473.0473,0,0,0-.0832.0444l1.906,4.945c.0067.0164.0137.0317.0214.0467a.6.6,0,1,0,1.0693-.5459Zm1.45-.4989-2.16-4.8628a.0473.0473,0,0,0-.0891.0306L20.4112,14.89c.0041.0172.0086.0334.0138.0494a.6.6,0,1,0,1.142-.3708Zm1.511-.2642L21.7,9.1323a.0473.0473,0,0,0-.0928.0164l.2739,5.2925c.0013.0177.0032.0344.0059.051a.6.6,0,1,0,1.1861-.1864ZM24.6,14.249,24.047,8.9568a.0473.0473,0,0,0-.0942.0018l-.5509,5.271c-.0016.0176-.0022.0344-.0022.0512a.6.6,0,1,0,1.2006,0ZM24,14.8854A9.1146,9.1146,0,1,1,14.8855,24,9.1146,9.1146,0,0,1,24,14.8854Zm0,1.0927A8.0219,8.0219,0,1,1,15.9781,24,8.0219,8.0219,0,0,1,24,15.9781Zm-6.6982,10.43a15.8633,15.8633,0,0,1,3.2644-4.5063q.3074.2018.6085.4185a15.7975,15.7975,0,0,0-3.4809,4.9387A7.1636,7.1636,0,0,1,17.3018,26.4077Zm7.2641-4.14q.279.2339.55.4832.2888-.2367.5851-.4577-.27-.2445-.5487-.4756Q24.8554,22.0349,24.5659,22.2672Zm-1.1656-.89q.3033.2106.6.4367.2963-.2262.6-.4367-.2964-.2264-.6-.4376Q23.6968,21.1512,23.4,21.3776Zm.0538,1.8633q.2775.2505.5459.5172.2682-.2667.5459-.5172-.2682-.2564-.5459-.4994Q23.7225,22.9842,23.4541,23.2409Zm-1.155-.9482q.2964.2208.5852.4577.2708-.2493.55-.4832-.29-.2323-.5863-.45Q22.5695,22.0483,22.2991,22.2927Zm3.5885-1.7251q-.298-.2274-.6029-.44-.3468.198-.6882.4152.3114.2064.6163.4288Q25.547,20.761,25.8876,20.5676Zm1.0618.88q-.2676-.2406-.5431-.4685-.3252.197-.6452.4108.2817.2249.5558.4647Q26.63,21.6435,26.9494,21.448Zm-3.6721-1.6955q.3582-.2289.7227-.4373.3643.2081.7228.4373-.3645.1969-.7228.413Q23.6419,19.9494,23.2773,19.7525Zm-1.1648.8151q.298-.2274.6028-.44.3468.198.6882.4152-.3116.2064-.6162.4288Q22.4531,20.761,22.1125,20.5676Zm-1.0619.88q.2676-.2406.5431-.4685.3252.197.6453.4108-.2818.2249-.5558.4647Q21.37,21.6435,21.0506,21.448ZM17.704,20.4A16.0295,16.0295,0,0,1,19.9082,21.49a15.6423,15.6423,0,0,0-2.93,3.8184A7.1972,7.1972,0,0,1,17.704,20.4Zm.61-.9331a15.394,15.394,0,0,1,2.616,1.1312q-.2781.2228-.5487.46a18.2924,18.2924,0,0,0-2.4092-1.1078Q18.1328,19.7012,18.3136,19.4667Zm.7648-.8458a14.83,14.83,0,0,1,2.9786,1.1508q-.3114.2085-.6163.4328a18.7772,18.7772,0,0,0-2.7851-1.1494Q18.8578,18.8293,19.0784,18.6209Zm1.1155-.8628c.021.0078.0431.0155.0665.0234l.0789.02a14.8405,14.8405,0,0,1,3.0337,1.1732q-.3822.2086-.757.4384a19.0829,19.0829,0,0,0-2.9582-1.1424c-.0086-.0024-.064-.0216-.1263-.0432A7.2057,7.2057,0,0,1,20.1939,17.7581Zm7.0009-.343c-.0387.0123-.0668.0216-.0752.0249A19.06,19.06,0,0,0,24,18.6492a19.0457,19.0457,0,0,0-3.06-1.1918l-.06-.0174c-.028-.0072-.0536-.0153-.0773-.0238a7.1827,7.1827,0,0,1,6.3917-.0011Zm1.2805.8181c-.0267.008-.0514.015-.0722.02a19.08,19.08,0,0,0-3.0191,1.16q-.3747-.23-.7569-.4384A14.7839,14.7839,0,0,1,27.74,17.7815a.5864.5864,0,0,0,.0759-.0176A7.1839,7.1839,0,0,1,28.4753,18.2332Zm.8692.8219a18.7783,18.7783,0,0,0-2.7852,1.1494q-.3045-.2245-.6163-.4328a14.8327,14.8327,0,0,1,2.9786-1.1508Q29.1421,18.8291,29.3445,19.0551Zm.6839.8954a18.2864,18.2864,0,0,0-2.4092,1.1078q-.2706-.2376-.5487-.46a15.3931,15.3931,0,0,1,2.6159-1.1312Q29.867,19.701,30.0284,19.9505Zm.9931,5.3582a15.6346,15.6346,0,0,0-2.93-3.8184A16.0295,16.0295,0,0,1,30.296,20.4a7.194,7.194,0,0,1,.7255,4.9089Zm-.7153,1.95A15.7975,15.7975,0,0,0,26.8253,22.32q.3012-.2168.6084-.4185a15.862,15.862,0,0,1,3.2646,4.5063A7.14,7.14,0,0,1,30.3062,27.2586ZM29.1889,28.79A16.0128,16.0128,0,0,0,25.64,23.2557q.2843-.2456.5769-.4764a15.6379,15.6379,0,0,1,3.5724,5.2937A7.1983,7.1983,0,0,1,29.1889,28.79ZM27.835,29.9l-.0954-.2562a16.1664,16.1664,0,0,0-3.2132-5.3364q.2679-.2772.5468-.5405a15.39,15.39,0,0,1,3.4742,5.618A7.2288,7.2288,0,0,1,27.835,29.9Zm-6.94.4055.0917-.2866A15.2344,15.2344,0,0,1,24,24.8784a15.2344,15.2344,0,0,1,3.0132,5.1409l.094.2856a7.1892,7.1892,0,0,1-6.2121.001Zm-1.4424-.9206a15.39,15.39,0,0,1,3.4741-5.618q.2786.2632.5468.5405A16.1664,16.1664,0,0,0,20.26,29.6442l-.095.2564A7.1993,7.1993,0,0,1,19.4527,29.3853ZM18.2109,28.073a15.6382,15.6382,0,0,1,3.5725-5.2937q.2923.231.5769.4764A16.0145,16.0145,0,0,0,18.8111,28.79a7.2119,7.2119,0,0,1-.6-.7173"/></svg>