<svg xmlns="http://www.w3.org/2000/svg" viewBox="0 0 48 48"><defs><style>.a{fill:#fefefe;}.a,.b,.c{fill-rule:evenodd;}.b{fill:#cd2e3a;}.c{fill:#0047a0;}</style></defs><title>fi_KR</title><path class="a" d="M24,0h0A24,24,0,1,0,48,24,24.0062,24.0062,0,0,0,24,0Z"/><path d="M5.2789,16.9276l4.9923-7.4885,1.248.8321L6.5269,17.76Zm1.8721,1.248,4.9923-7.4884,1.2481.832L8.3991,19.0077Zm1.8721,1.2481,4.9923-7.4884,1.2481.832-4.9923,7.4885Z"/><rect x="36.1864" y="35.6788" width="4.1249" height="1.4999" transform="translate(-13.2779 48.0487) rotate(-56.3122)"/><rect x="38.8907" y="31.6226" width="4.1246" height="1.5" transform="translate(-8.6986 48.4925) rotate(-56.3122)"/><rect x="34.3143" y="34.4305" width="4.1248" height="1.5003" transform="translate(-13.0731 45.9351) rotate(-56.3122)"/><rect x="37.0181" y="30.3745" width="4.1252" height="1.4999" transform="translate(-8.4945 46.3769) rotate(-56.31)"/><rect x="32.4421" y="33.1826" width="4.125" height="1.5" transform="translate(-12.8696 43.8159) rotate(-56.3053)"/><rect x="35.1461" y="29.1265" width="4.1252" height="1.4999" transform="translate(-8.2897 44.2635) rotate(-56.3099)"/><path d="M6.5272,30.2405l-1.248.8322,4.992,7.488,1.248-.8316Zm3.744-2.496-1.248.8316,4.992,7.4886,1.2486-.8322Z"/><rect x="10.8732" y="33.1183" width="1.5" height="4.1246" transform="translate(-17.5651 12.3592) rotate(-33.6964)"/><rect x="8.1692" y="29.062" width="1.4997" height="4.1246" transform="translate(-15.7621 10.1692) rotate(-33.6773)"/><path d="M35.857,10.6871l-1.2486.8322,4.9926,7.4886,1.248-.8322Z"/><rect x="36.4588" y="16.061" width="1.4999" height="4.1252" transform="translate(-3.8034 23.6881) rotate(-33.6964)"/><rect x="33.7545" y="12.0048" width="1.5" height="4.1255" transform="translate(-2.0074 21.5064) rotate(-33.6964)"/><rect x="40.2031" y="13.5655" width="1.5" height="4.1246" transform="translate(-1.7896 25.3462) rotate(-33.6965)"/><rect x="37.4989" y="9.5089" width="1.5" height="4.1246" transform="translate(0.0066 23.1642) rotate(-33.6964)"/><path class="b" d="M18.8375,31.3721a9.0006,9.0006,0,0,0,12.5346-2.21A4.5,4.5,0,1,0,24,24a4.5,4.5,0,0,1-7.3721-5.1625A9.0006,9.0006,0,0,0,18.8375,31.3721Z"/><path class="c" d="M17.7327,25.1048A4.494,4.494,0,0,0,24,24a4.5,4.5,0,1,1,7.3721,5.1625,9,9,0,0,0-14.7442-10.325A4.494,4.494,0,0,0,17.7327,25.1048Z"/></svg>