<svg xmlns="http://www.w3.org/2000/svg" viewBox="0 0 48 48"><defs><style>.a{fill:#c81010;}.b,.c,.d,.e,.f,.g,.h,.i,.j,.k,.l,.m,.n,.o,.p,.q,.r,.s,.t{fill:#f8d000;}.b,.c,.d,.e,.f,.g,.h,.i,.j,.k,.l,.m,.n,.o,.p,.q,.r,.s,.t,.u,.v{stroke:#000;}.b{stroke-miterlimit:22.9256;}.b,.c,.d,.e,.f,.g,.h,.i,.j,.k,.l,.m,.n,.o,.p,.q,.r,.s,.t,.v{stroke-width:0.15px;}.c{stroke-miterlimit:22.9256;}.d{stroke-miterlimit:22.9256;}.e{stroke-miterlimit:22.9256;}.f{stroke-miterlimit:22.9256;}.g{stroke-miterlimit:22.9256;}.h{stroke-miterlimit:22.9256;}.i{stroke-miterlimit:22.9256;}.j{stroke-miterlimit:22.9256;}.k{stroke-miterlimit:22.9256;}.l{stroke-miterlimit:22.9256;}.m{stroke-miterlimit:22.9256;}.n{stroke-miterlimit:22.9256;}.o{stroke-miterlimit:22.9256;}.p{stroke-miterlimit:22.9256;}.q{stroke-miterlimit:22.9256;}.r{stroke-miterlimit:22.9256;}.s{stroke-miterlimit:22.9256;}.t,.u,.v{stroke-miterlimit:22.9256;}.u,.v{fill:none;}.u{stroke-width:0.15px;}.w{fill:#183070;}.x{fill:#fff;}</style></defs><title>fi_KI</title><path class="a" d="M48,24c0,.54-.02,1.07-.06,1.6H.06C.02,25.07,0,24.54,0,24a24,24,0,0,1,48,0Z"/><path class="b" d="M17.2682,23.8411a6.6668,6.6668,0,0,1-4.6351-2.8873,6.6668,6.6668,0,0,0,5.436.52"/><path class="c" d="M17.2292,25.4273l-5.5763-1.7714,5.8069-.7166"/><path class="d" d="M18.0694,21.4737a6.6666,6.6666,0,0,1-3.2789-4.3669,6.6671,6.6671,0,0,0,4.8808,2.4493"/><path class="e" d="M17.46,22.9386,12.9,19.2722l5.6736,1.43"/><path class="f" d="M19.6709,19.5564A6.6668,6.6668,0,0,1,18.19,14.3a6.6668,6.6668,0,0,0,3.6669,4.0466"/><path class="g" d="M18.5735,20.7024l-2.9278-5.0657L20.42,19.019"/><path class="h" d="M21.8578,18.3465a6.6671,6.6671,0,0,1,.5186-5.4362,6.6663,6.6663,0,0,0,1.9571,5.0981"/><path class="i" d="M20.4205,19.0186l-.9-5.7813,3.23,4.8787"/><path class="j" d="M24.3342,18.0085a6.6663,6.6663,0,0,1,2.4476-4.8816,6.6667,6.6667,0,0,0-.017,5.4608"/><path class="k" d="M22.7511,18.1159l1.25-5.7159L25.25,18.1161"/><path class="l" d="M26.7643,18.5875A6.6664,6.6664,0,0,1,30.81,14.9193a6.6665,6.6665,0,0,0-1.9879,5.0861"/><path class="m" d="M25.2493,18.116l3.23-4.8788-.9,5.7813"/><path class="n" d="M28.8221,20.0059A6.6667,6.6667,0,0,1,33.92,18.047a6.6671,6.6671,0,0,0-3.6914,4.0243"/><path class="o" d="M27.58,19.0189l4.7742-3.3825-2.9277,5.0658"/><path class="p" d="M30.2285,22.0719a6.6671,6.6671,0,0,1,5.4608.0152,6.6665,6.6665,0,0,0-4.8959,2.4188"/><path class="q" d="M29.4267,20.7028l5.6738-1.4291L30.54,22.94"/><path class="r" d="M30.7934,24.5054A6.6667,6.6667,0,0,1,35.88,26.4916a6.6672,6.6672,0,0,0-5.4391.4875"/><path class="s" d="M30.54,22.9391l5.8069.7164-5.5763,1.7716"/><circle class="t" cx="24" cy="24.8" r="6.8"/><path class="t" d="M24.7667,7.6453a14.086,14.086,0,0,0-5.8414-1.2626c-2.52.0173-3.7226,1.1-6.1253,1.2.952,1.0253,4.4027,1.276,5.8573-.0707,2.1627.2253,2.6534.8093,3.2334,1.536-.9027-.1427-1.9427-.4027-2.8054.552a11.8181,11.8181,0,0,1-2.3106,0c-.5814,0-.7827.2853-.7747.8.376-.52,2.9747-.2133,3.612,0,.4893.164,1.0093.8427,1.6293.9533,1.6254.2894,3.9574-.56,6.108-1.1386L32,9.6H28.8093L32.8,8.8H28.4613a2.9575,2.9575,0,0,0-.488-.3573,7.1255,7.1255,0,0,0,2.3547-2.656,20.2773,20.2773,0,0,0,4.872-.572C24.9093,4.076,27.252,5.304,24.7667,7.6453Z"/><path d="M20.008,9.3187a.2.2,0,1,1-.2.2A.2.2,0,0,1,20.008,9.3187Z"/><path class="u" d="M20.008,9.3187a.2.2,0,1,1-.2.2A.2.2,0,0,1,20.008,9.3187Z"/><path class="v" d="M22.684,9.1053A3.6712,3.6712,0,0,1,21.2933,9.6"/><path class="v" d="M27.3493,10.2147a2.8723,2.8723,0,0,1,1.46-.6147"/><path class="v" d="M15.176,7.28a7.6876,7.6876,0,0,1,.9147-.412"/><path class="v" d="M17.7507,6.816a5.6439,5.6439,0,0,1,2.0826-.404"/><path class="v" d="M20.4147,6.92A7.4513,7.4513,0,0,1,22.9,6.968"/><path class="v" d="M21.9,7.232a5.4379,5.4379,0,0,1,2.1.1107"/><path class="v" d="M23.0027,7.5587a6.3229,6.3229,0,0,1,1.6346.2253"/><path class="v" d="M12.8,7.5827a4.5227,4.5227,0,0,0,2.7773-.18"/><path class="v" d="M12.9947,7.764s1.9893.4907,2.8986-.42"/><path class="v" d="M13.6613,8.108a2.708,2.708,0,0,0,2.6774-.7627"/><path class="v" d="M15.0533,8.4107a3.4258,3.4258,0,0,0,1.6694-1.06"/><path class="v" d="M16,8.4307a4.6152,4.6152,0,0,0,1.104-1.064"/><path class="v" d="M26.4613,7.796a2.7024,2.7024,0,0,0,1.512.6467"/><path class="v" d="M26.672,7.608a2.7881,2.7881,0,0,0,1.5827.6387"/><path class="v" d="M26.9307,7.3667a3.44,3.44,0,0,0,1.656.6146"/><path class="v" d="M27.188,7.1093a3.978,3.978,0,0,0,1.7053.5934"/><path class="v" d="M27.5027,6.7733a3.0833,3.0833,0,0,0,1.6666.6507"/><path class="v" d="M27.7373,6.5053a3.1383,3.1383,0,0,0,1.684.64"/><path class="v" d="M27.968,6.2253a2.6574,2.6574,0,0,0,1.7253.5854"/><path class="v" d="M28.2027,5.9227a2.6583,2.6583,0,0,0,1.704.5973"/><path class="v" d="M28.3853,5.6733a3.1255,3.1255,0,0,0,1.6974.5814"/><path class="v" d="M28.5413,5.4467a4.2863,4.2863,0,0,0,1.66.604"/><path class="v" d="M28.7307,5.1587a4.9939,4.9939,0,0,0,1.5973.628"/><path class="v" d="M25.1787,8.0507a1.2225,1.2225,0,0,0,.6453.2413"/><path class="v" d="M25.3707,7.864a1.1526,1.1526,0,0,0,.6866.2453"/><path class="v" d="M25.604,7.6347a.9826.9826,0,0,0,.7213.2506"/><path class="v" d="M25.8253,7.4133a1.5407,1.5407,0,0,0,.7427.2587"/><path class="v" d="M26.0707,7.1613a1.3343,1.3343,0,0,0,.7506.276"/><path class="v" d="M26.2893,6.884a1.3611,1.3611,0,0,0,.776.3133"/><path class="v" d="M26.52,6.684a1.9206,1.9206,0,0,0,.7987.252"/><path class="v" d="M26.7293,6.4507a4.225,4.225,0,0,0,.856.196"/><path class="v" d="M26.9707,6.1653a1.511,1.511,0,0,0,.8546.2027"/><path class="v" d="M27.188,5.88a1.7006,1.7006,0,0,0,.8347.248"/><path class="v" d="M27.348,5.6093a1.727,1.727,0,0,0,.9133.2134"/><path class="v" d="M27.5267,5.2853a1.2151,1.2151,0,0,0,.8893.328"/><path class="v" d="M27.652,5.1387a1.7336,1.7336,0,0,0,.9347.2333"/><path class="v" d="M27.888,4.9613a1.7639,1.7639,0,0,0,.8093.2467"/><path class="v" d="M28.3173,4.832a2.245,2.245,0,0,0,1.772-.032"/><path class="v" d="M28.9587,5.1053s1.5226.3494,2.1826-.2613"/><path class="v" d="M30.1533,5.196a6.072,6.072,0,0,0,2.2174-.2613"/><path class="v" d="M30.8493,5.2027a15.5581,15.5581,0,0,0,4.3507.012"/><path class="v" d="M16.432,8.3947A3.5791,3.5791,0,0,0,17.4373,7.388"/><path class="v" d="M16.964,8.308a4.7617,4.7617,0,0,0,.7387-.8987"/><path class="v" d="M17.492,8.1653a2.5859,2.5859,0,0,0,.5747-.7186"/><path class="v" d="M15.1933,7.4213a11.6256,11.6256,0,0,1,3.464.0907"/><path class="v" d="M16.1373,7.0133A7.1082,7.1082,0,0,1,17.756,6.472"/><path class="v" d="M16.988,6.8413A6.3082,6.3082,0,0,1,18.536,6.4"/><path class="v" d="M18.4093,6.7853a5.0174,5.0174,0,0,1,1.924-.3346"/><path class="v" d="M19.504,6.792a7.461,7.461,0,0,1,2.28-.116"/><path class="v" d="M22.6813,7.372a7.5774,7.5774,0,0,1,1.9467.2173"/><path class="v" d="M21.1333,7.008a11.5662,11.5662,0,0,1,2.1867.0947"/><path class="v" d="M29.156,5.1427a3.9314,3.9314,0,0,0,1.696.6346"/><path class="v" d="M29.86,5.2053a5.3082,5.3082,0,0,0,1.808.5374"/><path class="v" d="M30.596,5.2107a6.1853,6.1853,0,0,0,2.024.4546"/><path class="v" d="M31.6853,5.304a8.7076,8.7076,0,0,0,2.2454.176"/><path class="v" d="M18.988,6.7707a5.1278,5.1278,0,0,1,1.8853-.2574"/><path class="v" d="M23.472,7.7893a1.8187,1.8187,0,0,1,.9147.192"/><path class="v" d="M21.8907,9.048a3.4547,3.4547,0,0,0,.7933.0573,9.8665,9.8665,0,0,0,2.0827-1.46"/><path class="w" d="M47.94,25.6a23.9929,23.9929,0,0,1-47.88,0Z"/><path class="x" d="M48,24.03a23.0954,23.0954,0,0,1-.23,3.24,9.2,9.2,0,0,0-2.38.62,11.97,11.97,0,0,1-9.18,0,9.79,9.79,0,0,0-7.26.01,14.0625,14.0625,0,0,1-9.9,0,9.79,9.79,0,0,0-7.26-.01,11.97,11.97,0,0,1-9.18,0,9.2,9.2,0,0,0-2.38-.62A23.0954,23.0954,0,0,1,0,24.03a12.34,12.34,0,0,1,3.79.88,8.7712,8.7712,0,0,0,6.82,0,13.0333,13.0333,0,0,1,9.54-.01,10.8649,10.8649,0,0,0,7.7,0,13.0333,13.0333,0,0,1,9.54.01,8.7712,8.7712,0,0,0,6.82,0A12.34,12.34,0,0,1,48,24.03Z"/><path class="x" d="M47.09,30.53a22.8889,22.8889,0,0,1-1.35,3.63c-.12.04-.23.08-.35.13a11.97,11.97,0,0,1-9.18,0,9.79,9.79,0,0,0-7.26.01,14.0625,14.0625,0,0,1-9.9,0,9.79,9.79,0,0,0-7.26-.01,11.97,11.97,0,0,1-9.18,0c-.12-.05-.23-.09-.35-.13A22.8889,22.8889,0,0,1,.91,30.53a12.8507,12.8507,0,0,1,2.88.78,8.7712,8.7712,0,0,0,6.82,0,13.0333,13.0333,0,0,1,9.54-.01,10.8649,10.8649,0,0,0,7.7,0,13.0333,13.0333,0,0,1,9.54.01,8.7712,8.7712,0,0,0,6.82,0A12.8507,12.8507,0,0,1,47.09,30.53Z"/><path class="x" d="M43.51,37.96a23.5015,23.5015,0,0,1-3.19,3.63,12.3061,12.3061,0,0,1-4.11-.9,9.79,9.79,0,0,0-7.26.01,14.0625,14.0625,0,0,1-9.9,0,9.79,9.79,0,0,0-7.26-.01,12.3061,12.3061,0,0,1-4.11.9,23.5015,23.5015,0,0,1-3.19-3.63,8.6829,8.6829,0,0,0,6.12-.25,13.0333,13.0333,0,0,1,9.54-.01,10.8649,10.8649,0,0,0,7.7,0,13.0333,13.0333,0,0,1,9.54.01A8.6829,8.6829,0,0,0,43.51,37.96Z"/></svg>