<?xml version="1.0" encoding="utf-8"?>
<!-- Generator: Adobe Illustrator 24.0.1, SVG Export Plug-In . SVG Version: 6.00 Build 0)  -->
<svg version="1.1"
	 id="svg1306" xmlns:cc="http://creativecommons.org/ns#" xmlns:dc="http://purl.org/dc/elements/1.1/" xmlns:inkscape="http://www.inkscape.org/namespaces/inkscape" xmlns:rdf="http://www.w3.org/1999/02/22-rdf-syntax-ns#" xmlns:sodipodi="http://sodipodi.sourceforge.net/DTD/sodipodi-0.dtd" xmlns:svg="http://www.w3.org/2000/svg"
	 xmlns="http://www.w3.org/2000/svg" xmlns:xlink="http://www.w3.org/1999/xlink" x="0px" y="0px" viewBox="0 0 48 48"
	 style="enable-background:new 0 0 48 48;" xml:space="preserve">
<style type="text/css">
	.st0{fill:#FECB00;}
	.st1{fill:#34B233;}
	.st2{fill:#EA2839;}
	.st3{fill:#FFFFFF;}
</style>
<circle class="st0" cx="24" cy="24" r="24"/>
<path class="st1" d="M48,24c0,13.3-10.8,24-24,24S0,37.3,0,24c0-2.8,0.5-5.5,1.4-8h45.2C47.5,18.5,48,21.2,48,24z"/>
<path class="st2" d="M46.6,32C43.3,41.3,34.4,48,24,48S4.7,41.3,1.4,32H46.6z"/>
<polygon class="st3" points="30.4,27.8 34.4,40 24,32.4 13.6,40 17.6,27.8 7.2,20.2 20,20.2 24,8 28,20.2 40.8,20.2 "/>
</svg>
