<svg xmlns="http://www.w3.org/2000/svg" viewBox="0 0 48 48"><defs><style>.a,.g,.n{fill:#fff;}.b,.d{fill:#0c4076;}.c,.i,.k,.m{fill:#c6363c;}.d,.e,.f,.g,.i,.j,.l,.m,.n{stroke:#21231e;}.d,.e,.f,.g,.i,.j,.l,.n{stroke-width:0.06px;}.e,.f{fill:#edb92e;}.e,.g,.l{stroke-linejoin:round;}.f,.j,.l,.n{stroke-linecap:round;}.h{fill:#21231e;}.j,.l{fill:none;}.k{stroke:#fff;stroke-width:0.13px;}.m{stroke-width:0.1px;}</style></defs><title>fi_RS</title><circle class="a" cx="24" cy="24" r="24"/><path class="b" d="M48,24a23.5946,23.5946,0,0,1-1.38,8H1.38A23.5946,23.5946,0,0,1,0,24a24,24,0,0,1,48,0Z"/><path class="c" d="M46.62,16H1.38a23.99,23.99,0,0,1,45.24,0Z"/><circle class="d" cx="17.7143" cy="6.5067" r="0.9067"/><path class="e" d="M17.8743,4.5333a.16.16,0,1,0,0-.32.16.16,0,1,0-.32,0,.16.16,0,1,0,0,.32V4.88H17.261a.16.16,0,1,0-.32,0,.16.16,0,1,0,0,.32.16.16,0,1,0,.32,0h.2933V6.3467h.32V5.2h.2933a.16.16,0,0,0,.32,0,.16.16,0,0,0,0-.32h0a.16.16,0,0,0-.32,0h-.2933Z"/><path class="e" d="M17.8743,5.6107a.9054.9054,0,0,0-.32,0v.9066h.32Z"/><path class="e" d="M18.61,6.3467a.9054.9054,0,0,1,0,.32q-.8959-.0427-1.792,0a.9054.9054,0,0,1,0-.32Q17.7143,6.304,18.61,6.3467Z"/><path class="e" d="M23.101,14.08a5.1327,5.1327,0,0,1,.5866-.96q-.9066.6933-.96-.32-.8533,1.1733-1.44-.2133-1.0132,1.44-1.6533-.1067-1.0666,1.3333-1.92-.1067-.8534,1.44-1.92.1067-.64,1.5466-1.6533.1067-.5868,1.3866-1.44.2133-.0534,1.0134-.96.32a5.1381,5.1381,0,0,1,.5866.96Z"/><path class="e" d="M12.3276,14.1173l.32,1.6534H22.781l.32-1.6534-5.3867-.2666Z"/><path class="e" d="M23.6343,12.5707c-.3733.96-.6933.96-.7467.1066.0534-.0533.0427-.2026.1387-.1386.048.032.1227-.064.0747-.1067a.2165.2165,0,0,0-.32.032.18.18,0,0,0-.2667-.16c-.0533.0213-.0533.1333,0,.128.1067-.0107.08.0853.1067.1387q-1.0668,1.3333-.9067-.3734l-.5333-.1066q-.9068,1.8133-1.3867.16c.0533-.0534.0533-.1814.16-.1387.0533.0213.1067-.0747.0427-.128-.128-.1067-.256-.0533-.3627.0533a.217.217,0,0,0-.352-.1066c-.064.0426-.0213.1546.0427.1386.128-.032.0693.128.1493.1814-.2667,1.0666-1.6533,1.12-1.4133-.4267h-.6934c.24,1.5467-1.1466,1.4933-1.4133.4267.08-.0534.0213-.2134.1493-.1814.064.016.1067-.096.0427-.1386a.217.217,0,0,0-.352.1066c-.1067-.1066-.2347-.16-.3627-.0533-.064.0533-.0106.1493.0427.128.1067-.0427.1067.0853.16.1387q-.48,1.6533-1.3867-.16l-.5333.1066q.16,1.7067-.9067.3734c.0267-.0534,0-.1494.1067-.1387.0533.0053.0533-.1067,0-.128a.18.18,0,0,0-.2667.16.2165.2165,0,0,0-.32-.032c-.048.0427.0267.1387.0747.1067.096-.064.0853.0853.1387.1386-.0534.8534-.3734.8534-.7467-.1066l-.2133.0533a1.0853,1.0853,0,0,0,.2133.64c.5333.64.96.5333.9867-.2667.72.8534,1.3066.7467,1.4133-.16.5867,1.1734,1.6.5867,1.6267-.1066a.96.96,0,0,0,1.8933-.16.96.96,0,0,0,1.8933.16c.0267.6933,1.04,1.28,1.6267.1066.1067.9067.6933,1.0134,1.4133.16.0267.8.4534.9067.9867.2667a1.0853,1.0853,0,0,0,.2133-.64Z"/><path class="e" d="M12.3276,14.2667c-.2666.0266-.2666-.24,0-.2667A54.0037,54.0037,0,0,1,23.101,14c.2666.0267.2666.2933,0,.2667A54.0037,54.0037,0,0,0,12.3276,14.2667Z"/><path class="e" d="M17.181,10.64l-.3734-.48a12.4933,12.4933,0,0,0,0-2.8267Q16.701,6.96,17.021,7.12a1.4733,1.4733,0,0,0,1.3866,0q.32-.16.2134.2133a12.4933,12.4933,0,0,0,0,2.8267l-.3734.48Z"/><path class="f" d="M18.941,14.72l-1.2267.6133L16.4876,14.72l1.2267-.6133Z"/><path class="e" d="M23.0316,8.48l1.472.6933.16.64-.5813.9067.0533.7467H24.61L25.4,9.3333,24.397,8.48l-2.3147-.8.9493.8"/><path class="e" d="M24.1836,11.392a1.83,1.83,0,0,0,.0656-.2517.8474.8474,0,0,0-.0311-.4347,6.8754,6.8754,0,0,0,.4589-.7109.7809.7809,0,0,0,.1073-.5631.99.99,0,0,0-.399-.4806,3.3833,3.3833,0,0,0-.7164-.3982,4.2006,4.2006,0,0,0-1.398-.379l.2174.2045a6.8344,6.8344,0,0,1,1.7517.7669c.4683.3653.4567.4518-.2226,1.4268-.0212.03-.07.108-.0534.1434a.95.95,0,0,1-.0071.6124c.0586.1121.1436.0533.227.0642Z"/><path class="e" d="M19.7356,10.7813c-.1822-.0123-.1371.3144-.1011.3872.0469.095.0905.0981.15.01C19.83,11.1113,19.9178,10.7937,19.7356,10.7813Z"/><path class="e" d="M23.1756,11.2427c-.174-.0558-.2075.2723-.19.3517.0231.1035.0647.1169.143.0458C23.1888,11.5858,23.35,11.2985,23.1756,11.2427Z"/><circle class="g" cx="22.3543" cy="7.7333" r="0.3413"/><circle class="g" cx="22.9943" cy="7.9467" r="0.3413"/><circle class="g" cx="23.6343" cy="8.16" r="0.3413"/><circle class="g" cx="24.2743" cy="8.4533" r="0.3413"/><circle class="g" cx="24.861" cy="8.8" r="0.3413"/><circle class="g" cx="24.5943" cy="11.2" r="0.3413"/><circle class="g" cx="24.9143" cy="10.6133" r="0.3413"/><circle class="g" cx="25.181" cy="10.0267" r="0.3413"/><circle class="g" cx="25.2876" cy="9.3333" r="0.3413"/><circle class="g" cx="18.9943" cy="15.1467" r="0.1707"/><circle class="g" cx="21.6076" cy="15.3067" r="0.1707"/><circle class="g" cx="21.7143" cy="14.5067" r="0.1707"/><circle class="g" cx="19.0476" cy="14.3467" r="0.1707"/><path class="g" d="M19.837,11.8933c.1066-.16.3093-.9066-.1174-.9333s-.32.7467-.24.9067C19.5863,12.08,19.6983,12.1013,19.837,11.8933Z"/><path class="g" d="M22.68,12.24c.0534.24.144.272.336.1013.144-.128.5174-.7946.1067-.928S22.637,12.048,22.68,12.24Z"/><path class="e" d="M18.5676,7.4667l1.8667.0533,1.1733.3733.32.7467-.8533,1.6533.3733,1.0667,1.12-.96.5334-1.9733L21.661,7.2l-3.04-.2133Z"/><path class="e" d="M18.6636,7.3493a5.9545,5.9545,0,0,1,2.7893.3825c.7841.3137.7073,1.23-.2489,2.5008a1.3448,1.3448,0,0,1,.1435.5925c-.1012-.0056-.1721-.003-.2613-.0052a.5265.5265,0,0,0-.0959-.4756c-.0571-.0867-.0687-.0715,0-.1682.5692-.8.9464-1.5.7245-1.9229-.27-.514-1.315-.7817-3.0781-.7425l.01-.142.0172-.0194Z"/><path class="e" d="M22.397,7.68q-.0484.0656-.0981.131c.5174.2859.7316.5875.6811.8907-.0086.0521-.1659.6071-.5173,1.6827a3.1328,3.1328,0,0,0-.5371.4486c.0132.015-.0379.0619-.0226.0747-.0359.1643.148.1308.272.09a1.0352,1.0352,0,0,1,.345-.3971c.0213-.0146.098-.0523.1057-.0768.188-.6053.3769-1.1649.5389-1.6861.1628-.5237-.19-.895-.7671-1.158Z"/><circle class="g" cx="18.8876" cy="6.9333" r="0.3413"/><circle class="g" cx="19.5543" cy="6.9333" r="0.3413"/><circle class="g" cx="20.221" cy="7.0133" r="0.3413"/><circle class="g" cx="20.861" cy="7.1467" r="0.3413"/><circle class="g" cx="21.501" cy="7.36" r="0.3413"/><circle class="g" cx="22.0876" cy="7.6267" r="0.3413"/><circle class="g" cx="22.461" cy="8.0533" r="0.3413"/><circle class="g" cx="21.7676" cy="10.5067" r="0.3413"/><circle class="g" cx="22.0343" cy="9.92" r="0.3413"/><circle class="g" cx="22.301" cy="9.3333" r="0.3413"/><circle class="g" cx="22.5143" cy="8.6933" r="0.3413"/><path class="e" d="M24.3276,11.5733l.0194.1056a.9811.9811,0,0,0,.3813.0264C24.5517,11.5293,24.42,11.4919,24.3276,11.5733Z"/><path class="e" d="M24.381,11.3227c-.0945.0231-.1032.0392-.1444.0464a.2147.2147,0,0,1-.176-.0389c-.2046-.1237-.209.0991-.13.2659a.4683.4683,0,0,1,.0558.3793c-.0651.1222-.0512.1781-.0052.2111.0318.021.0622.0407.0894.0582.0552.0655.0971.0543.1048-.0315.2044-.0847.1893-.3006.2505-.4744.0894-.2542.4144-.3143-.0455-.4161Z"/><path class="e" d="M24.2743,11.3333c-.1779.0639-.1978-.0355-.3179-.03.0473.2742.0952.4161.3792.2689a.325.325,0,0,1,.3955.1259c.014.0322.1052-.0347.1385-.1081C25.009,11.2826,24.5128,11.2477,24.2743,11.3333Z"/><path class="e" d="M23.645,12.6613c-.129-.04-.3305.2473-.3784.2424a1.2193,1.2193,0,0,1,.2951-.8671c.1556-.0511.17-.1519.2017-.3856.01-.07.143-.0217.1454.0972a.9878.9878,0,0,1-.0159.307.11.11,0,0,0,.0426.1232C23.6928,12.2752,23.6332,12.3939,23.645,12.6613Z"/><path class="e" d="M23.7623,11.6533a.5077.5077,0,0,1,.0343.18.254.254,0,0,1-.0582.1722.5543.5543,0,0,1-.16.1347.4034.4034,0,0,0-.1209.159.5642.5642,0,0,0-.0633.2109c-.0051.1909-.0421.3578-.1289.3907a.17.17,0,0,1-.1235.0079.4489.4489,0,0,1,.0383-.13.57.57,0,0,0,.0838-.37c-.0121-.0616-.0519-.0849-.0449-.1417.0137-.11.1-.3211.2266-.3211.1249,0,.1832-.0135.2478-.18a.4759.4759,0,0,1,.0693-.112Z"/><path class="e" d="M24.2316,12.112a.4564.4564,0,0,0-.1135-.06.3078.3078,0,0,0-.2033-.0092c-.2993.0905-.43.6223-.1024.75.0646.0079.1242-.0505.1822-.1789a.9957.9957,0,0,1,.219-.36C24.2614,12.1935,24.2629,12.1425,24.2316,12.112Z"/><path class="e" d="M24.0823,12.144c-.2876-.1122-.4993.4387-.23.5434.1442.0562.158-.1243.186-.2246C24.0756,12.3273,24.3585,12.2518,24.0823,12.144Z"/><path class="e" d="M18.125,10.56a1.1208,1.1208,0,0,1,.4584-.5147A6.61,6.61,0,0,1,18.4393,7.32c.0132-.167.0544-.2389.118-.2377.0558.001.0895.0862.095.2784A13.8222,13.8222,0,0,0,18.59,8.97a5.2725,5.2725,0,0,0,.226,1.1283c.0146.0533-.023.0947-.2063.198a.4932.4932,0,0,0-.2489.2706.1138.1138,0,0,0-.0785-.007c-.1359.0394-.1932.0287-.1572,0Z"/><path class="e" d="M18.9783,11.4453c-.0835-.0526-.1-.0386-.1266-.0731a.2538.2538,0,0,1-.0242-.1871c.0437-.2818-.1245-.2425-.3137-.1179a2.7421,2.7421,0,0,0-.2711.2826c-.0813.0755-.1487.082-.1689.1118-.0026.1082-.0031.2016-.0023.2439-.0008.0423,0,.1356.0023.2437.02.03.0877.0363.1689.1118a2.7219,2.7219,0,0,0,.2711.2826c.1892.1247.3574.1639.3137-.1179a.2543.2543,0,0,1,.0242-.1871c.0268-.0345.0431-.0205.1266-.0731a.37.37,0,0,0,.1218-.12.8022.8022,0,0,0,0-.281.3668.3668,0,0,0-.1218-.12Z"/><path class="e" d="M18.8343,11.056a.5361.5361,0,0,0-.1833.1067c-.0853.0828-.03.22.08.3533a.3734.3734,0,0,1,0,.3778c-.11.133-.1655.2705-.08.3533a.5507.5507,0,0,0,.1832.1067.3935.3935,0,0,0-.0031-.1281.2538.2538,0,0,1,.0241-.1871c.0268-.0345.0431-.0205.1267-.0731a.372.372,0,0,0,.1218-.12.8022.8022,0,0,0,0-.281.371.371,0,0,0-.1218-.12c-.0836-.0526-.1-.0386-.1267-.0731a.2539.2539,0,0,1-.0241-.1871.3975.3975,0,0,0,.0032-.1282Z"/><path class="e" d="M21.5223,10.6667c-.0709.09-.0623.1114-.1008.1372a.2017.2017,0,0,1-.1813-.0024c-.2591-.0992-.2593.1067-.1839.3428a2.5586,2.5586,0,0,0,.1962.3358c.0485.0953.038.1667.06.1911.0939.0156.1746.027.2114.0312.036.0058.116.0161.2084.0261.03-.0173.0533-.085.1392-.1594a3.1864,3.1864,0,0,0,.3149-.2469c.1623-.1852.2486-.3632-.0067-.357a.1712.1712,0,0,1-.1555-.0557c-.0225-.0357-.0056-.0518-.0275-.1562a.3758.3758,0,0,0-.0716-.1623c-.0327-.04-.0805-.0311-.1245-.0393s-.0847-.0346-.1337-.01a.4409.4409,0,0,0-.1444.1247Z"/><path class="e" d="M21.117,10.7733a.6754.6754,0,0,0,.0571.23c.0568.11.1965.0673.3458-.0373a.2572.2572,0,0,1,.1854-.0289.2253.2253,0,0,1,.1536.086c.0851.1408.1873.22.2832.1394a.7649.7649,0,0,0,.1467-.1854.2688.2688,0,0,0-.1115-.0156.1712.1712,0,0,1-.1555-.0557c-.0225-.0356-.0057-.0518-.0276-.1559a.3761.3761,0,0,0-.0715-.1625c-.0327-.04-.0805-.0309-.1245-.0392s-.0847-.0347-.1337-.01a.4442.4442,0,0,0-.1447.1246c-.0708.09-.062.1115-.1008.1375a.2027.2027,0,0,1-.1813-.0027.3167.3167,0,0,0-.1208-.0249Z"/><path class="e" d="M22.5356,11.7973c-.0413-.05-.0577-.039-.0653-.0706a.2925.2925,0,0,1,.0455-.1655c.1244-.2438-.0079-.2232-.1873-.1271a.9757.9757,0,0,0-.1506.1122c-.0533.0449-.1053.092-.1492.1236-.0889.064-.1438.0659-.17.0917-.04.099-.0719.1847-.0859.2237s-.0471.1241-.0822.2228c.0056.0275.0568.0351.095.1055a2.3277,2.3277,0,0,0,.113.2557c.0675.0889.1291.1418.1771.1331s.082-.0788.0948-.2337a.27.27,0,0,1,.0791-.1616c.0309-.0294.0378-.0171.1143-.06a.4939.4939,0,0,0,.1251-.0994.3258.3258,0,0,0,.0541-.12.2984.2984,0,0,0,.0375-.1209.2023.2023,0,0,0-.0453-.1094Z"/><path class="e" d="M22.557,11.4027a.4709.4709,0,0,0-.1495.0942.2419.2419,0,0,0-.0807.1572.553.553,0,0,0,.0157.2072.3981.3981,0,0,1-.0286.1943.5338.5338,0,0,1-.1044.1867c-.13.1306-.2218.2687-.1854.3542a.1766.1766,0,0,0,.0791.0959.4232.4232,0,0,0,.0652-.1148.4143.4143,0,0,1,.0835-.1859A.4025.4025,0,0,1,22.37,12.27c.0514-.0321.0951-.0183.13-.0613.0677-.0832.1564-.2867.07-.38s-.1162-.1434-.044-.3012a.4538.4538,0,0,0,.031-.1254Z"/><path class="e" d="M20.28,12.064c.0681.0588.0854.0471.1044.0826a.2469.2469,0,0,1-.0079.1778c-.082.2535.0726.2312.2582.1343a2.8125,2.8125,0,0,0,.284-.2336c.0842-.0618.1432-.0614.1663-.087.0235-.1.0425-.188.05-.2284s.0277-.13.0475-.235c-.0116-.0315-.07-.046-.1266-.1312a2.5449,2.5449,0,0,0-.19-.3257c-.1535-.1606-.3075-.23-.3161.0789a.2944.2944,0,0,1-.0553.1913c-.0314.0321-.0444.0156-.1318.0588a.3866.3866,0,0,0-.1351.1066.2688.2688,0,0,0-.0333.14.26.26,0,0,0-.0095.141.34.34,0,0,0,.0952.1293Z"/><path class="e" d="M20.3543,12.4427a.5323.5323,0,0,0,.1794-.0817c.0887-.0686.063-.2016-.0132-.3388a.3133.3133,0,0,1-.0147-.19.3461.3461,0,0,1,.0795-.1806c.1251-.1207.2016-.2537.138-.3513a.4976.4976,0,0,0-.1533-.1388.4755.4755,0,0,0-.02.1362.2942.2942,0,0,1-.0551.1913c-.0314.0321-.0443.0155-.1318.0587a.3877.3877,0,0,0-.1351.1067.27.27,0,0,0-.0333.14.26.26,0,0,0-.01.1409.338.338,0,0,0,.0953.1291c.0681.0588.0853.0472.1043.0827a.2469.2469,0,0,1-.0079.1778.3744.3744,0,0,0-.0224.1175Z"/><path class="f" d="M21.6236,14.8853l-1.1733-.688-1.248.5387,1.1733.6827Z"/><path class="f" d="M23.037,14.3947l-1.2694.5013,1.0481.6852c.2714-.0909.4866-1.02.2213-1.1892Z"/><path class="h" d="M18.0716,11.792a.9614.9614,0,0,1,.512.2293.7191.7191,0,0,0-.5173-.2773Z"/><path class="h" d="M18.0716,11.6107a.9615.9615,0,0,0,.512-.2294.7188.7188,0,0,1-.5173.2774Z"/><path class="h" d="M24.0983,12.0427a.381.381,0,0,0,.0693-.336q.112.1386-.032.352Z"/><path class="h" d="M21.6023,11.7013a1.3248,1.3248,0,0,1,.336-.512.9111.9111,0,0,0-.3787.512Z"/><path class="h" d="M21.4476,11.68a1.0742,1.0742,0,0,0-.0853-.5813.77.77,0,0,1,.1227.592Z"/><path class="h" d="M21.7356,12.1067a.4825.4825,0,0,1,.32.2613.395.395,0,0,0-.3093-.3093Z"/><path class="h" d="M21.8,11.9253a.9845.9845,0,0,0,.4907-.208.8239.8239,0,0,1-.512.256Z"/><path class="h" d="M21.1436,11.824a.7572.7572,0,0,1-.416-.288.5752.5752,0,0,0,.4107.336Z"/><path class="h" d="M21.1063,11.9947a.8722.8722,0,0,0-.4907.1706.6651.6651,0,0,1,.5067-.2133Z"/><ellipse class="i" cx="20.4076" cy="14.8" rx="0.3733" ry="0.5333" transform="matrix(0.0698, -0.9976, 0.9976, 0.0698, 4.2201, 34.1255)"/><path class="e" d="M21.533,11.5467a.4654.4654,0,0,0-.4526.4071.3413.3413,0,0,0,.3255.4108.46.46,0,0,0,.4364-.3879.3454.3454,0,0,0-.3093-.43Z"/><path class="e" d="M21.517,11.6587a.341.341,0,0,0-.3308.2973.2507.2507,0,0,0,.2377.3037.34.34,0,0,0,.3221-.2867.2525.2525,0,0,0-.229-.3143Z"/><path class="d" d="M24.05,12.2277c-.14-.0546-.3327.274-.1572.3486a.1807.1807,0,0,0,.25-.1149A.1692.1692,0,0,0,24.05,12.2277Z"/><path class="d" d="M22.9943,14.6133c-.304-.032-.56.1067-.5813.3094s.208.384.512.416c.2026.0213.3146-.1067.336-.3094S23.197,14.6347,22.9943,14.6133Z"/><path class="d" d="M21.501,11.7707a.2148.2148,0,0,0-.2074.186.1585.1585,0,0,0,.1487.1924.2136.2136,0,0,0,.2039-.1816.16.16,0,0,0-.1452-.1968Z"/><path class="e" d="M12.397,8.48l-1.472.6933-.16.64.5813.9067-.0533.7467h-.4747L10.029,9.3333,11.0316,8.48l2.3147-.8-.9493.8"/><path class="e" d="M11.245,11.392a1.83,1.83,0,0,1-.0656-.2517.8474.8474,0,0,1,.0311-.4347,6.8929,6.8929,0,0,1-.459-.7109.7808.7808,0,0,1-.1072-.5631.99.99,0,0,1,.3989-.4806,3.3817,3.3817,0,0,1,.7165-.3982,4.2006,4.2006,0,0,1,1.398-.379l-.2174.2045a6.8344,6.8344,0,0,0-1.7517.7669c-.4683.3653-.4567.4518.2226,1.4268.0212.03.07.108.0534.1434a.9491.9491,0,0,0,.0071.6124c-.0586.1121-.1437.0533-.2271.0642Z"/><path class="e" d="M15.693,10.7813c.1822-.0123.1371.3144.1011.3872-.0469.095-.0905.0981-.15.01C15.599,11.1113,15.5108,10.7937,15.693,10.7813Z"/><path class="e" d="M12.253,11.2427c.174-.0558.2075.2723.19.3517-.0231.1035-.0647.1169-.143.0458C12.24,11.5858,12.079,11.2985,12.253,11.2427Z"/><circle class="g" cx="13.0743" cy="7.7333" r="0.3413"/><circle class="g" cx="12.4343" cy="7.9467" r="0.3413"/><circle class="g" cx="11.7943" cy="8.16" r="0.3413"/><circle class="g" cx="11.1543" cy="8.4533" r="0.3413"/><circle class="g" cx="10.5676" cy="8.8" r="0.3413"/><circle class="g" cx="10.8343" cy="11.2" r="0.3413"/><circle class="g" cx="10.5143" cy="10.6133" r="0.3413"/><circle class="g" cx="10.2476" cy="10.0267" r="0.3413"/><circle class="g" cx="10.141" cy="9.3333" r="0.3413"/><circle class="g" cx="16.4343" cy="15.1467" r="0.1707"/><circle class="g" cx="13.821" cy="15.3067" r="0.1707"/><circle class="g" cx="13.7143" cy="14.5067" r="0.1707"/><circle class="g" cx="16.381" cy="14.3467" r="0.1707"/><path class="g" d="M15.5916,11.8933c-.1066-.16-.3093-.9066.1174-.9333s.32.7467.24.9067C15.8423,12.08,15.73,12.1013,15.5916,11.8933Z"/><path class="g" d="M12.749,12.24c-.0534.24-.144.272-.336.1013-.144-.128-.5174-.7946-.1067-.928S12.7916,12.048,12.749,12.24Z"/><path class="e" d="M16.861,7.4667,14.9943,7.52l-1.1733.3733-.32.7467.8533,1.6533L13.981,11.36l-1.12-.96-.5334-1.9733L13.7676,7.2l3.04-.2133Z"/><path class="e" d="M16.765,7.3493a5.9545,5.9545,0,0,0-2.7893.3825c-.7841.3137-.7073,1.23.2489,2.5008a1.3448,1.3448,0,0,0-.1435.5925c.1012-.0056.1721-.003.2613-.0052a.5267.5267,0,0,1,.0958-.4756c.0572-.0867.0688-.0715,0-.1682-.5691-.8-.9463-1.5-.7244-1.9229.27-.514,1.315-.7817,3.0781-.7425l-.01-.142-.0172-.0194Z"/><path class="e" d="M13.0316,7.68q.0485.0656.0981.131c-.5174.2859-.7316.5875-.6811.8907.0086.0521.1659.6071.5173,1.6827a3.1328,3.1328,0,0,1,.5371.4486c-.0132.015.0379.0619.0226.0747.0359.1643-.148.1308-.272.09a1.0354,1.0354,0,0,0-.3451-.3971c-.0212-.0146-.0979-.0523-.1056-.0768-.188-.6053-.3769-1.1649-.539-1.6861-.1627-.5237.19-.895.7672-1.158Z"/><circle class="g" cx="16.541" cy="6.9333" r="0.3413"/><circle class="g" cx="15.8743" cy="6.9333" r="0.3413"/><circle class="g" cx="15.2076" cy="7.0133" r="0.3413"/><circle class="g" cx="14.5676" cy="7.1467" r="0.3413"/><circle class="g" cx="13.9276" cy="7.36" r="0.3413"/><circle class="g" cx="13.341" cy="7.6267" r="0.3413"/><circle class="g" cx="12.9676" cy="8.0533" r="0.3413"/><circle class="g" cx="13.661" cy="10.5067" r="0.3413"/><circle class="g" cx="13.3943" cy="9.92" r="0.3413"/><circle class="g" cx="13.1276" cy="9.3333" r="0.3413"/><circle class="g" cx="12.9143" cy="8.6933" r="0.3413"/><path class="e" d="M11.101,11.5733l-.0194.1056a.9811.9811,0,0,1-.3813.0264C10.8769,11.5293,11.0084,11.4919,11.101,11.5733Z"/><path class="e" d="M11.0476,11.3227c.0944.0231.1032.0392.1444.0464a.2148.2148,0,0,0,.176-.0389c.2046-.1237.209.0991.13.2659a.4683.4683,0,0,0-.0558.3793c.065.1222.0512.1781.0052.2111-.0318.021-.0622.0407-.0894.0582-.0552.0655-.0971.0543-.1048-.0315-.2044-.0847-.1893-.3006-.2505-.4744-.0894-.2542-.4144-.3143.0455-.4161Z"/><path class="e" d="M11.1543,11.3333c.1779.0639.1978-.0355.3179-.03-.0473.2742-.0952.4161-.3792.2689a.3252.3252,0,0,0-.3956.1259c-.0139.0322-.1051-.0347-.1384-.1081C10.42,11.2826,10.9157,11.2477,11.1543,11.3333Z"/><path class="e" d="M11.7836,12.6613c.1289-.04.33.2473.3784.2424a1.2193,1.2193,0,0,0-.2951-.8671c-.1557-.0511-.17-.1519-.2018-.3856-.01-.07-.1429-.0217-.1453.0972a.9878.9878,0,0,0,.0159.307.11.11,0,0,1-.0426.1232C11.7358,12.2752,11.7953,12.3939,11.7836,12.6613Z"/><path class="e" d="M11.6663,11.6533a.5077.5077,0,0,0-.0343.18.254.254,0,0,0,.0582.1722.5543.5543,0,0,0,.16.1347.4034.4034,0,0,1,.1209.159.566.566,0,0,1,.0633.2109c.0051.1909.0421.3578.1289.3907a.17.17,0,0,0,.1235.0079.4489.4489,0,0,0-.0383-.13.57.57,0,0,1-.0838-.37c.0121-.0616.0519-.0849.0448-.1417-.0136-.11-.1-.3211-.2265-.3211-.1249,0-.1832-.0135-.2478-.18a.4724.4724,0,0,0-.0694-.112Z"/><path class="e" d="M11.197,12.112a.4564.4564,0,0,1,.1135-.06.3078.3078,0,0,1,.2033-.0092c.2993.0905.43.6223.1024.75-.0646.0079-.1242-.0505-.1822-.1789a.9957.9957,0,0,0-.219-.36C11.1672,12.1935,11.1656,12.1425,11.197,12.112Z"/><path class="e" d="M11.3463,12.144c.2876-.1122.4992.4387.2305.5434-.1442.0562-.158-.1243-.186-.2246C11.353,12.3273,11.07,12.2518,11.3463,12.144Z"/><path class="e" d="M17.3036,10.56a1.1208,1.1208,0,0,0-.4584-.5147A6.61,6.61,0,0,0,16.9893,7.32c-.0132-.167-.0544-.2389-.118-.2377-.0558.001-.09.0862-.095.2784A13.8222,13.8222,0,0,1,16.8387,8.97a5.2787,5.2787,0,0,1-.226,1.1283c-.0146.0533.023.0947.2063.198a.4932.4932,0,0,1,.2489.2706.1138.1138,0,0,1,.0785-.007c.1358.0394.1932.0287.1572,0Z"/><path class="e" d="M16.45,11.4453c.0835-.0526.1-.0386.1266-.0731a.2534.2534,0,0,0,.0241-.1871c-.0436-.2818.1246-.2425.3138-.1179a2.7421,2.7421,0,0,1,.2711.2826c.0813.0755.1487.082.1689.1118.0026.1082.0031.2016.0023.2439.0008.0423,0,.1356-.0023.2437-.02.03-.0877.0363-.1689.1118a2.7219,2.7219,0,0,1-.2711.2826c-.1892.1247-.3574.1639-.3138-.1179a.2538.2538,0,0,0-.0241-.1871c-.0268-.0345-.0431-.0205-.1266-.0731a.3714.3714,0,0,1-.1219-.12.8086.8086,0,0,1,0-.281.3681.3681,0,0,1,.1219-.12Z"/><path class="e" d="M16.5943,11.056a.5361.5361,0,0,1,.1833.1067c.0853.0828.03.22-.08.3533a.3728.3728,0,0,0,0,.3778c.11.133.1655.2705.08.3533a.5507.5507,0,0,1-.1832.1067.3935.3935,0,0,1,.0031-.1281.2538.2538,0,0,0-.0241-.1871c-.0269-.0345-.0432-.0205-.1267-.0731a.372.372,0,0,1-.1218-.12.8022.8022,0,0,1,0-.281.371.371,0,0,1,.1218-.12c.0835-.0526.1-.0386.1267-.0731a.2539.2539,0,0,0,.0241-.1871.3975.3975,0,0,1-.0032-.1282Z"/><path class="e" d="M13.9063,10.6667c.0709.09.0623.1114.1008.1372a.2017.2017,0,0,0,.1813-.0024c.2591-.0992.2592.1067.1839.3428a2.5586,2.5586,0,0,1-.1962.3358c-.0485.0953-.0381.1667-.06.1911-.0939.0156-.1747.027-.2114.0312-.036.0058-.116.0161-.2084.0261-.03-.0173-.0533-.085-.1393-.1594a3.1853,3.1853,0,0,1-.3148-.2469c-.1623-.1852-.2487-.3632.0066-.357a.1713.1713,0,0,0,.1556-.0557c.0225-.0357.0056-.0518.0275-.1562a.3758.3758,0,0,1,.0716-.1623c.0327-.04.08-.0311.1245-.0393s.0847-.0346.1337-.01a.4419.4419,0,0,1,.1444.1247Z"/><path class="e" d="M14.3116,10.7733a.6777.6777,0,0,1-.0571.23c-.0568.11-.1965.0673-.3458-.0373a.2573.2573,0,0,0-.1855-.0289.2253.2253,0,0,0-.1535.086c-.0851.1408-.1873.22-.2832.1394a.7625.7625,0,0,1-.1467-.1854.2686.2686,0,0,1,.1114-.0156.1713.1713,0,0,0,.1556-.0557c.0225-.0356.0057-.0518.0275-.1559a.3773.3773,0,0,1,.0716-.1625c.0327-.04.08-.0309.1245-.0392s.0847-.0347.1337-.01a.4452.4452,0,0,1,.1447.1246c.0708.09.062.1115.1007.1375a.2029.2029,0,0,0,.1814-.0027.3166.3166,0,0,1,.1207-.0249Z"/><path class="e" d="M12.893,11.7973c.0413-.05.0577-.039.0653-.0706a.2925.2925,0,0,0-.0455-.1655c-.1244-.2438.0079-.2232.1873-.1271a.9757.9757,0,0,1,.1506.1122c.0533.0449.1053.092.1492.1236.0889.064.1438.0659.17.0917.0394.099.0719.1847.0859.2237s.0471.1241.0822.2228c-.0057.0275-.0568.0351-.095.1055a2.3277,2.3277,0,0,1-.113.2557c-.0675.0889-.1291.1418-.1771.1331s-.082-.0788-.0948-.2337a.27.27,0,0,0-.0791-.1616c-.0309-.0294-.0378-.0171-.1143-.06a.4921.4921,0,0,1-.1251-.0994.3258.3258,0,0,1-.0541-.12.2984.2984,0,0,1-.0375-.1209.2023.2023,0,0,1,.0453-.1094Z"/><path class="e" d="M12.8716,11.4027a.47.47,0,0,1,.1494.0942.2415.2415,0,0,1,.0808.1572.553.553,0,0,1-.0157.2072.3981.3981,0,0,0,.0286.1943.5353.5353,0,0,0,.1043.1867c.13.1306.2219.2687.1855.3542a.1766.1766,0,0,1-.0791.0959.4232.4232,0,0,1-.0652-.1148.4143.4143,0,0,0-.0835-.1859.4025.4025,0,0,0-.1184-.1216c-.0514-.0321-.0951-.0183-.13-.0613-.0677-.0832-.1564-.2867-.07-.38s.1162-.1434.044-.3012a.4538.4538,0,0,1-.031-.1254Z"/><path class="e" d="M15.149,12.064c-.0682.0588-.0854.0471-.1044.0826a.2469.2469,0,0,0,.0079.1778c.082.2535-.0726.2312-.2582.1343a2.8125,2.8125,0,0,1-.284-.2336c-.0842-.0618-.1433-.0614-.1663-.087-.0236-.1-.0425-.188-.05-.2284s-.0277-.13-.0475-.235c.0116-.0315.07-.046.1266-.1312a2.5332,2.5332,0,0,1,.19-.3257c.1534-.1606.3075-.23.316.0789a.2944.2944,0,0,0,.0554.1913c.0314.0321.0443.0156.1317.0588a.387.387,0,0,1,.1352.1066.27.27,0,0,1,.0333.14.26.26,0,0,1,.0095.141.34.34,0,0,1-.0952.1293Z"/><path class="e" d="M15.0743,12.4427a.5315.5315,0,0,1-.1794-.0817c-.0888-.0686-.063-.2016.0132-.3388a.3141.3141,0,0,0,.0147-.19.3469.3469,0,0,0-.08-.1806c-.1251-.1207-.2016-.2537-.1381-.3513a.5.5,0,0,1,.1533-.1388.4715.4715,0,0,1,.02.1362.2942.2942,0,0,0,.0551.1913c.0313.0321.0443.0155.1317.0587a.3872.3872,0,0,1,.1352.1067.27.27,0,0,1,.0333.14.26.26,0,0,1,.01.1409.338.338,0,0,1-.0953.1291c-.0681.0588-.0853.0472-.1043.0827a.2469.2469,0,0,0,.0079.1778.3744.3744,0,0,1,.0224.1175Z"/><path class="f" d="M13.805,14.8853l1.1733-.688,1.248.5387-1.1733.6827Z"/><path class="f" d="M12.3916,14.3947l1.2694.5013-1.0481.6852c-.2714-.0909-.4866-1.02-.2213-1.1892Z"/><path class="h" d="M17.357,11.792a.9614.9614,0,0,0-.512.2293.7191.7191,0,0,1,.5173-.2773Z"/><path class="h" d="M17.357,11.6107a.9615.9615,0,0,1-.512-.2294.7188.7188,0,0,0,.5173.2774Z"/><path class="h" d="M11.33,12.0427a.381.381,0,0,1-.0693-.336q-.112.1386.032.352Z"/><path class="h" d="M13.8263,11.7013a1.3248,1.3248,0,0,0-.336-.512.9111.9111,0,0,1,.3787.512Z"/><path class="h" d="M13.981,11.68a1.0742,1.0742,0,0,1,.0853-.5813.77.77,0,0,0-.1227.592Z"/><path class="h" d="M13.693,12.1067a.4825.4825,0,0,0-.32.2613.395.395,0,0,1,.3093-.3093Z"/><path class="h" d="M13.629,11.9253a.9841.9841,0,0,1-.4907-.208.8236.8236,0,0,0,.512.256Z"/><path class="h" d="M14.285,11.824a.7572.7572,0,0,0,.416-.288.5752.5752,0,0,1-.4107.336Z"/><path class="h" d="M14.3223,11.9947a.8722.8722,0,0,1,.4907.1706.6653.6653,0,0,0-.5067-.2133Z"/><ellipse class="i" cx="15.021" cy="14.8" rx="0.5333" ry="0.3733" transform="translate(-0.9958 1.0839) rotate(-4)"/><path class="e" d="M13.8956,11.5467a.4654.4654,0,0,1,.4526.4071.3414.3414,0,0,1-.3255.4108.46.46,0,0,1-.4364-.3879.3453.3453,0,0,1,.3093-.43Z"/><path class="e" d="M13.9116,11.6587a.341.341,0,0,1,.3308.2973.2508.2508,0,0,1-.2378.3037.34.34,0,0,1-.322-.2867.2525.2525,0,0,1,.229-.3143Z"/><path class="d" d="M11.3787,12.2277c.14-.0546.3327.274.1572.3486a.1807.1807,0,0,1-.25-.1149A.1692.1692,0,0,1,11.3787,12.2277Z"/><path class="d" d="M12.4343,14.6133c.304-.032.56.1067.5813.3094s-.208.384-.512.416c-.2026.0213-.3146-.1067-.336-.3094S12.2316,14.6347,12.4343,14.6133Z"/><path class="d" d="M13.9276,11.7707a.2148.2148,0,0,1,.2074.186.1585.1585,0,0,1-.1487.1924.2136.2136,0,0,1-.2039-.1816.16.16,0,0,1,.1452-.1968Z"/><circle class="g" cx="17.7143" cy="10.08" r="0.3413"/><circle class="g" cx="17.7143" cy="9.44" r="0.3413"/><circle class="g" cx="17.7143" cy="8.8267" r="0.3413"/><circle class="g" cx="17.7143" cy="7.0933" r="0.3413"/><circle class="g" cx="17.7143" cy="7.6267" r="0.3413"/><circle class="g" cx="17.7143" cy="8.2133" r="0.3413"/><path class="e" d="M17.7143,10.2933c.048,0,.096-.016.1387.0107a.3717.3717,0,0,1,.1173.1227c.048.08.032.1066.0747.128a.3091.3091,0,0,0,.1866.0266c.2774-.0426.2454.1227.1174.3147a2.7108,2.7108,0,0,1-.2827.272c-.0747.08-.08.1493-.112.1707h-.48c-.032-.0214-.0373-.0907-.112-.1707a2.7108,2.7108,0,0,1-.2827-.272c-.128-.192-.16-.3573.1174-.3147a.3091.3091,0,0,0,.1866-.0266c.0427-.0214.0267-.048.0747-.128a.3717.3717,0,0,1,.1173-.1227c.0427-.0267.0907-.0107.1387-.0107"/><path class="h" d="M17.8,11.3387a.9427.9427,0,0,1,.2347-.512.7161.7161,0,0,0-.2827.5226Z"/><path class="h" d="M17.629,11.3387a.9434.9434,0,0,0-.2347-.512.7161.7161,0,0,1,.2827.5226Z"/><path class="e" d="M17.7143,10.2933c.048,0,.096-.016.1387.0107a.3717.3717,0,0,1,.1173.1227c.048.08.032.1066.0747.128a.3091.3091,0,0,0,.1866.0266.3615.3615,0,0,1,.128-.0053.6011.6011,0,0,1-.1066.1867c-.08.08-.192.0213-.352-.0854a.3871.3871,0,0,0-.3734,0c-.16.1067-.272.1654-.352.0854a.6011.6011,0,0,1-.1066-.1867.3615.3615,0,0,1,.128.0053.3091.3091,0,0,0,.1866-.0266c.0427-.0214.0267-.048.0747-.128a.3717.3717,0,0,1,.1173-.1227C17.6183,10.2773,17.6663,10.2933,17.7143,10.2933Z"/><path class="e" d="M17.7143,11.288a.4155.4155,0,1,1-.4123.4154A.4139.4139,0,0,1,17.7143,11.288Z"/><path class="e" d="M22.941,15.8133q0-.144-.2614-.1653a60.9308,60.9308,0,0,0-9.9306,0q-.2615.0213-.2614.1653t.2614.1654a60.9308,60.9308,0,0,0,9.9306,0q.2613-.0215.2614-.1654"/><circle class="e" cx="17.7143" cy="11.7013" r="0.4107"/><circle class="e" cx="17.7143" cy="11.7013" r="0.304"/><ellipse class="d" cx="17.7143" cy="14.72" rx="0.5333" ry="0.3733"/><circle class="d" cx="17.7143" cy="11.7013" r="0.1973"/><path class="j" d="M15.2076,16q-.5653-.0426-1.2266-.112a52.3259,52.3259,0,0,1,7.4666,0q-.6614.0693-1.2266.112"/><path class="k" d="M26.7143,16.0667V30.72a9.6482,9.6482,0,0,1-2.6667,6.4533,8.7485,8.7485,0,0,1-6.3333,2.88,8.7485,8.7485,0,0,1-6.3333-2.88A9.6482,9.6482,0,0,1,8.7143,30.72V16.0667Z"/><path class="g" d="M17.6327,39.1888a.58.58,0,0,1-.3077-.0743c-.1317-.1036-.0795-.522-.0676-.7867.0605-1.3522.1159-3.6285.1847-6.8251a.89.89,0,0,1,.2717.0042.887.887,0,0,1,.2717-.0042c.0688,3.1967.1242,5.4731.1848,6.8251.0118.2647.0641.6831-.0677.7867a.58.58,0,0,1-.3077.0743Z"/><path class="g" d="M16.7858,39.15a.5811.5811,0,0,0,.3132-.046c.14-.0912.1521-.5191.1642-.7838.062-1.3522.1871-3.6176.4078-6.8075a.8945.8945,0,0,0-.271-.02l-.0369-.0086c-.5082,3.1557-.7,5.3942-1.0479,6.7446-.048.1864-.1512.6535.0093.8053a.58.58,0,0,0,.3.1019l.1615.0147Z"/><path class="g" d="M15.789,39.008a.58.58,0,0,0,.316-.0174c.1483-.0781.1423-.5052.2083-.7616.348-1.35.54-3.59,1.0482-6.7467a.89.89,0,0,0-.268-.045c-.808,3.0685-1.05,5.2317-1.6774,6.568-.058.1851-.2161.6768-.065.8481a.58.58,0,0,0,.2893.1287l.16.0294Z"/><path class="g" d="M14.79,38.7243c.0781.0092.21.0821.3266.0347.1552-.063.18-.52.2912-.7578.63-1.3424.8716-3.5191,1.6886-6.61a.8926.8926,0,0,0-.2623-.0713.3681.3681,0,0,0-.17-.0657c-.9492,3.0529-1.2575,5.1763-2.1529,6.4939-.1445.2126-.25.6386-.1523.7746a.58.58,0,0,0,.2752.1567l.1559.045Z"/><path class="g" d="M18.6418,39.15a.581.581,0,0,1-.3132-.046c-.1407-.0912-.1522-.5191-.1643-.7838-.0621-1.3522-.1871-3.6176-.4078-6.8075a.8945.8945,0,0,1,.271-.02l.037-.0086c.5081,3.1557.7,5.3942,1.0479,6.7446.048.1864.1511.6535-.0094.8053a.5805.5805,0,0,1-.3.1019l-.1615.0147Z"/><path class="g" d="M19.64,39.008a.58.58,0,0,1-.316-.0174c-.1482-.0781-.1422-.5052-.2083-.7616-.348-1.35-.54-3.59-1.0482-6.7467a.89.89,0,0,1,.268-.045c.808,3.0685,1.05,5.2317,1.6774,6.568.058.1851.2162.6768.065.8481a.58.58,0,0,1-.2893.1287l-.16.0294Z"/><path class="g" d="M20.6386,38.7243c-.0782.0092-.21.0821-.3266.0347-.1553-.063-.18-.52-.2913-.7578-.63-1.3424-.8715-3.5191-1.6885-6.61a.891.891,0,0,1,.2623-.0713.3676.3676,0,0,1,.17-.0657c.9491,3.0529,1.2575,5.1763,2.1528,6.4939.1445.2126.25.6386.1523.7746a.58.58,0,0,1-.2751.1567l-.1559.045Z"/><path class="g" d="M15.3191,36.4181a.5009.5009,0,0,0,.2914-.0055c.1493-.0712.2467-.4836.3267-.74a55.729,55.729,0,0,0,2.1671-6.584.7016.7016,0,0,0-.2364-.0541.6945.6945,0,0,0-.2335-.0619c-1.0248,3.0665-1.485,5.2839-2.4866,6.505a1.0063,1.0063,0,0,0-.21.7688c.0591.0959.178.1081.2408.1369l.14.0346Z"/><path class="g" d="M16.13,36.5771a.4993.4993,0,0,0,.2894-.0289c.14-.0827.19-.501.24-.7626.256-1.3361.7284-3.5785,1.4-6.7264a.717.717,0,0,0-.2415-.0349.7094.7094,0,0,0-.2395-.0431c-.7932,3.1284-.9766,5.471-1.7268,6.6736a1.01,1.01,0,0,0-.12.7821c.07.0906.19.0933.256.117l.1435.0233Z"/><path class="g" d="M16.9548,36.6709a.4928.4928,0,0,0,.2848-.0517c.13-.0937.1315-.5139.1512-.7783.1012-1.35.3134-3.62.6194-6.8074a.72.72,0,0,0-.2444-.0154.72.72,0,0,0-.2434-.0238c-.43,3.1772-.6792,5.4779-.951,6.7808-.0543.26-.1362.6754-.03.7881.08.0846.2.0777.2676.0961l.1457.0116Z"/><path class="g" d="M20.109,36.4181a.5013.5013,0,0,1-.2915-.0055c-.1492-.0712-.2467-.4836-.3267-.74a55.7526,55.7526,0,0,1-2.167-6.584.7006.7006,0,0,1,.2364-.0541.6931.6931,0,0,1,.2335-.0619c1.0248,3.0665,1.4849,5.2839,2.4865,6.505a1.0059,1.0059,0,0,1,.21.7688c-.059.0959-.178.1081-.2408.1369l-.14.0346Z"/><path class="g" d="M19.2983,36.5771a.4993.4993,0,0,1-.2894-.0289c-.14-.0827-.19-.501-.24-.7626-.2561-1.3361-.7285-3.5785-1.4-6.7264a.7178.7178,0,0,1,.2416-.0349.7089.7089,0,0,1,.2395-.0431c.7931,3.1284.9766,5.471,1.7268,6.6736a1.0093,1.0093,0,0,1,.12.7821c-.07.0906-.19.0933-.2554.117l-.1436.0233Z"/><path class="g" d="M18.4727,36.6709a.4928.4928,0,0,1-.2848-.0517c-.13-.0937-.1314-.5139-.1513-.7783-.1012-1.35-.3133-3.62-.6194-6.8074a.72.72,0,0,1,.2444-.0154.721.721,0,0,1,.2435-.0238c.4295,3.1772.6792,5.4779.951,6.7808.0542.26.1362.6754.03.7881-.08.0846-.1994.0777-.2677.0961l-.1456.0116Z"/><path class="g" d="M17.6407,36.6981a.4812.4812,0,0,1-.2775-.0742c-.1188-.1036-.0717-.5221-.061-.7868.0546-1.3523.1045-3.6286.1666-6.8256a.7256.7256,0,0,1,.2451.0042.7275.7275,0,0,1,.245-.0042c.062,3.1969.112,5.4731.1666,6.8256.0106.2648.0578.6832-.061.7868a.4812.4812,0,0,1-.2775.0742Z"/><path class="g" d="M15.88,34.5584c.0548.0043.1373.048.2233-.0055.1143-.0713.1889-.4836.25-.74.4867-1.2555.931-3.4852,1.66-6.584l-.36-.116c-.785,3.0665-1.1375,5.2839-1.9046,6.5051a1.244,1.244,0,0,0-.1607.7688c.0453.0958.1364.1081.1844.1368l.1074.0347Z"/><path class="g" d="M16.5,34.7179c.0549-.0015.1409.0334.2217-.0289.1075-.0827.1455-.501.1839-.7626.1961-1.3362.5579-3.5787,1.0721-6.7264l-.3685-.078c-.6075,3.1284-.748,5.471-1.3227,6.6736a1.283,1.283,0,0,0-.0922.7821c.0533.0906.1453.0933.1957.117l.11.0231Z"/><path class="g" d="M17.1324,34.8117c.0545-.0072.1431.0186.2181-.0518.1-.0936.1007-.5139.1159-.7782.0774-1.35.24-3.62.4744-6.8075l-.3733-.0391c-.3291,3.1772-.52,5.4779-.7285,6.7808a1.7333,1.7333,0,0,0-.0229.7881c.0613.0846.1529.0777.2051.096l.1116.0117Z"/><path class="g" d="M19.5484,34.5584c-.0548.0043-.1373.048-.2232-.0055-.1143-.0713-.1889-.4836-.25-.74-.4867-1.2555-.9311-3.4852-1.66-6.584l.36-.116c.785,3.0665,1.1374,5.2839,1.9046,6.5051a1.2431,1.2431,0,0,1,.1606.7688c-.0453.0958-.1363.1081-.1844.1368l-.1074.0347Z"/><path class="g" d="M18.9276,34.7179c-.0548-.0015-.1408.0334-.2217-.0289-.1074-.0827-.1455-.501-.1838-.7626-.1962-1.3362-.558-3.5787-1.0721-6.7264l.3685-.078c.6075,3.1284.748,5.471,1.3226,6.6736a1.2823,1.2823,0,0,1,.0922.7821c-.0533.0906-.1453.0933-.1956.117l-.11.0231Z"/><path class="g" d="M18.2951,34.8117c-.0546-.0072-.1432.0186-.2181-.0518-.1-.0936-.1007-.5139-.1159-.7782-.0775-1.35-.24-3.62-.4744-6.8075l.3734-.0391c.3291,3.1772.52,5.4779.7285,6.7808a1.7331,1.7331,0,0,1,.0228.7881c-.0613.0846-.1528.0777-.205.096l-.1116.0117Z"/><path class="g" d="M17.6578,34.8389c-.0534-.0128-.1442.0037-.2127-.0742-.091-.1036-.0549-.522-.0467-.7867.0419-1.3524.08-3.6287.1277-6.8256h.3754c.0475,3.1969.0858,5.473.1276,6.8256.0082.2647.0443.6831-.0467.7867-.0684.0779-.1589.0614-.2126.0742Z"/><path class="g" d="M18.68,30.6773c0,.256-.6346,2.9547-.9653,2.9547s-.9653-2.6987-.9653-2.9547Z"/><path class="e" d="M22.0876,34.0267c.016,0,.032.0373.0374.0533a2.0145,2.0145,0,0,0,.4213.5867.6689.6689,0,0,1,.0213.8533,1.7633,1.7633,0,0,0-.3146.6773,3.0931,3.0931,0,0,0-.032.832.5575.5575,0,0,0,.2613.4107c.0587.048-.0427.176-.2347.32a.2572.2572,0,0,0-.1066.16c-.0054.016-.1014.016-.1067,0a.2567.2567,0,0,0-.1067-.16c-.192-.144-.2933-.272-.2346-.32a.5575.5575,0,0,0,.2613-.4107,3.0931,3.0931,0,0,0-.032-.832,1.7637,1.7637,0,0,0-.3147-.6773.6689.6689,0,0,1,.0214-.8533A2.0145,2.0145,0,0,0,22.05,34.08C22.0556,34.064,22.0716,34.0267,22.0876,34.0267Z"/><path class="e" d="M22.765,37.3973c-.4267.32-.8214-.448-.4374-1.472.288-.768,1.6694-.448.8854.56-.0374.048-.0907.0267-.08-.0266.0426-.2134-.0747-.336-.2987-.2934-.56.1067-.5813,1.1734.032.9334.112-.0107.0053.2186-.1013.2986"/><path class="e" d="M21.41,37.3973c.4267.32.8213-.448.4373-1.472-.288-.768-1.6693-.448-.8853.56.0373.048.0907.0267.08-.0266-.0427-.2134.0747-.336.2987-.2934.56.1067.5813,1.1734-.032.9334-.112-.0107-.0054.2186.1013.2986"/><path class="e" d="M21.7676,36.56a.1867.1867,0,0,0,0,.3733h.64a.1867.1867,0,1,0,0-.3733Z"/><path class="e" d="M22.413,31.7867a11.3958,11.3958,0,0,0,.9066,1.6c.16.0533.2667.1333.3734.1653a2.9364,2.9364,0,0,0,.88-.032c.24-.1867.6133-.0267.4533.1867.1067.1066-.1067.3946-.2667.2666s-.6933,0-.8533-.0533c.0533.16.5867.2507.9067.2667s.2666.32.16.5866l-.1067.0534a.2245.2245,0,0,1-.4267-.0534c-.0106-.2026-.7466-.48-.8533-.64a9.283,9.283,0,0,0,.5867.96c.16.16.2666.16.0533.48l-.3733.0534c-.32,0-.3734-.1067-.32-.3734a1.867,1.867,0,0,0-.2667-.8853,2.1041,2.1041,0,0,0-.144-.336,1.2553,1.2553,0,0,0-.816-.3253c-.2667.1386-.4533.0533-.48-.2134.0533-.0533,0-.4266.192-.4586.16-.0267.2347.0533.368.16.2133.1706.3307.2666.3947.2506.1706-.0426-.304-.272-.7307-.8373s-.5973-1.408.3627-.8213Z"/><path class="e" d="M25.0167,33.8421c.214-.1254.337-.12.42-.0271.0456.0513.1039.0248.07-.0558-.1423-.3368-.3693-.3787-.5729-.2208-.057.0533-.1028.0982-.1487.1435.0342.0506.2042.1214.2318.16Z"/><path class="e" d="M21.9522,33.5408c-.2272-.1547-.44-.185-.5566-.0981-.0641.0478-.1275.0135-.0711-.0659.2356-.3317.5117-.3486.72-.1615.0566.0613.1015.1136.1464.1658a.7221.7221,0,0,1-.2387.16Z"/><path class="e" d="M23.7415,35.4427a.7963.7963,0,0,1,.1446-.3765,2.04,2.04,0,0,1,.2286.1879.58.58,0,0,1-.1287.8921c-.0876.0753-.1276-.0041-.0922-.0906.0606-.1481-.013-.337-.1523-.613Z"/><path class="e" d="M24.6263,34.7147c.211.0876.2838.1987.2761.3447-.0042.08.0485.11.0783.0168.2579-.6-.01-.7118-.3963-.69A.8047.8047,0,0,0,24.6263,34.7147Z"/><path class="j" d="M21.7836,32.208c.1014-.096.208-.1973.3094-.08s.048.2293-.1014.384c.096-.064.2134-.2773.32-.128s.0107.2773-.1066.4c.1226-.1013.2186-.256.3253-.128s0,.256-.096.352c.1067-.0853.2133-.1653.2773-.0907.096.112.016.1867-.0853.2827.1173-.0853.1973-.1707.2827-.0747s-.0267.2134-.0907.256"/><path class="g" d="M21.8023,25.0133c-.01.4628.0723,3.55.0981,3.9861a1.2348,1.2348,0,0,0,.4234.9,1.9363,1.9363,0,0,0,.3271-1.0217c.0136-.2111-.0252-3.1324-.0414-3.7333Z"/><path class="g" d="M23.8087,24.2576l.131,4.2444a11.5443,11.5443,0,0,1-.7169,3.0593c-.6633-.2836-.8033-1.8038-.6785-3.285a10.2068,10.2068,0,0,0-.122-3.0268Z"/><path class="g" d="M24.5948,24.952l-.09,4.2455a11.5213,11.5213,0,0,1-.8752,3.0156c-.6727-.5221-.5373-2.6565-.4342-3.3023a11.781,11.781,0,0,0,.1-3.02Z"/><path class="g" d="M25.1783,25.9573l-1.1153-.0284A11.7515,11.7515,0,0,1,23.89,28.927c-.18,1.0281-.4324,3.6945.6379,4.3347.6636-1.4069.1583-2.7741.4928-3.9957Z"/><path class="g" d="M20.9143,24.2336l.2188,3.981a1.232,1.232,0,0,0,.45.8861,1.9392,1.9392,0,0,0,.296-1.0316c.0072-.2114-.12-3.13-.1545-3.73Z"/><path class="g" d="M22.8956,21.7189c.03.9945.0467,3.1525.04,3.3359a2.6467,2.6467,0,0,1-.3578,1.207,1.232,1.232,0,0,1-.45-.8862c-.032-.3562-.0433-2.1057-.0486-2.9825Z"/><path class="g" d="M22.0988,22.36c.02,1.0715.0082,2.7593.0035,2.8965a1.939,1.939,0,0,1-.296,1.0317,1.2691,1.2691,0,0,1-.471-.8965c-.0239-.2667-.098-1.4107-.105-2.2887Z"/><path class="g" d="M22.7842,21.6293l.7594-1.0944a20.3706,20.3706,0,0,1,.121,4.732,1.948,1.948,0,0,1-.344,1.03.911.911,0,0,1-.4333-.8949A26.0864,26.0864,0,0,0,22.7842,21.6293Z"/><path class="g" d="M24.3415,24.0661l.0515,1.2168a1.94,1.94,0,0,1-.296,1.0317,1.038,1.038,0,0,1-.45-.8862,23.236,23.236,0,0,0-.2908-4.7774l.664-.4071Z"/><path class="g" d="M25.101,25.1637l-.206.78a1.9915,1.9915,0,0,1-.45,1.0216.89.89,0,0,1-.3475-.8629,14.9181,14.9181,0,0,0-.3217-6.1371c1.1754.8024,1.72,2.4953,1.3256,5.1975Z"/><path class="g" d="M25.0407,25.9317l1.0786-.3582a16.1535,16.1535,0,0,1-.3643,4.2194,8.965,8.965,0,0,0,.0724,3.5265c-1.1507-.1576-1.6371-1.6412-1.06-4.4317a12.5125,12.5125,0,0,0,.2736-2.956Z"/><path class="g" d="M24.6231,20.9481a13.98,13.98,0,0,1,.2391,4.4933,4.7607,4.7607,0,0,1-.399,1.521c.7765-.0882,1.2742-.8465,1.21-2.1691l-.1744-3.6967Z"/><path class="g" d="M25.1866,21.1165c.0581.3354.2577.7308.2989,1.1588a10.9,10.9,0,0,1-.2888,4.33c.7765-.0882,1.043-.7922,1.0681-2.1162a18.5984,18.5984,0,0,0-.25-3.8753Z"/><path class="g" d="M23.573,20.7984l.7165-.0836c.1317.6776.2324,1.1566.2568,1.398a2.2494,2.2494,0,0,1-.26,1.2307c-.2642-.1593-.387-.5073-.4981-.9952Z"/><path class="g" d="M21.7143,22.3243l.6359.0066c.0218.5846.0376.98.0272,1.1862a1.9636,1.9636,0,0,1-.2937,1.0024,1.2082,1.2082,0,0,1-.4048-.868c-.0289-.4244.0314-.8762.0354-1.3272Z"/><path class="g" d="M21.6643,22.655c.0015.585.0035.9809-.0141,1.1865a1.9635,1.9635,0,0,1-.3283.9914,1.2081,1.2081,0,0,1-.3744-.8815Z"/><path class="g" d="M22.3618,21.9957l.6344-.045c.069.5809.1167.974.1231,1.18a1.9637,1.9637,0,0,1-.2116,1.0229,1.2069,1.2069,0,0,1-.4737-.8321C22.3708,22.9009,22.3943,22.4457,22.3618,21.9957Z"/><path class="g" d="M23.6517,21.0219a5.9708,5.9708,0,0,1-.006,2.6738,1.3461,1.3461,0,0,1-.5433-.9187c-.0783-.4677-.1017-.9652-.1465-1.4661Z"/><path class="g" d="M21.161,30.3081l1.0524.5405a3.5378,3.5378,0,0,0,.9532,1.3409,1.1864,1.1864,0,0,1-1.2608-.3923,5.0476,5.0476,0,0,0-.7243-.9067Z"/><path class="g" d="M21.382,30.7021c.2577.5255.4332.8807.5063,1.0735a1.8567,1.8567,0,0,1,.1161,1.0418,1.19,1.19,0,0,1-.7494-.6214Z"/><path class="g" d="M21.2467,30.8634c.1219.5725.2055.96.2294,1.1647a1.8571,1.8571,0,0,1-.1414,1.0389,1.1921,1.1921,0,0,1-.5752-.786c-.1025-.4134-.115-.8692-.1871-1.3146Z"/><path class="g" d="M19.8737,31.2135a3.5426,3.5426,0,0,1,.5033,1.567,1.1909,1.1909,0,0,0,.44-1.2471,7.8233,7.8233,0,0,1-.3444-1.4849Z"/><path class="g" d="M20.9359,29.54c.2272.5394.3821.904.444,1.1007a1.8564,1.8564,0,0,1,.0563,1.0469,1.1709,1.1709,0,0,1-.7467-.6291c-.1782-.3868-.2418-.8664-.3963-1.29Z"/><path class="g" d="M20.8708,28.4445c.1477-.04.3439.3056.5359.5072a1.1479,1.1479,0,0,1,.1338.1476,1.2418,1.2418,0,0,1,.1822.4243,3.3817,3.3817,0,0,0,.6866,1.4728,1.1874,1.1874,0,0,1-1.1547-.6413A5.072,5.072,0,0,0,20.73,29.32Z"/><path class="g" d="M19.268,31.8635a3.54,3.54,0,0,0-.748,1.4656,1.1914,1.1914,0,0,1-.234-1.3016C19.062,31.1356,19.0563,31.14,19.268,31.8635Z"/><path class="g" d="M19.1422,31.4406a4.9792,4.9792,0,0,0-1.0355,1.4837,1.2027,1.2027,0,0,1-.261-1.3017Z"/><path class="g" d="M19.9715,31.2533a3.5391,3.5391,0,0,0-.748,1.4657,1.1915,1.1915,0,0,1-.2341-1.3017Z"/><path class="e" d="M13.341,34.0267c-.016,0-.032.0373-.0374.0533a2.0145,2.0145,0,0,1-.4213.5867.6689.6689,0,0,0-.0213.8533,1.7633,1.7633,0,0,1,.3146.6773,3.0931,3.0931,0,0,1,.032.832.5575.5575,0,0,1-.2613.4107c-.0587.048.0427.176.2347.32a.2572.2572,0,0,1,.1066.16c.0054.016.1014.016.1067,0a.2567.2567,0,0,1,.1067-.16c.192-.144.2933-.272.2346-.32a.5575.5575,0,0,1-.2613-.4107,3.0931,3.0931,0,0,1,.032-.832,1.7637,1.7637,0,0,1,.3147-.6773.6689.6689,0,0,0-.0214-.8533,2.0145,2.0145,0,0,1-.4213-.5867C13.373,34.064,13.357,34.0267,13.341,34.0267Z"/><path class="e" d="M12.6636,37.3973c.4267.32.8214-.448.4374-1.472-.288-.768-1.6694-.448-.8854.56.0374.048.0907.0267.08-.0266-.0426-.2134.0747-.336.2987-.2934.56.1067.5813,1.1734-.032.9334-.112-.0107-.0053.2186.1013.2986"/><path class="e" d="M14.0183,37.3973c-.4267.32-.8213-.448-.4373-1.472.288-.768,1.6693-.448.8853.56-.0373.048-.0907.0267-.08-.0266.0427-.2134-.0747-.336-.2987-.2934-.56.1067-.5813,1.1734.032.9334.112-.0107.0054.2186-.1013.2986"/><path class="e" d="M13.661,36.56a.1867.1867,0,0,1,0,.3733h-.64a.1867.1867,0,1,1,0-.3733Z"/><path class="e" d="M13.0156,31.7867a11.3958,11.3958,0,0,1-.9066,1.6c-.16.0533-.2667.1333-.3734.1653a2.9364,2.9364,0,0,1-.88-.032c-.24-.1867-.6133-.0267-.4533.1867-.1067.1066.1067.3946.2667.2666s.6933,0,.8533-.0533c-.0533.16-.5867.2507-.9067.2667s-.2666.32-.16.5866l.1067.0534a.2245.2245,0,0,0,.4267-.0534c.0106-.2026.7466-.48.8533-.64a9.283,9.283,0,0,1-.5867.96c-.16.16-.2666.16-.0533.48l.3733.0534c.32,0,.3734-.1067.32-.3734a1.867,1.867,0,0,1,.2667-.8853,2.1041,2.1041,0,0,1,.144-.336,1.2553,1.2553,0,0,1,.816-.3253c.2667.1386.4533.0533.48-.2134-.0533-.0533,0-.4266-.192-.4586-.16-.0267-.2347.0533-.368.16-.2133.1706-.3307.2666-.3947.2506-.1706-.0426.304-.272.7307-.8373s.5973-1.408-.3627-.8213Z"/><path class="e" d="M10.4119,33.8421c-.214-.1254-.337-.12-.42-.0271-.0456.0513-.1039.0248-.07-.0558.1423-.3368.3693-.3787.5729-.2208.057.0533.1028.0982.1487.1435-.0342.0506-.2042.1214-.2318.16Z"/><path class="e" d="M13.4764,33.5408c.2272-.1547.44-.185.5566-.0981.0641.0478.1275.0135.0711-.0659-.2356-.3317-.5117-.3486-.72-.1615-.0566.0613-.1015.1136-.1465.1658a.7222.7222,0,0,0,.2388.16Z"/><path class="e" d="M11.6871,35.4427a.7963.7963,0,0,0-.1446-.3765,2.04,2.04,0,0,0-.2287.1879.58.58,0,0,0,.1288.8921c.0876.0753.1276-.0041.0922-.0906-.0606-.1481.013-.337.1523-.613Z"/><path class="e" d="M10.8023,34.7147c-.211.0876-.2838.1987-.2761.3447.0042.08-.0485.11-.0783.0168-.2579-.6.01-.7118.3963-.69A.8047.8047,0,0,1,10.8023,34.7147Z"/><path class="j" d="M13.645,32.208c-.1014-.096-.208-.1973-.3094-.08s-.048.2293.1014.384c-.096-.064-.2134-.2773-.32-.128s-.0107.2773.1066.4c-.1226-.1013-.2186-.256-.3253-.128s0,.256.096.352c-.1067-.0853-.2133-.1653-.2773-.0907-.096.112-.016.1867.0853.2827-.1173-.0853-.1973-.1707-.2827-.0747s.0267.2134.0907.256"/><path class="g" d="M13.6263,25.0133c.01.4628-.0723,3.55-.0982,3.9861a1.2344,1.2344,0,0,1-.4233.9,1.9363,1.9363,0,0,1-.3271-1.0217c-.0136-.2111.0252-3.1324.0414-3.7333Z"/><path class="g" d="M11.62,24.2576l-.131,4.2444a11.54,11.54,0,0,0,.7169,3.0593c.6633-.2836.8033-1.8038.6785-3.285a10.2068,10.2068,0,0,1,.122-3.0268Z"/><path class="g" d="M10.8338,24.952l.09,4.2455a11.5213,11.5213,0,0,0,.8752,3.0156c.6727-.5221.5373-2.6565.4342-3.3023a11.781,11.781,0,0,1-.1-3.02Z"/><path class="g" d="M10.25,25.9573l1.1152-.0284a11.7573,11.7573,0,0,0,.1735,2.9981c.18,1.0281.4324,3.6945-.6379,4.3347-.6636-1.4069-.1583-2.7741-.4928-3.9957Z"/><path class="g" d="M14.5143,24.2336l-.2188,3.981a1.232,1.232,0,0,1-.45.8861,1.9392,1.9392,0,0,1-.296-1.0316c-.0072-.2114.12-3.13.1545-3.73Z"/><path class="g" d="M12.533,21.7189c-.03.9945-.0467,3.1525-.04,3.3359a2.6455,2.6455,0,0,0,.3578,1.207,1.232,1.232,0,0,0,.45-.8862c.032-.3562.0432-2.1057.0486-2.9825Z"/><path class="g" d="M13.33,22.36c-.02,1.0715-.0082,2.7593-.0035,2.8965a1.939,1.939,0,0,0,.296,1.0317,1.27,1.27,0,0,0,.471-.8965c.0239-.2667.098-1.4107.1049-2.2887Z"/><path class="g" d="M12.6444,21.6293l-.7594-1.0944a20.3706,20.3706,0,0,0-.121,4.732,1.948,1.948,0,0,0,.344,1.03.911.911,0,0,0,.4333-.8949A26.0864,26.0864,0,0,1,12.6444,21.6293Z"/><path class="g" d="M11.0871,24.0661l-.0515,1.2168a1.939,1.939,0,0,0,.296,1.0317,1.0382,1.0382,0,0,0,.45-.8862,23.236,23.236,0,0,1,.2908-4.7774l-.6641-.4071Z"/><path class="g" d="M10.3276,25.1637l.2059.78a1.9916,1.9916,0,0,0,.45,1.0216.89.89,0,0,0,.3475-.8629,14.9181,14.9181,0,0,1,.3217-6.1371c-1.1754.8024-1.72,2.4953-1.3256,5.1975Z"/><path class="g" d="M10.3879,25.9317l-1.0786-.3582a16.1491,16.1491,0,0,0,.3643,4.2194,8.965,8.965,0,0,1-.0724,3.5265c1.1507-.1576,1.6371-1.6412,1.06-4.4317a12.5125,12.5125,0,0,1-.2736-2.956Z"/><path class="g" d="M10.8055,20.9481a13.98,13.98,0,0,0-.2391,4.4933,4.7608,4.7608,0,0,0,.3989,1.521c-.7764-.0882-1.2741-.8465-1.21-2.1691L9.93,21.0966Z"/><path class="g" d="M10.242,21.1165c-.0581.3354-.2577.7308-.299,1.1588a10.9019,10.9019,0,0,0,.2889,4.33c-.7765-.0882-1.043-.7922-1.0682-2.1162a18.606,18.606,0,0,1,.25-3.8753Z"/><path class="g" d="M11.8556,20.7984l-.7165-.0836c-.1317.6776-.2324,1.1566-.2568,1.398a2.2494,2.2494,0,0,0,.26,1.2307c.2642-.1593.3869-.5073.4981-.9952Z"/><path class="g" d="M13.7143,22.3243l-.636.0066c-.0217.5846-.0375.98-.0271,1.1862a1.9636,1.9636,0,0,0,.2937,1.0024,1.2086,1.2086,0,0,0,.4048-.868c.0289-.4244-.0314-.8762-.0354-1.3272Z"/><path class="g" d="M13.7643,22.655c-.0015.585-.0035.9809.014,1.1865a1.9635,1.9635,0,0,0,.3284.9914,1.2081,1.2081,0,0,0,.3744-.8815Z"/><path class="g" d="M13.0668,21.9957l-.6344-.045c-.069.5809-.1168.974-.1231,1.18a1.9637,1.9637,0,0,0,.2116,1.0229,1.2069,1.2069,0,0,0,.4737-.8321C13.0578,22.9009,13.0342,22.4457,13.0668,21.9957Z"/><path class="g" d="M11.7769,21.0219a5.9707,5.9707,0,0,0,.0059,2.6738,1.3458,1.3458,0,0,0,.5434-.9187c.0783-.4677.1017-.9652.1465-1.4661Z"/><path class="g" d="M14.2675,30.3081l-1.0523.5405a3.5368,3.5368,0,0,1-.9533,1.3409,1.1865,1.1865,0,0,0,1.2609-.3923,5.0476,5.0476,0,0,1,.7243-.9067Z"/><path class="g" d="M14.0466,30.7021c-.2578.5255-.4332.8807-.5063,1.0735a1.8567,1.8567,0,0,0-.1161,1.0418,1.19,1.19,0,0,0,.7493-.6214Z"/><path class="g" d="M14.1819,30.8634c-.1219.5725-.2055.96-.2294,1.1647a1.8571,1.8571,0,0,0,.1413,1.0389,1.1922,1.1922,0,0,0,.5753-.786c.1025-.4134.115-.8692.1871-1.3146Z"/><path class="g" d="M15.5549,31.2135a3.5426,3.5426,0,0,0-.5033,1.567,1.1909,1.1909,0,0,1-.44-1.2471,7.8315,7.8315,0,0,0,.3444-1.4849Z"/><path class="g" d="M14.4927,29.54c-.2273.5394-.3821.904-.444,1.1007a1.8564,1.8564,0,0,0-.0563,1.0469,1.1711,1.1711,0,0,0,.7467-.6291c.1782-.3868.2418-.8664.3963-1.29Z"/><path class="g" d="M14.5578,28.4445c-.1477-.04-.3439.3056-.5359.5072a1.1479,1.1479,0,0,0-.1338.1476,1.2418,1.2418,0,0,0-.1822.4243,3.3817,3.3817,0,0,1-.6866,1.4728,1.1874,1.1874,0,0,0,1.1547-.6413,5.072,5.072,0,0,1,.5248-1.0356Z"/><path class="g" d="M16.1606,31.8635a3.54,3.54,0,0,1,.748,1.4656,1.1915,1.1915,0,0,0,.234-1.3016C16.3666,31.1356,16.3723,31.14,16.1606,31.8635Z"/><path class="g" d="M16.2864,31.4406a4.9792,4.9792,0,0,1,1.0355,1.4837,1.2028,1.2028,0,0,0,.261-1.3017Z"/><path class="g" d="M15.4571,31.2533a3.54,3.54,0,0,1,.748,1.4657,1.1915,1.1915,0,0,0,.2341-1.3017Z"/><path class="g" d="M17.7143,20.6667A5.8043,5.8043,0,0,0,16.909,17.92c.2293.0267.4693-.0213.3573-.576a3.176,3.176,0,0,1-1.3547-.384c-.7413-.3467-1.8293-.4747-1.76-.1013a2.7266,2.7266,0,0,0,1.136,1.6586c.24.5974.8267,1.728.4214,2.352a3.5124,3.5124,0,0,1-1.1467,1.1787,1.7726,1.7726,0,0,0,.2613.0747,1.2872,1.2872,0,0,1-.6506.2026,8.03,8.03,0,0,1-1.1414-1.344c-.976-1.104-1.488-1.968-1.2906-2.6453.2186-.752,1.12-1.5733-.0374-1.4293s-2.128,1.7653-2.416,3.6373c-.1066.6933-.1813,1.3013-.2613,1.7867A1.8393,1.8393,0,0,0,10.1036,21.6a6.7611,6.7611,0,0,0-.1706.752,1.1987,1.1987,0,0,0,1.024-.8053,2.6494,2.6494,0,0,1,.192-.4747,1.085,1.085,0,0,0,.6133-.0053c.096.224.8053,1.0186,1.1893,1.6a3.133,3.133,0,0,0,1.2907,1.1893h6.944a3.133,3.133,0,0,0,1.2907-1.1893c.384-.5814,1.0933-1.376,1.1893-1.6a1.085,1.085,0,0,0,.6133.0053,2.6494,2.6494,0,0,1,.192.4747,1.1987,1.1987,0,0,0,1.024.8053,6.7611,6.7611,0,0,0-.1706-.752,1.8393,1.8393,0,0,0,1.0773.7307c-.08-.4854-.1547-1.0934-.2613-1.7867-.288-1.872-1.2587-3.4933-2.416-3.6373s-.256.6773-.0374,1.4293c.1974.6773-.3146,1.5413-1.2906,2.6453a8.03,8.03,0,0,1-1.1414,1.344,1.2872,1.2872,0,0,1-.6506-.2026,1.7726,1.7726,0,0,0,.2613-.0747A3.5124,3.5124,0,0,1,19.72,20.8693c-.4053-.624.1814-1.7546.4214-2.352a2.7266,2.7266,0,0,0,1.136-1.6586c.0693-.3734-1.0187-.2454-1.76.1013a3.176,3.176,0,0,1-1.3547.384c-.112.5547.128.6027.3573.576A5.8043,5.8043,0,0,0,17.7143,20.6667Z"/><path class="e" d="M19.869,19.008l1.0186.1493c.7894.0374,1.248-.2133,1.3494-.72a1.0372,1.0372,0,0,1-1.056.432,4.4071,4.4071,0,0,0-.992-.2133Z"/><path class="e" d="M21.7783,16.9493c.8853.096.8427.6667.016,1.4934-.1707.1653-.2027.16-.2453-.0107-.0747-.2987-.3787-.4427-.5387-.2347-.1067.1387-.0907.2294-.464.176-.4747.4-.8533.6827-.24.656.2453-.0106.4853.1494.8373.1334-.1013.208-.1226.2346-.1813.2453-.352.0533-.704-.144-1.056-.08-.7627.1387,1.2213-2.064,1.2-2.1493C21.053,16.9653,21.581,16.56,21.7783,16.9493Z"/><path class="h" d="M20.5143,17.648l.1168-.117q.0853-.108-.0989-.288c-.09.0389-.1617.069-.2336.099a.4442.4442,0,0,0,.2157.306Z"/><circle class="h" cx="21.8743" cy="17.3867" r="0.0747"/><path class="l" d="M25.5916,26.4907a13.1349,13.1349,0,0,1-.2933,2.5066,9.6921,9.6921,0,0,0-.24,2.1334"/><path class="l" d="M25.197,26.6027a10.1181,10.1181,0,0,0,.2826-4.2454,6.7393,6.7393,0,0,0-1.1946-2.992"/><path class="l" d="M21.7783,16.9493a1.055,1.055,0,0,1-.448.5654"/><path class="l" d="M19.4,21.7173a1.2566,1.2566,0,0,0,1.4614.336"/><path class="l" d="M19.3356,21.392a3.0077,3.0077,0,0,0,.2507.88,1.2906,1.2906,0,0,1-.7947-.4853"/><path class="l" d="M18.8631,21.3493a1.812,1.812,0,0,1-.2933.8534,1.14,1.14,0,0,1-.416-.64"/><path class="l" d="M19.997,17.472c.0853.1653.24.3787.4266.2667.2667-.16.3147-.3627.4374-.5494"/><path class="l" d="M19.7463,17.504a1.56,1.56,0,0,0,.5067-.1387,2.1755,2.1755,0,0,1,.8426-.192"/><path class="l" d="M19.037,17.8133a3.3441,3.3441,0,0,1-.5174.1067"/><path class="e" d="M15.56,19.008l-1.0186.1493c-.7894.0374-1.248-.2133-1.3494-.72a1.0372,1.0372,0,0,0,1.056.432,4.4071,4.4071,0,0,1,.992-.2133Z"/><path class="e" d="M13.65,16.9493c-.8853.096-.8427.6667-.016,1.4934.1707.1653.2027.16.2453-.0107.0747-.2987.3787-.4427.5387-.2347.1067.1387.0907.2294.464.176.4747.4.8533.6827.24.656-.2453-.0106-.4853.1494-.8373.1334.1013.208.1226.2346.1813.2453.352.0533.704-.144,1.056-.08.7627.1387-1.2213-2.064-1.2-2.1493C14.3756,16.9653,13.8476,16.56,13.65,16.9493Z"/><path class="h" d="M14.9143,17.648l-.1168-.117q-.0853-.108.0988-.288c.09.0389.1617.069.2337.099a.4442.4442,0,0,1-.2157.306Z"/><circle class="h" cx="13.5543" cy="17.3867" r="0.0747"/><path class="l" d="M9.837,26.4907a13.1349,13.1349,0,0,0,.2933,2.5066,9.6921,9.6921,0,0,1,.24,2.1334"/><path class="l" d="M10.2316,26.6027a10.1181,10.1181,0,0,1-.2826-4.2454,6.7393,6.7393,0,0,1,1.1946-2.992"/><path class="l" d="M13.65,16.9493a1.0545,1.0545,0,0,0,.448.5654"/><path class="l" d="M16.029,21.7173a1.2566,1.2566,0,0,1-1.4614.336"/><path class="l" d="M16.093,21.392a3.0077,3.0077,0,0,1-.2507.88,1.2911,1.2911,0,0,0,.7947-.4853"/><path class="l" d="M16.5655,21.3493a1.812,1.812,0,0,0,.2933.8534,1.14,1.14,0,0,0,.416-.64"/><path class="l" d="M15.4316,17.472c-.0853.1653-.24.3787-.4266.2667-.2667-.16-.3147-.3627-.4374-.5494"/><path class="l" d="M15.6823,17.504a1.56,1.56,0,0,1-.5067-.1387,2.1755,2.1755,0,0,0-.8426-.192"/><path class="l" d="M16.3916,17.8133a3.3416,3.3416,0,0,0,.5174.1067"/><path class="g" d="M17.24,21.264a2.1584,2.1584,0,0,0,.4747,1.184,2.1066,2.1066,0,0,0,.4747-1.184"/><path class="m" d="M21.3143,22.5067v5.7866a3.89,3.89,0,0,1-1.0667,2.656,3.5921,3.5921,0,0,1-2.5333,1.1574,3.5921,3.5921,0,0,1-2.5333-1.1574,3.89,3.89,0,0,1-1.0667-2.656V22.5067Z"/><path class="n" d="M21.2876,26.0533v1.4934H18.4343v4.4266a3.279,3.279,0,0,1-1.44,0V27.5467H14.141V26.0533h2.8533v-3.52h1.44v3.52Z"/><path class="g" d="M18.941,28.16c.4266-.16,1.6-.5333,1.6.4,0,.448-.544.7413-.6934.3467-.0746-.1974.0054-.3254.1174-.368a.1575.1575,0,0,1,.2026.1973c.4694-.2507-.4426-.7627-.8266-.0907-.1067.1867.1973.4054.1973.5547s-.304.368-.1973.5547c.384.672,1.296.16.8266-.0907a.1575.1575,0,0,1-.2026.1973c-.112-.0426-.192-.1706-.1174-.368.1494-.3946.6934-.1013.6934.3467,0,.9333-1.1734.56-1.6.4Z"/><path class="g" d="M16.4876,23.36c-.4266-.16-1.6-.5333-1.6.4,0,.448.544.7413.6934.3467.0746-.1974-.0054-.3254-.1174-.368a.1575.1575,0,0,0-.2026.1973c-.4694-.2507.4426-.7627.8266-.0907.1067.1867-.1973.4054-.1973.5547s.304.368.1973.5547c-.384.672-1.296.16-.8266-.0907a.1575.1575,0,0,0,.2026.1973c.112-.0426.192-.1706.1174-.368-.1494-.3946-.6934-.1013-.6934.3467,0,.9333,1.1734.56,1.6.4Z"/><path class="g" d="M18.941,23.36c.4266-.16,1.6-.5333,1.6.4,0,.448-.544.7413-.6934.3467-.0746-.1974.0054-.3254.1174-.368a.1575.1575,0,0,1,.2026.1973c.4694-.2507-.4426-.7627-.8266-.0907-.1067.1867.1973.4054.1973.5547s-.304.368-.1973.5547c.384.672,1.296.16.8266-.0907a.1575.1575,0,0,1-.2026.1973c-.112-.0426-.192-.1706-.1174-.368.1494-.3946.6934-.1013.6934.3467,0,.9333-1.1734.56-1.6.4Z"/><path class="g" d="M16.4876,28.16c-.4266-.16-1.6-.5333-1.6.4,0,.448.544.7413.6934.3467.0746-.1974-.0054-.3254-.1174-.368a.1575.1575,0,0,0-.2026.1973c-.4694-.2507.4426-.7627.8266-.0907.1067.1867-.1973.4054-.1973.5547s.304.368.1973.5547c-.384.672-1.296.16-.8266-.0907a.1575.1575,0,0,0,.2026.1973c.112-.0426.192-.1706.1174-.368-.1494-.3946-.6934-.1013-.6934.3467,0,.9333,1.1734.56,1.6.4Z"/></svg>