<svg xmlns="http://www.w3.org/2000/svg" viewBox="0 0 48 48"><defs><style>.a{fill:red;}.b,.d{fill:blue;}.b,.c{fill-rule:evenodd;}.c,.f{fill:#fff;}.e{fill:#ff0;}</style></defs><title>fi_sl</title><circle class="a" cx="24" cy="24" r="24"/><path class="b" d="M48,24a23.5946,23.5946,0,0,1-1.38,8H1.38A23.5946,23.5946,0,0,1,0,24a24,24,0,0,1,48,0Z"/><path class="c" d="M46.62,16H1.38a23.99,23.99,0,0,1,45.24,0Z"/><path class="d" d="M10.18,9.2255a14.434,14.434,0,0,1,11.6406,0Q22.7322,22.1212,16,23.8434,9.2679,22.1213,10.18,9.2255Z"/><path class="e" d="M16,10.77l.1761.3995.434-.0472-.2578.3523.2578.3522-.434-.0471L16,12.18l-.1761-.3994-.434.0471.2578-.3522-.2578-.3523.434.0472"/><path class="e" d="M14.3561,8.5786l.1761.3994.434-.0472-.2578.3523.2578.3523-.434-.0472-.1761.3994L14.18,9.5882l-.4341.0472.2579-.3523-.2579-.3523.4341.0472"/><path class="e" d="M17.6439,8.5786l.1761.3994.4341-.0472-.2579.3523.2579.3523L17.82,9.5882l-.1761.3994-.1761-.3994-.434.0472.2578-.3523-.2578-.3523.434.0472"/><path class="f" d="M16,13.0406l1.4091,2.8181.9393-1.2525,2.3485,3.1313a1.5642,1.5642,0,0,1-.06.43A7.2646,7.2646,0,0,1,16,23.0464a7.2646,7.2646,0,0,1-4.6366-4.8788,1.5642,1.5642,0,0,1-.06-.43l2.3485-3.1313.9393,1.2525Z"/><path class="d" d="M11.3634,18.1676a1.5657,1.5657,0,0,0,2.2882.9258,1.5654,1.5654,0,0,1,1.5656,0,1.5659,1.5659,0,0,0,1.5656,0,1.5654,1.5654,0,0,1,1.5656,0,1.5656,1.5656,0,0,0,2.2882-.9258l.06.0218v1.1462a1.5657,1.5657,0,0,0-.7828.21,1.5656,1.5656,0,0,1-1.5657,0,1.5654,1.5654,0,0,0-1.5656,0,1.5654,1.5654,0,0,1-1.5656,0,1.5654,1.5654,0,0,0-1.5656,0,1.5656,1.5656,0,0,1-1.5657,0,1.5657,1.5657,0,0,0-.7828-.21V18.1894"/><path class="d" d="M11.3634,19.0715a1.5657,1.5657,0,0,0,2.2882.9258,1.5654,1.5654,0,0,1,1.5656,0,1.5654,1.5654,0,0,0,1.5656,0,1.5654,1.5654,0,0,1,1.5656,0,1.5656,1.5656,0,0,0,2.2882-.9258l.06.0219V20.24a1.5657,1.5657,0,0,0-.7828.21,1.5656,1.5656,0,0,1-1.5657,0,1.5659,1.5659,0,0,0-1.5656,0,1.5654,1.5654,0,0,1-1.5656,0,1.5659,1.5659,0,0,0-1.5656,0,1.5656,1.5656,0,0,1-1.5657,0,1.5657,1.5657,0,0,0-.7828-.21V19.0934"/><path class="a" d="M9.7375,9.4293q.2193-.1056.4422-.2038l.4651,7.4287A7.7186,7.7186,0,0,0,16,23.5246a7.7186,7.7186,0,0,0,5.3552-6.87L21.82,9.2255q.2228.0981.4422.2038l-.4541,7.2532A8.1729,8.1729,0,0,1,16,24a8.1729,8.1729,0,0,1-5.8084-7.3175Z"/></svg>