<svg xmlns="http://www.w3.org/2000/svg" viewBox="0 0 48 48"><defs><style>.a{fill:#005430;}.b{fill:#fff;}</style></defs><title>fi_sa</title><circle class="a" cx="24" cy="24" r="24"/><path class="b" d="M42,19.0659c-.005-.8432-.3322-3.1145-.4152-3.8764s-.1664-1.4532-.1462-1.6151c.02-.1562.26.2172.3872.2474.0657-.0132.0364-.249-.0831-.45-.0808-.1367-.3565-.6481-.5237-.9477-.0786-.1418-.0962-.2241-.1341-.2415a1.7978,1.7978,0,0,0-.3087.6647.6394.6394,0,0,1,.1529.4048c.0132.22.1271,1.7941.2724,2.987.1093.9.3493,2.8387.3578,4.0442a3.569,3.569,0,0,1-.0935.9246c-.1344.246-.3443.4678-1.1261.9253-.8789.5143-2.0515.9424-2.5555,1.2289-.3133.1787-.2094.2026.0634.1244a19.57,19.57,0,0,0,2.363-.6177,2.6078,2.6078,0,0,0,1.3746-1.39A5.03,5.03,0,0,0,42,19.0659"/><path class="b" d="M39.279,12.6609a3.3868,3.3868,0,0,1,.7818-.0241c-.0994.1422-.7739.457-.7768.5148a1.7554,1.7554,0,0,0,.607-.1335,1.1313,1.1313,0,0,0,.2222-.2128c.1613-.1855.3526-.53.3044-.5729a3.5506,3.5506,0,0,0-.946-.0119c-.0677.01-.2395.3176-.271.3966s.0105.07.0784.0438"/><path class="b" d="M40.428,17.6586a2.3657,2.3657,0,0,0-.0134-1.3859,1.8024,1.8024,0,0,0-.8646-1.0035l-.0524.5027a1.806,1.806,0,0,1,.6933.72,1.7578,1.7578,0,0,1,.1118,1.3041c-.0235.1278.0679.0573.1253-.1372"/><path class="b" d="M36.072,20.1792a2.1331,2.1331,0,0,0-.0118-1.248,1.62,1.62,0,0,0-.7788-.9031l-.0473.4524a1.6274,1.6274,0,0,1,.6243.6479,1.5845,1.5845,0,0,1,.101,1.1744c-.0211.1146.0611.0514.1126-.1236"/><path class="b" d="M20.949,13.3353a1.6709,1.6709,0,0,1,.1065,1.2387c-.0224.1213.064.0547.119-.13a2.251,2.251,0,0,0-.0132-1.3167,1.71,1.71,0,0,0-.8215-.9528l-.0493.4774a1.7133,1.7133,0,0,1,.6585.6835"/><path class="b" d="M10.74,13.4958a1.5175,1.5175,0,0,1-.078,1.26c-.0447.1193.0642.0628.1556-.1157a2.0546,2.0546,0,0,0,.1967-1.3259A1.7071,1.7071,0,0,0,10.236,12.25l-.1323.4738a1.7584,1.7584,0,0,1,.6363.7719"/><path class="b" d="M13.5621,20.9586a3.0084,3.0084,0,0,0,.3368-.96,4.6349,4.6349,0,0,0,.05-1.1661c.5417-.2208,1.1872-.5873,1.4042-.6143a.7814.7814,0,0,0,.921.9873c.0547.5759.1016,1.0818.13,1.3818.0583.6151.0495,1.39.0478,1.525s.0955.11.1961-.1917a7.74,7.74,0,0,0,.1269-2.1544c-.0116-.1742-.0313-.4094-.0552-.6774.4636-.2146.5408-.6287.7141-.8051.1565.548,1.0176.6223,1.2834.505.33-.1456.4376-.4076.5224-1.0156a.9134.9134,0,0,0-.2511-.9187c-.0088.0735-.2244.7879-.2244.7879s.2045.2159.2148.3221a.9058.9058,0,0,1-.8128.064c-.2951-.096-.3856-.2727-.3681-.3912s.1282-.2271.1319-.372-.0662-.1029-.1843.0254a2.7961,2.7961,0,0,0-.3578.52,1.1233,1.1233,0,0,1-.7332.5792c-.0631-.6621-.1352-1.3665-.1834-1.8089-.0252-.2336-.277-2.2523-.295-2.4782-.0155-.1967-.0447-.4286-.04-.5376.0048-.0867.0591-.0523.1433.0385s.2318.2485.2572.2362c.0859-.0422-.002-.3045-.1144-.5395a10.3972,10.3972,0,0,0-.5756-1.2034,2.2408,2.2408,0,0,0-.3153.6653.7872.7872,0,0,1,.1485.4965c.0013.088.0579.917.1363,1.7008.0686.6923.16,1.3491.1683,1.4255.0625.5283.1383,1.2731.21,2.0052-.4153-.079-.5257-.3529-.5165-.5091.0105-.1762.09-.3752.0519-.42a5.8231,5.8231,0,0,0-1.22.5039c-.1867.08-.3971.1663-.6191.248-.0578-.499-.1341-.9735-.1647-1.3364l-.0038-.04a1.3639,1.3639,0,0,0,.9565-.4584,2.4233,2.4233,0,0,0,.359-1.216,5.2333,5.2333,0,0,0-.4-1.4119,2.61,2.61,0,0,1-.1286-.4911c-.0072-.0832.1806.0965.2987.1317.08.016.0524-.1572-.0454-.2761a6.6134,6.6134,0,0,0-.6589-.8594,6.9264,6.9264,0,0,0-.2467.7087.4969.4969,0,0,1,.1865.35,6.0019,6.0019,0,0,0,.2509,1.1325,10.7361,10.7361,0,0,1,.42,1.2162,1.97,1.97,0,0,1-1.0818.3576c-.0754-.6175-.1709-1.3347-.222-1.8426a4.4382,4.4382,0,0,1-.018-.5152c.0024-.0867.0649-.0748.1508.0144s.2187.2188.2459.21c.0591-.02.0078-.2164-.1094-.45a11.063,11.063,0,0,0-.6648-1.2585,2.1445,2.1445,0,0,0-.2632.6493.7908.7908,0,0,1,.1589.4937c.0083.251.1306,1.4812.2353,2.5647a1.1756,1.1756,0,0,1-.6387-1.089,12.2258,12.2258,0,0,0-.176-1.6533,1.7655,1.7655,0,0,0-.4249-.84c-.0451.1092-.2467.78-.2467.78a4.7253,4.7253,0,0,1,.2632,1.4021,1.5089,1.5089,0,0,1-.68,1.4889,1.2873,1.2873,0,0,1-1.8052-.3624c-.2329-.5908.2849-2.072.2781-2.4216s-.0695-.3979-.2156-.34a2.1133,2.1133,0,0,0-.7019.9433,12.8752,12.8752,0,0,0-.5178,1.6906c-.1457.4621-.3791.93-.74.9044s-.5555-.356-.6666-.8339a3.7739,3.7739,0,0,1-.0129-1.27c.0754-.4044-.0993-.3215-.2062.3134a3.3093,3.3093,0,0,0,.101,1.6716c.2325.6546.6289.8987.9762.815s.653-.8983.7608-1.2644.589-1.9888.8616-2.0687c.0382.183-.2119.7727-.2919,1.4626s.1063,1.6165.982,1.7767a1.6014,1.6014,0,0,0,1.685-.8017,3.0754,3.0754,0,0,0,.3406-1.0172,1.85,1.85,0,0,0,1.09,1.5912l.0724.0209c.0431.4331.1135.9985.1781,1.5923-.1365.0422-.2743.08-.4115.1131a1.339,1.339,0,0,0-.06-.1639c-.2141-.46-.5684-.8849-1.0594-.8556a1.3067,1.3067,0,0,0-1.0247,1.188c.0158.3289.1968.5987.855.6678a3.0037,3.0037,0,0,0,.95-.0736,1.3553,1.3553,0,0,1,.0791.3943,7.1561,7.1561,0,0,1-3.227,1.671c-1.2924.125-1.6866-.5525-1.7-1.2326a2.773,2.773,0,0,1,.52-1.3912,3.5415,3.5415,0,0,0,.7319-.736c.0441.0271.0859.0522.1258.0755a.5607.5607,0,0,1,.2161.2239c.0284-.0437.1612-.2828.1093-.4a2.03,2.03,0,0,0-.2811-.186c.1474-.3675.1455-.7344-.0456-.816-.2137-.091-.4926.1618-.6129.316a.41.41,0,0,0-.0868.2476.3128.3128,0,0,0,.16.266c.1139.0778.22.1483.3192.2119a8.7446,8.7446,0,0,1-1.3583.9864c-.0152-.0375-.075.0021-.1554.0969l-.1107.0682c-.3258.1994-1.1072.6372-1.2608.7444s-.0574.0879,0,.064c.1085-.0586.2509-.1295.4109-.2077.2265-.1108.49-.2362.7478-.362a3.8164,3.8164,0,0,0-.225.4453c-.3074.7259-.8044,2.23.2706,3.1355,1.0286.8665,2.7965.5369,4.2627-.3636a6.149,6.149,0,0,0,2.0122-1.5448M8.7816,17.38c-.0508-.0375-.0578-.0875-.0164-.1224a.4376.4376,0,0,1,.197-.1019c.1626-.03.2275.1566.1622.4476-.1236-.0756-.2507-.155-.3428-.2233m3.3632,1.2271c-.7466.0034-.781-.1321-.7669-.2188a.3829.3829,0,0,1,.5412-.1669,1.3455,1.3455,0,0,1,.3951.3788c-.0574.0043-.114.0065-.1694.0069M9.8582,22.5332c-1.4105.3849-2.7864-.2116-2.87-1.3925a3.4719,3.4719,0,0,1,.4773-1.9641c.2022-.1.3933-.1973.5513-.2844a2.9623,2.9623,0,0,0-.4409,2.0656c.1635.7642.8283,1.2275,1.954,1.078a7.3074,7.3074,0,0,0,3.0487-1.6074,1.788,1.788,0,0,0,.3331-.5393,1.6382,1.6382,0,0,0,.1411-.4147,2.461,2.461,0,0,0,.0271-.3339c.1309-.0391.2623-.0828.3947-.13.0449.4838.078.9607.08,1.3731a8.434,8.434,0,0,1-3.6967,2.1494"/><path class="b" d="M34.53,19.4364c-.0478-.79-.163-2.22-.2275-2.9457-.0569-.6457-.1689-1.5306-.2509-2.31a4.1852,4.1852,0,0,1-.02-.4931c.0024-.0863.0887-.0531.175.0357s.2213.2.2468.1866c.0843-.0438-.0167-.26-.1352-.4929a10.6142,10.6142,0,0,0-.67-1.2344,2.2755,2.2755,0,0,0-.2746.6724.7859.7859,0,0,1,.1613.4929c.0118.3154.1711,1.7656.2862,2.9384.08.8152.1827,2.1454.2576,3.1485-.0037.0016.0708.9536.0789,1.0606.046.6158.0222,1.3908.0176,1.5253s.0937.1116.2-.1882a6.4353,6.4353,0,0,0,.1779-1.6068Z"/><path class="b" d="M30.525,16.67c-.1446.0442-.3716-.1088-.3543-.43a3.134,3.134,0,0,1,.1875-.7322c.0658-.2362.0662-.4639.0106-.3349a5.481,5.481,0,0,0-.407,1.2247c-.0484.3785.0743.6224.2411.7057.2077.1043.3574-.0612.4586-.3052.0973-.2335.0789-.5062.0114-.442-.0565.067-.0776.2917-.1479.3134"/><path class="b" d="M28.446,17.8362c.0767-.2038.0947-.4036.0357-.294a4.943,4.943,0,0,0-.4551,1.05c-.0728.33.0155.5526.1558.6371.1749.1058.3188-.03.4277-.2374.1041-.1988.1094-.44.0454-.3878-.0552.0551-.0918.251-.1549.2654-.1313.029-.3184-.1209-.2779-.4021a2.7865,2.7865,0,0,1,.2233-.6309"/><path class="b" d="M22.392,22.1358c.1282-.2081.192-.4238.103-.3148a5.7129,5.7129,0,0,0-.726,1.0628c-.1512.3466-.103.6069.0318.7255.1681.1479.3554.0263.5191-.18.1571-.198.2158-.4605.1337-.4158-.0721.05-.1545.2577-.227.2616-.1493.0073-.3215-.1915-.2159-.4909a3.22,3.22,0,0,1,.3813-.6483"/><path class="b" d="M33.006,16.0638c-.147.0369-.3644-.1278-.328-.4473a3.16,3.16,0,0,1,.2311-.7209c.08-.2327.094-.46.0307-.3342a5.5717,5.5717,0,0,0-.48,1.2022c-.0713.3754.0363.6252.198.7169.2016.1143.36-.0429.4764-.2816.1111-.2281.1094-.5012.0377-.44-.06.0644-.0946.2875-.1663.3053"/><path class="b" d="M32.961,19.9833c.2012.1143.3607-.043.4764-.2816.1109-.2281.1093-.5012.0381-.44-.0607.064-.0951.2874-.1667.3053-.1471.0366-.3649-.1279-.3281-.4474a3.1422,3.1422,0,0,1,.2312-.7208c.08-.2328.0938-.46.0307-.3343a5.551,5.551,0,0,0-.48,1.2018c-.0712.3758.0364.6256.1981.7174"/><path class="b" d="M35.532,14.9766c.0969-.2816.1135-.5565.0368-.4044a6.73,6.73,0,0,0-.5807,1.4548c-.0859.4545.0445.7565.24.8678.2434.1381.4361-.0521.5765-.3406.1339-.2761.1319-.607.0456-.533-.073.0776-.1148.3474-.2016.3691-.1775.0446-.4411-.1546-.3966-.5411a3.8221,3.8221,0,0,1,.28-.8726"/><path class="b" d="M14.9856,19.8474c.1584-.3432.2158-.6868.0993-.5038a8.6437,8.6437,0,0,0-.92,1.7637c-.168.5618-.0436.9565.1876,1.1183.2884.201.5555-.017.77-.3636.2049-.3325.2456-.7488.1275-.6655-.1019.0891-.19.4242-.3017.4418-.23.0361-.5347-.2439-.4282-.7251a4.9242,4.9242,0,0,1,.4663-1.0658"/><path class="b" d="M37.17,23.25c.1214-.0995,1.1771-.6682,1.3715-.7836,0,0,.1988-.3242.1392-.3586s-.4453.316-.685.3258-.5684-.1666-.579-.311a.7076.7076,0,0,1,.424-.2794c.1043-.0061.0875.2314.1223.26s.1736-.1639.1911-.2441.0028-.4151-.188-.3671a1.81,1.81,0,0,0-.81.813c-.0524.1767.2292.33.4347.4141a1.0287,1.0287,0,0,0-.268.1763.8047.8047,0,0,0-.1529.3543"/><path class="b" d="M33.57,23.9544c.1214-.0995,1.1771-.6677,1.3715-.7836,0,0,.1992-.3242.1392-.3586s-.4453.316-.685.3257-.5684-.1665-.579-.3109a.7053.7053,0,0,1,.424-.279c.1043-.0065.0875.2308.1223.26s.1736-.1635.1911-.2437.0024-.4151-.188-.3671a1.8108,1.8108,0,0,0-.81.8134c-.0524.1763.2292.33.4343.4137a1.03,1.03,0,0,0-.2676.1763.8047.8047,0,0,0-.1529.3543"/><path class="b" d="M25.461,13.7616c.0947.11.7148.8979,1.2006,1.3932s1.318,1.298,1.93,1.8479c.1183.1065.2439.222.3717.3422.1542,1.1843.3326,2.6914.4075,3.3146.0739.6136.0848,1.3886.0864,1.5235s.0986.1076.191-.1957A7.7489,7.7489,0,0,0,29.72,19.83c-.0408-.43-.137-1.2352-.23-1.9777.3611.3567.7023.7107.9321.9756a5.1342,5.1342,0,0,1,.9951,1.3763c.1534.37.1378.6643.2007.7224.0544.05.1144-.3924.0474-.8217-.1087-.6971-.2577-.9927-1.1527-1.9881-.3414-.38-.7432-.7781-1.1361-1.15-.0151-.1146-.0289-.2208-.0414-.315-.0312-.2328-.3344-2.2453-.3583-2.4708-.02-.1963-.0561-.4275-.0533-.5367.0022-.0869.0575-.0531.1442.0357s.2376.2435.2632.23c.0846-.0438-.01-.3037-.1282-.5369a10.3864,10.3864,0,0,0-.6067-1.19,2.2435,2.2435,0,0,0-.2978.672.787.787,0,0,1,.1612.4931c.0033.0879.0813.9157.1793,1.6973.0868.6907.1941,1.3457.2053,1.4214l0,.0059c-.4051-.3695-.7621-.6833-.9786-.88a15.0284,15.0284,0,0,1-1.6691-1.7153c-.01-.0517.0767-.02.2363.0057s.3026.08.2769.0016a.5239.5239,0,0,0-.2257-.2231c-.1529-.0946-.5447-.34-.8361-.5132s-.4368-.3184-.497-.2769a3.4123,3.4123,0,0,0,.0142.6878.5788.5788,0,0,1,.2954.2026"/><path class="b" d="M26.259,12.6945a3.9939,3.9939,0,0,1,.894.0314c-.0863.06-.6674.3535-.7822.4234s-.1431.1106-.0857.1037a4.4,4.4,0,0,0,.7218-.1975,2.7223,2.7223,0,0,0,.571-.6112c.1118-.1445.1118-.2166.0833-.2553a3.0619,3.0619,0,0,0-1.212-.0364,1.8653,1.8653,0,0,0-.3206.4985c-.0285.0748.0105.07.13.0434"/><path class="b" d="M29.418,12.648a3.221,3.221,0,0,1,.7205.0251c-.07.0484-.5375.2851-.63.3418s-.1157.0889-.07.0833a3.4732,3.4732,0,0,0,.5818-.1593,2.2,2.2,0,0,0,.46-.4923c.09-.1167.09-.1746.067-.2056a2.451,2.451,0,0,0-.9764-.03,1.4953,1.4953,0,0,0-.2581.4018c-.0235.06.0083.0561.1047.0348"/><path class="b" d="M31.986,12.615a3.2173,3.2173,0,0,1,.72.0251c-.069.0484-.5373.2851-.63.3414s-.1153.0893-.0691.0837a3.7619,3.7619,0,0,0,.6053-.1593c.1367-.064.2986-.3762.3891-.4927s.0905-.1746.0671-.2052a2.218,2.218,0,0,0-.9291-.03,1.5056,1.5056,0,0,0-.2586.4022c-.023.06.0083.0561.1052.0348"/><path class="b" d="M30.384,13.8657c-.1521.2395.0386.4327.108.6262-.0938.0857-.2379.0075-.2861-.0677-.1026-.1541-.0682-.4683-.1889-.5168a1.5653,1.5653,0,0,0-.0511.1791.8329.8329,0,0,1,.0688.3572.2222.2222,0,0,1-.1906.1882c-.2669.0065-.1354-.3886-.2384-.6124-.0211.0547-.0362.1134-.0607.1647a.8866.8866,0,0,1,.0322.1874,2.377,2.377,0,0,0,.0147.2749c.0221.1132.085.1884.181.1957a.31.31,0,0,0,.32-.2782c.0344.1352.298.2841.4278.1181.1717-.2188.0344-.4061-.0537-.612-.0636-.1521-.0452-.252-.0833-.2044"/><path class="b" d="M22.893,13.2306a.18.18,0,0,0,.147.1759.2709.2709,0,0,0,.2891-.2265c.0225.1177.243.2562.3628.1189.1585-.1818.0487-.3487-.0175-.53-.0473-.1341-.0269-.2192-.062-.18-.1424.2.0129.3746.0635.5442-.085.07-.2053-.0035-.2434-.07-.0811-.1372-.0368-.4064-.1381-.4532a1.3629,1.3629,0,0,0-.0523.1521.7143.7143,0,0,1,.0418.31.1931.1931,0,0,1-.1731.1546c-.23-.0051-.0979-.34-.1764-.5369-.02.046-.0364.0964-.06.139a.7168.7168,0,0,1,.0188.1631c.0018.081-.01.1673,0,.2374"/><path class="b" d="M28.332,22.509A.4.4,0,0,0,28.4,22.28c-.0142-.0764-.1078-.3951-.2894-.4749s-.3173.0875-.4039.32l-.06-.0014a.7347.7347,0,0,0-.0465.1789c-.02.1343-.0583.2208-.2886.43a7.3177,7.3177,0,0,1-1.228.7929c-.4071.1979-.7.3687-.8081.4206s-.0762.07.0313.0379.6478-.2061.8632-.2948a5.2247,5.2247,0,0,0,.7948-.4418,1.4982,1.4982,0,0,0,.6337-.66c.05-.1444.0633-.2022.0633-.2022a1.3555,1.3555,0,0,0,.357.13c.2237.0514.2872.0348.3133-.0063m-.3037-.4528a.3315.3315,0,0,1,.1784.2123,1.2743,1.2743,0,0,1-.4146-.096.1918.1918,0,0,1,.2362-.1163"/><path class="b" d="M25.947,22.7331c-.3125-.0434-1.1-.1631-1.2924-.62a4.6521,4.6521,0,0,1,1.84-.8139,12.3641,12.3641,0,0,0,2.17-.8152.6063.6063,0,0,1,.1685-.0136c.0469-.1351.2811-.61.2958-.7088-.2608.0148-1.8681.1329-2.582.1712s-2.09.0291-2.5484.0241a8.09,8.09,0,0,1,1.902-.9336c.1236-.0437.238-.0832.3447-.1189a1.1062,1.1062,0,0,1,.15.403.77.77,0,0,0,.091-.4816c.5559-.1775.8423-.2362.9659-.27a2.11,2.11,0,0,0,.2369-.8071,2.1535,2.1535,0,0,0-.5746-.5016,1.301,1.301,0,0,0-1.0058-.3319c-.4691.1151-.5631.9769-.4538,1.16.0348.0577.1175.16.215.2862a10.4209,10.4209,0,0,0-1.0172.46,5.0513,5.0513,0,0,0-1.7188,1.1664l-.0658.032c-.0184.0368-.1634.64-.1845.7054.1464-.0051,1.2394-.003,2.0006-.0267S26.31,20.65,26.5709,20.65a7.1317,7.1317,0,0,0-1.688.6882,1.317,1.317,0,0,0-.4783,1.1362,2.7054,2.7054,0,0,1-1.2041-.9293c-.4786-.6471-.38-1.3126-.5711-2.186a5.8384,5.8384,0,0,0-1.2426-2.6649,3.9332,3.9332,0,0,0-.1407.7844s.4637,1.0252.6983,1.6795a7.7322,7.7322,0,0,1,.4254,1.4439,7.0518,7.0518,0,0,1-2.2908,1.8313c-.9041.4927-1.7006.5457-1.9828.1949a.5882.5882,0,0,1-.1144-.2413c.1227-.0574.2458-.1151.372-.1728a10.9621,10.9621,0,0,0,2.5952-1.559,1.6025,1.6025,0,0,0,.1459-1.5932,9.2264,9.2264,0,0,1-.5737-1.0251c-.02-.0772.2172.0314.3574.0387.0679-.0051.034-.0965-.1117-.2409-.1166-.1151-.5674-.4885-.74-.6341-.0432-.0371-.0754-.0221-.0841.017-.0336.1491-.1021.4684-.1287.626l.0184.0794a.2572.2572,0,0,1,.1342.1449,6.4426,6.4426,0,0,0,.3992.8547,5.9136,5.9136,0,0,1,.58,1.095,12.0955,12.0955,0,0,1-2.8852,1.6408,5.19,5.19,0,0,1,.3736-.84,1.0162,1.0162,0,0,0,.1312-.1911c.1291-.2358.1416-.5241.0634-.4631-.0671.0646-.1153.2986-.192.3144-.1571.0323-.3775-.1511-.3221-.4864a3.358,3.358,0,0,1,.2818-.75c.0968-.2419.1234-.4809.05-.3509a5.9033,5.9033,0,0,0-.57,1.2466c-.0946.3926.0059.661.1718.765a.2591.2591,0,0,0,.178.0441,4.9519,4.9519,0,0,0-.3561.797c-.52.2328-1.0264.4409-1.4454.5908-1.506.5391-2.5793.8568-3.33,1.0926l-.0294.0131c.0552-.1784.0478-.3308-.0114-.285-.067.065-.115.299-.1917.3144-.1571.0322-.3776-.1509-.3224-.4864a3.3615,3.3615,0,0,1,.2821-.75c.0964-.2417.1231-.4812.05-.3509a5.896,5.896,0,0,0-.57,1.2464c-.0949.3928.0057.6612.1713.7654.2065.13.3824-.0294.5174-.2754l.0473-.1011a1.2659,1.2659,0,0,0,.2441-.0372c.3441-.0774,1.2041-.2022,2.3868-.3564a6.7009,6.7009,0,0,0,2.0646-.622c-.0027.0647-.0033.1305-.0005.1984.0318.8024.5577,1.0289,1.2769.8788a7.1808,7.1808,0,0,0,2.241-1.2109,4.79,4.79,0,0,0,1.0424-.9864,2.5924,2.5924,0,0,0,.2164-.8975,3.1461,3.1461,0,0,0,.56,1.7522,3.631,3.631,0,0,0,2.95,1.3045c.0054-.1959-.073-.8075-.073-.8075m-.1089-4.9724c.2358-.2646.7389-.0916,1.1164.2439a7.4093,7.4093,0,0,0-.7461.23,2.5715,2.5715,0,0,1-.37-.4736"/><path class="b" d="M16.5789,14.133a8.7737,8.7737,0,0,0,.7867-.4013,4.496,4.496,0,0,0,.8443-.6155,1.0312,1.0312,0,0,0,.1525-.1708c.1056.0438.1783.0891.2237.107.0681.0263.1591.0642.2182-.13a.4744.4744,0,0,0-.1345-.4686,1.2038,1.2038,0,0,0-.3778-.3606c-.1065-.04-.1571.1979-.1409.1921h.0712l.0139.0066a.6593.6593,0,0,0-.2715.385c-.0117.0879.005.1527.2154.2068l.0845.0249a3.9312,3.9312,0,0,1-.7255.5752c-.3162.2168-.765.4876-.8927.5658s-.117.1023-.0675.0833m1.9-1.5271.0114-.104a1.0837,1.0837,0,0,1,.2467.3975c-.0679.0055-.1525-.0573-.3-.12a1.2869,1.2869,0,0,0,.0423-.173m-.4247,0a.2659.2659,0,0,1,.1766-.1676c.12-.0484.1736.0867.1841.2512l-.0357.0659-.1085-.0375c-.1148-.0336-.1924-.0527-.2165-.112"/><path class="b" d="M24.465,17.3061c.1735-.1147.6506-.4591.9212-.6848a4.0289,4.0289,0,0,0,.5594-.583c.0943.061.1821.115.2621.162a.5666.5666,0,0,1,.2163.2239c.0285-.0437.1613-.2832.1093-.4a3.654,3.654,0,0,0-.4148-.2676c.0984-.2209.2338-.6027.04-.7365-.1659-.1134-.4457.0744-.5752.3181-.1069.2018-.1207.373.0833.5132.0574.04.1124.0768.1663.1122a10.6717,10.6717,0,0,1-.8546.7849c-.3351.28-.6519.5553-.7071.6209l-.016.0255c-.0732-.2038-.0533-.33-.1076-.2619-.2347.3681.0594.6663.1663.9641-.1446.1313-.3662.0108-.44-.1041-.1582-.2378-.1054-.7208-.2906-.7956a2.3715,2.3715,0,0,0-.0789.2757,1.28,1.28,0,0,1,.1052.5493.3407.3407,0,0,1-.2928.2893c-.411.0105-.2083-.5977-.367-.9421-.0322.0845-.0552.1749-.0938.2531a1.3155,1.3155,0,0,1,.0493.2889,4.024,4.024,0,0,0,.023.4234c.034.1742.1308.29.2788.3008a.4775.4775,0,0,0,.493-.4274c.0528.2078.4588.4363.6585.1815.2645-.3369.0528-.6254-.0824-.9423l-.016-.0411c.0188.0067.09-.0243.2053-.1007m1.1991-1.8971c.1016-.1886.3157-.2046.38-.1057a.4333.4333,0,0,1-.0215.3938c-.1888-.1185-.3573-.2346-.3584-.2881"/><path class="b" d="M17.7729,16.1067c-.3611-.0255-.5555-.3564-.6666-.8343a3.7768,3.7768,0,0,1-.0129-1.27c.03-.1613-.14-.078-.2062.3136a3.316,3.316,0,0,0,.101,1.6718c.2325.6542.6289.8983.9762.8146s.653-.8983.7608-1.264.589-1.8579.8616-1.9382c.0382.183-.2119.6418-.2919,1.3317s.059,1.5946.9346,1.755a1.6008,1.6008,0,0,0,1.6851-.8022,3.0722,3.0722,0,0,0,.34-1.0171A1.8509,1.8509,0,0,0,23.3457,16.46a1.254,1.254,0,0,0,1.4243-.2759,2.4351,2.4351,0,0,0,.3828-1.2162,5.1948,5.1948,0,0,0-.4237-1.4119A2.6037,2.6037,0,0,1,24.6,13.065c-.0068-.0833.181.0964.2991.1317.08.016.052-.1573-.0453-.2762a6.6553,6.6553,0,0,0-.6594-.86,6.9942,6.9942,0,0,0-.2467.7091.4969.4969,0,0,1,.1869.35,6.3774,6.3774,0,0,0,.2744,1.1325,9.9767,9.9767,0,0,1,.3961,1.2161,1.4713,1.4713,0,0,1-1.348.1732,1.1751,1.1751,0,0,1-.7646-1.1489A12.234,12.234,0,0,0,22.517,12.84a1.7625,1.7625,0,0,0-.4253-.84c-.0447.1088-.2463.78-.2463.78a4.74,4.74,0,0,1,.2636,1.4022,1.51,1.51,0,0,1-.6809,1.4888,1.2319,1.2319,0,0,1-1.7578-.3628c-.2329-.59.2849-1.9186.2781-2.2683s-.07-.3981-.2156-.34a2.1089,2.1089,0,0,0-.7019.9433,11.5292,11.5292,0,0,0-.5178,1.5593c-.1457.4621-.3791.93-.74.9048"/><path class="b" d="M7.2876,14.06a1.6635,1.6635,0,0,0,.917-.4587c.0973-.09.15-.2244.08-.1734a1.4343,1.4343,0,0,1-1.24.3947c.0175-.077.1985-.2022.4625-.3785a1.5848,1.5848,0,0,0,.41-.35l.0292.0051c.1957.043.4216.1284.4906.06a.3777.3777,0,0,0,.0055-.4881,1.5323,1.5323,0,0,0-.5518-.4323c-.2082-.111-.2485.0662-.2752.1294-.0256.059-.0151.1092.0289.1105a.7842.7842,0,0,0-.1323.3063.2175.2175,0,0,0,.0234.1566.26.26,0,0,0,.119.0871l.09.0282a2.7373,2.7373,0,0,1-.4295.3134,1.0293,1.0293,0,0,0-.4341.4682c-.0626.1863-.0383.2538.4065.2216m.7856-1.3108.0171-.0948v-.0608c.1409.1025.3661.2966.3523.4129-.0892-.02-.2592-.0561-.4207-.0976a.9942.9942,0,0,0,.0513-.16m-.4177.03c-.1036-.0827-.0026-.1651.0892-.2182.1185-.0685.188-.0119.2487.1678a.7335.7335,0,0,1-.0861.15,1.2317,1.2317,0,0,1-.2518-.0991"/><path class="b" d="M8.6208,19.0785a.7307.7307,0,0,0-.1512.4931c.0259.0217.4251.1564.4876.1856l.0284-.1086c.19.1708.401,1.0229.4479,1.0253s.1149-.0964.1593-.3227c.041-.21.082-.5239.1247-.78.04-.234.1019-.3679.2426-.3946s.2452.1541.2816.2769a2.09,2.09,0,0,0,.12-.3827c-.0234-.0772-.2425-.3681-.4222-.2719s-.2926.5047-.3289.76a2.94,2.94,0,0,1-.1089.6215,2.2879,2.2879,0,0,0-.375-.8258c-.202-.2451-.4382-.335-.5057-.2765"/><path class="b" d="M6.9177,18.6429a4.3546,4.3546,0,0,0,.7218-.1971,2.7206,2.7206,0,0,0,.5706-.6112c.112-.1445.1122-.217.0837-.2553a3.0565,3.0565,0,0,0-1.2122-.0365,1.8558,1.8558,0,0,0-.32.4986c-.029.0744.0105.07.13.0434a3.9574,3.9574,0,0,1,.8936.031c-.0857.06-.6668.3539-.7816.4238s-.1433.1106-.0859.1033"/><path class="b" d="M41.343,20.7108a3.8862,3.8862,0,0,0-1.0356-2.1175c-.2783-.3521-.67-.81-1.0829-1.28-.0114-.16-.0228-.3063-.0331-.4319-.0541-.6461-.2375-1.9641-.3164-2.7433a4.5737,4.5737,0,0,1-.018-.5148c.0029-.0867.0653-.0752.1512.014s.2183.2188.2459.21c.0587-.02.0076-.217-.11-.45a10.334,10.334,0,0,0-.6407-1.215,2.1249,2.1249,0,0,0-.2634.65.7882.7882,0,0,1,.1586.4935c.011.3152.2012,2.177.31,3.35l.006.0654c-.6175-.6894-1.1991-1.3181-1.4384-1.5729-.0414-.0442-.087-.0945-.1361-.1483-.039-.3139-.0749-.6129-.1-.86a4.2351,4.2351,0,0,1-.0179-.5148c.0019-.0865.0648-.0748.1507.0143s.2183.2189.2459.21c.0587-.02.0077-.2165-.11-.45a10.5138,10.5138,0,0,0-.66-1.2367,2.4648,2.4648,0,0,0-.2726.6929.7887.7887,0,0,1,.1591.4939c.0042.1339.039.54.0855,1.0523a8.2727,8.2727,0,0,1-.8386-1.0993c-.01-.051.0764-.02.2366.0063s.3092.0736.2836-.0055a.533.533,0,0,0-.2257-.223c-.153-.0946-.5448-.34-.8362-.5128s-.4367-.3189-.497-.2773a3.4393,3.4393,0,0,0,.0138.6878.4628.4628,0,0,1,.2954.1766c.0872.1155.6455.8983,1.0871,1.4277.1271.1524.326.3886.559.6613.0456.4876.0933.9915.1328,1.4125.09.96.4117,3.4929.4148,4.316a2.007,2.007,0,0,1-1.2243.5407.9324.9324,0,0,1-.9762-.4974c-.0622-.1152-.12-.2311-.1775-.3361a.67.67,0,0,0-.7336-.3207l-.0447.012-.08.0383a1.8272,1.8272,0,0,0-.6045.5484,14.0644,14.0644,0,0,0-.8257,1.4178c-.2676.4586-.4729.7664-.9423.6928a1.0589,1.0589,0,0,1-.736-.6839,2.729,2.729,0,0,0,.9808-1.2365,5.628,5.628,0,0,0,.3808-2.3983c-.0256-.8427-.41-2.8255-.5112-3.5854s-.2467-1.3844-.23-1.5466c.0157-.1566.2651.2121.3929.24.0653-.0146.03-.25-.0938-.4485-.0842-.1351-.3506-.75-.5251-1.0462-.0819-.14-.1016-.2214-.14-.2381a1.79,1.79,0,0,0-.2929.67.64.64,0,0,1,.1626.4014c.0184.22.2173,1.835.3913,3.0245a36.0151,36.0151,0,0,1,.4578,3.7327,2.6148,2.6148,0,0,1-.0925.8331,2.9466,2.9466,0,0,1-1.0437,1.0189c-.11-.7195.01-1.3039-.0951-1.358-.1181.0127-.1369.348-.15.7617a4.8015,4.8015,0,0,0,.0377.74,27.0671,27.0671,0,0,1-2.584,1.4072c-.32.1677-.2044.2068.0662.1232a16.6823,16.6823,0,0,0,2.5517-.8916l.0855-.0474a2.5734,2.5734,0,0,0,.1492.4005c.2671.5551.6489.8847,1.0623.8525.3478-.0267.6-.3989.82-.8428a6.178,6.178,0,0,1,.9668-1.62,1.6114,1.6114,0,0,1,.43-.2774.6028.6028,0,0,1,.4834.0673.5137.5137,0,0,1,.1842.22,2.0291,2.0291,0,0,0,.42.6675,1.3468,1.3468,0,0,0,1.4844.08,1.3985,1.3985,0,0,0,.8123-.963,6.6643,6.6643,0,0,0,.1155-2.03c-.0393-.7186-.1541-1.453-.2194-2.2311-.021-.25-.062-.5983-.1091-.9757.4571.5276.9317,1.063,1.22,1.3558.0993.101.2041.2133.3116.3318.0859,1.1779.1686,2.6517.2122,3.27.0431.6162.0153,1.391.01,1.5257s.07.1116.1772-.1874a7.645,7.645,0,0,0,.2032-2.1518c-.0189-.4147-.06-1.1707-.105-1.8859.3548.4216.6916.8473.9107,1.1345a6.1241,6.1241,0,0,1,.8725,1.4952c.1249.3788.1388.491.1631.5585s.1319-.2089.1148-.6418"/><path class="b" d="M34.764,35.121a.2989.2989,0,0,0-.5436,0H33a1.0913,1.0913,0,0,1,.0381-.404l2.5194-.0015.07.1183a1.256,1.256,0,0,0,.2361.2872ZM36.4319,33.95H33.4043a.7083.7083,0,0,0,.3219-.6609.3751.3751,0,0,0-.3644-.2887H33.267c-.23.0224-.396.1879-.3718.37l.0092.07.0112.1075a1.09,1.09,0,0,1-.0376.4026H10.4989a1.9251,1.9251,0,0,0,1.5925.78l20.4213-.0126a.7087.7087,0,0,0-.3231.662.3984.3984,0,0,0,.4592.2888c.2294-.0224.3959-.1879.3719-.37l-.0092-.07h1.2a.2938.2938,0,0,0,.5614,0h1.2208v-.0028a1.5966,1.5966,0,0,0,.9215.2848.5468.5468,0,0,0,.5837-.5v-.1446a1,1,0,0,0-1.0671-.9152"/></svg>