<svg xmlns="http://www.w3.org/2000/svg" viewBox="0 0 48 48"><defs><style>.a{fill:#fff;}.b{fill:#0b4ea2;}.c{fill:#ee1c25;}</style></defs><title>fi_sk</title><circle class="a" cx="24" cy="24" r="24"/><path class="b" d="M48,24A24,24,0,0,1,0,24a23.5946,23.5946,0,0,1,1.38-8H46.62A23.5946,23.5946,0,0,1,48,24Z"/><path class="c" d="M46.62,32A23.99,23.99,0,0,1,1.38,32Z"/><path class="c" d="M28.1867,11.64s.3733,3.74.3733,11.22c-.0533,7.64-5.7667,11.5067-9.96,13.54-4.1933-2.0333-9.9067-5.9-9.96-13.54,0-7.48.3733-11.22.3733-11.22Z"/><path class="a" d="M17.7533,32V22.6467a14.3509,14.3509,0,0,0-5.0133.5666,15.4938,15.4938,0,0,0,0-2.8733,14.3472,14.3472,0,0,0,5.0133.5667v-2.6a11.8245,11.8245,0,0,0-3.9666.58,15.4966,15.4966,0,0,0,0-2.88,11.9651,11.9651,0,0,0,3.9666.5733,22.2312,22.2312,0,0,0-.5266-3.7133,15.4955,15.4955,0,0,0,2.7466,0,22.2312,22.2312,0,0,0-.5266,3.7133,11.9651,11.9651,0,0,0,3.9666-.5733,15.4966,15.4966,0,0,0,0,2.88,11.8245,11.8245,0,0,0-3.9666-.58v2.6A14.3472,14.3472,0,0,0,24.46,20.34a15.4938,15.4938,0,0,0,0,2.8733,14.3509,14.3509,0,0,0-5.0133-.5666V32Z"/><path class="a" d="M28.5448,11.604l-.032-.324H8.6872l-.032.324c-.004.0376-.3752,3.844-.3752,11.2584a13.3506,13.3506,0,0,0,2.3048,7.564A14.524,14.524,0,0,0,11.8,31.9736a21.1332,21.1332,0,0,0,6.6432,4.75L18.6,36.8l.1568-.076a21.1332,21.1332,0,0,0,6.6432-4.75,14.4189,14.4189,0,0,0,1.2144-1.5456A13.3523,13.3523,0,0,0,28.92,22.86C28.92,15.448,28.5488,11.6416,28.5448,11.604ZM26.2728,29.67A18.2651,18.2651,0,0,1,18.6,35.9992,18.2651,18.2651,0,0,1,10.9272,29.67,12.6039,12.6039,0,0,1,9,22.86c0-6.1528.256-9.8008.3432-10.86H27.8568c.0872,1.0592.3432,4.7072.3432,10.8576A12.6121,12.6121,0,0,1,26.2728,29.67Z"/><path class="b" d="M26.2728,29.67A18.2651,18.2651,0,0,1,18.6,35.9992,18.2651,18.2651,0,0,1,10.9272,29.67a3.03,3.03,0,0,1,2.4936-1.8768A2.7016,2.7016,0,0,1,15.5464,29.08c1.3344-3.13,3.7832-3.66,5.47-1.184a7.0015,7.0015,0,0,1,.6376,1.184C23.0512,27.1464,25.076,27.4312,26.2728,29.67Z"/></svg>