<svg xmlns="http://www.w3.org/2000/svg" viewBox="0 0 48 48"><defs><style>.a,.c{fill:#e70013;}.a{fill-rule:evenodd;}.b{fill:#fff;}</style></defs><title>fi_TN</title><path class="a" d="M24,0h0A24,24,0,1,0,48,24,24.0062,24.0062,0,0,0,24,0Z"/><circle class="b" cx="24" cy="24" r="12"/><path class="c" d="M26.4,31.2a7.1738,7.1738,0,0,0,4.8762-1.9026,9,9,0,1,1,0-10.5948A7.2,7.2,0,1,0,26.4,31.2Z"/><polygon class="c" points="28.463 24 30.768 27.174 27.038 25.962 24.732 29.136 24.732 25.213 21 24 24.732 22.787 24.732 18.864 27.038 22.038 30.768 20.826 28.463 24"/></svg>