<svg xmlns="http://www.w3.org/2000/svg" viewBox="0 0 48 48"><defs><style>.a{fill:#fefefe;}.a,.b{fill-rule:evenodd;}.b{fill:#0038a8;}.c,.f,.i,.k,.l,.o,.p,.q,.r{fill:#fcd116;}.c,.d,.e,.f,.g,.h,.i,.k,.l,.m,.n,.o,.p,.q,.r,.s,.t,.u,.v{stroke:#7b3f00;stroke-width:0.1px;}.c,.d,.f,.g,.l,.m,.p,.q,.s,.u{stroke-linecap:square;}.c,.d,.e{stroke-miterlimit:77;}.d,.g,.j,.m,.s,.u{fill:#7b3f00;}.e,.h,.n,.t,.v{fill:none;}.f,.g,.h{stroke-miterlimit:77;}.i{stroke-miterlimit:77;}.k{stroke-miterlimit:77;}.l,.m,.n{stroke-miterlimit:77;}.o{stroke-miterlimit:77;}.p,.r,.u,.v{stroke-miterlimit:75.5906;}.q,.s,.t{stroke-miterlimit:77;}</style></defs><title>fi_uy</title><path class="a" d="M24,48h0A24,24,0,1,0,0,24H0A23.9424,23.9424,0,0,0,24,48Z"/><path class="b" d="M26.7,10.7H44a22.4111,22.4111,0,0,0-4.9-5.3H26.7v5.3ZM46.6,16a23.9568,23.9568,0,0,1,1.2,5.3H26.7V16Zm1.3,10.7A22.7419,22.7419,0,0,1,46.7,32H1.4A23.9568,23.9568,0,0,1,.2,26.7ZM44,37.3a22.4111,22.4111,0,0,1-4.9,5.3H8.9A24.7113,24.7113,0,0,1,4,37.3Z"/><path class="c" d="M11.9165,11.0627,10.36,10.7548C11.069,6.3337,8.4054,6.802,9.6289,4.39,9.6017,6.624,11.147,5.7433,12.4941,8.9954"/><path class="d" d="M11.9162,11.0628l.1256-.6965-.0288.0072a9.2637,9.2637,0,0,0-1.8113-3.6577A4.62,4.62,0,0,1,9.5253,5.61a1.66,1.66,0,0,1-.0925-.7675C8.7514,6.76,11.02,6.6333,10.36,10.7551Z"/><path class="e" d="M12.0985,10.3523C11.1812,6.6047,8.9707,6.25,9.6289,4.39"/><path class="f" d="M10.7259,12.73l-1.3182.8827C6.7827,9.985,5.23,12.2,4.39,9.629c1.56,1.5988,1.8158-.2084,5.0679,1.1387"/><path class="g" d="M10.7258,12.73l-.4038-.5813-.0153.0254A9.2643,9.2643,0,0,0,6.44,10.8684a4.6206,4.6206,0,0,1-1.2606-.304,1.66,1.66,0,0,1-.6081-.4773c.8746,1.8383,2.3892.1441,4.8366,3.5258Z"/><path class="h" d="M10.3523,12.0986C7.0537,10.0973,5.24,11.41,4.39,9.629"/><path class="i" d="M13.3333,13.3334v-1.76l-9.68,1.76,9.68,1.76v-1.76h-9.68"/><path class="j" d="M13.3333,13.3334v0h-9.68l9.68,1.76"/><path class="k" d="M13.3333,13.3334l1.2445-1.2445-8.0893-5.6,5.6,8.0893,1.2445-1.2445L6.4885,6.4886"/><path class="j" d="M13.3333,13.3334l-1.2445,1.2445,1.2445-1.2445L6.4885,6.4886l5.6,8.0893"/><path class="f" d="M13.9371,10.7259l-.8828-1.3181c3.6274-2.625,1.4128-4.1773,3.9834-5.0176-1.5988,1.56.2021,1.8176-1.145,5.07"/><path class="g" d="M13.9368,10.7258l.5813-.4037-.0254-.0153A9.2633,9.2633,0,0,0,15.7982,6.44a4.62,4.62,0,0,1,.3041-1.2606A1.6584,1.6584,0,0,1,16.58,4.571c-1.8384.8746-.1441,2.3892-3.5258,4.8366Z"/><path class="h" d="M14.5681,10.3523c2.0013-3.2985.6888-5.1122,2.47-5.9621"/><path class="i" d="M13.3333,13.3334h1.76l-1.76-9.68-1.76,9.68h1.76v-9.68"/><path class="j" d="M13.3333,13.3334h0v-9.68l-1.76,9.68"/><path class="l" d="M15.604,11.9166l.3078-1.5563c4.4211.7087,3.9529-1.9548,6.3647-.7313-2.2338-.0272-1.2387,1.45-4.4907,2.7971"/><path class="m" d="M15.6039,11.9163l.6965.1255-.0072-.0288a9.2633,9.2633,0,0,0,3.6576-1.8112,4.6229,4.6229,0,0,1,1.1064-.6764,1.66,1.66,0,0,1,.7675-.0925c-1.9183-.6815-1.7913,1.5875-5.9131.9268Z"/><path class="n" d="M16.3144,12.0986c3.7475-.9173,4.1019-3.1279,5.9621-2.47"/><path class="o" d="M13.3333,13.3334l1.2445,1.2445,5.6-8.0893-8.0893,5.6,1.2445,1.2445,6.8448-6.8448"/><path class="j" d="M13.3333,13.3334l-1.2445-1.2445,1.2445,1.2445,6.8448-6.8448-8.0893,5.6"/><path class="p" d="M12.73,15.9408l.8828,1.3181C9.985,19.884,12.2,21.4363,9.6289,22.2765c1.5988-1.56-.2113-1.8009,1.1357-5.053"/><path class="q" d="M11.0626,14.75l-.3078,1.5562c-4.4211-.7087-3.9528,1.9548-6.3646.7313,2.2337.0273,1.1744-1.4426,4.4265-2.79"/><path class="r" d="M13.3333,13.3334l-1.2445-1.2445-5.6,8.0893,8.0893-5.6-1.2445-1.2445L6.4885,20.1782"/><path class="s" d="M11.0628,14.75l-.6966-.1255.0072.0288A9.2632,9.2632,0,0,0,6.7158,16.465a4.6293,4.6293,0,0,1-1.1064.6764,1.6586,1.6586,0,0,1-.7675.0924c1.9184.6815,1.7913-1.5875,5.9131-.9268Z"/><path class="t" d="M10.3523,14.5682c-3.7476.9172-4.102,3.1278-5.9621,2.47"/><path class="f" d="M15.9407,13.9371l1.3182-.8827c2.625,3.6273,4.1773,1.4128,5.0176,3.9833-1.56-1.5988-1.8532.19-5.1052-1.1568"/><path class="g" d="M15.9408,13.9369l.4038.5812.0153-.0254a9.2629,9.2629,0,0,0,3.8671,1.3056,4.6242,4.6242,0,0,1,1.2606.304,1.66,1.66,0,0,1,.6081.4773c-.8746-1.8383-2.3892-.1441-4.8366-3.5258Z"/><path class="h" d="M16.3144,14.5682c3.2985,2.0013,5.1122.6887,5.9621,2.47"/><path class="i" d="M13.3333,13.3334v1.76l9.68-1.76-9.68-1.76v1.76h9.68"/><path class="j" d="M13.3333,13.3334v0h9.68l-9.68-1.76"/><path class="c" d="M14.75,15.604l1.5563.3079c-.7088,4.4211,1.9548,3.9528.7313,6.3646.0272-2.2338-1.4435-1.1992-2.7906-4.4513"/><path class="d" d="M14.75,15.6039l-.1255.6965.0287-.0071a9.2632,9.2632,0,0,0,1.8113,3.6576,4.619,4.619,0,0,1,.6764,1.1064,1.66,1.66,0,0,1,.0925.7675c.6814-1.9184-1.5875-1.7914-.9269-5.9131Z"/><path class="e" d="M14.5681,16.3144c.9173,3.7476,3.1278,4.102,2.47,5.9621"/><path class="k" d="M13.3333,13.3334l-1.2445,1.2445,8.0893,5.6-5.6-8.0893-1.2445,1.2445,6.8448,6.8448"/><path class="j" d="M13.3333,13.3334l1.2445-1.2445-1.2445,1.2445,6.8448,6.8448-5.6-8.0893"/><path class="u" d="M12.73,15.9409l-.5813.4038.0255.0152a9.2637,9.2637,0,0,0-1.3056,3.8671,4.62,4.62,0,0,1-.3041,1.2606,1.6584,1.6584,0,0,1-.4773.6081c1.8384-.8746.1442-2.3892,3.5258-4.8365Z"/><path class="v" d="M12.0985,16.3144c-2.0013,3.2986-.6888,5.1122-2.47,5.9621"/><path class="r" d="M13.3333,13.3334h-1.76l1.76,9.68,1.76-9.68h-1.76v9.68"/><path class="j" d="M13.3333,13.3334h0v9.68l1.76-9.68"/><path class="j" d="M13.3333,13.3334l1.2445,1.2445-1.2445-1.2445L6.4885,20.1782l8.0893-5.6"/><circle class="r" cx="13.3333" cy="13.3333" r="3.2266"/><path class="j" d="M15.7093,12.0427c-.2053.2347-.3227-.176-1.056-.176s-.8507.44-.968.352.616-.616.8507-.6453a2.0719,2.0719,0,0,1,1.1733.4693m-.8507.264a.339.339,0,0,1-.176.5573c-.2053,0-.5866-.352-.4106-.5866"/><path class="j" d="M13.8906,12.5707c.0294-.352.3227-.4107.792-.4107s.6747.352.8507.44c-.2053,0-.3813-.2933-.8507-.2933s-.4693,0-.792.2933m.088.0587c.1174-.176.264.176.5867.176a1.07,1.07,0,0,0,.704-.2347c.2053-.1466-.2933.352-.616.352s-.7627-.176-.6747-.2933"/><path class="j" d="M11.6906,12.2774a.2927.2927,0,0,0,0,.5573C11.3973,12.6294,11.6319,12.3361,11.6906,12.2774Z"/><path class="j" d="M14.976,12.2774c.0587.0587.2933.352,0,.5573A.2927.2927,0,0,0,14.976,12.2774Z"/><path class="j" d="M12.864,13.5387c-.264.0587-.1761.44-.4108.4694a.4188.4188,0,0,0-.3226.2639,1.3286,1.3286,0,0,1,.704-.2053c.2347,0,.2934.1467.4987.1467s.264-.1467.4987-.1467a1.3286,1.3286,0,0,1,.704.2053.4188.4188,0,0,0-.3226-.2639c-.2347-.0294-.1467-.4107-.4107-.4694,0,.1174.0879.088.1172.264,0,.1467-.2639.1467-.3226,0,.0587.2347-.1173.2347-.264.2347s-.3226,0-.264-.2347c-.0586.1467-.3226.1467-.3226,0C12.776,13.6267,12.864,13.656,12.864,13.5387Z"/><path class="j" d="M11.9546,14.536c-.2347.176-.2933.2641-.3226.4694a2.1244,2.1244,0,0,1,.1583-.2461l-.0409-.0179c.0171.002.0324.0047.0488.007.0355-.0479.067-.0894.1564-.2124Z"/><path class="j" d="M11.7982,14.7484l-.0037.0051a.52.52,0,0,0,.1163.0126c-.0358-.0063-.0735-.0122-.1126-.0177Z"/><path class="j" d="M11.9108,14.7661a3.27,3.27,0,0,1,.4582.117,8.6689,8.6689,0,0,1,1.9286,0,3.2739,3.2739,0,0,1,.4582-.117c-.3233.0012-.7541-.23-.9531-.23-.2347,0-.2934.0587-.4694.0587s-.2347-.0587-.4693-.0587C12.6649,14.536,12.2341,14.7673,11.9108,14.7661Z"/><path class="j" d="M14.7558,14.7661a.5255.5255,0,0,0,.1163-.0126l-.0037-.0051c-.0391.0055-.0768.0114-.1126.0177Z"/><path class="j" d="M14.8684,14.7484l.0488-.007-.0409.0178a2.136,2.136,0,0,1,.1583.2462c-.0293-.2054-.0879-.2934-.3226-.4694.0894.123.1209.1645.1564.2124Z"/><path class="j" d="M14.8763,14.7593l-.0015-.0021a1.1689,1.1689,0,0,1-.5772.1259,2.6592,2.6592,0,0,1-1.9286,0,1.1689,1.1689,0,0,1-.5772-.1259l-.0015.0021c.9215.3966.8207.5394,1.543.5394s.6215-.1428,1.543-.5394Z"/><path class="j" d="M11.7918,14.7572l.0027-.0037a.3879.3879,0,0,1-.0451-.0121Z"/><path class="j" d="M14.8748,14.7572l.0424-.0158a.3877.3877,0,0,1-.0451.012l.0027.0037Z"/><path class="j" d="M10.9573,12.0427c.2053.2347.3227-.176,1.056-.176s.8507.44.968.352-.616-.616-.8507-.6453a2.0719,2.0719,0,0,0-1.1733.4693m.8507.264a.339.339,0,0,0,.176.5573c.2053,0,.5866-.352.4106-.5866"/><path class="j" d="M12.776,12.5707c-.0294-.352-.3227-.4107-.792-.4107s-.6747.352-.8507.44c.2053,0,.3813-.2933.8507-.2933s.4693,0,.792.2933m-.088.0587c-.1174-.176-.264.176-.5867.176a1.07,1.07,0,0,1-.704-.2347c-.2053-.1466.2933.352.616.352s.7627-.176.6747-.2933"/><path class="j" d="M13.3333,15.5627c-.1467,0-.528.088,0,.088s.1467-.088,0-.088"/></svg>