<?xml version="1.0" encoding="utf-8"?>
<!-- Generator: Adobe Illustrator 24.0.1, SVG Export Plug-In . SVG Version: 6.00 Build 0)  -->
<svg version="1.1"
	 id="svg1306" xmlns:cc="http://creativecommons.org/ns#" xmlns:dc="http://purl.org/dc/elements/1.1/" xmlns:inkscape="http://www.inkscape.org/namespaces/inkscape" xmlns:rdf="http://www.w3.org/1999/02/22-rdf-syntax-ns#" xmlns:sodipodi="http://sodipodi.sourceforge.net/DTD/sodipodi-0.dtd" xmlns:svg="http://www.w3.org/2000/svg"
	 xmlns="http://www.w3.org/2000/svg" xmlns:xlink="http://www.w3.org/1999/xlink" x="0px" y="0px" viewBox="0 0 48 48"
	 style="enable-background:new 0 0 48 48;" xml:space="preserve">
<style type="text/css">
	.st0{fill-rule:evenodd;clip-rule:evenodd;fill:#B22234;}
	.st1{fill-rule:evenodd;clip-rule:evenodd;fill:#FEFEFE;}
	.st2{fill-rule:evenodd;clip-rule:evenodd;fill:#3C3B6E;}
</style>
<g>
	<path class="st0" d="M36.8,44.3H11.2C14.9,46.6,19.3,48,24,48S33.1,46.6,36.8,44.3z"/>
	<path class="st1" d="M11.2,44.3h25.6c1.7-1,3.2-2.3,4.5-3.7H6.7C8,42,9.6,43.3,11.2,44.3z"/>
	<path class="st0" d="M6.7,40.6h34.6c1.1-1.1,2.1-2.4,2.9-3.7H3.8C4.6,38.3,5.6,39.5,6.7,40.6z"/>
	<path class="st1" d="M3.8,36.9h40.4c0.7-1.2,1.4-2.4,1.9-3.7H1.8C2.4,34.5,3,35.8,3.8,36.9z"/>
	<path class="st0" d="M1.8,33.2h44.3c0.5-1.2,0.9-2.4,1.2-3.7H0.6C0.9,30.8,1.3,32,1.8,33.2z"/>
	<path class="st1" d="M0.6,29.5h46.7c0.3-1.2,0.5-2.4,0.6-3.7H0.1C0.2,27.1,0.4,28.3,0.6,29.5z"/>
	<path class="st0" d="M0.1,25.8H48c0-0.6,0.1-1.2,0.1-1.8s0-1.2-0.1-1.8H0.1C0,22.8,0,23.4,0,24S0,25.2,0.1,25.8z"/>
	<path class="st1" d="M0.1,22.2H48c-0.1-1.3-0.3-2.5-0.6-3.7H0.6C0.4,19.7,0.2,20.9,0.1,22.2z"/>
	<path class="st0" d="M0.6,18.5h46.7c-0.3-1.3-0.7-2.5-1.2-3.7H1.8C1.3,16,0.9,17.2,0.6,18.5z"/>
	<path class="st1" d="M1.8,14.8h44.3c-0.5-1.3-1.2-2.5-1.9-3.7H3.8C3,12.2,2.4,13.5,1.8,14.8z"/>
	<path class="st0" d="M3.8,11.1h40.5c-0.8-1.3-1.8-2.6-2.9-3.7H6.7C5.6,8.5,4.6,9.8,3.8,11.1z"/>
	<path class="st1" d="M6.7,7.4h34.6C40,6,38.5,4.7,36.8,3.7H11.2C9.5,4.7,8,6,6.7,7.4z"/>
	<path class="st0" d="M11.2,3.7h25.6C33.1,1.4,28.7,0,24,0S14.9,1.4,11.2,3.7z"/>
	<path class="st2" d="M0.1,25.8h20.4V0.3C8.9,2,0,12,0,24C0,24.6,0,25.2,0.1,25.8z"/>
	<path class="st1" d="M1.9,14.7h0.8l-0.8,0.6l0.3,1l-0.7-0.5C1.6,15.4,1.7,15.1,1.9,14.7z"/>
	<path class="st1" d="M1.4,18.1l0.3,1h1l-0.8,0.6l0.3,1L1.4,20l-0.8,0.6l0.3-1l-0.4-0.3c0-0.1,0-0.2,0.1-0.3H1L1.4,18.1z"/>
	<path class="st1" d="M5.1,9.2l0.2,0.5L4.9,9.5C5,9.4,5,9.3,5.1,9.2z"/>
	<polygon class="st1" points="4.4,11.5 4.7,12.5 5.7,12.5 4.9,13.1 5.2,14 4.4,13.4 3.6,14 3.9,13.1 3,12.5 4.1,12.5 	"/>
	<polygon class="st1" points="4.4,15.8 4.7,16.8 5.7,16.8 4.9,17.4 5.2,18.3 4.4,17.7 3.6,18.3 3.9,17.4 3,16.8 4.1,16.8 	"/>
	<polygon class="st1" points="4.4,20.1 4.7,21.1 5.7,21.1 4.9,21.7 5.2,22.7 4.4,22.1 3.6,22.7 3.9,21.7 3,21.1 4.1,21.1 	"/>
	<path class="st1" d="M8,6.1h0.7L7.9,6.7l0.3,1L7.4,7.1L6.6,7.7l0.1-0.3C7.1,7,7.5,6.5,8,6.1z"/>
	<polygon class="st1" points="7.4,9.4 7.7,10.4 8.7,10.4 7.9,11 8.2,12 7.4,11.4 6.6,12 6.9,11 6.1,10.4 7.1,10.4 	"/>
	<polygon class="st1" points="7.4,13.8 7.7,14.7 8.7,14.7 7.9,15.3 8.2,16.3 7.4,15.7 6.6,16.3 6.9,15.3 6.1,14.7 7.1,14.7 	"/>
	<polygon class="st1" points="7.4,18.1 7.7,19 8.7,19 7.9,19.6 8.2,20.6 7.4,20 6.6,20.6 6.9,19.6 6.1,19 7.1,19 	"/>
	<path class="st1" d="M11,3.8h0.8L11,4.4l0.3,1l-0.8-0.6L9.6,5.4l0.3-0.8C10.2,4.3,10.6,4.1,11,3.8z"/>
	<polygon class="st1" points="10.4,7.2 10.8,8.1 11.8,8.1 11,8.7 11.3,9.7 10.4,9.1 9.6,9.7 9.9,8.7 9.1,8.1 10.1,8.1 	"/>
	<polygon class="st1" points="10.4,11.5 10.8,12.5 11.8,12.5 11,13.1 11.3,14 10.4,13.4 9.6,14 9.9,13.1 9.1,12.5 10.1,12.5 	"/>
	<polygon class="st1" points="10.4,15.8 10.8,16.8 11.8,16.8 11,17.4 11.3,18.3 10.4,17.7 9.6,18.3 9.9,17.4 9.1,16.8 10.1,16.8 	
		"/>
	<polygon class="st1" points="10.4,20.1 10.8,21.1 11.8,21.1 11,21.7 11.3,22.7 10.4,22.1 9.6,22.7 9.9,21.7 9.1,21.1 10.1,21.1 	
		"/>
	<polygon class="st1" points="13.4,5.1 13.8,6.1 14.8,6.1 14,6.7 14.3,7.7 13.4,7.1 12.6,7.7 12.9,6.7 12.1,6.1 13.1,6.1 	"/>
	<polygon class="st1" points="13.4,9.4 13.8,10.4 14.8,10.4 14,11 14.3,12 13.4,11.4 12.6,12 12.9,11 12.1,10.4 13.1,10.4 	"/>
	<polygon class="st1" points="13.4,13.8 13.8,14.7 14.8,14.7 14,15.3 14.3,16.3 13.4,15.7 12.6,16.3 12.9,15.3 12.1,14.7 13.1,14.7 
			"/>
	<polygon class="st1" points="13.4,18.1 13.8,19 14.8,19 14,19.6 14.3,20.6 13.4,20 12.6,20.6 12.9,19.6 12.1,19 13.1,19 	"/>
	<polygon class="st1" points="16.5,2.8 16.8,3.8 17.8,3.8 17,4.4 17.3,5.4 16.5,4.8 15.7,5.4 16,4.4 15.1,3.8 16.2,3.8 	"/>
	<polygon class="st1" points="16.5,7.2 16.8,8.1 17.8,8.1 17,8.7 17.3,9.7 16.5,9.1 15.7,9.7 16,8.7 15.1,8.1 16.2,8.1 	"/>
	<polygon class="st1" points="16.5,11.5 16.8,12.5 17.8,12.5 17,13.1 17.3,14 16.5,13.4 15.7,14 16,13.1 15.1,12.5 16.2,12.5 	"/>
	<polygon class="st1" points="16.5,15.8 16.8,16.8 17.8,16.8 17,17.4 17.3,18.3 16.5,17.7 15.7,18.3 16,17.4 15.1,16.8 16.2,16.8 	
		"/>
	<polygon class="st1" points="16.5,20.1 16.8,21.1 17.8,21.1 17,21.7 17.3,22.7 16.5,22.1 15.7,22.7 16,21.7 15.1,21.1 16.2,21.1 	
		"/>
</g>
</svg>
