<svg xmlns="http://www.w3.org/2000/svg" viewBox="0 0 48 48"><defs><style>.a{fill:#e03c31;}.b{fill:#001489;}.c{fill:#fff;}.d{fill:#ffb81c;}.e{fill:#007749;}</style></defs><title>fi_ZA</title><path class="a" d="M48,24H31L6.45,7.64A23.9931,23.9931,0,0,1,48,24Z"/><path class="b" d="M48,24A23.9931,23.9931,0,0,1,6.45,40.36L31,24Z"/><path class="c" d="M48,24a23.5946,23.5946,0,0,1-1.38,8H33.42L13.25,45.45a23.9874,23.9874,0,0,1,0-42.9L33.42,16h13.2A23.5946,23.5946,0,0,1,48,24Z"/><path d="M31,24,6.45,40.36a23.973,23.973,0,0,1,0-32.72Z"/><path class="d" d="M31,24,6.45,40.36a23.761,23.761,0,0,1-4.4-6.68L16.58,24,2.05,14.32a23.761,23.761,0,0,1,4.4-6.68Z"/><path class="e" d="M48,24a24.4948,24.4948,0,0,1-.48,4.8H32.45L10.21,43.63a24.005,24.005,0,0,1-6.67-7.09L22.35,24,3.54,11.46a24.005,24.005,0,0,1,6.67-7.09L32.45,19.2H47.52A24.4948,24.4948,0,0,1,48,24Z"/></svg>