<svg xmlns="http://www.w3.org/2000/svg" viewBox="0 0 48 48"><defs><style>.a{fill:#cc092f;}.a,.b,.c{fill-rule:evenodd;}.c{fill:#ffcb00;}</style></defs><title>fi_ao</title><path class="a" d="M24,0h0A24,24,0,1,0,48,24,24.0062,24.0062,0,0,0,24,0Z"/><path class="b" d="M48,24H0a24,24,0,0,0,48,0Z"/><path class="c" d="M19.2686,16.4638H22.2l.8889-2.763.9128,2.763h2.9312l-2.3546,1.754.9127,2.8108-2.4021-1.7059-2.3785,1.7059.9128-2.8108Z"/><path class="c" d="M29.9841,31.5765l-2.3062-1.8024a10.3244,10.3244,0,0,0-4.3487-18.1394l.36-1.682a20.054,20.054,0,0,1,2.0346.6333l.6008-1.0086a18.9562,18.9562,0,0,1,1.97,1.0086l-.4563,1.0814a8.8921,8.8921,0,0,1,1.7293,1.449l.9022-.7047a18.89,18.89,0,0,1,1.4658,1.6577l-.8169.8409a10.0236,10.0236,0,0,1,1.12,2.023l1.1462-.2688a17.7322,17.7322,0,0,1,.6656,2.1926l-1.0853.4266a10.2854,10.2854,0,0,1,.2867,2.282c-.0009.0478-.0045.1021-.0045.15l1.1333.1617a16.7521,16.7521,0,0,1-.2163,2.1866H32.9876a17.69,17.69,0,0,1-.6488,2.274l.9846.5771a17.1042,17.1042,0,0,1-1.0326,1.97L31.21,28.4291a13.3646,13.3646,0,0,1-1.37,1.7057l.6965.9128c-.1918.168-.36.3364-.5526.5288m-5.069-.2163,1.7418,1.05a3.99,3.99,0,0,1-.7779.4515l.2848,1.0933a18.5123,18.5123,0,0,1-2.138.6729l-.4324-1.081a10.3771,10.3771,0,0,1-2.1141.24l-.1446,1.1291a14.621,14.621,0,0,1-2.2342-.1681V33.6186a12.8363,12.8363,0,0,1-1.9459-.505l-.5528.9858a14.3383,14.3383,0,0,1-1.97-.9133L15.04,32.105a9.3922,9.3922,0,0,1-1.3936-.9376l1.0812-1.37a10.3019,10.3019,0,0,0,6.4629,2.2583,9.6923,9.6923,0,0,0,3.7244-.696"/><path class="c" d="M32.1754,34.1449l-11.4984-8.75-.1048.1493L32.041,34.31l-.6808.8518L20.18,27.99c-3.0271-1.8981-2.907-3.3875-2.2822-4.9973l.5286-1.2974c.2884,1.6819,2.0178,2.9556,3.82,4.3727l10.1532,7.8Zm2.8867,2.608a.1784.1784,0,0,1-.1784-.1784v-.0007a.1784.1784,0,0,1,.1782-.1785h0a.1789.1789,0,1,1,0,.3577h0m-.6872-.5047a.1789.1789,0,1,1,.1788-.1789.1792.1792,0,0,1-.1788.1789h0m-.7032-.56a.176.176,0,1,1,.1787-.1784.1789.1789,0,0,1-.1787.1784m2.3643.992-3.4452-2.6692-1.0011,1.29L34.5825,37.4c.24.168.264.9374,1.1525,1.0578a.7365.7365,0,0,0,.6007-.2168,1.0562,1.0562,0,0,0-.3-1.5608"/></svg>