<?xml version="1.0" encoding="utf-8"?>
<!-- Generator: Adobe Illustrator 24.0.1, SVG Export Plug-In . SVG Version: 6.00 Build 0)  -->
<svg version="1.1"
	 id="svg1306" xmlns:cc="http://creativecommons.org/ns#" xmlns:dc="http://purl.org/dc/elements/1.1/" xmlns:inkscape="http://www.inkscape.org/namespaces/inkscape" xmlns:rdf="http://www.w3.org/1999/02/22-rdf-syntax-ns#" xmlns:sodipodi="http://sodipodi.sourceforge.net/DTD/sodipodi-0.dtd" xmlns:svg="http://www.w3.org/2000/svg"
	 xmlns="http://www.w3.org/2000/svg" xmlns:xlink="http://www.w3.org/1999/xlink" x="0px" y="0px" viewBox="0 0 48 48"
	 style="enable-background:new 0 0 48 48;" xml:space="preserve">
<style type="text/css">
	.st0{fill:#012169;}
	.st1{fill:#F0F0F0;}
	.st2{fill:#E4002B;}
</style>
<g>
	<path class="st0" d="M48,24c0,13.3-10.7,24-24,24S0,37.3,0,24C0,24,24,0,24,0C37.3,0,48,10.7,48,24z"/>
	<g>
		<path class="st1" d="M24,0C24,0,24,0,24,0L24,0L24,0z"/>
		<path class="st1" d="M23.9,24L23.9,24C24,24,24,24,23.9,24C24,24,24,24,23.9,24z"/>
		<path class="st1" d="M24,12.5c0-4.2,0-7,0-12.5h0C10.7,0,0,10.7,0,24h12.5v-7.1l7.1,7.1h4.4c0,0,0,0,0.1-0.1c0-1.6,0-3.1,0-4.4
			l-7.1-7.1L24,12.5L24,12.5z"/>
	</g>
	<g>
		<path class="st2" d="M12.1,3.1c-3.8,2.1-6.9,5.3-9,9V24h6.3V9.4v0H24c0-2,0-3.9,0-6.3C24,3.1,12.1,3.1,12.1,3.1z"/>
		<path class="st2" d="M24,21l-8.5-8.5h-3c0,0,0,0,0,0L24,24h0C24,24,24,22,24,21z"/>
	</g>
	<g>
		<polygon class="st1" points="14.5,28.2 15.8,30.9 18.8,30.2 17.4,33 19.8,34.9 16.8,35.6 16.9,38.6 14.5,36.7 12.1,38.6 
			12.1,35.6 9.1,34.9 11.5,33 10.2,30.2 13.2,30.9 		"/>
		<polygon class="st1" points="35.9,33.4 36.6,34.8 38.1,34.4 37.4,35.8 38.6,36.7 37.1,37.1 37.1,38.6 35.9,37.7 34.7,38.6 
			34.7,37.1 33.3,36.7 34.5,35.8 33.8,34.4 35.3,34.8 		"/>
		<polygon class="st1" points="29.8,18.8 30.5,20.2 32,19.8 31.3,21.2 32.5,22.1 31,22.5 31,24 29.8,23 28.6,24 28.6,22.5 
			27.1,22.1 28.3,21.2 27.7,19.8 29.1,20.2 		"/>
		<polygon class="st1" points="35.9,10.4 36.6,11.8 38.1,11.5 37.4,12.8 38.6,13.8 37.1,14.1 37.1,15.7 35.9,14.7 34.7,15.7 
			34.7,14.1 33.3,13.8 34.5,12.8 33.8,11.5 35.3,11.8 		"/>
		<polygon class="st1" points="41.3,16.7 41.9,18.1 43.4,17.7 42.8,19.1 44,20.1 42.5,20.4 42.5,21.9 41.3,21 40.1,21.9 40.1,20.4 
			38.6,20.1 39.8,19.1 39.1,17.7 40.6,18.1 		"/>
		<polygon class="st1" points="37.5,24 38,25.6 39.7,25.6 38.3,26.6 38.8,28.2 37.5,27.2 36.1,28.2 36.6,26.6 35.3,25.6 36.9,25.6 
					"/>
	</g>
</g>
</svg>
