<?xml version="1.0" encoding="utf-8"?>
<!-- Generator: Adobe Illustrator 24.0.1, SVG Export Plug-In . SVG Version: 6.00 Build 0)  -->
<svg version="1.1"
	 id="svg1306" xmlns:cc="http://creativecommons.org/ns#" xmlns:dc="http://purl.org/dc/elements/1.1/" xmlns:inkscape="http://www.inkscape.org/namespaces/inkscape" xmlns:rdf="http://www.w3.org/1999/02/22-rdf-syntax-ns#" xmlns:sodipodi="http://sodipodi.sourceforge.net/DTD/sodipodi-0.dtd" xmlns:svg="http://www.w3.org/2000/svg"
	 xmlns="http://www.w3.org/2000/svg" xmlns:xlink="http://www.w3.org/1999/xlink" x="0px" y="0px" viewBox="0 0 48 48"
	 style="enable-background:new 0 0 48 48;" xml:space="preserve">
<style type="text/css">
	.st0{fill-rule:evenodd;clip-rule:evenodd;fill:#EE1C25;}
	.st1{fill-rule:evenodd;clip-rule:evenodd;fill:#FFFF00;}
</style>
<g>
	<ellipse class="st0" cx="24" cy="24" rx="24" ry="24"/>
	<polygon class="st1" points="7.9,17.4 9.5,12.6 5.4,9.6 10.4,9.6 12,4.8 13.6,9.6 18.6,9.6 14.5,12.6 16.1,17.4 12,14.4 	"/>
	<polygon class="st1" points="21.9,20 23.6,20.7 24.8,19.2 24.7,21.1 26.4,21.8 24.6,22.2 24.5,24 23.5,22.5 21.7,22.9 22.9,21.5 	
		"/>
	<polygon class="st1" points="31.1,10.8 29.3,10.4 28.5,12.1 28.2,10.2 26.4,9.9 28.1,9.1 27.8,7.3 29.1,8.6 30.7,7.8 29.9,9.4 	"/>
	<polygon class="st1" points="27.3,19 27.9,17.2 26.4,16.1 28.2,16.1 28.8,14.4 29.4,16.1 31.2,16.1 29.7,17.2 30.3,19 28.8,17.9 	
		"/>
	<polygon class="st1" points="22,3 23.7,3.8 25,2.5 24.7,4.3 26.4,5.1 24.6,5.4 24.4,7.3 23.5,5.7 21.7,6 22.9,4.6 	"/>
</g>
</svg>
