<svg xmlns="http://www.w3.org/2000/svg" viewBox="0 0 48 48"><defs><style>.a{fill:#fff;}.b{fill:#063;}.b,.c{fill-rule:evenodd;}.c{fill:#d21034;}</style></defs><title>fi_dz</title><circle class="a" cx="24" cy="24" r="24"/><path class="b" d="M24,0V48A24,24,0,0,1,24,0Z"/><path class="c" d="M32.9,31.5A9.6047,9.6047,0,1,1,34.4,18,13.2233,13.2233,0,0,0,30,13.6,12.0067,12.0067,0,1,0,34.4,30c-.4.5-1,1-1.5,1.5Z"/><polygon class="c" points="28.1 26.2 30.7 29.7 30.7 25.3 34.9 24 30.7 22.6 30.7 18.3 28.1 21.8 24 20.5 26.6 24 24 27.5 28.1 26.2"/></svg>