<svg xmlns="http://www.w3.org/2000/svg" viewBox="0 0 48 48"><defs><style>.a{fill:#c60b1e;}.b{fill:#ffc400;fill-rule:evenodd;}.c,.h{fill:#ad1519;}.c,.d,.f,.g,.h,.i,.j,.k,.l,.m,.n,.r,.s,.t{stroke:#000;}.c,.g{stroke-linejoin:round;}.c,.d,.f,.g,.h,.i,.j,.k,.l,.m,.n,.o,.r,.s,.t{stroke-width:0.06px;}.d,.e,.g,.o{fill:#c8b100;}.f,.m{fill:none;}.i,.p{fill:#058e6e;}.j{fill:#fff;}.k{fill:#005bbf;}.l{fill:#ccc;}.m{stroke-linecap:round;}.n{fill:#ffd691;}.o{stroke:#c8b100;}.q{fill:#0039f0;}.r{fill:#db4446;}.s{fill:#ed72aa;}</style></defs><title>fi_ES</title><circle class="a" cx="24" cy="24" r="24"/><path class="b" d="M48,24a23.7268,23.7268,0,0,1-3.23,12H3.23a23.906,23.906,0,0,1,0-24H44.77A23.7268,23.7268,0,0,1,48,24Z"/><path class="c" d="M7.127,21.335a.1914.1914,0,0,1-.0758-.0153,1.1594,1.1594,0,0,1-.1085-.0922l-.0653-.047-.0595-.0816a.278.278,0,0,1-.0384-.2007.25.25,0,0,1,.1363-.144,1.3205,1.3205,0,0,1,.1517-.0566.8907.8907,0,0,1,.1085-.04c.0269-.0058.1248-.0307.1248-.0307a.4792.4792,0,0,1,.0538-.026.5646.5646,0,0,1,.0873-.0153A.6455.6455,0,0,1,7.55,20.56c.05-.0019.1306.01.1574.01s.1191.0048.1575.0048.1728-.0105.2112-.0105a.8171.8171,0,0,1,.1085,0,.68.68,0,0,1,.1411.0412c.0221.0106.1517.0567.2006.072a2.0681,2.0681,0,0,1,.2227.0615.3138.3138,0,0,1,.1143.1056.3562.3562,0,0,1,.0432.1008.184.184,0,0,1,0,.1065.6172.6172,0,0,1-.049.0778l-.0595.0979-.0758.0615s-.0548.0518-.098.046a6.3586,6.3586,0,0,0-.7651-.0825,5.295,5.295,0,0,0-.7334.0825Z"/><ellipse class="d" cx="7.8634" cy="20.7053" rx="0.1325" ry="0.24"/><ellipse class="d" cx="7.8653" cy="20.7053" rx="0.0614" ry="0.2208"/><ellipse class="e" cx="7.8653" cy="20.4518" rx="0.0893" ry="0.0835"/><path class="d" d="M7.9882,20.423v.0557H7.7453V20.423h.09v-.1267H7.776v-.0547h.0595v-.0547h.0576v.0547h.06v.0547h-.06v.1267h.0951"/><path class="f" d="M7.89,20.3712a.083.083,0,0,1,.062.1029.09.09,0,0,1-.11.058.083.083,0,0,1-.062-.1029.0868.0868,0,0,1,.062-.058"/><path class="d" d="M7.8653,21.32H7.4035l-.0105-.1133-.0221-.1181-.0221-.1469c-.1277-.168-.2448-.2784-.2842-.2544a.11.11,0,0,1,.0452-.0681c.1132-.0672.3465.0941.5222.359.0154.024.0307.048.0442.072h.3811c.0134-.024.0288-.048.0441-.072.1748-.2649.409-.4262.5213-.359a.1057.1057,0,0,1,.0451.0681c-.0393-.023-.1555.0864-.2841.2544l-.0221.1469-.0221.1181-.01.1133Z"/><path class="f" d="M7.0848,20.6822c.0874-.0508.29.1095.4541.3591m1.1088-.3591c-.0874-.0508-.289.1095-.4541.3591"/><path class="d" d="M7.1837,21.528a.4486.4486,0,0,0-.0557-.1037,3.0585,3.0585,0,0,1,1.4746,0s-.0212.0365-.05.0874a.6517.6517,0,0,0-.0364.0777,2.3011,2.3011,0,0,0-.6528-.0787,2.2519,2.2519,0,0,0-.6586.0826.52.52,0,0,0-.0221-.0653h.001"/><path class="d" d="M7.8643,21.7661a3.03,3.03,0,0,0,.5856-.0605c.0634-.0192.1008-.047.0941-.0806a.0578.0578,0,0,0-.0355-.0365,2.3851,2.3851,0,0,0-.6442-.0768,2.3924,2.3924,0,0,0-.6451.0768.0578.0578,0,0,0-.0355.0365c-.0067.0336.0307.0614.0941.0806A3.0409,3.0409,0,0,0,7.8643,21.7661Z"/><path class="d" d="M8.6141,21.32l-.0567-.0509a.2061.2061,0,0,1-.1228.023c-.0672-.01-.0893-.0931-.0893-.0931a.2464.2464,0,0,1-.1383.0595.1616.1616,0,0,1-.1027-.0595.2353.2353,0,0,1-.1277.0442.2173.2173,0,0,1-.1161-.08s-.0605.0768-.12.0826a.1509.1509,0,0,1-.1085-.0519.1394.1394,0,0,1-.1027.0691.1806.1806,0,0,1-.1411-.06.2386.2386,0,0,1-.0951.0883.1684.1684,0,0,1-.119-.0259s-.0115.0259-.0192.0413a.0422.0422,0,0,1-.03.0182l.0173.0452a2.6908,2.6908,0,0,1,.7229-.0874,2.7162,2.7162,0,0,1,.7305.0883L8.615,21.32Z"/><path class="d" d="M7.8662,21.071l.0269.0048a.0915.0915,0,0,0-.0057.0365.1042.1042,0,0,0,.1075.1008.1079.1079,0,0,0,.1017-.07l.0144-.0364.0048.0393A.1073.1073,0,0,0,8.328,21.13l-.001-.0115.0336-.0336.0183.0422a.0968.0968,0,0,0-.01.0442.099.099,0,0,0,.1017.0969.1024.1024,0,0,0,.0845-.0432l.0221-.0278v.0346c0,.0326.0134.0633.047.0681a.14.14,0,0,0,.0874-.0365.5408.5408,0,0,0,.0768-.072l.0029.04a.3768.3768,0,0,1-.0931.1056.1458.1458,0,0,1-.0912.024.0881.0881,0,0,1-.0644-.0586A.1527.1527,0,0,1,8.33,21.241a.15.15,0,0,1-.1113.048.1574.1574,0,0,1-.121-.0557.1507.1507,0,0,1-.1046.0413.1558.1558,0,0,1-.1277-.0663.1577.1577,0,0,1-.1287.0663.1507.1507,0,0,1-.1046-.0413.1569.1569,0,0,1-.12.0557A.15.15,0,0,1,7.4,21.241a.1476.1476,0,0,1-.1363.0825.1457.1457,0,0,1-.0759-.0211.0877.0877,0,0,1-.0653.0586.1444.1444,0,0,1-.09-.024.4054.4054,0,0,1-.0979-.1056l.0067-.04a.5862.5862,0,0,0,.0778.072.1385.1385,0,0,0,.0873.0365.0615.0615,0,0,0,.0471-.0681v-.0346l.0211.0278a.1024.1024,0,0,0,.0845.0432.099.099,0,0,0,.1017-.0969.0855.0855,0,0,0-.01-.0442l.0183-.0422.0336.0336-.001.0115a.1078.1078,0,0,0,.2131.0163l.0039-.0393c.0048,0,.0134.0374.0153.0364a.1062.1062,0,0,0,.1018.07.104.104,0,0,0,.1065-.1008.0914.0914,0,0,0-.0048-.0365l.0279-.0048Z"/><path class="g" d="M7.8643,21.3341a2.7762,2.7762,0,0,0-.7363.09.0283.0283,0,0,1-.0317-.0163.0259.0259,0,0,1,.0173-.0307,2.6828,2.6828,0,0,1,.7507-.0941,2.69,2.69,0,0,1,.7517.0941.0259.0259,0,0,1,.0173.0307.0283.0283,0,0,1-.0317.0163A2.7837,2.7837,0,0,0,7.8643,21.3341Z"/><path class="d" d="M6.8813,21.216c-.001.001-.0365-.0461-.0624-.07a.23.23,0,0,0-.0653-.0317c0-.0076.0269-.0268.0557-.0268a.0539.0539,0,0,1,.0432.0192l.0038-.0192a.0506.0506,0,0,1,.0336.0307.1537.1537,0,0,1,.0048.0691.083.083,0,0,1-.0134.0288Z"/><path class="d" d="M7.0627,21.1411l-.0105.0634-.1344.0144-.02-.0115.0038-.0221.1018-.0835.06.0393"/><path class="d" d="M6.8832,21.192a.0391.0391,0,0,1,.0509.0058c.0173.0144.023.0364.0115.048a.0371.0371,0,0,1-.0509-.0058C6.8774,21.2256,6.8717,21.2035,6.8832,21.192Z"/><path class="d" d="M7.13,21.2045a.0318.0318,0,0,1,.0125-.04.0353.0353,0,0,1,.0355.0259c.0058.0182,0,.0365-.0134.04S7.1366,21.2227,7.13,21.2045Z"/><path class="d" d="M7.1923,21.1238l.049.0461.1171-.0633.0086-.02L7.3507,21.07l-.1344-.0115-.024.0652"/><path class="d" d="M7.3277,20.905l-.0643.0614.0825.1094.0221.0087.0163-.0173.0288-.1315-.0854-.0307"/><path class="d" d="M7.5466,21.0528l-.025.06-.1344-.0125L7.37,21.0854l.01-.0211.1171-.0614.05.05"/><circle class="d" cx="7.369" cy="21.0864" r="0.047"/><path class="d" d="M7.5955,21.1152a.0305.0305,0,0,1,.02-.0374c.0134-.002.0269.0124.0288.0316s-.0067.0356-.02.0365S7.5974,21.1334,7.5955,21.1152Z"/><path class="d" d="M7.6829,21.047l.0384.0548.1286-.04.0135-.0172L7.849,21.025l-.1277-.0375-.0384.0595"/><path class="d" d="M7.8634,20.8464l-.0826.05.0614.1325.0212.0134.0211-.0134.0614-.1325-.0825-.05"/><path class="d" d="M8.0448,21.047l-.0374.0548-.1287-.04-.0134-.0172.0134-.0192.1287-.0375.0374.0595"/><circle class="d" cx="7.8643" cy="21.0442" r="0.047"/><path class="d" d="M8.136,21.1152a.0319.0319,0,0,0-.0211-.0374c-.0135-.002-.0269.0124-.0288.0316s.0067.0356.02.0365S8.1331,21.1334,8.136,21.1152Z"/><path class="d" d="M8.183,21.0528l.025.06.1344-.0125.0173-.0154-.01-.0211-.1171-.0614-.05.05"/><path class="d" d="M8.4019,20.905l.0643.0614-.0825.1094-.0221.0087-.0163-.0173-.0288-.1315.0854-.0307"/><path class="d" d="M8.5373,21.1238l-.049.0461-.1171-.0633-.01-.02L8.38,21.07l.1344-.0115.0231.0652"/><circle class="d" cx="8.3616" cy="21.0864" r="0.047"/><path class="d" d="M8.6006,21.2045a.0318.0318,0,0,0-.0124-.04.0354.0354,0,0,0-.0356.0259c-.0057.0182,0,.0365.0135.04S8.5939,21.2227,8.6006,21.2045Z"/><path class="d" d="M8.83,21.216c.0009.001.0365-.0461.0633-.07a.2178.2178,0,0,1,.0644-.0317c0-.0076-.0269-.0268-.0557-.0268a.0539.0539,0,0,0-.0432.0192l-.0039-.0192a.0532.0532,0,0,0-.0345.0307.1555.1555,0,0,0-.0029.0691.0731.0731,0,0,0,.0125.0288Z"/><path class="d" d="M8.6486,21.1411l.0106.0634.1344.0144.02-.0115-.0048-.0221-.1008-.0835-.06.0393"/><path class="d" d="M8.831,21.192c-.0105-.0115-.0336-.0086-.0508.0058s-.0231.0364-.0116.048a.0383.0383,0,0,0,.0519-.0058C8.8378,21.2256,8.8426,21.2035,8.831,21.192Z"/><path class="h" d="M7.1328,21.5328l.03-.048.0624.0125-.0365.0537-.0557-.0182"/><path class="i" d="M7.4016,21.4858l-.0662.0105a.0324.0324,0,0,1-.0365-.0249.0307.0307,0,0,1,.0259-.0336l.0672-.01.0682-.0106a.0316.0316,0,0,1,.0355.024.03.03,0,0,1-.0259.0336l-.0682.0106"/><circle class="j" cx="7.6262" cy="21.4368" r="0.0422"/><path class="h" d="M7.8672,21.4541H7.775a.031.031,0,0,1-.0316-.03.03.03,0,0,1,.0307-.03h.1881a.03.03,0,0,1,.0317.03.031.031,0,0,1-.0317.03h-.095"/><circle class="j" cx="8.1034" cy="21.4368" r="0.0422"/><path class="i" d="M8.328,21.4858l.0662.0105a.0324.0324,0,0,0,.0365-.0249.03.03,0,0,0-.0259-.0336l-.0672-.01-.0682-.0106a.031.031,0,0,0-.0355.024.0289.0289,0,0,0,.0259.0336l.0682.0106"/><path class="h" d="M8.591,21.5357l-.024-.0509-.0643.0058.0307.0566.0576-.0115"/><path class="c" d="M7.8634,21.7114a2.5332,2.5332,0,0,1-.6048-.0624,2.7678,2.7678,0,0,1,1.2124,0A2.5582,2.5582,0,0,1,7.8634,21.7114Z"/><path class="f" d="M7.9728,21.7037v-.1114m-.0557.1152.001-.1181m-.0413.12v-.1209"/><path class="f" d="M7.8422,21.71v-.1219"/><path class="f" d="M7.8086,21.71v-.1219"/><path class="f" d="M7.7779,21.71v-.1219"/><path class="f" d="M7.7462,21.71v-.1219"/><path class="f" d="M7.7194,21.71v-.1219"/><path class="f" d="M7.6666,21.7037l-.001-.11m.0259.1123v-.1162"/><path class="f" d="M7.6176,21.6989v-.1018m.025.1047-.001-.1085"/><path class="f" d="M7.5523,21.6931v-.0893m.0221.09V21.6m.0221.0979V21.6"/><path class="f" d="M7.53,21.6922v-.0864"/><path class="f" d="M7.5091,21.6883v-.0816"/><path class="f" d="M7.4861,21.6854v-.0748"/><path class="f" d="M7.439,21.6787l-.0009-.0595m.0249.0634v-.0672"/><path class="f" d="M7.415,21.6739v-.0528"/><path class="f" d="M7.393,21.67v-.0442"/><path class="f" d="M7.369,21.6643V21.63"/><path class="f" d="M7.345,21.6614v-.0259"/><path class="f" d="M7.319,21.6557v-.0125"/><path class="k" d="M9.3629,31.7453a.8182.8182,0,0,1-.3773-.0835.8329.8329,0,0,0-.3706-.0788.8554.8554,0,0,0-.3753.08.829.829,0,0,1-.3763.0826.8144.8144,0,0,1-.3773-.0864.842.842,0,0,0-.3639-.0759.815.815,0,0,0-.3705.0778.8293.8293,0,0,1-.3792.0845v.2313a.8424.8424,0,0,0,.3792-.0844.8133.8133,0,0,1,.3705-.0788.8465.8465,0,0,1,.3639.0768.8829.8829,0,0,0,.7536.0039.9073.9073,0,0,1,.7459-.001.8087.8087,0,0,0,.3754.0835l.0019-.2313Z"/><path class="l" d="M9.3629,31.9766a.817.817,0,0,1-.3773-.0835.9073.9073,0,0,0-.7459.001.8829.8829,0,0,1-.7536-.0039.8432.8432,0,0,0-.3639-.0768.8133.8133,0,0,0-.3705.0788.8424.8424,0,0,1-.3792.0844v.2314a.841.841,0,0,0,.3792-.0845.8146.8146,0,0,1,.3705-.0787.8465.8465,0,0,1,.3639.0768.8144.8144,0,0,0,.3773.0864.8409.8409,0,0,0,.3763-.0826.8413.8413,0,0,1,.3753-.0806.82.82,0,0,1,.3706.0806.8216.8216,0,0,0,.3754.0826l.0019-.2314"/><path class="k" d="M9.3629,32.208a.83.83,0,0,1-.3773-.0826.82.82,0,0,0-.3706-.0806.8413.8413,0,0,0-.3753.0806.8409.8409,0,0,1-.3763.0826.8144.8144,0,0,1-.3773-.0864.8432.8432,0,0,0-.3639-.0768.8146.8146,0,0,0-.3705.0787.841.841,0,0,1-.3792.0845v.23a.8281.8281,0,0,0,.3792-.0845.8288.8288,0,0,1,.3705-.0768.8453.8453,0,0,1,.3639.0759.8147.8147,0,0,0,.3773.0854.8293.8293,0,0,0,.3763-.0816.9177.9177,0,0,1,.7459-.001.798.798,0,0,0,.3754.0826l.0019-.23"/><path class="l" d="M9.361,32.6707a.81.81,0,0,1-.3754-.0835.9177.9177,0,0,0-.7459.001.8423.8423,0,0,1-.3763.0825.8257.8257,0,0,1-.3773-.0864.8292.8292,0,0,0-.3639-.0758.815.815,0,0,0-.3705.0777.841.841,0,0,1-.3792.0845v-.23a.8276.8276,0,0,0,.3792-.0864.8288.8288,0,0,1,.3705-.0768.8453.8453,0,0,1,.3639.0759.8147.8147,0,0,0,.3773.0854.8293.8293,0,0,0,.3763-.0816.9177.9177,0,0,1,.7459-.001.8061.8061,0,0,0,.3773.0826l-.0019.2323"/><path class="k" d="M9.361,32.9021a.8216.8216,0,0,1-.3754-.0826.82.82,0,0,0-.3706-.0806A.8413.8413,0,0,0,8.24,32.82a.8423.8423,0,0,1-.3763.0826.8257.8257,0,0,1-.3773-.0864.8289.8289,0,0,0-.3639-.0768.8146.8146,0,0,0-.3705.0787.841.841,0,0,1-.3792.0845v-.2295a.8405.8405,0,0,0,.3792-.0864.815.815,0,0,1,.3705-.0777.8468.8468,0,0,1,.3639.0758.8257.8257,0,0,0,.3773.0864.8423.8423,0,0,0,.3763-.0825.9177.9177,0,0,1,.7459-.001.8155.8155,0,0,0,.3773.0835l-.0019.2314Z"/><path class="g" d="M7.0243,30.7949a.2522.2522,0,0,1,.0125.0595.2618.2618,0,0,1-.27.2525H8.9693a.2612.2612,0,0,1-.27-.2525.2539.2539,0,0,1,.0087-.0595.1221.1221,0,0,1-.0423.0057H7.0637A.136.136,0,0,1,7.0243,30.7949Z"/><path class="d" d="M7.0637,30.65H8.6659a.0779.0779,0,1,1,0,.1507H7.0637a.0779.0779,0,1,1,0-.1507Z"/><path class="d" d="M6.77,31.6666H8.9654v-.56H6.77Z"/><path class="l" d="M7.0848,30.5587h1.56V22.9142h-1.56Z"/><path class="f" d="M8.1965,22.9248V30.553m.1757-7.6282V30.553"/><path class="d" d="M6.8,22.3075H8.94v-.5606H6.8v.5606Z"/><path class="g" d="M7.0243,22.681a.0871.0871,0,0,1,.0394-.0068H8.6659a.13.13,0,0,1,.0442.0077.1345.1345,0,0,1-.0951-.1267.1394.1394,0,0,1,.0989-.1277.1826.1826,0,0,1-.047.0077H7.0637a.1351.1351,0,0,1-.0451-.0058l.0086.002a.1259.1259,0,0,1,.09.1238.1339.1339,0,0,1-.0931.1258Z"/><path class="d" d="M7.0637,22.6742H8.6659a.078.078,0,1,1,0,.1508H7.0637a.078.078,0,1,1,0-.1508Z"/><path class="d" d="M7.0637,22.3075H8.6669c.0547,0,.0989.0288.0989.0634s-.0442.0643-.0989.0643H7.0637c-.0538,0-.0979-.0288-.0979-.0643S7.01,22.3075,7.0637,22.3075Z"/><path class="h" d="M6.5981,28.6675c-.217.1248-.3648.2535-.3408.3178.0115.0585.0806.1027.18.168.1555.1085.25.3014.1757.3907a.5506.5506,0,0,0-.0144-.8765Z"/><path class="c" d="M10.2384,25.7731a4.9779,4.9779,0,0,0-1.583-.2669,4.9531,4.9531,0,0,0-.7479.0672c-.9331.1565-1.6445.529-1.5878.8324l.0048.0249s-.3495-.7881-.3552-.8179c-.0624-.337.7257-.7507,1.7616-.9235a5.2839,5.2839,0,0,1,.9177-.073,4.9721,4.9721,0,0,1,1.586.2141l.0038.9427"/><path class="h" d="M7.0819,26.7331c-.4329-.0307-.7277-.1469-.7622-.3273-.0269-.144.12-.3044.3811-.4493a3.3232,3.3232,0,0,0,.384.0288l-.0029.7478"/><path class="h" d="M8.6477,26.1485a1.29,1.29,0,0,1,.5741.191l.01.0163c.048.0989-.1892.3092-.5866.5444l.0029-.7517"/><path class="c" d="M6.1123,28.2077c-.0413-.1229.3811-.3706.9773-.5895.2726-.0969.4973-.1987.7766-.3216.8285-.3667,1.44-.7872,1.3652-.94l-.0087-.0163a5.5156,5.5156,0,0,1,.1133.791c.0749.14-.4848.5549-1.248.92-.2438.1171-.7594.3072-1.0022.3926-.4359.1508-.8679.4359-.8285.5415l-.145-.7767v-.0009Z"/><path class="h" d="M22.1856,21.16a.34.34,0,0,1-.1229.0855c-.0509.01-.1161-.0471-.1161-.0471a.233.233,0,0,1-.1037.0615c-.0567.0134-.1354-.0634-.1354-.0634a.3212.3212,0,0,1-.1027.095.1438.1438,0,0,1-.1085-.023.1746.1746,0,0,1-.0624.0586.0666.0666,0,0,1-.0461-.0048l-.0576-.0365-.0652-.0691-.06-.0231s-.0268-.0873-.03-.1027l-.0077-.0547c-.0125-.0624.0835-.1344.2208-.1651a.3932.3932,0,0,1,.1978-.002.5165.5165,0,0,1,.3072-.0787.5475.5475,0,0,1,.2918.0672.5415.5415,0,0,1,.2909-.0672.5132.5132,0,0,1,.3062.0787.3968.3968,0,0,1,.1987.002c.1364.0307.2333.1027.2208.1651l-.0076.0547c-.0029.0154-.0308.1027-.0308.1027l-.0595.0231-.0653.0691-.0556.0365a.0666.0666,0,0,1-.0461.0048.164.164,0,0,1-.0634-.0586.1438.1438,0,0,1-.1085.023.311.311,0,0,1-.1027-.095s-.0787.0768-.1363.0634a.2337.2337,0,0,1-.1027-.0615s-.0653.0567-.1162.0471a.3343.3343,0,0,1-.1219-.0855Z"/><ellipse class="d" cx="22.1827" cy="20.7552" rx="0.1325" ry="0.1882"/><ellipse class="d" cx="22.1856" cy="20.7552" rx="0.0605" ry="0.1738"/><ellipse class="e" cx="22.1846" cy="20.5392" rx="0.0893" ry="0.0845"/><path class="d" d="M22.3085,20.5094v.0557h-.2429v-.0557h.09v-.1248h-.0595V20.329h.0595v-.0557h.0586v.0557h.0586v.0556h-.0586v.1248h.0941"/><path class="f" d="M22.2106,20.46a.0837.0837,0,0,1,.059.1056.09.09,0,0,1-.1116.0559.0837.0837,0,0,1-.059-.1056.0871.0871,0,0,1,.0626-.0568"/><path class="m" d="M21.1834,21.119a.2846.2846,0,0,1-.0212-.1036.2737.2737,0,0,1,.2717-.2765.2572.2572,0,0,1,.1315.0355"/><path class="f" d="M21.67,20.9213a.1664.1664,0,0,1-.0279-.0807.2318.2318,0,0,1,.2535-.2.3024.3024,0,0,1,.1584.0432"/><path class="f" d="M22.6963,20.9242a.1721.1721,0,0,0,.024-.0836.2312.2312,0,0,0-.2534-.2.2991.2991,0,0,0-.1575.0432"/><path class="m" d="M23.18,21.119a.286.286,0,0,0,.02-.1036.2735.2735,0,0,0-.2707-.2765.2612.2612,0,0,0-.1325.0355"/><circle class="f" cx="21.1027" cy="20.9933" r="0.0432"/><circle class="f" cx="21.119" cy="20.8416" r="0.0432"/><circle class="f" cx="21.217" cy="20.7264" r="0.0432"/><circle class="f" cx="21.3466" cy="20.664" r="0.0432"/><circle class="f" cx="21.4848" cy="20.6698" r="0.0432"/><circle class="j" cx="21.5693" cy="20.8397" r="0.0432"/><circle class="f" cx="21.5933" cy="20.6957" r="0.0432"/><circle class="f" cx="21.7018" cy="20.6054" r="0.0432"/><circle class="f" cx="21.8381" cy="20.5622" r="0.0432"/><circle class="f" cx="21.9763" cy="20.567" r="0.0432"/><circle class="f" cx="22.3862" cy="20.567" r="0.0432"/><circle class="f" cx="22.5254" cy="20.5622" r="0.0432"/><circle class="f" cx="22.6608" cy="20.6054" r="0.0432"/><circle class="f" cx="22.7693" cy="20.6957" r="0.0432"/><circle class="j" cx="22.7933" cy="20.8397" r="0.0432"/><circle class="f" cx="22.8778" cy="20.6698" r="0.0432"/><circle class="f" cx="23.017" cy="20.664" r="0.0432"/><circle class="f" cx="23.1466" cy="20.7264" r="0.0432"/><circle class="f" cx="23.2445" cy="20.8416" r="0.0432"/><circle class="f" cx="23.2608" cy="20.9933" r="0.0432"/><path class="d" d="M21.504,21.528a.4486.4486,0,0,0-.0557-.1037,3.0585,3.0585,0,0,1,1.4746,0s-.0211.0365-.05.0874a.642.642,0,0,0-.0365.0777,2.3006,2.3006,0,0,0-.6528-.0787,2.2519,2.2519,0,0,0-.6586.0826.52.52,0,0,0-.0221-.0653h.001"/><path class="d" d="M22.1846,21.7661a3.03,3.03,0,0,0,.5856-.0605c.0634-.0192.1008-.047.0941-.0806a.0578.0578,0,0,0-.0355-.0365,2.744,2.744,0,0,0-1.2893,0,.0578.0578,0,0,0-.0355.0365c-.0067.0336.0307.0614.0941.0806A3.0419,3.0419,0,0,0,22.1846,21.7661Z"/><path class="d" d="M22.9344,21.32l-.0566-.0509a.2066.2066,0,0,1-.1229.023c-.0672-.01-.0893-.0931-.0893-.0931a.246.246,0,0,1-.1382.0595.162.162,0,0,1-.1028-.0595.2352.2352,0,0,1-.1276.0442.2173.2173,0,0,1-.1162-.08s-.0605.0768-.12.0826a.1509.1509,0,0,1-.1085-.0519.1394.1394,0,0,1-.1027.0691.1808.1808,0,0,1-.1411-.06.2386.2386,0,0,1-.0951.0883.1684.1684,0,0,1-.119-.0259s-.0115.0259-.0192.0413a.0422.0422,0,0,1-.03.0182l.0173.0452a3.05,3.05,0,0,1,1.4535.0009l.0192-.0518Z"/><path class="d" d="M22.1866,21.071l.0268.0048a.0915.0915,0,0,0-.0057.0365.1042.1042,0,0,0,.1075.1008.108.108,0,0,0,.1018-.07l.0144-.0364.0048.0393a.1072.1072,0,0,0,.2121-.0163l-.0009-.0115.0336-.0336.0182.0422a.0968.0968,0,0,0-.01.0442.099.099,0,0,0,.1018.0969.1023.1023,0,0,0,.0844-.0432l.0221-.0278v.0346c0,.0326.0135.0633.0471.0681a.14.14,0,0,0,.0873-.0365.5408.5408,0,0,0,.0768-.072l.0029.04a.3768.3768,0,0,1-.0931.1056.1458.1458,0,0,1-.0912.024.088.088,0,0,1-.0643-.0586.1529.1529,0,0,1-.2132-.0614.15.15,0,0,1-.1113.048.1576.1576,0,0,1-.121-.0557.1507.1507,0,0,1-.1046.0413.1558.1558,0,0,1-.1277-.0663.1575.1575,0,0,1-.1286.0663.1508.1508,0,0,1-.1047-.0413.1569.1569,0,0,1-.12.0557.15.15,0,0,1-.1123-.048.1474.1474,0,0,1-.1363.0825.1457.1457,0,0,1-.0759-.0211.0877.0877,0,0,1-.0652.0586.1447.1447,0,0,1-.09-.024.4054.4054,0,0,1-.0979-.1056l.0067-.04a.5943.5943,0,0,0,.0778.072.1385.1385,0,0,0,.0873.0365.0615.0615,0,0,0,.0471-.0681v-.0346l.0211.0278a.1025.1025,0,0,0,.0845.0432.099.099,0,0,0,.1017-.0969.0855.0855,0,0,0-.01-.0442l.0183-.0422.0336.0336-.001.0115a.1078.1078,0,0,0,.2131.0163l.0039-.0393c.0048,0,.0134.0374.0153.0364a.1062.1062,0,0,0,.1018.07.104.104,0,0,0,.1066-.1008.0914.0914,0,0,0-.0048-.0365l.0278-.0048Z"/><path class="g" d="M22.1846,21.3341a2.7762,2.7762,0,0,0-.7363.09.0283.0283,0,0,1-.0317-.0163.0259.0259,0,0,1,.0173-.0307,3.0455,3.0455,0,0,1,1.5024,0,.0259.0259,0,0,1,.0173.0307.0283.0283,0,0,1-.0317.0163A2.7837,2.7837,0,0,0,22.1846,21.3341Z"/><path class="d" d="M21.2016,21.216c-.001.001-.0365-.0461-.0624-.07a.23.23,0,0,0-.0653-.0317c0-.0076.0269-.0268.0557-.0268a.0539.0539,0,0,1,.0432.0192l.0038-.0192a.0506.0506,0,0,1,.0336.0307.1522.1522,0,0,1,.0048.0691.083.083,0,0,1-.0134.0288Z"/><path class="d" d="M21.383,21.1411l-.0105.0634-.1344.0144-.02-.0115.0039-.0221.1017-.0835.0595.0393"/><path class="d" d="M21.2035,21.192a.0391.0391,0,0,1,.0509.0058c.0173.0144.023.0364.0115.048a.0371.0371,0,0,1-.0509-.0058C21.1978,21.2256,21.192,21.2035,21.2035,21.192Z"/><path class="d" d="M21.45,21.2045a.0318.0318,0,0,1,.0125-.04.0352.0352,0,0,1,.0355.0259c.0058.0182,0,.0365-.0134.04S21.457,21.2227,21.45,21.2045Z"/><path class="d" d="M21.5126,21.1238l.049.0461.1171-.0633.0087-.02L21.671,21.07l-.1344-.0115-.024.0652"/><path class="d" d="M21.648,20.905l-.0643.0614.0825.1094.0221.0087.0163-.0173.0288-.1315-.0854-.0307"/><path class="d" d="M21.8669,21.0528l-.025.06-.1344-.0125-.0173-.0154.01-.0211.1172-.0614.05.05"/><circle class="d" cx="21.6893" cy="21.0864" r="0.047"/><path class="d" d="M21.9158,21.1152a.0307.0307,0,0,1,.02-.0374c.0134-.002.0269.0124.0288.0316s-.0067.0356-.02.0365S21.9178,21.1334,21.9158,21.1152Z"/><path class="d" d="M22.0032,21.047l.0384.0548.1286-.04.0135-.0172-.0144-.0192-.1277-.0375-.0384.0595"/><path class="d" d="M22.1837,20.8464l-.0826.05.0615.1325.0211.0134.0211-.0134.0614-.1325-.0825-.05"/><path class="d" d="M22.3651,21.047l-.0374.0548-.1287-.04-.0134-.0172.0134-.0192.1287-.0375.0374.0595"/><circle class="d" cx="22.1846" cy="21.0442" r="0.047"/><path class="d" d="M22.4563,21.1152a.0319.0319,0,0,0-.0211-.0374c-.0134-.002-.0269.0124-.0288.0316s.0067.0356.02.0365S22.4534,21.1334,22.4563,21.1152Z"/><path class="d" d="M22.5034,21.0528l.0249.06.1344-.0125.0173-.0154-.01-.0211-.1171-.0614-.05.05"/><path class="d" d="M22.7222,20.905l.0644.0614-.0826.1094-.0221.0087-.0163-.0173-.0288-.1315.0854-.0307"/><path class="d" d="M22.8576,21.1238l-.049.0461-.1171-.0633-.01-.02L22.7,21.07l.1344-.0115.023.0652"/><circle class="d" cx="22.6819" cy="21.0864" r="0.047"/><path class="d" d="M22.921,21.2045a.0318.0318,0,0,0-.0125-.04.0352.0352,0,0,0-.0355.0259c-.0058.0182,0,.0365.0134.04S22.9142,21.2227,22.921,21.2045Z"/><path class="d" d="M23.15,21.216c.001.001.0365-.0461.0634-.07a.2165.2165,0,0,1,.0643-.0317c0-.0076-.0269-.0268-.0557-.0268a.0539.0539,0,0,0-.0432.0192l-.0038-.0192a.0532.0532,0,0,0-.0346.0307.1555.1555,0,0,0-.0029.0691.0748.0748,0,0,0,.0125.0288Z"/><path class="d" d="M22.969,21.1411l.0105.0634.1344.0144.02-.0115-.0048-.0221-.1008-.0835-.0595.0393"/><path class="d" d="M23.1514,21.192c-.0106-.0115-.0336-.0086-.0509.0058s-.0231.0364-.0115.048a.0382.0382,0,0,0,.0518-.0058C23.1581,21.2256,23.1629,21.2035,23.1514,21.192Z"/><path class="h" d="M21.4531,21.5328l.03-.048.0624.0125-.0365.0537-.0557-.0182"/><path class="i" d="M21.7219,21.4858l-.0662.0105a.0324.0324,0,0,1-.0365-.0249.0307.0307,0,0,1,.0259-.0336l.0672-.01.0682-.0106a.0315.0315,0,0,1,.0355.024.03.03,0,0,1-.0259.0336l-.0682.0106"/><circle class="j" cx="21.9466" cy="21.4368" r="0.0422"/><path class="h" d="M22.1875,21.4541h-.0921a.031.031,0,0,1-.0317-.03.03.03,0,0,1,.0307-.03h.1882a.03.03,0,0,1,.0316.03.031.031,0,0,1-.0316.03h-.0951"/><circle class="j" cx="22.4237" cy="21.4368" r="0.0422"/><path class="i" d="M22.6483,21.4858l.0663.0105a.0323.0323,0,0,0,.0364-.0249.03.03,0,0,0-.0259-.0336l-.0672-.01-.0681-.0106a.0311.0311,0,0,0-.0356.024.029.029,0,0,0,.026.0336l.0681.0106"/><path class="h" d="M22.9114,21.5357l-.024-.0509-.0644.0058.0308.0566.0576-.0115"/><path class="c" d="M22.1837,21.7114a2.5332,2.5332,0,0,1-.6048-.0624,2.7683,2.7683,0,0,1,1.2125,0A2.56,2.56,0,0,1,22.1837,21.7114Z"/><path class="f" d="M22.2931,21.7037v-.1114m-.0557.1152.001-.1181m-.0413.12v-.1209"/><path class="f" d="M22.1626,21.71v-.1219"/><path class="f" d="M22.129,21.71v-.1219"/><path class="f" d="M22.0982,21.71v-.1219"/><path class="f" d="M22.0666,21.71v-.1219"/><path class="f" d="M22.04,21.71v-.1219"/><path class="f" d="M21.9869,21.7037l-.001-.11m.0259.1123v-.1162"/><path class="f" d="M21.9379,21.6989v-.1018m.025.1047-.001-.1085"/><path class="f" d="M21.8726,21.6931v-.0893m.0221.09V21.6m.0221.0979V21.6"/><path class="f" d="M21.8506,21.6922v-.0864"/><path class="f" d="M21.8294,21.6883v-.0816"/><path class="f" d="M21.8064,21.6854v-.0748"/><path class="f" d="M21.7594,21.6787l-.001-.0595m.025.0634v-.0672"/><path class="f" d="M21.7354,21.6739v-.0528"/><path class="f" d="M21.7133,21.67v-.0442"/><path class="f" d="M21.6893,21.6643V21.63"/><path class="f" d="M21.6653,21.6614v-.0259"/><path class="f" d="M21.6394,21.6557v-.0125"/><path class="k" d="M23.6832,31.7453a.8185.8185,0,0,1-.3773-.0835.8324.8324,0,0,0-.37-.0788.8559.8559,0,0,0-.3754.08.829.829,0,0,1-.3763.0826.8147.8147,0,0,1-.3773-.0864.8419.8419,0,0,0-.3638-.0759.8151.8151,0,0,0-.3706.0778.8293.8293,0,0,1-.3792.0845v.2313a.8424.8424,0,0,0,.3792-.0844.8134.8134,0,0,1,.3706-.0788.846.846,0,0,1,.3638.0768.8829.8829,0,0,0,.7536.0039.9073.9073,0,0,1,.7459-.001.8087.8087,0,0,0,.3754.0835l.0019-.2313Z"/><path class="l" d="M23.6832,31.9766a.8173.8173,0,0,1-.3773-.0835.9073.9073,0,0,0-.7459.001.8829.8829,0,0,1-.7536-.0039.843.843,0,0,0-.3638-.0768.8134.8134,0,0,0-.3706.0788.8424.8424,0,0,1-.3792.0844v.2314a.841.841,0,0,0,.3792-.0845.8148.8148,0,0,1,.3706-.0787.846.846,0,0,1,.3638.0768.8147.8147,0,0,0,.3773.0864.8409.8409,0,0,0,.3763-.0826.8417.8417,0,0,1,.3754-.0806.82.82,0,0,1,.37.0806.8216.8216,0,0,0,.3754.0826l.0019-.2314"/><path class="k" d="M23.6832,32.208a.83.83,0,0,1-.3773-.0826.82.82,0,0,0-.37-.0806.8417.8417,0,0,0-.3754.0806.8409.8409,0,0,1-.3763.0826.8147.8147,0,0,1-.3773-.0864.843.843,0,0,0-.3638-.0768.8148.8148,0,0,0-.3706.0787.841.841,0,0,1-.3792.0845v.23a.8281.8281,0,0,0,.3792-.0845.8289.8289,0,0,1,.3706-.0768.8448.8448,0,0,1,.3638.0759.815.815,0,0,0,.3773.0854.8293.8293,0,0,0,.3763-.0816.9177.9177,0,0,1,.7459-.001.798.798,0,0,0,.3754.0826l.0019-.23"/><path class="l" d="M23.6813,32.6707a.81.81,0,0,1-.3754-.0835.9177.9177,0,0,0-.7459.001.8423.8423,0,0,1-.3763.0825.8261.8261,0,0,1-.3773-.0864.8291.8291,0,0,0-.3638-.0758.8152.8152,0,0,0-.3706.0777.841.841,0,0,1-.3792.0845v-.23a.8276.8276,0,0,0,.3792-.0864.8289.8289,0,0,1,.3706-.0768.8448.8448,0,0,1,.3638.0759.815.815,0,0,0,.3773.0854.8293.8293,0,0,0,.3763-.0816.9177.9177,0,0,1,.7459-.001.8064.8064,0,0,0,.3773.0826l-.0019.2323"/><path class="k" d="M23.6813,32.9021a.8216.8216,0,0,1-.3754-.0826.82.82,0,0,0-.37-.0806.8417.8417,0,0,0-.3754.0806.8423.8423,0,0,1-.3763.0826.8261.8261,0,0,1-.3773-.0864.8287.8287,0,0,0-.3638-.0768.8148.8148,0,0,0-.3706.0787.841.841,0,0,1-.3792.0845v-.2295a.8405.8405,0,0,0,.3792-.0864.8152.8152,0,0,1,.3706-.0777.8463.8463,0,0,1,.3638.0758.8261.8261,0,0,0,.3773.0864.8423.8423,0,0,0,.3763-.0825.9177.9177,0,0,1,.7459-.001.8155.8155,0,0,0,.3773.0835l-.0019.2314Z"/><path class="g" d="M21.3446,30.7949a.2522.2522,0,0,1,.0125.0595.2618.2618,0,0,1-.27.2525H23.29a.2612.2612,0,0,1-.27-.2525.2539.2539,0,0,1,.0087-.0595.1221.1221,0,0,1-.0423.0057H21.384A.1365.1365,0,0,1,21.3446,30.7949Z"/><path class="d" d="M21.384,30.65h1.6022a.078.078,0,1,1,0,.1507H21.384a.0779.0779,0,1,1,0-.1507Z"/><path class="d" d="M21.09,31.6666h2.1956v-.56H21.09Z"/><path class="l" d="M21.4051,30.5587h1.56V22.9142h-1.56Z"/><path class="f" d="M22.5168,22.9248V30.553m.1757-7.6282V30.553"/><path class="d" d="M21.12,22.3075h2.14v-.5606H21.12v.5606Z"/><path class="g" d="M21.3446,22.681a.0871.0871,0,0,1,.0394-.0068h1.6022a.1288.1288,0,0,1,.0442.0077.1344.1344,0,0,1-.095-.1267.14.14,0,0,1,.0988-.1277.1819.1819,0,0,1-.047.0077H21.384a.1351.1351,0,0,1-.0451-.0058l.0086.002a.126.126,0,0,1,.09.1238.134.134,0,0,1-.0932.1258Z"/><path class="d" d="M21.384,22.6742h1.6022a.078.078,0,1,1,0,.1508H21.384a.078.078,0,1,1,0-.1508Z"/><path class="d" d="M21.384,22.3075h1.6032c.0547,0,.0989.0288.0989.0634s-.0442.0643-.0989.0643H21.384c-.0538,0-.0979-.0288-.0979-.0643S21.33,22.3075,21.384,22.3075Z"/><path class="h" d="M23.4566,28.6675c.217.1248.3648.2535.3408.3178-.0115.0585-.0806.1027-.18.168-.1555.1085-.25.3014-.1757.3907a.5506.5506,0,0,1,.0144-.8765Z"/><path class="c" d="M19.8163,25.7731a4.6081,4.6081,0,0,1,2.3309-.2c.9331.1565,1.6445.529,1.5878.8324l-.0048.0249s.3495-.7881.3552-.8179c.0624-.337-.7257-.7507-1.7616-.9235a5.2839,5.2839,0,0,0-.9177-.073A4.9709,4.9709,0,0,0,19.82,24.83l-.0039.9427"/><path class="h" d="M22.9728,26.7331c.433-.0307.7277-.1469.7622-.3273.0269-.144-.12-.3044-.3811-.4493a3.3215,3.3215,0,0,1-.384.0288l.0029.7478"/><path class="h" d="M21.407,26.1485a1.29,1.29,0,0,0-.574.191l-.01.0163c-.048.0989.1891.3092.5865.5444l-.0029-.7517"/><path class="c" d="M23.9424,28.2077c.0413-.1229-.3811-.3706-.9773-.5895-.2726-.0969-.4973-.1987-.7766-.3216-.8285-.3667-1.44-.7872-1.3651-.94l.0086-.0163a5.5156,5.5156,0,0,0-.1133.791c-.0749.14.4848.5549,1.248.92.2439.1171.7594.3072,1.0023.3926.4358.1508.8678.4359.8284.5415l.145-.7767v-.0009Z"/><path class="e" d="M6.9763,25.4064c.1911-.0691.3159-.1517.2554-.3014-.0394-.096-.1373-.1143-.2851-.0605l-.26.095.2342.5789c.026-.0115.0519-.023.0778-.0326s.0547-.0173.0816-.025l-.1037-.2534v-.001ZM6.863,25.127l.0663-.024a.1154.1154,0,0,1,.144.0768.1137.1137,0,0,1-.048.1488.4827.4827,0,0,1-.0672.0317L6.863,25.127"/><path class="e" d="M7.5869,24.8851c-.0279.0077-.0547.0154-.0826.0211s-.0566.0087-.0845.0116l.1354.6028.42-.0844A.1952.1952,0,0,1,7.9622,25.4a.3082.3082,0,0,1-.0038-.0394c-.0739.0211-.1546.0442-.2506.0634l-.1209-.5386"/><path class="e" d="M8.43,25.4045c.0787-.2189.1747-.4282.27-.64a.51.51,0,0,1-.0518.0067.4991.4991,0,0,1-.0519,0c-.0508.1545-.1132.3081-.18.4608-.0787-.145-.1661-.2871-.2333-.433-.0326.0039-.0662.0087-.0988.0115s-.0672.001-.1.002c.121.1977.2381.3945.3495.598.0153-.0028.0307-.0057.048-.0076a.3937.3937,0,0,1,.048.0019"/><path class="e" d="M9.3091,24.9408c.0144-.03.03-.0576.0461-.0854a.344.344,0,0,0-.1738-.0605c-.1718-.0173-.27.0585-.2812.1622-.025.217.3177.1987.3014.3427-.0067.0615-.072.0864-.1421.08a.1477.1477,0,0,1-.1449-.1142l-.0212-.0019a.7312.7312,0,0,1-.046.11.4077.4077,0,0,0,.1776.0566c.1756.0182.3091-.0518.3216-.167.022-.2064-.3236-.218-.31-.34.0057-.0509.0451-.0845.1344-.0758a.1331.1331,0,0,1,.1209.0912l.0173.0019"/><path class="e" d="M20.7888,25.4381c.0595-.2237.1354-.44.21-.6595a.2974.2974,0,0,1-.0508.0105.4369.4369,0,0,1-.0519.0048c-.0355.1575-.0845.3159-.1363.4743-.0922-.1383-.192-.2727-.2717-.4128-.0326.0067-.0653.0144-.0979.0192s-.0662.0067-.1.0105c.1392.1863.2736.3735.4032.5674a.3371.3371,0,0,1,.048-.0115c.0153-.002.0316-.002.047-.0029"/><path class="e" d="M21.3821,24.7834c-.0279.0009-.0567.0038-.0845.0028s-.0576-.0038-.0854-.0057l-.0116.6153.4311.0077a.1238.1238,0,0,1,.0009-.0777c-.0777.0048-.1612.01-.26.0076l.01-.55"/><path class="e" d="M22.0579,24.8842c.0691.0057.1354.0182.2016.03a.2661.2661,0,0,1-.0019-.0393.1846.1846,0,0,1,.01-.0375l-.5827-.048a.2668.2668,0,0,1,.0019.0384.177.177,0,0,1-.01.0384,1.8408,1.8408,0,0,1,.2122.0048l-.0509.5539a.8237.8237,0,0,1,.0845.0029c.0288.0019.0566.0067.0844.0106l.0509-.5539"/><path class="e" d="M22.297,25.4909c.0278.0048.0566.0086.0844.0144s.0548.0144.0816.0221l.0692-.2823.0076.001c.0154.0393.0365.0864.0471.1142l.0864.2131c.0345.0058.0681.0106.1008.0173.0345.0077.0672.0173.1.0269l-.03-.0643c-.0461-.096-.0951-.193-.1354-.29.1075.0038.19-.0346.2112-.121a.1331.1331,0,0,0-.0653-.1469.5835.5835,0,0,0-.1757-.0576l-.2342-.0509-.1478.6039m.3014-.52c.0682.0153.1526.0259.1526.1027a.2437.2437,0,0,1-.0057.0461c-.0221.09-.09.1209-.2045.0873l.0576-.2361"/><path class="e" d="M23.4067,25.6762a1.9921,1.9921,0,0,1-.03.2016c.0288.0134.0585.0259.0864.0422s.0547.0326.0825.05l.0576-.6941-.0393-.0182a.2877.2877,0,0,1-.0356-.023l-.6124.3888c.0163.0076.0336.0153.0489.024s.03.0182.0451.0268c.0519-.0432.1056-.0787.1671-.1248l.2294.1258Zm-.1737-.1594.2044-.1315-.024.23-.18-.0989"/><path class="h" d="M14.9664,17.5411a4.5593,4.5593,0,0,1,1.5754.241,2.9977,2.9977,0,0,0,.8064.2083,3.2343,3.2343,0,0,0,.6576.023,2.5777,2.5777,0,0,1,1.02.2381,2.76,2.76,0,0,1,.7488.4714l-.1507.1344-.0432.38-.4128.4724-.2064.1756-.4887.3908-.25.02-.0758.216-3.1594-.37-3.17.37-.0758-.216-.2506-.02-.4877-.3908-.2064-.1756-.4128-.4724-.0422-.38-.1517-.1344a2.7728,2.7728,0,0,1,.7488-.4714,2.5773,2.5773,0,0,1,1.02-.2381,3.2343,3.2343,0,0,0,.6576-.023,2.9977,2.9977,0,0,0,.8064-.2083,4.3679,4.3679,0,0,1,1.5437-.241Z"/><path class="d" d="M12.6326,18.3763l.1325.1066.2-.3264a.74.74,0,0,1-.3648-.625.6465.6465,0,0,1,.0058-.0873c.02-.4167.528-.76,1.1712-.76a1.5117,1.5117,0,0,1,.8486.2381c.0058-.0643.0115-.12.02-.1785a1.7381,1.7381,0,0,0-.8688-.2189c-.74,0-1.3191.4214-1.3469.9187-.0029.03-.0048.0586-.0048.0883a.8873.8873,0,0,0,.3129.6711l-.1056.1737"/><path class="d" d="M12.6413,18.38a.924.924,0,0,1-.41-.7277.9782.9782,0,0,1,.5356-.8074.8516.8516,0,0,0-.3369.5981c-.0029.03-.0048.0586-.0048.0883a.8873.8873,0,0,0,.3129.6711l-.0969.1776"/><path class="d" d="M10.4122,18.7094a.8687.8687,0,0,1-.1412-.9667,1.78,1.78,0,0,1,1.609-.7267,2.6361,2.6361,0,0,1,.5894.0643,1.0475,1.0475,0,0,0-.1036.1421,2.5413,2.5413,0,0,0-.4858-.0461,1.5968,1.5968,0,0,0-1.4515.6384.7041.7041,0,0,0-.07.3072.728.728,0,0,0,.2678.5587l-.2524.4128-.1354-.1075.1738-.2765Z"/><path class="d" d="M10.67,17.3261a1.062,1.062,0,0,0-.3994.4166.8687.8687,0,0,0,.1412.9667l-.1536.2487a1.0425,1.0425,0,0,1-.2324-.6432,1.1879,1.1879,0,0,1,.6442-.9888Z"/><path class="d" d="M15.0038,16.4419a.3537.3537,0,0,1,.35.2621,3.0464,3.0464,0,0,1,.0393.4435c.001.0173-.0009.0336-.0009.05,0,.0192.0038.0394.0048.0586a2.66,2.66,0,0,0,.1219.8179l-.5146.4935-.5212-.4935a2.6549,2.6549,0,0,0,.1238-.8179c0-.0192.0038-.0394.0038-.0586l-.0009-.05a3.0745,3.0745,0,0,1,.0393-.4435.3606.3606,0,0,1,.3552-.2621Z"/><path class="d" d="M15.0038,16.6022a.18.18,0,0,1,.18.1335,2.778,2.778,0,0,1,.0384.42l-.001.046c0,.0192.0029.0375.0038.0567a2.4709,2.4709,0,0,0,.1162.7728l-.34.3216-.34-.3216a2.5314,2.5314,0,0,0,.1162-.7728c0-.0192.0038-.0375.0038-.0567l-.0009-.046a2.7524,2.7524,0,0,1,.0384-.42A.1862.1862,0,0,1,15.0038,16.6022Z"/><path class="d" d="M17.3712,18.3763l-.1334.1066-.2-.3264a.7392.7392,0,0,0,.3657-.625.6633.6633,0,0,0-.0057-.0873c-.02-.4167-.528-.76-1.1712-.76a1.5094,1.5094,0,0,0-.8487.2381c-.0057-.0643-.0115-.12-.0211-.1785a1.742,1.742,0,0,1,.87-.2189c.74,0,1.319.4214,1.3469.9187.0028.03.0048.0586.0048.0883a.8883.8883,0,0,1-.314.6711l.1066.1737"/><path class="d" d="M17.3626,18.38a.9242.9242,0,0,0,.41-.7277.9782.9782,0,0,0-.5357-.8074.8517.8517,0,0,1,.337.5981c.0028.03.0048.0586.0048.0883a.8883.8883,0,0,1-.314.6711l.098.1776"/><path class="d" d="M19.5917,18.7094a.8826.8826,0,0,0,.2285-.5875.8694.8694,0,0,0-.0874-.3792,1.7815,1.7815,0,0,0-1.609-.7267,2.653,2.653,0,0,0-.59.0643.9839.9839,0,0,1,.1047.1421,2.5324,2.5324,0,0,1,.4857-.0461,1.595,1.595,0,0,1,1.4506.6384.7041.7041,0,0,1,.07.3072.7281.7281,0,0,1-.2679.5587l.2525.4128.1363-.1075Z"/><path class="d" d="M19.3334,17.3261a1.062,1.062,0,0,1,.3994.4166.8694.8694,0,0,1,.0874.3792.8826.8826,0,0,1-.2285.5875l.1536.2487a1.0414,1.0414,0,0,0,.2313-.6432,1.1887,1.1887,0,0,0-.6432-.9888Z"/><ellipse class="k" cx="15.0048" cy="16.0608" rx="0.4253" ry="0.4032"/><path class="d" d="M14.8934,14.9318v.217h-.2323V15.37h.2323v.6346h-.2928c-.0028.02-.0211.0355-.0211.0566a.3761.3761,0,0,0,.0336.1574l.0029.0029h.78l.0029-.0029a.3923.3923,0,0,0,.0336-.1574c0-.0211-.0182-.0365-.0211-.0566h-.2842V15.37h.2323v-.2208h-.2323v-.217Z"/><ellipse class="j" cx="15.0038" cy="18.1382" rx="0.1834" ry="0.1728"/><ellipse class="j" cx="15.0038" cy="17.7984" rx="0.1834" ry="0.1728"/><ellipse class="j" cx="15.0038" cy="17.4336" rx="0.1459" ry="0.1382"/><ellipse class="j" cx="15.0038" cy="17.1053" rx="0.1056" ry="0.0998"/><ellipse class="j" cx="15.0038" cy="16.8173" rx="0.0845" ry="0.0797"/><ellipse class="j" cx="10.0982" cy="19.0723" rx="0.1056" ry="0.0998"/><ellipse class="j" cx="9.9542" cy="18.8179" rx="0.1056" ry="0.0998"/><ellipse class="j" cx="9.8582" cy="18.5222" rx="0.1056" ry="0.0998"/><ellipse class="j" cx="9.8458" cy="18.2054" rx="0.1056" ry="0.0998"/><ellipse class="j" cx="9.9235" cy="17.8944" rx="0.1056" ry="0.0998"/><ellipse class="j" cx="10.0858" cy="17.6112" rx="0.1056" ry="0.0998"/><ellipse class="j" cx="10.3018" cy="17.3779" rx="0.1056" ry="0.0998"/><ellipse class="j" cx="10.5533" cy="17.185" rx="0.1056" ry="0.0998"/><ellipse class="j" cx="10.8528" cy="17.0266" rx="0.1056" ry="0.0998"/><ellipse class="j" cx="11.1638" cy="16.9142" rx="0.1056" ry="0.0998"/><ellipse class="j" cx="11.5114" cy="16.8518" rx="0.1056" ry="0.0998"/><ellipse class="j" cx="11.8416" cy="16.8346" rx="0.1056" ry="0.0998"/><ellipse class="j" cx="12.1651" cy="16.8461" rx="0.1056" ry="0.0998"/><ellipse class="j" cx="12.5242" cy="18.2707" rx="0.1056" ry="0.0998"/><ellipse class="j" cx="12.3446" cy="18.0144" rx="0.1056" ry="0.0998"/><ellipse class="j" cx="12.2496" cy="17.736" rx="0.1056" ry="0.0998"/><ellipse class="j" cx="12.2611" cy="17.4307" rx="0.1056" ry="0.0998"/><ellipse class="j" cx="12.3274" cy="17.1235" rx="0.1056" ry="0.0998"/><ellipse class="j" cx="12.4886" cy="16.8461" rx="0.1056" ry="0.0998"/><ellipse class="j" cx="12.7344" cy="16.6531" rx="0.1056" ry="0.0998"/><ellipse class="j" cx="13.0214" cy="16.4938" rx="0.1056" ry="0.0998"/><ellipse class="j" cx="13.3392" cy="16.3987" rx="0.1056" ry="0.0998"/><ellipse class="j" cx="13.6685" cy="16.3421" rx="0.1056" ry="0.0998"/><ellipse class="j" cx="13.992" cy="16.3469" rx="0.1056" ry="0.0998"/><ellipse class="j" cx="14.327" cy="16.4035" rx="0.1056" ry="0.0998"/><ellipse class="j" cx="14.6381" cy="16.511" rx="0.1056" ry="0.0998"/><ellipse class="j" cx="15.3648" cy="16.511" rx="0.1056" ry="0.0998"/><ellipse class="j" cx="15.6758" cy="16.4035" rx="0.1056" ry="0.0998"/><ellipse class="j" cx="16.0118" cy="16.3469" rx="0.1056" ry="0.0998"/><ellipse class="j" cx="16.3344" cy="16.3421" rx="0.1056" ry="0.0998"/><ellipse class="j" cx="16.6646" cy="16.3987" rx="0.1056" ry="0.0998"/><ellipse class="j" cx="16.9814" cy="16.4938" rx="0.1056" ry="0.0998"/><ellipse class="j" cx="17.2694" cy="16.6531" rx="0.1056" ry="0.0998"/><ellipse class="j" cx="17.5142" cy="16.8461" rx="0.1056" ry="0.0998"/><ellipse class="j" cx="17.6765" cy="17.1235" rx="0.1056" ry="0.0998"/><ellipse class="j" cx="17.7427" cy="17.4307" rx="0.1056" ry="0.0998"/><ellipse class="j" cx="17.7542" cy="17.736" rx="0.1056" ry="0.0998"/><ellipse class="j" cx="17.6582" cy="18.0144" rx="0.1056" ry="0.0998"/><ellipse class="j" cx="17.4797" cy="18.2707" rx="0.1056" ry="0.0998"/><ellipse class="j" cx="17.8387" cy="16.8461" rx="0.1056" ry="0.0998"/><ellipse class="j" cx="18.1622" cy="16.8346" rx="0.1056" ry="0.0998"/><ellipse class="j" cx="18.4925" cy="16.8518" rx="0.1056" ry="0.0998"/><ellipse class="j" cx="18.84" cy="16.9142" rx="0.1056" ry="0.0998"/><ellipse class="j" cx="19.151" cy="17.0266" rx="0.1056" ry="0.0998"/><ellipse class="j" cx="19.4506" cy="17.185" rx="0.1056" ry="0.0998"/><ellipse class="j" cx="19.7011" cy="17.3779" rx="0.1056" ry="0.0998"/><ellipse class="j" cx="19.9171" cy="17.6112" rx="0.1056" ry="0.0998"/><ellipse class="j" cx="20.0794" cy="17.8944" rx="0.1056" ry="0.0998"/><ellipse class="j" cx="20.1571" cy="18.2054" rx="0.1056" ry="0.0998"/><ellipse class="j" cx="20.1456" cy="18.5222" rx="0.1056" ry="0.0998"/><ellipse class="j" cx="20.0496" cy="18.8179" rx="0.1056" ry="0.0998"/><ellipse class="j" cx="19.9056" cy="19.0723" rx="0.1056" ry="0.0998"/><path class="d" d="M15.0144,21.7133a10.9118,10.9118,0,0,1-2.9846-.3677.1157.1157,0,0,1-.0807-.12.1127.1127,0,0,1,.0807-.1123,10.9118,10.9118,0,0,1,2.9846-.3677,10.907,10.907,0,0,1,2.9846.3677.1117.1117,0,0,1,.08.1123.116.116,0,0,1-.08.12,10.907,10.907,0,0,1-2.9846.3677"/><path class="d" d="M15.0067,20.7446a10.8135,10.8135,0,0,0-3.0134.384c.0624-.03.0566-.1075-.0211-.3072-.0941-.2428-.24-.2323-.24-.2323a12.1714,12.1714,0,0,1,3.2793-.4013,12.2561,12.2561,0,0,1,3.29.4013s-.1468-.01-.2409.2323c-.0778.2-.0835.2775-.02.3072a10.97,10.97,0,0,0-3.0336-.384"/><path class="d" d="M15.0115,20.1888a12.1634,12.1634,0,0,0-3.2793.4013.1034.1034,0,0,1-.1325-.0576.1016.1016,0,0,1,.0672-.13,12.0824,12.0824,0,0,1,3.3446-.4205,12.1223,12.1223,0,0,1,3.35.4205.1016.1016,0,0,1,.0672.13.1034.1034,0,0,1-.1325.0576,12.21,12.21,0,0,0-3.2851-.4013"/><path class="d" d="M15.0192,19.1789l.1181.0211a.4372.4372,0,0,0-.0231.1565.46.46,0,0,0,.4724.4464.4694.4694,0,0,0,.4483-.3082c.0077.0048.0451-.1613.0653-.1593.0163.0019.0144.1728.0211.17a.475.475,0,0,0,.9389-.0691.3483.3483,0,0,0-.0039-.0548l.1479-.1459.08.1863a.4048.4048,0,0,0-.0441.1948.4383.4383,0,0,0,.45.4263.4559.4559,0,0,0,.3744-.1891l.0951-.12-.001.1468a.2751.2751,0,0,0,.2074.3053.6355.6355,0,0,0,.3868-.1632,2.5328,2.5328,0,0,0,.3408-.3158l.0192.1728a1.4559,1.4559,0,0,1-.3811.3984.6912.6912,0,0,1-.4061.1085.3975.3975,0,0,1-.2889-.2631.6683.6683,0,0,1-.3408.0931.6512.6512,0,0,1-.6067-.37.6666.6666,0,0,1-.4992.216.6969.6969,0,0,1-.5348-.2458.7014.7014,0,0,1-1.0387-.1133.7.7,0,0,1-1.0377.1133.6989.6989,0,0,1-.5357.2458.6645.6645,0,0,1-.4983-.216.6533.6533,0,0,1-.6067.37.6659.6659,0,0,1-.3408-.0931.3987.3987,0,0,1-.29.2631.69.69,0,0,1-.4051-.1085A1.4493,1.4493,0,0,1,10.92,19.88l.0192-.1728a2.5889,2.5889,0,0,0,.3418.3158.6244.6244,0,0,0,.3859.1632.2742.2742,0,0,0,.2073-.3053l-.0009-.1468.095.12a.4574.4574,0,0,0,.3744.1891.4383.4383,0,0,0,.45-.4263.4037.4037,0,0,0-.0442-.1948l.08-.1863.1478.1459a.531.531,0,0,0-.0038.0548.4755.4755,0,0,0,.94.0691c.0058.0029.0048-.168.0211-.17.0192-.002.0576.1641.0644.1593a.47.47,0,0,0,.4492.3082.4594.4594,0,0,0,.4714-.4464.4008.4008,0,0,0-.023-.1565l.1238-.0211"/><path class="d" d="M11.0035,19.8067a.2144.2144,0,0,0-.0691-.1017.1716.1716,0,0,0-.2266-.024.098.098,0,0,0-.0163.024.7721.7721,0,0,0-.2313-.2669.736.736,0,0,0-.3351-.05.28.28,0,0,1,.2871-.2775.3043.3043,0,0,1,.238.1066l.0221-.1027a.2824.2824,0,0,1,.19.1747.665.665,0,0,1-.0058.3648.644.644,0,0,1,.0816-.1546.802.802,0,0,1,.2391-.1593,1.0673,1.0673,0,0,0,.1315-.0759.5636.5636,0,0,1,.0048.0586.4764.4764,0,0,1-.001.08.7823.7823,0,0,1,.3677.046.4749.4749,0,0,1-.2515.2208s.0422.0346.08.072a.3808.3808,0,0,1,.0422.0471s-.0816.0125-.1219.0182a1.5973,1.5973,0,0,1-.2582.0211,1.4948,1.4948,0,0,1-.1671-.0211"/><path class="h" d="M10.7078,19.681a.1716.1716,0,0,1,.2266.024c.0768.0643.0979.1593.049.21a.1729.1729,0,0,1-.2266-.024c-.0758-.0653-.0979-.1594-.049-.21"/><path class="j" d="M11.7734,19.7674c-.0268-.08-.0028-.1584.0548-.1757s.1267.0317.1536.1113.0028.1584-.0548.1767-.1257-.0327-.1536-.1123"/><path class="d" d="M12.7075,19.3786a.1769.1769,0,0,1-.0643-.1037.1674.1674,0,0,1,.0221-.1181,1.0441,1.0441,0,0,0-.1757-.0662,1.11,1.11,0,0,0-.2275-.0192c-.0365-.002-.11-.0029-.11-.0029a.5913.5913,0,0,0,.0269.0528.69.69,0,0,0,.048.072.5.5,0,0,0-.2909.2006.5307.5307,0,0,0,.3456.0931.5071.5071,0,0,0-.0192.0826.4878.4878,0,0,0-.0058.0586l.1027-.0375a1.1764,1.1764,0,0,0,.2064-.0921,1.0065,1.0065,0,0,0,.1421-.12"/><path class="d" d="M12.6653,18.3984a.5125.5125,0,0,1,.2208.2909.1814.1814,0,0,1,.0681-.0567.2278.2278,0,0,1,.1047-.0307s-.0163.0931-.024.1267-.0087.1325-.0307.2228a.7838.7838,0,0,1-.0605.1612.19.19,0,0,0-.1517-.0393.1791.1791,0,0,0-.1267.0864.8023.8023,0,0,1-.1162-.1325c-.0528-.0778-.0893-.1709-.1085-.2s-.0691-.11-.0691-.11a.2159.2159,0,0,1,.11-.0048.1749.1749,0,0,1,.0844.0307.4873.4873,0,0,1,.1-.3446"/><path class="d" d="M12.9811,19.3325a.1653.1653,0,0,0-.04-.2208,1.0017,1.0017,0,0,1,.1411-.121,1.135,1.135,0,0,1,.2064-.0912c.0346-.0125.1027-.0384.1027-.0384a.4962.4962,0,0,1-.0057.0586.537.537,0,0,1-.0192.0835.523.523,0,0,1,.3465.0941.5046.5046,0,0,1-.2918.2.5946.5946,0,0,1,.048.071c.02.0374.0269.0538.0269.0538l-.11-.0029a1.1176,1.1176,0,0,1-.2275-.0192,1.0708,1.0708,0,0,1-.1767-.0663"/><ellipse class="h" cx="12.8275" cy="19.2432" rx="0.2083" ry="0.1978"/><path class="j" d="M13.825,19.37c-.0106-.0835.03-.1565.0892-.1632s.1181.0547.1287.1383-.0288.1564-.0893.1632-.1171-.0548-.1286-.1383"/><path class="d" d="M14.856,19.1837a.1924.1924,0,0,1-.0509-.1277.1882.1882,0,0,1,.049-.1267,1.09,1.09,0,0,0-.1815-.1075,1.3118,1.3118,0,0,0-.25-.0644l-.1228-.023a.5814.5814,0,0,0,.0192.0643.7038.7038,0,0,0,.0384.0893.58.58,0,0,0-.3658.169.589.589,0,0,0,.3658.168.6313.6313,0,0,0-.0384.0892.515.515,0,0,0-.0192.0644l.1228-.0231a1.31,1.31,0,0,0,.25-.0643,1.2913,1.2913,0,0,0,.1834-.1066"/><path class="d" d="M15.0106,18.0826a.5653.5653,0,0,1,.1872.3667.188.188,0,0,1,.0873-.0509.2607.2607,0,0,1,.1229-.0154s-.0374.1008-.0528.1364-.0374.1468-.0806.2428a.85.85,0,0,1-.1008.169.2146.2146,0,0,0-.3207,0,.85.85,0,0,1-.1008-.169c-.0432-.096-.0643-.2073-.0806-.2428s-.0538-.1364-.0538-.1364a.26.26,0,0,1,.1229.0154.1974.1974,0,0,1,.0883.0509.5674.5674,0,0,1,.1815-.3667"/><path class="d" d="M15.169,19.1837a.1872.1872,0,0,0,.0019-.2544,1.0712,1.0712,0,0,1,.1824-.1075,1.2772,1.2772,0,0,1,.25-.0644l.1209-.023a.3127.3127,0,0,1-.0182.0643.7038.7038,0,0,1-.0384.0893.5775.5775,0,0,1,.3658.169.5843.5843,0,0,1-.3658.168.6313.6313,0,0,1,.0384.0892.388.388,0,0,1,.0182.0644l-.1209-.0231a.8671.8671,0,0,1-.4339-.1709"/><ellipse class="h" cx="15.0134" cy="19.056" rx="0.2083" ry="0.1978"/><path class="j" d="M16.2077,19.37c.0105-.0835-.0288-.1565-.0893-.1632s-.1181.0547-.1286.1383.03.1564.0892.1632.1181-.0548.1287-.1383"/><path class="d" d="M17.0525,19.3325a.1629.1629,0,0,1,.04-.2208,1.0017,1.0017,0,0,0-.1411-.121,1.14,1.14,0,0,0-.2074-.0912c-.0336-.0125-.1017-.0384-.1017-.0384a.3112.3112,0,0,0,.0057.0586.6208.6208,0,0,0,.0183.0835.5219.5219,0,0,0-.3456.0941.5022.5022,0,0,0,.2908.2.546.546,0,0,0-.047.071.4019.4019,0,0,0-.0269.0538l.11-.0029a1.1134,1.1134,0,0,0,.2275-.0192,1.0676,1.0676,0,0,0,.1766-.0663"/><path class="d" d="M17.3683,18.3984a.5179.5179,0,0,0-.2217.2909.1708.1708,0,0,0-.0682-.0567.2248.2248,0,0,0-.1046-.0307s.0163.0931.0249.1267.0087.1325.03.2228a.756.756,0,0,0,.0614.1612.1892.1892,0,0,1,.1507-.0393.181.181,0,0,1,.1277.0864.8023.8023,0,0,0,.1162-.1325c.0518-.0778.0883-.1709.1075-.2s.0691-.11.0691-.11a.2156.2156,0,0,0-.1094-.0048.1758.1758,0,0,0-.0845.0307.4866.4866,0,0,0-.0989-.3446"/><path class="d" d="M17.3251,19.3786a.1677.1677,0,0,0,.0643-.1037.162.162,0,0,0-.0211-.1181,1.0441,1.0441,0,0,1,.1757-.0662,1.1071,1.1071,0,0,1,.2266-.0192c.0374-.002.11-.0029.11-.0029a.3764.3764,0,0,1-.0269.0528.618.618,0,0,1-.0471.072.5062.5062,0,0,1,.2909.2006.5321.5321,0,0,1-.3456.0931.5839.5839,0,0,1,.0183.0826.4962.4962,0,0,1,.0057.0586l-.1017-.0375a1.1527,1.1527,0,0,1-.2074-.0921,1.0791,1.0791,0,0,1-.1421-.12"/><ellipse class="h" cx="17.2061" cy="19.2432" rx="0.2083" ry="0.1978"/><path class="j" d="M18.26,19.7674c.0268-.08.0028-.1584-.0548-.1757s-.1267.0317-.1545.1113-.0029.1584.0547.1767.1267-.0327.1546-.1123"/><path class="d" d="M19.0291,19.8067a.2226.2226,0,0,1,.0691-.1017.1716.1716,0,0,1,.2266-.024.1026.1026,0,0,1,.0173.024.7657.7657,0,0,1,.23-.2669.74.74,0,0,1,.336-.05.2807.2807,0,0,0-.288-.2775.301.301,0,0,0-.2371.1066l-.0221-.1027a.2824.2824,0,0,0-.19.1747.669.669,0,0,0,.0048.3648.6231.6231,0,0,0-.0806-.1546.802.802,0,0,0-.2391-.1593.9861.9861,0,0,1-.1315-.0759s-.0029.0173-.0058.0586a.5356.5356,0,0,0,.002.08.78.78,0,0,0-.3677.046.47.47,0,0,0,.25.2208s-.0412.0346-.08.072a.4051.4051,0,0,0-.0413.0471s.0816.0125.1219.0182a1.5942,1.5942,0,0,0,.2573.0211,1.4655,1.4655,0,0,0,.167-.0211"/><path class="h" d="M19.3248,19.681a.1716.1716,0,0,0-.2266.024c-.0758.0643-.0979.1593-.0489.21a.1728.1728,0,0,0,.2265-.024c.0759-.0653.098-.1594.049-.21"/><path class="c" d="M15.0115,21.5587a11.37,11.37,0,0,1-2.7533-.3129,11.4462,11.4462,0,0,1,2.7533-.3063,11.4915,11.4915,0,0,1,2.7591.3063,11.4154,11.4154,0,0,1-2.7591.3129Z"/><path class="f" d="M15.7718,21.5309v-.577m-.29.5962.0039-.6115m-.2151.6192v-.6231"/><path class="f" d="M15.0912,21.5654v-.6307"/><path class="f" d="M14.9194,21.5654v-.6307"/><path class="f" d="M14.7581,21.5654v-.6307"/><path class="f" d="M14.5978,21.5654v-.6307"/><path class="f" d="M14.4547,21.5654v-.6307"/><path class="f" d="M14.1821,21.5309l-.0039-.5731m.1335.5808v-.6"/><path class="f" d="M13.9306,21.505v-.528m.1276.5433-.0038-.5625"/><path class="f" d="M13.5936,21.4752v-.4646m.11.4723v-.4877m.1142.503v-.5068"/><path class="f" d="M13.4755,21.4714v-.4493"/><path class="f" d="M13.3651,21.4483V21.03"/><path class="f" d="M13.247,21.4378v-.39"/><path class="f" d="M13.0051,21.4032l-.0038-.3091m.1277.3245V21.071"/><path class="f" d="M12.8813,21.3773v-.2727"/><path class="f" d="M12.767,21.3552v-.2266"/><path class="f" d="M12.6432,21.3245v-.1776"/><path class="f" d="M12.5155,21.31v-.1325"/><path class="f" d="M12.3811,21.2794V21.215"/><path class="f" d="M12.1315,21.2794a11.1443,11.1443,0,0,1,2.88-.34,11.1867,11.1867,0,0,1,2.8858.34"/><path class="h" d="M11.8051,20.8474l.1171-.1527.3236.0413-.2583.1882-.1824-.0768"/><path class="j" d="M12.5069,20.6669a.1058.1058,0,1,1,.1056.1.1024.1024,0,0,1-.1056-.1"/><path class="i" d="M13.4294,20.6467l-.2265.0259a.1049.1049,0,0,1-.1191-.0864.0993.0993,0,0,1,.0922-.11l.2275-.0268.2323-.0269a.1037.1037,0,0,1,.1172.0864.1019.1019,0,0,1-.0922.1113l-.2314.0269"/><path class="j" d="M14.0918,20.4816a.1058.1058,0,0,1,.2112,0,.1058.1058,0,0,1-.2112,0"/><path class="h" d="M15.0144,20.5594h-.3158a.1037.1037,0,0,1-.1066-.0989.1024.1024,0,0,1,.1056-.1h.6374a.1024.1024,0,0,1,.1056.1.1036.1036,0,0,1-.1065.0989h-.32"/><path class="j" d="M15.7258,20.4816a.1058.1058,0,1,1,.1056.1.1029.1029,0,0,1-.1056-.1"/><path class="i" d="M16.5994,20.6467l.2265.0259a.1055.1055,0,0,0,.1191-.0864.1006.1006,0,0,0-.0922-.11l-.2275-.0268-.2323-.0269a.1031.1031,0,0,0-.1172.0864.1013.1013,0,0,0,.0922.1113l.2314.0269"/><path class="j" d="M17.3107,20.6669a.1058.1058,0,1,1,.1056.1.1024.1024,0,0,1-.1056-.1"/><path class="h" d="M18.2227,20.8474l-.1161-.1527-.3236.0413.2583.1882.1814-.0768"/><path class="l" d="M15.047,33.0557a8.1825,8.1825,0,0,1-3.5472-.82,2.27,2.27,0,0,1-1.2825-2.0342V27.0048h9.64v3.1968a2.2683,2.2683,0,0,1-1.2826,2.0342,8.0945,8.0945,0,0,1-3.528.82Z"/><path class="n" d="M15.2794,31.6368a.3919.3919,0,0,1,.3024.385.4557.4557,0,0,1-.5088.4012c-.2871,0-.52-.1728-.52-.4012a.3493.3493,0,0,1,.2957-.3783.2663.2663,0,0,0-.023-.048l-.0615-.0633a.2875.2875,0,0,1,.12.0019.2565.2565,0,0,1,.074.0451.3383.3383,0,0,1,.05-.073.2614.2614,0,0,1,.0672-.0508.3314.3314,0,0,1,.0585.0614.3494.3494,0,0,1,.024.0566.33.33,0,0,1,.0759-.047.65.65,0,0,1,.0806-.025s-.0125.0442-.0211.0663a.3667.3667,0,0,0-.0134.0691"/><path class="i" d="M15.0307,32.6707a2.6189,2.6189,0,0,0-.5472-.2918,2.7354,2.7354,0,0,0-.5529-.0144,2.1526,2.1526,0,0,1,.1766.1421,1.0072,1.0072,0,0,0,.3293.1833,1.1642,1.1642,0,0,0,.5942-.0192"/><path class="i" d="M15.14,32.6938a1.0431,1.0431,0,0,1,.5-.29,1.3916,1.3916,0,0,1,.6183.0557c.0028,0-.097.0471-.15.0835a.6727.6727,0,0,1-.3974.1527c-.2093.0029-.44-.0221-.4772-.0163l-.094.0144"/><path class="h" d="M15.0662,32.3789a.4857.4857,0,0,1,.001-.7133.4876.4876,0,0,1-.001.7133"/><path class="i" d="M14.9693,32.9a.9975.9975,0,0,0,.0643-.2717.9644.9644,0,0,0-.0144-.2083h.0768a.7752.7752,0,0,1,.0374.2083,2.11,2.11,0,0,1-.0172.2275.3733.3733,0,0,0-.07.0163c-.0183.0087-.0768.0279-.0768.0279"/><path class="h" d="M15.0307,30.1987a2.4129,2.4129,0,0,1-4.8192,0V26.9971h4.8192v3.2016"/><path class="d" d="M10.2029,30.1555a2.4418,2.4418,0,0,0,.55,1.5043V26.9107H10.21l-.0067,3.2448Z"/><path class="d" d="M11.2637,32.0861a2.5,2.5,0,0,0,.5789.2659l-.0144-5.4682h-.5645Z"/><path class="d" d="M12.3389,32.472a2.6257,2.6257,0,0,0,.5635,0V26.8838h-.5635Z"/><path class="d" d="M13.3987,32.352a1.9021,1.9021,0,0,0,.5789-.2525V26.8838h-.5645l-.0144,5.4682Z"/><path class="d" d="M14.5018,31.607a2.1818,2.1818,0,0,0,.5366-1.2249l.0134-3.4983h-.5635Z"/><path class="h" d="M19.8624,26.9971v3.2016a2.4195,2.4195,0,0,1-4.8317,0V26.9971h4.8317"/><path class="o" d="M17.18,29.3894a.2867.2867,0,0,1,.0182-.0384l-.409-.455-.16.0691-.2937-.3254.096-.14-.5127-.575c-.0067.0019-.0192.0019-.0259.0038l.0029.3859.168.048V28.79l-.168.0461-.0029.3917a.2511.2511,0,0,1,.167.16l.3082.0009.049-.16H16.87l.048.16Zm-.67-1.776v.1546h.2649v-.1546Zm-.7008,1.9556a.1063.1063,0,1,0-.1123-.1056A.1085.1085,0,0,0,15.8093,29.569Zm1.535-.9341-.1689-.0461v-.4282l.1689-.048-.0009-.1843a.2568.2568,0,0,1-.1719-.16h-.2573l-.0489.16h-.4522l-.0489-.16h-.2967a.3035.3035,0,0,1-.0278.0586l.5165.5721.16-.0681.2937.3264-.096.1392.4013.4454.0269-.0115Zm-.696-.1335-.1238.1.17.19.1238-.1008Zm.7684,3.4739a.2577.2577,0,0,1-.2413-.1935,1.7373,1.7373,0,0,1-.4541-.1248l.0806-.1373a1.5461,1.5461,0,0,0,.3917.1065.2543.2543,0,0,1,.1517-.1344l.0009-.54-.1689-.047v-.4282l.1689-.0461v-.7334a.0874.0874,0,0,1-.0192-.0086l-.382.4243.096.1382-.2938.3264-.16-.0681-.3168.3523a.2338.2338,0,0,1-.0106.2736,1.496,1.496,0,0,0,.3111.264l-.0807.1382a1.68,1.68,0,0,1-.3638-.3091.2708.2708,0,0,1-.25-.048.2375.2375,0,0,1-.0288-.3494l.0134-.0154a1.5308,1.5308,0,0,1-.1267-.48l.1642.001a1.3408,1.3408,0,0,0,.1046.41.3018.3018,0,0,1,.14.0153l.3187-.3532-.096-.1392.2937-.3264.16.0691.383-.4253a.2081.2081,0,0,1-.02-.0442l-.2649.001-.048.16H16.417l-.049-.16-.311-.001a.2565.2565,0,0,1-.1623.1556l-.0009.3878-.1642-.001v-.3849a.2513.2513,0,0,1-.1834-.2371.2543.2543,0,0,1,.1844-.2381l.0009-.3888-.1689-.0461v-.4282l.1689-.048v-.3888a.2494.2494,0,0,1-.1766-.2352.2547.2547,0,0,1,.2621-.2476.2616.2616,0,0,1,.25.1708h.2967l.0489-.16h.4522l.0489.16h.2573a.26.26,0,0,1,.2457-.1708l.0068.8035h-.0816v.2505h.0811l-.002,2.0727h-.0753V30.82h.0749Zm-.5677-1.7574-.1239-.1-.1708.19.1238.1Zm-.9562-1.77h-.1622l-.001.25h.1632Zm.8794,1.0953v-.1536h-.2736v.1536Zm-1.0176.93-.169-.0375-.024-.4272.168-.0557v.2458a1.5243,1.5243,0,0,0,.025.2746Zm.14-.53.168.0393s.0087.2755.0048.2131c-.0038-.071.0183.2151.0183.2151l-.169.0556a1.3672,1.3672,0,0,1-.023-.2678Zm1.0378,1.6252.0375-.1632a1.3741,1.3741,0,0,1-.4-.2006l-.1209.1065a1.5921,1.5921,0,0,0,.4838.2573Zm-.0816.1383-.1248.1171a1.851,1.851,0,0,1-.3955-.2026l.0365-.17a1.7533,1.7533,0,0,0,.4838.2554Z"/><path class="o" d="M17.6611,29.3894a.2867.2867,0,0,0-.0182-.0384l.4089-.455.16.0691.2937-.3254-.096-.14.5127-.575c.0067.0019.0192.0019.0259.0038l-.0029.3859-.168.048V28.79l.168.0461.0029.3917a.2512.2512,0,0,0-.1671.16l-.3081.0009-.049-.16h-.4531l-.048.16Zm.67-1.776v.1546h-.265v-.1546Zm.7008,1.9556a.1063.1063,0,1,1,.1123-.1056A.1086.1086,0,0,1,19.032,29.569Zm-1.535-.9341.1689-.0461v-.4282l-.1689-.048.0009-.1843a.2568.2568,0,0,0,.1719-.16h.2572l.049.16h.4522l.0489-.16h.2967a.2977.2977,0,0,0,.0278.0586l-.5165.5721-.16-.0681-.2938.3264.096.1392-.4012.4454-.0269-.0115Zm.696-.1335.1238.1-.17.19-.1239-.1008Zm-.7685,3.4739a.2578.2578,0,0,0,.2414-.1935,1.7384,1.7384,0,0,0,.4541-.1248l-.0806-.1373a1.5461,1.5461,0,0,1-.3917.1065.2543.2543,0,0,0-.1517-.1344l-.001-.54.169-.047v-.4282l-.169-.0461v-.7334a.0834.0834,0,0,0,.0192-.0086l.3821.4243-.096.1382.2938.3264.16-.0681.3168.3523a.2338.2338,0,0,0,.0106.2736,1.496,1.496,0,0,1-.3111.264l.0807.1382a1.68,1.68,0,0,0,.3638-.3091.2708.2708,0,0,0,.25-.048.2376.2376,0,0,0,.0288-.3494L18.98,30.816a1.5308,1.5308,0,0,0,.1267-.48l-.1642.001a1.3408,1.3408,0,0,1-.1046.41.3017.3017,0,0,0-.14.0153l-.3187-.3532.096-.1392-.2938-.3264-.16.0691-.383-.4253a.2031.2031,0,0,0,.02-.0442l.265.001.048.16h.4531l.049-.16.311-.001a.2563.2563,0,0,0,.1623.1556l.0009.3878.1642-.001v-.3849a.2512.2512,0,0,0,.1833-.2371.2542.2542,0,0,0-.1843-.2381l-.0009-.3888.1689-.0461v-.4282l-.1689-.048v-.3888a.25.25,0,0,0,.1766-.2352.2547.2547,0,0,0-.2621-.2476.2616.2616,0,0,0-.25.1708h-.2967l-.0489-.16H17.976l-.049.16H17.67a.26.26,0,0,0-.2457-.1708l-.0068.8035h.0816v.2505h-.0811l.002,2.0727h.0752V30.82H17.42Zm.5678-1.7574.1238-.1.1709.19-.1238.1Zm.9561-1.77h.1623l.0009.25h-.1632Zm-.8793,1.0953v-.1536h.2736v.1536Zm1.0176.93.1689-.0375.024-.4272-.168-.0557v.2458a1.5243,1.5243,0,0,1-.0249.2746Zm-.14-.53-.168.0393s-.0086.2755-.0048.2131c.0039-.071-.0182.2151-.0182.2151l.169.0556a1.3749,1.3749,0,0,0,.023-.2678Zm-1.0377,1.6252-.0375-.1632a1.3736,1.3736,0,0,0,.4-.2006l.121.1065a1.5933,1.5933,0,0,1-.4838.2573Zm.0816.1383.1248.1171a1.851,1.851,0,0,0,.3955-.2026l-.0365-.17a1.7547,1.7547,0,0,1-.4838.2554Z"/><path class="p" d="M17.1686,29.4662a.263.263,0,1,1,.2631.2477.2566.2566,0,0,1-.2631-.2477"/><path class="h" d="M10.2115,27h4.8173V21.6509H10.2115Z"/><path class="d" d="M11.8646,22.8874h-.0883V22.799h-.1555v.3543h.1555v.2448h-.3331v.7094h.1776v1.42h-.3552V26.26h2.7283v-.7324H13.64v-1.42h.1776v-.7094h-.3331v-.2448H13.64V22.799h-.1555v.0884h-.0893V22.799H13.24v.0884H13.129V22.799h-.1556v.3543h.1556v.2448h-.3322v-.7767h.1766v-.3552h-.1766v.0893h-.0893v-.0893H12.552v.0893h-.0883v-.0893h-.1776v.3552h.1776v.7767h-.3331v-.2448h.1555V22.799h-.1555v.0884h-.0884V22.799h-.1776v.0884Zm-.599,3.3724h2.7283m-2.7283-.1776h2.7283m-2.7283-.1776h2.7283m-2.7283-.1776h2.7283m-2.7283-.2h2.7283m-2.3731-.1556H13.64m-2.0189-.1776H13.64m-2.0189-.2H13.64m-2.0189-.1767H13.64M11.6208,24.64H13.64m-2.0189-.1776H13.64m-2.0189-.1776H13.64m-2.1965-.1776h2.3741M11.4432,23.93h2.3741m-2.3741-.1776h2.3741m-2.3741-.1766h2.3741m-2.041-.1776h1.7079m-1.0205-.1776h.3331m-.3331-.1776h.3331m-.3331-.1776h.3331m-.3331-.1776h.3331m-.5107-.2218h.6873m-1.1971.7546h.3543m-.51-.2218h.6653M11.6208,26.26v-.1776m0-.1776V25.727m-.1776.1776v.1776m.3331,0v-.1776m.1767.3552v-.1776m0-.1776V25.727m0-.2v-.1556m0-.1776v-.2m-.1767.7324v-.2m-.3331.2v-.2m.6874,0v.2m.1555-.2v-.1556m-.51-.1776v.1776m.3543-.1776v.1776m.3331-.1776v.1776m-.1776-.1776v-.2m.1776-.1767v.1767m0-.5319V24.64m-.1776-.3552v.1776m.1776-.3552v.1776m-.3331-.1776v.1776m-.3543-.1776v.1776m-.1555-.3552v.1776m.3322-.1776v.1776m.3331-.1776v.1776m.1776-.3552V23.93m-.3331-.1776V23.93m-.3543-.1776V23.93m-.1555-.3542v.1766m.6653-.1766v.1766m-.3331-.5318v.1776m1.5312-.1776H13.129m.5107-.2218h-.6663M13.64,26.26v-.1776m0-.1776V25.727m.1776.1776v.1776m-.3331,0v-.1776m-.1776.3552v-.1776m0-.1776V25.727m0-.2v-.1556m0-.1776v-.2m.1776.7324v-.2m.3331.2v-.2m-.6883,0v.2m-.1556-.2v-.1556m.5108-.1776v.1776m-.3552-.1776v.1776m-.3322-.1776v.1776m.1766-.1776v-.2m-.1766-.1767v.1767m0-.5319V24.64m.1766-.3552v.1776m-.1766-.3552v.1776m.3322-.1776v.1776m.3552-.1776v.1776M13.64,23.93v.1776m-.3331-.1776v.1776m-.3332-.1776v.1776m-.1766-.3552V23.93m.3322-.1776V23.93m.3552-.1776V23.93m.1555-.3542v.1766m-.6663-.1766v.1766m.3332-.5318v.1776m-.6874,1.7962v-.2m0-.5319v-.1776m0,.5328V24.64m0-.5328V23.93m0-.1776v-.1766m0-.3552v-.1776m0-.1776v-.1776m-.8429.4656h.3543m.3331-.5318h.3331m.3322.5318h.3552"/><path class="d" d="M13.0848,26.26v-.4665c0-.0883-.0442-.3552-.4656-.3552-.3994,0-.4435.2669-.4435.3552V26.26Z"/><path class="d" d="M12.33,25.8154l-.2217-.0221c0-.0883.0221-.2218.0893-.2659l.2.1555A.2534.2534,0,0,0,12.33,25.8154Z"/><path class="d" d="M12.7075,25.5936l.1114-.2a.5326.5326,0,0,0-.2-.0441.5242.5242,0,0,0-.1776.0441l.11.2Z"/><path class="d" d="M12.9293,25.8154l.2217-.0221c0-.0883-.022-.2218-.0883-.2659l-.2.1555A.2517.2517,0,0,1,12.9293,25.8154Z"/><path class="d" d="M12.2861,25.04V24.551a.2439.2439,0,0,0-.4877,0V25.04Z"/><path class="d" d="M12.9734,25.04V24.551a.2444.2444,0,0,1,.4887,0V25.04Z"/><path class="d" d="M12.1306,23.8416l.022-.4435h-.4214l.0451.4435Z"/><path class="d" d="M12.7968,23.8416l.0442-.4435H12.42l.0221.4435Z"/><path class="d" d="M13.129,23.8416l-.0442-.4435h.4435l-.0441.4435Z"/><path class="q" d="M12.9293,26.26v-.3993a.2764.2764,0,0,0-.31-.2669.27.27,0,0,0-.289.2669V26.26Z"/><path class="q" d="M12.2419,24.9946v-.4215a.2007.2007,0,1,0-.3993,0v.4215Z"/><path class="q" d="M13.0186,24.9946v-.4215a.2007.2007,0,1,1,.3993,0v.4215Z"/><path class="l" d="M15.0269,27h4.8307V21.6509H15.0269Z"/><path class="r" d="M17.4893,22.969l.0048-.06.0086-.0326a.8972.8972,0,0,1-.2361-.0106.59.59,0,0,1-.23-.12c-.0759-.0652-.1056-.1056-.16-.1132a.3708.3708,0,0,0-.23.0384.4366.4366,0,0,1,.1709.1257.4713.4713,0,0,0,.1872.1469,2.081,2.081,0,0,0,.3091.0067c.0548.0029.1767.0183.1767.0183Z"/><path class="s" d="M18.2122,22.752s.0009.0691.0076.1344-.0211.119-.0105.1546a.5035.5035,0,0,0,.0288.0892.3563.3563,0,0,1,.02.09l-.071-.0519c-.0336-.0259-.0576-.0422-.0576-.0422l.01.0989a.2679.2679,0,0,0,.049.119.601.601,0,0,1,.1008.1277.47.47,0,0,1,.0134.1382s-.0442-.072-.0835-.0854a1.276,1.276,0,0,1-.121-.0595.2638.2638,0,0,1,.0759.1488.5152.5152,0,0,1-.0308.1536.4762.4762,0,0,0-.08-.1075,1.01,1.01,0,0,0-.1085-.0864.6019.6019,0,0,1,.05.1872c0,.0758-.0144.2371-.0144.2371a.4267.4267,0,0,0-.0758-.0922.7956.7956,0,0,1-.098-.0749.3385.3385,0,0,1,.0519.1114,1.024,1.024,0,0,0,.1843.45c.09.1316.2294.362.528.2861s.1882-.4771.1248-.6643a1.6809,1.6809,0,0,1-.09-.4675c.0038-.072.0556-.2851.0489-.3255a.81.81,0,0,1,.0135-.3148,1.6773,1.6773,0,0,1,.0912-.23.5873.5873,0,0,0,.0441-.1287,1.238,1.238,0,0,0,.0067-.1315s.0557.1018.07.1382a.6705.6705,0,0,1,.0135.144.2329.2329,0,0,1,.094-.16,1.3785,1.3785,0,0,0,.2045-.1382.2191.2191,0,0,0,.0317-.049.6456.6456,0,0,1-.0595.2563c-.0346.0471-.17.2007-.17.2007a.4743.4743,0,0,1,.118-.0288.483.483,0,0,1,.0836,0,.7329.7329,0,0,0-.1354.1574c-.0768.1114-.0451.121-.1008.2131s-.1008.096-.1709.1517c-.1036.0835-.048.4167-.0345.4666a4.323,4.323,0,0,1,.1987.5558.5287.5287,0,0,1-.1536.4608c-.1114.0912-.2947.0922-.337.1181a.3194.3194,0,0,0-.1238.2794.2419.2419,0,0,0,.11.2409c.0489.0423.1113.0192.1248.0528a.1925.1925,0,0,0,.0422.072.08.08,0,0,1,.0279.0787c-.0077.0365-.0874.1181-.1152.1776a1.432,1.432,0,0,0-.0836.2372.268.268,0,0,0,.0173.1315s.0874.1017.0279.1209c-.0384.0135-.0749-.024-.0932-.0192-.0518.0135-.08.0452-.094.0432-.0346-.0067-.0346-.024-.0384-.0729s-.001-.0691-.0164-.0691c-.0211,0-.0316.0172-.0355.0432s-.0038.0854-.0278.0854-.0586-.0432-.08-.0528-.08-.0192-.0835-.0461a.1168.1168,0,0,1,.0729-.0921c.0384-.01.073-.0288.049-.049a.0535.0535,0,0,0-.073,0c-.024.02-.0758.0038-.0729-.0259a.3486.3486,0,0,0,.0067-.0826c-.0029-.0163-.0451-.0489.01-.0787.0566-.03.0806.0259.1363.0163a.1354.1354,0,0,0,.1037-.0624.1327.1327,0,0,0-.0211-.144c-.0375-.0432-.0759-.05-.09-.0768a.9294.9294,0,0,1-.0345-.0883.7994.7994,0,0,1,.0038.1315.4017.4017,0,0,0-.0038.0855s-.0375-.0432-.0691-.0759a.4881.4881,0,0,1-.0624-.1315s-.0029.0922-.0029.1287.0413.0691.0278.0825-.08-.0691-.0979-.0825a.3686.3686,0,0,1-.0969-.1018.7766.7766,0,0,1-.049-.1354.4226.4226,0,0,1-.0067-.1516c.0172-.0384.0451-.1085.0451-.1085h-.1354c-.0729,0-.1248-.0221-.1526.0269a.4417.4417,0,0,0,.02.2764.6179.6179,0,0,1,.0461.2132.3051.3051,0,0,1-.0729.0854.1305.1305,0,0,1-.0874-.0029.2539.2539,0,0,0-.121-.0259.8091.8091,0,0,1-.1315-.0029c-.0249-.0067-.0845-.0365-.1123-.03s-.0758.0307-.0624.0691c.0211.0585-.02.072-.049.0691a.737.737,0,0,1-.0864-.023c-.0345-.0106-.0864,0-.08-.04s.0211-.0422.0384-.071c.0172-.0307.024-.05.0038-.0518a.089.089,0,0,0-.0672.0105c-.0192.0154-.049.049-.073.0365s-.0441-.0413-.0441-.1037-.0653-.1152-.0048-.1123.1353.0461.1488.0125.0057-.049-.0269-.0749-.073-.0413-.03-.0739a.83.83,0,0,0,.0711-.0519c.0163-.0172.0393-.0758.07-.0614.0595.0288.0019.07.0624.1363a.1907.1907,0,0,0,.1977.08c.1-.0106.1277-.023.1277-.0518a.92.92,0,0,0-.0115-.1.6155.6155,0,0,1,.0144-.095.2053.2053,0,0,0-.0605.0566c-.0125.0279-.04.0768-.04.0768a.5152.5152,0,0,1-.0077-.1046c.0019-.0279.0115-.0759.0106-.0855a.8222.8222,0,0,0-.0221-.09.5427.5427,0,0,1-.0269.09.4707.4707,0,0,0-.0154.1028.1622.1622,0,0,1-.046-.1488c.0124-.072-.0116-.1671.0105-.1978s.072-.1574.1978-.1622.2217.0048.2659.0028.1978-.0316.1978-.0316-.2852-.146-.3495-.19a.9538.9538,0,0,1-.1987-.2074.7958.7958,0,0,1-.0624-.1517.2476.2476,0,0,0-.0979.0279.4932.4932,0,0,0-.1191.095,1.0478,1.0478,0,0,0-.07.1008s.0076-.09.0076-.1181-.0057-.0825-.0057-.0825a.3533.3533,0,0,1-.097.1689c-.0653.0471-.1411.11-.1411.11s.0077-.0681.0077-.0844.0163-.0951.0163-.0951a.2091.2091,0,0,1-.1162.0826c-.071.0125-.1737.0105-.1824.0537s.0192.1028.0029.1335a.1577.1577,0,0,1-.0518.0518.1711.1711,0,0,0-.0759-.0365.14.14,0,0,0-.0681.0154s-.03-.0384-.0183-.0643.0644-.0634.0519-.08c-.0144-.0154-.0576.0058-.0845.0182s-.0845.026-.0787-.0182.0192-.0691.0048-.1-.0048-.0509.0173-.0586.1075.0019.1161-.0182-.0211-.0461-.0787-.0586-.0845-.047-.0547-.0749a.2.2,0,0,0,.0518-.0614c.0135-.0259.0192-.073.0711-.049s.04.08.095.097a.4068.4068,0,0,0,.2083-.0231c.0269-.0153.1143-.08.144-.095s.1546-.1075.1546-.1075-.073-.0509-.1008-.0768a.9.9,0,0,0-.1-.1008.8827.8827,0,0,0-.1843-.0615,1.0591,1.0591,0,0,1-.1651-.046.3534.3534,0,0,0,.0758-.0336c.0183-.0154.0615-.0538.0835-.0509l.0269.0019a1.2027,1.2027,0,0,1-.1411-.0125.7129.7129,0,0,0-.1219-.0518.5961.5961,0,0,0-.0806.0105.4621.4621,0,0,1,.1324-.0566.5851.5851,0,0,1,.1056-.0077.3063.3063,0,0,1-.1142-.0557c-.0211-.0316-.0432-.0768-.0595-.0979s-.0269-.0537-.0567-.0566-.0816.0365-.1113.0336-.0519-.0211-.0547-.0643,0-.0288-.01-.0519c-.0116-.023-.0548-.0768-.0144-.0893s.1276.0077.1363-.0076-.0461-.0624-.0816-.08-.0922-.049-.0624-.0749.0595-.0355.0758-.0586.0355-.0873.0711-.0672.0835.121.1113.1133.0288-.08.024-.11,0-.0845.0269-.08.049.0413.0922.0442.1084-.0106.1027.02a.2328.2328,0,0,1-.0595.1017.1548.1548,0,0,0-.024.144.38.38,0,0,0,.1113.1421c.0432.0278.1248.049.1767.0816a1.5783,1.5783,0,0,0,.2112.1392.519.519,0,0,1,.0816.0307.2971.2971,0,0,1,.1084-.02.9683.9683,0,0,0,.26-.0135c.0547-.023.1248-.0614.1037-.11s-.1411-.0921-.1306-.1305.0547-.0413.1277-.0442.1728.0134.192-.09c.0192-.1018.025-.1613-.0778-.1844s-.18-.0259-.1987-.1-.0374-.0931-.0163-.1133a.22.22,0,0,1,.1354-.0355.6143.6143,0,0,0,.1881-.024c.024-.0173.0288-.0662.0586-.0874a.6277.6277,0,0,1,.1468-.0384,1.9039,1.9039,0,0,1,.2688.1642,1.4712,1.4712,0,0,1,.2208.2141"/><path class="f" d="M16.824,23.3654a.2268.2268,0,0,0-.1056.0644.1789.1789,0,0,0-.0326.1027.18.18,0,0,1,.15-.0317c.0835.023.0922.0317.1277.0288a.77.77,0,0,0,.1219-.0336s-.071.0826-.0624.1392a.7077.7077,0,0,1,.0163.11.4428.4428,0,0,1-.0576.1546.3535.3535,0,0,1,.1008-.0336.4419.4419,0,0,0,.168-.0778.5465.5465,0,0,0,.0864-.0979.388.388,0,0,0,0,.1363.8.8,0,0,1,.0221.16.5167.5167,0,0,1,.0816-.0595.2616.2616,0,0,0,.0864-.0672.537.537,0,0,0,.0307-.1018.4.4,0,0,0,.0375.1287,1.0493,1.0493,0,0,1,.0672.167.4486.4486,0,0,1,.0576-.1161.2622.2622,0,0,0,.0672-.1028.3991.3991,0,0,0-.0077-.0816l.0374.0816m-1.0953.0586a.3693.3693,0,0,1,.0893-.1056c.0441-.025.1036-.071.12-.0768s.0864-.0442.0864-.0442m.095.4964s.1046-.0528.1354-.072a.3981.3981,0,0,0,.1113-.1076"/><path class="f" d="M18.1267,23.1264s-.0326-.0461-.04-.0624c-.0086-.0144-.0221-.0461-.0221-.0461"/><path class="f" d="M17.72,24.7114s.1958.1209.19.2217a.55.55,0,0,1-.1085.2314"/><path class="t" d="M17.2128,22.679s-.0163-.046-.0192-.0595a.13.13,0,0,0-.0115-.0278s.0845,0,.0816.0259-.0269.0259-.0327.0355a.1433.1433,0,0,1-.0182.0259Z"/><path class="t" d="M17.5978,22.5456l-.0058-.0413a.2351.2351,0,0,1,.1085.025.2678.2678,0,0,1,.0873.1008c-.01.0086-.0518-.0259-.0816-.0355a.234.234,0,0,1-.0432.0048.0334.0334,0,0,1-.0355-.02A.0643.0643,0,0,1,17.63,22.55Z"/><path class="t" d="M17.2157,23.0534l.0317-.0508.0326.047-.0643.0038"/><path class="t" d="M17.2934,23.0515l.0384-.0509.0413.0461-.08.0048"/><path class="t" d="M17.2589,22.7357l.0787.0278-.071.0365-.0077-.0643"/><path class="t" d="M17.3539,22.7616l.07.0173-.0566.0441-.0135-.0614"/><path class="r" d="M16.1405,22.6637a.2542.2542,0,0,0,.0816.0384.639.639,0,0,0,.0787.0048.1643.1643,0,0,0,.0106-.0874.1768.1768,0,0,0-.1248-.1411s.0316.07.0163.1027a.3079.3079,0,0,1-.0624.0826Z"/><path class="r" d="M15.9206,22.7635a.1342.1342,0,0,0-.1276-.0643.25.25,0,0,0-.144.0778.3734.3734,0,0,1,.12.0124.1418.1418,0,0,1,.046.0826.3356.3356,0,0,0,.0682-.0518c.0154-.02.0374-.0567.0374-.0567Z"/><path class="r" d="M15.815,23.064a.16.16,0,0,0-.1488.191.1641.1641,0,0,1,.0912-.0518.6385.6385,0,0,1,.1114.0154.3331.3331,0,0,1-.0211-.0768.2575.2575,0,0,0-.0327-.0778Z"/><path class="r" d="M16.0618,24.0355a.1264.1264,0,0,0-.1114-.0307.2064.2064,0,0,0-.1171.0931.2536.2536,0,0,1,.096-.0077.1176.1176,0,0,1,.0595.0432.3486.3486,0,0,0,.0432-.0432.6185.6185,0,0,0,.03-.0547Z"/><path class="r" d="M15.98,24.3206a.1541.1541,0,0,0-.1114.0317.18.18,0,0,0-.0538.12.1433.1433,0,0,1,.0874-.0355.3539.3539,0,0,1,.0835.0259s.0077-.0489.0106-.0614a.134.134,0,0,0-.0163-.0807Z"/><path class="r" d="M16.1194,24.5837a.21.21,0,0,0,.0316.1229.1776.1776,0,0,0,.1085.0566.4278.4278,0,0,1-.0269-.0768.0942.0942,0,0,1,.0327-.072.1228.1228,0,0,0-.07-.0365.6252.6252,0,0,0-.0758.0058Z"/><path class="r" d="M16.824,25.26a.1632.1632,0,0,0-.1162-.0595.2757.2757,0,0,0-.1392.0662s.0845-.0067.1066.0212a.7688.7688,0,0,1,.0432.0643.4481.4481,0,0,0,.0547-.0336.4711.4711,0,0,0,.0509-.0586Z"/><path class="r" d="M16.6157,25.5293a.1729.1729,0,0,0-.1335.0336.2091.2091,0,0,0-.04.1305s.0538-.0585.1027-.0537a.374.374,0,0,1,.1037.0307s-.0086-.0509-.0144-.0749-.0182-.0662-.0182-.0662Z"/><path class="r" d="M16.8086,25.8144s-.0441.0614-.0115.11a.2227.2227,0,0,0,.1008.072.0992.0992,0,0,1-.0134-.0768c.0086-.0326.0643-.0768.0643-.0768l-.14-.0288Z"/><path class="r" d="M17.999,25.9306a.2033.2033,0,0,0-.1219.0076c-.0432.025-.0787.1335-.0787.1335s.071-.0595.1229-.0519a.2976.2976,0,0,1,.0893.0288.2626.2626,0,0,0,.0019-.0748.231.231,0,0,0-.0135-.0432Z"/><path class="r" d="M18.0374,26.2176s-.0595.0614-.0384.1133a.6957.6957,0,0,0,.06.1056s-.002-.0768.022-.0979a.2046.2046,0,0,1,.1008-.0356.456.456,0,0,0-.0681-.0518C18.097,26.2464,18.0374,26.2176,18.0374,26.2176Z"/><path class="r" d="M18.336,26.3078a.1131.1131,0,0,0,.0269.1229.209.209,0,0,0,.1065.0547s-.0441-.0777-.0307-.118a.1525.1525,0,0,1,.0519-.0692.4335.4335,0,0,0-.0816-.0211c-.0106.0019-.073.0307-.073.0307Z"/><path class="d" d="M18.1565,22.34l-.0279.0019a.1416.1416,0,0,1-.0249.0336.06.06,0,0,1-.0826.0067.0395.0395,0,0,0-.0624-.04.0532.0532,0,0,1-.0134-.0759.0523.0523,0,0,1,.0105-.0172l-.0019-.0308-.0336.0077-.01.0183a.0411.0411,0,0,1-.08-.01.0356.0356,0,0,1-.0163.0105c-.0518.0125-.072-.1008-.0739-.13l-.0163.024a.416.416,0,0,1,.0077.1248.6732.6732,0,0,1-.0279.1143,1.105,1.105,0,0,1,.51.3907.7233.7233,0,0,1,.1132-.049.5363.5363,0,0,1,.1306-.0192l.0211-.02c-.0307.0048-.1517.01-.15-.0413a.0291.0291,0,0,1,.0076-.0173.0668.0668,0,0,1-.0288-.0058c-.0172-.0124-.0172-.0412.002-.0662l.0172-.0125.001-.0326-.0326.0048-.0144.0125a.0609.0609,0,0,1-.0826.0028.04.04,0,0,1-.0105-.0441.056.056,0,0,1-.0433-.0048.0525.0525,0,0,1-.0105-.0768.1244.1244,0,0,1,.03-.0307l-.0068-.0288Z"/><path class="t" d="M17.9405,22.4064c.0048-.0067.0144-.0058.0221,0a.0154.0154,0,0,1,.0057.02.0165.0165,0,0,1-.023-.001c-.0067-.0048-.01-.0144-.0048-.0192Z"/><path class="t" d="M18.0317,22.4822,18,22.4582a.0113.0113,0,0,1-.0038-.0153.014.014,0,0,1,.0172,0l.0317.0249.0317.024c.0048.0039.0077.0116.0038.0154a.0143.0143,0,0,1-.0172,0l-.0317-.025"/><path class="t" d="M17.8646,22.368l-.0249-.0144a.0128.0128,0,0,1-.0067-.0163.0116.0116,0,0,1,.0163-.0019l.0249.0153.025.0144a.0135.0135,0,0,1,.0067.0154.0117.0117,0,0,1-.0163.0019l-.025-.0144"/><path class="t" d="M17.7648,22.3a.0175.0175,0,0,1,.023,0c.0077.0068.01.0154.0048.0212a.0173.0173,0,0,1-.022-.001.0153.0153,0,0,1-.0058-.02Z"/><path class="t" d="M18.1325,22.5523c.0048-.0048.0029-.0134-.0048-.02a.0174.0174,0,0,0-.0231,0,.0153.0153,0,0,0,.0058.02.0161.0161,0,0,0,.0221,0Z"/><path class="t" d="M18.1872,22.6157l.0211.02a.0135.0135,0,0,0,.0173.0029.0108.0108,0,0,0-.001-.0153l-.02-.02-.0211-.02c-.0048-.0048-.0135-.0067-.0173-.0028s-.0039.01.0009.0153l.02.02"/><path class="t" d="M18.2784,22.6934a.0139.0139,0,0,0-.0048-.02.0155.0155,0,0,0-.0221-.001c-.0048.0058-.0029.0144.0048.0211A.0172.0172,0,0,0,18.2784,22.6934Z"/><path class="d" d="M18.0144,22.1146l-.0566.0009-.0106.0835.0058.0135.0144-.001.0729-.0489-.0259-.048"/><path class="d" d="M18.0144,22.1146l-.0566.0009-.0106.0835.0058.0135.0144-.001.0729-.0489-.0259-.048"/><path class="d" d="M17.8608,22.1606l-.0019.0519.0883.0115.0144-.0067-.0019-.0144-.0509-.0682-.048.0259"/><path class="d" d="M18.0432,22.2643l-.047.0259-.0519-.0681-.0009-.0144.0134-.0058.0893.0106-.0029.0518"/><path class="d" d="M17.929,22.2a.0275.0275,0,0,1,.0374-.0086.0247.0247,0,0,1,.01.0355.0276.0276,0,0,1-.0374.0086A.0248.0248,0,0,1,17.929,22.2Z"/><path class="d" d="M17.7226,22.1136c-.002.001-.0125-.0442-.025-.0682a.1494.1494,0,0,0-.0374-.0412.08.08,0,0,1,.0835.0086c.0365.03-.0029.0835-.0029.0835a.0508.0508,0,0,1-.0182.0173Z"/><path class="d" d="M17.8214,22.1434l-.04.0355-.0653-.0576.0058-.0077.0029-.0144.0883-.0067.0086.0509"/><path class="d" d="M17.711,22.1078a.0245.0245,0,0,1,.0269-.0192c.0106.0039.0144.0173.01.0317a.0248.0248,0,0,1-.0278.0192C17.7091,22.1357,17.7053,22.1222,17.711,22.1078Z"/><path class="d" d="M18.2323,22.25l-.0566-.0057-.024.0816.0048.0134.0144.001.08-.0394-.0183-.0509"/><path class="d" d="M18.073,22.2749l-.01.0518.0864.0221.0144-.0038.0009-.0135-.0413-.0758-.0508.0192"/><path class="d" d="M18.2381,22.4026l-.0509.0192-.04-.0749.0009-.0144.0144-.0029.0855.0221-.01.0509"/><path class="d" d="M18.1344,22.3238a.0284.0284,0,0,1,.0384-.0038.0244.0244,0,0,1,.0048.0365.0294.0294,0,0,1-.0394.0038.0251.0251,0,0,1-.0038-.0365Z"/><path class="d" d="M18.4214,22.4266l.0106.0528-.0835.0288-.0154-.0039-.0009-.0134.0345-.0778.0547.0135"/><path class="d" d="M18.407,22.5792l-.0537.0125-.03-.08.0039-.0144.0144-.0019.0816.0336-.0164.05"/><path class="d" d="M18.2611,22.4314l-.0173.05.0816.0326.0154-.0019.0029-.0134-.0288-.08-.0538.0125"/><path class="d" d="M18.3514,22.5245a.0262.0262,0,0,0,.0019-.0375.0307.0307,0,0,0-.0394-.0019.0262.0262,0,0,0-.0009.0375.0283.0283,0,0,0,.0384.0019Z"/><path class="d" d="M18.4838,22.6973c0,.0009.048.0029.0759.0086a.1845.1845,0,0,1,.05.0259c.0058-.0038.0115-.04-.0269-.0758-.0374-.0269-.0845.0211-.0845.0211a.0715.0715,0,0,0-.0144.02Z"/><path class="d" d="M18.432,22.6118l-.0278.0442.0729.049.0087-.0077.0124-.0039-.0115-.0844-.0547.0028"/><path class="d" d="M18.4915,22.7069c.0135-.0067.02-.0211.0144-.03a.0266.0266,0,0,0-.0345-.0019c-.0135.0077-.0192.0211-.0135.03S18.4781,22.7146,18.4915,22.7069Z"/><ellipse class="h" cx="15.0413" cy="26.977" rx="1.561" ry="1.7568"/><ellipse class="k" cx="15.0422" cy="26.9731" rx="1.0982" ry="1.2883"/><path class="g" d="M14.5229,26.087a.5084.5084,0,0,0-.13.2746.6112.6112,0,0,0,.0547.2438.1436.1436,0,0,0-.1354-.09.14.14,0,0,0-.144.1363.2011.2011,0,0,0,.0231.0739l.047.0951a.0976.0976,0,0,1,.0941-.0547.1008.1008,0,0,1,.1037.0969.0657.0657,0,0,1-.0039.024l-.1171.001v.0989H14.42l-.0778.1545.1027-.04.0778.0874.0806-.0874.1027.04-.0768-.1545h.1037v-.0989l-.1171-.001a.1038.1038,0,0,1,.1939-.0662l.0471-.0951a.201.201,0,0,0,.023-.0739.14.14,0,0,0-.143-.1363.1416.1416,0,0,0-.1354.09.6112.6112,0,0,0,.0547-.2438.5034.5034,0,0,0-.1334-.2746Z"/><path class="d" d="M14.3155,26.9866h.4186v-.0989h-.4186Z"/><path class="g" d="M15.5434,26.087a.5084.5084,0,0,0-.13.2746.6112.6112,0,0,0,.0547.2438.1436.1436,0,0,0-.1354-.09.14.14,0,0,0-.144.1363.2011.2011,0,0,0,.0231.0739l.047.0951a.0975.0975,0,0,1,.0941-.0547.1008.1008,0,0,1,.1037.0969.0657.0657,0,0,1-.0039.024l-.1171.001v.0989h.1046l-.0777.1545.1027-.04.0778.0874.0806-.0874.1027.04-.0768-.1545h.1037v-.0989l-.1171-.001a.1038.1038,0,0,1,.1939-.0662l.047-.0951a.2011.2011,0,0,0,.0231-.0739.14.14,0,0,0-.1431-.1363.1416.1416,0,0,0-.1353.09.6112.6112,0,0,0,.0547-.2438.5034.5034,0,0,0-.1334-.2746Z"/><path class="d" d="M15.336,26.9866h.4186v-.0989H15.336Z"/><path class="g" d="M15.0326,26.9645a.5084.5084,0,0,0-.13.2745.6105.6105,0,0,0,.0548.2439.1437.1437,0,0,0-.1354-.09.14.14,0,0,0-.144.1364.2016.2016,0,0,0,.023.0739l.0471.095a.0974.0974,0,0,1,.0941-.0547.1007.1007,0,0,1,.1036.097.066.066,0,0,1-.0038.024l-.1171.0009v.0989H14.93l-.0777.1546.1027-.04.0777.0874.0807-.0874.1027.04-.0768-.1546h.1037v-.0989l-.1171-.0009a.0938.0938,0,0,1-.002-.024.0991.0991,0,0,1,.1018-.097.0976.0976,0,0,1,.0941.0547l.047-.095a.2017.2017,0,0,0,.0231-.0739.14.14,0,0,0-.1431-.1364.1417.1417,0,0,0-.1353.09.6114.6114,0,0,0,.0547-.2439.5033.5033,0,0,0-.1335-.2745Z"/><path class="d" d="M14.8253,27.864h.4185v-.0989h-.4185Z"/></svg>