<?xml version="1.0" encoding="utf-8"?>
<!-- Generator: Adobe Illustrator 24.0.1, SVG Export Plug-In . SVG Version: 6.00 Build 0)  -->
<svg version="1.1"
	 id="svg1306" xmlns:cc="http://creativecommons.org/ns#" xmlns:dc="http://purl.org/dc/elements/1.1/" xmlns:inkscape="http://www.inkscape.org/namespaces/inkscape" xmlns:rdf="http://www.w3.org/1999/02/22-rdf-syntax-ns#" xmlns:sodipodi="http://sodipodi.sourceforge.net/DTD/sodipodi-0.dtd" xmlns:svg="http://www.w3.org/2000/svg"
	 xmlns="http://www.w3.org/2000/svg" xmlns:xlink="http://www.w3.org/1999/xlink" x="0px" y="0px" viewBox="0 0 48 48"
	 style="enable-background:new 0 0 48 48;" xml:space="preserve">
<style type="text/css">
	.st0{fill-rule:evenodd;clip-rule:evenodd;fill:#FEFEFE;}
	.st1{fill-rule:evenodd;clip-rule:evenodd;fill:#C8102E;}
	.st2{fill-rule:evenodd;clip-rule:evenodd;fill:#012169;}
</style>
<g>
	<ellipse class="st0" cx="24" cy="24" rx="23.9" ry="24"/>
	<path class="st1" d="M35.1,17.4l9-6.2c-0.5-0.7-1-1.5-1.5-2.1l-12.1,8.3C30.5,17.4,35.1,17.4,35.1,17.4z"/>
	<path class="st1" d="M34.1,31.6l9.2,6.4c0.5-0.7,1-1.4,1.4-2.2l-6-4.2C38.7,31.6,34.1,31.6,34.1,31.6z"/>
	<path class="st1" d="M3.1,12.3l7.3,5.1H15L4.5,10C4,10.8,3.5,11.5,3.1,12.3z"/>
	<path class="st1" d="M14,31.6l-9.4,6.5c0.5,0.7,1.1,1.4,1.7,2l12.3-8.5C18.6,31.6,14,31.6,14,31.6z"/>
	<path class="st2" d="M29.2,0.6v15.5l12.2-8.4C38.2,4.2,34,1.7,29.2,0.6z"/>
	<path class="st2" d="M6.6,7.5l12.5,8.7V0.5C14.3,1.5,9.9,4,6.6,7.5z"/>
	<path class="st2" d="M45.7,14.3l-4.4,3.1h5.6C46.6,16.3,46.2,15.3,45.7,14.3z"/>
	<path class="st2" d="M46.6,31.6h-5.3l4.1,2.8C45.9,33.5,46.2,32.6,46.6,31.6z"/>
	<path class="st2" d="M19.1,47.5V32.8l-12,8.3C10.4,44.3,14.5,46.6,19.1,47.5z"/>
	<path class="st2" d="M40.9,40.9l-11.6-8v14.6C33.7,46.3,37.7,44,40.9,40.9z"/>
	<path class="st2" d="M2.5,34.7L7,31.6H1.2C1.6,32.7,2,33.7,2.5,34.7z"/>
	<path class="st2" d="M0.9,17.4H7L2.2,14C1.7,15.1,1.3,16.2,0.9,17.4z"/>
	<path class="st1" d="M21.2,0.2v20H0.3C0.1,21.4,0,22.7,0,24c0,1.6,0.2,3.2,0.5,4.8h20.7v19.1c0.9,0,1.8,0.1,2.8,0.1
		c1.1,0,2.3-0.1,3.4-0.2v-19h20.2c0.3-1.5,0.5-3.1,0.5-4.8c0-1.3-0.1-2.6-0.3-3.8H27.2v-20C26.1,0.1,24.9,0,24,0
		C23,0,22.1,0.1,21.2,0.2z"/>
</g>
</svg>
