<svg xmlns="http://www.w3.org/2000/svg" viewBox="0 0 48 48"><defs><style>.a{fill:#fff;}.b{fill:red;}</style></defs><title>fi_ge</title><circle class="a" cx="24" cy="24" r="24"/><path class="b" d="M48,24a23.7419,23.7419,0,0,1-.27,3.6H27.6V42H20.4V27.6H.27a24.135,24.135,0,0,1,0-7.2H20.4V6h7.2V20.4H47.73A23.7419,23.7419,0,0,1,48,24Z"/><path class="b" d="M12.3825,14.4675a18.0282,18.0282,0,0,0-2.76-.345,18.0282,18.0282,0,0,0,.345,2.76,9.5625,9.5625,0,0,0-2.535,0,18.0282,18.0282,0,0,0,.345-2.76,18.0282,18.0282,0,0,0-2.76.345,9.5625,9.5625,0,0,0,0-2.535,18.0282,18.0282,0,0,0,2.76.345,18.0282,18.0282,0,0,0-.345-2.76,9.5625,9.5625,0,0,0,2.535,0,18.0282,18.0282,0,0,0-.345,2.76,18.0282,18.0282,0,0,0,2.76-.345A9.5625,9.5625,0,0,0,12.3825,14.4675Z"/><path class="b" d="M42.9825,14.4675a18.0282,18.0282,0,0,0-2.76-.345,18.0282,18.0282,0,0,0,.345,2.76,9.5625,9.5625,0,0,0-2.535,0,18.0282,18.0282,0,0,0,.345-2.76,18.0282,18.0282,0,0,0-2.76.345,9.5625,9.5625,0,0,0,0-2.535,18.0282,18.0282,0,0,0,2.76.345,18.0282,18.0282,0,0,0-.345-2.76,9.5625,9.5625,0,0,0,2.535,0,18.0282,18.0282,0,0,0-.345,2.76,18.0282,18.0282,0,0,0,2.76-.345A9.5625,9.5625,0,0,0,42.9825,14.4675Z"/><path class="b" d="M12.3825,36.0675a18.0282,18.0282,0,0,0-2.76-.345,18.0282,18.0282,0,0,0,.345,2.76,9.5625,9.5625,0,0,0-2.535,0,18.0282,18.0282,0,0,0,.345-2.76,18.0282,18.0282,0,0,0-2.76.345,9.5625,9.5625,0,0,0,0-2.535,18.0282,18.0282,0,0,0,2.76.345,18.0282,18.0282,0,0,0-.345-2.76,9.5625,9.5625,0,0,0,2.535,0,18.0282,18.0282,0,0,0-.345,2.76,18.0282,18.0282,0,0,0,2.76-.345A9.5625,9.5625,0,0,0,12.3825,36.0675Z"/><path class="b" d="M42.9825,36.0675a18.0282,18.0282,0,0,0-2.76-.345,18.0282,18.0282,0,0,0,.345,2.76,9.5625,9.5625,0,0,0-2.535,0,18.0282,18.0282,0,0,0,.345-2.76,18.0282,18.0282,0,0,0-2.76.345,9.5625,9.5625,0,0,0,0-2.535,18.0282,18.0282,0,0,0,2.76.345,18.0282,18.0282,0,0,0-.345-2.76,9.5625,9.5625,0,0,0,2.535,0,18.0282,18.0282,0,0,0-.345,2.76,18.0282,18.0282,0,0,0,2.76-.345A9.5625,9.5625,0,0,0,42.9825,36.0675Z"/></svg>