<svg xmlns="http://www.w3.org/2000/svg" viewBox="0 0 48 48"><defs><style>.a{fill:#cd1125;}.a,.b,.c{fill-rule:evenodd;}.b{fill:#fff;}.d{fill:#017b3d;}</style></defs><title>fi_iq</title><path class="a" d="M1.3971,16H46.6029A23.9653,23.9653,0,0,0,1.3971,16Z"/><path class="b" d="M1.3971,32H46.6029a23.6031,23.6031,0,0,0,0-16H1.3971a23.6031,23.6031,0,0,0,0,16Z"/><path class="c" d="M46.5031,32H1.3971a23.8949,23.8949,0,0,0,45.106,0Z"/><path class="d" d="M23.5394,27.3636H11.8121a1.6945,1.6945,0,0,1-1.904,1.3528,2.0023,2.0023,0,0,1-.3081-.05c1.6424-.8061,1.5394-1.6243.503-3.4425a4.0689,4.0689,0,0,0,1.2485-.6545c-.4121,1.2485,1.0667,1.097,2.1576,1.097,0-.4364.0424-.9334-.2849-1,.4243-.1515.4606-.2,1.1334-.77v1.6788h8.0909V24.4242a.2425.2425,0,0,0-.4849,0v.6667a.1818.1818,0,0,1-.1818.1818H15.6V24.1818l4.6424-4.4848c-.03.23.4485.8485.6485.9515-.1515.0242-.3212-.0061-.43.103l-3.8,3.6727h4.2121c0-.9757.9091-.9757,1.3334-1.3212.4242.3455,1.3333.3455,1.3333,1.3212Zm.8788,0V19.697a5.0809,5.0809,0,0,0,1.297.6424c-.0243.303-.297.4-.297.6121v4.7152c.5939.1333.7273-.2122,1.0121-.3879.0727.7515.5515,1.4909.5333,2.0848ZM32.43,22.2424l.9394-.7879v4.1213h.6667V20.8909a3.8655,3.8655,0,0,0,.9394-.9151v7.3878H29.0667c-.0849-1.5272-.0849-3.0969,1.6969-2.7575v-.6243c0-.1454-.2181-.03-.2181-.1636L31.7636,22.8v2.7758H32.43Zm-.3091-2.1091c-.1151.0061-.2909-.6242-.2485-.7454a.1621.1621,0,0,1,.2667-.0727C32.2485,19.4182,32.2364,20.1273,32.1212,20.1333Zm-1.097.8546c-.3333-.194-.2787-.2727.0122-.1879a.952.952,0,0,0,1.1212-.3455l.2727.1394c.3576.1819.5758.1031.703-.3333.0364-.1333.1455-.097.1758.0546.1151.606-.3455.7939-.8121.6242-.2546-.0849-.297-.0849-.4243.0121A.9156.9156,0,0,1,31.0242,20.9879Zm4.83,6.3757V19.697a5.0825,5.0825,0,0,0,1.297.6424c-.0242.303-.297.4-.297.6121v4.7152c.594.1333.7273-.2122,1.0122-.3879.0727.7515.5515,1.4909.5333,2.0848Zm-22.9757.8485a.3576.3576,0,1,1,.3576.3576A.3576.3576,0,0,1,12.8788,28.2121Zm17.3394-2.7879a.2835.2835,0,1,0,.2727-.206A.2465.2465,0,0,0,30.2182,25.4242Z"/></svg>