<svg xmlns="http://www.w3.org/2000/svg" viewBox="0 0 48 48"><defs><style>.a{fill:#fff;}.b{fill:#f15b25;}.b,.c{fill-rule:evenodd;}.c{fill:#006934;}.d{fill:#2c2c6f;}</style></defs><title>fi_in</title><circle class="a" cx="24" cy="24" r="24"/><path class="b" d="M1.4,16H46.7A24.0319,24.0319,0,0,0,1.4,16Z"/><path class="c" d="M46.6,32H1.4a23.9613,23.9613,0,0,0,45.2,0Z"/><circle class="d" cx="24" cy="24" r="7.4"/><circle class="a" cx="24" cy="24" r="6.4"/><circle class="d" cx="24" cy="24" r="1.28"/><path class="d" d="M19.4745,28.5255l2.5536-2.893,1.518-1.1786-1.1786,1.518Z"/><circle class="d" cx="18.9225" cy="27.8961" r="0.28"/><path class="d" d="M28.5255,19.4745l-2.5536,2.893-1.518,1.1786,1.1786-1.518Z"/><circle class="d" cx="29.0775" cy="20.1039" r="0.28"/><path class="d" d="M20.8,29.5426l1.7178-3.4553,1.1613-1.5314-.7456,1.7714Z"/><circle class="d" cx="20.1039" cy="29.0775" r="0.28"/><path class="d" d="M27.2,18.4574l-1.7178,3.4553-1.1613,1.5314.7456-1.7714Z"/><circle class="d" cx="27.8961" cy="18.9225" r="0.28"/><path class="d" d="M22.3436,30.1819,23.1085,26.4l.7254-1.78-.2617,1.904Z"/><circle class="d" cx="21.5508" cy="29.9128" r="0.28"/><path class="d" d="M25.6564,17.8181,24.8915,21.6l-.7254,1.78.2617-1.904Z"/><circle class="d" cx="26.4492" cy="18.0872" r="0.28"/><path class="d" d="M24,17.6l.24,3.8513L24,23.3581l-.24-1.9068Z"/><circle class="d" cx="24.8354" cy="17.6548" r="0.28"/><path class="d" d="M24,30.4l-.24-3.8513L24,24.6419l.24,1.9068Z"/><circle class="d" cx="23.1646" cy="30.3452" r="0.28"/><path class="d" d="M17.8181,22.3436l3.7821.7649,1.78.7254-1.904-.2617Z"/><circle class="d" cx="18.0872" cy="21.5508" r="0.28"/><path class="d" d="M30.1819,25.6564,26.4,24.8915l-1.78-.7254,1.904.2617Z"/><circle class="d" cx="29.9128" cy="26.4492" r="0.28"/><path class="d" d="M17.6,24l3.8513-.24,1.9068.24-1.9068.24Z"/><circle class="d" cx="17.6548" cy="23.1646" r="0.28"/><path class="d" d="M30.4,24l-3.8513.24L24.6419,24l1.9068-.24Z"/><circle class="d" cx="30.3452" cy="24.8354" r="0.28"/><path class="d" d="M17.8181,25.6564l3.6579-1.2286,1.904-.2617-1.78.7254Z"/><circle class="d" cx="17.6548" cy="24.8354" r="0.28"/><path class="d" d="M30.1819,22.3436,26.524,23.5722l-1.904.2617,1.78-.7254Z"/><circle class="d" cx="30.3452" cy="23.1646" r="0.28"/><path class="d" d="M18.4574,27.2l3.2153-2.1335,1.7714-.7456-1.5314,1.1613Z"/><circle class="d" cx="18.0872" cy="26.4492" r="0.28"/><path class="d" d="M29.5426,20.8l-3.2153,2.1335-1.7714.7456,1.5314-1.1613Z"/><circle class="d" cx="29.9128" cy="21.5508" r="0.28"/><path class="d" d="M19.4745,19.4745l2.893,2.5536,1.1786,1.518-1.518-1.1786Z"/><circle class="d" cx="20.1039" cy="18.9225" r="0.28"/><path class="d" d="M28.5255,28.5255l-2.893-2.5536-1.1786-1.518,1.518,1.1786Z"/><circle class="d" cx="27.8961" cy="29.0775" r="0.28"/><path class="d" d="M18.4574,20.8l3.4553,1.7178,1.5314,1.1613-1.7714-.7456Z"/><circle class="d" cx="18.9225" cy="20.1039" r="0.28"/><path class="d" d="M29.5426,27.2l-3.4553-1.7178-1.5314-1.1613,1.7714.7456Z"/><circle class="d" cx="29.0775" cy="27.8961" r="0.28"/><path class="d" d="M27.2,29.5426l-2.1335-3.2153-.7456-1.7714,1.1613,1.5314Z"/><circle class="d" cx="26.4492" cy="29.9128" r="0.28"/><path class="d" d="M20.8,18.4574l2.1335,3.2153.7456,1.7714-1.1613-1.5314Z"/><circle class="d" cx="21.5508" cy="18.0872" r="0.28"/><path class="d" d="M25.6564,30.1819,24.4278,26.524l-.2617-1.904.7254,1.78Z"/><circle class="d" cx="24.8354" cy="30.3452" r="0.28"/><path class="d" d="M22.3436,17.8181l1.2286,3.6579.2617,1.904-.7254-1.78Z"/><circle class="d" cx="23.1646" cy="17.6548" r="0.28"/></svg>