<?xml version="1.0" encoding="utf-8"?>
<!-- Generator: Adobe Illustrator 24.0.1, SVG Export Plug-In . SVG Version: 6.00 Build 0)  -->
<svg version="1.1"
	 id="svg1306" xmlns:cc="http://creativecommons.org/ns#" xmlns:dc="http://purl.org/dc/elements/1.1/" xmlns:inkscape="http://www.inkscape.org/namespaces/inkscape" xmlns:rdf="http://www.w3.org/1999/02/22-rdf-syntax-ns#" xmlns:sodipodi="http://sodipodi.sourceforge.net/DTD/sodipodi-0.dtd" xmlns:svg="http://www.w3.org/2000/svg"
	 xmlns="http://www.w3.org/2000/svg" xmlns:xlink="http://www.w3.org/1999/xlink" x="0px" y="0px" viewBox="0 0 48 48"
	 style="enable-background:new 0 0 48 48;" xml:space="preserve">
<style type="text/css">
	.st0{fill:#02529C;}
	.st1{fill:#FFFFFF;}
	.st2{fill:#DC1E35;}
</style>
<circle class="st0" cx="24" cy="24" r="24"/>
<path class="st1" d="M48,24c0,1.8-0.2,3.6-0.6,5.3H20v18.3C16,47,12.4,45.3,9.3,43V29.3H0.6C0.2,27.6,0,25.8,0,24s0.2-3.6,0.6-5.3
	h8.7V5C12.4,2.7,16,1,20,0.3v18.3h27.4C47.8,20.4,48,22.2,48,24z"/>
<path class="st2" d="M48,24c0,0.9,0,1.8-0.2,2.7H17.3V47c-1.9-0.5-3.7-1.3-5.3-2.3V26.7H0.2C0,25.8,0,24.9,0,24s0-1.8,0.2-2.7H12
	V3.2c1.7-1,3.5-1.7,5.3-2.3v20.4h30.5C48,22.2,48,23.1,48,24z"/>
</svg>
