<svg xmlns="http://www.w3.org/2000/svg" viewBox="0 0 48 48"><defs><style>.a{fill:#da0000;}.b{fill:#fff;}.c{fill:#239f40;}</style></defs><title>fi_ir</title><circle class="a" cx="24" cy="24" r="24"/><path class="b" d="M48,24a23.5946,23.5946,0,0,1-1.38,8H1.38A23.5946,23.5946,0,0,1,0,24a24,24,0,0,1,48,0Z"/><path class="c" d="M46.62,16H1.38a23.99,23.99,0,0,1,45.24,0Z"/><path class="b" d="M5.1467,16.3733h-3.36v-.7466h3.36Z"/><path class="b" d="M5.1467,32.3733h-3.36v-.7466h3.36Z"/><path class="b" d="M12.6135,15.2533H10.7467v-.7467h-1.12V14.88h.7466v.3733h-1.12v-1.12h1.4934v-.7466H11.12V14.88h.3732V13.3867h.3734V14.88H12.24V13.3867h.3734Zm-3.7333,0H7.0134v-.7467h-1.12v.7467H5.52v-1.12H7.3868V14.88h1.12v-.3734H7.76v-.3733H8.88Zm-2.24,0H6.2667V14.88H6.64ZM10.3734,13.76H5.52v-.3733h4.8533Z"/><path class="b" d="M12.6134,16.3733h-3.36v-.7466h3.36Zm-3.7334,0H5.52v-.7466H8.88Z"/><path class="b" d="M12.6134,32.3733h-3.36v-.7466h3.36Zm-3.7334,0H5.52v-.7466H8.88Z"/><path class="b" d="M12.6135,34.6134H10.7467v-.7467h-1.12V34.24h.7466v.3734h-1.12v-1.12h1.4934v-.7466H11.12V34.24h.3732V32.7466h.3734V34.24H12.24V32.7466h.3734Zm-3.7333,0H7.0134v-.7467h-1.12v.7466H5.52v-1.12H7.3868V34.24h1.12v-.3733H7.76v-.3735H8.88Zm-2.24,0H6.2667V34.24H6.64ZM10.3734,33.12H5.52v-.3735h4.8533Z"/><path class="b" d="M20.08,15.2533H18.2134v-.7467h-1.12V14.88H17.84v.3733H16.72v-1.12h1.4934v-.7466h.3734V14.88H18.96V13.3867h.3734V14.88h.3733V13.3867H20.08Zm-3.7334,0H14.48v-.7467H13.36v.7467h-.3734v-1.12h1.8668V14.88h1.12v-.3734h-.7466v-.3733h1.12Zm-2.24,0h-.3733V14.88h.3733ZM17.84,13.76H12.9868v-.3733H17.84Z"/><path class="b" d="M20.08,16.3733H16.72v-.7466h3.36Zm-3.7333,0h-3.36v-.7466h3.36Z"/><path class="b" d="M20.08,32.3733H16.72v-.7466h3.36Zm-3.7333,0h-3.36v-.7466h3.36Z"/><path class="b" d="M20.08,34.6134H18.2134v-.7467h-1.12V34.24H17.84v.3734H16.72v-1.12h1.4934v-.7466h.3734V34.24H18.96V32.7466h.3734V34.24h.3733V32.7466H20.08Zm-3.7334,0H14.48v-.7467H13.36v.7466h-.3734v-1.12h1.8668V34.24h1.12v-.3733h-.7466v-.3735h1.12Zm-2.24,0h-.3733V34.24h.3733ZM17.84,33.12H12.9868v-.3735H17.84Z"/><path class="b" d="M27.5468,15.2533H25.68v-.7467H24.56V14.88h.7466v.3733h-1.12v-1.12H25.68v-.7466h.3735V14.88h.3731V13.3867H26.8V14.88h.3733V13.3867h.3734Zm-3.7333,0H21.9467v-.7467h-1.12v.7467h-.3735v-1.12H22.32V14.88h1.12v-.3734h-.7467v-.3733h1.12Zm-2.24,0H21.2V14.88h.3733ZM25.3067,13.76H20.4535v-.3733h4.8532Z"/><path class="b" d="M27.5467,16.3733h-3.36v-.7466h3.36Zm-3.7333,0h-3.36v-.7466h3.36Z"/><path class="b" d="M27.5467,32.3733h-3.36v-.7466h3.36Zm-3.7333,0h-3.36v-.7466h3.36Z"/><path class="b" d="M27.5468,34.6134H25.68v-.7467H24.56V34.24h.7466v.3734h-1.12v-1.12H25.68v-.7466h.3735V34.24h.3731V32.7466H26.8V34.24h.3733V32.7466h.3734Zm-3.7333,0H21.9467v-.7467h-1.12v.7466h-.3735v-1.12H22.32V34.24h1.12v-.3733h-.7467v-.3735h1.12Zm-2.24,0H21.2V34.24h.3733ZM25.3067,33.12H20.4535v-.3735h4.8532Z"/><path class="b" d="M35.0135,15.2533H33.1467v-.7467h-1.12V14.88h.7466v.3733h-1.12v-1.12h1.4934v-.7466H33.52V14.88h.3732V13.3867h.3734V14.88H34.64V13.3867h.3734Zm-3.7333,0H29.4134v-.7467h-1.12v.7467H27.92v-1.12h1.8668V14.88h1.12v-.3734H30.16v-.3733h1.12Zm-2.24,0h-.3734V14.88H29.04ZM32.7734,13.76H27.92v-.3733h4.8533Z"/><path class="b" d="M35.0134,16.3733h-3.36v-.7466h3.36Zm-3.7334,0H27.92v-.7466h3.36Z"/><path class="b" d="M35.0134,32.3733h-3.36v-.7466h3.36Zm-3.7334,0H27.92v-.7466h3.36Z"/><path class="b" d="M35.0135,34.6134H33.1467v-.7467h-1.12V34.24h.7466v.3734h-1.12v-1.12h1.4934v-.7466H33.52V34.24h.3732V32.7466h.3734V34.24H34.64V32.7466h.3734Zm-3.7333,0H29.4134v-.7467h-1.12v.7466H27.92v-1.12h1.8668V34.24h1.12v-.3733H30.16v-.3735h1.12Zm-2.24,0h-.3734V34.24H29.04ZM32.7734,33.12H27.92v-.3735h4.8533Z"/><path class="b" d="M42.48,15.2533H40.6134v-.7467h-1.12V14.88H40.24v.3733H39.12v-1.12h1.4934v-.7466h.3734V14.88H41.36V13.3867h.3734V14.88h.3733V13.3867H42.48Zm-3.7334,0H36.88v-.7467H35.76v.7467h-.3734v-1.12h1.8668V14.88h1.12v-.3734h-.7466v-.3733h1.12Zm-2.24,0h-.3733V14.88h.3733ZM40.24,13.76H35.3868v-.3733H40.24Z"/><path class="b" d="M42.48,16.3733H39.12v-.7466h3.36Zm-3.7333,0h-3.36v-.7466h3.36Z"/><path class="b" d="M42.48,32.3733H39.12v-.7466h3.36Zm-3.7333,0h-3.36v-.7466h3.36Z"/><path class="b" d="M42.48,34.6134H40.6134v-.7467h-1.12V34.24H40.24v.3734H39.12v-1.12h1.4934v-.7466h.3734V34.24H41.36V32.7466h.3734V34.24h.3733V32.7466H42.48Zm-3.7334,0H36.88v-.7467H35.76v.7466h-.3734v-1.12h1.8668V34.24h1.12v-.3733h-.7466v-.3735h1.12Zm-2.24,0h-.3733V34.24h.3733ZM40.24,33.12H35.3868v-.3735H40.24Z"/><path class="b" d="M43.6,14.88v.37h.37v-.37Z"/><path class="b" d="M46.2134,16.3733h-3.36v-.7466h3.36Z"/><path class="b" d="M46.2134,32.3733h-3.36v-.7466h3.36Z"/><path class="b" d="M43.6,34.24v.37h.37v-.37Z"/><path class="b" d="M46.21,14.91v.34H44.35v-.74H43.23v.74h-.38V14.13h1.87v.75h1.12v-.37h-.75v-.38h.78C46,14.39,46.11,14.65,46.21,14.91Z"/><path class="b" d="M45.7,13.76H42.85v-.37h2.67A2.5281,2.5281,0,0,1,45.7,13.76Z"/><path class="b" d="M46.34,32.75c-.04.12-.09.25-.14.37H42.85v-.37Z"/><path class="b" d="M45.84,33.94v-.07h-.75v-.38h.95A4.4256,4.4256,0,0,1,45.84,33.94Z"/><path class="b" d="M45.7,34.24a2.5281,2.5281,0,0,1-.18.37H44.35v-.74H43.23v.74h-.38V33.49h1.87v.75Z"/><path class="b" d="M5.15,32.75v1.86H3.28v-.74H2.16v.07a4.4256,4.4256,0,0,1-.2-.45H3.28v-.74h.37v1.49h.38V32.75H4.4v1.49h.37V32.75Z"/><path class="b" d="M2.91,32.75v.37H1.8c-.05-.12-.1-.25-.14-.37Z"/><path class="b" d="M2.91,34.24v.37H2.48a2.5281,2.5281,0,0,1-.18-.37Z"/><path class="b" d="M2.91,13.39v.37H2.3a2.5281,2.5281,0,0,1,.18-.37Z"/><path class="b" d="M5.15,13.39v1.86H3.28v-.74H2.16v.37h.75v.37H1.79v-.34c.1-.26.21-.52.34-.78H3.28v-.74h.37v1.49h.38V13.39H4.4v1.49h.37V13.39Z"/><path class="a" d="M24.9427,28.66a5.96,5.96,0,0,0,2.3466.3587,5.4463,5.4463,0,0,1-2.8146.1506l-.008.188L24,30l-.4667-.6427-.008-.188a5.4463,5.4463,0,0,1-2.8146-.1506,5.96,5.96,0,0,0,2.3466-.3587,5.4711,5.4711,0,0,1-1.028-8.9947,6.0015,6.0015,0,0,0,1.444,8.2147l-.1813-4.4827V19.8707A1.8537,1.8537,0,0,0,24,19.276a1.8537,1.8537,0,0,0,.708.5947v3.5266L24.5267,27.88a6.0015,6.0015,0,0,0,1.444-8.2147,5.4711,5.4711,0,0,1-1.028,8.9947Z"/><path class="a" d="M20.29,27.9685a4.5836,4.5836,0,0,1,1.18-8.4148,6,6,0,0,0-1.19,8.4014l.01.0134"/><path class="a" d="M27.71,27.9685a4.5836,4.5836,0,0,0-1.18-8.4148,6,6,0,0,1,1.19,8.4014l-.01.0134"/><path class="a" d="M25.2067,19.2227A.8668.8668,0,0,1,24,19.0133a.8659.8659,0,0,1-1.512-.82A.8177.8177,0,0,0,24,18.452a.8177.8177,0,0,0,1.512-.2587A.8648.8648,0,0,1,25.2067,19.2227Z"/></svg>