<svg xmlns="http://www.w3.org/2000/svg" viewBox="0 0 48 48"><defs><style>.a{fill:#00abc2;}.b,.c{fill:#ffec2d;}.c{stroke:#ffec2d;stroke-miterlimit:2;stroke-width:0.1905px;}</style></defs><title>fi_kz</title><circle class="a" cx="24" cy="24" r="24"/><circle class="b" cx="25.8627" cy="20.16" r="6.4584"/><path class="b" d="M25.8627,12.8208a.4846.4846,0,0,0,.528-.5328,19.08,19.08,0,0,0-.528-2.2128,19.08,19.08,0,0,0-.528,2.2128A.4825.4825,0,0,0,25.8627,12.8208Z"/><path class="b" d="M33.2019,20.16a.4846.4846,0,0,0,.5328.528,19.08,19.08,0,0,0,2.2128-.528,19.08,19.08,0,0,0-2.2128-.528A.4825.4825,0,0,0,33.2019,20.16Z"/><path class="b" d="M25.8627,27.4992a.4846.4846,0,0,0-.528.5328,19.08,19.08,0,0,0,.528,2.2128,19.08,19.08,0,0,0,.528-2.2128A.4825.4825,0,0,0,25.8627,27.4992Z"/><path class="b" d="M18.5235,20.16a.4846.4846,0,0,0-.5328-.528,19.08,19.08,0,0,0-2.2128.528,19.08,19.08,0,0,0,2.2128.528A.4825.4825,0,0,0,18.5235,20.16Z"/><path class="b" d="M28.6712,13.38a.4847.4847,0,0,0,.6918-.29,19.0875,19.0875,0,0,0,.3589-2.2464,19.0844,19.0844,0,0,0-1.3346,1.8423A.4826.4826,0,0,0,28.6712,13.38Z"/><path class="b" d="M32.6432,22.9686a.4846.4846,0,0,0,.29.6917,19.0913,19.0913,0,0,0,2.2464.359,19.0671,19.0671,0,0,0-1.8423-1.3346A.4825.4825,0,0,0,32.6432,22.9686Z"/><path class="b" d="M23.0541,26.9405a.4846.4846,0,0,0-.6917.29,19.07,19.07,0,0,0-.359,2.2464,19.0844,19.0844,0,0,0,1.3346-1.8423A.4826.4826,0,0,0,23.0541,26.9405Z"/><path class="b" d="M19.0821,17.3514a.4846.4846,0,0,0-.29-.6917,19.0881,19.0881,0,0,0-2.2464-.359,19.08,19.08,0,0,0,1.8423,1.3346A.4825.4825,0,0,0,19.0821,17.3514Z"/><path class="b" d="M31.0523,14.97a.4846.4846,0,0,0,.75-.0034,19.0805,19.0805,0,0,0,1.1913-1.938,19.0805,19.0805,0,0,0-1.938,1.1913A.4825.4825,0,0,0,31.0523,14.97Z"/><path class="b" d="M31.0523,25.35a.4845.4845,0,0,0,.0034.75,19.0805,19.0805,0,0,0,1.938,1.1913,19.0805,19.0805,0,0,0-1.1913-1.938A.4825.4825,0,0,0,31.0523,25.35Z"/><path class="b" d="M20.6731,25.35a.4846.4846,0,0,0-.75.0034,19.0661,19.0661,0,0,0-1.1914,1.938A19.0912,19.0912,0,0,0,20.67,26.1.4826.4826,0,0,0,20.6731,25.35Z"/><path class="b" d="M20.6731,14.97a.4846.4846,0,0,0-.0034-.75,19.0912,19.0912,0,0,0-1.9381-1.1913,19.0661,19.0661,0,0,0,1.1914,1.938A.4825.4825,0,0,0,20.6731,14.97Z"/><path class="b" d="M32.6432,17.3514a.4846.4846,0,0,0,.6943.2839A19.0671,19.0671,0,0,0,35.18,16.3007a19.0913,19.0913,0,0,0-2.2464.359A.4825.4825,0,0,0,32.6432,17.3514Z"/><path class="b" d="M28.6712,26.9405a.4846.4846,0,0,0-.2839.6943,19.0844,19.0844,0,0,0,1.3346,1.8423,19.0875,19.0875,0,0,0-.3589-2.2464A.4827.4827,0,0,0,28.6712,26.9405Z"/><path class="b" d="M19.0821,22.9686a.4846.4846,0,0,0-.6943-.2839,19.08,19.08,0,0,0-1.8423,1.3346,19.0881,19.0881,0,0,0,2.2464-.359A.4825.4825,0,0,0,19.0821,22.9686Z"/><path class="b" d="M23.0541,13.38a.4846.4846,0,0,0,.2839-.6943,19.0844,19.0844,0,0,0-1.3346-1.8423,19.07,19.07,0,0,0,.359,2.2464A.4825.4825,0,0,0,23.0541,13.38Z"/><path class="b" d="M27.2945,12.9618a.4846.4846,0,0,0,.6218-.42A19.0808,19.0808,0,0,0,27.83,10.269a19.0717,19.0717,0,0,0-.95,2.0673A.4824.4824,0,0,0,27.2945,12.9618Z"/><path class="b" d="M33.0608,21.5918a.4846.4846,0,0,0,.42.6218,19.0817,19.0817,0,0,0,2.2733-.0862,19.0807,19.0807,0,0,0-2.0673-.95A.4826.4826,0,0,0,33.0608,21.5918Z"/><path class="b" d="M24.4309,27.3582a.4845.4845,0,0,0-.6218.4195,19.0629,19.0629,0,0,0,.0861,2.2733,19.0886,19.0886,0,0,0,.95-2.0673A.4825.4825,0,0,0,24.4309,27.3582Z"/><path class="b" d="M18.6645,18.7282a.4846.4846,0,0,0-.42-.6218,19.0817,19.0817,0,0,0-2.2733.0862,19.0807,19.0807,0,0,0,2.0673.95A.4825.4825,0,0,0,18.6645,18.7282Z"/><path class="b" d="M29.94,14.0577a.4846.4846,0,0,0,.735-.15,19.07,19.07,0,0,0,.79-2.1332,19.07,19.07,0,0,0-1.6684,1.5465A.4826.4826,0,0,0,29.94,14.0577Z"/><path class="b" d="M31.965,24.2374a.4847.4847,0,0,0,.15.7351,19.087,19.087,0,0,0,2.1333.79,19.0881,19.0881,0,0,0-1.5466-1.6684A.4825.4825,0,0,0,31.965,24.2374Z"/><path class="b" d="M21.7852,26.2623a.4846.4846,0,0,0-.735.15,19.09,19.09,0,0,0-.79,2.1332,19.07,19.07,0,0,0,1.6684-1.5465A.4826.4826,0,0,0,21.7852,26.2623Z"/><path class="b" d="M19.76,16.0826a.4847.4847,0,0,0-.15-.7351,19.0866,19.0866,0,0,0-2.1332-.79,19.0844,19.0844,0,0,0,1.5465,1.6684A.4825.4825,0,0,0,19.76,16.0826Z"/><path class="b" d="M31.965,16.0826a.4846.4846,0,0,0,.7363.143,19.0881,19.0881,0,0,0,1.5466-1.6684,19.087,19.087,0,0,0-2.1333.79A.4826.4826,0,0,0,31.965,16.0826Z"/><path class="b" d="M29.94,26.2623a.4847.4847,0,0,0-.143.7364,19.07,19.07,0,0,0,1.6684,1.5465,19.07,19.07,0,0,0-.79-2.1332A.4825.4825,0,0,0,29.94,26.2623Z"/><path class="b" d="M19.76,24.2374a.4845.4845,0,0,0-.7363-.143,19.0844,19.0844,0,0,0-1.5465,1.6684,19.0866,19.0866,0,0,0,2.1332-.79A.4826.4826,0,0,0,19.76,24.2374Z"/><path class="b" d="M21.7852,14.0577a.4847.4847,0,0,0,.143-.7364A19.07,19.07,0,0,0,20.26,11.7748a19.09,19.09,0,0,0,.79,2.1332A.4825.4825,0,0,0,21.7852,14.0577Z"/><path class="b" d="M33.0608,18.7282a.4846.4846,0,0,0,.6256.4139,19.0807,19.0807,0,0,0,2.0673-.95,19.0817,19.0817,0,0,0-2.2733-.0862A.4826.4826,0,0,0,33.0608,18.7282Z"/><path class="b" d="M27.2945,27.3582a.4845.4845,0,0,0-.4139.6255,19.0717,19.0717,0,0,0,.95,2.0673,19.0808,19.0808,0,0,0,.0862-2.2733A.4826.4826,0,0,0,27.2945,27.3582Z"/><path class="b" d="M18.6645,21.5918a.4846.4846,0,0,0-.6256-.4139,19.0807,19.0807,0,0,0-2.0673.95,19.0817,19.0817,0,0,0,2.2733.0862A.4826.4826,0,0,0,18.6645,21.5918Z"/><path class="b" d="M24.4309,12.9618a.4846.4846,0,0,0,.4139-.6255,19.0886,19.0886,0,0,0-.95-2.0673,19.0629,19.0629,0,0,0-.0861,2.2733A.4825.4825,0,0,0,24.4309,12.9618Z"/><path class="b" d="M24.71,34.15a2.0026,2.0026,0,0,0-.5056.0848c-.2256.03-.4416.1088-.6656.1456l-.09.0144-.15.0144a.5559.5559,0,0,1,.016.1248.4034.4034,0,0,1-.016.12.2921.2921,0,0,1-.064.1008.3528.3528,0,0,1-.1056.0848.3328.3328,0,0,1-.1248.03.3251.3251,0,0,1-.13-.016.3633.3633,0,0,1-.12-.0736,1.0364,1.0364,0,0,1-.1344.024.5561.5561,0,0,1-.1264,0A1.3232,1.3232,0,0,1,22.36,34.76a.7731.7731,0,0,1-.1248-.0656,1.1407,1.1407,0,0,0-.4448.3552.5352.5352,0,0,0-.08.256.6986.6986,0,0,0,.0688.3344c.0176.03.032-.11.0864-.13a.8494.8494,0,0,1,.32-.16c.0976-.05.0848.0032.0448.08-.01.04-.064.192.01.1152a3.1223,3.1223,0,0,1,1.0352-.2c.5088-.0528,1.0192-.064,1.53-.07l1.44.03a3.5086,3.5086,0,0,0,.6848.0192c.0544-.0144.1392-.0176.1712-.05a.8647.8647,0,0,0-.336-.0752H25.85a2.7672,2.7672,0,0,1-.76-.1248c-.064-.0256-.1232-.0864-.184-.0208a1.0432,1.0432,0,0,1-.776-.024c.112-.1552.2464-.2912.37-.4352-.0992-.016-.1952-.0368-.2944-.0608.1744-.12.336-.256.5056-.384Z"/><path class="b" d="M32.1856,35.8085c-.3478.2088-.6132-.1614-.9039-.2724-.2076.1127-.227.49-.421.6686-.232.2641-.5164-.0738-.4953-.3343-.2775.234-.4179.7643-.8667.6934-.2126-.1735-.3706-.5376-.5331-.1231-.1325.2027-.4853.4911-.668.185-.0565-.27-.192-.588-.339-.1588a.572.572,0,0,1-.7382.3941c-.1715-.14.1375-.6589-.0808-.622-.3264.2157-.5161.7516-.9716.7087-.1769-.1986.1073-.535-.0867-.7553-.229.2939-.483.7243-.8791.7553-.1914-.1552.0075-.6-.1147-.6659-.4065.2437-.8353.6781-1.3464.5421.1992-.7619,1.0315-1.0292,1.7315-1.0887,1.2042-.148,2.4712.1242,3.63-.31.1872-.1139.6408-.2755.4793-.54-.143-.2086.3721-.127.4217-.3707-.0307-.3087.2365-.2662.4974-.2932,1.17-.05,2.3259.1959,3.4924.2378a.7838.7838,0,0,1-1.05.792c-.2425.0393-.6061-.5576-.5348-.1234-.0489.2279-.0147.5289-.2229.6811M22.23,34.6447c.2709.2479.4608-.0467.714-.1544a9.5943,9.5943,0,0,0,2.3206-1.3125,3.4338,3.4338,0,0,1,1.4207-.96c1.1594-.35,2.3919-.308,3.5558-.6315.8863-1.2135,2.3917-1.6464,3.6527-2.3439a.7859.7859,0,0,0,.4829-.5783A5.8267,5.8267,0,0,1,36.29,26.771a1.7876,1.7876,0,0,1,1.22-.2242,2.0354,2.0354,0,0,1-.6563,1.2753c.28-.0061.5214-.1833.8048-.1733.0971.5078-.4512.7735-.7429,1.09.1625.0378.7849.0849.4457.2476a14.1319,14.1319,0,0,0-1.3249.8544c.3682.0661.41.1444.0358.2775-.2027.1374-.5924.1854-.63.453.2781.1709-.1281.3407-.2848.3963-.3.07-.6143.2-.2163.4275a.7923.7923,0,0,1-.7371.2534c.08.2578.1958.5462-.1388.66a5.1725,5.1725,0,0,1-2.5728,1.0737,5.5267,5.5267,0,0,0,3.3971-.7686c.1328-.1571.8295-.3259.44-.458-.1834-.0763-.5767-.1611-.6033-.301.545-.3363,1.2318-.2167,1.8182-.4164.0152-.19-.446-.1371-.6179-.18-.41-.0336-.3861-.1382.0093-.177a3.9491,3.9491,0,0,0,1.4877-.4847c-.3426-.1588-.7736-.019-1.1392-.1486a9.223,9.223,0,0,0,1.9069-.7058c.2533-.2818-.3245-.1937-.4928-.1869-.3432.06-.5019-.1045-.112-.2471a7.066,7.066,0,0,0,1.9765-1.5215c.1108-.1593.2608-.6393-.0926-.4666-.4646.1545-.8735.6768-1.4029.5152a11.6086,11.6086,0,0,0,2.7488-2.8478c.0369-.3227-.47-.3576-.6015-.1043a8.6236,8.6236,0,0,1-2.1349,1.813,13.4437,13.4437,0,0,0,2.094-2.7059c.1271-.29.4687-.6377.2833-.9591-.2988-.2474-.6726-.021-.8279.275a11.3633,11.3633,0,0,1-1.5866,2.028,8.1776,8.1776,0,0,0,1.2087-3.6022c-.0019-.2658-.0552-.6573-.4162-.6077-.2862.0513-.2182.48-.3362.6963a8.7253,8.7253,0,0,1-.9144,2.61,5.7721,5.7721,0,0,0,.1686-2.1878c-.0752-.3235-.5976-.1844-.53.1358a11.4227,11.4227,0,0,1-5.5195,7.5254A11.8945,11.8945,0,0,1,27.57,31.2949a9.6124,9.6124,0,0,0-1.18.1676c-.8993.69-1.4438,1.8435-2.5825,2.2048-.51.2537-1.1758.3051-1.5407.7792a.4115.4115,0,0,0-.0372.1982"/><path class="b" d="M25.6384,31.4376a6.3842,6.3842,0,0,1-.4829.9287,3.6912,3.6912,0,0,0-2.4166-.6113,2.9933,2.9933,0,0,1-1.9471-.5844A14.3953,14.3953,0,0,0,19.1669,29.76a3.9953,3.9953,0,0,1-1.5885-.733c-.9706-.7911-1.5264-1.965-2.4748-2.7808a5.52,5.52,0,0,0-.5966-.4669c-.1925.0469-.1053.4623-.3409.2506-.1281-.0912-.4487-.1-.4776.0273a2.6218,2.6218,0,0,1,.62,1.307c-.1977.02-.5493-.0417-.6474.0319a4.0448,4.0448,0,0,0,.9817,1.0206c-.1834.03-.5449.0135-.6152.0874a2.8193,2.8193,0,0,0,1.2838.7051c.1018.1341-.1488.3931.0619.5077.1222.05.5254.1334.2477.2724a.2263.2263,0,0,0,.1238.4209c.1541.0787.5.098.5271.2343-.1366.1389-.5615.3037-.2.4339a2.4977,2.4977,0,0,0,1.109.3224c-.1936.1629-.4322.2554-.6315.4086a15.27,15.27,0,0,0,2.8528,1.1961,9.0763,9.0763,0,0,0,1.1837.3269,9.7008,9.7008,0,0,1-3.3655-.8878c-.5522-.2421-1.1081-.4761-1.6739-.6847.2481-.1291.5351-.1606.7924-.2724a4.62,4.62,0,0,1-1.5872-.4357c.072-.1284.3448-.1345.4956-.2.2838-.068.46-.1505.06-.1751a3.76,3.76,0,0,1-1.2217-.3038c.0229-.1459.395-.095.5465-.1581a1.1334,1.1334,0,0,0,.5555-.1886c-.6237-.2586-1.44-.0754-1.928-.6262-.1127-.21.35-.0408.4816-.0757a2.5559,2.5559,0,0,0,1.0131-.0286,7.4769,7.4769,0,0,1-2.5755-1.5106c-.0769-.1187-.3075-.4428-.1214-.4829.5394.0714.93.66,1.507.5685.0766-.1033-.3353-.2727-.4381-.42a11.0123,11.0123,0,0,1-2.2476-2.4511c-.04-.3159.4559-.3632.5866-.1193a9.5964,9.5964,0,0,0,2.0261,1.766c.2843.1379-.1633-.1632-.223-.2724a14.3419,14.3419,0,0,1-1.9629-2.7807c-.0927-.1825-.2462-.513.031-.61a.5434.5434,0,0,1,.6925.2883,13.1783,13.1783,0,0,0,1.6233,2.0748,8.2609,8.2609,0,0,1-1.21-3.5917c.0135-.25.03-.6284.3688-.6182.2848-.0432.24.3214.3331.4953a9.7724,9.7724,0,0,0,.9659,2.8107A6.3084,6.3084,0,0,1,13.925,22.3a.2763.2763,0,0,1,.4647-.1639c.1395.3413.1685.7627.2956,1.1276a11.3964,11.3964,0,0,0,4.4611,6.1075,11.7478,11.7478,0,0,0,5.9194,2.0324c.1906.0166.3819.0223.5727.0341"/><circle class="b" cx="22.96" cy="34.6026" r="0.1136"/><circle class="c" cx="22.9504" cy="34.5843" r="0.0463"/><path class="b" d="M7.41,11.31a.94.94,0,0,1-.81-1.28c-.15-.06-.26.04-.38.09a.8307.8307,0,0,1,.17-.51,1.1966,1.1966,0,0,0-.25.05.4682.4682,0,0,1,.25-.39.781.781,0,0,1-.94-.49c.11-.14.22-.27.34-.4a.3408.3408,0,0,0-.04.16c0,.22.13.35.45.35.25,0,.51-.22.51-.7a.7127.7127,0,0,0-.27-.54c.24-.26.49-.52.74-.77a.27.27,0,0,1,.07.08.6644.6644,0,0,1-.43.32,1.1557,1.1557,0,0,1,.49.91c0,.78-.31.97-.31,2.1A1.5848,1.5848,0,0,0,7.41,11.31Z"/><path class="b" d="M6.31,8.34a.2433.2433,0,0,1-.18.34s.08-.37-.19-.37a.1594.1594,0,0,0-.12.04c.15-.19.31-.37.48-.55a.2455.2455,0,0,1,.01.24.5023.5023,0,0,1,.27.14A.4694.4694,0,0,1,6.31,8.34Z"/><path class="b" d="M7.38,17.81a2.2831,2.2831,0,0,0,.26-1.07,1.2114,1.2114,0,0,0-1.25-1.25,1.2329,1.2329,0,0,0,1.25-1.27,2.2442,2.2442,0,0,0-.26-1.06L5.34,8.92c-.13.15-.25.31-.37.47l1.95,4.12a1.5422,1.5422,0,0,1,.15.64.8.8,0,0,1-.83.78.7047.7047,0,0,1-.73-.61c0-.22.12-.35.29-.35.4,0,.38.35.3.56A.5076.5076,0,0,0,6.46,14a.5984.5984,0,0,0,.4-.23.51.51,0,0,0-.4-.22c.08-.33-.14-.47-.36-.55.07.24.11.53-.3.53a.7838.7838,0,0,0-.68.24l-.03-1.29c-.02-.39.52-.38.86-.26a.8084.8084,0,0,0-1.01-.63.4785.4785,0,0,0,.31-.47,1.2429,1.2429,0,0,0-.49-.89,1.2429,1.2429,0,0,0-.49.89.4785.4785,0,0,0,.31.47.8084.8084,0,0,0-1.01.63c.34-.12.88-.13.86.26L4.4,13.77a.7838.7838,0,0,0-.68-.24c-.41,0-.37-.29-.3-.53-.22.08-.44.22-.36.55a.51.51,0,0,0-.4.22.5984.5984,0,0,0,.4.23.5076.5076,0,0,0,.36.53c-.08-.21-.1-.56.3-.56.17,0,.29.13.29.35a.7047.7047,0,0,1-.73.61.8.8,0,0,1-.83-.78,1.5422,1.5422,0,0,1,.15-.64l1.04-2.2a22.0889,22.0889,0,0,0-1.71,3.27,1.2213,1.2213,0,0,0,1.21.91,1.2085,1.2085,0,0,0-1.26,1.25,2.2831,2.2831,0,0,0,.26,1.07L4.26,22.2a1.2529,1.2529,0,0,1,.1.59.7765.7765,0,0,1-1.55-.02c0-.48.26-.7.51-.7.32,0,.45.13.45.36,0,.15-.08.22-.19.22-.27,0-.19-.37-.19-.37a.2433.2433,0,0,0-.18.34.53.53,0,0,0-.27.16.4435.4435,0,0,0,.27.14c-.07.22.02.32.2.36a.2868.2868,0,0,1-.02-.22.5539.5539,0,0,0,.73-.55.7946.7946,0,0,0-.99-.82.4682.4682,0,0,0,.25-.39.7367.7367,0,0,1-.25.05.8307.8307,0,0,0,.17-.51c-.12.06-.23.16-.38.09a.943.943,0,0,0-.81-1.28,1.6053,1.6053,0,0,1,.41,1.02c0,1.13-.31,1.32-.31,2.1a1.1909,1.1909,0,0,0,.48.92.6642.6642,0,0,0-.42.31.6642.6642,0,0,0,.42.31,1.1909,1.1909,0,0,0-.48.92c0,.78.31.97.31,2.1a1.6053,1.6053,0,0,1-.41,1.02.943.943,0,0,0,.81-1.28c.15-.07.26.03.38.09a.8307.8307,0,0,0-.17-.51.7367.7367,0,0,1,.25.05.4682.4682,0,0,0-.25-.39.7946.7946,0,0,0,.99-.82.5539.5539,0,0,0-.73-.55.2868.2868,0,0,1,.02-.22c-.18.04-.27.14-.2.36a.4435.4435,0,0,0-.27.14.53.53,0,0,0,.27.16.2433.2433,0,0,0,.18.34s-.08-.37.19-.37c.11,0,.19.07.19.22,0,.23-.13.36-.45.36-.25,0-.51-.22-.51-.7a.7765.7765,0,0,1,1.55-.02,1.2529,1.2529,0,0,1-.1.59L2.14,30.19a2.2831,2.2831,0,0,0-.26,1.07A1.2175,1.2175,0,0,0,3.1,32.52a1.21,1.21,0,0,0-1.17.91,21.9825,21.9825,0,0,0,1.71,3.26L2.6,34.49a1.5422,1.5422,0,0,1-.15-.64.8.8,0,0,1,.83-.78.7047.7047,0,0,1,.73.61c0,.22-.12.35-.29.35-.4,0-.38-.35-.3-.56a.5076.5076,0,0,0-.36.53.5984.5984,0,0,0-.4.23.51.51,0,0,0,.4.22c-.08.33.14.47.36.55-.07-.24-.11-.53.3-.53a.7838.7838,0,0,0,.68-.24l.03,1.29c.02.39-.52.38-.86.26a.8084.8084,0,0,0,1.01.63.4785.4785,0,0,0-.31.47,1.2429,1.2429,0,0,0,.49.89,1.2429,1.2429,0,0,0,.49-.89.4785.4785,0,0,0-.31-.47.8084.8084,0,0,0,1.01-.63c-.34.12-.88.13-.86-.26l.03-1.29a.7838.7838,0,0,0,.68.24c.41,0,.37.29.3.53.22-.08.44-.22.36-.55a.51.51,0,0,0,.4-.22.5984.5984,0,0,0-.4-.23.5076.5076,0,0,0-.36-.53c.08.21.1.56-.3.56-.17,0-.29-.13-.29-.35a.7047.7047,0,0,1,.73-.61.8.8,0,0,1,.83.78,1.5422,1.5422,0,0,1-.15.64L4.97,38.61c.12.16.24.32.37.47l2.04-4.24a2.2442,2.2442,0,0,0,.26-1.06,1.2211,1.2211,0,0,0-1.21-1.26,1.2211,1.2211,0,0,0,1.21-1.26,2.2831,2.2831,0,0,0-.26-1.07L5.26,25.8a1.2529,1.2529,0,0,1-.1-.59.7765.7765,0,0,1,1.55.02c0,.48-.26.7-.51.7-.32,0-.45-.13-.45-.36,0-.15.08-.22.19-.22.27,0,.19.37.19.37a.2433.2433,0,0,0,.18-.34.53.53,0,0,0,.27-.16.4435.4435,0,0,0-.27-.14c.07-.22-.02-.32-.2-.36a.2868.2868,0,0,1,.02.22.5539.5539,0,0,0-.73.55.7946.7946,0,0,0,.99.82.4682.4682,0,0,0-.25.39.7367.7367,0,0,1,.25-.05.8307.8307,0,0,0-.17.51c.12-.06.23-.16.38-.09a.943.943,0,0,0,.81,1.28A1.6053,1.6053,0,0,1,7,27.33c0-1.13.31-1.32.31-2.1a1.1909,1.1909,0,0,0-.48-.92A.6642.6642,0,0,0,7.25,24a.6642.6642,0,0,0-.42-.31,1.1909,1.1909,0,0,0,.48-.92c0-.78-.31-.97-.31-2.1a1.6053,1.6053,0,0,1,.41-1.02.943.943,0,0,0-.81,1.28c-.15.07-.26-.03-.38-.09a.8307.8307,0,0,0,.17.51.7367.7367,0,0,1-.25-.05.4682.4682,0,0,0,.25.39.7946.7946,0,0,0-.99.82.5539.5539,0,0,0,.73.55.2868.2868,0,0,1-.02.22c.18-.04.27-.14.2-.36a.4435.4435,0,0,0,.27-.14.53.53,0,0,0-.27-.16.2433.2433,0,0,0-.18-.34s.08.37-.19.37c-.11,0-.19-.07-.19-.22,0-.23.13-.36.45-.36.25,0,.51.22.51.7a.7765.7765,0,0,1-1.55.02,1.2529,1.2529,0,0,1,.1-.59ZM4.76,14.54a1.5862,1.5862,0,0,0,1.27.95,1.5552,1.5552,0,0,0-1.27.94,1.5411,1.5411,0,0,0-1.26-.94A1.5718,1.5718,0,0,0,4.76,14.54Zm0,18.92a1.5414,1.5414,0,0,0-1.22-.94,1.5764,1.5764,0,0,0,1.22-.94,1.6,1.6,0,0,0,1.2.94A1.5521,1.5521,0,0,0,4.76,33.46Zm2.16-2.91a1.5422,1.5422,0,0,1,.15.64.8.8,0,0,1-.83.78.7048.7048,0,0,1-.73-.62c0-.21.12-.34.29-.34.4,0,.38.34.3.56a.5145.5145,0,0,0,.36-.53.6411.6411,0,0,0,.4-.23.51.51,0,0,0-.4-.22c.08-.33-.14-.47-.36-.55.07.24.11.52-.3.52a.7613.7613,0,0,0-.68.25l-.03-1.3c-.02-.38.52-.37.86-.26a.8084.8084,0,0,0-1.01-.63.4785.4785,0,0,0,.31-.47,1.2636,1.2636,0,0,0-.49-.89,1.2636,1.2636,0,0,0-.49.89.4785.4785,0,0,0,.31.47.8084.8084,0,0,0-1.01.63c.34-.11.88-.12.86.26l-.03,1.3a.7613.7613,0,0,0-.68-.25c-.41,0-.37-.28-.3-.52-.22.08-.44.22-.36.55a.51.51,0,0,0-.4.22.6411.6411,0,0,0,.4.23.5145.5145,0,0,0,.36.53c-.08-.22-.1-.56.3-.56.17,0,.29.13.29.34a.7048.7048,0,0,1-.73.62.8.8,0,0,1-.83-.78,1.5422,1.5422,0,0,1,.15-.64l2.16-4.57Zm-1.3-6.56c.01,0,.02.01.03.01-.01,0-.02.01-.03.01a1.2186,1.2186,0,0,0-.86.58,1.2186,1.2186,0,0,0-.86-.58c-.01,0-.02-.01-.03-.01.01,0,.02-.01.03-.01a1.2186,1.2186,0,0,0,.86-.58A1.2186,1.2186,0,0,0,5.62,23.99Zm-.86-1.97L2.6,17.45a1.5422,1.5422,0,0,1-.15-.64.8.8,0,0,1,.83-.78.7048.7048,0,0,1,.73.62c0,.21-.12.34-.29.34-.4,0-.38-.34-.3-.56a.5145.5145,0,0,0-.36.53.6411.6411,0,0,0-.4.23.51.51,0,0,0,.4.22c-.08.33.14.47.36.55-.07-.24-.11-.52.3-.52a.7613.7613,0,0,0,.68-.25l.03,1.3c.02.38-.52.37-.86.26a.8084.8084,0,0,0,1.01.63.4785.4785,0,0,0-.31.47,1.2636,1.2636,0,0,0,.49.89,1.2636,1.2636,0,0,0,.49-.89.4785.4785,0,0,0-.31-.47.8084.8084,0,0,0,1.01-.63c-.34.11-.88.12-.86-.26l.03-1.3a.7613.7613,0,0,0,.68.25c.41,0,.37.28.3.52.22-.08.44-.22.36-.55a.51.51,0,0,0,.4-.22.6411.6411,0,0,0-.4-.23.5145.5145,0,0,0-.36-.53c.08.22.1.56-.3.56-.17,0-.29-.13-.29-.34a.7048.7048,0,0,1,.73-.62.8.8,0,0,1,.83.78,1.5422,1.5422,0,0,1-.15.64Z"/><path class="b" d="M6.82,40.72a.6644.6644,0,0,1,.43.32.27.27,0,0,1-.07.08c-.25-.25-.5-.51-.74-.77a.7127.7127,0,0,0,.27-.54c0-.48-.26-.7-.51-.7-.32,0-.45.13-.45.35a.3408.3408,0,0,0,.04.16c-.12-.13-.23-.26-.34-.4a.781.781,0,0,1,.94-.49.4682.4682,0,0,1-.25-.39,1.1966,1.1966,0,0,0,.25.05.8307.8307,0,0,1-.17-.51c.12.05.23.15.38.09a.94.94,0,0,1,.81-1.28A1.5848,1.5848,0,0,0,7,37.71c0,1.13.31,1.32.31,2.1A1.1557,1.1557,0,0,1,6.82,40.72Z"/></svg>