<?xml version="1.0" encoding="utf-8"?>
<!-- Generator: Adobe Illustrator 24.0.1, SVG Export Plug-In . SVG Version: 6.00 Build 0)  -->
<svg version="1.1"
	 id="svg1306" xmlns:cc="http://creativecommons.org/ns#" xmlns:dc="http://purl.org/dc/elements/1.1/" xmlns:inkscape="http://www.inkscape.org/namespaces/inkscape" xmlns:rdf="http://www.w3.org/1999/02/22-rdf-syntax-ns#" xmlns:sodipodi="http://sodipodi.sourceforge.net/DTD/sodipodi-0.dtd" xmlns:svg="http://www.w3.org/2000/svg"
	 xmlns="http://www.w3.org/2000/svg" xmlns:xlink="http://www.w3.org/1999/xlink" x="0px" y="0px" viewBox="0 0 48 48"
	 style="enable-background:new 0 0 48 48;" xml:space="preserve">
<style type="text/css">
	.st0{fill-rule:evenodd;clip-rule:evenodd;fill:#024FA2;}
	.st1{fill-rule:evenodd;clip-rule:evenodd;fill:#ED1C27;}
	.st2{fill-rule:evenodd;clip-rule:evenodd;fill:#FEFEFE;}
</style>
<g>
	<path class="st0" d="M6.1,8h35.8C37.5,3.1,31.1,0,24,0l0,0C16.9,0,10.5,3.1,6.1,8z"/>
	<path class="st0" d="M41.9,40H6.1c4.4,4.9,10.8,8,17.9,8S37.5,44.9,41.9,40z"/>
	<path class="st1" d="M5,38.7h38c3.1-4.1,5-9.1,5-14.7c0-5.5-1.9-10.6-5-14.7H5C1.9,13.4,0,18.5,0,24S1.9,34.6,5,38.7z"/>
	<path class="st2" d="M5,9.3h38c-0.4-0.5-0.7-0.9-1.1-1.3H6.1C5.7,8.4,5.4,8.9,5,9.3z"/>
	<path class="st2" d="M6.1,40h35.8c0.4-0.4,0.8-0.9,1.1-1.3H5C5.4,39.1,5.7,39.6,6.1,40z"/>
	<path class="st2" d="M14.9,13.3c5.9,0,10.7,4.8,10.7,10.7s-4.8,10.7-10.7,10.7S4.2,29.9,4.2,24S9,13.3,14.9,13.3z"/>
	<polygon class="st1" points="14.9,13.7 17.2,20.8 24.7,20.8 18.6,25.2 20.9,32.4 14.9,27.9 8.8,32.4 11.1,25.2 5,20.8 12.5,20.8 	
		"/>
</g>
</svg>
