<svg xmlns="http://www.w3.org/2000/svg" viewBox="0 0 48 48"><defs><style>.a{fill:#cc092f;}.b,.d{fill:#ffd200;}.b,.c{fill-rule:evenodd;}.c,.g{fill:#0046ae;}.e{fill:#b07e5b;}.f{fill:#007a50;}</style></defs><title>fi_md</title><circle class="a" cx="24" cy="24" r="24"/><path class="b" d="M38,4.52V43.48A23.9954,23.9954,0,1,1,24,0,23.807,23.807,0,0,1,38,4.52Z"/><path class="c" d="M10,4.52V43.48A23.9735,23.9735,0,0,1,10,4.52Z"/><path d="M21.7362,11.5512a.6055.6055,0,0,0-.3584.098.2933.2933,0,0,1,.21.2843V12.28h-.3464a.2942.2942,0,0,1-.2843-.2079.7047.7047,0,0,0,0,.7168.2932.2932,0,0,1,.2843-.21h.3464v1.6651a.2941.2941,0,0,1-.1959.2795c.1652.0225.3074.2442.3464.3655.039-.121.1812-.343.3464-.3655a.293.293,0,0,1-.1983-.2795V12.5784h.3464a.294.294,0,0,1,.2843.2079.7045.7045,0,0,0,0-.7167.2934.2934,0,0,1-.2843.21h-.3464v-.3464a.294.294,0,0,1,.2079-.2843.6051.6051,0,0,0-.3584-.0979Z"/><path class="d" d="M21.7362,11.6231a.6638.6638,0,0,0-.2054.0334.3665.3665,0,0,1,.129.2771V12.28l-.0024.0144v.0549h-.055l-.0143.0025h-.3465a.3669.3669,0,0,1-.2747-.1266.6411.6411,0,0,0-.0358.2054.6674.6674,0,0,0,.0334.2055.3663.3663,0,0,1,.2771-.129H21.66l-.0024.0214v.0359l.0024.0143v1.6651a.3514.3514,0,0,1-.129.26.5611.5611,0,0,1,.1362.1195.6905.6905,0,0,1,.0716.1242.7042.7042,0,0,1,.0717-.1242.5648.5648,0,0,1,.1338-.1171.3531.3531,0,0,1-.129-.2627V12.5094h.0573l.0144-.0024h.3464a.3667.3667,0,0,1,.2746.1266.6394.6394,0,0,0,.0359-.2054.6669.6669,0,0,0-.0334-.2055.3663.3663,0,0,1-.2771.129h-.3464l-.0144-.0025h-.0549v-.0549l-.0025-.0144v-.3463a.3669.3669,0,0,1,.1266-.2747.6412.6412,0,0,0-.2054-.0359"/><path d="M26.0724,17.6527a1.8388,1.8388,0,0,1-.5088-.5184,3.1337,3.1337,0,0,1-.4229-1.658c0-.2515.2819-.5348.2819-.7382a3.5355,3.5355,0,0,0-.0287-.4921c.1.0136.2748.1911.2748.1911s-.0061-.51-.1673-.6c0,0,.0652-.0671.301-.0741-.0663-.1678-.3941-.3726-.3941-.3726a.2129.2129,0,0,1,.0859-.0765,1.0726,1.0726,0,0,1,.2866-.0932,3.0734,3.0734,0,0,1-.3224-.0884,7.6041,7.6041,0,0,1-.8935-.3631,2.6343,2.6343,0,0,0-1.1945-.28,1.103,1.103,0,0,0-.5566.1c-.1318.0875-.1211.2013-.1672.2413a.61.61,0,0,1-.3847.0907c-.5805,0-.602.6212-.602.6212a.5322.5322,0,0,1,.4109-.2246c.4363,0,.7668.2377.7668.3273,0,.0363-.045.043-.0477.043-.2851,0-.7152-.1641-.9438-.172V13.63a1.351,1.351,0,0,1,1.0273,1.5362,3.7251,3.7251,0,0,1-.4323,1.9685,1.856,1.856,0,0,1-.5113.5185l2.0713.3733,2.0713-.3733Z"/><path d="M24.001,17.1861l-2.0712.4667a4.96,4.96,0,0,1-.8481-.3392,3.0084,3.0084,0,0,0-1.4812-.6379v-.4946c0-.2642.0956-.5023.0956-.7549-.2741-.0735-1.035-1.0038-1.7368-1.4167a4.032,4.032,0,0,0-1.8324,2.272v14.63a1.7045,1.7045,0,0,1-.1314.5256,4,4,0,0,0,1.2137-1.4644v.172a2.9858,2.9858,0,0,0,1.173-1.2948l.012.1791c.5086-.4459,1.1562-3.0818,1.1562-3.0818l1.0791,1.06a6.3473,6.3473,0,0,1-.5423.9341,1.8138,1.8138,0,0,0,.2174.0119c-.0711.1021-.6136.8832-.7836,1.1778-.1592.2756-.2714.1529-.5161.1529a1.4377,1.4377,0,0,0-.7381.4539.956.956,0,0,0-.1385.442.7884.7884,0,0,0,.16.3584.1875.1875,0,0,1,.0478-.098l.4825.5925a.3342.3342,0,0,0,.3393.0191A2.85,2.85,0,0,0,19.7,30.51c.087-.1284.0936-.2755.1935-.4134l1.1515-1.5456.0286.16a5.3583,5.3583,0,0,1,1.001-1.013l.867.399s-1.6187,3.721-3.0556,4.2931c0,0,.6251.2656,1.3928.6642l.344.184c.0967-.1164.1984-.2457.2986-.38.4591-.6142.908-1.3259.908-1.3259a3.7945,3.7945,0,0,1-.6212,1.46l-.258.43.3106.1816A5.0779,5.0779,0,0,1,24,35.0712l.1867-.4671L24,34.137V17.8057l.0933-.2333Z"/><path class="e" d="M24,34.137a5.9509,5.9509,0,0,0-1.46-.9747,7.8045,7.8045,0,0,0,.9627-3.9611,9.067,9.067,0,0,1-.6953,1.7607,13.5923,13.5923,0,0,1-1.2111,1.7512,9.62,9.62,0,0,0-.97-.3584c1.2627-.9726,2.5539-4.1879,2.5539-4.1879l-1.3353-.6188a7.0641,7.0641,0,0,1-.6617.6905s-.0693-.29-.11-.3919a.8056.8056,0,0,1-.2961.1483l-.055-.325a.6521.6521,0,0,1-.3512.0693c.1926-.0912.4205-.65.4205-.65l-1.275-1.696a7.7009,7.7009,0,0,1-.958,2.5945V18.7207l.4038.3751.6115-.571V18.09l-.5423.5064V17.2849q.0939-.1412.1768-.2891a3.88,3.88,0,0,0,.7047.91c.0548-.2229.4157-.4348.4157-.4348s.1293.35.3272.4372a2.4872,2.4872,0,0,1,.4851-.3942,1.1964,1.1964,0,0,0-.4993.1888c-.1237-.0277-.1554-.516-.1554-.516s-.5229.2547-.6139.4371c-.1-.0269-.255-.4194-.3154-.58a3.4938,3.4938,0,0,1,.3894-.0215,1.4111,1.4111,0,0,1,.54.1649c.22.1034.4494.2343.6546.3273a2.4219,2.4219,0,0,0,.7764.1481,3.4367,3.4367,0,0,1-.4371.258,2.8878,2.8878,0,0,0,1.0655-.2246,4.2144,4.2144,0,0,0,.4587-.32,1.6966,1.6966,0,0,1-.3011.5351,1.44,1.44,0,0,0,1.0583-.5471,1.7633,1.7633,0,0,0,.2389.442h.2334V33.6723L24,34.137ZM19.2422,15.4739l.0119.2962v.8721a2.0019,2.0019,0,0,1-.6713-.6689v-.12a.33.33,0,0,1,.1147-.2389l-.1409-.05a.41.41,0,0,0-.1123.27v.0693l-.42.4516-.4133-.626v-.1528a.5277.5277,0,0,1,.1457-.2963l-.1386-.05a.5915.5915,0,0,0-.1433.3272v.1242l-.4754.49-.2413-.5184a5.7848,5.7848,0,0,1,1.2016-1.1725,7.87,7.87,0,0,0,1.2829.9932ZM16.81,16.32v.7192l-.3344.3105V16.2815a.82.82,0,0,1,.1146-.3608l.22.3989Zm1.0416.2772v.4443l-.3846.3608v-1.39l.3846.5853Zm-.5208.8027-.3847-.3583V16.52l.3847-.4038Zm1.7559-.54a2.0258,2.0258,0,0,1-.5757.571V16.21A1.9651,1.9651,0,0,0,19.0866,16.86Zm-.712-.5877V17.4l-.3847-.3584v-.3989ZM16.81,17.4735v1.1253l-.3345-.313v-.4993Zm.5205.3608v.4037l-.3847.3583v-1.12Zm.5207-.3583v1.12l-.3846-.3608v-.399Zm.5233.3607v.399l-.3847.3607v-1.12l.3847.3607Zm.5207.7621L18.51,18.238v-.375a1.564,1.564,0,0,0,.3847-.387v1.1228Zm-.9746.4969.4061-.3775v9.2694l.0478.76-.86.87V18.7157l.4061.38Zm-.638,10.1748a2.2848,2.2848,0,0,1-.8075,1.1515V18.7208l.4013.375.4062-.3775Z"/><path class="a" d="M20.6556,28.2648l.2963-.2031.0453.2318-1.216,1.6531a1.652,1.652,0,0,0-.1649.4276s-.1313-.0621-.1313-.1743c0-.11.0144-.2413.0144-.2413a.3754.3754,0,0,1-.2677.1123c0-.1355.262-.2825.2724-.4754-.2.1481-.3733.0721-.6044.1434-.2517.0775-.3218.1832-.3989.1792-.0455-.0025-.0867-.0809-.0693-.1291a1.0788,1.0788,0,0,1,.5589-.3559c.0522-.01.4622.0892.5448-.0382l.946-1.46a.313.313,0,0,0,.0931-.0336.7226.7226,0,0,0,.0813.3631Zm-1.9047,1.6363a.0441.0441,0,0,1-.0024.0621l-.1338.117a.0445.0445,0,0,1-.0621-.0072.044.044,0,0,1,.0025-.0621l.1337-.117a.04.04,0,0,1,.0311-.01.05.05,0,0,1,.0311.0168h0Zm.2031.1409a.1044.1044,0,0,1-.0039.1474l-.0009.0008-.3249.2842a.1112.1112,0,0,1-.1458-.1671l.3249-.2819a.1031.1031,0,0,1,.0574-.024A.1134.1134,0,0,1,18.954,30.042Zm.1862.22a.1042.1042,0,0,1-.0037.1472h0l-.001.001-.3273.2842a.1051.1051,0,0,1-.1478-.0162l0-.0005a.1068.1068,0,0,1,.0048-.15l.3249-.2819a.0971.0971,0,0,1,.055-.024.1176.1176,0,0,1,.0955.0406Zm.1121.1744a.1109.1109,0,0,1,.0932.0382.1069.1069,0,0,1-.0047.1505l-.325.282a.1106.1106,0,0,1-.1457-.1649l.3273-.2843a.0932.0932,0,0,1,.0549-.0215Z"/><path d="M23.999,17.1861l2.0712.4667a4.96,4.96,0,0,0,.8481-.3392A3.0084,3.0084,0,0,1,28.4,16.6757v-.4946c0-.2642-.0956-.5023-.0956-.7549.2741-.0735,1.035-1.0038,1.7368-1.4167a4.032,4.032,0,0,1,1.8324,2.272v14.63a1.7056,1.7056,0,0,0,.1313.5256,4,4,0,0,1-1.2136-1.4644v.172a2.9858,2.9858,0,0,1-1.173-1.2948l-.012.1791c-.5086-.4459-1.1562-3.0818-1.1562-3.0818l-1.0791,1.06a6.3473,6.3473,0,0,0,.5423.9341,1.8149,1.8149,0,0,1-.2174.0119c.0711.1021.6136.8832.7836,1.1778.1591.2756.2714.1529.5161.1529a1.4377,1.4377,0,0,1,.7381.4539.956.956,0,0,1,.1385.442.7884.7884,0,0,1-.16.3584.1875.1875,0,0,0-.0478-.098l-.4826.5925a.334.334,0,0,1-.3392.0191A2.85,2.85,0,0,1,28.3,30.51c-.087-.1284-.0936-.2755-.1935-.4134l-1.1515-1.5456-.0286.16a5.3583,5.3583,0,0,0-1.001-1.013l-.867.399s1.6187,3.721,3.0556,4.2931c0,0-.6251.2656-1.3928.6642l-.344.184c-.0967-.1164-.1984-.2457-.2987-.38-.459-.6142-.9079-1.3259-.9079-1.3259a3.7945,3.7945,0,0,0,.6212,1.46l.258.43-.3106.1816A5.0779,5.0779,0,0,0,24,35.0712l-.1867-.4671L24,34.137V17.8057l-.0933-.2333.0924-.3863Z"/><path class="e" d="M24,34.137a5.9509,5.9509,0,0,1,1.46-.9747,7.8045,7.8045,0,0,1-.9627-3.9611,9.067,9.067,0,0,0,.6953,1.7607,13.5923,13.5923,0,0,0,1.2111,1.7512,9.62,9.62,0,0,1,.97-.3584c-1.2627-.9726-2.5539-4.1879-2.5539-4.1879l1.3353-.6188a7.0641,7.0641,0,0,0,.6617.6905s.0693-.29.11-.3919a.8056.8056,0,0,0,.2961.1483l.055-.325a.6521.6521,0,0,0,.3512.0693c-.1926-.0912-.4205-.65-.4205-.65l1.275-1.696a7.7009,7.7009,0,0,0,.958,2.5945V18.7207l-.4038.3751-.6115-.571V18.09l.5423.5064V17.2849q-.0939-.1412-.1768-.2891a3.88,3.88,0,0,1-.7047.91c-.0548-.2229-.4157-.4348-.4157-.4348s-.1293.35-.3272.4372a2.4872,2.4872,0,0,0-.4851-.3942,1.1964,1.1964,0,0,1,.4993.1888c.1237-.0277.1554-.516.1554-.516s.5229.2547.6139.4371c.1-.0269.255-.4194.3154-.58a3.4938,3.4938,0,0,0-.3894-.0215,1.4111,1.4111,0,0,0-.54.1649c-.22.1034-.4494.2343-.6546.3273a2.4219,2.4219,0,0,1-.7764.1481,3.4367,3.4367,0,0,0,.4371.258,2.8878,2.8878,0,0,1-1.0655-.2246,4.2144,4.2144,0,0,1-.4587-.32,1.6966,1.6966,0,0,0,.3011.5351,1.44,1.44,0,0,1-1.0583-.5471,1.7633,1.7633,0,0,1-.2389.442h-.2334V33.6723L24,34.137Zm4.7579-18.6631-.0119.2962v.8721a2.0019,2.0019,0,0,0,.6713-.6689v-.12a.33.33,0,0,0-.1147-.2389l.1409-.05a.41.41,0,0,1,.1123.27v.0693l.42.4516.4133-.626v-.1528a.5277.5277,0,0,0-.1457-.2963l.1386-.05a.5915.5915,0,0,1,.1433.3272v.1242l.4754.49.2413-.5184a5.7848,5.7848,0,0,0-1.2016-1.1725,7.87,7.87,0,0,1-1.2829.9932ZM31.19,16.32v.7192l.3344.3105V16.2815a.82.82,0,0,0-.1146-.3608l-.22.3989Zm-1.0416.2772v.4443l.3846.3608v-1.39l-.3846.5853Zm.5208.8027.3847-.3583V16.52l-.3847-.4038Zm-1.7559-.54a2.0258,2.0258,0,0,0,.5757.571V16.21A1.9651,1.9651,0,0,1,28.9134,16.86Zm.712-.5877V17.4l.3847-.3584v-.3989l-.3847-.37ZM31.19,17.4735v1.1253l.3345-.313v-.4993Zm-.5205.3608v.4037l.3847.3583v-1.12Zm-.5207-.3583v1.12l.3846-.3608v-.399Zm-.5233.3607v.399l.3847.3607v-1.12l-.3847.3607Zm-.5207.7621.3847-.3608v-.375a1.564,1.564,0,0,1-.3847-.387v1.1228Zm.9746.4969-.4061-.3775v9.2694l-.0478.76.86.87V18.7157l-.4061.38Zm.638,10.1748a2.2848,2.2848,0,0,0,.8075,1.1515V18.7208l-.4013.375-.4062-.3775V29.2705Z"/><path class="a" d="M27.3444,28.2648l-.2963-.2031-.0453.2318,1.216,1.6531a1.652,1.652,0,0,1,.1649.4276s.1313-.0621.1313-.1743c0-.11-.0144-.2413-.0144-.2413a.3754.3754,0,0,0,.2677.1123c0-.1355-.262-.2825-.2724-.4754.2.1481.3733.0721.6044.1434.2517.0775.3218.1832.3989.1792.0455-.0025.0867-.0809.0693-.1291a1.0788,1.0788,0,0,0-.5589-.3559c-.0522-.01-.4622.0892-.5448-.0382l-.946-1.46a.313.313,0,0,1-.0931-.0336.7226.7226,0,0,1-.0813.3631Zm1.9047,1.6363a.0441.0441,0,0,0,.0024.0621l.1338.117a.0445.0445,0,0,0,.0621-.0072.044.044,0,0,0-.0025-.0621l-.1337-.117a.04.04,0,0,0-.0311-.01.05.05,0,0,0-.0311.0168h0Zm-.2031.1409a.1044.1044,0,0,0,.0039.1474l.0009.0008.3249.2842a.1112.1112,0,0,0,.1458-.1671l-.3249-.2819a.1031.1031,0,0,0-.0574-.024A.1134.1134,0,0,0,29.046,30.042Zm-.1862.22a.1042.1042,0,0,0,.0037.1472h0l.001.001.3273.2842a.1051.1051,0,0,0,.1478-.0162l0-.0005a.1068.1068,0,0,0-.0048-.15l-.3249-.2819a.0971.0971,0,0,0-.055-.024.1176.1176,0,0,0-.0955.0406Zm-.1121.1744a.1109.1109,0,0,0-.0932.0382.1069.1069,0,0,0,.0047.1505l.325.282a.1106.1106,0,0,0,.1457-.1649l-.3273-.2843a.0932.0932,0,0,0-.0549-.0215Z"/><path class="e" d="M23.5209,12.6431a3.3807,3.3807,0,0,1,1.4168.4682c.1326.0588.2543.1064.363.1433a.447.447,0,0,0-.1362.172.5137.5137,0,0,1,.33.2318s-.2156.0245-.2509.15a.3172.3172,0,0,1,.2414.3082l-.3059-.0956a3.8416,3.8416,0,0,1,.0741.7167c0,.1907-.2747.4151-.2747.7382a2.86,2.86,0,0,0,.4372,1.7177,1.3532,1.3532,0,0,0,.2485.37c-.5235-.2788-.9126-.6272-.9126-.9508V15.388h-.1362v1.2256a.8026.8026,0,0,0,.0573.344,4.6027,4.6027,0,0,0,.3512.8218c-.4816-.26-.7263-.5862-.7263-.7071V15.388h-.1362v1.7081l.0263.1171a1.0073,1.0073,0,0,1-.1863.2269,1.009,1.009,0,0,1-.184-.2269l.0263-.1171V15.388h-.1362v1.6843c0,.1208-.2447.4468-.7263.7071a4.6059,4.6059,0,0,0,.3512-.8218.8026.8026,0,0,0,.0573-.344V15.388h-.1362v1.2256c0,.3233-.3876.6722-.91.9508a1.3736,1.3736,0,0,0,.246-.37,3.4308,3.4308,0,0,0,.4444-2.0187,2.11,2.11,0,0,0-.1887-1.0034c-.0365-.0731-.0856-.2676.1934-.2676.1446,0,.4755.2557.4755.2557a.4591.4591,0,0,0-.1816-.32.1962.1962,0,0,1-.074-.1362.2886.2886,0,0,1,.1289-.172c.0389-.0177-.5685-.1235-.5685-.399,0-.0573.0361-.0955.1623-.0955.1655,0,.4346.1982.6738.1982.1768,0,.2466-.043.4276-.043.2213,0,.683.419.8409.4037-.1765-.1108-.4617-.53-.8934-.53-.15,0-.2855.0334-.4253.0334-.1793,0-.3558-.1648-.5495-.1648-.13,0-.2748.0072-.2963-.0264-.0375-.0585-.0037-.0925.0311-.1409.0658-.0913.25-.1178.4325-.1242.0546-.0019.1091-.0028.16-.0024l.1387.0025h0Z"/><path class="a" d="M21.7847,13.2989a.4521.4521,0,0,1,.3983-.2138c.1193,0,.5129-.0083.5129-.0083.0525.1363.2917.3641.2917.601a1.0291,1.0291,0,0,0-.92-.4376.6616.6616,0,0,0-.2826.0586Zm1.1018.4624a1.1474,1.1474,0,0,0-.1757.2332,1.7234,1.7234,0,0,1-.3919-.3108.9543.9543,0,0,0,.5676.0776Z"/><path d="M22.6579,13.3586s-.1665-.0534-.1665-.1093c0-.0712.0808-.0712.1292-.0157a.2559.2559,0,0,1,.0372.125Z"/><ellipse cx="23.4344" cy="13.4499" rx="0.3441" ry="0.2611"/><circle class="d" cx="23.4341" cy="13.4499" r="0.239"/><circle cx="23.4342" cy="13.45" r="0.1095"/><path d="M19.5738,30.6244l.7561.4125-.1835.8413-.756-.4125Z"/><path d="M16.0516,22.5407l-.2724.1243,3.0771,6.74h.3273Zm3.6289,7.9483-.2221.2294.1385.3058.27-.1243Z"/><path d="M17.0078,27.8547s.2592.5353.4562.6087a1.3194,1.3194,0,0,0-.4327.0936,2.3437,2.3437,0,0,0,1.078.5553.81.81,0,0,0,.6232-.1805l-.084-.4445a1.6654,1.6654,0,0,0-.6674-.453,4.373,4.373,0,0,0-.9734-.18Zm1.9539-.959a1.62,1.62,0,0,0-.4558.6612,1.3692,1.3692,0,0,0,.0638.7582l.3007.561a1.6373,1.6373,0,0,0,.5941-.5535,1.459,1.459,0,0,0,.1123-.7792,1.8079,1.8079,0,0,0-.3722.1773,1.36,1.36,0,0,0-.2429-.825Zm-1.15-.1433a2.43,2.43,0,0,1-.8023.1138,1.23,1.23,0,0,1-.69-.3389s.3121-.2112.4662-.1831c-.1695-.0619-.4152-.4864-.4152-.4864a1.1623,1.1623,0,0,1,.6588.0112,1.6544,1.6544,0,0,1,.5795.4559l.2026.4275Zm.14-1.988s.2036.4215.1553.568a1.4006,1.4006,0,0,1,.3021-.25,2.6846,2.6846,0,0,1,.0063,1.104,1.02,1.02,0,0,1-.5588.5819l-.464-.9024a.9938.9938,0,0,1,.0756-.599,1.8664,1.8664,0,0,1,.4835-.503Zm-2.6483-1.1158a1.9515,1.9515,0,0,1,.8423.1205.8127.8127,0,0,1,.44.3936l.1658.4442a1.4463,1.4463,0,0,1-.8572.0423,1.5827,1.5827,0,0,1-.6564-.5917.8265.8265,0,0,1,.3651-.0627c-.1466-.0648-.2991-.3462-.2991-.3462h0Zm1.3836-.8246a1.0234,1.0234,0,0,1,.1989.5331.92.92,0,0,1,.2925-.3192,2.5366,2.5366,0,0,1,.1935,1.0258,1.08,1.08,0,0,1-.4111.678l-.4448-.8443a1.3758,1.3758,0,0,1-.1023-.6145.8507.8507,0,0,1,.2733-.459Zm-1.5236-1.6147a1.435,1.435,0,0,0,.0559.7248.828.828,0,0,0,.1984.2882,1.3211,1.3211,0,0,0-.5807-.1657,1.5268,1.5268,0,0,0,.4217.7285,1.1867,1.1867,0,0,0,.7558.1749,1.4787,1.4787,0,0,0,.2805-.8337,1.9882,1.9882,0,0,0-.3644-.8958,1.6415,1.6415,0,0,0-.1474.4906c-.0876-.2162-.62-.5117-.62-.5117Zm3.5933,7.7033.0124.1651c.2741.0025.315-.0248.3852.0617a.2324.2324,0,0,0,.27.0567.226.226,0,0,0,.1111-.2976.2136.2136,0,0,0-.2555-.1165c-.0616.0122-.1021.0613-.1543.0883a1.1138,1.1138,0,0,1-.3691.0423Z"/><path d="M18.7326,28.7866l.1334.0978c-.1431.234-.1878.2541-.1517.36a.2325.2325,0,0,1-.095.2592.2259.2259,0,0,1-.3112-.0634.2136.2136,0,0,1,.0366-.2784c.0429-.0458.1059-.0541.1564-.0841a1.1142,1.1142,0,0,0,.2315-.2906Zm-.9287-1.96.0123.1651c.2743.0025.315-.0248.3853.0616a.2324.2324,0,0,0,.27.0567.2255.2255,0,0,0,.111-.2975.2134.2134,0,0,0-.2554-.1165c-.0616.0122-.1021.0613-.1543.0883a1.1138,1.1138,0,0,1-.3691.0423Z"/><path d="M17.86,26.8849l.1166.1175c-.1777.2088-.2251.2218-.2058.3315a.2324.2324,0,0,1-.1341.2413.226.226,0,0,1-.2976-.111.2136.2136,0,0,1,.0794-.2694.6043.6043,0,0,1,.1677-.0587,1.115,1.115,0,0,0,.2738-.2511Zm-.9786-2.0113.0123.1651c.2742.0025.315-.0248.3854.0617a.2324.2324,0,0,0,.27.0566.2259.2259,0,0,0,.111-.2976.2137.2137,0,0,0-.2556-.1164c-.0616.0122-.102.0613-.1542.0882a1.1119,1.1119,0,0,1-.3691.0424Z"/><path d="M16.9569,24.8391l.1166.1174c-.1777.2088-.225.2218-.2058.3315a.2324.2324,0,0,1-.1341.2413.2259.2259,0,0,1-.2975-.1111.2135.2135,0,0,1,.0794-.2693.6034.6034,0,0,1,.1677-.0588,1.1141,1.1141,0,0,0,.2737-.251Zm-1.0593-2.0272.0123.165c.2742.0025.3151-.0248.3853.0616a.2323.2323,0,0,0,.27.0568.2259.2259,0,0,0,.1111-.2976.2136.2136,0,0,0-.2556-.1165c-.0615.0122-.102.0614-.1542.0883a1.1146,1.1146,0,0,1-.3691.0424Z"/><path d="M15.9737,22.7773l.1165.1175c-.1777.2088-.225.2218-.2058.3316a.2322.2322,0,0,1-.134.2412.2259.2259,0,0,1-.2975-.111.2136.2136,0,0,1,.0792-.2694.6084.6084,0,0,1,.1678-.0588,1.1141,1.1141,0,0,0,.2737-.251Z"/><path class="d" d="M19.6827,30.8629l.4689.2558-.1137.5219-.469-.2558ZM17.63,26.3375c-.0983.0408-.2441-.3871-.3512-.6215-.11-.2405-.3327-.6113-.2694-.64.07-.0318.161.1629.2734.4091s.4392.8143.3472.8525ZM16.6205,24.084c-.0983.0409-.2058-.2393-.3128-.4737-.11-.24-.2168-.41-.1535-.4394.07-.0317.1722.1791.2621.3759.0871.1908.2962.4989.2041.5372Zm2.3352,5.11a5.2811,5.2811,0,0,1-.6862-1.2806,3.34,3.34,0,0,1-.4116-1.1077,4.5734,4.5734,0,0,1,.5623,1.1281,7.0881,7.0881,0,0,1,.5355,1.26Z"/><circle class="d" cx="19.332" cy="28.9926" r="0.1216"/><circle class="d" cx="18.4955" cy="29.3169" r="0.1216"/><circle class="d" cx="18.3792" cy="26.905" r="0.1216"/><circle class="d" cx="17.5423" cy="27.3712" r="0.1216"/><circle class="d" cx="17.4563" cy="24.9527" r="0.1216"/><circle class="d" cx="16.6397" cy="25.3254" r="0.1216"/><circle class="d" cx="16.473" cy="22.8912" r="0.1216"/><circle class="d" cx="15.6566" cy="23.2637" r="0.1216"/><path class="f" d="M15.2984,21.4889a1.2011,1.2011,0,0,0,.0993.5266.7.7,0,0,0,.3595.2667,1.2022,1.2022,0,0,0-.0993-.5265A.7013.7013,0,0,0,15.2984,21.4889Zm-.2324.76a.9921.9921,0,0,1,.46.1463.8164.8164,0,0,1,.2338.3983.5571.5571,0,0,1-.362-.11A1.6707,1.6707,0,0,1,15.066,22.2491Zm.9161-.6786a1.1728,1.1728,0,0,0-.0859.4626,1.478,1.478,0,0,0,.1512.51,1.4186,1.4186,0,0,0,.1154-.5282.8632.8632,0,0,0-.1807-.4448Zm-.4914,2.1635a1.1085,1.1085,0,0,0,.3639.3092,1.5256,1.5256,0,0,0,.5494.1131,1.2778,1.2778,0,0,0-.3847-.322,1.32,1.32,0,0,0-.5286-.1Zm.0709.4648a.7213.7213,0,0,0,.2979.2947,1.7964,1.7964,0,0,0,.5868.0812,1.0962,1.0962,0,0,0-.3438-.2812,1.73,1.73,0,0,0-.541-.0947Zm1.1093-1.1a.8005.8005,0,0,0-.1051.4044,1.1537,1.1537,0,0,0,.1506.4439,1.45,1.45,0,0,0,.0864-.4778.7386.7386,0,0,0-.132-.37Zm.4288.2721a1.2949,1.2949,0,0,0-.2278.5423,1.1644,1.1644,0,0,0,.1133.5573,1.0142,1.0142,0,0,0,.2693-.5165,1.13,1.13,0,0,0-.1548-.583Zm-.5492,2.5386a.5851.5851,0,0,0,.1072.2038,1.5962,1.5962,0,0,0,.2256.2162.6538.6538,0,0,1,.3087-.0072,1.4985,1.4985,0,0,1,.3986.1894,1.9082,1.9082,0,0,0-.4991-.5075.922.922,0,0,0-.5409-.0947Zm-.0252.6282a1.3176,1.3176,0,0,1,.578-.1,1.1054,1.1054,0,0,1,.4965.2413,1.6451,1.6451,0,0,1-.6139.0872.9258.9258,0,0,1-.4607-.228Zm1.34-1.4738a1.2123,1.2123,0,0,0-.3039.5548.7326.7326,0,0,0,.2273.4978.7544.7544,0,0,1,.0309-.2741,1.0815,1.0815,0,0,1,.135-.225.6773.6773,0,0,0,.024-.2391,1.0971,1.0971,0,0,0-.1133-.3144Zm.4022.344a1.4332,1.4332,0,0,0-.334.5536,1.0989,1.0989,0,0,0,.0546.5916.9753.9753,0,0,0,.31-.4758,1.6428,1.6428,0,0,0-.0307-.6694Zm.6618,1.7257a1.9406,1.9406,0,0,1,.15.4589.6415.6415,0,0,1,.0022.2812s-.1237.1217-.1792.1932a.5672.5672,0,0,0-.0818.26,1.1843,1.1843,0,0,1-.21-.6394,1.2475,1.2475,0,0,1,.319-.5542Zm.5236.5782a1.7027,1.7027,0,0,0-.4444.4257.5973.5973,0,0,0-.0609.4363.4908.4908,0,0,0,.3531-.2355,1.7936,1.7936,0,0,0,.1521-.6265Zm-2.0907.8876a3.5533,3.5533,0,0,1,.7388.0564.655.655,0,0,1,.3823.2191,1.04,1.04,0,0,1-.5954.0787,1.2315,1.2315,0,0,1-.5258-.3542Zm-.0775-.5441a1.3234,1.3234,0,0,0,.4743.4371,1.5589,1.5589,0,0,0,.7954.0826,1.5443,1.5443,0,0,0-.5509-.41,2.0708,2.0708,0,0,0-.7188-.11Z"/><path d="M32.9841,21.7574l.06.1265a.2746.2746,0,0,0-.141.1195.2563.2563,0,0,0,.0287.2079,2.2415,2.2415,0,0,0-.5829.0072c-.0713.0462.03.3954-.0168.69-.0654.4111-.2275.3766-.2341.4562a.4648.4648,0,0,0,.0621.1983s-.0945.03-.1147.0693c-.0324.0636.0226.1809-.0167.258l-.7573,1.486c-.03.0587-.11.0811-.1506.16a.29.29,0,0,0-.0071.1791.2491.2491,0,0,0-.1911.1052.4156.4156,0,0,0-.0216.2412.1888.1888,0,0,0-.1338.098c-.0471.0924.0327.1409.0121.1816l-.8338,1.6365c-.0761.1493-.3424.1792-.497.4826a.4478.4478,0,0,0,.0645.5112s-.2227.02-.2819.1362a.3078.3078,0,0,0,.5448.2771c.0591-.116-.06-.3082-.06-.3082a.4521.4521,0,0,0,.4515-.2508c.1546-.3034.0243-.534.1-.6833l.8338-1.6365c.0207-.0406.1057-.0055.1528-.0979a.1845.1845,0,0,0,0-.1648.4193.4193,0,0,0,.184-.16.2526.2526,0,0,0-.0262-.2174.2853.2853,0,0,0,.1409-.11c.04-.079.0106-.1563.0406-.2151l.7573-1.4859c.0393-.0772.1659-.1036.1983-.1673.02-.04-.0119-.1337-.0119-.1337a.456.456,0,0,0,.1982-.0646c.0606-.0521-.0624-.164.2318-.4586.2111-.2114.5515-.3357.5471-.4205a2.2388,2.2388,0,0,0-.3369-.4754s.14-.0118.184-.0979a.2826.2826,0,0,0,.0144-.1864l.1385-.0239V21.37l-.53.3871Zm-4.58,9.15a.1637.1637,0,0,0,0,.1457s-.1672-.0523-.2245-.0239a4.0972,4.0972,0,0,0,0,.8147,4.1029,4.1029,0,0,0,.6569-.48c-.0107-.0631-.1505-.17-.1505-.17a.16.16,0,0,0,.1171-.0835c.0219-.0432.0249-.1666-.1267-.2438a.2692.2692,0,0,0-.1481-.0334.1585.1585,0,0,0-.1242.0741Z"/><path class="d" d="M33.1055,21.7838l.3153.16-.0047-.38Zm-.1218.2294a.1822.1822,0,1,0,.2526-.0514l-.0185-.0107a.1961.1961,0,0,0-.1028-.0215.1568.1568,0,0,0-.1314.0836h0Zm-.5423.2891a3.9921,3.9921,0,0,0,.0024.547.64.64,0,0,1-.1219.37.6079.6079,0,0,1-.17.1577l.11.11s.0715-.1114.184-.3322a4.65,4.65,0,0,0,.1673-.7573,3.0147,3.0147,0,0,1,.31-.0908s-.2539-.0137-.3942-.0118a.313.313,0,0,0-.0884.0072Zm.0289,1.3115a3.6371,3.6371,0,0,1,.1649-.3536c.1545-.3032.4844-.5232.492-.5781a1.4558,1.4558,0,0,0-.1146-.3225,1.4706,1.4706,0,0,0-.3322.0956,3.5442,3.5442,0,0,1-.1768.7358,3.6393,3.6393,0,0,1-.191.344l.1577.0788Zm.743-.91c.0024.0462-.381.32-.5137.58-.1125.2208-.16.3441-.16.3441l.153.0239a.5943.5943,0,0,1,.0262-.2294.6438.6438,0,0,1,.2294-.3153c.19-.15.4465-.2807.4444-.32a3.8863,3.8863,0,0,0-.2868-.3894,3.07,3.07,0,0,1,.1075.3058h0Zm-1.1228,1.7033a2.847,2.847,0,0,1,.33-.54.1389.1389,0,0,0-.0789-.1959.1752.1752,0,0,0-.1-.0214.1308.1308,0,0,0-.1028.074,2.8706,2.8706,0,0,1-.2437.5854l-.5232,1.0248a.1087.1087,0,0,0,.04.1486h0l.0081.0042a.1045.1045,0,0,0,.1421-.04l.006-.0125.5232-1.0273Zm-.9245,1.1755c-.0285.056.02.1383.11.184s.1865.0369.215-.0192-.0227-.1383-.1123-.184a.2423.2423,0,0,0-.129-.0286.0987.0987,0,0,0-.0837.0478Zm-.1937.2914c-.0369.0725.0207.1765.1291.2318s.2258.0414.2627-.0311-.0207-.1765-.129-.2318a.297.297,0,0,0-.1194-.0334.1459.1459,0,0,0-.1434.0645Zm-.1218.325c-.0285.0559.02.1383.11.1839s.1865.0369.2151-.0191-.02-.1383-.11-.1839a.2505.2505,0,0,0-.1315-.0287.0983.0983,0,0,0-.0836.0478Zm-.0788.3106-.7859,1.5456c-.0655.1285-.3412.2086-.4492.4205a.3245.3245,0,1,0,.5686.2915c.1079-.2119.011-.4831.0764-.6116l.786-1.5457a.1073.1073,0,0,0-.0355-.1475l-.01-.0054a.1109.1109,0,0,0-.0669-.0119.12.12,0,0,0-.0836.0645Zm-1.47,2.6541a.221.221,0,1,0,.27-.0574.2474.2474,0,0,0-.1195-.0286.1691.1691,0,0,0-.1505.086ZM28.5283,30.91a.0791.0791,0,0,0-.0717.0334c-.0222.0437.0237.1127.1027.1529s.1617.0365.184-.0072-.0238-.1126-.1027-.1528a.2322.2322,0,0,0-.1123-.0264Zm-.2724.2149v.5639l.4587-.33a.512.512,0,0,0-.4587-.2342Zm.29-12.5569c0-.3093.4061-.614.4061-.614H19.0476s.4061.3047.4061.614v7.3726a.6719.6719,0,0,0,.1553.4444,2.0886,2.0886,0,0,0,.5088.4539,22.7907,22.7907,0,0,0,2.5611,1.2423A2.9217,2.9217,0,0,1,24,28.96a2.932,2.932,0,0,1,1.3235-.8791,22.7716,22.7716,0,0,0,2.561-1.2423,2.0855,2.0855,0,0,0,.5089-.4539.6706.6706,0,0,0,.1529-.4444V18.5679Z"/><path class="a" d="M19.6879,22.7391V18.5678a.6308.6308,0,0,0-.1195-.38h8.8633a.6308.6308,0,0,0-.1195.38l.0026,4.1713-4.3134,1.3067-4.3135-1.3067Z"/><path class="g" d="M28.3147,22.7391l-2.6709-.05h-3.285l-2.6709.05v3.2014c0,.1609.1669.5378,1.13,1.0177,1.5918.7932,2.8154,1.1635,3.1821,1.6149.3668-.4514,1.59-.8218,3.1822-1.6149.963-.48,1.13-.8568,1.13-1.0177l.0025-3.2014Z"/><path d="M25.5792,22.572A2.105,2.105,0,0,0,27.12,20.5366c0-1.2863-1.5448-1.9244-1.5887-2.2313-.151.5311.516,1.2646.516,2.1333,0,1.124-.829,1.1779-.829,1.1779-.194,0-.2726.1385-.3488.1385-.1632-.0171-.24-.2246-.4014-.2246-.1515,0-.2679.2341-.4682.2341s-.3143-.2341-.4659-.2341c-.1613,0-.2381.2075-.4013.2246-.0763,0-.1549-.1385-.3489-.1385,0,0-.8289-.0539-.8289-1.1779,0-.8687.6671-1.6023.516-2.1333-.0438.3069-1.5886.945-1.5886,2.2313a2.105,2.105,0,0,0,1.5409,2.0354l-.44.8a1.9327,1.9327,0,0,1,.9747.32c.4076.3476.3679,1.084.3679,1.62a1.4888,1.4888,0,0,1-.27,1.0511c-.2908.2466-.4874.2648-.4874.5543,0,.2414.1856.29.4874.4492.3867.204.3687.4777.9436.4777s.5593-.2736.9461-.4777c.3018-.1594.4874-.2078.4874-.4492,0-.29-.1967-.3077-.4874-.5543a1.4891,1.4891,0,0,1-.27-1.0511c0-.5358-.04-1.2722.3678-1.62a1.934,1.934,0,0,1,.9748-.32l-.44-.8ZM24,18.42l-.2677.76-.7286-.3465.3464.7287-.76.27.76.27-.3464.7263.7286-.3464.2677.76.27-.76.7287.3464-.3464-.7263.76-.27-.76-.27.3464-.7287-.7287.3465Zm-1.6413,4.27a2.8227,2.8227,0,0,1-1.3068-.7023,3.6662,3.6662,0,0,1-1.3641.7525,8.3016,8.3016,0,0,1,1.3641.7956,4.3457,4.3457,0,0,1,1.3068-.8458Z"/><path d="M25.6435,22.6891a4.3437,4.3437,0,0,1,1.3068.8458,8.3028,8.3028,0,0,1,1.364-.7956,3.6688,3.6688,0,0,1-1.364-.7525,2.8227,2.8227,0,0,1-1.3068.7023Zm-2.8952,1.0127-.37.37.37.37.37-.37Zm2.506,0-.37.37.37.37.37-.37Zm-2.5992,2.1621a4.4,4.4,0,0,1-.0454.7143.9455.9455,0,0,0,.626-.6833c.0487-.2482.103-1.1628-.1482-1.3187l-.6808-.1338a4.1727,4.1727,0,0,1,.2484,1.4215Zm2.26-1.2877c-.2511.1559-.1968,1.07-.1481,1.3188a.9452.9452,0,0,0,.626.6832,4.388,4.388,0,0,1-.0454-.7143,4.17,4.17,0,0,1,.2485-1.4215l-.6809.1338Zm-3.8651.0265a.4336.4336,0,0,0-.2771.6331.3937.3937,0,0,0-.1529-.0215.4382.4382,0,1,0,.0908.87.4311.4311,0,0,0-.0525.0931.439.439,0,1,0,.8129.3316l.0017-.0042a.4192.4192,0,0,0,.0263-.1027.4393.4393,0,1,0,.5471-.65.4385.4385,0,1,0-.368-.7883.431.431,0,0,0-.0836.0669.4416.4416,0,0,0-.5447-.4277Zm4.6583,1.2756a1.1149,1.1149,0,0,0,.86.9294.9922.9922,0,0,1-.1433-.4133.8738.8738,0,0,1,.9149-.96,1.0986,1.0986,0,0,1,.258.0312,1.1582,1.1582,0,0,0-.9747-.5495.8755.8755,0,0,0-.9149.9627Z"/><path class="d" d="M21.7306,20.4386c0,.846.4511,1.345,1.0535,1.345.1149,0,.2406.1553.3488.1553.1765,0,.2939-.1959.4014-.1959.1366,0,.2287.215.4658.215s.3317-.215.4683-.215c.1074,0,.2248.1959.4013.1959.1083,0,.2339-.1553.3489-.1553.6024,0,1.0536-.499,1.0536-1.345,0-.69-.58-1.5311-.5161-1.6676,0,0,1.13.8106,1.13,1.7655a2.0559,2.0559,0,0,1-1.56,1.9184l.3511.7907a1.9036,1.9036,0,0,0-.7788.3106c-.3938.3176-.399,1.1756-.399,1.7559,0,.6836.0255.9733.2724,1.1587.26.1957.4563.2378.4563.4372,0,.1738-.2028.2448-.4659.3608-.2993.1319-.3291.3607-.7621.3607s-.46-.2288-.76-.3607c-.2631-.116-.4659-.187-.4659-.3608,0-.1994.1959-.2415.4563-.4372.2469-.1854.2723-.4751.2723-1.1587,0-.58-.0051-1.4383-.3989-1.7559a1.902,1.902,0,0,0-.7788-.3106l.3511-.7907a2.0559,2.0559,0,0,1-1.56-1.9184c0-.9549,1.13-1.7655,1.13-1.7655.0634.1365-.516.9777-.516,1.6676h0ZM23.41,26.7911c-.3065,0-.5017.0647-.5017.1577s.1953.1553.5017.1553a.16.16,0,0,0,.1744-.1553.162.162,0,0,0-.1657-.1581l-.0087,0Zm1.1825,0a.1619.1619,0,0,0-.1739.149h0l-.0005.0087a.16.16,0,0,0,.1744.1553c.3065,0,.5017-.0622.5017-.1553s-.1952-.1577-.5017-.1577Zm-.59-7.86.172.485.4634-.2222-.22.4659.4826.172-.4826.172.22.4635-.4634-.22L24,20.73l-.172-.4826-.4635.22.22-.4635-.4826-.172.4826-.172-.22-.4659.4635.2222.1744-.485ZM20.1413,22.753a5.22,5.22,0,0,1,.884.5543l.0167.0143.0095-.0119a3.2894,3.2894,0,0,1,.7979-.5925,1.8785,1.8785,0,0,1-.8122-.4969A2.6924,2.6924,0,0,1,20.1413,22.753Zm7.7192.0008a5.2164,5.2164,0,0,0-.884.5542l-.0167.0144-.01-.0119a3.2845,3.2845,0,0,0-.7979-.5925,1.88,1.88,0,0,0,.8122-.4969A2.6943,2.6943,0,0,0,27.8605,22.7538Zm-5.1122,1.1249.1935.1934-.1935.196-.1959-.196Zm2.506,0,.1959.1934-.1959.196-.1935-.196Zm-2.2432.8455a1.693,1.693,0,0,1,.1123.9079.6568.6568,0,0,1-.3177.5853,5.8461,5.8461,0,0,0-.16-1.57l.3655.0764Zm2.3458-.0765a5.8448,5.8448,0,0,0-.16,1.57.6563.6563,0,0,1-.3177-.5852,1.6931,1.6931,0,0,1,.1122-.9079l.3655-.0765Zm-3.8485.3849a.3321.3321,0,0,1,.0072.1124.3223.3223,0,0,1-.0215.0859.5.5,0,0,0-.54.1386.34.34,0,0,1-.0621-.0717.3342.3342,0,0,1-.0454-.1.341.341,0,0,1,.6617-.1649Zm.5093.6374a.3314.3314,0,0,1-.1046.0415.3238.3238,0,0,1-.0884.0062.5.5,0,0,0-.2986-.4707.3359.3359,0,0,1,.049-.0812.332.332,0,0,1,.0813-.0742.341.341,0,1,1,.3613.5784Zm-.4487.6813a.3289.3289,0,0,1-.0718-.0866.3207.3207,0,0,1-.0332-.0822.5.5,0,0,0,.3554-.43.3445.3445,0,0,1,.0923.0215.3366.3366,0,0,1,.0957.0545.341.341,0,0,1-.4384.5223Zm-.7867-.2162a.3333.3333,0,0,1,.06-.0951.3248.3248,0,0,1,.0679-.0569.5.5,0,0,0,.5183.2052.3413.3413,0,0,1,.0081.0945.3318.3318,0,0,1-.0223.1078.341.341,0,0,1-.6322-.2556h0Zm-.0374-.815a.3325.3325,0,0,1,.109.0279.32.32,0,0,1,.0751.047.5.5,0,0,0-.035.5564.3394.3394,0,0,1-.0874.0368A.3342.3342,0,0,1,20.6972,26a.3409.3409,0,0,1,.0477-.68h0Z"/><circle class="d" cx="21.3245" cy="25.7018" r="0.3297"/><path class="d" d="M27.1128,25.2573a1.07,1.07,0,0,0-.884,1.1539.8572.8572,0,0,1-.3249-.5542.6677.6677,0,0,1,.7191-.7431.9375.9375,0,0,1,.49.1434Z"/><path d="M28.7588,18.0275H19.2412a.8558.8558,0,0,1,.2865.54V24.97h0v.97h0a.6332.6332,0,0,0,.036.2232.6621.6621,0,0,0,.1012.176l.0017.0023a1.7323,1.7323,0,0,0,.3207.3143q.0408.0321.0829.0622t.0848.058l.0006,0a15.9947,15.9947,0,0,0,1.9958.9886l.5551.2479,0,0h0l.0158.0072h0A3.0556,3.0556,0,0,1,24,28.8441a3.0609,3.0609,0,0,1,1.2831-.8274h0l.0075-.0034.5551-.2478a16.0049,16.0049,0,0,0,1.996-.9887l0,0a2.3314,2.3314,0,0,0,.3924-.3212q.0279-.029.0539-.0595c.0155-.0182.03-.0364.0424-.0541l.0011-.0011,0,0,.0006-.0009a.6857.6857,0,0,0,.1026-.1766.6186.6186,0,0,0,.037-.2226h0v-.97h0V18.5673a.856.856,0,0,1,.2865-.54Zm-.1383.54V24.97h0v.97h0a.7641.7641,0,0,1-.0468.2747.8284.8284,0,0,1-.1228.213h0q-.0237.0327-.05.0633-.0291.0342-.06.0665a2.4752,2.4752,0,0,1-.4184.3426l0,0a16.0656,16.0656,0,0,1-2.0168,1l-.5535.2473-.0074.0034h0a2.8545,2.8545,0,0,0-1.2865.8547L24,29.0775l-.0576-.0712a2.8484,2.8484,0,0,0-1.2809-.851h0l-.0156-.007-.0005,0h0v0l-.5535-.2474a16.05,16.05,0,0,1-2.0167-1l-.0017-.0011-.0006,0h0c-.0292-.019-.0591-.0393-.089-.0608s-.0591-.0434-.0875-.0657a1.8812,1.8812,0,0,1-.35-.345h0a.8045.8045,0,0,1-.1215-.2131.7779.7779,0,0,1-.0453-.2741h0v-.97h0V18.5673c0-.2725-.3753-.5541-.3763-.5549v-.1331h9.9936v.1331c-.001.0008-.3763.2824-.3763.5549h0Zm-.2241-.4536,0,0h.1886l-.0959.12a.5509.5509,0,0,0-.1029.3338V24.97h0v.97h0c0,.1312-.0919.3845-.5242.7h0c-.0808.0591-.1741.1209-.2816.185s-.2291.1307-.3639.198l0,0-.0014.0007v0c-.5776.2879-1.111.5219-1.5716.7238a5.005,5.005,0,0,0-1.5861.8713l-.0011.0014,0,0-.0576.0672-.0558-.0687a5.0013,5.0013,0,0,0-1.5865-.8716c-.46-.2019-.9933-.4357-1.57-.7232v0l-.001,0v0a3.7074,3.7074,0,0,1-.8539-.5519q-.0483-.0444-.0932-.0923a.6878.6878,0,0,1-.2238-.44h0v0h0v-.97h0V18.5673a.5514.5514,0,0,0-.103-.3338l-.0958-.12h.3182v0h8.5338v0h.13Zm-.1294.1476v0H19.7331v0h-.0369a.7422.7422,0,0,1,.0656.306V24.97h0v.97h0v0h0a.5513.5513,0,0,0,.1845.3389c.0252.0271.0535.0553.085.0842a3.5606,3.5606,0,0,0,.82.5281v0l.001.0006v0c.5805.2893,1.108.5206,1.5634.72a5.86,5.86,0,0,1,1.5847.85,5.8678,5.8678,0,0,1,1.5846-.85c.4558-.2.9837-.4314,1.5647-.7209v0l.0014-.0007v0c.1344-.0669.2519-.1312.3542-.1922s.1925-.1207.27-.1773h0c.382-.2788.4631-.4808.4631-.5812h0v-.97h0V18.5673a.7422.7422,0,0,1,.0655-.306Z"/></svg>