<svg xmlns="http://www.w3.org/2000/svg" viewBox="0 0 48 48"><defs><style>.a{fill:#c00;}.a,.b,.c{fill-rule:evenodd;}.b{fill:#fff;}.c{fill:#006;}.d{fill:#fc0;}</style></defs><title>fi_my</title><path class="a" d="M11.6,3.4H36.3A24.1157,24.1157,0,0,0,24,0,24.7651,24.7651,0,0,0,11.6,3.4Z"/><path class="b" d="M7.2,6.9H40.8a20.7092,20.7092,0,0,0-4.4-3.4H11.6A20.7092,20.7092,0,0,0,7.2,6.9Z"/><path class="a" d="M4.3,10.3H43.7a23.6614,23.6614,0,0,0-2.9-3.4H7.2A23.6614,23.6614,0,0,0,4.3,10.3Z"/><path class="b" d="M2.3,13.7H45.7a23.291,23.291,0,0,0-2-3.4H4.3A37.9117,37.9117,0,0,0,2.3,13.7Z"/><path class="a" d="M1,17.1H47a34.2256,34.2256,0,0,0-1.3-3.4H2.3A23.6724,23.6724,0,0,0,1,17.1Z"/><path class="b" d="M.2,20.6H47.7a18.7283,18.7283,0,0,0-.8-3.4H1A33.8336,33.8336,0,0,0,.2,20.6Z"/><path class="a" d="M0,24H48c0-1.2-.1-2.3-.2-3.4H.2C.1,21.7,0,22.8,0,24Z"/><path class="b" d="M.2,27.4H47.7a19.4041,19.4041,0,0,0,.2-3.4H0C0,25.2.1,26.3.2,27.4Z"/><path class="a" d="M1,30.9H47c.3-1.1.6-2.3.8-3.4H.2C.4,28.6.7,29.7,1,30.9Z"/><path class="b" d="M2.3,34.3H45.7A19.8894,19.8894,0,0,0,47,30.9H1A23.6724,23.6724,0,0,0,2.3,34.3Z"/><path class="a" d="M4.3,37.7H43.7a23.291,23.291,0,0,0,2-3.4H2.3A23.291,23.291,0,0,0,4.3,37.7Z"/><path class="b" d="M7.2,41.1H40.8a23.6614,23.6614,0,0,0,2.9-3.4H4.3A23.6614,23.6614,0,0,0,7.2,41.1Z"/><path class="a" d="M11.6,44.6H36.3a24.57,24.57,0,0,0,4.4-3.4H7.2A30.2205,30.2205,0,0,0,11.6,44.6Z"/><path class="b" d="M36.4,44.6H11.6A24.7651,24.7651,0,0,0,24,48,24.7651,24.7651,0,0,0,36.4,44.6Z"/><path class="c" d="M.2,27.4H30.8V1a26.1432,26.1432,0,0,0-6.9-1A23.9211,23.9211,0,0,0,0,24C0,25.2.1,26.3.2,27.4Z"/><path class="d" d="M22.7486,8.3333,23.3431,12.4l2.3-3.4054L24.41,12.9164l3.55-2.0721-2.811,3,4.1-.3278L25.4152,15l3.8332,1.4833-4.1-.3278,2.811,3L24.41,17.083l1.2333,3.922-2.3-3.4054-.5945,4.0665L22.1542,17.6l-2.3,3.4054,1.2333-3.922-3.55,2.0721,2.811-3-4.1.3278L20.0821,15l-3.8332-1.4833,4.1.3278-2.811-3,3.55,2.0721-1.2333-3.922,2.3,3.4054ZM19.4154,8.5a7.1108,7.1108,0,1,0,0,13,8,8,0,1,1,0-13Z"/></svg>