<svg xmlns="http://www.w3.org/2000/svg" viewBox="0 0 48 48"><defs><style>.a,.d{fill:#fff;}.b{fill:#003893;}.b,.c,.d{fill-rule:evenodd;}.c{fill:#dc143c;}</style></defs><title>fi_np</title><circle class="a" cx="24" cy="24" r="23.9946"/><path class="b" d="M10.3,6.7V41.2H37L19.7,23.9h18L10.3,6.7Zm1.3,2.4L33.2,22.6H16.5L33.8,39.9H11.6Z" transform="translate(-0.0006 0.0015)"/><polygon class="c" points="10.899 7.902 10.899 40.601 35.399 40.601 18.099 23.301 35.399 23.301 10.899 7.902"/><path class="d" d="M17.1,22.4A4.908,4.908,0,0,0,22,17.5a5.0973,5.0973,0,0,1-2.2,2.6l-.4-.3.8-.6-1-.2.5-.9-1,.1.1-1-.9.5-.3-1-.6.8-.6-.8-.3,1-.9-.5.1,1-1-.1.5.9-1,.2.8.6-.4.3A5.0973,5.0973,0,0,1,12,17.5,5.2216,5.2216,0,0,0,17.1,22.4Z" transform="translate(-0.0006 0.0015)"/><polygon class="d" points="20.299 32.801 20.299 32.801 22.299 31.901 20.299 31.102 21.599 29.301 19.399 29.602 19.699 27.401 17.899 28.702 17.099 26.702 16.199 28.702 14.399 27.401 14.699 29.602 12.499 29.301 13.899 31.102 11.799 31.901 13.899 32.801 12.499 34.601 14.699 34.301 14.399 36.502 16.199 35.101 17.099 37.202 17.899 35.101 19.699 36.502 19.399 34.301 21.599 34.601 20.299 32.801"/></svg>