<svg xmlns="http://www.w3.org/2000/svg" viewBox="0 0 48 48"><defs><style>.a{fill:#ba0c2f;}.b{fill:#fff;}.c{fill:#00205b;}</style></defs><title>fi_no</title><circle class="a" cx="24" cy="24" r="24"/><path class="b" d="M48,24a23.7739,23.7739,0,0,1-.76,6H19V47.47A23.9279,23.9279,0,0,1,7,40.94V30H.76a24.0642,24.0642,0,0,1,0-12H7V7.06A23.9279,23.9279,0,0,1,19,.53V18H47.24A23.7739,23.7739,0,0,1,48,24Z"/><path class="c" d="M48,24a22.7955,22.7955,0,0,1-.19,3H16V46.62a23.1919,23.1919,0,0,1-6-3.14V27H.19a23.7792,23.7792,0,0,1,0-6H10V4.52a23.1919,23.1919,0,0,1,6-3.14V21H47.81A22.7955,22.7955,0,0,1,48,24Z"/></svg>