<svg xmlns="http://www.w3.org/2000/svg" viewBox="0 0 48 48"><defs><style>.a{fill:#012169;}.b{fill:#fff;}.c{fill:#c8102e;}</style></defs><title>fi_nz</title><path class="a" d="M9.3,6.8H7.27A21.1547,21.1547,0,0,1,9.3,5.04Z"/><path class="a" d="M48,24A24,24,0,1,1,4.38,10.2H9.3V17h3.4V10.2H28V6.8H12.7V2.83A23.8136,23.8136,0,0,1,24,0c.46,0,.92.01,1.37.04L14.12,5.67h2.55L27.48.26A23.9985,23.9985,0,0,1,48,24Z"/><polygon class="b" points="35.769 14.361 36.482 16.558 34.614 15.2 32.746 16.558 33.46 14.361 31.592 13.005 33.901 13.005 34.614 10.808 35.328 13.005 37.637 13.005 35.769 14.361"/><polygon class="c" points="35.377 14.235 35.849 15.686 34.614 14.789 33.38 15.686 33.851 14.235 32.617 13.338 34.143 13.338 34.614 11.887 35.086 13.338 36.612 13.338 35.377 14.235"/><polygon class="b" points="43.554 21.198 44.188 23.152 42.526 21.945 40.863 23.152 41.498 21.198 39.836 19.99 41.891 19.99 42.526 18.036 43.161 19.99 45.215 19.99 43.554 21.198"/><polygon class="c" points="43.161 21.07 43.554 22.28 42.526 21.532 41.497 22.28 41.89 21.07 40.861 20.323 42.133 20.323 42.526 19.114 42.919 20.323 44.19 20.323 43.161 21.07"/><polygon class="b" points="26.539 23.648 27.252 25.844 25.384 24.487 23.516 25.844 24.23 23.648 22.362 22.291 24.67 22.291 25.384 20.095 26.098 22.291 28.407 22.291 26.539 23.648"/><polygon class="c" points="26.147 23.521 26.618 24.972 25.384 24.075 24.15 24.972 24.621 23.521 23.387 22.624 24.913 22.624 25.384 21.173 25.856 22.624 27.381 22.624 26.147 23.521"/><polygon class="b" points="35.896 38.371 36.688 40.808 34.614 39.302 32.54 40.808 33.333 38.371 31.259 36.864 33.823 36.864 34.614 34.426 35.406 36.864 37.97 36.864 35.896 38.371"/><polygon class="c" points="35.504 38.243 36.054 39.936 34.614 38.89 33.174 39.936 33.724 38.243 32.284 37.197 34.064 37.197 34.614 35.504 35.165 37.197 36.944 37.197 35.504 38.243"/><path class="b" d="M28,1.9,20.46,5.67H28v5.66H20.46L28,15.1V17H24.2L13.83,11.82V17H8.17V11.82L1.74,15.03A24.0211,24.0211,0,0,1,13.83,2.27V5.19L24.19,0h.01A23.6527,23.6527,0,0,1,28,.34Z"/><path class="c" d="M28,6.8v3.4H12.7V17H9.3V10.2H4.38A22.8884,22.8884,0,0,1,7.27,6.8H9.3V5.04a23.3093,23.3093,0,0,1,3.4-2.21V6.8Z"/><polygon class="c" points="28 15.725 28 17 16.667 11.333 19.217 11.333 28 15.725"/><path class="c" d="M27.48.26,16.67,5.67H14.12L25.37.04A20.6378,20.6378,0,0,1,27.48.26Z"/><path class="c" d="M7.88,11.33l-5.8,2.9a17.7109,17.7109,0,0,1,.84-1.69l2.41-1.21Z"/></svg>