<svg xmlns="http://www.w3.org/2000/svg" viewBox="0 0 48 48"><defs><style>.a{fill:#0038a8;}.b{fill:#ce1126;}.c{fill:#fff;}.d{fill:#fcd116;}</style></defs><title>fi_ph</title><path class="a" d="M48,24a23.5946,23.5946,0,0,1-1.38,8H12.93L3.43,11.64A23.9984,23.9984,0,0,1,48,24Z"/><path class="b" d="M48,24A23.9936,23.9936,0,0,1,4.36,37.78L12.93,24Z"/><path class="c" d="M39.57,24,8.24,42.09a23.9773,23.9773,0,0,1,0-36.18Z"/><path class="d" d="M23.07,24l-.63.62-.52.56-.5.51-3.79-.75a4.6787,4.6787,0,0,1-.71,1.72l3.21,2.15v.71l-.03.76v.89h-.88l-.77.02h-.71l-2.14-3.2a4.9214,4.9214,0,0,1-1.73.72l.75,3.77-.5.51-.56.52-.63.62-.62-.62-.56-.52-.5-.51L12,28.71a4.5767,4.5767,0,0,1-1.73-.72l-2.14,3.2H7.41l-.76-.02H5.77v-.89l-.03-.76v-.71l3.2-2.14a4.7259,4.7259,0,0,1-.71-1.73l-3.78.75-.51-.51-.52-.56L2.8,24l.62-.62.52-.56.51-.51,3.78.75a4.7259,4.7259,0,0,1,.71-1.73l-3.2-2.14v-.71l.03-.76v-.89h.88l.76-.02h.72l2.14,3.2A4.5767,4.5767,0,0,1,12,19.29l-.75-3.77.5-.51.56-.52.62-.62.63.62.56.52.5.51-.75,3.77a4.9214,4.9214,0,0,1,1.73.72l2.14-3.2h.71l.77.02h.88v.89l.03.76v.71l-3.21,2.15a4.6787,4.6787,0,0,1,.71,1.72l3.79-.75.5.51.52.56Z"/><path class="d" d="M34.7691,24l-1.8038.6272-.0389,1.9088-1.1536-1.5216-1.8277.5531L31.0357,24l-1.0906-1.5675,1.8277.5531,1.1536-1.5216.0389,1.9088Z"/></svg>