<svg xmlns="http://www.w3.org/2000/svg" viewBox="0 0 48 48"><defs><style>.a,.e{fill:red;}.b{fill:#060;}.b,.c{fill-rule:evenodd;}.c,.f,.g,.h{fill:#ff0;}.c,.d,.e,.g,.h{stroke:#000;stroke-width:0.1px;}.c{stroke-linecap:round;stroke-linejoin:round;}.d,.j{fill:#fff;}.i{fill:#039;}</style></defs><title>fi_PT</title><circle class="a" cx="24" cy="24" r="24"/><path class="b" d="M16.8,1.1V46.9a24.0074,24.0074,0,0,1,0-45.8Z"/><path class="c" d="M26.1888,31.4448C22.5636,31.3356,5.94,20.9592,5.826,19.3068l.918-1.5308c1.6489,2.3959,18.6431,12.4872,20.3124,12.13l-.8676,1.5387"/><path class="c" d="M6.5508,17.568c-.3252.8752,4.3379,3.7582,9.9484,7.17s10.4478,5.5207,10.8063,5.2183a3.1664,3.1664,0,0,0,.1623-.3028c-.0672.1013-.2309.1333-.4861.06A56.4123,56.4123,0,0,1,16.6168,24.493C11.721,21.5238,7.4615,18.7877,6.8,17.6251a.7031.7031,0,0,1-.0722-.3418l-.0161,0-.1409.2463-.0194.0387h0ZM26.274,31.4928c-.0615.1115-.1761.1153-.3938.0913-1.356-.15-5.4707-2.151-10.3394-5.0655C9.8756,23.1274,5.1968,20.0374,5.7044,19.23l.1381-.2442.0272.0085c-.4565,1.3686,9.2337,6.9094,9.8042,7.2626,5.6069,3.4737,10.3338,5.5022,10.7521,4.975l-.1521.2617v-.0006Z"/><path class="c" d="M16.82,20.3076c3.6284-.0287,8.106-.4958,10.6828-1.5228l-.5552-.902c-1.5231.8429-6.0252,1.3973-10.1583,1.48-4.8883-.045-8.3388-.5-10.0676-1.66l-.5241.96c3.1781,1.3449,6.4348,1.6305,10.6224,1.6444"/><path class="c" d="M27.6528,18.8052a15.5755,15.5755,0,0,1-4.2448,1.149,43.8714,43.8714,0,0,1-6.6.4773,46.825,46.825,0,0,1-6.3221-.4A18.4223,18.4223,0,0,1,6.05,18.8568c.0474-.0942.0779-.16.1236-.2484a19.1981,19.1981,0,0,0,4.3535,1.1538,46.293,46.293,0,0,0,6.2731.4011,44.07,44.07,0,0,0,6.5539-.4865c2.5386-.4094,3.9253-.9364,4.12-1.1811l.1793.3095h0Zm-.4872-.9147a12.8382,12.8382,0,0,1-4.0583,1.0924,43.668,43.668,0,0,1-6.2718.44,42.2507,42.2507,0,0,1-6.0582-.39,16.7066,16.7066,0,0,1-4.2235-1.0653c.0467-.0808.0944-.161.1433-.2416a14.4191,14.4191,0,0,0,4.1071,1.0467,43.3825,43.3825,0,0,0,6.0314.3752,43.1317,43.1317,0,0,0,6.226-.4426,10.8454,10.8454,0,0,0,3.9273-1.1089l.1768.2941v0Z"/><path class="c" d="M4.9056,24.6792c2.2318,1.2,7.1886,1.8053,11.8793,1.8469,4.2709.0068,9.8349-.66,11.9156-1.7628l-.0572-1.2014c-.651,1.0173-6.6136,1.9931-11.9048,1.9531S6.534,24.6579,4.8961,23.6l.01,1.079"/><path class="c" d="M28.8144,24.5064v.2865c-.3127.3739-2.2735.939-4.7324,1.337a48.8386,48.8386,0,0,1-7.3515.5034,46.1337,46.1337,0,0,1-6.9777-.48,17.4107,17.4107,0,0,1-4.992-1.346l.0016-.3343c1.0889.724,4.0393,1.2537,5.03,1.4158a45.8814,45.8814,0,0,0,6.938.4768,48.5957,48.5957,0,0,0,7.3118-.5,15.19,15.19,0,0,0,4.772-1.3589h0Zm.0012-1.0191v.2865c-.3127.3737-2.2735.9389-4.7324,1.3368a48.8386,48.8386,0,0,1-7.3515.5034,46.1075,46.1075,0,0,1-6.9777-.48,17.4013,17.4013,0,0,1-4.992-1.3459l.0016-.3342c1.0889.7239,4.0393,1.2536,5.03,1.4155a45.8493,45.8493,0,0,0,6.938.4771,48.5632,48.5632,0,0,0,7.3118-.5,15.1926,15.1926,0,0,0,4.772-1.3589v0Z"/><path class="c" d="M16.7748,31.2384A40.9075,40.9075,0,0,1,6.3156,29.6131l.6772,1.06a28.09,28.09,0,0,0,9.8312,1.6046c3.9-.1138,7.3092-.416,9.7114-1.5854l.6943-1.0986c-1.637.771-7.2081,1.6367-10.455,1.6446"/><path class="c" d="M26.796,30.4464c-.102.1559-.2061.31-.3116.4595a27.3117,27.3117,0,0,1-3.6716.9413A33.2494,33.2494,0,0,1,16.78,32.4,28.9352,28.9352,0,0,1,6.76,30.6837l-.1413-.2429.0231-.0365.24.0929a32.2267,32.2267,0,0,0,9.9237,1.6382,33.8275,33.8275,0,0,0,5.9151-.5459,17.33,17.33,0,0,0,3.993-1.0968l.0824-.0463h0Zm.6021-.993.0078.0093c-.0763.1288-.1549.26-.2355.3915a25.5378,25.5378,0,0,1-4.639,1.0307,36.6608,36.6608,0,0,1-5.6975.484A39.07,39.07,0,0,1,6.2392,29.7855l-.1341-.2571a44.69,44.69,0,0,0,10.729,1.5745,39.6712,39.6712,0,0,0,5.6582-.486A29.2369,29.2369,0,0,0,27.1141,29.59l-.0185-.0239.3028-.1131,0,0Z"/><path class="c" d="M27.46,23.7312a11.4549,11.4549,0,0,1-3.103,7.743,11.1688,11.1688,0,0,1-7.6282,3.1636A11.31,11.31,0,0,1,9.253,31.5059a11.3769,11.3769,0,0,1-3.0978-7.5892,10.7407,10.7407,0,0,1,3.7521-8.0123,11.2111,11.2111,0,0,1,7.2145-2.5562,11.0488,11.0488,0,0,1,7.9826,4A11.1536,11.1536,0,0,1,27.46,23.7312ZM16.7573,12.17A11.8444,11.8444,0,1,1,4.8864,24.0145,11.9188,11.9188,0,0,1,16.7573,12.17"/><path class="c" d="M16.7892,12.13A11.8825,11.8825,0,1,1,4.9079,24.0122,11.9049,11.9049,0,0,1,16.7892,12.13ZM5.1694,24.0123a11.62,11.62,0,1,0,11.62-11.6213,11.6673,11.6673,0,0,0-11.62,11.6213Z"/><path class="c" d="M16.7988,13.1172A10.8844,10.8844,0,1,1,5.9156,24.0017,10.9279,10.9279,0,0,1,16.7988,13.1172ZM6.177,24.0016a10.6218,10.6218,0,1,0,10.6218-10.623A10.6653,10.6653,0,0,0,6.177,24.0016Z"/><path class="c" d="M17.2776,12.0816H16.2593l.0012,23.8752h1.0218Z"/><path class="c" d="M17.1756,11.9455h.2592l.0022,24.15h-.2594l-.0019-24.15Zm-1.0106,0h.2612l0,24.15h-.2614v-24.15Z"/><path class="c" d="M28.6788,24.4722V23.59l-.7188-.67-4.08-1.08L18,21.24l-7.08.36L5.88,22.8l-1.0176.7536v.8828L7.44,23.28l6.12-.96h5.88l4.32.48,3,.72Z"/><path class="c" d="M16.794,22.1724a41.1886,41.1886,0,0,1,7.6878.6863c2.2283.4455,3.7964,1.0027,4.3326,1.6285l-.0006.31c-.6466-.7788-2.7568-1.35-4.3822-1.6761A40.9525,40.9525,0,0,0,16.794,22.44a42.5017,42.5017,0,0,0-7.7981.6964C7.3015,23.4727,5.0418,24.1407,4.76,24.8v-.3227c.1549-.456,1.8375-1.1375,4.1981-1.61a42.6846,42.6846,0,0,1,7.8362-.6944Zm.0012-1.0191a41.222,41.222,0,0,1,7.6878.6864c2.2283.4456,3.7964,1.0026,4.3326,1.6285l-.0006.31c-.6466-.7787-2.7568-1.35-4.3822-1.676a40.9276,40.9276,0,0,0-7.6376-.6808,42.3525,42.3525,0,0,0-7.785.6962c-1.6351.31-3.9871,1.0043-4.2494,1.6632v-.3229c.1549-.4511,1.8716-1.157,4.1982-1.61a42.7118,42.7118,0,0,1,7.8362-.6943Z"/><path class="c" d="M16.7376,15.9552c4.4219-.0221,8.2788.6183,10.0434,1.5222l.6437,1.1135c-1.5338-.8266-5.6948-1.686-10.6806-1.5575-4.0625.025-8.4033.4473-10.5812,1.6092l.7685-1.2851c1.7874-.9269,6.0026-1.3971,9.8064-1.4021"/><path class="c" d="M16.7964,16.8744a40.1278,40.1278,0,0,1,6.8971.4852,12.5771,12.5771,0,0,1,3.7723,1.1113l.1909.3372a13.8183,13.8183,0,0,0-4.0007-1.1887,38.694,38.694,0,0,0-6.864-.4741,39.793,39.793,0,0,0-6.9563.4715A12.2687,12.2687,0,0,0,6.0921,18.784l.1869-.3565A12.4761,12.4761,0,0,1,9.7858,17.356a40.8547,40.8547,0,0,1,7.0108-.4816h0Zm-.0011-1.0181a39.1568,39.1568,0,0,1,6.6543.4621,10.7855,10.7855,0,0,1,3.4444,1.1267l.2791.4434c-.4744-.5274-2.26-1.0271-3.8369-1.307a42.3658,42.3658,0,0,0-6.5409-.4639,39.7846,39.7846,0,0,0-6.69.493,10.8906,10.8906,0,0,0-3.3243,1.0251l.2454-.37a11.8806,11.8806,0,0,1,3.0363-.9176,40.0772,40.0772,0,0,1,6.733-.4914Z"/><path class="c" d="M22.698,28.9512a31.0151,31.0151,0,0,0-5.906-.4494c-7.3689.0864-9.7493,1.5131-10.04,1.9451l-.5508-.8978c1.8761-1.36,5.8888-2.1224,10.6305-2.0444a37.4638,37.4638,0,0,1,6.3742.55l-.5082.8967"/><path class="c" d="M16.75,28.3752a35.73,35.73,0,0,1,6.004.4774l-.1407.2483a31.3262,31.3262,0,0,0-5.8563-.45,28.3114,28.3114,0,0,0-7.865.92c-.7556.21-2.0065.6961-2.134,1.0975l-.14-.2307c.04-.2373.7963-.73,2.21-1.1268A28.525,28.525,0,0,1,16.75,28.375v0Zm.093-1.0316a36.78,36.78,0,0,1,6.4488.56l-.1465.2585a33.63,33.63,0,0,0-6.29-.5485,30.1855,30.1855,0,0,0-8.2533.9645c-.85.2474-2.3157.7824-2.3645,1.206l-.14-.2479c.0319-.3847,1.301-.8865,2.443-1.2187a30.3131,30.3131,0,0,1,8.3023-.9741Z"/><path class="c" d="M27.31,29.6856,26.4241,31.06,23.88,28.8l-6.6-4.44L9.84,20.28,5.9772,18.9588,6.8,17.4324l.28-.1524,2.4.6,7.92,4.08,4.56,2.88L25.8,27.6l1.56,1.8Z"/><path class="c" d="M5.838,18.9948c.6775-.46,5.6567,1.7586,10.8666,4.9,5.1961,3.1505,10.1612,6.7105,9.713,7.3767l-.1474.2319-.0676.0534c.0145-.01.0892-.1018-.0073-.3488-.2214-.7284-3.7434-3.5389-9.5873-7.0674-5.697-3.397-10.4449-5.4445-10.92-4.8592l.15-.2868h0ZM27.4908,29.666c.4284-.8462-4.19-4.3252-9.9158-7.7126-5.8576-3.32-10.0793-5.2741-10.85-4.6914l-.1714.3119c-.0015.0171.0063-.0213.0425-.0492a.754.754,0,0,1,.4775-.116c1.3278.02,5.12,1.7651,10.4407,4.8153,2.3313,1.3578,9.8485,6.179,9.82,7.5347.002.1165.01.1406-.0342.1983l.1913-.2909v0Z"/><path class="d" d="M9.672,25.3212A7.1781,7.1781,0,0,0,16.7839,32.44a7.1363,7.1363,0,0,0,7.1355-7.1123h0V15.8248L9.67,15.8078l.0015,9.5134Z"/><path class="e" d="M9.9384,25.3344V25.34a6.767,6.767,0,0,0,2.013,4.8011,6.8223,6.8223,0,0,0,9.6523.01,6.7664,6.7664,0,0,0,2.0039-4.8053h0V16.1268L9.9466,16.1246l-.0084,9.21m10.9226-6.45,0,5.8669-.005.6206h0a4.4885,4.4885,0,0,1-.0289.508,3.9853,3.9853,0,0,1-1.1694,2.365,4.0807,4.0807,0,0,1-2.8857,1.1929,4.1248,4.1248,0,0,1-4.0631-4.0856L12.7078,18.87l8.1528.0147,0,0Z"/><path class="f" d="M10.8228,18.5316a.8336.8336,0,0,1,.49-.8217.8223.8223,0,0,1,.506.8278l-.9957-.0061"/><path class="g" d="M10.4172,17.7228l-.0818.7614.4969.001a.6768.6768,0,0,1,.4883-.7323.7338.7338,0,0,1,.4911.7323H12.31l-.09-.7671-1.8027.0045v0Z"/><path class="g" d="M10.302,18.4872h2.0335a.0956.0956,0,0,1,0,.1879H10.302a.0956.0956,0,0,1,0-.1879Z"/><path class="g" d="M11.0412,18.4836a.5246.5246,0,0,1,.2728-.51.532.532,0,0,1,.2833.51h-.5561"/><path class="g" d="M10.3452,17.406h1.9494a.0852.0852,0,0,1,0,.1691H10.3452a.0852.0852,0,0,1,0-.1691Z"/><path class="g" d="M10.386,17.5764h1.8646a.0857.0857,0,0,1,0,.169H10.386a.0857.0857,0,0,1,0-.169Z"/><path class="g" d="M10.9884,16.3056l.1472,0V16.41h.1074v-.1069l.1508,0v.1065h.1078v-.1069h.1509l0,.2414a.0626.0626,0,0,1-.0658.0624H11.057a.0677.0677,0,0,1-.0684-.0632l0-.2385h0Z"/><path class="g" d="M11.5428,16.6284l.0332.7742-.5163-.0019.0342-.7743.4489.002"/><path class="g" d="M10.9128,16.9872l.0158.4173-.4951,0,.014-.4175h.4653Z"/><path class="g" d="M12.1859,16.9872l.0157.4173-.495,0,.0139-.4175h.4654Z"/><path class="g" d="M10.356,16.6848l.1439,0V16.79h.1053v-.1071l.1476,0V16.79h.1055v-.1071l.1476,0,0,.2414a.062.062,0,0,1-.0644.0623h-.518a.0668.0668,0,0,1-.0671-.0631l0-.2387h0Z"/><path class="g" d="M11.6291,16.6848l.1439,0V16.79h.1053v-.1071l.1475,0V16.79h.1055v-.1071l.1477,0,0,.2414a.0619.0619,0,0,1-.0643.0623h-.518a.0668.0668,0,0,1-.0671-.0631l0-.2387h0Z"/><path d="M11.268,16.8732a.0522.0522,0,1,1,.1039,0v.1844H11.268v-.1844"/><path d="M10.6284,17.1408a.05.05,0,1,1,.0992,0v.1425h-.0992v-.1425"/><path d="M11.9053,17.1408a.05.05,0,1,1,.0992,0v.1425h-.0991v-.1425"/><path class="f" d="M10.8228,24.09a.8336.8336,0,0,1,.49-.8217.8223.8223,0,0,1,.506.8278l-.9957-.0061"/><path class="g" d="M10.4172,23.2812l-.0818.7613.4969.0011a.677.677,0,0,1,.4883-.7324.734.734,0,0,1,.4911.7324H12.31l-.09-.7672-1.8027.0046v0Z"/><path class="g" d="M10.302,24.0456h2.0335a.0955.0955,0,0,1,0,.1878H10.302a.0955.0955,0,0,1,0-.1878Z"/><path class="g" d="M11.0412,24.042a.5246.5246,0,0,1,.2728-.51.532.532,0,0,1,.2833.51h-.5561"/><path class="g" d="M10.3452,22.9644h1.9494a.0852.0852,0,0,1,0,.1691H10.3452a.0852.0852,0,0,1,0-.1691Z"/><path class="g" d="M10.386,23.1348h1.8646a.0857.0857,0,0,1,0,.169H10.386a.0857.0857,0,0,1,0-.169Z"/><path class="g" d="M10.9884,21.864l.1472,0v.1046h.1074v-.1069l.1508.0005v.1064h.1078v-.1069h.1509l0,.2414a.0627.0627,0,0,1-.0658.0625H11.057a.0677.0677,0,0,1-.0684-.0632l0-.2385h0Z"/><path class="g" d="M11.5428,22.1868l.0332.7741L11.06,22.959l.0342-.7742.4489.002"/><path class="g" d="M10.9128,22.5456l.0158.4173-.4951,0,.014-.4175h.4653Z"/><path class="g" d="M12.1859,22.5456l.0157.4173-.495,0,.0139-.4175h.4654Z"/><path class="g" d="M10.356,22.2432l.1439,0v.1047h.1053v-.1071l.1476,0v.1067h.1055v-.1071l.1476,0,0,.2414a.0619.0619,0,0,1-.0644.0622h-.518a.0668.0668,0,0,1-.0671-.063l0-.2387h0Z"/><path class="g" d="M11.6291,22.2432l.1439,0v.1047h.1053v-.1071l.1475,0v.1067h.1055v-.1071l.1477,0,0,.2414a.0618.0618,0,0,1-.0643.0622h-.518a.0667.0667,0,0,1-.0671-.063l0-.2387h0Z"/><path d="M11.268,22.4316a.0522.0522,0,1,1,.1039,0v.1843H11.268v-.1843"/><path d="M10.6284,22.6992a.05.05,0,1,1,.0992,0v.1424h-.0992v-.1424"/><path d="M11.9053,22.6992a.05.05,0,1,1,.0992,0v.1424h-.0991v-.1424"/><path class="f" d="M12.99,29.8756a.8333.8333,0,0,1-.238-.9264.8222.8222,0,0,1,.944.2242l-.706.7022"/><path class="h" d="M12.13,29.5936l.4826.5945.3509-.3518a.6772.6772,0,0,1-.1756-.8626.7338.7338,0,0,1,.8657.1676l.351-.3535-.6078-.4767L12.13,29.5934l0,0Z"/><path class="h" d="M12.5917,30.2139l1.4328-1.443a.0956.0956,0,0,1,.1333.1324l-1.4328,1.443a.0956.0956,0,0,1-.1333-.1324Z"/><path class="h" d="M13.11,29.6868a.5244.5244,0,0,1-.1695-.5528.5323.5323,0,0,1,.5614.1582l-.3918.3946"/><path class="h" d="M11.8549,29.4214l1.3735-1.3832a.0852.0852,0,0,1,.12.1191l-1.3736,1.3833a.0852.0852,0,0,1-.12-.1192Z"/><path class="h" d="M12.0045,29.5126,13.3183,28.19a.0857.0857,0,0,1,.12.1191l-1.3138,1.323a.0857.0857,0,0,1-.12-.119Z"/><path class="h" d="M11.5272,28.19l.1039-.1043.0742.0737.0757-.0763-.0758-.0753.1066-.1066.0755.075.0759-.0765-.0758-.0753.1063-.1071.1711.17a.0627.0627,0,0,1-.002.0907l-.373.3756a.0676.0676,0,0,1-.0931.0041l-.1695-.1678h0Z"/><path class="h" d="M12.1469,28.0237l.5728.5219-.3652.3651-.5253-.57.3177-.3172"/><path class="h" d="M11.9576,28.7236l.3073.2828-.3487.3515-.2864-.3041.3279-.33Z"/><path class="h" d="M12.8547,27.82l.3072.2829-.3487.3514-.2864-.3041.3279-.33Z"/><path class="h" d="M11.3507,28.9056l.1017-.1019.0743.0738.0742-.0747-.076-.0755.1043-.1044.0757.0752.0743-.0749-.076-.0754.1042-.1046.1711.17a.0618.0618,0,0,1-.0012.09l-.365.3676a.0667.0667,0,0,1-.092.0031l-.17-.1679h0Z"/><path class="h" d="M12.2478,28.0022l.1016-.1018.0743.0737.0742-.0747-.076-.0755.1043-.1043.0757.0751.0743-.0748-.076-.0755.1042-.1046.1711.17a.0618.0618,0,0,1-.0011.09l-.365.3676a.067.067,0,0,1-.0921.0032l-.17-.1679h0Z"/><path d="M12.127,28.3912a.0521.0521,0,1,1,.0732-.0737l.1309.13-.0733.0737-.1307-.13"/><path d="M11.8662,29.0336a.05.05,0,1,1,.07-.07l.1011.1-.07.07-.1011-.1"/><path d="M12.766,28.1275a.05.05,0,1,1,.07-.07l.1011.1-.07.07-.1011-.1"/><path class="f" d="M16.3085,18.5316a.8334.8334,0,0,1,.49-.8217.8223.8223,0,0,1,.5061.8278l-.9957-.0061"/><path class="g" d="M15.9029,17.7228l-.0819.7614.4969.001a.677.677,0,0,1,.4883-.7323.7337.7337,0,0,1,.4912.7323h.4981l-.09-.7671-1.8026.0045v0Z"/><path class="g" d="M15.7877,18.4872h2.0335a.0956.0956,0,0,1,0,.1879H15.7877a.0956.0956,0,0,1,0-.1879Z"/><path class="g" d="M16.5269,18.4836a.5244.5244,0,0,1,.2728-.51.532.532,0,0,1,.2833.51h-.5561"/><path class="g" d="M15.8309,17.406H17.78a.0852.0852,0,0,1,0,.1691H15.8309a.0852.0852,0,0,1,0-.1691Z"/><path class="g" d="M15.8717,17.5764h1.8645a.0857.0857,0,0,1,0,.169H15.8717a.0857.0857,0,0,1,0-.169Z"/><path class="g" d="M16.4741,16.3056l.1472,0V16.41h.1074v-.1069l.1508,0v.1065h.1077v-.1069h.1509l0,.2414a.0626.0626,0,0,1-.0658.0624h-.5294a.0677.0677,0,0,1-.0685-.0632l0-.2385h0Z"/><path class="g" d="M17.0285,16.6284l.0332.7742-.5163-.0019.0341-.7743.449.002"/><path class="g" d="M16.3985,16.9872l.0157.4173-.495,0,.0139-.4175h.4654Z"/><path class="g" d="M17.6715,16.9872l.0158.4173-.4951,0,.014-.4175h.4653Z"/><path class="g" d="M15.8417,16.6848l.1439,0V16.79h.1053v-.1071l.1475,0V16.79h.1055v-.1071l.1476,0,0,.2414a.0619.0619,0,0,1-.0643.0623h-.5181a.0668.0668,0,0,1-.0671-.0631l0-.2387h0Z"/><path class="g" d="M17.1147,16.6848l.144,0V16.79h.1053v-.1071l.1475,0V16.79h.1055v-.1071l.1476,0,0,.2414a.062.062,0,0,1-.0644.0623h-.518a.0668.0668,0,0,1-.0671-.0631l0-.2387h0Z"/><path d="M16.7537,16.8732a.0522.0522,0,1,1,.1039,0v.1844h-.1039v-.1844"/><path d="M16.1141,17.1408a.05.05,0,1,1,.0991,0v.1425h-.0991v-.1425"/><path d="M17.391,17.1408a.05.05,0,1,1,.0991,0v.1425H17.391v-.1425"/><path class="f" d="M22.7522,18.5316a.8337.8337,0,0,0-.49-.8217.8223.8223,0,0,0-.5061.8278l.9957-.0061"/><path class="g" d="M23.1578,17.7228l.0818.7614-.4968.001a.677.677,0,0,0-.4883-.7323.7337.7337,0,0,0-.4912.7323h-.4981l.09-.7671,1.8026.0045v0Z"/><path class="g" d="M23.273,18.4872H21.24a.0956.0956,0,0,0,0,.1879H23.273a.0956.0956,0,0,0,0-.1879Z"/><path class="g" d="M22.5338,18.4836a.5244.5244,0,0,0-.2728-.51.532.532,0,0,0-.2833.51h.5561"/><path class="g" d="M23.23,17.406H21.28a.0852.0852,0,0,0,0,.1691H23.23a.0852.0852,0,0,0,0-.1691Z"/><path class="g" d="M23.189,17.5764H21.3245a.0857.0857,0,0,0,0,.169H23.189a.0857.0857,0,0,0,0-.169Z"/><path class="g" d="M22.5866,16.3056l-.1472,0V16.41H22.332v-.1069l-.1508,0v.1065h-.1077v-.1069h-.1509l0,.2414a.0626.0626,0,0,0,.0658.0624h.5294a.0678.0678,0,0,0,.0685-.0632l0-.2385h0Z"/><path class="g" d="M22.0322,16.6284l-.0332.7742.5163-.0019-.0341-.7743-.449.002"/><path class="g" d="M22.6622,16.9872l-.0157.4173.495,0-.0139-.4175h-.4654Z"/><path class="g" d="M21.3892,16.9872l-.0158.4173.4951,0-.014-.4175h-.4653Z"/><path class="g" d="M23.219,16.6848l-.1439,0V16.79H22.97v-.1071l-.1475,0V16.79h-.1055v-.1071l-.1477,0,0,.2414a.0619.0619,0,0,0,.0643.0623h.5181a.0669.0669,0,0,0,.0671-.0631l0-.2387h0Z"/><path class="g" d="M21.946,16.6848l-.144,0V16.79h-.1053v-.1071l-.1475,0V16.79h-.1055v-.1071l-.1476,0,0,.2414a.0619.0619,0,0,0,.0643.0623h.5181a.0668.0668,0,0,0,.0671-.0631l0-.2387h0Z"/><path d="M22.307,16.8732a.0522.0522,0,1,0-.1039,0v.1844h.1039v-.1844"/><path d="M22.9466,17.1408a.05.05,0,1,0-.0991,0v.1425h.0991v-.1425"/><path d="M21.67,17.1408a.05.05,0,1,0-.0991,0v.1425H21.67v-.1425"/><path class="f" d="M22.7522,24.09a.8337.8337,0,0,0-.49-.8217.8223.8223,0,0,0-.5061.8278l.9957-.0061"/><path class="g" d="M23.1578,23.2812l.0818.7613-.4968.0011a.6772.6772,0,0,0-.4883-.7324.7339.7339,0,0,0-.4912.7324h-.4981l.09-.7672,1.8026.0046v0Z"/><path class="g" d="M23.273,24.0456H21.24a.0955.0955,0,0,0,0,.1878H23.273a.0955.0955,0,0,0,0-.1878Z"/><path class="g" d="M22.5338,24.042a.5244.5244,0,0,0-.2728-.51.532.532,0,0,0-.2833.51h.5561"/><path class="g" d="M23.23,22.9644H21.28a.0852.0852,0,0,0,0,.1691H23.23a.0852.0852,0,0,0,0-.1691Z"/><path class="g" d="M23.189,23.1348H21.3245a.0857.0857,0,0,0,0,.169H23.189a.0857.0857,0,0,0,0-.169Z"/><path class="g" d="M22.5866,21.864l-.1472,0v.1046H22.332v-.1069l-.1508.0005v.1064h-.1077v-.1069h-.1509l0,.2414a.0627.0627,0,0,0,.0658.0625h.5294a.0678.0678,0,0,0,.0685-.0632l0-.2385h0Z"/><path class="g" d="M22.0322,22.1868l-.0332.7741.5163-.0019-.0341-.7742-.449.002"/><path class="g" d="M22.6622,22.5456l-.0157.4173.495,0-.0139-.4175h-.4654Z"/><path class="g" d="M21.3892,22.5456l-.0158.4173.4951,0-.014-.4175h-.4653Z"/><path class="g" d="M23.219,22.2432l-.1439,0v.1047H22.97v-.1071l-.1475,0v.1067h-.1055v-.1071l-.1477,0,0,.2414a.0618.0618,0,0,0,.0643.0622h.5181a.0668.0668,0,0,0,.0671-.063l0-.2387h0Z"/><path class="g" d="M21.946,22.2432l-.144,0v.1047h-.1053v-.1071l-.1475,0v.1067h-.1055v-.1071l-.1476,0,0,.2414a.0618.0618,0,0,0,.0643.0622h.5181a.0668.0668,0,0,0,.0671-.063l0-.2387h0Z"/><path d="M22.307,22.4316a.0522.0522,0,1,0-.1039,0v.1843h.1039v-.1843"/><path d="M22.9466,22.6992a.05.05,0,1,0-.0991,0v.1424h.0991v-.1424"/><path d="M21.67,22.6992a.05.05,0,1,0-.0991,0v.1424H21.67v-.1424"/><path class="f" d="M20.5849,29.8756a.8337.8337,0,0,0,.2381-.9264.8224.8224,0,0,0-.9441.2242l.706.7022"/><path class="h" d="M21.4446,29.5936l-.4826.5945-.3509-.3518a.6771.6771,0,0,0,.1757-.8626.7339.7339,0,0,0-.8658.1676l-.351-.3535.6078-.4767,1.2669,1.2823v0Z"/><path class="h" d="M20.9834,30.2139l-1.4329-1.443a.0956.0956,0,0,0-.1333.1324l1.4329,1.443a.0956.0956,0,0,0,.1333-.1324Z"/><path class="h" d="M20.4651,29.6868a.5244.5244,0,0,0,.1695-.5528.5323.5323,0,0,0-.5614.1582l.3919.3946"/><path class="h" d="M21.72,29.4214l-1.3736-1.3832a.0852.0852,0,0,0-.12.1191L21.6,29.5406a.0853.0853,0,0,0,.12-.1192Z"/><path class="h" d="M21.5705,29.5126,20.2567,28.19a.0857.0857,0,0,0-.12.1191l1.3138,1.323a.0856.0856,0,0,0,.12-.119Z"/><path class="h" d="M22.0478,28.19l-.1039-.1043-.0742.0737-.0757-.0763.0759-.0753-.1066-.1066-.0756.075-.0759-.0765.0759-.0753-.1064-.1071-.1711.17a.0627.0627,0,0,0,.0021.0907l.373.3756a.0675.0675,0,0,0,.093.0041l.17-.1678h0Z"/><path class="h" d="M21.4281,28.0237l-.5728.5219.3652.3651.5253-.57-.3177-.3172"/><path class="h" d="M21.6174,28.7236l-.3072.2828.3486.3515.2865-.3041-.328-.33Z"/><path class="h" d="M20.72,27.82l-.3072.2829.3486.3514.2864-.3041-.3279-.33Z"/><path class="h" d="M22.2243,28.9056l-.1017-.1019-.0742.0738-.0742-.0747.076-.0755-.1043-.1044-.0757.0752-.0744-.0749.076-.0754-.1041-.1046-.1712.17a.0619.0619,0,0,0,.0012.09l.365.3676a.0667.0667,0,0,0,.092.0031l.17-.1679h0Z"/><path class="h" d="M21.3273,28.0022,21.2256,27.9l-.0743.0737-.0742-.0747.076-.0755-.1042-.1043-.0757.0751-.0744-.0748.076-.0755-.1042-.1046-.1711.17a.0619.0619,0,0,0,.0012.09l.365.3676a.0668.0668,0,0,0,.092.0032l.17-.1679h0Z"/><path d="M21.448,28.3912a.0521.0521,0,1,0-.0732-.0737l-.1308.13.0732.0737.1308-.13"/><path d="M21.7088,29.0336a.05.05,0,1,0-.07-.07l-.1011.1.07.07.1011-.1"/><path d="M20.8091,28.1275a.05.05,0,1,0-.07-.07l-.1011.1.07.07.101-.1"/><path class="i" d="M15.9163,24.2887v.0006a1.0012,1.0012,0,0,0,.2654.6828.8536.8536,0,0,0,1.2726.0014,1,1,0,0,0,.2643-.6831V22.9982L15.92,22.9967l-.0032,1.292"/><circle class="j" cx="16.3289" cy="23.4882" r="0.1783"/><circle class="j" cx="17.327" cy="23.489" r="0.1783"/><circle class="j" cx="16.827" cy="23.9682" r="0.1783"/><circle class="j" cx="16.3289" cy="24.4699" r="0.1783"/><circle class="j" cx="17.326" cy="24.4686" r="0.1783"/><path class="i" d="M15.9163,21.1668v.0006a1.0008,1.0008,0,0,0,.2654.6827.8535.8535,0,0,0,1.2726.0015,1.0007,1.0007,0,0,0,.2643-.6832V19.8763L15.92,19.8748l-.0032,1.2919"/><circle class="j" cx="16.3289" cy="20.3663" r="0.1783"/><circle class="j" cx="17.327" cy="20.3671" r="0.1783"/><circle class="j" cx="16.827" cy="20.8463" r="0.1783"/><circle class="j" cx="16.3289" cy="21.348" r="0.1783"/><circle class="j" cx="17.326" cy="21.3467" r="0.1783"/><path class="i" d="M13.42,24.2887v.0006a1.0013,1.0013,0,0,0,.2655.6828.8535.8535,0,0,0,1.2725.0014,1,1,0,0,0,.2643-.6831V22.9982l-1.799-.0015-.0033,1.292"/><circle class="j" cx="13.833" cy="23.4882" r="0.1783"/><circle class="j" cx="14.8312" cy="23.489" r="0.1783"/><circle class="j" cx="14.3311" cy="23.9682" r="0.1783"/><circle class="j" cx="13.833" cy="24.4699" r="0.1783"/><circle class="j" cx="14.8301" cy="24.4686" r="0.1783"/><path class="i" d="M18.4057,24.2887v.0006a1.0012,1.0012,0,0,0,.2654.6828.8536.8536,0,0,0,1.2726.0014,1,1,0,0,0,.2643-.6831V22.9982l-1.7991-.0015-.0032,1.292"/><circle class="j" cx="18.8183" cy="23.4882" r="0.1783"/><circle class="j" cx="19.8164" cy="23.489" r="0.1783"/><circle class="j" cx="19.3164" cy="23.9682" r="0.1783"/><circle class="j" cx="18.8183" cy="24.4699" r="0.1783"/><circle class="j" cx="19.8154" cy="24.4686" r="0.1783"/><path class="i" d="M15.9163,27.3828v.0006a1.0008,1.0008,0,0,0,.2654.6827.8535.8535,0,0,0,1.2726.0015,1.0007,1.0007,0,0,0,.2643-.6832V26.0923L15.92,26.0908l-.0032,1.2919"/><circle class="j" cx="16.3289" cy="26.5823" r="0.1783"/><circle class="j" cx="17.327" cy="26.5831" r="0.1783"/><circle class="j" cx="16.827" cy="27.0623" r="0.1783"/><circle class="j" cx="16.3289" cy="27.564" r="0.1783"/><circle class="j" cx="17.326" cy="27.5627" r="0.1783"/></svg>