<svg xmlns="http://www.w3.org/2000/svg" viewBox="0 0 48 48"><defs><style>.a{fill:#fff;}.a,.b{fill-rule:evenodd;}.b{fill:#ce1126;}.c{fill:#007a3d;}</style></defs><title>fi_sy</title><circle cx="24" cy="24" r="24"/><path class="a" d="M48,24a23.5946,23.5946,0,0,1-1.38,8H1.38A23.5946,23.5946,0,0,1,0,24a24,24,0,0,1,48,0Z"/><path class="b" d="M46.62,16H1.38a23.99,23.99,0,0,1,45.24,0Z"/><polygon class="c" points="14.41 25.41 15.9 30 12 27.17 8.1 30 9.59 25.41 5.69 22.58 10.51 22.58 12 18 13.49 22.58 18.31 22.58 14.41 25.41"/><polygon class="c" points="38.41 25.41 39.9 30 36 27.17 32.1 30 33.59 25.41 29.69 22.58 34.51 22.58 36 18 37.49 22.58 42.31 22.58 38.41 25.41"/></svg>