<svg xmlns="http://www.w3.org/2000/svg" viewBox="0 0 48 48"><defs><style>.a,.g{fill:#00843d;}.a{fill-rule:evenodd;}.b{fill:#d22630;}.c{fill:#fff;}.d{fill:#383739;}.e{fill:#ffc72c;}.f{fill:none;}</style></defs><title>fi_TM</title><path class="a" d="M24,0h0A24,24,0,1,0,48,24,24.0062,24.0062,0,0,0,24,0Z"/><path class="b" d="M18.6.62V47.38A23.939,23.939,0,0,1,5.64,39.45V8.55A23.939,23.939,0,0,1,18.6.62Z"/><path class="c" d="M32.7457,5.3234a5.9727,5.9727,0,1,1-6.2236,10.0382A5.9727,5.9727,0,0,0,32.7457,5.3234Z"/><polygon class="c" points="28.14 8.92 27.31 8.92 27.05 9.71 26.79 8.92 25.95 8.92 26.63 8.43 26.37 7.63 27.05 8.12 27.73 7.63 27.47 8.43 28.14 8.92"/><polygon class="c" points="28.14 5.85 27.31 5.85 27.05 6.64 26.79 5.85 25.95 5.85 26.63 5.36 26.37 4.56 27.05 5.05 27.73 4.56 27.47 5.36 28.14 5.85"/><polygon class="c" points="31.18 7.42 30.34 7.42 30.08 8.22 29.82 7.42 28.99 7.42 29.67 6.93 29.41 6.13 30.09 6.62 30.76 6.13 30.5 6.93 31.18 7.42"/><polygon class="c" points="25.11 10.42 24.27 10.42 24.01 11.21 23.76 10.42 22.92 10.42 23.6 9.93 23.34 9.13 24.02 9.62 24.69 9.13 24.43 9.92 25.11 10.42"/><polygon class="c" points="28.14 11.99 27.31 11.99 27.05 12.79 26.79 11.99 25.95 11.99 26.63 11.5 26.37 10.7 27.05 11.19 27.73 10.7 27.47 11.5 28.14 11.99"/><path class="d" d="M7.74,8.48l-.04.24.04.25L8,8.72Zm-1.51.01h-.3V8.2252c-.09.09-.21.2248-.29.3248V9.62l.29-.29V8.99h.3l.25-.25ZM7.56,9.88,8.81,8.74,7.56,7.59,7,8.12l-.3-.27.44-.42-.26-.24-.68.72.77.73h.51l.06-.33H7.25l.31-.3.8.73-.8.73-.31-.3h.29l-.06-.34H6.97l-1,.94v.36h.45v-.3l.22.21-.52.48.25.24-.73.68v.47l1.23-1.15-.24-.24.51-.48L6.7,9.63,7,9.36Z"/><path class="e" d="M7.77,8.55l-.03.17.03.17.18-.17ZM6.22,8.52H5.89V8.27a3.329,3.329,0,0,0-.25.28V9.57l.25-.25V8.95h.33l.21-.21ZM7.56,9.83,8.75,8.74,7.56,7.64,7,8.17l-.35-.32.44-.42-.23-.22c-.07.06-.6.63-.65.68l.78.72h.46l.05-.27H7.16l.4-.38.85.78-.85.77-.4-.38H7.5l-.05-.26H6.99L6,9.79v.31h.38V9.75l.31.29-.52.48.25.24-.78.72v.38l1.18-1.1-.24-.24.51-.48-.44-.41L7,9.3Z"/><path class="f" d="M6.38,7.37v.35c-.07.06-.12.12-.17.17L6,7.69V7.37Z"/><path class="f" d="M5.89,8.16v.11a3.329,3.329,0,0,0-.25.28V7.9Z"/><path class="d" d="M5.64,14.5909v.47l.7289.6822-.2458.2289.5212.483-.2288.2076v-.3008H5.97v.36l1.0043.9406H7.483l.0551-.3305H7.2458l.3178-.2966L8.36,17.76l-.7966.7288-.3178-.2966h.2923l-.0551-.3348H6.9746L5.97,18.7985v.36h.445v-.3008l.2288.2076-.5212.483.2458.2331L5.64,20.46v.47l1.2331-1.1483-.2458-.2331.517-.483-.445-.4153.2967-.2712.5678.5255L8.8093,17.76,7.5636,16.6163l-.5678.53-.2967-.2754.445-.4153-.517-.483.2458-.2288L5.64,14.5909Zm0,2.2839V18.646l.2882-.2924V18.01h.3051l.2457-.25-.2457-.2458H5.928v-.3474L5.64,16.8748Zm2.1017.6271-.0424.2415.0424.2458.2627-.2458Z"/><path class="e" d="M5.64,14.6417v.3729l.78.7288-.2458.2289.5212.483-.3135.2924V16.396H6.0042V16.71l.9873.92h.4577l.0466-.2627h-.339l.4068-.3813.8474.7754-.8474.7754-.4068-.3771h.339l-.0468-.267H6.9914l-.9873.9195v.3136h.3771v-.3517l.3136.2924-.5212.483.2458.2331-.78.7245v.3729l1.1822-1.0974-.2457-.2331.5169-.483L6.6482,18.65l.3475-.322.5677.53L8.7541,17.76,7.5634,16.6629l-.5677.53-.3475-.322.4449-.4153-.5169-.4831.2457-.2288L5.64,14.6417Zm0,2.2839v1.6695l.2543-.2542v-.3686H6.22l.2119-.2119L6.22,17.5485H5.8941V17.18Zm2.1271.6441-.03.1737.03.1738.1865-.1738Z"/><path class="d" d="M5.64,23.6146v.47l.7289.6822-.2458.2288.5212.483-.2288.2077v-.3009H5.97v.36l1.0043.9407H7.483l.0551-.33H7.2458l.3178-.2967.7966.7246-.7966.7288-.3178-.2966h.2923l-.0551-.3347H6.9746L5.97,27.8223v.36h.445v-.3008l.2288.2076-.5212.4831.2458.233-.7289.678v.47l1.2331-1.1483-.2458-.233.517-.4831-.445-.4152.2967-.2712.5678.5254,1.2457-1.1441L7.5636,25.64l-.5678.53-.2967-.2754.445-.4152-.517-.4831.2458-.2288L5.64,23.6146Zm0,2.2839V27.67l.2882-.2924v-.3432h.3051l.2457-.25-.2457-.2457H5.928v-.3475L5.64,25.8985Zm2.1017.6271-.0424.2416.0424.2457.2627-.2457Z"/><path class="e" d="M5.64,23.6655v.3729l.78.7288-.2458.2288.5212.483-.3135.2924V25.42H6.0042v.3136l.9873.9195h.4577l.0466-.2628h-.339l.4068-.3813.8474.7754-.8474.7754-.4068-.3771h.339l-.0468-.2669H6.9914l-.9873.9195v.3135h.3771v-.3517l.3136.2924-.5212.483.2458.2331-.78.7246v.3729l1.1822-1.0975-.2457-.2331.5169-.483-.4449-.4153.3475-.322.5677.53,1.1907-1.0975L7.5634,25.6867l-.5677.53-.3475-.322.4449-.4153-.5169-.483.2457-.2288L5.64,23.6655Zm0,2.2839v1.6695l.2543-.2543V26.996H6.22l.2119-.2119L6.22,26.5723H5.8941v-.3687Zm2.1271.644-.03.1738.03.1737.1865-.1737Z"/><path class="d" d="M5.64,32.6384v.47l.7289.6822-.2458.2288.5212.4831-.2288.2076V34.41H5.97v.36l1.0043.9407H7.483l.0551-.3305H7.2458l.3178-.2966.7966.7246-.7966.7288L7.2458,36.24h.2923l-.0551-.3348H6.9746L5.97,36.846v.36h.445v-.3009l.2288.2076-.5212.4831.2458.233-.7289.678v.47L6.8729,37.829l-.2458-.233.517-.4831-.445-.4152.2967-.2712.5678.5254,1.2457-1.144L7.5636,34.6638l-.5678.53-.2967-.2755.445-.4152-.517-.4831.2458-.2288L5.64,32.6384Zm0,2.2839v1.7711l.2882-.2923v-.3432h.3051l.2457-.25-.2457-.2458H5.928v-.3475L5.64,34.9223Zm2.1017.6271-.0424.2415.0424.2458.2627-.2458Z"/><path class="e" d="M5.64,32.6892v.3729l.78.7288-.2458.2288.5212.4831-.3135.2923v-.3517H6.0042v.3136l.9873.9195h.4577l.0466-.2627h-.339l.4068-.3814.8474.7754-.8474.7755-.4068-.3771h.339l-.0468-.267H6.9914l-.9873.9195v.3135h.3771v-.3516l.3136.2923-.5212.4831.2458.233-.78.7246v.3729L6.8219,37.829l-.2457-.233.5169-.4831-.4449-.4152.3475-.3221.5677.53,1.1907-1.0975L7.5634,34.71l-.5677.53-.3475-.322.4449-.4152L6.5762,34.02l.2457-.2288L5.64,32.6892Zm0,2.2839v1.6695l.2543-.2542V36.02H6.22l.2119-.2118L6.22,35.596H5.8941v-.3687Zm2.1271.6441-.03.1737.03.1737.1865-.1737Z"/><path class="d" d="M18.6,5.567v.47L17.871,6.72l.2458.2288-.5212.483.2288.2077V7.3382h.4449v.36l-1.0042.9407h-.5085l-.0551-.33h.2924l-.3178-.2967-.7966.7246.7966.7288.3178-.2966h-.2924l.0551-.3347h.5085l1.0042.9407v.36h-.4449V9.834l-.2288.2076.5212.4831-.2458.233.7288.678v.47l-1.233-1.1483.2458-.233-.517-.4831.4449-.4152-.2966-.2712-.5678.5254L15.43,8.7365l1.2457-1.144.5678.53.2966-.2754-.4449-.4152.517-.4831L17.3668,6.72,18.6,5.567Zm0,2.2839V9.6221L18.3117,9.33V8.9865h-.3051l-.2457-.25.2457-.2457h.3051V8.1433L18.6,7.8509Zm-2.1017.6272.0424.2415-.0424.2457L16.2354,8.72Z"/><path class="e" d="M18.6,5.6179v.3729l-.78.7288.2458.2288-.5212.483.3135.2924V7.3721h.3771v.3136l-.9873.92h-.4576l-.0466-.2627h.339l-.4068-.3814-.8474.7754.8474.7754.4068-.3771h-.339l.0467-.2669h.4577l.9873.9195v.3135h-.3772V9.7492l-.3135.2924.5212.4831-.2458.233.78.7246v.3729l-1.1822-1.0975.2457-.233-.5169-.4831.4449-.4153-.3475-.322-.5678.53L15.4856,8.7365l1.1906-1.0974.5678.53.3475-.322-.4449-.4153.5169-.483L17.4178,6.72,18.6,5.6179Zm0,2.2839v1.67l-.2542-.2543V8.9484h-.3263l-.2118-.2119.2118-.2118h.3263V8.156Zm-2.1271.6441.03.1737-.03.1737L16.2863,8.72Z"/><path class="d" d="M18.6,14.5909v.47l-.7288.6822.2458.2289-.5212.483.2288.2076v-.3008h.4449v.36l-1.0042.9406h-.5085l-.0551-.3305h.2924l-.3178-.2966L15.88,17.76l.7966.7288.3178-.2966h-.2924l.0551-.3348h.5085l1.0042.9407v.36h-.4449v-.3008l-.2288.2076.5212.483-.2458.2331L18.6,20.46v.47l-1.233-1.1483.2458-.2331-.517-.483.4449-.4153-.2966-.2712-.5678.5255L15.43,17.76l1.2457-1.1441.5678.53.2966-.2754-.4449-.4153.517-.483-.2458-.2288L18.6,14.5909Zm0,2.2839V18.646l-.2881-.2924V18.01h-.3051l-.2457-.25.2457-.2458h.3051v-.3474l.2881-.2924Zm-2.1017.6271.0424.2415-.0424.2458-.2627-.2458Z"/><path class="e" d="M18.6,14.6417v.3729l-.78.7288.2458.2289-.5212.483.3135.2924V16.396h.3771V16.71l-.9873.92h-.4576l-.0466-.2627h.339l-.4068-.3813-.8474.7754.8474.7754.4068-.3771h-.339l.0467-.267h.4577l.9873.9195v.3136h-.3772v-.3517l-.3135.2924.5212.483-.2458.2331.78.7245v.3729l-1.1822-1.0974.2457-.2331-.5169-.483.4449-.4153-.3475-.322-.5678.53L15.4856,17.76l1.1906-1.0975.5678.53.3475-.322-.4449-.4153.5169-.4831-.2457-.2288L18.6,14.6417Zm0,2.2839v1.6695l-.2542-.2542v-.3686h-.3263l-.2118-.2119.2118-.2119h.3263V17.18Zm-2.1271.6441.03.1737-.03.1738-.1864-.1738Z"/><path class="d" d="M18.6,23.6146v.47l-.7288.6822.2458.2288-.5212.483.2288.2077v-.3009h.4449v.36l-1.0042.9407h-.5085l-.0551-.33h.2924l-.3178-.2967-.7966.7246.7966.7288.3178-.2966h-.2924l.0551-.3347h.5085l1.0042.9407v.36h-.4449v-.3008l-.2288.2076.5212.4831-.2458.233.7288.678v.47l-1.233-1.1483.2458-.233-.517-.4831.4449-.4152-.2966-.2712-.5678.5254L15.43,26.7841l1.2457-1.144.5678.53.2966-.2754-.4449-.4152.517-.4831-.2458-.2288L18.6,23.6146Zm0,2.2839V27.67l-.2881-.2924v-.3432h-.3051l-.2457-.25.2457-.2457h.3051v-.3475l.2881-.2924Zm-2.1017.6271.0424.2416-.0424.2457-.2627-.2457Z"/><path class="e" d="M18.6,23.6655v.3729l-.78.7288.2458.2288-.5212.483.3135.2924V25.42h.3771v.3136l-.9873.9195h-.4576l-.0466-.2628h.339l-.4068-.3813-.8474.7754.8474.7754.4068-.3771h-.339l.0467-.2669h.4577l.9873.9195v.3135h-.3772v-.3517l-.3135.2924.5212.483-.2458.2331.78.7246v.3729l-1.1822-1.0975.2457-.2331-.5169-.483.4449-.4153-.3475-.322-.5678.53-1.1906-1.0975,1.1906-1.0974.5678.53.3475-.322-.4449-.4153.5169-.483-.2457-.2288L18.6,23.6655Zm0,2.2839v1.6695l-.2542-.2543V26.996h-.3263l-.2118-.2119.2118-.2118h.3263v-.3687Zm-2.1271.644.03.1738-.03.1737-.1864-.1737Z"/><path class="d" d="M18.6,32.6384v.47l-.7288.6822.2458.2288-.5212.4831.2288.2076V34.41h.4449v.36l-1.0042.9407h-.5085l-.0551-.3305h.2924l-.3178-.2966-.7966.7246.7966.7288.3178-.2966h-.2924l.0551-.3348h.5085l1.0042.9407v.36h-.4449v-.3009l-.2288.2076.5212.4831-.2458.233.7288.678v.47l-1.233-1.1484.2458-.233-.517-.4831.4449-.4152-.2966-.2712-.5678.5254L15.43,35.8079l1.2457-1.1441.5678.53.2966-.2755-.4449-.4152.517-.4831-.2458-.2288L18.6,32.6384Zm0,2.2839v1.7711l-.2881-.2923v-.3432h-.3051l-.2457-.25.2457-.2458h.3051v-.3475l.2881-.2923Zm-2.1017.6271.0424.2415-.0424.2458-.2627-.2458Z"/><path class="e" d="M18.6,32.6892v.3729l-.78.7288.2458.2288-.5212.4831.3135.2923v-.3517h.3771v.3136l-.9873.9195h-.4576l-.0466-.2627h.339l-.4068-.3814-.8474.7754.8474.7755.4068-.3771h-.339l.0467-.267h.4577l.9873.9195v.3135h-.3772v-.3516l-.3135.2923.5212.4831-.2458.233.78.7246v.3729L17.4178,37.829l.2457-.233-.5169-.4831.4449-.4152-.3475-.3221-.5678.53-1.1906-1.0975L16.6762,34.71l.5678.53.3475-.322-.4449-.4152.5169-.4831-.2457-.2288L18.6,32.6892Zm0,2.2839v1.6695l-.2542-.2542V36.02h-.3263l-.2118-.2118.2118-.2119h.3263v-.3687Zm-2.1271.6441.03.1737-.03.1737-.1864-.1737Z"/><path class="d" d="M14.83,16.2888v-.4664h1.279V15.356h1.2791V11.1415H16.1092v-.4664H14.83v-.4665H13.5511V9.7422H10.6885v.4664H9.41v.4665H8.13v.4664H6.8513V15.356H8.13v.4664H9.41v.4664h1.279v.4664h2.8626v-.4664Z"/><path class="e" d="M10.7246,9.7754v.4661h-1.28v.4661h-1.28v.4661h-1.28V15.322h1.28v.4662h1.28v.466h1.28V16.72h2.7923v-.4661h1.28v-.466h1.28V15.322h1.28V11.1737h-1.28v-.4661h-1.28v-.4661h-1.28V9.7754Zm.339.339h2.1143v.4661h1.28v.4661h1.28v.4661h1.28v3.47h-1.28v.4661h-1.28v.4661h-1.28v.466H11.0636v-.466h-1.28v-.4661h-1.28v-.4661h-1.28v-3.47h1.28v-.4661h1.28v-.4661h1.28Z"/><path class="b" d="M9.8167,15.8815v-.4664H8.5377v-.4664H7.2586v-3.4H8.5377v-.4665h1.279v-.4664h1.2791V10.15h2.048v.4663h1.2791v.4664H15.702v.4665h1.2791v3.4H15.702v.4664H14.4229v.4664H13.1438v.4664h-2.048v-.4664Z"/><path class="d" d="M10.1137,10.9611l-.3313-.25v.4809l-.3172.2016-.0009-.301-.3042.2733-.3043-.2733-.0008.301L8.5034,11.17v.4458l-.2841.2057-.0008-.2734-.3375.2445-.3376-.2445-.0008.2734-.3183-.2305v1.3505h-.373v.6147h.373v1.3506l.3183-.2306.0008.2734.3376-.2444.3375.2444.0008-.2734.2841.2057v.4459l.3515-.2234.0009.301.3042-.2733.3043.2733.0008-.301.3173.2015v.481l.3312-.2505.0008.3359.3246-.29.3248.29.0007-.3359.297.2245v.5129l.4441-.4048v.4757L12.12,15.95l.6143.3949v-.4757l.4441.4048v-.5129l.2969-.2245.0008.3359.3247-.29.3247.29.0007-.3359.3312.2505v-.481l.3173-.2015.0008.301.3044-.2733.3042.2733.0008-.301.3516.2234v-.4459l.2841-.2057.0008.2734.3375-.2444.3376.2444.0008-.2734.3184.23V13.556h.3729v-.6147h-.3729V11.5908l-.3184.2305-.0008-.2734-.3376.2445-.3375-.2445-.0007.2734-.2841-.2057V11.17l-.3516.2234-.0008-.301-.3043.2733-.3043-.2733-.0008.301-.3174-.2017v-.4808l-.3312.25-.0007-.3359-.3247.29-.3247-.29-.0007.3359-.297-.2246v-.5128l-.4441.4048v-.4757l-.6143.3949-.6142-.3949v.4757l-.4441-.4048v.5129l-.297.2245-.0007-.3359-.3247.29-.3247-.29Z"/><path class="g" d="M7.5768,11.8883l.0008-.2734.3034.22.01-.0074.2932-.2124.0008.2734.3183-.23v3.1814l-.3183-.23-.0008.2734-.3034-.22-.3034.22-.0008-.2734-.3182.23V13.5218h-.373v-.5462h.373V11.658Z"/><path class="g" d="M10.1485,10.7018l.2906.26.2906-.26.0007.3281.3311-.25v4.9382l-.3311-.25-.0007.3282-.2906-.26-.2906.26-.0007-.3282-.3311.25V10.78l.3311.25Z"/><path class="g" d="M14.0912,10.7018l-.2906.26-.2906-.26-.0007.3281-.3311-.25v4.9382l.3311-.25.0007.3282.2906-.26.2906.26.0007-.3282.3311.25V10.78l-.3311.25Z"/><path class="g" d="M16.6629,11.8883l-.0008-.2734-.3034.22-.01-.0074-.2932-.2124-.0008.2734-.3182-.23v3.1814l.3182-.23.0008.2734.3035-.22.3034.22.0008-.2734.3182.23V13.5218h.3729v-.5462h-.3729V11.658Z"/><path class="e" d="M8.89,11.1689l.27.2427.27-.2427.0008.2866.3514-.2233v4.033l-.3514-.2233-.0008.2866-.27-.2427-.27.2427-.0008-.2866-.3514.2233v-4.033l.3514.2233Z"/><path class="e" d="M11.54,10.7062l-.4441-.4048V16.196l.4441-.4048v.4905l.58-.3728h0l.58.3728v-.4905l.4441.4048V10.3014l-.4441.4048v-.4906l-.58.3729h0l-.58-.3729Z"/><path class="e" d="M15.35,11.1689l-.27.2427-.27-.2427-.0007.2866-.3515-.2233v4.033l.3515-.2233.0007.2866.27-.2427.27.2427.0008-.2866.3514.2233v-4.033l-.3514.2233Z"/><path class="d" d="M7.743,12.6693a.1908.1908,0,0,0,.2759,0,.7235.7235,0,0,0,.1244-.5031l-.1658.1752-.0965-.1667-.0966.1667-.1658-.1752a.7241.7241,0,0,0,.1244.5031Z"/><path class="d" d="M9.0773,12.3264l-.1024-.1022V12.02l-.235.2179.42.42.42-.42-.235-.2179v.2038l-.1023.1022v-.3609L9.424,11.81l-.264-.2267-.264.2267.1813.1556Z"/><path class="d" d="M10.3562,11.9216l-.1022-.1023v-.2037l-.2351.2178.42.42.42-.42-.235-.2178v.2037l-.1023.1023v-.361l.1812-.1555-.264-.2267-.264.2267.1812.1555Z"/><path class="c" d="M7.881,12.2431l.09.1552.1367-.1444a.6029.6029,0,0,1-.1129.3912.1565.1565,0,0,1-.2273,0,.6017.6017,0,0,1-.1129-.3912l.1366.1444.09-.1552Z"/><path class="c" d="M10.4876,11.545v.4594l.1709-.1708v-.1394l.1513.14-.3707.3707-.3707-.3707.1513-.14v.1394l.1709.1708V11.545l-.1629-.14.2114-.1815.2114.1815Z"/><path class="b" d="M9.2086,11.95v.4594l.1708-.1709V12.099l.1513.14L9.16,12.61l-.3706-.3707.1513-.14v.1393l.1709.1709V11.95l-.1629-.14.2113-.1815.2114.1815Z"/><path class="d" d="M16.4966,12.6693a.1908.1908,0,0,1-.2759,0,.7235.7235,0,0,1-.1243-.5031l.1657.1752.0966-.1667.0965.1667.1658-.1752a.7235.7235,0,0,1-.1244.5031Z"/><path class="d" d="M15.1624,12.3264l.1023-.1022V12.02l.235.2179-.42.42-.42-.42.235-.2179v.2038l.1023.1022v-.3609l-.1812-.1556.264-.2267.264.2267-.1812.1556Z"/><path class="d" d="M13.8834,11.9216l.1023-.1023v-.2037l.235.2178-.42.42-.42-.42.235-.2178v.2037l.1024.1023v-.361l-.1813-.1555.264-.2267.264.2267-.1812.1555Z"/><path class="c" d="M16.3586,12.2431l-.09.1552-.1367-.1444a.6017.6017,0,0,0,.1129.3912.1564.1564,0,0,0,.2272,0,.6022.6022,0,0,0,.113-.3912l-.1367.1444-.09-.1552Z"/><path class="c" d="M13.7521,11.545v.4594l-.1709-.1708v-.1394l-.1513.14.3706.3707.3707-.3707-.1513-.14v.1394l-.1708.1708V11.545l.1628-.14-.2114-.1815-.2113.1815Z"/><path class="b" d="M15.0311,11.95v.4594l-.1709-.1709V12.099l-.1513.14.3707.3707.3707-.3707-.1513-.14v.1393l-.1709.1709V11.95l.1629-.14-.2114-.1815-.2114.1815Z"/><path class="d" d="M12.6226,12.075l-.1377-.19.3529-.3258-.329-.27V11.48l-.1376.1177v-.3473l.3108-.2291L12.12,10.607l-.5623.4145.3109.2291v.3473l-.1376-.1177v-.1915l-.3291.27.3529.3258-.1376.19Z"/><path class="b" d="M11.6842,12.0407l.116-.16-.3463-.32.2425-.1993v.1347l.2063.1765v-.4392l-.2874-.2118L12.12,10.65l.5045.3719-.2873.2118v.4392l.2062-.1765v-.1347l.2426.1993-.3464.32.1162.16Z"/><path class="d" d="M11.8628,11.0215l.2569.1894.257-.1894-.257-.1894-.01.0075Z"/><path class="g" d="M12.12,10.8747l.1992.1468-.1992.1468-.1992-.1468Z"/><path class="d" d="M7.743,13.828a.1908.1908,0,0,1,.2759,0,.7235.7235,0,0,1,.1244.5031l-.1658-.1752-.0965.1667-.0966-.1667-.1658.1752a.7241.7241,0,0,1,.1244-.5031Z"/><path class="d" d="M9.0773,14.1709l-.1024.1023v.2037L8.74,14.259l.42-.42.42.42-.235.2179v-.2037l-.1023-.1023v.3609l.1812.1556-.264.2267-.264-.2267.1813-.1556Z"/><path class="d" d="M10.3562,14.5757l-.1022.1023v.2037l-.2351-.2178.42-.42.42.42-.235.2178V14.678l-.1023-.1023v.361l.1812.1555-.264.2267-.264-.2267.1812-.1555Z"/><path class="c" d="M7.881,14.2542l.09-.1552.1367.1444a.6029.6029,0,0,0-.1129-.3912.1565.1565,0,0,0-.2273,0,.6017.6017,0,0,0-.1129.3912l.1366-.1444.09.1552Z"/><path class="c" d="M10.4876,14.9524v-.46l.1709.1708v.1394l.1513-.14-.3707-.3707-.3707.3707.1513.14v-.1394l.1709-.1708v.46l-.1629.14.2114.1815.2114-.1815Z"/><path class="b" d="M9.2086,14.5476v-.4595l.1708.1709v.1393l.1513-.14L9.16,13.8874l-.3706.3707.1513.14V14.259l.1709-.1709v.4595l-.1629.14.2113.1815.2114-.1815Z"/><path class="d" d="M16.4966,13.828a.1908.1908,0,0,0-.2759,0,.7235.7235,0,0,0-.1243.5031l.1657-.1752.0966.1667.0965-.1667.1658.1752a.7235.7235,0,0,0-.1244-.5031Z"/><path class="d" d="M15.1624,14.1709l.1023.1023v.2037l.235-.2179-.42-.42-.42.42.235.2179v-.2037l.1023-.1023v.3609l-.1812.1556.264.2267.264-.2267-.1812-.1556Z"/><path class="d" d="M13.8834,14.5757l.1023.1023v.2037l.235-.2178-.42-.42-.42.42.235.2178V14.678l.1024-.1023v.361l-.1813.1555.264.2267.264-.2267-.1812-.1555Z"/><path class="c" d="M16.3586,14.2542l-.09-.1552-.1367.1444a.6017.6017,0,0,1,.1129-.3912.1564.1564,0,0,1,.2272,0,.6022.6022,0,0,1,.113.3912l-.1367-.1444-.09.1552Z"/><path class="c" d="M13.7521,14.9524v-.46l-.1709.1708v.1394l-.1513-.14.3706-.3707.3707.3707-.1513.14v-.1394l-.1708-.1708v.46l.1628.14-.2114.1815-.2113-.1815Z"/><path class="b" d="M15.0311,14.5476v-.4595l-.1709.1709v.1393l-.1513-.14.3707-.3707.3707.3707-.1513.14V14.259l-.1709-.1709v.4595l.1629.14-.2114.1815-.2114-.1815Z"/><path class="d" d="M12.6226,14.4224l-.1377.19.3529.3258-.329.27v-.1915l-.1376-.1177v.3474l.3108.2291L12.12,15.89l-.5623-.4144.3109-.2291v-.3474l-.1376.1177v.1915l-.3291-.27.3529-.3258-.1376-.19Z"/><path class="b" d="M11.6842,14.4566l.116.1605-.3463.32.2425.1993v-.1347l.2063-.1764v.4392l-.2874.2117.5045.3719.5045-.3719-.2873-.2117v-.4392l.2062.1764v.1347l.2426-.1993-.3464-.32.1162-.1605Z"/><path class="d" d="M11.8628,15.4758l.2569-.1894.257.1894-.257.1894-.01-.0075Z"/><path class="g" d="M12.12,15.6226l.1992-.1468L12.12,15.329l-.1992.1468Z"/><path class="d" d="M16.6722,13.052h-.563v-.2244H14.3883L13.19,12.0407H11.0492l-1.1979.7869H8.13v.2244h-.563v.3934H8.13V13.67H9.8513l1.1979.7869H13.19l1.1979-.7869h1.7209v-.2244h.563Z"/><path class="b" d="M11.0594,12.0762,9.86,12.86H8.1653v.2246H7.6017v.3263h.5636v.2246H9.86l1.1992.7881h2.1228l1.1949-.7881h1.6992V13.411H16.64v-.3263h-.5635V12.86H14.3771l-1.1949-.7839Zm.0254.1144h2.0678l1.0974.72v.11h1.2246v.4576H14.25v.11l-1.0974.7161H11.0848L9.9916,13.589v-.11H8.7628v-.4576H9.9916v-.11Z"/><path class="b" d="M13.1439,12.2261l1.07.7027v.1247h1.2266v.39H14.2142v.1247l-1.07.7027H11.0956l-1.07-.7027v-.1247H8.7987v-.39h1.2266v-.1247l1.07-.7027Z"/><path class="d" d="M10.5641,13.6478l.4634.3479.3049-.2289-.1772-.133-.1277.0958-.1089-.0818,1.7452-1.31h-.3544Zm1.0116.5121H11.93l1.7453-1.31-.4634-.3479-.3049.2289.1772.133.1277-.0958.109.0818Zm.7337,0h.3543l-1.7451-1.31.1089-.0818.1276.0958.1773-.133-.3049-.2289-.4634.3479Zm1.0116-.5121-.109.0818-.1277-.0958-.1772.133.3049.2289.4634-.3479-1.7453-1.31h-.3544Z"/><path class="d" d="M10.2131,13.2487l.3115.2069.3115-.2069-.3115-.2069Z"/><path class="d" d="M11.8083,13.2487l.3115.2069.3115-.2069-.3115-.2069Z"/><path class="d" d="M14.0266,13.2487l-.3115.2069-.3115-.2069.3115-.2069Z"/><path class="e" d="M13.6183,13.6478l-.4063.3051-.2478-.1861.12-.09.1276.0959.1661-.1247-1.7-1.2759h.24Zm-1.0573.4778h-.24l-1.7-1.276.4064-.305.2477.186-.12.09-.1276-.0959-.1661.1247Zm-.6423,0h-.24l1.7-1.276-.1661-.1247-.1276.0959-.12-.09.2478-.186.4063.305Zm.4021-1.7537h.24l-1.7,1.2759.1661.1247.1276-.0959.12.09-.2477.1861-.4064-.3051Z"/><path class="g" d="M10.5246,13.083l.25.1657-.25.1657-.2495-.1657Z"/><path class="g" d="M12.12,13.083l.25.1657-.25.1657-.2494-.1657Z"/><path class="g" d="M13.7151,13.083l-.2495.1657.2495.1657.25-.1657Z"/><path class="d" d="M6.6411,21.9321l-.1222.1728.2191.1675-.2191.1676.1222.1729.2545.0295.2465-.19.6145.39v-.3242L7.37,22.2724l.3867-.2456v-.3242l-.6145.39-.2465-.19Z"/><path class="d" d="M6.6411,20.8058l-.1222.1729.2191.1676-.2191.1675.1222.1729.2545.03.2465-.1905.6145.39v-.3243L7.37,21.1463l.3867-.2458v-.3241l-.6145.39-.2465-.19Z"/><path class="d" d="M6.6411,23.7391l-.1222-.1728.2191-.1675-.2191-.1676.1222-.1729.2545-.0295.2465.19.6145-.39v.3242l-.3867.2458.3867.2456v.3242l-.6145-.39-.2465.1905Z"/><path class="d" d="M17.5986,21.9321l.1222.1728-.2191.1675.2191.1676-.1222.1729-.2545.0295-.2465-.19-.6146.39v-.3242l.3868-.2458-.3868-.2456v-.3242l.6146.39.2465-.19Z"/><path class="d" d="M17.5986,20.8058l.1222.1729-.2191.1676.2191.1675-.1222.1729-.2545.03-.2465-.1905-.6146.39v-.3243l.3868-.2456-.3868-.2458v-.3241l.6146.39.2465-.19Z"/><path class="d" d="M17.5986,23.7391l.1222-.1728-.2191-.1675.2191-.1676-.1222-.1729-.2545-.0295-.2465.19-.6146-.39v.3242l.3868.2458-.3868.2456v.3242l.6146-.39.2465.1905Z"/><path class="d" d="M15.1382,18.8584v.4685h.3407v.207h.3348v-.377h-.2986v-.2985Z"/><path class="d" d="M16.1426,19.5972v.4684h.34v.2071h.335v-.377H16.52v-.2985Z"/><path class="d" d="M9.1015,18.8584v.4685H8.7607v.207H8.426v-.377h.2985v-.2985Z"/><path class="d" d="M15.1382,25.6866v-.4684h.3407v-.2071h.3348v.377h-.2986v.2985Z"/><path class="d" d="M9.1015,25.6866v-.4684H8.7607v-.2071H8.426v.377h.2985v.2985Z"/><path class="d" d="M16.1426,24.9478v-.4684h.34v-.2071h.335v.377H16.52v.2985Z"/><path class="d" d="M8.0971,19.5972v.4684h-.34v.2071h-.335v-.377H7.72v-.2985Z"/><path class="d" d="M8.0971,24.9478v-.4684h-.34v-.2071h-.335v.377H7.72v.2985Z"/><path class="d" d="M13.38,18.8475l-.26-.2525-.2555.2367.2227.2162-.2874.279h.4267l.1535-.1491.1536.1491h.4267l-.2875-.279.2227-.2162L13.64,18.595q-.13.1261-.26.2525Z"/><path class="d" d="M12.12,18.8475l-.26-.2525-.2554.2367.2226.2162-.2874.279h.4267l.1535-.1491.1536.1491H12.7l-.2874-.279.2226-.2162L12.38,18.595q-.13.1261-.26.2525Z"/><path class="d" d="M10.86,18.8475l.26-.2525.2554.2367-.2226.2162.2874.279h-.4267l-.1536-.1491-.1535.1491h-.4267l.2874-.279-.2227-.2162L10.6,18.595q.13.1261.26.2525Z"/><path class="d" d="M13.38,25.6975l-.26.2525-.2555-.2367.2227-.2161L12.8,25.2181h.4267l.1535.1491.1536-.1491h.4267l-.2875.2791.2227.2161L13.64,25.95q-.13-.1261-.26-.2525Z"/><path class="d" d="M12.12,25.6975l-.26.2525-.2554-.2367.2226-.2161-.2874-.2791h.4267l.1535.1491.1536-.1491H12.7l-.2874.2791.2226.2161L12.38,25.95q-.13-.1261-.26-.2525Z"/><path class="d" d="M10.86,25.6975l.26.2525.2554-.2367-.2226-.2161.2874-.2791h-.4267l-.1536.1491-.1535-.1491h-.4267l.2874.2791-.2227.2161L10.6,25.95q.13-.1261.26-.2525Z"/><path class="g" d="M7.7223,22.537v.243L7.14,22.41l-.2545.1967L6.66,22.5806l-.0943-.1334.2285-.1747-.2285-.1747.0943-.1334.2254-.0262.2545.1967.5822-.37v.2429l-.4165.2646Z"/><path class="g" d="M7.7223,21.4108v.243l-.5822-.37-.2545.1966L6.66,21.4544l-.0943-.1334.2285-.1747-.2285-.1747.0943-.1334.2254-.0262.2545.1966.5822-.37v.2429l-.4165.2646Z"/><path class="g" d="M7.7223,23.1342v-.2429l-.5822.37-.2545-.1967-.2254.0262-.0943.1333.2285.1748-.2285.1747.0943.1334.2254.0261.2545-.1966.5822.37v-.243l-.4165-.2645Z"/><path class="g" d="M16.5174,22.537v.243l.5822-.37.2544.1967.2255-.0262.0942-.1334-.2285-.1747.2285-.1747-.0942-.1334-.2255-.0262-.2544.1967-.5822-.37v.2429l.4164.2646Z"/><path class="g" d="M16.5174,21.4108v.243l.5822-.37.2544.1966.2255-.0261.0942-.1334-.2285-.1747.2285-.1747-.0942-.1334-.2255-.0262-.2544.1966-.5822-.37v.2429l.4164.2646Z"/><path class="g" d="M16.5174,23.1342v-.2429l.5822.37.2544-.1967.2255.0262.0942.1333-.2285.1748.2285.1747-.0942.1334-.2255.0261L17.1,23.5364l-.5822.37v-.243l.4164-.2645Z"/><path class="g" d="M15.4809,18.8927v.2986h.2985V19.5h-.2661v-.207h-.3408v-.4Z"/><path class="g" d="M16.4853,19.6314V19.93h.2985v.3084h-.2662v-.207h-.3407v-.4Z"/><path class="g" d="M8.7588,18.8927v.2986H8.46V19.5h.2661v-.207h.3408v-.4Z"/><path class="g" d="M15.4809,25.6522v-.2985h.2985v-.3084h-.2661v.2071h-.3408v.4Z"/><path class="g" d="M8.7588,25.6522v-.2985H8.46v-.3084h.2662v.2071h.3408v.4Z"/><path class="g" d="M16.4853,24.9135V24.615h.2985v-.3084h-.2662v.207h-.3407v.4Z"/><path class="g" d="M7.7544,19.6314V19.93H7.4559v.3084H7.722v-.207h.3408v-.4Z"/><path class="g" d="M7.7545,24.9135V24.615H7.4559v-.3084h.2662v.207h.3408v.4Z"/><path class="g" d="M13.12,18.6423l.2606.253.2605-.253.2051.19-.2221.2156.2521.2447h-.3282L13.38,19.13l-.1675.1626h-.3282l.2521-.2447-.2221-.2156.2051-.19Z"/><path class="g" d="M11.8593,18.6423l.2605.253.2606-.253.2051.19-.2221.2156.2521.2447h-.3282L12.12,19.13l-.1674.1626h-.3283l.2521-.2447-.222-.2156Z"/><path class="g" d="M11.12,18.6423l-.2606.253-.2606-.253-.2051.19.2221.2156-.2521.2447h.3282L10.86,19.13l.1675.1626h.3282l-.2521-.2447.2221-.2156Z"/><path class="g" d="M13.12,25.9027l.2606-.253.2605.253.2051-.19-.2221-.2155.2521-.2448h-.3282l-.1674.1626-.1675-.1626h-.3282l.2521.2448-.2221.2155.2051.19Z"/><path class="g" d="M11.8593,25.9027l.2605-.253.2606.253.2051-.19-.2221-.2155.2521-.2448h-.3282l-.1675.1626-.1674-.1626h-.3283l.2521.2448-.222.2155Z"/><path class="g" d="M11.12,25.9027,10.86,25.65l-.2606.253-.2051-.19.2221-.2155-.2521-.2448h.3282l.1675.1626.1675-.1626h.3282l-.2521.2448.2221.2155Z"/><path class="d" d="M8.7264,24.5137v.7387h6.7869v-.7387h1.004V20.0313h-1.004v-.7387H8.7264v.7387H7.7223v4.4824Z"/><path class="e" d="M8.7627,19.3262v.7374H7.7585v4.4152H8.7627v.7373h6.7161v-.7373h1.0043V20.0636H15.4788v-.7374Zm.4322.284h5.8518v.7118l.2415.1781h.911v3.5465h-.9153l-.2372.1737v.7161H9.1949v-.7119l-.2415-.1779H8.0381V20.5h.9111l.2457-.1781V19.61Z"/><path class="b" d="M9.2288,19.6441v.6526l.8814-.6526Zm4.8982,0,.8814.6526v-.6526Zm-6.0507.89v.61l.8305-.61Zm7.2543,0,.8347.6143V20.534Zm.8347,2.86-.8347.6187h.8347Zm-8.0891.0042v.6145h.8305Zm1.1526.8518v.6483h.8771Zm5.78,0-.877.6483h.877Z"/><path class="g" d="M14.07,19.6447l2.095,1.5473v2.1609L14.07,24.9H10.1694l-2.095-1.5473V21.192l2.095-1.5473Z"/><path class="d" d="M8.5734,23.6017l-.2409-.28.2261-.2624-.2261-.2624.2261-.2624-.2261-.2624.2261-.2624-.2261-.2624.2261-.2624-.2261-.2625.2409-.2795h7.0929l.2408.2795-.2261.2625.2261.2624-.2261.2624.2261.2624-.2261.2624.2261.2624-.2261.2624.2261.2624-.2408.28Zm4.8756-3.6189-.28-.2409-.2625.2261-.2624-.2261-.2624.2261-.2624-.2261-.2624.2261-.2624-.2261-.2624.2261-.2624-.2261-.28.2409v4.5794l.28.2409.2624-.2261.2624.2261.2624-.2262.2624.2262.2624-.2262.2624.2262.2624-.2261.2625.2261.28-.2409Z"/><path class="e" d="M12.89,19.9985l-.2452-.2114-.2453.2114v4.548l.2453.2113.2452-.2113Z"/><path class="e" d="M11.84,19.9985l-.2452-.2114-.2453.2114v4.548l.2453.2113.2452-.2113Z"/><path class="e" d="M8.589,23.5674l-.2113-.2452.2113-.2453h7.0616l.2113.2453-.2113.2452Z"/><path class="e" d="M15.6506,22.0272l.2113.2453-.2113.2452H8.5891l-.2113-.2452.2113-.2453Z"/><path class="e" d="M15.6506,21.4682l.2113-.2453-.2113-.2453H8.589l-.2113.2453.2113.2453Z"/><path class="b" d="M13.4147,19.9985l-.2452-.2114-.2453.2114v4.548l.2453.2113.2452-.2113Z"/><path class="b" d="M11.3154,19.9985l-.2452-.2114-.2453.2114v4.548l.2453.2113.2452-.2113Z"/><path class="b" d="M8.5891,23.0426l-.2113-.2453.2113-.2453h7.0614l.2114.2453-.2114.2453Z"/><path class="b" d="M8.5891,21.993l-.2113-.2453.2113-.2453h7.0614l.2114.2453-.2114.2453Z"/><path class="b" d="M12.3651,24.5465l-.2453.2113-.2452-.2113v-4.548l.2452-.2114.2453.2114Z"/><path class="d" d="M14.4905,20.0872H9.732v.3779H9.1239V24.08H9.732v.3778h4.7756V24.08h.6081V20.4651h-.6081v-.3779Z"/><path class="b" d="M9.767,20.1228V20.5h-.61v3.5466h.61v.3771h.5l-.9958-.8347V20.9575l.9958-.8347Zm4.2077,0,.9914.8347V23.589l-.9914.8347h.5v-.3771h.606V20.5h-.606v-.3772Z"/><path class="g" d="M10.322,20.1228l-1.017.8517v2.5974l1.017.8517h3.5974l1.0128-.8517V20.9745l-1.0128-.8517Zm.0508.1441h3.4916l.9237.7754v2.4618l-.9237.7712H10.3728l-.9194-.7712V21.0423Z"/><path class="g" d="M11.2976,23.5431l.1563.0676.0287.1825-.1967.1731.2858.2763h-.275L11.1,24.0534l-.1967.1892h-.275l.2859-.2763-.1968-.1731.0288-.1825.1562-.0676.1976.158.0107-.0086Z"/><path class="g" d="M12.3174,23.5431l.1563.0676.0288.1825-.1968.1731.2858.2763h-.275l-.1966-.1892-.1966.1892h-.2751l.2859-.2763-.1968-.1731.0288-.1825.1563-.0676.1975.158.0107-.0086Z"/><path class="g" d="M12.9422,23.5431l-.1563.0676-.0288.1825.1968.1731-.2858.2763h.275l.1966-.1892.1966.1892h.275l-.2858-.2763.1968-.1731-.0288-.1825-.1563-.0676-.1975.158-.0107-.0086Z"/><path class="g" d="M11.2976,21.0018l.1563-.0675.0287-.1825-.1967-.1731.2858-.2763h-.275l-.1966.1892-.1967-.1892h-.275l.2859.2763-.1968.1731.0288.1825.1562.0675.1976-.1579.0107.0086Z"/><path class="g" d="M12.3174,21.0018l.1563-.0675.0288-.1825-.1968-.1731.2858-.2763h-.275l-.1966.1892-.1966-.1892h-.2751l.2859.2763-.1968.1731.0288.1825.1563.0675.1975-.1579.0107.0086Z"/><path class="g" d="M12.9422,21.0018l-.1563-.0675-.0288-.1825.1968-.1731-.2858-.2763h.275l.1966.1892.1966-.1892h.275l-.2858.2763.1968.1731-.0288.1825-.1563.0675-.1975-.1579-.0107.0086Z"/><path class="g" d="M14.7521,21.2934l-.156.1291.156.1291v.2142l-.24-.1977-.1722.156-.1846-.0232-.065-.12.1588-.1584-.1588-.1584.065-.12.1846-.0232.1722.156.24-.1976Z"/><path class="g" d="M14.7521,22.1434l-.156.1291.156.1291v.2142l-.24-.1977-.1722.156-.1846-.0232-.065-.12.1588-.1584-.1588-.1584.065-.12.1846-.0232.1722.156.24-.1976Z"/><path class="g" d="M14.7521,23.2517l-.156-.1292.156-.1291v-.2141l-.24.1977-.1722-.1561-.1846.0232-.065.12.1588.1584-.1588.1584.065.12.1846.0232.1722-.156.24.1977Z"/><path class="g" d="M9.4878,21.2934l.1559.1291-.1559.1291v.2142l.24-.1977.1721.156.1846-.0232.0651-.12-.1589-.1584.1589-.1584-.0651-.12L9.9,21.1209l-.1721.156-.24-.1976Z"/><path class="g" d="M9.4878,22.1434l.1559.1291-.1559.1291v.2142l.24-.1977.1721.156.1846-.0232.0651-.12-.1589-.1584.1589-.1584-.0651-.12L9.9,21.9709l-.1721.156-.24-.1976Z"/><path class="g" d="M9.4878,23.2517l.1559-.1292-.1559-.1291v-.2141l.24.1977L9.9,22.8209l.1846.0232.0651.12-.1589.1584.1589.1584-.0651.12L9.9,23.4241l-.1721-.156-.24.1977Z"/><path class="b" d="M10.3856,20.3009,9.5,21.0424c.0756.0627.1488.1282.2246.1907.0192-.0174.1652-.1484.1652-.1484l.2161.03.0848.1568-.1526.1525c.0208.0206.1526.1526.1526.1526l-.0848.1567-.2161.0255s-.146-.1267-.1652-.1441l-.2373.1992v.0678c.08.066.1572.1331.2373.1991.0192-.0173.1652-.1441.1652-.1441l.2161.0255.0848.1567-.1526.1526c.0208.0206.1526.1525.1526.1525l-.0848.161L9.89,22.61l-.1652-.1483-.2373.1991v.072l.2373.1992.1652-.1483.2161.03.0848.1567-.1526.1526.1526.1525-.0848.1568-.2161.03-.1652-.1483c-.0755.0621-.1493.1243-.2246.1864l.8856.7415h.1949l.2839-.2754-.1822-.161.0339-.22.1907-.0805.1949.1526.1907-.1526.1907.0805.0381.22-.1865.161.2755.2627.2754-.2627-.1864-.161.0339-.22.1949-.0805.1906.1526.195-.1526.1906.0805.0339.22-.1822.161.2712.2669.2754-.2669-.1822-.161.0339-.22.195-.0805.1906.1526.1907-.1526.1949.0805.0339.22-.1822.161.2839.2754h.1907l.8856-.7415c-.0755-.0622-.149-.1241-.2246-.1864-.0192.0173-.161.1483-.161.1483l-.2161-.03-.089-.1568.1526-.1525-.1526-.1526.089-.1567.2161-.03s.1418.131.161.1483l.2373-.1992v-.072l-.2373-.1991c-.0192.0173-.161.1483-.161.1483l-.2161-.0255-.089-.161.1526-.1525-.1526-.1526.089-.1567.2161-.0255s.1418.1268.161.1441c.08-.0655.1579-.13.2373-.1949v-.0763l-.2373-.1949c-.0192.0174-.161.1441-.161.1441l-.2161-.0255-.089-.1567.1526-.1526-.1526-.1525.089-.1568.2161-.03s.1418.131.161.1484c.076-.0626.1529-.1239.2288-.1865l-.89-.7458H13.661l-.2839.2755.1822.161-.0339.22-.1949.0848L13.14,20.89l-.1906.1526-.195-.0848-.0339-.22.1822-.161-.2711-.2627-.2755.2627.1822.161-.0339.22-.1906.0848-.195-.1526-.1906.1526-.1949-.0848-.0339-.22.1864-.161-.2754-.2627-.2755.2627.1865.161-.0381.22-.1907.0848-.1907-.1526-.1949.1526-.1907-.0848-.0339-.22.1822-.161-.2881-.2755Zm-.8983,1.8856V22.36l.1017-.089Z"/><path class="c" d="M11.1017,24.1017l-.1484.14h.2924Z"/><path class="c" d="M12.1186,24.1017l-.144.14h.2924Z"/><path class="c" d="M13.14,24.1017l-.1482.14h.2965Z"/><path class="c" d="M10.9491,20.3009l.1526.144.1483-.144Z"/><path class="c" d="M11.97,20.3009l.1484.144.1525-.144Z"/><path class="c" d="M12.9916,20.3009l.1482.144.1483-.144Z"/><path class="c" d="M14.75,21.339l-.1017.0847.1017.0805Z"/><path class="c" d="M14.75,22.1864l-.1017.0847.1017.0848Z"/><path class="c" d="M14.75,23.0381l-.1017.0847.1017.0848Z"/><path class="c" d="M9.4873,21.3348v.1737l.1017-.0848Z"/><path class="c" d="M9.4873,22.1864V22.36l.1017-.089Z"/><path class="c" d="M9.4873,23.0339v.1737l.1017-.0847Z"/><path class="d" d="M12.9921,21.9886v-.3034h-.307v-.3324h-1.13v.3324h-.307v.3034h-.4239v.5678h.4239V22.86h.307v.3325h1.13V22.86h.307v-.3033h.4239v-.5678Z"/><path class="e" d="M12.1026,21.387V21.73l-.4859.2762v.2494H10.858v-.2326h.4238V21.72h.307V21.387Z"/><path class="e" d="M12.137,23.158v-.3428l.4859-.2763V22.29h.7587v.2324h-.4238v.3034h-.307v.3325Z"/><path class="c" d="M12.6229,22.2554V22.006L12.137,21.73V21.387h.5138V21.72h.307v.3032h.4239v.2326Z"/><path class="c" d="M10.858,22.29h.7587v.2492l.486.2763v.3428h-.5139v-.3325h-.3069v-.3034H10.858Z"/><path class="b" d="M11.651,22.29v.2311l.4517.2568V22.29Z"/><path class="g" d="M12.1026,21.7675l-.4516.2568v.231h.4516Z"/><path class="b" d="M12.5886,22.2554v-.2311l-.4516-.2568v.4879Z"/><path class="g" d="M12.137,22.7775l.4516-.2568V22.29H12.137Z"/><path class="b" d="M8.0118,28.2984v.9373H7.1185v.85H6.2132v2.4207h.9053v.85h.8933v.9373H11.26l.5711.3432-.2744.1649H10.3982l-.1-.1126h1.05l-.2957-.2978H9.5508l.68.7082h1.4079l.4809-.289.4809.289h1.4079l.68-.7082H13.1876l-.2958.2978h1.05l-.1.1126H12.6833l-.2744-.1649.5712-.3432h3.2478v-.9373h.8932v-.85h.9053V30.0859h-.9053v-.85h-.8932v-.9373H12.98l-.5712-.3432.2744-.1649h1.1582l.1.1127h-1.05l.2958.2977h1.5012l-.68-.7081H12.6007l-.4809.2889-.4809-.2889H10.231l-.68.7081h1.5013l.2957-.2977H10.2983l.1-.1127h1.1581l.2744.1649-.5711.3432Z"/><path class="e" d="M12.97,34.2584h3.2246V33.322h.89V32.47h.9068V30.1186h-.9068v-.8475h-.89v-.9364H12.97l-1.339-.8094H10.2457l-.6144.64h1.4068l.2288-.2288H10.22l.161-.1822h1.1865l1.5169.9152h2.7712v.9365H16.75v.8517h.9068v1.6779H16.75v.8517h-.8941v.9365H13.0847l-1.5169.911H10.3813l-.161-.178h1.0466l-.2288-.2288H9.6313l.6144.64h1.3856Zm-1.8178-.3347H8.3813v-.9365h-.89v-.8517H6.5847v-1.678h.9068v-.8516h.89v-.9365h2.7712l1.5212-.9152h1.1822l.161.1822H12.9746l.2288.2288H14.61l-.6144-.64H12.61l-1.339.8094H8.0466v.9364H7.1525v.8475H6.2458V32.47h.9067v.8517h.8941v.9364h3.2246l1.339.8093h1.3856l.6144-.64H13.2034l-.2288.2288h1.0423l-.161.178H12.6737Z"/><path class="f" d="M12.1186,28.1272l-.9576.5763H8.4153V29.64h-.89v.8517H6.6186v1.61h.9068v.8517h.89V33.89H11.161l.9576.572.9577-.572H15.822v-.9364h.8941v-.8517h.9068v-1.61h-.9068V29.64H15.822v-.9364H13.0763Zm0,.2373.9026.5424h2.6017v.9364h.894v.8475H17.42v1.2076h-.9026V32.75h-.894v.9364H13.0212l-.9026.5424-.8983-.5424H8.6186V32.75h-.894v-.8517H6.8178V30.6908h.9068v-.8475h.894v-.9364H11.22Z"/><path class="g" d="M15.5874,32.7163v.9374H13.0113l-.8915.5356-.8916-.5356H8.6523v-.9374H7.759v-.85H6.8537v-1.14H7.759v-.85h.8933v-.9373h2.5759l.8916-.5357.8915.5357h2.5761v.9373h.8932v.85h.9053v1.14h-.9053v.85Z"/><path class="d" d="M8.99,32.3879v.9072h1.416L8.99,32.356Z"/><path class="d" d="M8.99,30.2046v-.9072h1.416l-1.416.9392Z"/><path class="d" d="M15.25,32.3879v.9072h-1.416l1.416-.9391Z"/><path class="d" d="M15.25,30.2046v-.9072h-1.416l1.416.9392Z"/><path class="b" d="M9.0238,32.42l1.268.841H9.0238Z"/><path class="b" d="M9.0238,30.1727l1.268-.841H9.0238Z"/><path class="b" d="M15.2158,32.42l-1.2679.841h1.2679Z"/><path class="b" d="M15.2158,30.1727l-1.2679-.841h1.2679Z"/><path class="d" d="M10.7956,31.0475v-.4633h-.158L9.88,30.11l-.0091.0057-.749.4683h-.158v.4633H8.607v.4976h.3564v.4632h.158l.7581.474.7581-.474h.158v-.4632h.5425v-.4976Z"/><path class="b" d="M9.88,30.1507l.6935.4336H9.1862Zm.6934,1.8577-.6934.4335-.6933-.4335Z"/><path class="b" d="M10.405,31.0818v.4291H9.54v-.4291Z"/><path class="e" d="M10.7614,31.545v.4291H9.8966V31.545Z"/><path class="e" d="M9.8624,31.545v.4291H8.9977V31.545Z"/><path class="e" d="M11.3039,31.0818v.4291h-.8647v-.4291Z"/><path class="e" d="M9.506,31.0818v.4291H8.6413v-.4291Z"/><path class="e" d="M10.7614,30.6186v.4289H9.8966v-.4289Z"/><path class="e" d="M9.8624,30.6186v.4289H8.9977v-.4289Z"/><path class="d" d="M9.2679,31.1771v.2384H8.88v-.2384Z"/><path class="d" d="M9.6243,30.7138v.2384H9.2359v-.2384Z"/><path class="d" d="M10.5232,30.7138v.2384h-.3884v-.2384Z"/><path class="d" d="M10.1668,31.1771v.2384H9.7784v-.2384Z"/><path class="d" d="M11.0658,31.1771v.2384h-.3885v-.2384Z"/><path class="d" d="M10.5232,31.64v.2384h-.3884V31.64Z"/><path class="d" d="M9.6243,31.64v.2384H9.2359V31.64Z"/><path class="c" d="M9.2313,31.2137H8.916v.1652h.3153Z"/><path class="c" d="M9.5877,30.75H9.2724v.1652h.3153Z"/><path class="c" d="M10.4866,30.75h-.3152v.1652h.3152Z"/><path class="c" d="M10.13,31.2137H9.815v.1652H10.13Z"/><path class="c" d="M11.0292,31.2137h-.3153v.1652h.3153Z"/><path class="c" d="M10.4866,31.677h-.3152v.1652h.3152Z"/><path class="c" d="M9.5877,31.677H9.2724v.1652h.3153Z"/><path class="d" d="M13.444,31.0475v-.4633h.158l.7581-.474.0091.0057.749.4683h.158v.4633h.3564v.4976h-.3564v.4632h-.158l-.7581.474-.7581-.474h-.158v-.4632h-.5425v-.4976Z"/><path class="b" d="M14.36,30.1507l-.6935.4336h1.3868Zm-.6934,1.8577.6934.4335.6933-.4335Z"/><path class="b" d="M13.8346,31.0818v.4291h.8648v-.4291Z"/><path class="e" d="M13.4782,31.545v.4291h.8648V31.545Z"/><path class="e" d="M14.3772,31.545v.4291h.8647V31.545Z"/><path class="e" d="M12.9357,31.0818v.4291H13.8v-.4291Z"/><path class="e" d="M14.7336,31.0818v.4291h.8647v-.4291Z"/><path class="e" d="M13.4782,30.6186v.4289h.8648v-.4289Z"/><path class="e" d="M14.3772,30.6186v.4289h.8647v-.4289Z"/><path class="d" d="M14.9717,31.1771v.2384H15.36v-.2384Z"/><path class="d" d="M14.6153,30.7138v.2384h.3884v-.2384Z"/><path class="d" d="M13.7164,30.7138v.2384h.3884v-.2384Z"/><path class="d" d="M14.0728,31.1771v.2384h.3884v-.2384Z"/><path class="d" d="M13.1738,31.1771v.2384h.3885v-.2384Z"/><path class="d" d="M13.7164,31.64v.2384h.3884V31.64Z"/><path class="d" d="M14.6153,31.64v.2384h.3884V31.64Z"/><path class="c" d="M15.0083,31.2137h.3153v.1652h-.3153Z"/><path class="c" d="M14.6519,30.75h.3153v.1652h-.3153Z"/><path class="c" d="M13.753,30.75h.3152v.1652H13.753Z"/><path class="c" d="M14.1094,31.2137h.3152v.1652h-.3152Z"/><path class="c" d="M13.21,31.2137h.3153v.1652H13.21Z"/><path class="c" d="M13.753,31.677h.3152v.1652H13.753Z"/><path class="c" d="M14.6519,31.677h.3153v.1652h-.3153Z"/><path class="d" d="M13.0359,30.2736v.4632h-.158l-.7581.474-.0091-.0056-.749-.4684h-.158v-.4632h-.4495V29.776h.4495v-.4632h.158l.7581-.4741.7581.4741h.158v.4632h.45v.4976Z"/><path class="e" d="M12.12,31.17l.6934-.4336H11.4265Zm.6934-1.8576-.6934-.4336-.6933.4336Z"/><path class="b" d="M13.0017,29.776v-.429H12.137v.429Z"/><path class="b" d="M12.1027,29.776v-.429H11.238v.429Z"/><path class="b" d="M13.4511,30.2393V29.81h-.8647v.429Z"/><path class="b" d="M12.5522,30.2393V29.81h-.8648v.429Z"/><path class="b" d="M11.6532,30.2393V29.81h-.8647v.429Z"/><path class="b" d="M13.0017,30.7026v-.4291H12.137v.4291Z"/><path class="b" d="M12.1027,30.7026v-.4291H11.238v.4291Z"/><path class="d" d="M11.8646,29.4423v.2384h-.3885v-.2384Z"/><path class="d" d="M12.7635,29.4423v.2384h-.3884v-.2384Z"/><path class="d" d="M11.415,29.9056v.2384h-.3884v-.2384Z"/><path class="d" d="M12.3141,29.9056v.2384h-.3884v-.2384Z"/><path class="d" d="M13.213,29.9056v.2384h-.3884v-.2384Z"/><path class="d" d="M11.8646,30.3689v.2383h-.3885v-.2383Z"/><path class="d" d="M12.7635,30.3689v.2383h-.3884v-.2383Z"/><path class="c" d="M11.828,29.4789h-.3153v.1652h.3153Z"/><path class="c" d="M12.727,29.4789h-.3153v.1652h.3153Z"/><path class="c" d="M11.3785,29.9422h-.3153v.1652h.3153Z"/><path class="c" d="M12.2775,29.9422h-.3152v.1652h.3152Z"/><path class="c" d="M13.1764,29.9422h-.3153v.1652h.3153Z"/><path class="c" d="M11.828,30.4054h-.3153v.1653h.3153Z"/><path class="c" d="M12.727,30.4054h-.3153v.1653h.3153Z"/><path class="d" d="M13.0359,32.8167V33.28h-.158l-.7581.474-.0091-.0057-.749-.4683h-.158v-.4632h-.4495v-.4976h.4495v-.4633h.158l.7581-.474.7581.474h.158v.4633h.45v.4976Z"/><path class="e" d="M12.12,33.7135l.6934-.4336H11.4265Zm.6934-1.8577-.6934-.4336-.6933.4336Z"/><path class="b" d="M13.0017,32.3191V31.89H12.137v.429Z"/><path class="b" d="M12.1027,32.3191V31.89H11.238v.429Z"/><path class="b" d="M13.4511,32.7823v-.429h-.8647v.429Z"/><path class="b" d="M12.5522,32.7823v-.429h-.8648v.429Z"/><path class="b" d="M11.6532,32.7823v-.429h-.8647v.429Z"/><path class="b" d="M13.0017,33.2456v-.429H12.137v.429Z"/><path class="b" d="M12.1027,33.2456v-.429H11.238v.429Z"/><path class="d" d="M11.8646,31.9854v.2383h-.3885v-.2383Z"/><path class="d" d="M12.7635,31.9854v.2383h-.3884v-.2383Z"/><path class="d" d="M11.415,32.4487v.2383h-.3884v-.2383Z"/><path class="d" d="M12.3141,32.4487v.2383h-.3884v-.2383Z"/><path class="d" d="M13.213,32.4487v.2383h-.3884v-.2383Z"/><path class="d" d="M11.8646,32.9119V33.15h-.3885v-.2384Z"/><path class="d" d="M12.7635,32.9119V33.15h-.3884v-.2384Z"/><path class="c" d="M11.828,32.0219h-.3153v.1652h.3153Z"/><path class="c" d="M12.727,32.0219h-.3153v.1652h.3153Z"/><path class="c" d="M11.3785,32.4852h-.3153V32.65h.3153Z"/><path class="c" d="M12.2775,32.4852h-.3152V32.65h.3152Z"/><path class="c" d="M13.1764,32.4852h-.3153V32.65h.3153Z"/><path class="c" d="M11.828,32.9485h-.3153v.1652h.3153Z"/><path class="c" d="M12.727,32.9485h-.3153v.1652h.3153Z"/><path class="d" d="M17.03,38.35v2.98l-3.37,1.81H10.58L7.69,41.59c-.04-.04-.08-.07-.12-.11a2.9963,2.9963,0,0,1-.32-.3l-.04-.04V38.35l3.37-1.81h3.08Z"/><path class="g" d="M10.6483,36.8136h2.9449l3.1611,1.6991V41.17l-3.1611,1.6991H10.6465L7.4855,41.17V38.5127ZM13.65,36.57H10.59l-3.34,1.8v2.81a2.9963,2.9963,0,0,0,.32.3l3.02,1.63h3.06l3.34-1.8V38.37Z"/><path class="e" d="M12.137,39.8227v3.0112h1.4476l3.1346-1.6869v-1.29H12.1027V36.8458H10.6551L7.52,38.5328v1.29Z"/><path class="c" d="M12.1026,39.8227v3.0112H10.6551L7.52,41.147v-1.29h4.6165V36.8458h1.4476l3.1347,1.687v1.29Z"/><path class="d" d="M12.4011,42.6654v-.87l-.2814.1785-.2814-.1785v.87H10.963l.5906-.4332v-.6178l-.9007-.5715h-.63V38.6371h.63l.9007-.5716v-.6178l-.5906-.4331h.8753v.87l.2814-.1785.2814.1785v-.87h.8754l-.5907.4331v.6178l.9008.5716h.6294v2.4058h-.6294l-.9008.5715v.6178l.5907.4332Z"/><path class="e" d="M12.4365,37.0508v.8983l-.3009-.1906v.2542l1.3771.877h.4534v.9324h.2161V38.67h-.6059l-.9237-.5848v-.6526l.5211-.3813ZM10.0593,39.856v1.1525h.6017l.928.5889V42.25l-.5212.3813h.7374V41.733l.2965.1907V41.661l-1.3771-.8686h-.4492V39.856Z"/><path class="c" d="M11.0678,37.0508l.5212.3813v.6526l-.928.5848h-.6017v1.1526h.2161V38.89h.4492l1.3771-.8728v-.2584l-.2966.1906v-.8983Zm2.8983,2.8052v.9364h-.4535l-1.377.8686v.2627l.3008-.1907v.8983h.7373l-.5211-.3813v-.6526l.9236-.5889h.606V39.8559h-.2161Z"/><path class="b" d="M10.3082,40.7566h.427l1.3846.8785,1.3845-.8785h.4271V38.9233h-.4271L12.12,38.0449l-1.3846.8784h-.427Z"/><path class="d" d="M13.0782,40.2756h.2956v-.14h-.2224v-.2542h.4753V40.53H13.171v.4424h-.938v-.6356h.4128v.2542h-.16v.1271h.4322v-.243l-1.7569-1.0706h-.2957v.14h.2225v.2542h-.4754V39.15h.4557v-.4423h.9379v.6356h-.4128V39.089h.16v-.1271h-.4321v.2431Zm-.16-1.0706v-.2431H12.486v.1271h.16v.2543h-.4128v-.6356h.938V39.15h.4556v.6484h-.4753v-.2542h.2224v-.14h-.2956L11.3213,40.475v.243h.4321v-.1271h-.16v-.2543h.4128v.6357h-.9379V40.53h-.4557v-.6484h.4754v.2542h-.2225v.14h.2957Z"/><path class="c" d="M12.9525,40.4558v.2965h-.5008v-.1956h.16v-.1858h-.3443v.5671h.8694v-.4424h.4557v-.58h-.4068v.1857h.2224V40.31h-.3395L11.287,39.2242v-.2965h.5008v.1956h-.16v.1857h.3442v-.567h-.8694v.4423h-.4556v.58h.4067v-.1857h-.2224V39.37h.3395Zm.1161-1.0858h.3395v.2085h-.2224v.1857h.4068v-.58h-.4557V38.742h-.8693v.567h.3442v-.1857h-.16v-.1956h.5007v.2965L11.1709,40.31h-.3395v-.2084h.2224v-.1857h-.4067v.58h.4556v.4424h.8694v-.5671h-.3442v.1857h.16v.1957H11.287v-.2966Z"/><path class="d" d="M16.0434,39.9907v.941h-.4v-.3323h-.4036v.3323h-.4v-.941h.4v.3323h.4036v-.3323Z"/><path class="d" d="M14.6106,41.24v.941h-.4v-.3323h-.4036v.3323h-.4V41.24h.4v.3324H14.21V41.24Z"/><path class="d" d="M16.0434,39.689v-.9409h-.4V39.08h-.4036v-.3323h-.4v.9409h.4v-.3323h.4036v.3323Z"/><path class="d" d="M8.1962,39.9907v.941h.4005v-.3323H9v.3323h.4v-.941H9v.3323H8.5967v-.3323Z"/><path class="d" d="M8.1962,39.689v-.9409h.4005V39.08H9v-.3323h.4v.9409H9v-.3323H8.5967v.3323Z"/><path class="d" d="M14.6106,38.44V37.499h-.4v.3323h-.4036V37.499h-.4V38.44h.4v-.3323H14.21V38.44Z"/><path class="d" d="M9.6291,41.24v.941h.4v-.3323h.4037v.3323h.4V41.24h-.4v.3324H10.03V41.24Z"/><path class="d" d="M9.6291,38.44V37.499h.4v.3323h.4037V37.499h.4V38.44h-.4v-.3323H10.03V38.44Z"/><path class="d" d="M14.8494,37.7805v.7146h1.3278Z"/><path class="d" d="M9.39,41.8994v-.7146H8.0624Z"/><path class="d" d="M9.39,37.7805v.7146H8.0624Z"/><path class="d" d="M14.8494,41.8994v-.7146h1.3278Z"/><path class="b" d="M15.6772,40.5651v.3323h.3319v-.8723h-.3319v.3323H15.205v-.3323h-.3318v.8723h.3318v-.3323Z"/><path class="b" d="M14.2444,41.8142v.3323h.3318v-.8723h-.3318v.3323h-.4722v-.3323H13.44v.8723h.3318v-.3323Z"/><path class="b" d="M15.6772,39.1147v-.3323h.3319v.8724h-.3319v-.3324H15.205v.3324h-.3318v-.8724h.3318v.3323Z"/><path class="b" d="M8.5624,40.5651v.3323H8.2306v-.8723h.3318v.3323h.4722v-.3323h.3318v.8723H9.0346v-.3323Z"/><path class="b" d="M8.5624,39.1147v-.3323H8.2306v.8724h.3318v-.3324h.4722v.3324h.3318v-.8724H9.0346v.3323Z"/><path class="b" d="M14.2444,37.8656v-.3324h.3318v.8724h-.3318v-.3323h-.4722v.3323H13.44v-.8724h.3318v.3324Z"/><path class="b" d="M9.9952,41.8142v.3323H9.6634v-.8723h.3318v.3323h.4722v-.3323h.3319v.8723h-.3319v-.3323Z"/><path class="b" d="M9.9952,37.8656v-.3324H9.6634v.8724h.3318v-.3323h.4722v.3323h.3319v-.8724h-.3319v.3324Z"/><path class="e" d="M14.8856,37.8389v.6229h1.1569ZM8.1992,41.22l1.1568.6229V41.22H8.1992Z"/><path class="c" d="M9.3559,37.8389l-1.1568.6229H9.3559Zm5.53,3.3814v.6229l1.1569-.6229Z"/><path class="e" d="M17.36,41.73c-.02.24-.22.4-.27.63a1.527,1.527,0,0,0,.13.87c.05-.29.27-.49.33-.76A.7176.7176,0,0,0,17.36,41.73Zm-.01,1.69a1.153,1.153,0,0,1-.28.41.9732.9732,0,0,0-.22-.52,1.4475,1.4475,0,0,1-.2-.34.6173.6173,0,0,0,.09.65.65.65,0,0,1,.16.55,1.8657,1.8657,0,0,0,.71-.56,1.9419,1.9419,0,0,0,.24-.7A1.29,1.29,0,0,0,17.35,43.42Zm-.27,1.01a2.6523,2.6523,0,0,0-.42.33,1.188,1.188,0,0,0-.06-.42,1.6915,1.6915,0,0,1-.12-.55.6937.6937,0,0,0-.15.65,1.4583,1.4583,0,0,1,.14.71c.25-.19.55-.29.8-.48a.9366.9366,0,0,0,.38-.7A3.5883,3.5883,0,0,1,17.08,44.43Zm-.6.98a3.5359,3.5359,0,0,1-.73.36,2.35,2.35,0,0,0,.29-.54.6248.6248,0,0,0-.08-.48,3.6048,3.6048,0,0,1-.26.52,3.087,3.087,0,0,0-.25.78,7.8418,7.8418,0,0,1,.97-.21,1.2167,1.2167,0,0,0,.91-.88A4.9129,4.9129,0,0,1,16.48,45.41Z"/><path class="e" d="M16.42,46.17a2.145,2.145,0,0,1-.73.35c-.19-.07-.39-.15-.58-.23a2.3274,2.3274,0,0,1,.64-.17C15.98,46.12,16.19,46.19,16.42,46.17Z"/><path class="e" d="M15.4,45.42a3.7123,3.7123,0,0,0-.33.54.8758.8758,0,0,1-.19.24c-.08-.03-.17-.07-.26-.11a.9993.9993,0,0,1,.08-.14A.9521.9521,0,0,1,15.4,45.42Z"/><path class="d" d="M18.02,3.46V4.99l-1.04.64v.81L16,7.03h-.79l-1.49.84h-3.2L9.03,7.03H8.24L7.5,6.58a23.9387,23.9387,0,0,1,8.37-5.16H16l.98.59v.81Z"/><path class="g" d="M17.98,3.48V4.97l-1.04.64v.81L15.99,7H15.2l-1.49.83H10.53L9.03,7H8.25l-.72-.44a1.5579,1.5579,0,0,1,.23-.22l.58.34h.78l1.49.84h3.02l1.49-.84h.78l.72-.43V5.44l1.05-.64V3.65l-1.05-.64V2.2l-.72-.43h-.78l-.06-.04q.345-.15.69-.27h.24l.95.57v.81Z"/><rect class="c" x="12.1" y="4.21" width="0.04" height="0.03"/><path class="c" d="M17.63,3.67v.54H12.14V3.15a20.6833,20.6833,0,0,1,2.88-1.4l.09.05h.78l.7.42v.81Z"/><path class="c" d="M12.1,4.24V7.49H10.62L9.13,6.65H8.35l-.56-.34a22.2649,22.2649,0,0,1,2.6-2.07Z"/><rect class="e" x="12.1" y="4.21" width="0.04" height="0.03"/><path class="e" d="M12.1,3.17V4.21H10.43C10.97,3.84,11.53,3.49,12.1,3.17Z"/><polygon class="e" points="17.63 4.24 17.63 4.78 16.59 5.42 16.59 6.23 15.89 6.65 15.11 6.65 13.62 7.49 12.14 7.49 12.14 4.24 17.63 4.24"/><path class="d" d="M8.8758,6.3474,8.62,6.5856,8.3669,6.43l.2561-.2388L8.2942,5.987h.7175L9.63,5.4037l.1978.2089L9.2266,6.18v.3849Z"/><path class="d" d="M10.0858,6.4521,9.83,6.69l-.2533-.1562.2561-.2387-.3288-.2037h.7175l.6183-.5833.1978.2089-.6012.5671v.385Z"/><path class="d" d="M12.12,7.5227h-.6475l-.3388-.3265h-.66l-.488-.2533.1138-.2773.4352.2286h.1906l.6673-.7718.7278.4432Z"/><path class="b" d="M8.6159,6.5428l.23-.2141-.1924-.1193-.23.2145Zm.5765-.04V6.165l.5869-.5537-.1507-.1592-.6033.5692H8.4145l.7779.4819Z"/><path class="b" d="M9.8259,6.6475l.23-.2142-.1924-.1192-.23.2145Zm.5765-.04V6.27l.5869-.5537-.1507-.1592-.6033.5691H9.6245l.7779.482Z"/><path class="b" d="M12.1026,7.4885h-.6164l-.3388-.3265h-.6659l-.4529-.235.0876-.2135.4094.2149H10.74l.6585-.7617.7037.4285Z"/><path class="d" d="M15.3637,2.1024l.2556-.2382.2533.1562-.2561.2387.3288.2037h-.7175l-.6183.5833-.1978-.2089.6012-.5672V1.8851Z"/><path class="d" d="M15.4524,2.7869l.2556-.2383.2533.1562-.2561.2387.3288.2037h-.7175l-.6183.5833L14.5,3.5216l.6012-.5671V2.57Z"/><path class="b" d="M15.6236,1.907l-.23.2142.1925.1192.23-.2145Zm-.5765.04v.3382l-.587.5537.1508.1592.6033-.5692h.6108l-.7779-.4819Z"/><path class="b" d="M15.7122,2.5915l-.23.2141.1925.1192.23-.2144Zm-.5764.04v.3381l-.587.5537.1507.1592.6033-.5691h.6109l-.7779-.4819Z"/><path class="d" d="M15.3637,6.3474l.2556.2382.2533-.1561-.2561-.2388.3288-.2037h-.7175L14.61,5.4037l-.1978.2089.6012.5672v.3849Z"/><path class="d" d="M14.1537,6.4521l.2556.2382.2533-.1562-.2561-.2387.3288-.2037h-.7175L13.4,5.5084l-.1978.2089.6012.5671v.385Z"/><path class="d" d="M15.4524,5.6629l.2556.2383.2533-.1562-.2561-.2387.3288-.2037h-.7175l-.6183-.5833L14.5,4.9282l.6012.5671V5.88Z"/><path class="d" d="M12.12,7.5227h.6475l.3388-.3265h.66l.488-.2533-.1138-.2773-.4352.2286h-.1906l-.6673-.7718-.7278.4432Z"/><path class="b" d="M15.6236,6.5428l-.23-.2141.1925-.1193.23.2145Zm-.5765-.04V6.165l-.587-.5537.1508-.1592.6033.5692h.6108l-.7779.4819Z"/><path class="b" d="M14.4136,6.6475l-.23-.2142.1925-.1192.23.2145Zm-.5765-.04V6.27L13.25,5.716l.1508-.1592.6033.5691h.6108l-.7779.482Z"/><path class="b" d="M15.7122,5.8583l-.23-.2141.1925-.1192.23.2145Zm-.5764-.04V5.4806l-.587-.5537L14.7,4.7677l.6033.5691h.6109l-.7779.4819Z"/><path class="b" d="M12.1369,7.4885h.6164l.3388-.3265h.6659l.4529-.235-.0876-.2135-.4094.2149h-.2148l-.6585-.7617-.7037.4285Z"/><path class="d" d="M15.7952,3.1769l.3087-.1154.0074.0052.3985.2765v.0744l.6384.8073-.6384.8073v.0744l-.4059.2817-.3087-.1154.1884-.1247V4.9108l-.0749-.09h-.3345V3.6285h.3345l.0749-.0895V3.3016Z"/><path class="b" d="M16.4756,3.3611,16.0991,3.1l-.229.0855.1477.0978v.2682l-.0931.1114h-.3162V4.787h.3162l.0931.1114v.2682l-.1477.0978.229.0855.3765-.2612V5.02l.6291-.7954L16.4755,3.43Z"/><path class="d" d="M13.3216,2.5005l.34.2086h1.1967v.9867l.4784.3742h.6084l.2663-.27-.18.0014.3122-.2539.1738.15V3.77l.3729.4548L16.517,4.68v.0725l-.1738.15-.3122-.2539.18.0014-.2663-.27h-.6084l-.4784.3742v.9868H13.6614l-1.39.8528v.2237l.2125.1416h.0674l.2314-.1549.0359-.1155L13,6.9357l-.3518.2956h-.0563l-.3971.2914h-.15l-.3971-.2914h-.0563L11.24,6.9357l.1811-.2472.0358.1155.2315.1549h.0673l.2126-.1416V6.5936l-1.39-.8528H9.3814V4.955L11.22,3.6821Z"/><path class="e" d="M12.1369,6.9855l.1521.1163-.1521.1163V6.9855Zm-.4835.2115h.0056l.3971.2915h.0464V7.2611l-.2084-.1593.2084-.1593v-.427l-1.4871-.9126H9.516V4.8616l-.1.07v.7752h1.1721l1.4143.8679v.2612l-.2365.1575h-.0881l-.25-.1674-.0192-.0621-.122.1665.3179.2669Zm4.5393-2.955.17.1915.1694-.1915ZM13.1774,2.5729l.4466.274h1.0994v.917l.5676.4439h.8559l.2153-.2433.2152.2433h.2541l-.3487-.4254V3.7133l-.1382-.12-.2219.1728.13-.0011v.0433l-.29.2959h-.6379l-.5009-.3918V2.7433H13.6516L13.2874,2.52Z"/><path class="c" d="M12.1026,7.2181l-.1521-.1163.1521-.1162Zm.4834-.021H12.58l-.3971.2914h-.0464V7.2612l.2084-.1594-.2084-.1594V6.5155l1.4871-.9126h1.0994v-.917l.5676-.4439h.856l.2152.2433.2152-.2433h.2541l-.3487.4254v.0691l-.1382.12-.2219-.1728.13.001V4.6415l-.29-.2959h-.6379l-.5009.3918v.9691H13.6516l-1.4143.868v.2611l.2364.1576h.0882l.25-.1675.0193-.0621.122.1665-.3179.267Zm3.7762-3.1808-.17.1915h.339Z"/><path class="g" d="M12.1369,4.242V6.4753l1.4774-.9066h1.0747V4.6692l.5463-.4272Z"/><path class="b" d="M9.55,4.8356v.7331h1.0747l1.4775.9067V4.2077h3.1327l-.5462-.4272v-.9H13.6143l-.4832-.2965-.9942.5549V4.242H10.3718Z"/><path class="d" d="M13.71,5.3247l.2557.2383.2532-.1562-.256-.2387.3288-.2037H13.574l-.6183-.5833-.1978.2089.6012.5672v.3849Z"/><path class="d" d="M10.5294,5.3247l-.2556.2383-.2533-.1562.2561-.2387-.3288-.2037h.7175l.6183-.5833.1978.2089-.6012.5672v.3849Z"/><path class="d" d="M13.71,3.1251l.2557-.2383.2532.1562-.256.2387.3288.2037H13.574l-.6183.5833L12.7579,3.86l.6012-.5672V2.9077Z"/><path class="b" d="M13.97,5.52l-.23-.2141.1925-.1192.23.2144Zm-.5764-.04V5.1424l-.587-.5537.1507-.1592.6033.5691h.6109l-.7779.4819Z"/><path class="g" d="M13.97,2.93l-.23.2142.1925.1192.23-.2144Zm-.5764.04v.3381l-.587.5537.1507.1592.6033-.5691h.6109l-.7779-.4819ZM10.27,5.52l.23-.2141-.1925-.1192-.23.2144Zm.5764-.04V5.1424l.587-.5537L11.2823,4.43l-.6033.5691h-.6109l.7779.4819Z"/><path class="d" d="M13.7085,4.225,12.12,5.2838,10.531,4.225,12.12,3.1661Z"/><path class="c" d="M12.1026,3.2186l-1.4841.9892h3.0026L12.137,3.2186V5.2312l1.4841-.9892H10.6185l1.4841.9892Z"/><path class="d" d="M12.5446,4.589V4.88h-.85V4.589h-.55V3.8608h.55V3.57h.85v.2911h.55V4.589Z"/><path class="b" d="M11.7293,3.6039V3.895h-.55v.3128h.9233V3.6039Zm.4077.6039H13.06V3.895h-.55V3.6039H12.137v.6039Zm-.9576.0342v.3128h.55v.2911h.3734V4.242Zm.9576.6039H12.51V4.5548h.55V4.242H12.137v.6039Z"/></svg>