<svg xmlns="http://www.w3.org/2000/svg" viewBox="0 0 48 48"><defs><style>.a{fill:#060;}.a,.b,.c{fill-rule:evenodd;}.b,.e{fill:#fff;}.c{fill:#c00;}.d{fill:#f8c300;}</style></defs><title>fi_TJ</title><path class="a" d="M45.7,34.3H2.3a24.0358,24.0358,0,0,0,43.4,0Z"/><path class="b" d="M2.3,34.3H45.7A23.5725,23.5725,0,0,0,48,24a23.5725,23.5725,0,0,0-2.3-10.3H2.3A23.5725,23.5725,0,0,0,0,24,23.5725,23.5725,0,0,0,2.3,34.3Z"/><path class="c" d="M2.3,13.7H45.7a24.0358,24.0358,0,0,0-43.4,0Z"/><path class="d" d="M25.4608,22.4448A1.3717,1.3717,0,0,0,24,23.0992a1.3717,1.3717,0,0,0-1.4608-.6544,1.4745,1.4745,0,0,1,2.9216,0Z"/><path class="e" d="M25.4608,22.4448A1.3717,1.3717,0,0,0,24,23.0992a1.3717,1.3717,0,0,0-1.4608-.6544,1.4745,1.4745,0,0,1,2.9216,0Z"/><path class="d" d="M32.2192,28.984A2.7092,2.7092,0,0,1,28.7,27.47a2.6058,2.6058,0,0,1-4.3776-1.6672V23.744a.8572.8572,0,0,1,1.5976-.4048,2.0228,2.0228,0,1,0-3.84,0,.8572.8572,0,0,1,1.5976.4048v2.0592A2.6058,2.6058,0,0,1,19.3,27.47a2.7082,2.7082,0,0,1-4.096,1.1976c.25,2.4976,3.9944,1.988,4.2728-.4408,1.1768,2.064,3.7624,1.4736,4.5192-1.0544h.008c.7568,2.528,3.3424,3.1184,4.5192,1.0544.2784,2.4288,4.0232,2.9384,4.2728.4408A2.6953,2.6953,0,0,1,32.2192,28.984Zm-9.68-6.5392a1.4745,1.4745,0,0,1,2.9216,0A1.3717,1.3717,0,0,0,24,23.0992,1.3717,1.3717,0,0,0,22.5392,22.4448Z"/><path class="d" d="M21.1776,30.2383a1.4041,1.4041,0,0,1-2.48.4112,2.2193,2.2193,0,0,1,.76-.331,1.2319,1.2319,0,0,1,.29-.9822,1.5025,1.5025,0,0,1,.6144.8142,1.3434,1.3434,0,0,1,.8148.0879Z"/><path class="d" d="M25.2644,30.1107a1.4041,1.4041,0,0,1-2.5137.0018,2.222,2.222,0,0,1,.8039-.2027,1.2317,1.2317,0,0,1,.4465-.9218,1.502,1.502,0,0,1,.4736.9034,1.3433,1.3433,0,0,1,.79.2193Z"/><path class="d" d="M29.3174,30.65a1.4041,1.4041,0,0,1-2.48-.4073,2.219,2.219,0,0,1,.8262-.0692,1.2317,1.2317,0,0,1,.5906-.8368,1.5022,1.5022,0,0,1,.32.9684,1.3433,1.3433,0,0,1,.7434.345Z"/><path class="d" d="M30.4949,33.28a22.7107,22.7107,0,0,0-12.99,0l-.313-1.0516a23.806,23.806,0,0,1,13.6158,0Z"/><polygon class="d" points="24.623 16.636 25.008 17.821 24 17.089 22.992 17.821 23.377 16.636 22.37 15.905 23.615 15.905 24 14.72 24.385 15.905 25.63 15.905 24.623 16.636"/><polygon class="d" points="19.823 17.922 20.208 19.107 19.2 18.375 18.192 19.107 18.577 17.922 17.57 17.19 18.815 17.19 19.2 16.006 19.585 17.19 20.83 17.19 19.823 17.922"/><polygon class="d" points="16.309 21.437 16.694 22.621 15.686 21.889 14.678 22.621 15.063 21.437 14.056 20.705 15.302 20.705 15.686 19.52 16.071 20.705 17.317 20.705 16.309 21.437"/><polygon class="d" points="15.023 26.236 15.408 27.421 14.4 26.689 13.392 27.421 13.777 26.236 12.77 25.505 14.015 25.505 14.4 24.32 14.785 25.505 16.03 25.505 15.023 26.236"/><polygon class="d" points="29.423 17.922 29.808 19.107 28.8 18.375 27.792 19.107 28.177 17.922 27.17 17.19 28.415 17.19 28.8 16.006 29.185 17.19 30.43 17.19 29.423 17.922"/><polygon class="d" points="32.937 21.437 33.322 22.621 32.314 21.889 31.306 22.621 31.691 21.437 30.683 20.705 31.929 20.705 32.314 19.52 32.698 20.705 33.944 20.705 32.937 21.437"/><polygon class="d" points="34.223 26.236 34.608 27.421 33.6 26.689 32.592 27.421 32.977 26.236 31.97 25.505 33.215 25.505 33.6 24.32 33.985 25.505 35.23 25.505 34.223 26.236"/></svg>