<svg xmlns="http://www.w3.org/2000/svg" viewBox="0 0 48 48"><defs><style>.a{fill:#a51931;}.a,.b,.c{fill-rule:evenodd;}.b{fill:#f4f5f8;}.c{fill:#2d2a4a;}</style></defs><title>fi_th</title><path class="a" d="M23.95,0A23.95,23.95,0,0,1,41.8129,8H6.0873A23.95,23.95,0,0,1,23.95,0ZM41.8129,40A23.9425,23.9425,0,0,1,6.0873,40Z"/><path class="b" d="M6.0873,40H41.8129a22.2776,22.2776,0,0,0,4.69-8H1.3971a22.2776,22.2776,0,0,0,4.69,8ZM46.5031,16a25.6031,25.6031,0,0,0-4.69-8H6.0873a22.2776,22.2776,0,0,0-4.69,8Z"/><path class="c" d="M1.3971,32H46.6029a23.6031,23.6031,0,0,0,0-16H1.3971a23.6031,23.6031,0,0,0,0,16Z"/></svg>