<svg xmlns="http://www.w3.org/2000/svg" viewBox="0 0 48 48"><defs><style>.a{fill:#1eb53a;}.b{fill:#0099b5;}.c{fill:#ce1126;}.d{fill:#fff;}</style></defs><title>fi_uz</title><circle class="a" cx="24" cy="24" r="24"/><path class="b" d="M48,24H0a24,24,0,0,1,48,0Z"/><path class="c" d="M48,24a23.8567,23.8567,0,0,1-1.61,8.64H1.61a23.9881,23.9881,0,0,1,0-17.28H46.39A23.8567,23.8567,0,0,1,48,24Z"/><path class="d" d="M48,24a23.5205,23.5205,0,0,1-1.27,7.68H1.27a23.8564,23.8564,0,0,1,0-15.36H46.73A23.5205,23.5205,0,0,1,48,24Z"/><path class="d" d="M10.4,13.35a5.0414,5.0414,0,0,1-.96.09,5.76,5.76,0,0,1,0-11.52,5.0414,5.0414,0,0,1,.96.09,5.7488,5.7488,0,0,0,0,11.34Z"/><polygon class="d" points="22.53 12.43 22.79 13.22 22.11 12.73 21.43 13.22 21.69 12.42 21.02 11.93 21.86 11.93 22.11 11.14 22.37 11.93 23.21 11.93 22.53 12.43"/><polygon class="d" points="22.53 7.82 22.79 8.61 22.11 8.12 21.43 8.61 21.69 7.81 21.02 7.32 21.86 7.32 22.11 6.53 22.37 7.32 23.21 7.32 22.53 7.82"/><polygon class="d" points="22.53 3.21 22.79 4 22.11 3.51 21.43 4 21.69 3.2 21.02 2.72 21.86 2.72 22.11 1.92 22.37 2.72 23.21 2.72 22.53 3.21"/><polygon class="d" points="27.14 12.42 27.4 13.22 26.72 12.72 26.04 13.22 26.3 12.42 25.62 11.93 26.46 11.93 26.72 11.14 26.98 11.93 27.82 11.93 27.14 12.42"/><polygon class="d" points="27.14 7.81 27.4 8.61 26.72 8.11 26.04 8.61 26.3 7.81 25.62 7.32 26.46 7.32 26.72 6.53 26.98 7.32 27.82 7.32 27.14 7.81"/><polygon class="d" points="27.14 3.21 27.4 4 26.72 3.51 26.04 4 26.3 3.21 25.62 2.72 26.46 2.72 26.72 1.92 26.98 2.72 27.82 2.72 27.14 3.21"/><polygon class="d" points="31.75 12.42 32.01 13.22 31.33 12.73 30.65 13.22 30.91 12.43 30.23 11.93 31.07 11.93 31.33 11.14 31.58 11.93 32.42 11.93 31.75 12.42"/><polygon class="d" points="31.75 7.81 32.01 8.61 31.33 8.12 30.65 8.61 30.91 7.82 30.23 7.32 31.07 7.32 31.33 6.53 31.58 7.32 32.42 7.32 31.75 7.81"/><polygon class="d" points="31.75 3.2 32.01 4 31.33 3.51 30.65 4 30.91 3.21 30.23 2.72 31.07 2.72 31.33 1.92 31.58 2.72 32.42 2.72 31.75 3.2"/><polygon class="d" points="13.32 12.42 13.57 13.22 12.9 12.73 12.22 13.22 12.47 12.42 11.8 11.93 12.64 11.93 12.9 11.14 13.15 11.93 13.99 11.93 13.32 12.42"/><polygon class="d" points="17.93 12.42 18.18 13.22 17.51 12.73 16.83 13.22 17.08 12.42 16.41 11.93 17.25 11.93 17.5 11.14 17.76 11.93 18.6 11.93 17.93 12.42"/><polygon class="d" points="17.92 7.81 18.18 8.61 17.51 8.12 16.83 8.61 17.09 7.81 16.41 7.32 17.25 7.32 17.5 6.53 17.76 7.32 18.6 7.32 17.92 7.81"/></svg>