<svg xmlns="http://www.w3.org/2000/svg" viewBox="0 0 48 48"><defs><style>.a{fill:#fc0;}.a,.b,.c{fill-rule:evenodd;}.b{fill:#00247d;}.c{fill:#cf142b;}.d{fill:#fff;}</style></defs><title>fi_ve</title><path class="a" d="M1.3971,16H46.6029A23.9653,23.9653,0,0,0,1.3971,16Z"/><path class="b" d="M1.3971,32H46.6029a23.6031,23.6031,0,0,0,0-16H1.3971a23.6031,23.6031,0,0,0,0,16Z"/><path class="c" d="M23.95,48h0A24.0339,24.0339,0,0,0,46.6029,32H1.3971A23.9044,23.9044,0,0,0,23.95,48Z"/><polygon class="d" points="11.29 28.74 11.7 30.18 10.51 29.26 9.26 30.1 9.78 28.68 8.59 27.75 10.1 27.8 10.61 26.39 11.03 27.84 12.54 27.89 11.29 28.74"/><polygon class="d" points="15.2 24.74 13.71 25 13.5 26.5 12.8 25.17 11.31 25.43 12.36 24.34 11.65 23.01 13 23.67 14.05 22.59 13.84 24.08 15.2 24.74"/><polygon class="d" points="18.85 22.3 17.35 22.14 16.73 23.52 16.42 22.05 14.92 21.89 16.22 21.14 15.91 19.66 17.03 20.67 18.34 19.91 17.72 21.29 18.85 22.3"/><polygon class="d" points="22.28 19.96 22.99 21.29 21.63 20.63 20.59 21.71 20.8 20.22 19.44 19.56 20.93 19.3 21.14 17.8 21.84 19.13 23.33 18.87 22.28 19.96"/><polygon class="d" points="38.24 28.68 38.76 30.1 37.51 29.26 36.32 30.18 36.73 28.73 35.48 27.89 36.99 27.84 37.41 26.39 37.92 27.8 39.43 27.75 38.24 28.68"/><polygon class="d" points="36.71 25.43 35.22 25.17 34.52 26.5 34.31 25 32.82 24.74 34.18 24.08 33.97 22.59 35.02 23.67 36.37 23.01 35.66 24.34 36.71 25.43"/><polygon class="d" points="33.1 21.89 31.6 22.05 31.29 23.52 30.67 22.14 29.17 22.3 30.3 21.29 29.68 19.91 30.99 20.67 32.11 19.66 31.8 21.14 33.1 21.89"/><polygon class="d" points="27.23 20.22 27.43 21.71 26.39 20.63 25.03 21.29 25.74 19.96 24.69 18.87 26.18 19.13 26.88 17.8 27.09 19.3 28.58 19.56 27.23 20.22"/></svg>