<svg xmlns="http://www.w3.org/2000/svg" viewBox="0 0 256 224"><defs><style>.a{fill:#f0f5fa;}.b{fill:#dcebf0;}.c{fill:#c3e1eb;}.d{fill:#a5d7e1;}.e{fill:#fab03c;}.f{fill:#f5c841;}.g,.h{fill:none;stroke-linecap:round;stroke-miterlimit:10;stroke-width:8px;}.g{stroke:#f5c841;}.h{stroke:#f0f5fa;}</style></defs><title>Logo</title><path class="a" d="M147.07,101.92A30.09,30.09,0,0,1,117,132H31.75a23.82,23.82,0,1,1,0-47.63h.07a43.88,43.88,0,0,1,85-12.54H117A30.09,30.09,0,0,1,147.07,101.92Z" transform="translate(0 -16)"/><path class="b" d="M147.07,101.92A30.09,30.09,0,0,1,118.16,132,30.07,30.07,0,0,0,96.3,81.23h-.14A43.92,43.92,0,0,0,47.74,53a43.9,43.9,0,0,1,69.11,18.84H117A30.09,30.09,0,0,1,147.07,101.92Z" transform="translate(0 -16)"/><path class="c" d="M101.23,159.54A33.47,33.47,0,0,0,134.69,193h94.82a26.5,26.5,0,0,0,0-53h-.09a48.81,48.81,0,0,0-94.58-13.94h-.15A33.47,33.47,0,0,0,101.23,159.54Z" transform="translate(0 -16)"/><path class="d" d="M256,166.51A26.5,26.5,0,0,1,229.51,193h-.79a26.49,26.49,0,0,0-23.88-38h-.08a48.8,48.8,0,0,0-60.61-44.55A48.8,48.8,0,0,1,229.42,140h.09A26.5,26.5,0,0,1,256,166.51Z" transform="translate(0 -16)"/><circle class="e" cx="154.83" cy="96.5" r="59.5"/><path class="f" d="M214.33,112.5a59.79,59.79,0,0,1-1,11.11,59.54,59.54,0,0,1-70.46-69.4,59.56,59.56,0,0,1,71.5,58.29Z" transform="translate(0 -16)"/><line class="g" x1="155" y1="4" x2="155" y2="16"/><line class="g" x1="108.75" y1="16.39" x2="114.75" y2="26.78"/><line class="g" x1="247.5" y1="96.5" x2="235.5" y2="96.5"/><line class="g" x1="235.11" y1="50.25" x2="224.72" y2="56.25"/><line class="g" x1="201.25" y1="16.39" x2="195.25" y2="26.78"/><path class="c" d="M0,159.54A33.47,33.47,0,0,0,33.46,193h94.82a26.49,26.49,0,1,0,0-53h-.08a48.81,48.81,0,0,0-94.58-14h-.16A33.47,33.47,0,0,0,0,159.54Z" transform="translate(0 -16)"/><path class="d" d="M154.77,166.51A26.49,26.49,0,0,1,128.28,193h-.79a26.49,26.49,0,0,0-23.88-38h-.08a48.8,48.8,0,0,0-48.72-46,48.05,48.05,0,0,0-11.89,1.47A48.8,48.8,0,0,1,128.2,140h.08A26.5,26.5,0,0,1,154.77,166.51Z" transform="translate(0 -16)"/><path class="a" d="M79,206.27A33.74,33.74,0,0,0,112.73,240H208.3a26.71,26.71,0,0,0,0-53.41h-.09a49.2,49.2,0,0,0-95.33-14.05h-.15A33.74,33.74,0,0,0,79,206.27Z" transform="translate(0 -16)"/><path class="b" d="M235,213.3A26.71,26.71,0,0,1,208.3,240h-.8a26.7,26.7,0,0,0-24.07-38.28h-.08a49.19,49.19,0,0,0-61.09-44.9,49.19,49.19,0,0,1,86,29.77h.09A26.71,26.71,0,0,1,235,213.3Z" transform="translate(0 -16)"/><path class="h" d="M187,163.14a38.55,38.55,0,0,0-27.43-11.72" transform="translate(0 -16)"/><path class="h" d="M196.72,181.36a38.52,38.52,0,0,0-2.37-7.26" transform="translate(0 -16)"/><path class="a" d="M132,216a24,24,0,0,1-24,24H40a19,19,0,0,1,0-38h.06a35,35,0,0,1,67.83-10H108A24,24,0,0,1,132,216Z" transform="translate(0 -16)"/><path class="b" d="M132,216a24,24,0,0,1-23.06,24A24,24,0,0,0,91.5,199.5h-.11A35,35,0,0,0,52.76,177a35,35,0,0,1,55.13,15H108A24,24,0,0,1,132,216Z" transform="translate(0 -16)"/></svg>