<?xml version="1.0" encoding="utf-8"?>
<!-- Generator: Adobe Illustrator 24.0.1, SVG Export Plug-In . SVG Version: 6.00 Build 0)  -->
<svg version="1.1"
	 id="svg1306" xmlns:cc="http://creativecommons.org/ns#" xmlns:dc="http://purl.org/dc/elements/1.1/" xmlns:inkscape="http://www.inkscape.org/namespaces/inkscape" xmlns:rdf="http://www.w3.org/1999/02/22-rdf-syntax-ns#" xmlns:sodipodi="http://sodipodi.sourceforge.net/DTD/sodipodi-0.dtd" xmlns:svg="http://www.w3.org/2000/svg"
	 xmlns="http://www.w3.org/2000/svg" xmlns:xlink="http://www.w3.org/1999/xlink" x="0px" y="0px" viewBox="0 0 45 45"
	 style="enable-background:new 0 0 45 45;" xml:space="preserve">
<style type="text/css">
	.st0{fill:#729FCF;stroke:#3465A4;stroke-width:1.0818;stroke-miterlimit:1;}
	.st1{opacity:0.8;}
	.st2{fill:url(#rect6088_1_);}
	.st3{fill:url(#path6115_1_);}
	.st4{fill:url(#path6125_1_);}
	.st5{fill:#555753;}
	.st6{fill:url(#path13219_1_);}
	.st7{fill:#888A85;}
	.st8{opacity:0.4944;fill:url(#path13227_1_);enable-background:new    ;}
	.st9{opacity:0.4944;fill:url(#path13233_1_);enable-background:new    ;}
	.st10{opacity:0.4944;fill:url(#path13239_1_);enable-background:new    ;}
	.st11{opacity:0.4944;fill:url(#path13245_1_);enable-background:new    ;}
	.st12{fill:#888A85;stroke:#555753;stroke-width:0.9995;stroke-miterlimit:1.9987;}
	.st13{fill:url(#path13251_1_);}
	.st14{opacity:0.4778;fill:url(#path13255_1_);enable-background:new    ;}
	.st15{opacity:0.4778;fill:url(#path13263_1_);enable-background:new    ;}
	.st16{opacity:0.4778;fill:url(#path13267_1_);enable-background:new    ;}
	.st17{opacity:0.4778;fill:url(#path13271_1_);enable-background:new    ;}
	.st18{opacity:0.4778;fill:url(#path13273_1_);enable-background:new    ;}
	.st19{fill-rule:evenodd;clip-rule:evenodd;fill:#555753;}
	.st20{opacity:0.4778;fill:url(#path13279_1_);enable-background:new    ;}
	.st21{fill:url(#path13285_1_);}
	.st22{opacity:0.4778;fill:url(#path13289_1_);enable-background:new    ;}
	.st23{opacity:0.4778;fill:url(#path13297_1_);enable-background:new    ;}
	.st24{opacity:0.4778;fill:url(#path13301_1_);enable-background:new    ;}
	.st25{opacity:0.4778;fill:url(#path13305_1_);enable-background:new    ;}
	.st26{opacity:0.4778;fill:url(#path13307_1_);enable-background:new    ;}
	.st27{opacity:0.4778;fill:url(#path13313_1_);enable-background:new    ;}
</style>
<g id="layer1">
	<g id="g11337" transform="translate(-339.9823,245.0132)">
		<path id="rect6086" class="st0" d="M353.1-216.8h28.2c1.3,0,2,0.5,1.4,1.2L374-204c-0.5,0.7-2,1.2-3.3,1.2h-28.2
			c-1.3,0-2-0.5-1.4-1.2l8.7-11.6C350.3-216.3,351.8-216.8,353.1-216.8z"/>
		<g id="g10414" transform="matrix(1.000000,0.000000,0.000000,0.999611,0.000000,-7.862650e-2)" class="st1">
			
				<linearGradient id="rect6088_1_" gradientUnits="userSpaceOnUse" x1="678.1467" y1="-119.3813" x2="685.0342" y2="-119.3813" gradientTransform="matrix(1.0884 0 -0.5438 0.6743 -456.7821 -129.2526)">
				<stop  offset="0" style="stop-color:#FFFFFF"/>
				<stop  offset="1" style="stop-color:#FFFFFF;stop-opacity:0"/>
			</linearGradient>
			<path id="rect6088" class="st2" d="M350.9-216.3h6.9c1.3,0,1.9,0.5,1.4,1.1l-8.7,10.8c-0.5,0.6-1.9,1.1-3.2,1.1h-4
				c-1.3,0-2.6,0-1.4-1.1L350.9-216.3z"/>
			
				<linearGradient id="path6115_1_" gradientUnits="userSpaceOnUse" x1="681.2423" y1="-119.3887" x2="688.1298" y2="-119.3887" gradientTransform="matrix(1.0709 0 -0.535 0.6743 -436.9563 -129.2476)">
				<stop  offset="0" style="stop-color:#FFFFFF"/>
				<stop  offset="1" style="stop-color:#FFFFFF;stop-opacity:0"/>
			</linearGradient>
			<path id="path6115" class="st3" d="M361.2-216.3h6.7c1.3,0,1.9,0.5,1.4,1.1l-8.5,10.8c-0.5,0.6-1.9,1.1-3.2,1.1h-6.1L361.2-216.3
				z"/>
			
				<linearGradient id="path6125_1_" gradientUnits="userSpaceOnUse" x1="681.2423" y1="-119.389" x2="688.1299" y2="-119.389" gradientTransform="matrix(1.0709 0 -0.535 0.6743 -426.9559 -129.2474)">
				<stop  offset="0" style="stop-color:#FFFFFF"/>
				<stop  offset="1" style="stop-color:#FFFFFF;stop-opacity:0"/>
			</linearGradient>
			<path id="path6125" class="st4" d="M371.2-216.3h6.7c1.3,0,1.9,0.5,1.4,1.1l-8.5,10.8c-0.5,0.6-1.9,1.1-3.2,1.1h-6.1L371.2-216.3
				z"/>
		</g>
	</g>
	<g id="g13213" transform="matrix(0.999675,0.000000,0.000000,1.000000,-286.8562,245.0000)">
		<g id="g13215">
			<path id="path13217" class="st5" d="M310-243.3c-2.8,0-5.1,1.6-6.4,3.8c-0.9-0.5-2-0.8-3.1-0.8c-3.9,0-7,3.1-7,7s3.1,7,7,7
				c2.4,0,4.4-1.3,5.7-3.2c1.1,0.7,2.4,1.2,3.8,1.2c0.9,0,1.8-0.2,2.6-0.5c0.5,0.9,1.2,1.6,2,2.2c0,0.1-0.1,0.2-0.1,0.4
				c0,3.9,3.1,7,7,7s7-3.1,7-7c0-2.4-1.3-4.4-3.1-5.6c0-0.1,0.1-0.2,0.1-0.4c0-3.9-3.1-7-7-7c-0.6,0-1.2,0.2-1.8,0.4
				C315.5-241.5,313-243.3,310-243.3z"/>
			
				<linearGradient id="path13219_1_" gradientUnits="userSpaceOnUse" x1="801.1934" y1="-186.5054" x2="839.0547" y2="-173.4681" gradientTransform="matrix(0.9994 0 0 1 -504.7255 -51)">
				<stop  offset="0" style="stop-color:#FFFFFF"/>
				<stop  offset="1" style="stop-color:#FFFFFF;stop-opacity:0"/>
			</linearGradient>
			<path id="path13219" class="st6" d="M310-242.3c-2.8,0-5.1,1.8-6.1,4.2c-1-0.7-2.1-1.2-3.4-1.2c-3.3,0-6,2.7-6,6s2.7,6,6,6
				c2.4,0,4.5-1.5,5.4-3.5c1.1,0.9,2.5,1.5,4.1,1.5c1.1,0,2-0.3,2.9-0.8c0.4,1,1.1,1.8,1.9,2.4c-0.2,0.6-0.4,1.2-0.4,1.8
				c0,3.6,2.9,6.5,6.5,6.5s6.5-2.9,6.5-6.5c0-2.4-1.3-4.3-3.2-5.5c0.1-0.3,0.2-0.7,0.2-1c0-3.3-2.7-6-6-6c-0.9,0-1.7,0.2-2.4,0.5
				C315.2-240.4,312.8-242.3,310-242.3z"/>
			<path id="path13221" class="st7" d="M327.5-225.8c0,3.6-2.9,6.5-6.5,6.5s-6.5-2.9-6.5-6.5l0,0c0-3.6,2.9-6.5,6.5-6.5
				S327.5-229.4,327.5-225.8L327.5-225.8z"/>
			<g id="g13223">
				<path id="path13225" class="st7" d="M315.5-235.8c0,3-2.5,5.5-5.5,5.5s-5.5-2.5-5.5-5.5s2.5-5.5,5.5-5.5
					S315.5-238.8,315.5-235.8z"/>
				
					<linearGradient id="path13227_1_" gradientUnits="userSpaceOnUse" x1="839.9009" y1="-159.5821" x2="845.6541" y2="-154.7252" gradientTransform="matrix(0.882 0 0 0.8826 -434.6156 -98.1285)">
					<stop  offset="0" style="stop-color:#FFFFFF"/>
					<stop  offset="1" style="stop-color:#FFFFFF;stop-opacity:0"/>
				</linearGradient>
				<path id="path13227" class="st8" d="M315.5-235.8c0,3-2.5,5.5-5.5,5.5s-5.5-2.5-5.5-5.5s2.5-5.5,5.5-5.5
					S315.5-238.8,315.5-235.8z"/>
			</g>
			<g id="g13229">
				<path id="path13231" class="st7" d="M323.5-231.8c0,3-2.5,5.5-5.5,5.5s-5.5-2.5-5.5-5.5l0,0c0-3,2.5-5.5,5.5-5.5
					S323.5-234.8,323.5-231.8z"/>
				
					<linearGradient id="path13233_1_" gradientUnits="userSpaceOnUse" x1="838.9871" y1="-164.9621" x2="844.9446" y2="-158.9999" gradientTransform="matrix(0.9111 0 0 0.9117 -450.9842 -85.9456)">
					<stop  offset="0" style="stop-color:#FFFFFF"/>
					<stop  offset="1" style="stop-color:#FFFFFF;stop-opacity:0"/>
				</linearGradient>
				<path id="path13233" class="st9" d="M323.5-231.8c0,3-2.5,5.5-5.5,5.5s-5.5-2.5-5.5-5.5l0,0c0-3,2.5-5.5,5.5-5.5
					S323.5-234.8,323.5-231.8z"/>
			</g>
			<g id="g13235">
				<path id="path13237" class="st7" d="M305.5-233.3c0,2.8-2.2,5-5,5s-5-2.2-5-5s2.2-5,5-5C303.2-238.3,305.5-236.1,305.5-233.3
					L305.5-233.3z"/>
				
					<linearGradient id="path13239_1_" gradientUnits="userSpaceOnUse" x1="777.5219" y1="-210.3454" x2="781.9024" y2="-206.8649" gradientTransform="matrix(1.142 0 0 1.1428 -590.6985 4.5627)">
					<stop  offset="0" style="stop-color:#FFFFFF"/>
					<stop  offset="1" style="stop-color:#FFFFFF;stop-opacity:0"/>
				</linearGradient>
				<path id="path13239" class="st10" d="M305.5-233.3c0,2.8-2.2,5-5,5s-5-2.2-5-5s2.2-5,5-5C303.2-238.3,305.5-236.1,305.5-233.3
					L305.5-233.3z"/>
			</g>
			<g id="g13241">
				<path id="path13243" class="st7" d="M316.5-229.3c0,3.9-3.1,7-7,7s-7-3.1-7-7l0,0c0-3.9,3.1-7,7-7
					C313.3-236.3,316.5-233.2,316.5-229.3L316.5-229.3z"/>
				
					<linearGradient id="path13245_1_" gradientUnits="userSpaceOnUse" x1="802.1207" y1="-189.2554" x2="809.7706" y2="-183.426" gradientTransform="matrix(1.038 0 0 1.0386 -527.9995 -36.4362)">
					<stop  offset="0" style="stop-color:#FFFFFF"/>
					<stop  offset="1" style="stop-color:#FFFFFF;stop-opacity:0"/>
				</linearGradient>
				<path id="path13245" class="st11" d="M316.5-229.3c0,3.9-3.1,7-7,7s-7-3.1-7-7l0,0c0-3.9,3.1-7,7-7
					C313.3-236.3,316.5-233.2,316.5-229.3L316.5-229.3z"/>
			</g>
		</g>
		<g id="g13247" transform="translate(72.00007,7.999930)">
			<path id="path13249" class="st12" d="M245-238.8c-2.3,0-4.1,1.6-4.7,3.6c-0.7-0.4-1.4-0.6-2.3-0.6c-2.8,0-5,2.2-5,5
				c0,0.6,0.2,1.1,0.3,1.6c-1.4,0.8-2.3,2.2-2.3,3.9c0,2.5,2,4.5,4.5,4.5c0.2,0,18.8,0,19,0c2.5,0,4.5-2,4.5-4.5
				c0-1.7-1-3.1-2.3-3.9c0.2-0.5,0.3-1,0.3-1.6c0-2.8-2.2-5-5-5c-0.8,0-1.6,0.3-2.3,0.6C249.1-237.2,247.2-238.8,245-238.8z"/>
			
				<linearGradient id="path13251_1_" gradientUnits="userSpaceOnUse" x1="699.4205" y1="-234.8217" x2="713.4274" y2="-225.7398" gradientTransform="matrix(0.9994 0 0 1 -463.7938 1.0001)">
				<stop  offset="0" style="stop-color:#FFFFFF"/>
				<stop  offset="1" style="stop-color:#FFFFFF;stop-opacity:0"/>
			</linearGradient>
			<path id="path13251" class="st13" d="M245-238.3c-2.2,0-3.7,1.3-4.4,3.8c-0.7-0.3-1.5-0.8-2.4-0.8c-2.7,0-4.8,1.9-4.8,4.5
				c0,0.5,0.3,1.3,0.4,1.8c-1.3,0.7-2.4,1.9-2.4,3.4c0,2.3,1.5,4.3,4.3,4.3c0.2,0,18.2,0,18.3,0c2.8,0,4.3-1.9,4.3-4.3
				c0-1.6-1.1-2.7-2.4-3.4c0.2-0.5,0.5-1.3,0.5-1.8c0-2.6-2.1-4.6-4.8-4.6c-0.8,0-1.6,0.5-2.3,0.8
				C248.8-236.9,247.2-238.3,245-238.3z"/>
			<path id="path13253" class="st7" d="M248.5-233.8c0,1.9-1.6,3.5-3.5,3.5s-3.5-1.6-3.5-3.5s1.6-3.5,3.5-3.5
				S248.5-235.7,248.5-233.8L248.5-233.8z"/>
			
				<linearGradient id="path13255_1_" gradientUnits="userSpaceOnUse" x1="704.8174" y1="-244.9167" x2="706.9764" y2="-241.4859" gradientTransform="matrix(1.056 0 0 1.0566 -500.544 22.9762)">
				<stop  offset="0" style="stop-color:#FFFFFF"/>
				<stop  offset="1" style="stop-color:#FFFFFF;stop-opacity:0"/>
			</linearGradient>
			<path id="path13255" class="st14" d="M248.5-233.8c0,1.9-1.6,3.5-3.5,3.5s-3.5-1.6-3.5-3.5s1.6-3.5,3.5-3.5
				S248.5-235.7,248.5-233.8L248.5-233.8z"/>
			<rect id="rect13257" x="235.5" y="-231.3" class="st7" width="20" height="9"/>
			<path id="path13259" class="st7" d="M238.5-225.3c0,1.7-1.3,3-3,3s-3-1.3-3-3s1.3-3,3-3S238.5-227,238.5-225.3L238.5-225.3z"/>
			<path id="path13261" class="st7" d="M255.5-230.8c0,1.9-1.6,3.5-3.5,3.5s-3.5-1.6-3.5-3.5s1.6-3.5,3.5-3.5
				S255.5-232.7,255.5-230.8L255.5-230.8z"/>
			
				<linearGradient id="path13263_1_" gradientUnits="userSpaceOnUse" x1="703.7921" y1="-246.4351" x2="707.134" y2="-241.2889" gradientTransform="matrix(1.056 0 0 1.0566 -493.544 25.9762)">
				<stop  offset="0" style="stop-color:#FFFFFF"/>
				<stop  offset="1" style="stop-color:#FFFFFF;stop-opacity:0"/>
			</linearGradient>
			<path id="path13263" class="st15" d="M255.5-230.8c0,1.9-1.6,3.5-3.5,3.5s-3.5-1.6-3.5-3.5s1.6-3.5,3.5-3.5
				S255.5-232.7,255.5-230.8L255.5-230.8z"/>
			<path id="path13265" class="st7" d="M241.5-230.8c0,1.9-1.6,3.5-3.5,3.5s-3.5-1.6-3.5-3.5s1.6-3.5,3.5-3.5
				S241.5-232.7,241.5-230.8L241.5-230.8z"/>
			
				<linearGradient id="path13267_1_" gradientUnits="userSpaceOnUse" x1="703.658" y1="-245.3893" x2="707.1085" y2="-241.8932" gradientTransform="matrix(1.056 0 0 1.0566 -507.544 25.9762)">
				<stop  offset="0" style="stop-color:#FFFFFF"/>
				<stop  offset="1" style="stop-color:#FFFFFF;stop-opacity:0"/>
			</linearGradient>
			<path id="path13267" class="st16" d="M241.5-230.8c0,1.9-1.6,3.5-3.5,3.5s-3.5-1.6-3.5-3.5s1.6-3.5,3.5-3.5
				S241.5-232.7,241.5-230.8L241.5-230.8z"/>
			<path id="path13269" class="st7" d="M243.9-234.3c-3.6,0-6.5,2.9-6.5,6.5c0,2.4,1.3,4.3,3.3,5.5h6.5c1.9-1.1,3.3-3.1,3.3-5.5
				C250.4-231.4,247.5-234.3,243.9-234.3z"/>
			
				<linearGradient id="path13271_1_" gradientUnits="userSpaceOnUse" x1="706.2792" y1="-232.6203" x2="710.3128" y2="-227.4337" gradientTransform="matrix(0.9994 0 0 1 -464.7938 1.0001)">
				<stop  offset="0" style="stop-color:#FFFFFF"/>
				<stop  offset="1" style="stop-color:#FFFFFF;stop-opacity:0"/>
			</linearGradient>
			<path id="path13271" class="st17" d="M244-234.3c-3.6,0-6.5,2.9-6.5,6.5c0,2.4,1.3,4.4,3.3,5.5h6.5c1.9-1.1,3.3-3.1,3.3-5.5
				C250.5-231.4,247.6-234.3,244-234.3z"/>
			
				<linearGradient id="path13273_1_" gradientUnits="userSpaceOnUse" x1="736.73" y1="-211.8962" x2="739.8297" y2="-209.1198" gradientTransform="matrix(0.9051 0 0 0.9057 -433.0471 -34.8733)">
				<stop  offset="0" style="stop-color:#FFFFFF"/>
				<stop  offset="1" style="stop-color:#FFFFFF;stop-opacity:0"/>
			</linearGradient>
			<path id="path13273" class="st18" d="M238.5-225.3c0,1.7-1.3,3-3,3s-3-1.3-3-3s1.3-3,3-3C237.1-228.3,238.5-227,238.5-225.3
				L238.5-225.3z"/>
			<path id="path13275" class="st19" d="M257.4-230.6c0,2.7-3.3,3.7-3.3,3.7s2.3-1.6,2.3-3.7H257.4z"/>
			<path id="path13277" class="st7" d="M252.5-226.3c0,2.2-1.8,4-4,4s-4-1.8-4-4s1.8-4,4-4S252.5-228.5,252.5-226.3L252.5-226.3z"/>
			
				<linearGradient id="path13279_1_" gradientUnits="userSpaceOnUse" x1="678.1111" y1="-271.2924" x2="682.2084" y2="-266.8906" gradientTransform="matrix(1.2068 0 0 1.2075 -574.0405 96.8257)">
				<stop  offset="0" style="stop-color:#FFFFFF"/>
				<stop  offset="1" style="stop-color:#FFFFFF;stop-opacity:0"/>
			</linearGradient>
			<path id="path13279" class="st20" d="M252.5-226.3c0,2.2-1.8,4-4,4s-4-1.8-4-4s1.8-4,4-4S252.5-228.5,252.5-226.3L252.5-226.3z"
				/>
		</g>
		<g id="g13281" transform="translate(56.98577,3.983930)">
			<path id="path13283" class="st12" d="M245-238.8c-2.3,0-4.1,1.6-4.7,3.6c-0.7-0.4-1.4-0.6-2.3-0.6c-2.8,0-5,2.2-5,5
				c0,0.6,0.2,1.1,0.3,1.6c-1.4,0.8-2.3,2.2-2.3,3.9c0,2.5,2,4.5,4.5,4.5c0.2,0,18.8,0,19,0c2.5,0,4.5-2,4.5-4.5
				c0-1.7-1-3.1-2.3-3.9c0.2-0.5,0.3-1,0.3-1.6c0-2.8-2.2-5-5-5c-0.8,0-1.6,0.3-2.3,0.6C249.1-237.2,247.2-238.8,245-238.8z"/>
			
				<linearGradient id="path13285_1_" gradientUnits="userSpaceOnUse" x1="729.4539" y1="-234.8215" x2="743.4608" y2="-225.7396" gradientTransform="matrix(0.9994 0 0 1 -493.8081 1.0001)">
				<stop  offset="0" style="stop-color:#FFFFFF"/>
				<stop  offset="1" style="stop-color:#FFFFFF;stop-opacity:0"/>
			</linearGradient>
			<path id="path13285" class="st21" d="M245-238.3c-2.2,0-3.7,1.3-4.4,3.8c-0.7-0.3-1.5-0.8-2.4-0.8c-2.7,0-4.8,1.9-4.8,4.5
				c0,0.5,0.3,1.3,0.4,1.8c-1.3,0.7-2.4,1.9-2.4,3.4c0,2.3,1.5,4.3,4.3,4.3c0.2,0,18.2,0,18.3,0c2.8,0,4.3-1.9,4.3-4.3
				c0-1.6-1.1-2.7-2.4-3.4c0.2-0.5,0.5-1.3,0.5-1.8c0-2.6-2.1-4.6-4.8-4.6c-0.8,0-1.6,0.5-2.3,0.8
				C248.8-236.9,247.2-238.3,245-238.3z"/>
			<path id="path13287" class="st7" d="M248.5-233.8c0,1.9-1.6,3.5-3.5,3.5s-3.5-1.6-3.5-3.5s1.6-3.5,3.5-3.5
				S248.5-235.7,248.5-233.8L248.5-233.8z"/>
			
				<linearGradient id="path13289_1_" gradientUnits="userSpaceOnUse" x1="734.8505" y1="-244.9164" x2="737.0095" y2="-241.4856" gradientTransform="matrix(1.056 0 0 1.0566 -532.2574 22.9762)">
				<stop  offset="0" style="stop-color:#FFFFFF"/>
				<stop  offset="1" style="stop-color:#FFFFFF;stop-opacity:0"/>
			</linearGradient>
			<path id="path13289" class="st22" d="M248.5-233.8c0,1.9-1.6,3.5-3.5,3.5s-3.5-1.6-3.5-3.5s1.6-3.5,3.5-3.5
				S248.5-235.7,248.5-233.8L248.5-233.8z"/>
			<rect id="rect13291" x="235.5" y="-231.3" class="st7" width="20" height="9"/>
			<path id="path13293" class="st7" d="M238.5-225.3c0,1.7-1.3,3-3,3s-3-1.3-3-3s1.3-3,3-3S238.5-227,238.5-225.3L238.5-225.3z"/>
			<path id="path13295" class="st7" d="M255.5-230.8c0,1.9-1.6,3.5-3.5,3.5s-3.5-1.6-3.5-3.5s1.6-3.5,3.5-3.5
				S255.5-232.7,255.5-230.8L255.5-230.8z"/>
			
				<linearGradient id="path13297_1_" gradientUnits="userSpaceOnUse" x1="733.8251" y1="-246.4348" x2="737.1672" y2="-241.2887" gradientTransform="matrix(1.056 0 0 1.0566 -525.2574 25.9762)">
				<stop  offset="0" style="stop-color:#FFFFFF"/>
				<stop  offset="1" style="stop-color:#FFFFFF;stop-opacity:0"/>
			</linearGradient>
			<path id="path13297" class="st23" d="M255.5-230.8c0,1.9-1.6,3.5-3.5,3.5s-3.5-1.6-3.5-3.5s1.6-3.5,3.5-3.5
				S255.5-232.7,255.5-230.8L255.5-230.8z"/>
			<path id="path13299" class="st7" d="M241.5-230.8c0,1.9-1.6,3.5-3.5,3.5s-3.5-1.6-3.5-3.5s1.6-3.5,3.5-3.5
				S241.5-232.7,241.5-230.8L241.5-230.8z"/>
			
				<linearGradient id="path13301_1_" gradientUnits="userSpaceOnUse" x1="733.6912" y1="-245.389" x2="737.1417" y2="-241.8929" gradientTransform="matrix(1.056 0 0 1.0566 -539.2574 25.9762)">
				<stop  offset="0" style="stop-color:#FFFFFF"/>
				<stop  offset="1" style="stop-color:#FFFFFF;stop-opacity:0"/>
			</linearGradient>
			<path id="path13301" class="st24" d="M241.5-230.8c0,1.9-1.6,3.5-3.5,3.5s-3.5-1.6-3.5-3.5s1.6-3.5,3.5-3.5
				S241.5-232.7,241.5-230.8L241.5-230.8z"/>
			<path id="path13303" class="st7" d="M243.9-234.3c-3.6,0-6.5,2.9-6.5,6.5c0,2.4,1.3,4.3,3.3,5.5h6.5c1.9-1.1,3.3-3.1,3.3-5.5
				C250.4-231.4,247.5-234.3,243.9-234.3z"/>
			
				<linearGradient id="path13305_1_" gradientUnits="userSpaceOnUse" x1="736.3124" y1="-232.6201" x2="740.3461" y2="-227.4334" gradientTransform="matrix(0.9994 0 0 1 -494.8081 1.0001)">
				<stop  offset="0" style="stop-color:#FFFFFF"/>
				<stop  offset="1" style="stop-color:#FFFFFF;stop-opacity:0"/>
			</linearGradient>
			<path id="path13305" class="st25" d="M244-234.3c-3.6,0-6.5,2.9-6.5,6.5c0,2.4,1.3,4.4,3.3,5.5h6.5c1.9-1.1,3.3-3.1,3.3-5.5
				C250.5-231.4,247.6-234.3,244-234.3z"/>
			
				<linearGradient id="path13307_1_" gradientUnits="userSpaceOnUse" x1="766.7631" y1="-211.8958" x2="769.8629" y2="-209.1193" gradientTransform="matrix(0.9051 0 0 0.9057 -460.2301 -34.8735)">
				<stop  offset="0" style="stop-color:#FFFFFF"/>
				<stop  offset="1" style="stop-color:#FFFFFF;stop-opacity:0"/>
			</linearGradient>
			<path id="path13307" class="st26" d="M238.5-225.3c0,1.7-1.3,3-3,3s-3-1.3-3-3s1.3-3,3-3C237.1-228.3,238.5-227,238.5-225.3
				L238.5-225.3z"/>
			<path id="path13309" class="st19" d="M257.4-230.6c0,2.7-3.3,3.7-3.3,3.7s2.3-1.6,2.3-3.7H257.4z"/>
			<path id="path13311" class="st7" d="M252.5-226.3c0,2.2-1.8,4-4,4s-4-1.8-4-4s1.8-4,4-4S252.5-228.5,252.5-226.3L252.5-226.3z"/>
			
				<linearGradient id="path13313_1_" gradientUnits="userSpaceOnUse" x1="708.1443" y1="-271.2922" x2="712.2417" y2="-266.8904" gradientTransform="matrix(1.2068 0 0 1.2075 -610.2845 96.8259)">
				<stop  offset="0" style="stop-color:#FFFFFF"/>
				<stop  offset="1" style="stop-color:#FFFFFF;stop-opacity:0"/>
			</linearGradient>
			<path id="path13313" class="st27" d="M252.5-226.3c0,2.2-1.8,4-4,4s-4-1.8-4-4s1.8-4,4-4S252.5-228.5,252.5-226.3L252.5-226.3z"
				/>
		</g>
	</g>
</g>
</svg>
