<?xml version="1.0" encoding="utf-8"?>
<!-- Generator: Adobe Illustrator 24.0.1, SVG Export Plug-In . SVG Version: 6.00 Build 0)  -->
<svg version="1.1"
	 id="svg1306" xmlns:cc="http://creativecommons.org/ns#" xmlns:dc="http://purl.org/dc/elements/1.1/" xmlns:inkscape="http://www.inkscape.org/namespaces/inkscape" xmlns:rdf="http://www.w3.org/1999/02/22-rdf-syntax-ns#" xmlns:sodipodi="http://sodipodi.sourceforge.net/DTD/sodipodi-0.dtd" xmlns:svg="http://www.w3.org/2000/svg"
	 xmlns="http://www.w3.org/2000/svg" xmlns:xlink="http://www.w3.org/1999/xlink" x="0px" y="0px" viewBox="0 0 45 45"
	 style="enable-background:new 0 0 45 45;" xml:space="preserve">
<style type="text/css">
	.st0{fill:#FFFFFF;stroke:#729FCF;stroke-miterlimit:10;}
	.st1{fill:#FFFFFF;stroke:#729FCF;stroke-width:0.75;stroke-miterlimit:10;}
	.st2{fill:#FFFFFF;stroke:#729FCF;stroke-width:0.5;stroke-miterlimit:10;}
</style>
<path id="rect2991" class="st0" d="M19.5,3v3.3L17,4.9L15.8,7l3.7,2.1v4.8l-4.2-2.4V7.2h-2.5v2.9L9.9,8.5l-1.2,2.1l2.8,1.6l-2.5,1.4
	l1.2,2.2l3.7-2.1l4.2,2.4l-4.2,2.4l-3.7-2.1l-1.2,2.2l2.5,1.4l-2.8,1.6l1.2,2.2l2.8-1.6V25h2.5v-4.3l4.2-2.4v4.8l-3.7,2.1l1.2,2.2
	l2.5-1.4v3.3H22V26l2.5,1.4l1.2-2.2L22,23.1v-4.8l4.2,2.4V25h2.5v-2.9l2.8,1.6l1.2-2.2L30,19.9l2.5-1.4l-1.2-2.2l-3.7,2.1l-4.3-2.3
	l4.2-2.4l3.7,2.1l1.2-2.2l-2.5-1.4l2.8-1.6l-1.2-2.2l-2.8,1.7V7.3h-2.5v4.3L22,14V9.1L25.8,7l-1.2-2.2L22,6.2V3H19.5z"/>
<path id="rect2991_2_" class="st1" d="M33,24.5v2.2l-1.6-0.9l-0.9,1.3l2.5,1.4v3.2l-2.8-1.6v-2.9h-1.7v1.9l-1.8-1l-0.9,1.5l1.9,1.1
	L26,31.6l0.8,1.4l2.5-1.4l2.8,1.6l-2.8,1.6l-2.5-1.4L26,34.8l1.7,1l-2,1.1l0.8,1.4l1.9-1.1v1.9h1.7v-2.9l2.8-1.6v3.2l-2.5,1.4
	l0.8,1.4l1.6-1v2.2h1.7v-2.2l1.6,0.9l0.8-1.4l-2.5-1.4v-3.2l2.8,1.6V39h1.7v-1.9l1.9,1.1l0.8-1.4l-1.9-1.1l1.6-0.9l-0.6-1.4
	l-2.5,1.4l-2.8-1.6l2.8-1.6l2.5,1.4l0.8-1.4l-1.7-1l1.9-1.1L41,28.1L39,29.2v-1.9h-1.7v2.9l-2.8,1.6v-3.2l2.5-1.4l-0.8-1.4l-1.6,1
	v-2.2H33V24.5z"/>
<path id="rect2991_1_" class="st2" d="M8.6,26.4v1.7l-1.2-0.7l-0.7,1l1.9,1.1V32l-2.1-1.2v-2.2H5.3v1.5l-1.4-0.8l-0.6,1.1l1.3,0.7
	l-1.2,0.7L4,32.9l1.9-1.1l2,1.3l-2.1,1.2l-1.9-1.1l-0.6,1.1l1.3,0.8l-1.4,0.8L3.8,37l1.4-0.8v1.5h1.2v-2.2l2.1-1.2v2.5l-1.8,1
	l0.6,1.1l1.3-0.8v1.7h1.2v-1.7l1.2,0.7l0.6-1.1l-1.9-1.1v-2.5l2.1,1.2v2.2h1.2V36l1.4,0.8l0.6-1.1l-1.2-0.6l1.2-0.7l-0.6-1.1
	l-1.9,1.1l-2.1-1.3l2.1-1.2l1.9,1.1l0.6-1.1l-1.2-0.8l1.4-0.8l-0.6-1.1L13.3,30v-1.5h-1.2v2.2L10,31.9v-2.5l1.9-1.1l-0.6-1.1
	l-1.4,0.9v-1.7H8.6z"/>
</svg>
