<?xml version="1.0" encoding="utf-8"?>
<!-- Generator: Adobe Illustrator 24.0.1, SVG Export Plug-In . SVG Version: 6.00 Build 0)  -->
<svg version="1.1"
	 id="svg1306" xmlns:cc="http://creativecommons.org/ns#" xmlns:dc="http://purl.org/dc/elements/1.1/" xmlns:inkscape="http://www.inkscape.org/namespaces/inkscape" xmlns:rdf="http://www.w3.org/1999/02/22-rdf-syntax-ns#" xmlns:sodipodi="http://sodipodi.sourceforge.net/DTD/sodipodi-0.dtd" xmlns:svg="http://www.w3.org/2000/svg"
	 xmlns="http://www.w3.org/2000/svg" xmlns:xlink="http://www.w3.org/1999/xlink" x="0px" y="0px" viewBox="0 0 45 45"
	 style="enable-background:new 0 0 45 45;" xml:space="preserve">
<style type="text/css">
	.st0{fill:#555753;}
	.st1{fill:url(#path8889_1_);}
	.st2{fill:#888A85;}
	.st3{opacity:0.4944;fill:url(#path8897_1_);enable-background:new    ;}
	.st4{opacity:0.4944;fill:url(#path8903_1_);enable-background:new    ;}
	.st5{opacity:0.4944;fill:url(#path8909_1_);enable-background:new    ;}
	.st6{opacity:0.4944;fill:url(#path8915_1_);enable-background:new    ;}
	.st7{fill:#888A85;stroke:#555753;stroke-width:0.9992;stroke-miterlimit:1.9981;}
	.st8{fill:url(#path12582_1_);}
	.st9{opacity:0.4778;fill:url(#path12586_1_);enable-background:new    ;}
	.st10{opacity:0.4778;fill:url(#path12595_1_);enable-background:new    ;}
	.st11{opacity:0.4778;fill:url(#path12599_1_);enable-background:new    ;}
	.st12{opacity:0.4778;fill:url(#path12603_1_);enable-background:new    ;}
	.st13{opacity:0.4778;fill:url(#path12605_1_);enable-background:new    ;}
	.st14{fill-rule:evenodd;clip-rule:evenodd;fill:#555753;}
	.st15{opacity:0.4778;fill:url(#path12611_1_);enable-background:new    ;}
	.st16{fill:url(#path12331_1_);}
	.st17{opacity:0.4778;fill:url(#path12335_1_);enable-background:new    ;}
	.st18{opacity:0.4778;fill:url(#path12343_1_);enable-background:new    ;}
	.st19{opacity:0.4778;fill:url(#path12349_1_);enable-background:new    ;}
	.st20{opacity:0.4778;fill:url(#path12353_1_);enable-background:new    ;}
	.st21{opacity:0.4778;fill:url(#path12355_1_);enable-background:new    ;}
	.st22{opacity:0.4778;fill:url(#path12361_1_);enable-background:new    ;}
	.st23{fill:#729FCF;stroke:#204A87;stroke-width:1.0746;stroke-miterlimit:2;}
	.st24{opacity:0.4611;fill:url(#path12195_1_);enable-background:new    ;}
	.st25{fill:url(#path12197_1_);}
	.st26{opacity:0.4611;fill:url(#path12243_1_);enable-background:new    ;}
	.st27{fill:url(#path12245_1_);}
</style>
<g id="layer1_34_">
	<g id="g12627_6_" transform="matrix(0.999675,0.000000,0.000000,1.000000,-286.8482,245.0001)">
		<g id="g12533_6_">
			<path id="path8887_6_" class="st0" d="M310-241.7c-2.8,0-5.1,1.6-6.4,3.8c-0.9-0.5-2-0.8-3.1-0.8c-3.9,0-7,3.1-7,7s3.1,7,7,7
				c2.4,0,4.4-1.3,5.7-3.2c1.1,0.7,2.4,1.2,3.8,1.2c0.9,0,1.8-0.2,2.6-0.5c0.5,0.9,1.2,1.6,2,2.2c0,0.1-0.1,0.2-0.1,0.4
				c0,3.9,3.1,7,7,7s7-3.1,7-7c0-2.4-1.3-4.4-3.1-5.6c0-0.1,0.1-0.2,0.1-0.4c0-3.9-3.1-7-7-7c-0.6,0-1.2,0.2-1.8,0.4
				C315.6-239.9,313-241.7,310-241.7z"/>
			
				<linearGradient id="path8889_1_" gradientUnits="userSpaceOnUse" x1="1088.4622" y1="-14.0214" x2="1126.3235" y2="-27.0587" gradientTransform="matrix(0.9991 0 0 -1 -791.4814 -250.0001)">
				<stop  offset="0" style="stop-color:#FFFFFF"/>
				<stop  offset="1" style="stop-color:#FFFFFF;stop-opacity:0"/>
			</linearGradient>
			<path id="path8889_6_" class="st1" d="M310-240.7c-2.8,0-5.1,1.8-6.1,4.2c-1-0.7-2.1-1.2-3.4-1.2c-3.3,0-6,2.7-6,6s2.7,6,6,6
				c2.4,0,4.5-1.5,5.4-3.5c1.1,0.9,2.5,1.5,4.1,1.5c1.1,0,2-0.3,2.9-0.8c0.4,1,1.1,1.8,1.9,2.4c-0.2,0.6-0.4,1.2-0.4,1.8
				c0,3.6,2.9,6.5,6.5,6.5s6.5-2.9,6.5-6.5c0-2.4-1.3-4.3-3.2-5.5c0.1-0.3,0.2-0.7,0.2-1c0-3.3-2.7-6-6-6c-0.9,0-1.7,0.2-2.4,0.5
				C315.2-238.8,312.9-240.7,310-240.7z"/>
			<path id="path8891_6_" class="st2" d="M327.5-224.2c0,3.6-2.9,6.5-6.5,6.5s-6.5-2.9-6.5-6.5l0,0c0-3.6,2.9-6.5,6.5-6.5
				S327.5-227.8,327.5-224.2L327.5-224.2z"/>
			<g id="g12520_6_">
				<path id="path8895_6_" class="st2" d="M315.5-234.2c0,3-2.5,5.5-5.5,5.5s-5.5-2.5-5.5-5.5s2.5-5.5,5.5-5.5
					S315.5-237.2,315.5-234.2z"/>
				
					<linearGradient id="path8897_1_" gradientUnits="userSpaceOnUse" x1="1140.9181" y1="-54.8406" x2="1146.6714" y2="-59.6975" gradientTransform="matrix(0.8817 0 0 -0.8826 -699.7896 -285.8582)">
					<stop  offset="0" style="stop-color:#FFFFFF"/>
					<stop  offset="1" style="stop-color:#FFFFFF;stop-opacity:0"/>
				</linearGradient>
				<path id="path8897_6_" class="st3" d="M315.5-234.2c0,3-2.5,5.5-5.5,5.5s-5.5-2.5-5.5-5.5s2.5-5.5,5.5-5.5
					S315.5-237.2,315.5-234.2z"/>
			</g>
			<g id="g12516_6_">
				<path id="path8901_6_" class="st2" d="M323.5-230.2c0,3-2.5,5.5-5.5,5.5s-5.5-2.5-5.5-5.5l0,0c0-3,2.5-5.5,5.5-5.5
					S323.5-233.2,323.5-230.2z"/>
				
					<linearGradient id="path8903_1_" gradientUnits="userSpaceOnUse" x1="1136.2701" y1="-45.6846" x2="1142.2275" y2="-51.6468" gradientTransform="matrix(0.9108 0 0 -0.9117 -721.5077 -276.4689)">
					<stop  offset="0" style="stop-color:#FFFFFF"/>
					<stop  offset="1" style="stop-color:#FFFFFF;stop-opacity:0"/>
				</linearGradient>
				<path id="path8903_6_" class="st4" d="M323.5-230.2c0,3-2.5,5.5-5.5,5.5s-5.5-2.5-5.5-5.5l0,0c0-3,2.5-5.5,5.5-5.5
					S323.5-233.2,323.5-230.2z"/>
			</g>
			<g id="g12524_6_">
				<path id="path8907_6_" class="st2" d="M305.5-231.7c0,2.8-2.2,5-5,5s-5-2.2-5-5s2.2-5,5-5S305.5-234.5,305.5-231.7L305.5-231.7z
					"/>
				
					<linearGradient id="path8909_1_" gradientUnits="userSpaceOnUse" x1="1051.9253" y1="22.8995" x2="1056.3058" y2="19.419" gradientTransform="matrix(1.1416 0 0 -1.1428 -903.6692 -208.1462)">
					<stop  offset="0" style="stop-color:#FFFFFF"/>
					<stop  offset="1" style="stop-color:#FFFFFF;stop-opacity:0"/>
				</linearGradient>
				<path id="path8909_6_" class="st5" d="M305.5-231.7c0,2.8-2.2,5-5,5s-5-2.2-5-5s2.2-5,5-5S305.5-234.5,305.5-231.7L305.5-231.7z
					"/>
			</g>
			<g id="g12529_6_">
				<path id="path8913_6_" class="st2" d="M316.5-227.7c0,3.9-3.1,7-7,7s-7-3.1-7-7l0,0c0-3.9,3.1-7,7-7S316.5-231.6,316.5-227.7
					L316.5-227.7z"/>
				
					<linearGradient id="path8915_1_" gradientUnits="userSpaceOnUse" x1="1085.5558" y1="-7.3893" x2="1093.2056" y2="-13.2187" gradientTransform="matrix(1.0377 0 0 -1.0386 -821.8514 -239.1419)">
					<stop  offset="0" style="stop-color:#FFFFFF"/>
					<stop  offset="1" style="stop-color:#FFFFFF;stop-opacity:0"/>
				</linearGradient>
				<path id="path8915_6_" class="st6" d="M316.5-227.7c0,3.9-3.1,7-7,7s-7-3.1-7-7l0,0c0-3.9,3.1-7,7-7S316.5-231.6,316.5-227.7
					L316.5-227.7z"/>
			</g>
		</g>
		<g id="g12578_6_" transform="translate(72.00007,7.999930)">
			<path id="path12580_6_" class="st7" d="M245-237.2c-2.3,0-4.1,1.6-4.7,3.6c-0.7-0.4-1.4-0.6-2.3-0.6c-2.8,0-5,2.2-5,5
				c0,0.6,0.2,1.1,0.3,1.6c-1.4,0.8-2.3,2.2-2.3,3.9c0,2.5,2,4.5,4.5,4.5c0.2,0,18.8,0,19,0c2.5,0,4.5-2,4.5-4.5
				c0-1.7-1-3.1-2.3-3.9c0.2-0.5,0.3-1,0.3-1.6c0-2.8-2.2-5-5-5c-0.8,0-1.6,0.3-2.3,0.6C249.1-235.6,247.3-237.2,245-237.2z"/>
			
				<linearGradient id="path12582_1_" gradientUnits="userSpaceOnUse" x1="914.6539" y1="26.2883" x2="928.6608" y2="17.2064" gradientTransform="matrix(0.9991 0 0 -1 -678.6163 -205.9999)">
				<stop  offset="0" style="stop-color:#FFFFFF"/>
				<stop  offset="1" style="stop-color:#FFFFFF;stop-opacity:0"/>
			</linearGradient>
			<path id="path12582_6_" class="st8" d="M245-236.7c-2.2,0-3.7,1.3-4.4,3.8c-0.7-0.3-1.5-0.8-2.4-0.8c-2.7,0-4.8,1.9-4.8,4.5
				c0,0.5,0.3,1.3,0.4,1.8c-1.3,0.7-2.4,1.9-2.4,3.4c0,2.3,1.5,4.3,4.3,4.3c0.2,0,18.2,0,18.3,0c2.8,0,4.3-1.9,4.3-4.3
				c0-1.6-1.1-2.7-2.4-3.4c0.2-0.5,0.5-1.3,0.5-1.8c0-2.6-2.1-4.6-4.8-4.6c-0.8,0-1.6,0.5-2.3,0.8
				C248.8-235.3,247.2-236.7,245-236.7z"/>
			<path id="path12584_6_" class="st2" d="M248.5-232.2c0,1.9-1.6,3.5-3.5,3.5s-3.5-1.6-3.5-3.5s1.6-3.5,3.5-3.5
				S248.5-234.1,248.5-232.2L248.5-232.2z"/>
			
				<linearGradient id="path12586_1_" gradientUnits="userSpaceOnUse" x1="914.5157" y1="41.9765" x2="916.6746" y2="38.5457" gradientTransform="matrix(1.0557 0 0 -1.0566 -721.6974 -189.9102)">
				<stop  offset="0" style="stop-color:#FFFFFF"/>
				<stop  offset="1" style="stop-color:#FFFFFF;stop-opacity:0"/>
			</linearGradient>
			<path id="path12586_6_" class="st9" d="M248.5-232.2c0,1.9-1.6,3.5-3.5,3.5s-3.5-1.6-3.5-3.5s1.6-3.5,3.5-3.5
				S248.5-234.1,248.5-232.2L248.5-232.2z"/>
			<rect id="rect12588_6_" x="235.5" y="-229.7" class="st2" width="20" height="9"/>
			<path id="path12591_6_" class="st2" d="M238.5-223.7c0,1.7-1.3,3-3,3s-3-1.3-3-3s1.3-3,3-3S238.5-225.4,238.5-223.7L238.5-223.7z
				"/>
			<path id="path12593_6_" class="st2" d="M255.5-229.2c0,1.9-1.6,3.5-3.5,3.5s-3.5-1.6-3.5-3.5s1.6-3.5,3.5-3.5
				S255.5-231.1,255.5-229.2L255.5-229.2z"/>
			
				<linearGradient id="path12595_1_" gradientUnits="userSpaceOnUse" x1="913.4904" y1="43.4949" x2="916.8325" y2="38.3487" gradientTransform="matrix(1.0557 0 0 -1.0566 -714.6974 -186.9102)">
				<stop  offset="0" style="stop-color:#FFFFFF"/>
				<stop  offset="1" style="stop-color:#FFFFFF;stop-opacity:0"/>
			</linearGradient>
			<path id="path12595_6_" class="st10" d="M255.5-229.2c0,1.9-1.6,3.5-3.5,3.5s-3.5-1.6-3.5-3.5s1.6-3.5,3.5-3.5
				S255.5-231.1,255.5-229.2L255.5-229.2z"/>
			<path id="path12597_6_" class="st2" d="M241.5-229.2c0,1.9-1.6,3.5-3.5,3.5s-3.5-1.6-3.5-3.5s1.6-3.5,3.5-3.5
				S241.5-231.1,241.5-229.2L241.5-229.2z"/>
			
				<linearGradient id="path12599_1_" gradientUnits="userSpaceOnUse" x1="913.3591" y1="42.4486" x2="916.8094" y2="38.9525" gradientTransform="matrix(1.0557 0 0 -1.0566 -728.6974 -186.9102)">
				<stop  offset="0" style="stop-color:#FFFFFF"/>
				<stop  offset="1" style="stop-color:#FFFFFF;stop-opacity:0"/>
			</linearGradient>
			<path id="path12599_6_" class="st11" d="M241.5-229.2c0,1.9-1.6,3.5-3.5,3.5s-3.5-1.6-3.5-3.5s1.6-3.5,3.5-3.5
				S241.5-231.1,241.5-229.2L241.5-229.2z"/>
			<path id="path12601_6_" class="st2" d="M244-232.7c-3.6,0-6.5,2.9-6.5,6.5c0,2.4,1.3,4.3,3.3,5.5h6.5c1.9-1.1,3.3-3.1,3.3-5.5
				C250.5-229.8,247.5-232.7,244-232.7z"/>
			
				<linearGradient id="path12603_1_" gradientUnits="userSpaceOnUse" x1="921.514" y1="24.0862" x2="925.5475" y2="18.8995" gradientTransform="matrix(0.9991 0 0 -1 -679.6163 -205.9999)">
				<stop  offset="0" style="stop-color:#FFFFFF"/>
				<stop  offset="1" style="stop-color:#FFFFFF;stop-opacity:0"/>
			</linearGradient>
			<path id="path12603_6_" class="st12" d="M244-232.7c-3.6,0-6.5,2.9-6.5,6.5c0,2.4,1.3,4.4,3.3,5.5h6.5c1.9-1.1,3.3-3.1,3.3-5.5
				C250.5-229.8,247.6-232.7,244-232.7z"/>
			
				<linearGradient id="path12605_1_" gradientUnits="userSpaceOnUse" x1="962.7382" y1="-7.4993" x2="965.838" y2="-10.2758" gradientTransform="matrix(0.9048 0 0 -0.9057 -637.3217 -232.0661)">
				<stop  offset="0" style="stop-color:#FFFFFF"/>
				<stop  offset="1" style="stop-color:#FFFFFF;stop-opacity:0"/>
			</linearGradient>
			<path id="path12605_6_" class="st13" d="M238.5-223.7c0,1.7-1.3,3-3,3s-3-1.3-3-3s1.3-3,3-3S238.5-225.4,238.5-223.7L238.5-223.7
				z"/>
			<path id="path12607_6_" class="st14" d="M257.5-229c0,2.7-3.3,3.7-3.3,3.7s2.3-1.6,2.3-3.7H257.5z"/>
			<path id="path12609_6_" class="st2" d="M252.5-224.7c0,2.2-1.8,4-4,4c-2.2,0-4-1.8-4-4s1.8-4,4-4
				C250.7-228.7,252.5-226.9,252.5-224.7L252.5-224.7z"/>
			
				<linearGradient id="path12611_1_" gradientUnits="userSpaceOnUse" x1="875.6262" y1="80.7313" x2="879.7236" y2="76.3294" gradientTransform="matrix(1.2064 0 0 -1.2075 -812.062 -131.7543)">
				<stop  offset="0" style="stop-color:#FFFFFF"/>
				<stop  offset="1" style="stop-color:#FFFFFF;stop-opacity:0"/>
			</linearGradient>
			<path id="path12611_6_" class="st15" d="M252.5-224.7c0,2.2-1.8,4-4,4c-2.2,0-4-1.8-4-4s1.8-4,4-4
				C250.7-228.7,252.5-226.9,252.5-224.7L252.5-224.7z"/>
		</g>
		<g id="g12393_6_" transform="translate(56.98577,3.983930)">
			<path id="path12329_6_" class="st7" d="M245-237.2c-2.3,0-4.1,1.6-4.7,3.6c-0.7-0.4-1.4-0.6-2.3-0.6c-2.8,0-5,2.2-5,5
				c0,0.6,0.2,1.1,0.3,1.6c-1.4,0.8-2.3,2.2-2.3,3.9c0,2.5,2,4.5,4.5,4.5c0.2,0,18.8,0,19,0c2.5,0,4.5-2,4.5-4.5
				c0-1.7-1-3.1-2.3-3.9c0.2-0.5,0.3-1,0.3-1.6c0-2.8-2.2-5-5-5c-0.8,0-1.6,0.3-2.3,0.6C249.1-235.6,247.3-237.2,245-237.2z"/>
			
				<linearGradient id="path12331_1_" gradientUnits="userSpaceOnUse" x1="959.7111" y1="30.3038" x2="973.718" y2="21.2219" gradientTransform="matrix(0.9991 0 0 -1 -723.631 -201.9839)">
				<stop  offset="0" style="stop-color:#FFFFFF"/>
				<stop  offset="1" style="stop-color:#FFFFFF;stop-opacity:0"/>
			</linearGradient>
			<path id="path12331_6_" class="st16" d="M245-236.7c-2.2,0-3.7,1.3-4.4,3.8c-0.7-0.3-1.5-0.8-2.4-0.8c-2.7,0-4.8,1.9-4.8,4.5
				c0,0.5,0.3,1.3,0.4,1.8c-1.3,0.7-2.4,1.9-2.4,3.4c0,2.3,1.5,4.3,4.3,4.3c0.2,0,18.2,0,18.3,0c2.8,0,4.3-1.9,4.3-4.3
				c0-1.6-1.1-2.7-2.4-3.4c0.2-0.5,0.5-1.3,0.5-1.8c0-2.6-2.1-4.6-4.8-4.6c-0.8,0-1.6,0.5-2.3,0.8
				C248.8-235.3,247.2-236.7,245-236.7z"/>
			<path id="path12333_6_" class="st2" d="M248.5-232.2c0,1.9-1.6,3.5-3.5,3.5s-3.5-1.6-3.5-3.5s1.6-3.5,3.5-3.5
				S248.5-234.1,248.5-232.2L248.5-232.2z"/>
			
				<linearGradient id="path12335_1_" gradientUnits="userSpaceOnUse" x1="959.5719" y1="45.9916" x2="961.731" y2="42.5608" gradientTransform="matrix(1.0557 0 0 -1.0566 -769.2608 -185.6669)">
				<stop  offset="0" style="stop-color:#FFFFFF"/>
				<stop  offset="1" style="stop-color:#FFFFFF;stop-opacity:0"/>
			</linearGradient>
			<path id="path12335_6_" class="st17" d="M248.5-232.2c0,1.9-1.6,3.5-3.5,3.5s-3.5-1.6-3.5-3.5s1.6-3.5,3.5-3.5
				S248.5-234.1,248.5-232.2L248.5-232.2z"/>
			<rect id="rect12337_6_" x="235.5" y="-229.7" class="st2" width="20" height="9"/>
			<path id="path12339_6_" class="st2" d="M238.5-223.7c0,1.7-1.3,3-3,3s-3-1.3-3-3s1.3-3,3-3S238.5-225.4,238.5-223.7L238.5-223.7z
				"/>
			<path id="path12341_6_" class="st2" d="M255.5-229.2c0,1.9-1.6,3.5-3.5,3.5s-3.5-1.6-3.5-3.5s1.6-3.5,3.5-3.5
				S255.5-231.1,255.5-229.2L255.5-229.2z"/>
			
				<linearGradient id="path12343_1_" gradientUnits="userSpaceOnUse" x1="958.5467" y1="47.5101" x2="961.8887" y2="42.3639" gradientTransform="matrix(1.0557 0 0 -1.0566 -762.2608 -182.6669)">
				<stop  offset="0" style="stop-color:#FFFFFF"/>
				<stop  offset="1" style="stop-color:#FFFFFF;stop-opacity:0"/>
			</linearGradient>
			<path id="path12343_6_" class="st18" d="M255.5-229.2c0,1.9-1.6,3.5-3.5,3.5s-3.5-1.6-3.5-3.5s1.6-3.5,3.5-3.5
				S255.5-231.1,255.5-229.2L255.5-229.2z"/>
			<path id="path12347_6_" class="st2" d="M241.5-229.2c0,1.9-1.6,3.5-3.5,3.5s-3.5-1.6-3.5-3.5s1.6-3.5,3.5-3.5
				S241.5-231.1,241.5-229.2L241.5-229.2z"/>
			
				<linearGradient id="path12349_1_" gradientUnits="userSpaceOnUse" x1="958.4157" y1="46.4637" x2="961.866" y2="42.9676" gradientTransform="matrix(1.0557 0 0 -1.0566 -776.2608 -182.6669)">
				<stop  offset="0" style="stop-color:#FFFFFF"/>
				<stop  offset="1" style="stop-color:#FFFFFF;stop-opacity:0"/>
			</linearGradient>
			<path id="path12349_6_" class="st19" d="M241.5-229.2c0,1.9-1.6,3.5-3.5,3.5s-3.5-1.6-3.5-3.5s1.6-3.5,3.5-3.5
				S241.5-231.1,241.5-229.2L241.5-229.2z"/>
			<path id="path12351_6_" class="st2" d="M244-232.7c-3.6,0-6.5,2.9-6.5,6.5c0,2.4,1.3,4.3,3.3,5.5h6.5c1.9-1.1,3.3-3.1,3.3-5.5
				C250.5-229.8,247.5-232.7,244-232.7z"/>
			
				<linearGradient id="path12353_1_" gradientUnits="userSpaceOnUse" x1="966.5707" y1="28.1016" x2="970.6042" y2="22.9149" gradientTransform="matrix(0.9991 0 0 -1 -724.631 -201.9839)">
				<stop  offset="0" style="stop-color:#FFFFFF"/>
				<stop  offset="1" style="stop-color:#FFFFFF;stop-opacity:0"/>
			</linearGradient>
			<path id="path12353_6_" class="st20" d="M244-232.7c-3.6,0-6.5,2.9-6.5,6.5c0,2.4,1.3,4.4,3.3,5.5h6.5c1.9-1.1,3.3-3.1,3.3-5.5
				C250.5-229.8,247.6-232.7,244-232.7z"/>
			
				<linearGradient id="path12355_1_" gradientUnits="userSpaceOnUse" x1="1007.7957" y1="-3.4836" x2="1010.8953" y2="-6.2601" gradientTransform="matrix(0.9048 0 0 -0.9057 -678.0897 -228.429)">
				<stop  offset="0" style="stop-color:#FFFFFF"/>
				<stop  offset="1" style="stop-color:#FFFFFF;stop-opacity:0"/>
			</linearGradient>
			<path id="path12355_6_" class="st21" d="M238.5-223.7c0,1.7-1.3,3-3,3s-3-1.3-3-3s1.3-3,3-3S238.5-225.4,238.5-223.7L238.5-223.7
				z"/>
			<path id="path12357_6_" class="st14" d="M257.5-229c0,2.7-3.3,3.7-3.3,3.7s2.3-1.6,2.3-3.7H257.5z"/>
			<path id="path12359_6_" class="st2" d="M252.5-224.7c0,2.2-1.8,4-4,4s-4-1.8-4-4s1.8-4,4-4S252.5-226.9,252.5-224.7L252.5-224.7z
				"/>
			
				<linearGradient id="path12361_1_" gradientUnits="userSpaceOnUse" x1="920.6837" y1="84.7473" x2="924.7811" y2="80.3454" gradientTransform="matrix(1.2064 0 0 -1.2075 -866.4194 -126.9048)">
				<stop  offset="0" style="stop-color:#FFFFFF"/>
				<stop  offset="1" style="stop-color:#FFFFFF;stop-opacity:0"/>
			</linearGradient>
			<path id="path12361_6_" class="st22" d="M252.5-224.7c0,2.2-1.8,4-4,4s-4-1.8-4-4s1.8-4,4-4S252.5-226.9,252.5-224.7L252.5-224.7
				z"/>
		</g>
	</g>
	<g id="g12191_9_" transform="translate(-222.9549,261.0144)">
		<path id="path12193_9_" class="st23" d="M235.1-225.5c-1-0.6-1.4-1.9-0.8-2.9c1.3-2.1,3.1-1.5,4-3.7
			C239.6-230.8,239.1-223.9,235.1-225.5z"/>
		
			<radialGradient id="path12195_1_" cx="5608.96" cy="-613.8204" r="21.7436" gradientTransform="matrix(7.065158e-02 4.154803e-02 6.201499e-02 -0.1094 -121.9855 -527.7231)" gradientUnits="userSpaceOnUse">
			<stop  offset="0" style="stop-color:#FFFFFF"/>
			<stop  offset="1" style="stop-color:#FFFFFF;stop-opacity:0"/>
		</radialGradient>
		<path id="path12195_9_" class="st24" d="M237.8-226.6c-0.5,0.9-1.6,1.2-2.4,0.7c-0.8-0.5-1.1-1.6-0.6-2.5s2.6-0.5,3.3-2.3
			C238.9-230.2,238.3-227.5,237.8-226.6z"/>
		
			<linearGradient id="path12197_1_" gradientUnits="userSpaceOnUse" x1="1189.007" y1="4114.7617" x2="1209.5131" y2="4136.2402" gradientTransform="matrix(-5.358613e-02 0.1028 9.281434e-02 5.937964e-02 -82.7074 -596.951)">
			<stop  offset="0" style="stop-color:#FFFFFF"/>
			<stop  offset="1" style="stop-color:#FFFFFF;stop-opacity:0"/>
		</linearGradient>
		<path id="path12197_9_" class="st25" d="M236.5-225.7c-4.6-1.1,0.2-4.7,1-3.9C233.9-228.3,236.5-225.7,236.5-225.7z"/>
	</g>
	<g id="g12239_23_" transform="translate(-193.9565,268.0066)">
		<path id="path12241_23_" class="st23" d="M221.1-227.5c-1-0.6-1.4-1.9-0.8-2.9c1.3-2.1,3.1-1.5,4-3.7
			C225.6-232.8,225.1-225.9,221.1-227.5z"/>
		
			<radialGradient id="path12243_1_" cx="5361.314" cy="-663.5402" r="21.7436" gradientTransform="matrix(7.065158e-02 4.154803e-02 6.201499e-02 -0.1094 -115.4056 -524.8738)" gradientUnits="userSpaceOnUse">
			<stop  offset="0" style="stop-color:#FFFFFF"/>
			<stop  offset="1" style="stop-color:#FFFFFF;stop-opacity:0"/>
		</radialGradient>
		<path id="path12243_9_" class="st26" d="M223.8-228.6c-0.5,0.9-1.6,1.2-2.4,0.7c-0.8-0.5-1.1-1.6-0.6-2.5s2.6-0.5,3.3-2.3
			C224.9-232.2,224.3-229.5,223.8-228.6z"/>
		
			<linearGradient id="path12245_1_" gradientUnits="userSpaceOnUse" x1="1152.7441" y1="3986.2183" x2="1173.2502" y2="4007.6965" gradientTransform="matrix(-5.358613e-02 0.1028 9.281434e-02 5.937964e-02 -86.7202 -587.5913)">
			<stop  offset="0" style="stop-color:#FFFFFF"/>
			<stop  offset="1" style="stop-color:#FFFFFF;stop-opacity:0"/>
		</linearGradient>
		<path id="path12245_9_" class="st27" d="M222.5-227.7c-4.6-1.1,0.2-4.7,1-3.9C219.9-230.3,222.5-227.7,222.5-227.7z"/>
	</g>
</g>
</svg>
