<?xml version="1.0" encoding="utf-8"?>
<!-- Generator: Adobe Illustrator 24.0.1, SVG Export Plug-In . SVG Version: 6.00 Build 0)  -->
<svg version="1.1"
	 id="svg1306" xmlns:cc="http://creativecommons.org/ns#" xmlns:dc="http://purl.org/dc/elements/1.1/" xmlns:inkscape="http://www.inkscape.org/namespaces/inkscape" xmlns:rdf="http://www.w3.org/1999/02/22-rdf-syntax-ns#" xmlns:sodipodi="http://sodipodi.sourceforge.net/DTD/sodipodi-0.dtd" xmlns:svg="http://www.w3.org/2000/svg"
	 xmlns="http://www.w3.org/2000/svg" xmlns:xlink="http://www.w3.org/1999/xlink" x="0px" y="0px" viewBox="0 0 45 45"
	 style="enable-background:new 0 0 45 45;" xml:space="preserve">
<style type="text/css">
	.st0{opacity:0.7;}
	.st1{fill:#FCE94F;stroke:#FCAF3E;stroke-width:0.7373;stroke-linecap:square;}
	.st2{fill:none;stroke:url(#path7494_1_);stroke-width:0.8465;stroke-linecap:square;}
	.st3{fill:#FFEE54;stroke:#FCAF3E;stroke-linecap:square;stroke-miterlimit:5.2638;}
	.st4{fill:url(#path7500_1_);}
	.st5{fill:none;stroke:url(#path7502_1_);stroke-linecap:square;stroke-miterlimit:4.8425;}
	.st6{fill:#C4C5C2;stroke:#888A85;stroke-miterlimit:2;}
	.st7{fill:url(#path6672_2_);}
	.st8{fill:#C4C5C2;}
	.st9{fill:url(#path6678_2_);}
	.st10{fill:url(#path6688_2_);}
	.st11{fill:url(#path6694_2_);}
	.st12{fill:url(#path6700_2_);}
	.st13{fill:url(#path6702_2_);}
	.st14{fill-rule:evenodd;clip-rule:evenodd;fill:#888A85;}
	.st15{fill:url(#path6710_2_);}
</style>
<g id="layer1_10_">
	<g id="g3936_2_">
		<g id="g4091_2_" class="st0">
			<path id="path7492_2_" class="st1" d="M22.5,1.5L20.2,8c0.8-0.1,1.6-0.2,2.3-0.2s1.6,0.1,2.3,0.2L22.5,1.5z M7.7,7.7l2.9,6.3
				c0.9-1.3,2.1-2.3,3.3-3.3L7.7,7.7z M37.3,7.7l-6.3,3c1.3,0.9,2.3,2.1,3.3,3.3L37.3,7.7z M8,20.2l-6.5,2.3L8,24.8
				c-0.1-0.8-0.2-1.6-0.2-2.3S7.9,20.9,8,20.2z M37,20.2c0.1,0.8,0.2,1.6,0.2,2.3s-0.1,1.6-0.2,2.3l6.5-2.3L37,20.2z M10.6,31.1
				l-2.9,6.3l6.3-2.9C12.6,33.4,11.6,32.4,10.6,31.1z M34.4,31.1c-0.9,1.3-2.1,2.3-3.2,3.2l6.3,3L34.4,31.1z M20.2,37l2.3,6.5
				l2.3-6.5c-0.8,0.1-1.6,0.2-2.3,0.2S20.9,37.1,20.2,37z"/>
			
				<radialGradient id="path7494_1_" cx="21.1605" cy="226.3719" r="18.7043" gradientTransform="matrix(1.0067 0 0 1.0075 1.2195 -205.5697)" gradientUnits="userSpaceOnUse">
				<stop  offset="0" style="stop-color:#FFFFFF;stop-opacity:0"/>
				<stop  offset="0.75" style="stop-color:#FFFFFF;stop-opacity:0"/>
				<stop  offset="1" style="stop-color:#FFFFFF"/>
			</radialGradient>
			<path id="path7494_2_" class="st2" d="M22.5,4.2l-1.3,3.7c0.4-0.1,0.8-0.1,1.3-0.1s0.9,0,1.3,0.1L22.5,4.2z M9.6,9.6l1.7,3.5
				c0.6-0.7,1.2-1.3,1.9-1.9L9.6,9.6z M35.5,9.6L32,11.3c0.7,0.6,1.3,1.2,1.9,1.9L35.5,9.6z M7.9,21.1l-3.7,1.4l3.7,1.3
				c-0.1-0.4-0.1-0.9-0.1-1.3C7.8,22,7.8,21.6,7.9,21.1z M37.1,21.2c0,0.4,0.1,0.9,0.1,1.3s0,0.9-0.1,1.3l3.7-1.3L37.1,21.2z
				 M33.7,31.9c-0.6,0.7-1.2,1.4-1.9,1.9l3.5,1.7L33.7,31.9z M11.3,31.9l-1.7,3.5l3.5-1.7C12.4,33.1,11.9,32.6,11.3,31.9z
				 M21.2,37.1l1.3,3.7l1.3-3.7c-0.4,0.1-0.8,0.1-1.3,0.1S21.6,37.2,21.2,37.1z"/>
		</g>
		<g id="g4046_2_">
			<g id="g3931_2_">
				<path id="path7498_2_" class="st3" d="M29.7,12.6c5.5,4,6.6,11.6,2.6,17.1s-11.6,6.6-17.1,2.6s-6.6-11.6-2.6-17.1
					S24.3,8.6,29.7,12.6z"/>
				
					<radialGradient id="path7500_1_" cx="-80.0567" cy="-72.0609" r="9.2791" gradientTransform="matrix(0.8869 1.5361 -1.2643 0.8074 -0.6383 198.5458)" gradientUnits="userSpaceOnUse">
					<stop  offset="0" style="stop-color:#FFF7C2;stop-opacity:0.6383"/>
					<stop  offset="0.5939" style="stop-color:#FCAF3E;stop-opacity:0.1835"/>
					<stop  offset="0.8385" style="stop-color:#FCAF3E;stop-opacity:0.5046"/>
					<stop  offset="1" style="stop-color:#FCAF3E"/>
				</radialGradient>
				<path id="path7500_2_" class="st4" d="M34,20.9c1.2,6.4-3.1,12.3-9.5,13.2S12.1,30.5,11,24.1s3.1-12.3,9.6-13.2S33,14.5,34,20.9
					z"/>
				
					<linearGradient id="path7502_1_" gradientUnits="userSpaceOnUse" x1="-270.5958" y1="211.3669" x2="-278.642" y2="226.7864" gradientTransform="matrix(0.7158 -0.9763 0.9764 0.7158 5.4467 -401.8545)">
					<stop  offset="0" style="stop-color:#FFF9C6"/>
					<stop  offset="0.5417" style="stop-color:#FFF28C"/>
					<stop  offset="1" style="stop-color:#FFEA85"/>
				</linearGradient>
				<path id="path7502_2_" class="st5" d="M29.1,13.4c5,3.7,6.1,10.7,2.4,15.7c-3.7,5-10.7,6.1-15.7,2.4c-5-3.7-6.1-10.7-2.4-15.7
					S24.2,9.8,29.1,13.4z"/>
			</g>
		</g>
	</g>
	<g id="g6668_1_" transform="translate(-248.99,467.9855)">
		<path id="path6670_1_" class="st6" d="M278.8-444c-1.6,0-2.8,1.1-3.3,2.5c-0.5-0.3-1-0.4-1.6-0.4c-2,0-3.5,1.6-3.5,3.5
			c0,0.4,0.1,0.8,0.2,1.2c-1,0.6-1.7,1.6-1.7,2.7c0,1.8,1.4,3.1,3.1,3.1c0.1,0,13.1,0,13.3,0c1.8,0,3.1-1.4,3.1-3.1
			c0-1.2-0.7-2.1-1.7-2.7c0.1-0.4,0.2-0.7,0.2-1.2c0-2-1.6-3.5-3.5-3.5c-0.6,0-1.1,0.2-1.6,0.4C281.7-443,280.4-444,278.8-444z"/>
		
			<linearGradient id="path6672_2_" gradientUnits="userSpaceOnUse" x1="770.0337" y1="-234.6862" x2="779.806" y2="-228.35" gradientTransform="matrix(1 0 0 1 -497.98 -206)">
			<stop  offset="0" style="stop-color:#FFFFFF"/>
			<stop  offset="1" style="stop-color:#FFFFFF;stop-opacity:0"/>
		</linearGradient>
		<path id="path6672_1_" class="st7" d="M278.8-443.6c-1.6,0-2.6,1-3,2.6c-0.5-0.2-1.1-0.6-1.7-0.6c-1.9,0-3.3,1.4-3.3,3.1
			c0,0.4,0.2,1,0.3,1.3c-0.9,0.5-1.7,1.4-1.7,2.3c0,1.7,1.1,2.9,3,2.9c0.1,0,12.7,0,12.8,0c2,0,3-1.4,3-2.9c0-1.1-0.8-1.9-1.7-2.3
			c0.1-0.3,0.3-0.9,0.3-1.3c0-1.9-1.5-3.2-3.3-3.2c-0.6,0-1.2,0.3-1.7,0.6C281.5-442.7,280.4-443.6,278.8-443.6z"/>
		<g id="g6674_1_">
			<path id="path6676_1_" class="st8" d="M281.3-440.5c0,1.4-1.1,2.4-2.4,2.4s-2.4-1.1-2.4-2.4c0-1.4,1.1-2.4,2.4-2.4
				S281.3-441.9,281.3-440.5L281.3-440.5z"/>
			
				<linearGradient id="path6678_2_" gradientUnits="userSpaceOnUse" x1="772.8755" y1="-244.015" x2="774.3818" y2="-241.6215" gradientTransform="matrix(1.0566 0 0 1.0566 -538.7048 -184.1379)">
				<stop  offset="0" style="stop-color:#FFFFFF"/>
				<stop  offset="1" style="stop-color:#FFFFFF;stop-opacity:0"/>
			</linearGradient>
			<path id="path6678_1_" class="st9" d="M281.3-440.5c0,1.4-1.1,2.4-2.4,2.4s-2.4-1.1-2.4-2.4c0-1.4,1.1-2.4,2.4-2.4
				S281.3-441.9,281.3-440.5L281.3-440.5z"/>
		</g>
		<rect id="rect6680_1_" x="272.2" y="-438.8" class="st8" width="14" height="6.3"/>
		<path id="path6682_1_" class="st8" d="M274.3-434.7c0,1.2-1,2.1-2.1,2.1c-1.1,0-2.1-1-2.1-2.1c0-1.1,1-2.1,2.1-2.1
			C273.4-436.7,274.3-435.7,274.3-434.7L274.3-434.7z"/>
		<g id="g6684_1_">
			<path id="path6686_1_" class="st8" d="M286.2-438.5c0,1.4-1.1,2.4-2.4,2.4s-2.4-1.1-2.4-2.4s1.1-2.4,2.4-2.4
				S286.2-439.8,286.2-438.5L286.2-438.5z"/>
			
				<linearGradient id="path6688_2_" gradientUnits="userSpaceOnUse" x1="770.1755" y1="-245.9441" x2="772.5072" y2="-242.3537" gradientTransform="matrix(1.0566 0 0 1.0566 -531.7048 -181.1379)">
				<stop  offset="0" style="stop-color:#FFFFFF"/>
				<stop  offset="1" style="stop-color:#FFFFFF;stop-opacity:0"/>
			</linearGradient>
			<path id="path6688_1_" class="st10" d="M286.2-438.5c0,1.4-1.1,2.4-2.4,2.4s-2.4-1.1-2.4-2.4s1.1-2.4,2.4-2.4
				S286.2-439.8,286.2-438.5L286.2-438.5z"/>
		</g>
		<g id="g6690_1_">
			<path id="path6692_1_" class="st8" d="M276.4-438.5c0,1.4-1.1,2.4-2.4,2.4s-2.4-1.1-2.4-2.4s1.1-2.4,2.4-2.4
				S276.4-439.8,276.4-438.5L276.4-438.5z"/>
			
				<linearGradient id="path6694_2_" gradientUnits="userSpaceOnUse" x1="774.0893" y1="-245.2167" x2="776.4966" y2="-242.7776" gradientTransform="matrix(1.0566 0 0 1.0566 -545.7048 -181.1379)">
				<stop  offset="0" style="stop-color:#FFFFFF"/>
				<stop  offset="1" style="stop-color:#FFFFFF;stop-opacity:0"/>
			</linearGradient>
			<path id="path6694_1_" class="st11" d="M276.4-438.5c0,1.4-1.1,2.4-2.4,2.4s-2.4-1.1-2.4-2.4s1.1-2.4,2.4-2.4
				S276.4-439.8,276.4-438.5L276.4-438.5z"/>
		</g>
		<g id="g6696_1_" transform="translate(-1.000000,0.000000)">
			<path id="path6698_1_" class="st8" d="M279.1-440.9c-2.5,0-4.5,2.1-4.5,4.5c0,1.7,1,3,2.2,3.8h4.5c1.4-0.8,2.2-2.1,2.2-3.8
				C283.6-438.9,281.6-440.9,279.1-440.9z"/>
			
				<linearGradient id="path6700_2_" gradientUnits="userSpaceOnUse" x1="777.0804" y1="-233.0741" x2="779.8945" y2="-229.4555" gradientTransform="matrix(1 0 0 1 -499.98 -206)">
				<stop  offset="0" style="stop-color:#FFFFFF"/>
				<stop  offset="1" style="stop-color:#FFFFFF;stop-opacity:0"/>
			</linearGradient>
			<path id="path6700_1_" class="st12" d="M279.1-440.9c-2.5,0-4.5,2.1-4.5,4.5c0,1.7,1,3,2.2,3.8h4.5c1.4-0.8,2.2-2.1,2.2-3.8
				C283.6-438.9,281.6-440.9,279.1-440.9z"/>
		</g>
		
			<linearGradient id="path6702_2_" gradientUnits="userSpaceOnUse" x1="807.8568" y1="-214.2569" x2="810.0195" y2="-212.3198" gradientTransform="matrix(0.9057 0 0 0.9057 -460.6101 -241.6762)">
			<stop  offset="0" style="stop-color:#FFFFFF"/>
			<stop  offset="1" style="stop-color:#FFFFFF;stop-opacity:0"/>
		</linearGradient>
		<path id="path6702_1_" class="st13" d="M274.3-434.7c0,1.2-1,2.1-2.1,2.1c-1.2,0-2.1-1-2.1-2.1c0-1.2,1-2.1,2.1-2.1
			C273.4-436.7,274.3-435.7,274.3-434.7L274.3-434.7z"/>
		<path id="path6704_1_" class="st14" d="M287.5-438.4c0,1.9-2.2,2.6-2.2,2.6s1.7-1.2,1.7-2.5L287.5-438.4z"/>
		<g id="g6706_1_" transform="matrix(1.142857,0.000000,0.000000,1.142857,-28.57139,67.00008)">
			<path id="path6708_1_" class="st8" d="M273.5-439.5c0,1.4-1.1,2.4-2.4,2.4s-2.4-1.1-2.4-2.4c0-1.4,1.1-2.4,2.4-2.4
				S273.5-440.9,273.5-439.5L273.5-439.5z"/>
			
				<linearGradient id="path6710_2_" gradientUnits="userSpaceOnUse" x1="634.2013" y1="-249.658" x2="637.0599" y2="-246.587" gradientTransform="matrix(1.38 0 0 1.38 -606.6733 -97.7466)">
				<stop  offset="0" style="stop-color:#FFFFFF"/>
				<stop  offset="1" style="stop-color:#FFFFFF;stop-opacity:0"/>
			</linearGradient>
			<path id="path6710_1_" class="st15" d="M273.5-439.5c0,1.4-1.1,2.4-2.4,2.4s-2.4-1.1-2.4-2.4c0-1.4,1.1-2.4,2.4-2.4
				S273.5-440.9,273.5-439.5L273.5-439.5z"/>
		</g>
	</g>
</g>
</svg>
