<?xml version="1.0" encoding="utf-8"?>
<!-- Generator: Adobe Illustrator 24.0.1, SVG Export Plug-In . SVG Version: 6.00 Build 0)  -->
<svg version="1.1"
	 id="svg1306" xmlns:cc="http://creativecommons.org/ns#" xmlns:dc="http://purl.org/dc/elements/1.1/" xmlns:inkscape="http://www.inkscape.org/namespaces/inkscape" xmlns:rdf="http://www.w3.org/1999/02/22-rdf-syntax-ns#" xmlns:sodipodi="http://sodipodi.sourceforge.net/DTD/sodipodi-0.dtd" xmlns:svg="http://www.w3.org/2000/svg"
	 xmlns="http://www.w3.org/2000/svg" xmlns:xlink="http://www.w3.org/1999/xlink" x="0px" y="0px" viewBox="0 0 45 45"
	 style="enable-background:new 0 0 45 45;" xml:space="preserve">
<style type="text/css">
	.st0{fill:#C4C5C2;stroke:#888A85;stroke-miterlimit:2;}
	.st1{fill:url(#path7798_1_);}
	.st2{fill:#C4C5C2;}
	.st3{fill:url(#path7804_1_);}
	.st4{fill:url(#path7814_1_);}
	.st5{fill:url(#path7820_1_);}
	.st6{fill:url(#path7826_1_);}
	.st7{fill:url(#path7828_1_);}
	.st8{fill-rule:evenodd;clip-rule:evenodd;fill:#888A85;}
	.st9{fill:url(#path7836_1_);}
	.st10{fill:url(#path7856_1_);}
	.st11{fill:url(#path7862_1_);}
	.st12{fill:url(#path7872_1_);}
	.st13{fill:url(#path7878_1_);}
	.st14{fill:url(#path7884_1_);}
	.st15{fill:url(#path7886_1_);}
	.st16{fill:url(#path7896_1_);}
	.st17{fill:url(#SVGID_1_);}
	.st18{fill:url(#SVGID_2_);}
	.st19{fill:url(#SVGID_3_);}
	.st20{fill:url(#SVGID_4_);}
	.st21{fill:url(#SVGID_5_);}
	.st22{fill:url(#SVGID_6_);}
</style>
<g id="layer1_35_">
	<g id="g10011_6_" transform="translate(-287.0000,298.0000)">
		<g id="g7794_6_" transform="translate(38.00259,162.0000)">
			<path id="path7796_6_" class="st0" d="M279-454c-2.3,0-4.1,1.6-4.7,3.6c-0.7-0.4-1.4-0.6-2.3-0.6c-2.8,0-5,2.2-5,5
				c0,0.6,0.2,1.1,0.3,1.6c-1.4,0.8-2.3,2.2-2.3,3.9c0,2.5,2,4.5,4.5,4.5c0.2,0,18.8,0,19,0c2.5,0,4.5-2,4.5-4.5
				c0-1.7-1-3.1-2.3-3.9c0.2-0.5,0.3-1,0.3-1.6c0-2.8-2.2-5-5-5c-0.8,0-1.6,0.3-2.3,0.6C283.2-452.4,281.3-454,279-454z"/>
			
				<linearGradient id="path7798_1_" gradientUnits="userSpaceOnUse" x1="1016.2224" y1="-170.963" x2="1030.2292" y2="-180.0449" gradientTransform="matrix(1 0 0 -1 -746.9922 -620)">
				<stop  offset="0" style="stop-color:#FFFFFF"/>
				<stop  offset="1" style="stop-color:#FFFFFF;stop-opacity:0"/>
			</linearGradient>
			<path id="path7798_6_" class="st1" d="M279-453.5c-2.2,0-3.7,1.3-4.4,3.8c-0.7-0.3-1.5-0.8-2.4-0.8c-2.7,0-4.8,1.9-4.8,4.5
				c0,0.5,0.3,1.3,0.4,1.8c-1.3,0.7-2.4,1.9-2.4,3.4c0,2.3,1.5,4.3,4.3,4.3c0.2,0,18.2,0,18.3,0c2.8,0,4.3-1.9,4.3-4.3
				c0-1.6-1.1-2.7-2.4-3.4c0.2-0.5,0.5-1.3,0.5-1.8c0-2.6-2.1-4.6-4.8-4.6c-0.8,0-1.6,0.5-2.3,0.8
				C282.8-452.1,281.2-453.5,279-453.5z"/>
			<g id="g7800_6_">
				<path id="path7802_6_" class="st2" d="M282.5-449c0,1.9-1.6,3.5-3.5,3.5s-3.5-1.6-3.5-3.5s1.6-3.5,3.5-3.5
					S282.5-450.9,282.5-449L282.5-449z"/>
				
					<linearGradient id="path7804_1_" gradientUnits="userSpaceOnUse" x1="1016.0839" y1="-155.7854" x2="1018.2429" y2="-159.2162" gradientTransform="matrix(1.0566 0 0 -1.0566 -795.8682 -615.6273)">
					<stop  offset="0" style="stop-color:#FFFFFF"/>
					<stop  offset="1" style="stop-color:#FFFFFF;stop-opacity:0"/>
				</linearGradient>
				<path id="path7804_6_" class="st3" d="M282.5-449c0,1.9-1.6,3.5-3.5,3.5s-3.5-1.6-3.5-3.5s1.6-3.5,3.5-3.5
					S282.5-450.9,282.5-449L282.5-449z"/>
			</g>
			<rect id="rect7806_6_" x="269.5" y="-446.5" class="st2" width="20" height="9"/>
			<path id="path7808_6_" class="st2" d="M272.5-440.5c0,1.7-1.3,3-3,3s-3-1.3-3-3s1.3-3,3-3S272.5-442.2,272.5-440.5L272.5-440.5z"
				/>
			<g id="g7810_6_">
				<path id="path7812_6_" class="st2" d="M289.5-446c0,1.9-1.6,3.5-3.5,3.5s-3.5-1.6-3.5-3.5s1.6-3.5,3.5-3.5
					S289.5-447.9,289.5-446L289.5-446z"/>
				
					<linearGradient id="path7814_1_" gradientUnits="userSpaceOnUse" x1="1015.0595" y1="-154.2674" x2="1018.4016" y2="-159.4137" gradientTransform="matrix(1.0566 0 0 -1.0566 -788.8682 -612.6273)">
					<stop  offset="0" style="stop-color:#FFFFFF"/>
					<stop  offset="1" style="stop-color:#FFFFFF;stop-opacity:0"/>
				</linearGradient>
				<path id="path7814_6_" class="st4" d="M289.5-446c0,1.9-1.6,3.5-3.5,3.5s-3.5-1.6-3.5-3.5s1.6-3.5,3.5-3.5
					S289.5-447.9,289.5-446L289.5-446z"/>
			</g>
			<g id="g7816_6_">
				<path id="path7818_6_" class="st2" d="M275.5-446c0,1.9-1.6,3.5-3.5,3.5s-3.5-1.6-3.5-3.5s1.6-3.5,3.5-3.5
					S275.5-447.9,275.5-446L275.5-446z"/>
				
					<linearGradient id="path7820_1_" gradientUnits="userSpaceOnUse" x1="1014.9349" y1="-155.3154" x2="1018.3852" y2="-158.8115" gradientTransform="matrix(1.0566 0 0 -1.0566 -802.8682 -612.6273)">
					<stop  offset="0" style="stop-color:#FFFFFF"/>
					<stop  offset="1" style="stop-color:#FFFFFF;stop-opacity:0"/>
				</linearGradient>
				<path id="path7820_6_" class="st5" d="M275.5-446c0,1.9-1.6,3.5-3.5,3.5s-3.5-1.6-3.5-3.5s1.6-3.5,3.5-3.5
					S275.5-447.9,275.5-446L275.5-446z"/>
			</g>
			<g id="g7822_6_" transform="translate(-1.000000,0.000000)">
				<path id="path7824_6_" class="st2" d="M279-449.5c-3.6,0-6.5,2.9-6.5,6.5c0,2.4,1.3,4.3,3.3,5.5h6.5c1.9-1.1,3.3-3.1,3.3-5.5
					C285.5-446.6,282.6-449.5,279-449.5z"/>
				
					<linearGradient id="path7826_1_" gradientUnits="userSpaceOnUse" x1="1026.0579" y1="-173.1651" x2="1030.0913" y2="-178.3518" gradientTransform="matrix(1 0 0 -1 -749.9922 -620)">
					<stop  offset="0" style="stop-color:#FFFFFF"/>
					<stop  offset="1" style="stop-color:#FFFFFF;stop-opacity:0"/>
				</linearGradient>
				<path id="path7826_6_" class="st6" d="M279-449.5c-3.6,0-6.5,2.9-6.5,6.5c0,2.4,1.3,4.4,3.3,5.5h6.5c1.9-1.1,3.3-3.1,3.3-5.5
					C285.5-446.6,282.6-449.5,279-449.5z"/>
			</g>
			
				<linearGradient id="path7828_1_" gradientUnits="userSpaceOnUse" x1="1064.224" y1="-203.7518" x2="1067.3237" y2="-206.5283" gradientTransform="matrix(0.9057 0 0 -0.9057 -696.0421 -626.5378)">
				<stop  offset="0" style="stop-color:#FFFFFF"/>
				<stop  offset="1" style="stop-color:#FFFFFF;stop-opacity:0"/>
			</linearGradient>
			<path id="path7828_6_" class="st7" d="M272.5-440.5c0,1.7-1.3,3-3,3s-3-1.3-3-3s1.3-3,3-3S272.5-442.2,272.5-440.5L272.5-440.5z"
				/>
			<path id="path7830_6_" class="st8" d="M291.5-445.8c0,2.7-3.3,3.7-3.3,3.7s2.3-1.6,2.3-3.7H291.5z"/>
			<g id="g7832_6_" transform="matrix(1.142857,0.000000,0.000000,1.142857,-28.57139,67.00008)">
				<path id="path7834_6_" class="st2" d="M275.7-444.9c0,1.9-1.6,3.5-3.5,3.5s-3.5-1.6-3.5-3.5s1.6-3.5,3.5-3.5
					C274.2-448.4,275.7-446.9,275.7-444.9L275.7-444.9z"/>
				
					<linearGradient id="path7836_1_" gradientUnits="userSpaceOnUse" x1="764.2009" y1="-165.3718" x2="768.2982" y2="-169.7737" gradientTransform="matrix(1.5771 0 0 -1.5771 -936.71 -709.7067)">
					<stop  offset="0" style="stop-color:#FFFFFF"/>
					<stop  offset="1" style="stop-color:#FFFFFF;stop-opacity:0"/>
				</linearGradient>
				<path id="path7836_6_" class="st9" d="M275.7-444.9c0,1.9-1.6,3.5-3.5,3.5s-3.5-1.6-3.5-3.5s1.6-3.5,3.5-3.5
					C274.2-448.4,275.7-446.9,275.7-444.9L275.7-444.9z"/>
			</g>
		</g>
		<g id="g7852_6_" transform="translate(23.00000,158.0000)">
			<path id="path7854_6_" class="st0" d="M279-454c-2.3,0-4.1,1.6-4.7,3.6c-0.7-0.4-1.4-0.6-2.3-0.6c-2.8,0-5,2.2-5,5
				c0,0.6,0.2,1.1,0.3,1.6c-1.4,0.8-2.3,2.2-2.3,3.9c0,2.5,2,4.5,4.5,4.5c0.2,0,18.8,0,19,0c2.5,0,4.5-2,4.5-4.5
				c0-1.7-1-3.1-2.3-3.9c0.2-0.5,0.3-1,0.3-1.6c0-2.8-2.2-5-5-5c-0.8,0-1.6,0.3-2.3,0.6C283.2-452.4,281.3-454,279-454z"/>
			
				<linearGradient id="path7856_1_" gradientUnits="userSpaceOnUse" x1="1061.2302" y1="-166.963" x2="1075.2371" y2="-176.0449" gradientTransform="matrix(1 0 0 -1 -792 -616)">
				<stop  offset="0" style="stop-color:#FFFFFF"/>
				<stop  offset="1" style="stop-color:#FFFFFF;stop-opacity:0"/>
			</linearGradient>
			<path id="path7856_6_" class="st10" d="M279-453.5c-2.2,0-3.7,1.3-4.4,3.8c-0.7-0.3-1.5-0.8-2.4-0.8c-2.7,0-4.8,1.9-4.8,4.5
				c0,0.5,0.3,1.3,0.4,1.8c-1.3,0.7-2.4,1.9-2.4,3.4c0,2.3,1.5,4.3,4.3,4.3c0.2,0,18.2,0,18.3,0c2.8,0,4.3-1.9,4.3-4.3
				c0-1.6-1.1-2.7-2.4-3.4c0.2-0.5,0.5-1.3,0.5-1.8c0-2.6-2.1-4.6-4.8-4.6c-0.8,0-1.6,0.5-2.3,0.8
				C282.8-452.1,281.2-453.5,279-453.5z"/>
			<g id="g7858_6_">
				<path id="path7860_6_" class="st2" d="M282.5-449c0,1.9-1.6,3.5-3.5,3.5s-3.5-1.6-3.5-3.5s1.6-3.5,3.5-3.5
					S282.5-450.9,282.5-449L282.5-449z"/>
				
					<linearGradient id="path7862_1_" gradientUnits="userSpaceOnUse" x1="1061.0917" y1="-151.7855" x2="1063.2507" y2="-155.2163" gradientTransform="matrix(1.0566 0 0 -1.0566 -843.4234 -611.4009)">
					<stop  offset="0" style="stop-color:#FFFFFF"/>
					<stop  offset="1" style="stop-color:#FFFFFF;stop-opacity:0"/>
				</linearGradient>
				<path id="path7862_6_" class="st11" d="M282.5-449c0,1.9-1.6,3.5-3.5,3.5s-3.5-1.6-3.5-3.5s1.6-3.5,3.5-3.5
					S282.5-450.9,282.5-449L282.5-449z"/>
			</g>
			<rect id="rect7864_6_" x="269.5" y="-446.5" class="st2" width="20" height="9"/>
			<path id="path7866_6_" class="st2" d="M272.5-440.5c0,1.7-1.3,3-3,3s-3-1.3-3-3s1.3-3,3-3S272.5-442.2,272.5-440.5L272.5-440.5z"
				/>
			<g id="g7868_6_">
				<path id="path7870_6_" class="st2" d="M289.5-446c0,1.9-1.6,3.5-3.5,3.5s-3.5-1.6-3.5-3.5s1.6-3.5,3.5-3.5
					S289.5-447.9,289.5-446L289.5-446z"/>
				
					<linearGradient id="path7872_1_" gradientUnits="userSpaceOnUse" x1="1060.0675" y1="-150.2674" x2="1063.4093" y2="-155.4137" gradientTransform="matrix(1.0566 0 0 -1.0566 -836.4234 -608.4009)">
					<stop  offset="0" style="stop-color:#FFFFFF"/>
					<stop  offset="1" style="stop-color:#FFFFFF;stop-opacity:0"/>
				</linearGradient>
				<path id="path7872_6_" class="st12" d="M289.5-446c0,1.9-1.6,3.5-3.5,3.5s-3.5-1.6-3.5-3.5s1.6-3.5,3.5-3.5
					S289.5-447.9,289.5-446L289.5-446z"/>
			</g>
			<g id="g7874_6_">
				<path id="path7876_6_" class="st2" d="M275.5-446c0,1.9-1.6,3.5-3.5,3.5s-3.5-1.6-3.5-3.5s1.6-3.5,3.5-3.5
					S275.5-447.9,275.5-446L275.5-446z"/>
				
					<linearGradient id="path7878_1_" gradientUnits="userSpaceOnUse" x1="1059.9427" y1="-151.3154" x2="1063.3931" y2="-154.8116" gradientTransform="matrix(1.0566 0 0 -1.0566 -850.4234 -608.4009)">
					<stop  offset="0" style="stop-color:#FFFFFF"/>
					<stop  offset="1" style="stop-color:#FFFFFF;stop-opacity:0"/>
				</linearGradient>
				<path id="path7878_6_" class="st13" d="M275.5-446c0,1.9-1.6,3.5-3.5,3.5s-3.5-1.6-3.5-3.5s1.6-3.5,3.5-3.5
					S275.5-447.9,275.5-446L275.5-446z"/>
			</g>
			<g id="g7880_6_" transform="translate(-1.000000,0.000000)">
				<path id="path7882_6_" class="st2" d="M279-449.5c-3.6,0-6.5,2.9-6.5,6.5c0,2.4,1.3,4.3,3.3,5.5h6.5c1.9-1.1,3.3-3.1,3.3-5.5
					C285.5-446.6,282.6-449.5,279-449.5z"/>
				
					<linearGradient id="path7884_1_" gradientUnits="userSpaceOnUse" x1="1071.0656" y1="-169.1652" x2="1075.0991" y2="-174.3519" gradientTransform="matrix(1 0 0 -1 -795 -616)">
					<stop  offset="0" style="stop-color:#FFFFFF"/>
					<stop  offset="1" style="stop-color:#FFFFFF;stop-opacity:0"/>
				</linearGradient>
				<path id="path7884_6_" class="st14" d="M279-449.5c-3.6,0-6.5,2.9-6.5,6.5c0,2.4,1.3,4.4,3.3,5.5h6.5c1.9-1.1,3.3-3.1,3.3-5.5
					C285.5-446.6,282.6-449.5,279-449.5z"/>
			</g>
			
				<linearGradient id="path7886_1_" gradientUnits="userSpaceOnUse" x1="1109.2313" y1="-199.7522" x2="1112.3309" y2="-202.5287" gradientTransform="matrix(0.9057 0 0 -0.9057 -736.805 -622.9152)">
				<stop  offset="0" style="stop-color:#FFFFFF"/>
				<stop  offset="1" style="stop-color:#FFFFFF;stop-opacity:0"/>
			</linearGradient>
			<path id="path7886_6_" class="st15" d="M272.5-440.5c0,1.7-1.3,3-3,3s-3-1.3-3-3s1.3-3,3-3S272.5-442.2,272.5-440.5L272.5-440.5z
				"/>
			<path id="path7888_6_" class="st8" d="M291.5-445.8c0,2.7-3.3,3.7-3.3,3.7s2.3-1.6,2.3-3.7H291.5z"/>
			<g id="g7890_6_" transform="matrix(1.142857,0.000000,0.000000,1.142857,-28.57139,67.00008)">
				<path id="path7892_6_" class="st2" d="M275.7-444.9c0,1.9-1.6,3.5-3.5,3.5s-3.5-1.6-3.5-3.5s1.6-3.5,3.5-3.5
					C274.2-448.4,275.7-446.9,275.7-444.9L275.7-444.9z"/>
				
					<linearGradient id="path7896_1_" gradientUnits="userSpaceOnUse" x1="798.8654" y1="-162.2544" x2="802.9626" y2="-166.6563" gradientTransform="matrix(1.5771 0 0 -1.5771 -991.381 -704.7903)">
					<stop  offset="0" style="stop-color:#FFFFFF"/>
					<stop  offset="1" style="stop-color:#FFFFFF;stop-opacity:0"/>
				</linearGradient>
				<path id="path7896_6_" class="st16" d="M275.7-444.9c0,1.9-1.6,3.5-3.5,3.5s-3.5-1.6-3.5-3.5s1.6-3.5,3.5-3.5
					C274.2-448.4,275.7-446.9,275.7-444.9L275.7-444.9z"/>
			</g>
		</g>
	</g>
	<g>
		<path class="st0" d="M21.5,38L21.5,38c0,1.1-0.9,2-2,2h-8c-1.1,0-2-0.9-2-2l0,0c0-1.1-0.9-2-2-2H4.4c-1.1,0-2-0.9-2-2l0,0
			c0-1.1,0.9-2,2-2h8c1.1,0,2,0.9,2,2l0,0c0,1.1,0.9,2,2,2h3.1C20.6,36,21.5,36.9,21.5,38z"/>
		
			<linearGradient id="SVGID_1_" gradientUnits="userSpaceOnUse" x1="3.339" y1="240" x2="13.339" y2="240" gradientTransform="matrix(1 0 0 1 0 -206)">
			<stop  offset="0" style="stop-color:#FFFFFF"/>
			<stop  offset="1" style="stop-color:#FFFFFF;stop-opacity:0"/>
		</linearGradient>
		<path class="st17" d="M12.3,35h-8c-0.6,0-1-0.4-1-1l0,0c0-0.6,0.4-1,1-1h8c0.6,0,1,0.4,1,1l0,0C13.3,34.5,12.9,35,12.3,35z"/>
		
			<linearGradient id="SVGID_2_" gradientUnits="userSpaceOnUse" x1="10.5448" y1="244" x2="20.5448" y2="244" gradientTransform="matrix(1 0 0 1 0 -206)">
			<stop  offset="0" style="stop-color:#FFFFFF"/>
			<stop  offset="1" style="stop-color:#FFFFFF;stop-opacity:0"/>
		</linearGradient>
		<path class="st18" d="M19.5,39h-8c-0.6,0-1-0.4-1-1l0,0c0-0.6,0.4-1,1-1h8c0.6,0,1,0.4,1,1l0,0C20.5,38.6,20.1,39,19.5,39z"/>
	</g>
	<g>
		<path class="st0" d="M44,40L44,40c0,1.1-0.9,2-2,2h-8c-1.1,0-2-0.9-2-2l0,0c0-1.1-0.9-2-2-2h-3.1c-1.1,0-2-0.9-2-2l0,0
			c0-1.1,0.9-2,2-2h8c1.1,0,2,0.9,2,2l0,0c0,1.1,0.9,2,2,2H42C43.2,38,44,38.9,44,40z"/>
		
			<linearGradient id="SVGID_3_" gradientUnits="userSpaceOnUse" x1="25.8769" y1="242" x2="35.8769" y2="242" gradientTransform="matrix(1 0 0 1 0 -206)">
			<stop  offset="0" style="stop-color:#FFFFFF"/>
			<stop  offset="1" style="stop-color:#FFFFFF;stop-opacity:0"/>
		</linearGradient>
		<path class="st19" d="M34.9,37h-8c-0.6,0-1-0.4-1-1l0,0c0-0.6,0.4-1,1-1h8c0.6,0,1,0.4,1,1l0,0C35.9,36.5,35.4,37,34.9,37z"/>
		
			<linearGradient id="SVGID_4_" gradientUnits="userSpaceOnUse" x1="33.0826" y1="246" x2="43.0826" y2="246" gradientTransform="matrix(1 0 0 1 0 -206)">
			<stop  offset="0" style="stop-color:#FFFFFF"/>
			<stop  offset="1" style="stop-color:#FFFFFF;stop-opacity:0"/>
		</linearGradient>
		<path class="st20" d="M42.1,41h-8c-0.6,0-1-0.4-1-1l0,0c0-0.6,0.4-1,1-1h8c0.6,0,1,0.4,1,1l0,0C43.1,40.6,42.6,41,42.1,41z"/>
	</g>
	<g>
		<path class="st0" d="M38.5,29L38.5,29c0,1.1-0.9,2-2,2h-16c-1.1,0-2-0.9-2-2l0,0c0-1.1-0.9-2-2-2H8.4c-1.1,0-2-0.9-2-2l0,0
			c0-1.1,0.9-2,2-2h16c1.1,0,2,0.9,2,2l0,0c0,1.1,0.9,2,2,2h8.1C37.6,27,38.5,27.9,38.5,29z"/>
		
			<linearGradient id="SVGID_5_" gradientUnits="userSpaceOnUse" x1="7.372" y1="231" x2="25.372" y2="231" gradientTransform="matrix(1 0 0 1 0 -206)">
			<stop  offset="0" style="stop-color:#FFFFFF"/>
			<stop  offset="1" style="stop-color:#FFFFFF;stop-opacity:0"/>
		</linearGradient>
		<path class="st21" d="M24.4,26h-16c-0.6,0-1-0.4-1-1l0,0c0-0.6,0.4-1,1-1h16c0.6,0,1,0.4,1,1l0,0C25.4,25.5,24.9,26,24.4,26z"/>
		
			<linearGradient id="SVGID_6_" gradientUnits="userSpaceOnUse" x1="19.372" y1="235" x2="37.372" y2="235" gradientTransform="matrix(1 0 0 1 0 -206)">
			<stop  offset="0" style="stop-color:#FFFFFF"/>
			<stop  offset="1" style="stop-color:#FFFFFF;stop-opacity:0"/>
		</linearGradient>
		<path class="st22" d="M36.4,30h-16c-0.6,0-1-0.4-1-1l0,0c0-0.6,0.4-1,1-1h16c0.6,0,1,0.4,1,1l0,0C37.4,29.5,36.9,30,36.4,30z"/>
	</g>
</g>
</svg>
