<?xml version="1.0" encoding="utf-8"?>
<!-- Generator: Adobe Illustrator 24.0.1, SVG Export Plug-In . SVG Version: 6.00 Build 0)  -->
<svg version="1.1"
	 id="svg1306" xmlns:cc="http://creativecommons.org/ns#" xmlns:dc="http://purl.org/dc/elements/1.1/" xmlns:inkscape="http://www.inkscape.org/namespaces/inkscape" xmlns:rdf="http://www.w3.org/1999/02/22-rdf-syntax-ns#" xmlns:sodipodi="http://sodipodi.sourceforge.net/DTD/sodipodi-0.dtd" xmlns:svg="http://www.w3.org/2000/svg"
	 xmlns="http://www.w3.org/2000/svg" xmlns:xlink="http://www.w3.org/1999/xlink" x="0px" y="0px" viewBox="0 0 45 45"
	 style="enable-background:new 0 0 45 45;" xml:space="preserve">
<style type="text/css">
	.st0{fill:#888A85;stroke:#555753;stroke-width:0.9992;stroke-miterlimit:1.9981;}
	.st1{fill:url(#path12582_1_);}
	.st2{fill:#888A85;}
	.st3{opacity:0.4778;fill:url(#path12586_1_);enable-background:new    ;}
	.st4{opacity:0.4778;fill:url(#path12595_1_);enable-background:new    ;}
	.st5{opacity:0.4778;fill:url(#path12599_1_);enable-background:new    ;}
	.st6{opacity:0.4778;fill:url(#path12603_1_);enable-background:new    ;}
	.st7{opacity:0.4778;fill:url(#path12605_1_);enable-background:new    ;}
	.st8{fill-rule:evenodd;clip-rule:evenodd;fill:#555753;}
	.st9{opacity:0.4778;fill:url(#path12611_1_);enable-background:new    ;}
	.st10{fill:url(#path12331_1_);}
	.st11{opacity:0.4778;fill:url(#path12335_1_);enable-background:new    ;}
	.st12{opacity:0.4778;fill:url(#path12343_1_);enable-background:new    ;}
	.st13{opacity:0.4778;fill:url(#path12349_1_);enable-background:new    ;}
	.st14{opacity:0.4778;fill:url(#path12353_1_);enable-background:new    ;}
	.st15{opacity:0.4778;fill:url(#path12355_1_);enable-background:new    ;}
	.st16{opacity:0.4778;fill:url(#path12361_1_);enable-background:new    ;}
	.st17{fill:#888A85;stroke:#555753;stroke-width:0.9998;stroke-miterlimit:1.9993;}
	.st18{opacity:0.4778;fill:url(#SVGID_1_);enable-background:new    ;}
	.st19{opacity:0.4778;fill:url(#SVGID_2_);enable-background:new    ;}
	.st20{opacity:0.4778;fill:url(#SVGID_3_);enable-background:new    ;}
	.st21{opacity:0.4778;fill:url(#SVGID_4_);enable-background:new    ;}
	.st22{opacity:0.4778;fill:url(#SVGID_5_);enable-background:new    ;}
	.st23{opacity:0.4778;fill:url(#SVGID_6_);enable-background:new    ;}
</style>
<g id="layer1_36_">
	<g id="g12627_8_" transform="matrix(0.999675,0.000000,0.000000,1.000000,-286.8482,245.0001)">
		<g id="g12578_8_" transform="translate(72.00007,7.999930)">
			<path id="path12580_8_" class="st0" d="M245-247c-2.3,0-4.1,1.6-4.7,3.6c-0.7-0.4-1.4-0.6-2.3-0.6c-2.8,0-5,2.2-5,5
				c0,0.6,0.2,1.1,0.3,1.6c-1.4,0.8-2.3,2.2-2.3,3.9c0,2.5,2,4.5,4.5,4.5c0.2,0,18.8,0,19,0c2.5,0,4.5-2,4.5-4.5
				c0-1.7-1-3.1-2.3-3.9c0.2-0.5,0.3-1,0.3-1.6c0-2.8-2.2-5-5-5c-0.8,0-1.6,0.3-2.3,0.6C249.1-245.4,247.3-247,245-247z"/>
			
				<linearGradient id="path12582_1_" gradientUnits="userSpaceOnUse" x1="914.6686" y1="36.0559" x2="928.6755" y2="26.974" gradientTransform="matrix(0.9991 0 0 -1 -678.6163 -205.9999)">
				<stop  offset="0" style="stop-color:#FFFFFF"/>
				<stop  offset="1" style="stop-color:#FFFFFF;stop-opacity:0"/>
			</linearGradient>
			<path id="path12582_8_" class="st1" d="M245-246.5c-2.2,0-3.7,1.3-4.4,3.8c-0.7-0.3-1.5-0.8-2.4-0.8c-2.7,0-4.8,1.9-4.8,4.5
				c0,0.5,0.3,1.3,0.4,1.8c-1.3,0.7-2.4,1.9-2.4,3.4c0,2.3,1.5,4.3,4.3,4.3c0.2,0,18.2,0,18.3,0c2.8,0,4.3-1.9,4.3-4.3
				c0-1.6-1.1-2.7-2.4-3.4c0.2-0.5,0.5-1.3,0.5-1.8c0-2.6-2.1-4.6-4.8-4.6c-0.8,0-1.6,0.5-2.3,0.8
				C248.8-245.1,247.2-246.5,245-246.5z"/>
			<path id="path12584_8_" class="st2" d="M248.5-242c0,1.9-1.6,3.5-3.5,3.5s-3.5-1.6-3.5-3.5s1.6-3.5,3.5-3.5
				S248.5-243.9,248.5-242L248.5-242z"/>
			
				<linearGradient id="path12586_1_" gradientUnits="userSpaceOnUse" x1="914.5294" y1="51.208" x2="916.6884" y2="47.7771" gradientTransform="matrix(1.0557 0 0 -1.0566 -721.6974 -189.9102)">
				<stop  offset="0" style="stop-color:#FFFFFF"/>
				<stop  offset="1" style="stop-color:#FFFFFF;stop-opacity:0"/>
			</linearGradient>
			<path id="path12586_8_" class="st3" d="M248.5-242c0,1.9-1.6,3.5-3.5,3.5s-3.5-1.6-3.5-3.5s1.6-3.5,3.5-3.5
				S248.5-243.9,248.5-242L248.5-242z"/>
			<rect id="rect12588_8_" x="235.5" y="-239.5" class="st2" width="20" height="9"/>
			<path id="path12591_8_" class="st2" d="M238.5-233.5c0,1.7-1.3,3-3,3s-3-1.3-3-3s1.3-3,3-3S238.5-235.1,238.5-233.5L238.5-233.5z
				"/>
			<path id="path12593_8_" class="st2" d="M255.5-239c0,1.9-1.6,3.5-3.5,3.5s-3.5-1.6-3.5-3.5s1.6-3.5,3.5-3.5
				S255.5-240.9,255.5-239L255.5-239z"/>
			
				<linearGradient id="path12595_1_" gradientUnits="userSpaceOnUse" x1="913.5042" y1="52.7268" x2="916.8463" y2="47.5807" gradientTransform="matrix(1.0557 0 0 -1.0566 -714.6974 -186.9102)">
				<stop  offset="0" style="stop-color:#FFFFFF"/>
				<stop  offset="1" style="stop-color:#FFFFFF;stop-opacity:0"/>
			</linearGradient>
			<path id="path12595_8_" class="st4" d="M255.5-239c0,1.9-1.6,3.5-3.5,3.5s-3.5-1.6-3.5-3.5s1.6-3.5,3.5-3.5
				S255.5-240.9,255.5-239L255.5-239z"/>
			<path id="path12597_8_" class="st2" d="M241.5-239c0,1.9-1.6,3.5-3.5,3.5s-3.5-1.6-3.5-3.5s1.6-3.5,3.5-3.5
				S241.5-240.9,241.5-239L241.5-239z"/>
			
				<linearGradient id="path12599_1_" gradientUnits="userSpaceOnUse" x1="913.3742" y1="51.6865" x2="916.8246" y2="48.1904" gradientTransform="matrix(1.0557 0 0 -1.0566 -728.6974 -186.9102)">
				<stop  offset="0" style="stop-color:#FFFFFF"/>
				<stop  offset="1" style="stop-color:#FFFFFF;stop-opacity:0"/>
			</linearGradient>
			<path id="path12599_8_" class="st5" d="M241.5-239c0,1.9-1.6,3.5-3.5,3.5s-3.5-1.6-3.5-3.5s1.6-3.5,3.5-3.5
				S241.5-240.9,241.5-239L241.5-239z"/>
			<path id="path12601_8_" class="st2" d="M244-242.5c-3.6,0-6.5,2.9-6.5,6.5c0,2.4,1.3,4.3,3.3,5.5h6.5c1.9-1.1,3.3-3.1,3.3-5.5
				C250.5-239.6,247.5-242.5,244-242.5z"/>
			
				<linearGradient id="path12603_1_" gradientUnits="userSpaceOnUse" x1="921.5295" y1="33.8432" x2="925.563" y2="28.6565" gradientTransform="matrix(0.9991 0 0 -1 -679.6163 -205.9999)">
				<stop  offset="0" style="stop-color:#FFFFFF"/>
				<stop  offset="1" style="stop-color:#FFFFFF;stop-opacity:0"/>
			</linearGradient>
			<path id="path12603_8_" class="st6" d="M244-242.5c-3.6,0-6.5,2.9-6.5,6.5c0,2.4,1.3,4.4,3.3,5.5h6.5c1.9-1.1,3.3-3.1,3.3-5.5
				C250.5-239.6,247.6-242.5,244-242.5z"/>
			
				<linearGradient id="path12605_1_" gradientUnits="userSpaceOnUse" x1="962.7463" y1="3.2696" x2="965.8459" y2="0.493" gradientTransform="matrix(0.9048 0 0 -0.9057 -637.3217 -232.0661)">
				<stop  offset="0" style="stop-color:#FFFFFF"/>
				<stop  offset="1" style="stop-color:#FFFFFF;stop-opacity:0"/>
			</linearGradient>
			<path id="path12605_8_" class="st7" d="M238.5-233.5c0,1.7-1.3,3-3,3s-3-1.3-3-3s1.3-3,3-3S238.5-235.1,238.5-233.5L238.5-233.5z
				"/>
			<path id="path12607_8_" class="st8" d="M257.5-238.8c0,2.7-3.3,3.7-3.3,3.7s2.3-1.6,2.3-3.7H257.5z"/>
			<path id="path12609_8_" class="st2" d="M252.5-234.5c0,2.2-1.8,4-4,4c-2.2,0-4-1.8-4-4s1.8-4,4-4
				C250.7-238.5,252.5-236.7,252.5-234.5L252.5-234.5z"/>
			
				<linearGradient id="path12611_1_" gradientUnits="userSpaceOnUse" x1="875.6396" y1="88.8139" x2="879.7369" y2="84.412" gradientTransform="matrix(1.2064 0 0 -1.2075 -812.062 -131.7543)">
				<stop  offset="0" style="stop-color:#FFFFFF"/>
				<stop  offset="1" style="stop-color:#FFFFFF;stop-opacity:0"/>
			</linearGradient>
			<path id="path12611_8_" class="st9" d="M252.5-234.5c0,2.2-1.8,4-4,4c-2.2,0-4-1.8-4-4s1.8-4,4-4
				C250.7-238.5,252.5-236.7,252.5-234.5L252.5-234.5z"/>
		</g>
		<g id="g12393_8_" transform="translate(56.98577,3.983930)">
			<path id="path12329_8_" class="st0" d="M245-247c-2.3,0-4.1,1.6-4.7,3.6c-0.7-0.4-1.4-0.6-2.3-0.6c-2.8,0-5,2.2-5,5
				c0,0.6,0.2,1.1,0.3,1.6c-1.4,0.8-2.3,2.2-2.3,3.9c0,2.5,2,4.5,4.5,4.5c0.2,0,18.8,0,19,0c2.5,0,4.5-2,4.5-4.5
				c0-1.7-1-3.1-2.3-3.9c0.2-0.5,0.3-1,0.3-1.6c0-2.8-2.2-5-5-5c-0.8,0-1.6,0.3-2.3,0.6C249.1-245.4,247.3-247,245-247z"/>
			
				<linearGradient id="path12331_1_" gradientUnits="userSpaceOnUse" x1="959.7257" y1="40.0713" x2="973.7326" y2="30.9894" gradientTransform="matrix(0.9991 0 0 -1 -723.631 -201.9839)">
				<stop  offset="0" style="stop-color:#FFFFFF"/>
				<stop  offset="1" style="stop-color:#FFFFFF;stop-opacity:0"/>
			</linearGradient>
			<path id="path12331_8_" class="st10" d="M245-246.5c-2.2,0-3.7,1.3-4.4,3.8c-0.7-0.3-1.5-0.8-2.4-0.8c-2.7,0-4.8,1.9-4.8,4.5
				c0,0.5,0.3,1.3,0.4,1.8c-1.3,0.7-2.4,1.9-2.4,3.4c0,2.3,1.5,4.3,4.3,4.3c0.2,0,18.2,0,18.3,0c2.8,0,4.3-1.9,4.3-4.3
				c0-1.6-1.1-2.7-2.4-3.4c0.2-0.5,0.5-1.3,0.5-1.8c0-2.6-2.1-4.6-4.8-4.6c-0.8,0-1.6,0.5-2.3,0.8
				C248.8-245.1,247.2-246.5,245-246.5z"/>
			<path id="path12333_8_" class="st2" d="M248.5-242c0,1.9-1.6,3.5-3.5,3.5s-3.5-1.6-3.5-3.5s1.6-3.5,3.5-3.5
				S248.5-243.9,248.5-242L248.5-242z"/>
			
				<linearGradient id="path12335_1_" gradientUnits="userSpaceOnUse" x1="959.5856" y1="55.2231" x2="961.7446" y2="51.7923" gradientTransform="matrix(1.0557 0 0 -1.0566 -769.2608 -185.6669)">
				<stop  offset="0" style="stop-color:#FFFFFF"/>
				<stop  offset="1" style="stop-color:#FFFFFF;stop-opacity:0"/>
			</linearGradient>
			<path id="path12335_8_" class="st11" d="M248.5-242c0,1.9-1.6,3.5-3.5,3.5s-3.5-1.6-3.5-3.5s1.6-3.5,3.5-3.5
				S248.5-243.9,248.5-242L248.5-242z"/>
			<rect id="rect12337_8_" x="235.5" y="-239.5" class="st2" width="20" height="9"/>
			<path id="path12339_8_" class="st2" d="M238.5-233.5c0,1.7-1.3,3-3,3s-3-1.3-3-3s1.3-3,3-3S238.5-235.1,238.5-233.5L238.5-233.5z
				"/>
			<path id="path12341_8_" class="st2" d="M255.5-239c0,1.9-1.6,3.5-3.5,3.5s-3.5-1.6-3.5-3.5s1.6-3.5,3.5-3.5
				S255.5-240.9,255.5-239L255.5-239z"/>
			
				<linearGradient id="path12343_1_" gradientUnits="userSpaceOnUse" x1="958.5605" y1="56.7421" x2="961.9025" y2="51.5958" gradientTransform="matrix(1.0557 0 0 -1.0566 -762.2608 -182.6669)">
				<stop  offset="0" style="stop-color:#FFFFFF"/>
				<stop  offset="1" style="stop-color:#FFFFFF;stop-opacity:0"/>
			</linearGradient>
			<path id="path12343_8_" class="st12" d="M255.5-239c0,1.9-1.6,3.5-3.5,3.5s-3.5-1.6-3.5-3.5s1.6-3.5,3.5-3.5
				S255.5-240.9,255.5-239L255.5-239z"/>
			<path id="path12347_8_" class="st2" d="M241.5-239c0,1.9-1.6,3.5-3.5,3.5s-3.5-1.6-3.5-3.5s1.6-3.5,3.5-3.5
				S241.5-240.9,241.5-239L241.5-239z"/>
			
				<linearGradient id="path12349_1_" gradientUnits="userSpaceOnUse" x1="958.4308" y1="55.7016" x2="961.8812" y2="52.2055" gradientTransform="matrix(1.0557 0 0 -1.0566 -776.2608 -182.6669)">
				<stop  offset="0" style="stop-color:#FFFFFF"/>
				<stop  offset="1" style="stop-color:#FFFFFF;stop-opacity:0"/>
			</linearGradient>
			<path id="path12349_8_" class="st13" d="M241.5-239c0,1.9-1.6,3.5-3.5,3.5s-3.5-1.6-3.5-3.5s1.6-3.5,3.5-3.5
				S241.5-240.9,241.5-239L241.5-239z"/>
			<path id="path12351_8_" class="st2" d="M244-242.5c-3.6,0-6.5,2.9-6.5,6.5c0,2.4,1.3,4.3,3.3,5.5h6.5c1.9-1.1,3.3-3.1,3.3-5.5
				C250.5-239.6,247.5-242.5,244-242.5z"/>
			
				<linearGradient id="path12353_1_" gradientUnits="userSpaceOnUse" x1="966.5864" y1="37.8585" x2="970.6199" y2="32.6719" gradientTransform="matrix(0.9991 0 0 -1 -724.631 -201.9839)">
				<stop  offset="0" style="stop-color:#FFFFFF"/>
				<stop  offset="1" style="stop-color:#FFFFFF;stop-opacity:0"/>
			</linearGradient>
			<path id="path12353_8_" class="st14" d="M244-242.5c-3.6,0-6.5,2.9-6.5,6.5c0,2.4,1.3,4.4,3.3,5.5h6.5c1.9-1.1,3.3-3.1,3.3-5.5
				C250.5-239.6,247.6-242.5,244-242.5z"/>
			
				<linearGradient id="path12355_1_" gradientUnits="userSpaceOnUse" x1="1007.8036" y1="7.2852" x2="1010.9033" y2="4.5087" gradientTransform="matrix(0.9048 0 0 -0.9057 -678.0897 -228.429)">
				<stop  offset="0" style="stop-color:#FFFFFF"/>
				<stop  offset="1" style="stop-color:#FFFFFF;stop-opacity:0"/>
			</linearGradient>
			<path id="path12355_8_" class="st15" d="M238.5-233.5c0,1.7-1.3,3-3,3s-3-1.3-3-3s1.3-3,3-3S238.5-235.1,238.5-233.5L238.5-233.5
				z"/>
			<path id="path12357_8_" class="st8" d="M257.5-238.8c0,2.7-3.3,3.7-3.3,3.7s2.3-1.6,2.3-3.7H257.5z"/>
			<path id="path12359_8_" class="st2" d="M252.5-234.5c0,2.2-1.8,4-4,4s-4-1.8-4-4s1.8-4,4-4S252.5-236.7,252.5-234.5L252.5-234.5z
				"/>
			
				<linearGradient id="path12361_1_" gradientUnits="userSpaceOnUse" x1="920.6972" y1="92.8298" x2="924.7944" y2="88.4279" gradientTransform="matrix(1.2064 0 0 -1.2075 -866.4194 -126.9048)">
				<stop  offset="0" style="stop-color:#FFFFFF"/>
				<stop  offset="1" style="stop-color:#FFFFFF;stop-opacity:0"/>
			</linearGradient>
			<path id="path12361_8_" class="st16" d="M252.5-234.5c0,2.2-1.8,4-4,4s-4-1.8-4-4s1.8-4,4-4S252.5-236.7,252.5-234.5L252.5-234.5
				z"/>
		</g>
	</g>
	<g>
		<path class="st17" d="M21.5,38L21.5,38c0,1.1-0.9,2-2,2h-8c-1.1,0-2-0.9-2-2l0,0c0-1.1-0.9-2-2-2H4.3c-1.1,0-2-0.9-2-2l0,0
			c0-1.1,0.9-2,2-2h8c1.1,0,2,0.9,2,2l0,0c0,1.1,0.9,2,2,2h3.2C20.6,36,21.5,36.9,21.5,38z"/>
		
			<linearGradient id="SVGID_1_" gradientUnits="userSpaceOnUse" x1="3.2667" y1="240" x2="13.2667" y2="240" gradientTransform="matrix(1 0 0 1 0 -206)">
			<stop  offset="0" style="stop-color:#FFFFFF"/>
			<stop  offset="1" style="stop-color:#FFFFFF;stop-opacity:0"/>
		</linearGradient>
		<path class="st18" d="M12.3,35h-8c-0.6,0-1-0.4-1-1l0,0c0-0.6,0.4-1,1-1h8c0.6,0,1,0.4,1,1l0,0C13.3,34.5,12.9,35,12.3,35z"/>
		
			<linearGradient id="SVGID_2_" gradientUnits="userSpaceOnUse" x1="10.4724" y1="244" x2="20.4724" y2="244" gradientTransform="matrix(1 0 0 1 0 -206)">
			<stop  offset="0" style="stop-color:#FFFFFF"/>
			<stop  offset="1" style="stop-color:#FFFFFF;stop-opacity:0"/>
		</linearGradient>
		<path class="st19" d="M19.5,39h-8c-0.6,0-1-0.4-1-1l0,0c0-0.6,0.4-1,1-1h8c0.6,0,1,0.4,1,1l0,0C20.5,38.6,20.1,39,19.5,39z"/>
	</g>
	<g>
		<path class="st17" d="M44,40L44,40c0,1.1-0.9,2-2,2h-8c-1.1,0-2-0.9-2-2l0,0c0-1.1-0.9-2-2-2h-3.1c-1.1,0-2-0.9-2-2l0,0
			c0-1.1,0.9-2,2-2h8c1.1,0,2,0.9,2,2l0,0c0,1.1,0.9,2,2,2H42C43.1,38,44,38.9,44,40z"/>
		
			<linearGradient id="SVGID_3_" gradientUnits="userSpaceOnUse" x1="25.8" y1="242" x2="35.8" y2="242" gradientTransform="matrix(1 0 0 1 0 -206)">
			<stop  offset="0" style="stop-color:#FFFFFF"/>
			<stop  offset="1" style="stop-color:#FFFFFF;stop-opacity:0"/>
		</linearGradient>
		<path class="st20" d="M34.8,37h-8c-0.6,0-1-0.4-1-1l0,0c0-0.6,0.4-1,1-1h8c0.6,0,1,0.4,1,1l0,0C35.8,36.6,35.4,37,34.8,37z"/>
		
			<linearGradient id="SVGID_4_" gradientUnits="userSpaceOnUse" x1="33.0103" y1="246" x2="43.0103" y2="246" gradientTransform="matrix(1 0 0 1 0 -206)">
			<stop  offset="0" style="stop-color:#FFFFFF"/>
			<stop  offset="1" style="stop-color:#FFFFFF;stop-opacity:0"/>
		</linearGradient>
		<path class="st21" d="M42.1,41h-8c-0.6,0-1-0.4-1-1l0,0c0-0.6,0.4-1,1-1h8c0.6,0,1,0.4,1,1l0,0C43.1,40.6,42.6,41,42.1,41z"/>
	</g>
	<g>
		<path class="st17" d="M38.5,29L38.5,29c0,1.1-0.9,2-2,2h-16c-1.1,0-2-0.9-2-2l0,0c0-1.1-0.9-2-2-2H8.3c-1.1,0-2-0.9-2-2l0,0
			c0-1.1,0.9-2,2-2h16c1.1,0,2,0.9,2,2l0,0c0,1.1,0.9,2,2,2h8.2C37.6,27,38.5,27.9,38.5,29z"/>
		
			<linearGradient id="SVGID_5_" gradientUnits="userSpaceOnUse" x1="7.3" y1="231" x2="25.3" y2="231" gradientTransform="matrix(1 0 0 1 0 -206)">
			<stop  offset="0" style="stop-color:#FFFFFF"/>
			<stop  offset="1" style="stop-color:#FFFFFF;stop-opacity:0"/>
		</linearGradient>
		<path class="st22" d="M24.3,26h-16c-0.6,0-1-0.4-1-1l0,0c0-0.6,0.4-1,1-1h16c0.6,0,1,0.4,1,1l0,0C25.3,25.5,24.9,26,24.3,26z"/>
		
			<linearGradient id="SVGID_6_" gradientUnits="userSpaceOnUse" x1="19.3" y1="235" x2="37.3" y2="235" gradientTransform="matrix(1 0 0 1 0 -206)">
			<stop  offset="0" style="stop-color:#FFFFFF"/>
			<stop  offset="1" style="stop-color:#FFFFFF;stop-opacity:0"/>
		</linearGradient>
		<path class="st23" d="M36.3,30h-16c-0.6,0-1-0.4-1-1l0,0c0-0.6,0.4-1,1-1h16c0.6,0,1,0.4,1,1l0,0C37.3,29.5,36.9,30,36.3,30z"/>
	</g>
</g>
</svg>
