<?xml version="1.0" encoding="utf-8"?>
<!-- Generator: Adobe Illustrator 24.0.1, SVG Export Plug-In . SVG Version: 6.00 Build 0)  -->
<svg version="1.1"
	 id="svg1306" xmlns:cc="http://creativecommons.org/ns#" xmlns:dc="http://purl.org/dc/elements/1.1/" xmlns:inkscape="http://www.inkscape.org/namespaces/inkscape" xmlns:rdf="http://www.w3.org/1999/02/22-rdf-syntax-ns#" xmlns:sodipodi="http://sodipodi.sourceforge.net/DTD/sodipodi-0.dtd" xmlns:svg="http://www.w3.org/2000/svg"
	 xmlns="http://www.w3.org/2000/svg" xmlns:xlink="http://www.w3.org/1999/xlink" x="0px" y="0px" viewBox="0 0 45 45"
	 style="enable-background:new 0 0 45 45;" xml:space="preserve">
<style type="text/css">
	.st0{fill:#555753;}
	.st1{fill:url(#path8889_2_);}
	.st2{fill:#888A85;}
	.st3{opacity:0.4944;fill:url(#path8897_2_);enable-background:new    ;}
	.st4{opacity:0.4944;fill:url(#path8903_2_);enable-background:new    ;}
	.st5{opacity:0.4944;fill:url(#path8909_2_);enable-background:new    ;}
	.st6{opacity:0.4944;fill:url(#path8915_2_);enable-background:new    ;}
	.st7{fill:#888A85;stroke:#555753;stroke-width:0.9992;stroke-miterlimit:1.9981;}
	.st8{fill:url(#path12582_2_);}
	.st9{opacity:0.4778;fill:url(#path12586_2_);enable-background:new    ;}
	.st10{opacity:0.4778;fill:url(#path12595_2_);enable-background:new    ;}
	.st11{opacity:0.4778;fill:url(#path12599_2_);enable-background:new    ;}
	.st12{opacity:0.4778;fill:url(#path12603_2_);enable-background:new    ;}
	.st13{opacity:0.4778;fill:url(#path12605_2_);enable-background:new    ;}
	.st14{fill-rule:evenodd;clip-rule:evenodd;fill:#555753;}
	.st15{opacity:0.4778;fill:url(#path12611_2_);enable-background:new    ;}
	.st16{fill:url(#path12331_2_);}
	.st17{opacity:0.4778;fill:url(#path12335_2_);enable-background:new    ;}
	.st18{opacity:0.4778;fill:url(#path12343_2_);enable-background:new    ;}
	.st19{opacity:0.4778;fill:url(#path12349_2_);enable-background:new    ;}
	.st20{opacity:0.4778;fill:url(#path12353_2_);enable-background:new    ;}
	.st21{opacity:0.4778;fill:url(#path12355_2_);enable-background:new    ;}
	.st22{opacity:0.4778;fill:url(#path12361_2_);enable-background:new    ;}
	.st23{fill:#FFFFFF;stroke:#729FCF;stroke-miterlimit:10;}
	.st24{fill:#FFFFFF;stroke:#729FCF;stroke-width:1.4748;stroke-miterlimit:1;}
	.st25{fill:#FFFFFF;stroke:#729FCF;stroke-width:1.4678;stroke-miterlimit:1;}
	.st26{fill:#FFFFFF;stroke:#729FCF;stroke-width:0.8992;stroke-miterlimit:1;}
	.st27{fill:#FFFFFF;stroke:#729FCF;stroke-width:0.9182;stroke-miterlimit:1;}
	.st28{fill:#FFFFFF;stroke:#729FCF;stroke-width:1.4641;stroke-miterlimit:1;}
</style>
<g id="layer1_26_">
	<g id="g12627_1_" transform="matrix(0.999675,0.000000,0.000000,1.000000,-286.8482,245.0001)">
		<g id="g12533_1_">
			<path id="path8887_1_" class="st0" d="M310-243.3c-2.8,0-5.1,1.6-6.4,3.8c-0.9-0.5-2-0.8-3.1-0.8c-3.9,0-7,3.1-7,7s3.1,7,7,7
				c2.4,0,4.4-1.3,5.7-3.2c1.1,0.7,2.4,1.2,3.8,1.2c0.9,0,1.8-0.2,2.6-0.5c0.5,0.9,1.2,1.6,2,2.2c0,0.1-0.1,0.2-0.1,0.4
				c0,3.9,3.1,7,7,7s7-3.1,7-7c0-2.4-1.3-4.4-3.1-5.6c0-0.1,0.1-0.2,0.1-0.4c0-3.9-3.1-7-7-7c-0.6,0-1.2,0.2-1.8,0.4
				C315.6-241.5,313-243.3,310-243.3z"/>
			
				<linearGradient id="path8889_2_" gradientUnits="userSpaceOnUse" x1="1088.491" y1="-12.4945" x2="1126.3523" y2="-25.5317" gradientTransform="matrix(0.9991 0 0 -1 -791.4814 -250.0001)">
				<stop  offset="0" style="stop-color:#FFFFFF"/>
				<stop  offset="1" style="stop-color:#FFFFFF;stop-opacity:0"/>
			</linearGradient>
			<path id="path8889_1_" class="st1" d="M310-242.3c-2.8,0-5.1,1.8-6.1,4.2c-1-0.7-2.1-1.2-3.4-1.2c-3.3,0-6,2.7-6,6s2.7,6,6,6
				c2.4,0,4.5-1.5,5.4-3.5c1.1,0.9,2.5,1.5,4.1,1.5c1.1,0,2-0.3,2.9-0.8c0.4,1,1.1,1.8,1.9,2.4c-0.2,0.6-0.4,1.2-0.4,1.8
				c0,3.6,2.9,6.5,6.5,6.5s6.5-2.9,6.5-6.5c0-2.4-1.3-4.3-3.2-5.5c0.1-0.3,0.2-0.7,0.2-1c0-3.3-2.7-6-6-6c-0.9,0-1.7,0.2-2.4,0.5
				C315.3-240.4,312.9-242.3,310-242.3z"/>
			<path id="path8891_1_" class="st2" d="M327.5-225.8c0,3.6-2.9,6.5-6.5,6.5s-6.5-2.9-6.5-6.5l0,0c0-3.6,2.9-6.5,6.5-6.5
				S327.5-229.4,327.5-225.8L327.5-225.8z"/>
			<g id="g12520_1_">
				<path id="path8895_1_" class="st2" d="M315.5-235.8c0,3-2.5,5.5-5.5,5.5s-5.5-2.5-5.5-5.5s2.5-5.5,5.5-5.5
					S315.5-238.8,315.5-235.8z"/>
				
					<linearGradient id="path8897_2_" gradientUnits="userSpaceOnUse" x1="1140.9387" y1="-53.1196" x2="1146.6921" y2="-57.9765" gradientTransform="matrix(0.8817 0 0 -0.8826 -699.7896 -285.8582)">
					<stop  offset="0" style="stop-color:#FFFFFF"/>
					<stop  offset="1" style="stop-color:#FFFFFF;stop-opacity:0"/>
				</linearGradient>
				<path id="path8897_1_" class="st3" d="M315.5-235.8c0,3-2.5,5.5-5.5,5.5s-5.5-2.5-5.5-5.5s2.5-5.5,5.5-5.5
					S315.5-238.8,315.5-235.8z"/>
			</g>
			<g id="g12516_1_">
				<path id="path8901_1_" class="st2" d="M323.5-231.8c0,3-2.5,5.5-5.5,5.5s-5.5-2.5-5.5-5.5l0,0c0-3,2.5-5.5,5.5-5.5
					C321.1-237.3,323.5-234.8,323.5-231.8z"/>
				
					<linearGradient id="path8903_2_" gradientUnits="userSpaceOnUse" x1="1136.2976" y1="-44.0085" x2="1142.2551" y2="-49.9707" gradientTransform="matrix(0.9108 0 0 -0.9117 -721.5077 -276.4689)">
					<stop  offset="0" style="stop-color:#FFFFFF"/>
					<stop  offset="1" style="stop-color:#FFFFFF;stop-opacity:0"/>
				</linearGradient>
				<path id="path8903_1_" class="st4" d="M323.5-231.8c0,3-2.5,5.5-5.5,5.5s-5.5-2.5-5.5-5.5l0,0c0-3,2.5-5.5,5.5-5.5
					C321.1-237.3,323.5-234.8,323.5-231.8z"/>
			</g>
			<g id="g12524_1_">
				<path id="path8907_1_" class="st2" d="M305.5-233.3c0,2.8-2.2,5-5,5s-5-2.2-5-5s2.2-5,5-5S305.5-236.1,305.5-233.3L305.5-233.3z
					"/>
				
					<linearGradient id="path8909_2_" gradientUnits="userSpaceOnUse" x1="1051.9421" y1="24.2288" x2="1056.3226" y2="20.7483" gradientTransform="matrix(1.1416 0 0 -1.1428 -903.6692 -208.1462)">
					<stop  offset="0" style="stop-color:#FFFFFF"/>
					<stop  offset="1" style="stop-color:#FFFFFF;stop-opacity:0"/>
				</linearGradient>
				<path id="path8909_1_" class="st5" d="M305.5-233.3c0,2.8-2.2,5-5,5s-5-2.2-5-5s2.2-5,5-5S305.5-236.1,305.5-233.3L305.5-233.3z
					"/>
			</g>
			<g id="g12529_1_">
				<path id="path8913_1_" class="st2" d="M316.5-229.3c0,3.9-3.1,7-7,7s-7-3.1-7-7l0,0c0-3.9,3.1-7,7-7S316.5-233.2,316.5-229.3
					L316.5-229.3z"/>
				
					<linearGradient id="path8915_2_" gradientUnits="userSpaceOnUse" x1="1085.575" y1="-5.9265" x2="1093.2247" y2="-11.7559" gradientTransform="matrix(1.0377 0 0 -1.0386 -821.8514 -239.1419)">
					<stop  offset="0" style="stop-color:#FFFFFF"/>
					<stop  offset="1" style="stop-color:#FFFFFF;stop-opacity:0"/>
				</linearGradient>
				<path id="path8915_1_" class="st6" d="M316.5-229.3c0,3.9-3.1,7-7,7s-7-3.1-7-7l0,0c0-3.9,3.1-7,7-7S316.5-233.2,316.5-229.3
					L316.5-229.3z"/>
			</g>
		</g>
		<g id="g12578_1_" transform="translate(72.00007,7.999930)">
			<path id="path12580_1_" class="st7" d="M245-238.8c-2.3,0-4.1,1.6-4.7,3.6c-0.7-0.4-1.4-0.6-2.3-0.6c-2.8,0-5,2.2-5,5
				c0,0.6,0.2,1.1,0.3,1.6c-1.4,0.8-2.3,2.2-2.3,3.9c0,2.5,2,4.5,4.5,4.5c0.2,0,18.8,0,19,0c2.5,0,4.5-2,4.5-4.5
				c0-1.7-1-3.1-2.3-3.9c0.2-0.5,0.3-1,0.3-1.6c0-2.8-2.2-5-5-5c-0.8,0-1.6,0.3-2.3,0.6C249.1-237.2,247.3-238.8,245-238.8z"/>
			
				<linearGradient id="path12582_2_" gradientUnits="userSpaceOnUse" x1="914.676" y1="27.8084" x2="928.6829" y2="18.7265" gradientTransform="matrix(0.9991 0 0 -1 -678.6163 -205.9999)">
				<stop  offset="0" style="stop-color:#FFFFFF"/>
				<stop  offset="1" style="stop-color:#FFFFFF;stop-opacity:0"/>
			</linearGradient>
			<path id="path12582_1_" class="st8" d="M245-238.3c-2.2,0-3.7,1.3-4.4,3.8c-0.7-0.3-1.5-0.8-2.4-0.8c-2.7,0-4.8,1.9-4.8,4.5
				c0,0.5,0.3,1.3,0.4,1.8c-1.3,0.7-2.4,1.9-2.4,3.4c0,2.3,1.5,4.3,4.3,4.3c0.2,0,18.2,0,18.3,0c2.8,0,4.3-1.9,4.3-4.3
				c0-1.6-1.1-2.7-2.4-3.4c0.2-0.5,0.5-1.3,0.5-1.8c0-2.6-2.1-4.6-4.8-4.6c-0.8,0-1.6,0.5-2.3,0.8
				C248.8-236.9,247.2-238.3,245-238.3z"/>
			<path id="path12584_1_" class="st2" d="M248.5-233.8c0,1.9-1.6,3.5-3.5,3.5s-3.5-1.6-3.5-3.5s1.6-3.5,3.5-3.5
				C247-237.3,248.5-235.7,248.5-233.8L248.5-233.8z"/>
			
				<linearGradient id="path12586_2_" gradientUnits="userSpaceOnUse" x1="914.5324" y1="43.4205" x2="916.6914" y2="39.9897" gradientTransform="matrix(1.0557 0 0 -1.0566 -721.6974 -189.9102)">
				<stop  offset="0" style="stop-color:#FFFFFF"/>
				<stop  offset="1" style="stop-color:#FFFFFF;stop-opacity:0"/>
			</linearGradient>
			<path id="path12586_1_" class="st9" d="M248.5-233.8c0,1.9-1.6,3.5-3.5,3.5s-3.5-1.6-3.5-3.5s1.6-3.5,3.5-3.5
				C247-237.3,248.5-235.7,248.5-233.8L248.5-233.8z"/>
			<rect id="rect12588_1_" x="235.5" y="-231.3" class="st2" width="20" height="9"/>
			<path id="path12591_1_" class="st2" d="M238.5-225.3c0,1.7-1.3,3-3,3s-3-1.3-3-3s1.3-3,3-3S238.5-227,238.5-225.3L238.5-225.3z"
				/>
			<path id="path12593_1_" class="st2" d="M255.5-230.8c0,1.9-1.6,3.5-3.5,3.5s-3.5-1.6-3.5-3.5s1.6-3.5,3.5-3.5
				C254-234.3,255.5-232.7,255.5-230.8L255.5-230.8z"/>
			
				<linearGradient id="path12595_2_" gradientUnits="userSpaceOnUse" x1="913.5076" y1="44.9391" x2="916.8497" y2="39.7929" gradientTransform="matrix(1.0557 0 0 -1.0566 -714.6974 -186.9102)">
				<stop  offset="0" style="stop-color:#FFFFFF"/>
				<stop  offset="1" style="stop-color:#FFFFFF;stop-opacity:0"/>
			</linearGradient>
			<path id="path12595_1_" class="st10" d="M255.5-230.8c0,1.9-1.6,3.5-3.5,3.5s-3.5-1.6-3.5-3.5s1.6-3.5,3.5-3.5
				C254-234.3,255.5-232.7,255.5-230.8L255.5-230.8z"/>
			<path id="path12597_1_" class="st2" d="M241.5-230.8c0,1.9-1.6,3.5-3.5,3.5s-3.5-1.6-3.5-3.5s1.6-3.5,3.5-3.5
				C240-234.3,241.5-232.7,241.5-230.8L241.5-230.8z"/>
			
				<linearGradient id="path12599_2_" gradientUnits="userSpaceOnUse" x1="913.3826" y1="43.8948" x2="916.8329" y2="40.3988" gradientTransform="matrix(1.0557 0 0 -1.0566 -728.6974 -186.9102)">
				<stop  offset="0" style="stop-color:#FFFFFF"/>
				<stop  offset="1" style="stop-color:#FFFFFF;stop-opacity:0"/>
			</linearGradient>
			<path id="path12599_1_" class="st11" d="M241.5-230.8c0,1.9-1.6,3.5-3.5,3.5s-3.5-1.6-3.5-3.5s1.6-3.5,3.5-3.5
				C240-234.3,241.5-232.7,241.5-230.8L241.5-230.8z"/>
			<path id="path12601_1_" class="st2" d="M244-234.3c-3.6,0-6.5,2.9-6.5,6.5c0,2.4,1.3,4.3,3.3,5.5h6.5c1.9-1.1,3.3-3.1,3.3-5.5
				C250.5-231.4,247.6-234.3,244-234.3z"/>
			
				<linearGradient id="path12603_2_" gradientUnits="userSpaceOnUse" x1="921.5258" y1="25.6054" x2="925.5593" y2="20.4187" gradientTransform="matrix(0.9991 0 0 -1 -679.6163 -205.9999)">
				<stop  offset="0" style="stop-color:#FFFFFF"/>
				<stop  offset="1" style="stop-color:#FFFFFF;stop-opacity:0"/>
			</linearGradient>
			<path id="path12603_1_" class="st12" d="M244-234.3c-3.6,0-6.5,2.9-6.5,6.5c0,2.4,1.3,4.4,3.3,5.5h6.5c1.9-1.1,3.3-3.1,3.3-5.5
				C250.5-231.4,247.6-234.3,244-234.3z"/>
			
				<linearGradient id="path12605_2_" gradientUnits="userSpaceOnUse" x1="962.7576" y1="-5.8224" x2="965.8573" y2="-8.5989" gradientTransform="matrix(0.9048 0 0 -0.9057 -637.3217 -232.0661)">
				<stop  offset="0" style="stop-color:#FFFFFF"/>
				<stop  offset="1" style="stop-color:#FFFFFF;stop-opacity:0"/>
			</linearGradient>
			<path id="path12605_1_" class="st13" d="M238.5-225.3c0,1.7-1.3,3-3,3s-3-1.3-3-3s1.3-3,3-3S238.5-227,238.5-225.3L238.5-225.3z"
				/>
			<path id="path12607_1_" class="st14" d="M257.5-230.6c0,2.7-3.3,3.7-3.3,3.7s2.3-1.6,2.3-3.7H257.5z"/>
			<path id="path12609_1_" class="st2" d="M252.5-226.3c0,2.2-1.8,4-4,4c-2.2,0-4-1.8-4-4s1.8-4,4-4
				C250.7-230.3,252.5-228.5,252.5-226.3L252.5-226.3z"/>
			
				<linearGradient id="path12611_2_" gradientUnits="userSpaceOnUse" x1="875.6382" y1="81.9891" x2="879.7357" y2="77.5872" gradientTransform="matrix(1.2064 0 0 -1.2075 -812.062 -131.7543)">
				<stop  offset="0" style="stop-color:#FFFFFF"/>
				<stop  offset="1" style="stop-color:#FFFFFF;stop-opacity:0"/>
			</linearGradient>
			<path id="path12611_1_" class="st15" d="M252.5-226.3c0,2.2-1.8,4-4,4c-2.2,0-4-1.8-4-4s1.8-4,4-4
				C250.7-230.3,252.5-228.5,252.5-226.3L252.5-226.3z"/>
		</g>
		<g id="g12393_1_" transform="translate(56.98577,3.983930)">
			<path id="path12329_1_" class="st7" d="M245-238.8c-2.3,0-4.1,1.6-4.7,3.6c-0.7-0.4-1.4-0.6-2.3-0.6c-2.8,0-5,2.2-5,5
				c0,0.6,0.2,1.1,0.3,1.6c-1.4,0.8-2.3,2.2-2.3,3.9c0,2.5,2,4.5,4.5,4.5c0.2,0,18.8,0,19,0c2.5,0,4.5-2,4.5-4.5
				c0-1.7-1-3.1-2.3-3.9c0.2-0.5,0.3-1,0.3-1.6c0-2.8-2.2-5-5-5c-0.8,0-1.6,0.3-2.3,0.6C249.1-237.2,247.3-238.8,245-238.8z"/>
			
				<linearGradient id="path12331_2_" gradientUnits="userSpaceOnUse" x1="959.7332" y1="31.8239" x2="973.7401" y2="22.742" gradientTransform="matrix(0.9991 0 0 -1 -723.631 -201.9839)">
				<stop  offset="0" style="stop-color:#FFFFFF"/>
				<stop  offset="1" style="stop-color:#FFFFFF;stop-opacity:0"/>
			</linearGradient>
			<path id="path12331_1_" class="st16" d="M245-238.3c-2.2,0-3.7,1.3-4.4,3.8c-0.7-0.3-1.5-0.8-2.4-0.8c-2.7,0-4.8,1.9-4.8,4.5
				c0,0.5,0.3,1.3,0.4,1.8c-1.3,0.7-2.4,1.9-2.4,3.4c0,2.3,1.5,4.3,4.3,4.3c0.2,0,18.2,0,18.3,0c2.8,0,4.3-1.9,4.3-4.3
				c0-1.6-1.1-2.7-2.4-3.4c0.2-0.5,0.5-1.3,0.5-1.8c0-2.6-2.1-4.6-4.8-4.6c-0.8,0-1.6,0.5-2.3,0.8
				C248.8-236.9,247.2-238.3,245-238.3z"/>
			<path id="path12333_1_" class="st2" d="M248.5-233.8c0,1.9-1.6,3.5-3.5,3.5s-3.5-1.6-3.5-3.5s1.6-3.5,3.5-3.5
				C247-237.3,248.5-235.7,248.5-233.8L248.5-233.8z"/>
			
				<linearGradient id="path12335_2_" gradientUnits="userSpaceOnUse" x1="959.5886" y1="47.4356" x2="961.7477" y2="44.0048" gradientTransform="matrix(1.0557 0 0 -1.0566 -769.2608 -185.6669)">
				<stop  offset="0" style="stop-color:#FFFFFF"/>
				<stop  offset="1" style="stop-color:#FFFFFF;stop-opacity:0"/>
			</linearGradient>
			<path id="path12335_1_" class="st17" d="M248.5-233.8c0,1.9-1.6,3.5-3.5,3.5s-3.5-1.6-3.5-3.5s1.6-3.5,3.5-3.5
				C247-237.3,248.5-235.7,248.5-233.8L248.5-233.8z"/>
			<rect id="rect12337_1_" x="235.5" y="-231.3" class="st2" width="20" height="9"/>
			<path id="path12339_1_" class="st2" d="M238.5-225.3c0,1.7-1.3,3-3,3s-3-1.3-3-3s1.3-3,3-3S238.5-227,238.5-225.3L238.5-225.3z"
				/>
			<path id="path12341_1_" class="st2" d="M255.5-230.8c0,1.9-1.6,3.5-3.5,3.5s-3.5-1.6-3.5-3.5s1.6-3.5,3.5-3.5
				C254-234.3,255.5-232.7,255.5-230.8L255.5-230.8z"/>
			
				<linearGradient id="path12343_2_" gradientUnits="userSpaceOnUse" x1="958.5639" y1="48.9542" x2="961.9059" y2="43.808" gradientTransform="matrix(1.0557 0 0 -1.0566 -762.2608 -182.6669)">
				<stop  offset="0" style="stop-color:#FFFFFF"/>
				<stop  offset="1" style="stop-color:#FFFFFF;stop-opacity:0"/>
			</linearGradient>
			<path id="path12343_1_" class="st18" d="M255.5-230.8c0,1.9-1.6,3.5-3.5,3.5s-3.5-1.6-3.5-3.5s1.6-3.5,3.5-3.5
				C254-234.3,255.5-232.7,255.5-230.8L255.5-230.8z"/>
			<path id="path12347_1_" class="st2" d="M241.5-230.8c0,1.9-1.6,3.5-3.5,3.5s-3.5-1.6-3.5-3.5s1.6-3.5,3.5-3.5
				C240-234.3,241.5-232.7,241.5-230.8L241.5-230.8z"/>
			
				<linearGradient id="path12349_2_" gradientUnits="userSpaceOnUse" x1="958.4394" y1="47.9099" x2="961.8896" y2="44.4138" gradientTransform="matrix(1.0557 0 0 -1.0566 -776.2608 -182.6669)">
				<stop  offset="0" style="stop-color:#FFFFFF"/>
				<stop  offset="1" style="stop-color:#FFFFFF;stop-opacity:0"/>
			</linearGradient>
			<path id="path12349_1_" class="st19" d="M241.5-230.8c0,1.9-1.6,3.5-3.5,3.5s-3.5-1.6-3.5-3.5s1.6-3.5,3.5-3.5
				C240-234.3,241.5-232.7,241.5-230.8L241.5-230.8z"/>
			<path id="path12351_1_" class="st2" d="M244-234.3c-3.6,0-6.5,2.9-6.5,6.5c0,2.4,1.3,4.3,3.3,5.5h6.5c1.9-1.1,3.3-3.1,3.3-5.5
				C250.5-231.4,247.6-234.3,244-234.3z"/>
			
				<linearGradient id="path12353_2_" gradientUnits="userSpaceOnUse" x1="966.5826" y1="29.6207" x2="970.6161" y2="24.434" gradientTransform="matrix(0.9991 0 0 -1 -724.631 -201.9839)">
				<stop  offset="0" style="stop-color:#FFFFFF"/>
				<stop  offset="1" style="stop-color:#FFFFFF;stop-opacity:0"/>
			</linearGradient>
			<path id="path12353_1_" class="st20" d="M244-234.3c-3.6,0-6.5,2.9-6.5,6.5c0,2.4,1.3,4.4,3.3,5.5h6.5c1.9-1.1,3.3-3.1,3.3-5.5
				C250.5-231.4,247.6-234.3,244-234.3z"/>
			
				<linearGradient id="path12355_2_" gradientUnits="userSpaceOnUse" x1="1007.8148" y1="-1.8066" x2="1010.9146" y2="-4.5831" gradientTransform="matrix(0.9048 0 0 -0.9057 -678.0897 -228.429)">
				<stop  offset="0" style="stop-color:#FFFFFF"/>
				<stop  offset="1" style="stop-color:#FFFFFF;stop-opacity:0"/>
			</linearGradient>
			<path id="path12355_1_" class="st21" d="M238.5-225.3c0,1.7-1.3,3-3,3s-3-1.3-3-3s1.3-3,3-3S238.5-227,238.5-225.3L238.5-225.3z"
				/>
			<path id="path12357_1_" class="st14" d="M257.5-230.6c0,2.7-3.3,3.7-3.3,3.7s2.3-1.6,2.3-3.7H257.5z"/>
			<path id="path12359_1_" class="st2" d="M252.5-226.3c0,2.2-1.8,4-4,4s-4-1.8-4-4s1.8-4,4-4S252.5-228.5,252.5-226.3L252.5-226.3z
				"/>
			
				<linearGradient id="path12361_2_" gradientUnits="userSpaceOnUse" x1="920.6957" y1="86.005" x2="924.7932" y2="81.6031" gradientTransform="matrix(1.2064 0 0 -1.2075 -866.4194 -126.9048)">
				<stop  offset="0" style="stop-color:#FFFFFF"/>
				<stop  offset="1" style="stop-color:#FFFFFF;stop-opacity:0"/>
			</linearGradient>
			<path id="path12361_1_" class="st22" d="M252.5-226.3c0,2.2-1.8,4-4,4s-4-1.8-4-4s1.8-4,4-4S252.5-228.5,252.5-226.3L252.5-226.3
				z"/>
		</g>
	</g>
	<g id="g12157_3_" transform="translate(-163.0077,222.0147)">
		<path id="path12159_3_" class="st23" d="M172.1-190.3c0,0.8-0.7,1.5-1.5,1.5s-1.5-0.7-1.5-1.5s0.7-1.5,1.5-1.5
			S172.1-191.1,172.1-190.3z"/>
		<path id="path12161_3_" class="st23" d="M180.1-186.8c0,1.1-0.9,2-2,2s-2-0.9-2-2s0.9-2,2-2S180.1-187.9,180.1-186.8z"/>
		<path id="path12163_3_" class="st24" d="M173.1-182.3c0,0.8-0.7,1.5-1.5,1.5s-1.5-0.7-1.5-1.5s0.7-1.5,1.5-1.5
			S173.1-183.1,173.1-182.3z"/>
		<path id="path12165_3_" class="st25" d="M202.1-185.3c0,0.8-0.7,1.5-1.5,1.5s-1.5-0.7-1.5-1.5s0.7-1.5,1.5-1.5
			S202.1-186.1,202.1-185.3z"/>
		<path id="path12167_3_" class="st26" d="M191-189.3c0,1.4-1.1,2.5-2.4,2.5c-1.4,0-2.4-1.1-2.4-2.5s1.1-2.5,2.4-2.5
			C189.9-191.7,191-190.6,191-189.3z"/>
		<path id="path12169_3_" class="st27" d="M196.1-182.1c0,1.3-1.1,2.3-2.5,2.3s-2.5-1-2.5-2.3s1.1-2.3,2.5-2.3
			S196.1-183.4,196.1-182.1z"/>
		<path id="path12171_3_" class="st28" d="M185.1-181.3c0,0.8-0.7,1.5-1.5,1.5s-1.5-0.7-1.5-1.5s0.7-1.5,1.5-1.5
			S185.1-182.1,185.1-181.3z"/>
	</g>
</g>
</svg>
