<?xml version="1.0" encoding="utf-8"?>
<!-- Generator: Adobe Illustrator 24.0.1, SVG Export Plug-In . SVG Version: 6.00 Build 0)  -->
<svg version="1.1"
	 id="svg1306" xmlns:cc="http://creativecommons.org/ns#" xmlns:dc="http://purl.org/dc/elements/1.1/" xmlns:inkscape="http://www.inkscape.org/namespaces/inkscape" xmlns:rdf="http://www.w3.org/1999/02/22-rdf-syntax-ns#" xmlns:sodipodi="http://sodipodi.sourceforge.net/DTD/sodipodi-0.dtd" xmlns:svg="http://www.w3.org/2000/svg"
	 xmlns="http://www.w3.org/2000/svg" xmlns:xlink="http://www.w3.org/1999/xlink" x="0px" y="0px" viewBox="0 0 45 45"
	 style="enable-background:new 0 0 45 45;" xml:space="preserve">
<style type="text/css">
	.st0{fill:#C4C5C2;stroke:#888A85;stroke-miterlimit:2;}
	.st1{fill:url(#path6787_1_);}
	.st2{fill:#C4C5C2;}
	.st3{fill:url(#path6793_1_);}
	.st4{fill:url(#path6803_1_);}
	.st5{fill:url(#path6809_1_);}
	.st6{fill:url(#path6815_1_);}
	.st7{fill:url(#path6817_1_);}
	.st8{fill-rule:evenodd;clip-rule:evenodd;fill:#888A85;}
	.st9{fill:url(#path6825_1_);}
	.st10{opacity:0.7;}
	.st11{fill:#FCE94F;stroke:#FCAF3E;stroke-width:0.7373;stroke-linecap:square;}
	.st12{fill:none;stroke:url(#path7494_1_);stroke-width:0.8465;stroke-linecap:square;}
	.st13{fill:#FFEE54;stroke:#FCAF3E;stroke-width:1;stroke-linecap:square;stroke-miterlimit:5.2638;}
	.st14{fill:url(#path7500_1_);}
	.st15{fill:none;stroke:url(#path7502_1_);stroke-width:1;stroke-linecap:square;stroke-miterlimit:4.8425;}
	.st16{fill:url(#path6672_1_);}
	.st17{fill:url(#path6678_1_);}
	.st18{fill:url(#path6688_1_);}
	.st19{fill:url(#path6694_1_);}
	.st20{fill:url(#path6700_1_);}
	.st21{fill:url(#path6702_1_);}
	.st22{fill:url(#path6710_1_);}
</style>
<g id="layer1">
	<g id="g6783" transform="translate(-263.99,459.9855)">
		<path id="path6785" class="st0" d="M279.2-446.8c-2.2,0-4,1.5-4.6,3.5c-0.7-0.4-1.4-0.6-2.2-0.6c-2.7,0-4.9,2.2-4.9,4.9
			c0,0.6,0.2,1.1,0.3,1.6c-1.3,0.8-2.3,2.1-2.3,3.8c0,2.4,2,4.4,4.4,4.4c0.2,0,18.4,0,18.6,0c2.4,0,4.4-2,4.4-4.4
			c0-1.6-0.9-3-2.3-3.8c0.2-0.5,0.3-1,0.3-1.6c0-2.7-2.2-4.9-4.9-4.9c-0.8,0-1.6,0.3-2.2,0.6C283.2-445.3,281.4-446.8,279.2-446.8z"
			/>
		
			<linearGradient id="path6787_1_" gradientUnits="userSpaceOnUse" x1="533.6019" y1="31.9865" x2="547.283" y2="23.1158" gradientTransform="matrix(1 0 0 -1 -263.99 -409.9855)">
			<stop  offset="0" style="stop-color:#FFFFFF"/>
			<stop  offset="1" style="stop-color:#FFFFFF;stop-opacity:0"/>
		</linearGradient>
		<path id="path6787" class="st1" d="M279.2-446.3c-2.1,0-3.6,1.3-4.3,3.8c-0.7-0.3-1.5-0.8-2.3-0.8c-2.7,0-4.6,1.9-4.6,4.4
			c0,0.5,0.3,1.3,0.4,1.8c-1.3,0.7-2.4,1.8-2.4,3.3c0,2.3,1.5,4.2,4.2,4.2c0.2,0,17.7,0,17.9,0c2.7,0,4.2-1.9,4.2-4.2
			c0-1.6-1.1-2.6-2.4-3.3c0.2-0.5,0.5-1.2,0.5-1.8c0-2.5-2.1-4.5-4.7-4.5c-0.8,0-1.6,0.5-2.3,0.8
			C282.9-444.9,281.3-446.3,279.2-446.3z"/>
		<g id="g6789">
			<path id="path6791" class="st2" d="M282.6-441.9c0,1.9-1.5,3.4-3.4,3.4s-3.4-1.5-3.4-3.4s1.5-3.4,3.4-3.4
				S282.6-443.8,282.6-441.9L282.6-441.9z"/>
			
				<linearGradient id="path6793_1_" gradientUnits="userSpaceOnUse" x1="544.3994" y1="36.3347" x2="546.5082" y2="32.9836" gradientTransform="matrix(1.0566 0 0 -1.0566 -297.3008 -405.4988)">
				<stop  offset="0" style="stop-color:#FFFFFF"/>
				<stop  offset="1" style="stop-color:#FFFFFF;stop-opacity:0"/>
			</linearGradient>
			<path id="path6793" class="st3" d="M282.6-441.9c0,1.9-1.5,3.4-3.4,3.4s-3.4-1.5-3.4-3.4s1.5-3.4,3.4-3.4
				S282.6-443.8,282.6-441.9L282.6-441.9z"/>
		</g>
		<rect id="rect6795" x="269.9" y="-439.5" class="st2" width="19.5" height="8.8"/>
		<path id="path6797" class="st2" d="M272.8-433.6c0,1.6-1.3,2.9-2.9,2.9s-2.9-1.3-2.9-2.9s1.3-2.9,2.9-2.9S272.8-435.2,272.8-433.6
			L272.8-433.6z"/>
		<g id="g6799">
			<path id="path6801" class="st2" d="M289.4-439c0,1.9-1.5,3.4-3.4,3.4s-3.4-1.5-3.4-3.4c0-1.9,1.5-3.4,3.4-3.4
				S289.4-440.9,289.4-439L289.4-439z"/>
			
				<linearGradient id="path6803_1_" gradientUnits="userSpaceOnUse" x1="543.2443" y1="37.8836" x2="546.5087" y2="32.8571" gradientTransform="matrix(1.0566 0 0 -1.0566 -290.3008 -402.4988)">
				<stop  offset="0" style="stop-color:#FFFFFF"/>
				<stop  offset="1" style="stop-color:#FFFFFF;stop-opacity:0"/>
			</linearGradient>
			<path id="path6803" class="st4" d="M289.4-439c0,1.9-1.5,3.4-3.4,3.4c-1.9,0-3.4-1.5-3.4-3.4s1.5-3.4,3.4-3.4
				C287.9-442.4,289.4-440.9,289.4-439L289.4-439z"/>
		</g>
		<g id="g6805">
			<path id="path6807" class="st2" d="M275.8-439c0,1.9-1.5,3.4-3.4,3.4c-1.9,0-3.4-1.5-3.4-3.4s1.5-3.4,3.4-3.4
				C274.2-442.4,275.8-440.9,275.8-439L275.8-439z"/>
			
				<linearGradient id="path6809_1_" gradientUnits="userSpaceOnUse" x1="543.4234" y1="36.8615" x2="546.7935" y2="33.4467" gradientTransform="matrix(1.0566 0 0 -1.0566 -304.3008 -402.4988)">
				<stop  offset="0" style="stop-color:#FFFFFF"/>
				<stop  offset="1" style="stop-color:#FFFFFF;stop-opacity:0"/>
			</linearGradient>
			<path id="path6809" class="st5" d="M275.8-439c0,1.9-1.5,3.4-3.4,3.4c-1.9,0-3.4-1.5-3.4-3.4s1.5-3.4,3.4-3.4
				C274.2-442.4,275.8-440.9,275.8-439L275.8-439z"/>
		</g>
		<g id="g6811" transform="translate(-1.000000,0.000000)">
			<path id="path6813" class="st2" d="M279.2-442.4c-3.5,0-6.3,2.9-6.3,6.3c0,2.3,1.3,4.2,3.2,5.3h6.3c1.9-1.1,3.2-3.1,3.2-5.4
				C285.5-439.5,282.7-442.4,279.2-442.4z"/>
			
				<linearGradient id="path6815_1_" gradientUnits="userSpaceOnUse" x1="541.3" y1="29.8141" x2="545.2397" y2="24.748" gradientTransform="matrix(1 0 0 -1 -264.99 -409.9855)">
				<stop  offset="0" style="stop-color:#FFFFFF"/>
				<stop  offset="1" style="stop-color:#FFFFFF;stop-opacity:0"/>
			</linearGradient>
			<path id="path6815" class="st6" d="M279.2-442.4c-3.5,0-6.3,2.8-6.3,6.3c0,2.3,1.3,4.3,3.2,5.4h6.3c1.9-1.1,3.2-3.1,3.2-5.4
				C285.5-439.5,282.7-442.4,279.2-442.4z"/>
		</g>
		
			<linearGradient id="path6817_1_" gradientUnits="userSpaceOnUse" x1="560.0253" y1="20.289" x2="563.0529" y2="17.577" gradientTransform="matrix(0.9057 0 0 -0.9057 -238.9719 -416.7133)">
			<stop  offset="0" style="stop-color:#FFFFFF"/>
			<stop  offset="1" style="stop-color:#FFFFFF;stop-opacity:0"/>
		</linearGradient>
		<path id="path6817" class="st7" d="M272.8-433.6c0,1.6-1.3,2.9-2.9,2.9s-2.9-1.3-2.9-2.9s1.3-2.9,2.9-2.9S272.8-435.2,272.8-433.6
			L272.8-433.6z"/>
		<path id="path6819" class="st8" d="M291.3-438.8c0,2.6-3.2,3.6-3.2,3.6s2.3-1.6,2.3-3.6L291.3-438.8z"/>
		<g id="g6821" transform="matrix(1.142857,0.000000,0.000000,1.142857,-28.57139,67.00008)">
			<path id="path6823" class="st2" d="M275.7-438.9c0,1.9-1.5,3.4-3.4,3.4c-1.9,0-3.4-1.5-3.4-3.4c0-1.9,1.5-3.4,3.4-3.4
				C274.2-442.3,275.7-440.8,275.7-438.9L275.7-438.9z"/>
			
				<linearGradient id="path6825_1_" gradientUnits="userSpaceOnUse" x1="488.8373" y1="-14.6511" x2="492.8394" y2="-18.9506" gradientTransform="matrix(1.2075 0 0 -1.2075 -321.6145 -460.4164)">
				<stop  offset="0" style="stop-color:#FFFFFF"/>
				<stop  offset="1" style="stop-color:#FFFFFF;stop-opacity:0"/>
			</linearGradient>
			<path id="path6825" class="st9" d="M275.7-438.9c0,1.9-1.5,3.4-3.4,3.4c-1.9,0-3.4-1.5-3.4-3.4c0-1.9,1.5-3.4,3.4-3.4
				C274.2-442.3,275.7-440.8,275.7-438.9L275.7-438.9z"/>
		</g>
	</g>
	<g id="g3936">
		<g id="g4091" class="st10">
			<path id="path7492" class="st11" d="M22.5,1.5L20.2,8c0.8-0.1,1.5-0.2,2.3-0.2s1.6,0.1,2.3,0.2L22.5,1.5z M7.7,7.6l3,6.3
				c0.9-1.3,2-2.4,3.3-3.3L7.7,7.6z M37.4,7.6l-6.3,3c1.3,0.9,2.4,2,3.3,3.3L37.4,7.6z M8,20.1l-6.5,2.3L8,24.8
				c-0.1-0.7-0.2-1.5-0.2-2.3C7.8,21.7,7.9,20.9,8,20.1z M37,20.2c0.1,0.8,0.2,1.5,0.2,2.3s-0.1,1.6-0.2,2.3l6.5-2.3L37,20.2z
				 M10.6,31.1l-3,6.3l6.3-3C12.7,33.5,11.5,32.3,10.6,31.1z M34.4,31.1c-0.9,1.2-2,2.4-3.3,3.3l6.3,3L34.4,31.1z M20.2,37l2.3,6.5
				l2.3-6.5c-0.8,0.1-1.5,0.2-2.3,0.2S20.9,37.1,20.2,37z"/>
			
				<radialGradient id="path7494_1_" cx="21.8195" cy="28.8805" r="18.723" gradientTransform="matrix(1.0067 0 0 -1.0075 0.5294 51.5778)" gradientUnits="userSpaceOnUse">
				<stop  offset="0" style="stop-color:#FFFFFF;stop-opacity:0"/>
				<stop  offset="0.75" style="stop-color:#FFFFFF;stop-opacity:0"/>
				<stop  offset="1" style="stop-color:#FFFFFF"/>
			</radialGradient>
			<path id="path7494" class="st12" d="M22.5,4.2l-1.3,3.7c0.4,0,0.9-0.1,1.3-0.1s0.9,0,1.3,0.1L22.5,4.2z M9.6,9.6l1.7,3.5
				c0.6-0.7,1.2-1.3,1.9-1.9L9.6,9.6z M35.4,9.6l-3.5,1.7c0.7,0.6,1.3,1.2,1.9,1.9L35.4,9.6z M7.9,21.2l-3.7,1.3l3.7,1.3
				c0-0.4-0.1-0.9-0.1-1.3C7.8,22,7.9,21.6,7.9,21.2z M37.1,21.2c0,0.4,0.1,0.9,0.1,1.3s0,0.9-0.1,1.3l3.7-1.3L37.1,21.2z
				 M33.8,31.9c-0.6,0.7-1.2,1.3-1.9,1.9l3.5,1.7L33.8,31.9z M11.3,31.9l-1.7,3.5l3.5-1.7C12.4,33.2,11.8,32.6,11.3,31.9z
				 M21.2,37.1l1.3,3.7l1.3-3.7c-0.4,0-0.9,0.1-1.3,0.1S21.6,37.1,21.2,37.1z"/>
		</g>
		<g id="g4046">
			<g id="g3931">
				<path id="path7498" class="st13" d="M29.7,12.6c5.4,4,6.6,11.6,2.6,17.1s-11.6,6.6-17.1,2.6s-6.6-11.6-2.6-17.1
					S24.3,8.7,29.7,12.6z"/>
				
					<radialGradient id="path7500_1_" cx="-57.3333" cy="199.9026" r="9.2791" gradientTransform="matrix(0.8869 1.5361 1.2643 -0.8074 -182.4269 266.8597)" gradientUnits="userSpaceOnUse">
					<stop  offset="0" style="stop-color:#FFF7C2;stop-opacity:0.6383"/>
					<stop  offset="0.5939" style="stop-color:#FCAF3E;stop-opacity:0.1835"/>
					<stop  offset="0.8385" style="stop-color:#FCAF3E;stop-opacity:0.5046"/>
					<stop  offset="1" style="stop-color:#FCAF3E"/>
				</radialGradient>
				<path id="path7500" class="st14" d="M34,20.9c1.1,6.4-3.2,12.3-9.5,13.2S12.1,30.5,11,24s3.2-12.3,9.5-13.2
					C26.9,10,32.9,14.5,34,20.9z"/>
				
					<linearGradient id="path7502_1_" gradientUnits="userSpaceOnUse" x1="-149.2738" y1="60.547" x2="-157.3201" y2="45.1276" gradientTransform="matrix(0.7158 -0.9763 -0.9764 -0.7158 184.1085 -88.7782)">
					<stop  offset="0" style="stop-color:#FFF9C6"/>
					<stop  offset="0.5417" style="stop-color:#FFF28C"/>
					<stop  offset="1" style="stop-color:#FFEA85"/>
				</linearGradient>
				<path id="path7502" class="st15" d="M29.1,13.4c5,3.7,6.1,10.7,2.4,15.7s-10.7,6.1-15.7,2.4s-6.1-10.7-2.4-15.7
					S24.1,9.8,29.1,13.4z"/>
			</g>
		</g>
	</g>
	<g id="g6668" transform="translate(-248.99,467.9855)">
		<path id="path6670" class="st0" d="M278.8-447c-2.2,0-4,1.5-4.6,3.5c-0.7-0.4-1.4-0.6-2.2-0.6c-2.7,0-4.9,2.2-4.9,4.9
			c0,0.6,0.2,1.1,0.3,1.6c-1.3,0.8-2.3,2.1-2.3,3.8c0,2.4,2,4.4,4.4,4.4c0.2,0,18.4,0,18.6,0c2.4,0,4.4-2,4.4-4.4
			c0-1.6-0.9-3-2.3-3.8c0.2-0.5,0.3-1,0.3-1.6c0-2.7-2.2-4.9-4.9-4.9c-0.8,0-1.6,0.3-2.2,0.6C282.8-445.5,281-447,278.8-447z"/>
		
			<linearGradient id="path6672_1_" gradientUnits="userSpaceOnUse" x1="518.2531" y1="24.1726" x2="531.9342" y2="15.3019" gradientTransform="matrix(1 0 0 -1 -248.99 -417.9855)">
			<stop  offset="0" style="stop-color:#FFFFFF"/>
			<stop  offset="1" style="stop-color:#FFFFFF;stop-opacity:0"/>
		</linearGradient>
		<path id="path6672" class="st16" d="M278.8-446.5c-2.1,0-3.6,1.3-4.3,3.8c-0.7-0.3-1.5-0.8-2.3-0.8c-2.7,0-4.6,1.9-4.6,4.4
			c0,0.5,0.3,1.3,0.4,1.8c-1.3,0.7-2.4,1.8-2.4,3.3c0,2.3,1.5,4.2,4.2,4.2c0.2,0,17.7,0,17.9,0c2.7,0,4.2-1.9,4.2-4.2
			c0-1.6-1.1-2.6-2.4-3.3c0.2-0.5,0.5-1.2,0.5-1.8c0-2.5-2.1-4.5-4.7-4.5c-0.8,0-1.6,0.5-2.3,0.8C282.5-445.1,281-446.5,278.8-446.5
			z"/>
		<g id="g6674">
			<path id="path6676" class="st2" d="M282.2-442.1c0,1.9-1.5,3.4-3.4,3.4c-1.9,0-3.4-1.5-3.4-3.4c0-1.9,1.5-3.4,3.4-3.4
				C280.7-445.5,282.2-444,282.2-442.1L282.2-442.1z"/>
			
				<linearGradient id="path6678_1_" gradientUnits="userSpaceOnUse" x1="529.0693" y1="28.5107" x2="531.1781" y2="25.1597" gradientTransform="matrix(1.0566 0 0 -1.0566 -281.4518 -413.9516)">
				<stop  offset="0" style="stop-color:#FFFFFF"/>
				<stop  offset="1" style="stop-color:#FFFFFF;stop-opacity:0"/>
			</linearGradient>
			<path id="path6678" class="st17" d="M282.2-442.1c0,1.9-1.5,3.4-3.4,3.4c-1.9,0-3.4-1.5-3.4-3.4c0-1.9,1.5-3.4,3.4-3.4
				C280.7-445.5,282.2-444,282.2-442.1L282.2-442.1z"/>
		</g>
		<rect id="rect6680" x="269.5" y="-439.6" class="st2" width="19.5" height="8.8"/>
		<path id="path6682" class="st2" d="M272.5-433.8c0,1.6-1.3,2.9-2.9,2.9s-2.9-1.3-2.9-2.9s1.3-2.9,2.9-2.9S272.5-435.4,272.5-433.8
			L272.5-433.8z"/>
		<g id="g6684">
			<path id="path6686" class="st2" d="M289.1-439.2c0,1.9-1.5,3.4-3.4,3.4s-3.4-1.5-3.4-3.4c0-1.9,1.5-3.4,3.4-3.4
				S289.1-441,289.1-439.2L289.1-439.2z"/>
			
				<linearGradient id="path6688_1_" gradientUnits="userSpaceOnUse" x1="527.9142" y1="30.0597" x2="531.1785" y2="25.0331" gradientTransform="matrix(1.0566 0 0 -1.0566 -274.4518 -410.9516)">
				<stop  offset="0" style="stop-color:#FFFFFF"/>
				<stop  offset="1" style="stop-color:#FFFFFF;stop-opacity:0"/>
			</linearGradient>
			<path id="path6688" class="st18" d="M289.1-439.2c0,1.9-1.5,3.4-3.4,3.4s-3.4-1.5-3.4-3.4c0-1.9,1.5-3.4,3.4-3.4
				S289.1-441,289.1-439.2L289.1-439.2z"/>
		</g>
		<g id="g6690">
			<path id="path6692" class="st2" d="M275.4-439.2c0,1.9-1.5,3.4-3.4,3.4c-1.9,0-3.4-1.5-3.4-3.4c0-1.9,1.5-3.4,3.4-3.4
				C273.9-442.6,275.4-441,275.4-439.2L275.4-439.2z"/>
			
				<linearGradient id="path6694_1_" gradientUnits="userSpaceOnUse" x1="528.0933" y1="29.0376" x2="531.4634" y2="25.6228" gradientTransform="matrix(1.0566 0 0 -1.0566 -288.4518 -410.9516)">
				<stop  offset="0" style="stop-color:#FFFFFF"/>
				<stop  offset="1" style="stop-color:#FFFFFF;stop-opacity:0"/>
			</linearGradient>
			<path id="path6694" class="st19" d="M275.4-439.2c0,1.9-1.5,3.4-3.4,3.4c-1.9,0-3.4-1.5-3.4-3.4c0-1.9,1.5-3.4,3.4-3.4
				C273.9-442.6,275.4-441,275.4-439.2L275.4-439.2z"/>
		</g>
		<g id="g6696" transform="translate(-1.000000,0.000000)">
			<path id="path6698" class="st2" d="M278.8-442.5c-3.5,0-6.3,2.9-6.3,6.3c0,2.3,1.3,4.2,3.2,5.3h6.3c1.9-1.1,3.2-3.1,3.2-5.4
				C285.2-439.7,282.3-442.5,278.8-442.5z"/>
			
				<linearGradient id="path6700_1_" gradientUnits="userSpaceOnUse" x1="525.9512" y1="22.0001" x2="529.8909" y2="16.9341" gradientTransform="matrix(1 0 0 -1 -249.99 -417.9855)">
				<stop  offset="0" style="stop-color:#FFFFFF"/>
				<stop  offset="1" style="stop-color:#FFFFFF;stop-opacity:0"/>
			</linearGradient>
			<path id="path6700" class="st20" d="M278.8-442.6c-3.5,0-6.3,2.8-6.3,6.3c0,2.3,1.3,4.3,3.2,5.4h6.3c1.9-1.1,3.2-3.1,3.2-5.4
				C285.2-439.7,282.3-442.6,278.8-442.6z"/>
		</g>
		
			<linearGradient id="path6702_1_" gradientUnits="userSpaceOnUse" x1="544.6401" y1="12.4944" x2="547.6677" y2="9.7824" gradientTransform="matrix(0.9057 0 0 -0.9057 -225.387 -423.9586)">
			<stop  offset="0" style="stop-color:#FFFFFF"/>
			<stop  offset="1" style="stop-color:#FFFFFF;stop-opacity:0"/>
		</linearGradient>
		<path id="path6702" class="st21" d="M272.5-433.8c0,1.6-1.3,2.9-2.9,2.9s-2.9-1.3-2.9-2.9s1.3-2.9,2.9-2.9
			S272.5-435.4,272.5-433.8L272.5-433.8z"/>
		<path id="path6704" class="st8" d="M291-439c0,2.6-3.2,3.6-3.2,3.6s2.3-1.6,2.3-3.6L291-439z"/>
		<g id="g6706" transform="matrix(1.142857,0.000000,0.000000,1.142857,-28.57139,67.00008)">
			<path id="path6708" class="st2" d="M275.4-439c0,1.9-1.5,3.4-3.4,3.4c-1.9,0-3.4-1.5-3.4-3.4s1.5-3.4,3.4-3.4
				C273.8-442.5,275.4-440.9,275.4-439L275.4-439z"/>
			
				<linearGradient id="path6710_1_" gradientUnits="userSpaceOnUse" x1="475.4596" y1="-21.5163" x2="479.4616" y2="-25.8158" gradientTransform="matrix(1.2075 0 0 -1.2075 -305.7654 -468.8692)">
				<stop  offset="0" style="stop-color:#FFFFFF"/>
				<stop  offset="1" style="stop-color:#FFFFFF;stop-opacity:0"/>
			</linearGradient>
			<path id="path6710" class="st22" d="M275.4-439c0,1.9-1.5,3.4-3.4,3.4c-1.9,0-3.4-1.5-3.4-3.4s1.5-3.4,3.4-3.4
				C273.8-442.5,275.4-440.9,275.4-439L275.4-439z"/>
		</g>
	</g>
</g>
</svg>
