<?xml version="1.0" encoding="utf-8"?>
<!-- Generator: Adobe Illustrator 24.0.1, SVG Export Plug-In . SVG Version: 6.00 Build 0)  -->
<svg version="1.1"
	 id="svg1306" xmlns:cc="http://creativecommons.org/ns#" xmlns:dc="http://purl.org/dc/elements/1.1/" xmlns:inkscape="http://www.inkscape.org/namespaces/inkscape" xmlns:rdf="http://www.w3.org/1999/02/22-rdf-syntax-ns#" xmlns:sodipodi="http://sodipodi.sourceforge.net/DTD/sodipodi-0.dtd" xmlns:svg="http://www.w3.org/2000/svg"
	 xmlns="http://www.w3.org/2000/svg" xmlns:xlink="http://www.w3.org/1999/xlink" x="0px" y="0px" viewBox="0 0 45 45"
	 style="enable-background:new 0 0 45 45;" xml:space="preserve">
<style type="text/css">
	.st0{fill:#729FCF;stroke:#204A87;stroke-width:1.0746;stroke-miterlimit:2;}
	.st1{opacity:0.4611;fill:url(#path12231_2_);enable-background:new    ;}
	.st2{fill:url(#path12233_1_);}
	.st3{fill:#555753;}
	.st4{fill:url(#path8889_1_);}
	.st5{fill:#888A85;}
	.st6{opacity:0.4944;fill:url(#path8897_1_);enable-background:new    ;}
	.st7{opacity:0.4944;fill:url(#path8903_1_);enable-background:new    ;}
	.st8{opacity:0.4944;fill:url(#path8909_1_);enable-background:new    ;}
	.st9{opacity:0.4944;fill:url(#path8915_1_);enable-background:new    ;}
	.st10{fill:#888A85;stroke:#555753;stroke-width:0.9992;stroke-miterlimit:1.9981;}
	.st11{fill:url(#path12582_1_);}
	.st12{opacity:0.4778;fill:url(#path12586_1_);enable-background:new    ;}
	.st13{opacity:0.4778;fill:url(#path12595_1_);enable-background:new    ;}
	.st14{opacity:0.4778;fill:url(#path12599_1_);enable-background:new    ;}
	.st15{opacity:0.4778;fill:url(#path12603_1_);enable-background:new    ;}
	.st16{opacity:0.4778;fill:url(#path12605_1_);enable-background:new    ;}
	.st17{fill-rule:evenodd;clip-rule:evenodd;fill:#555753;}
	.st18{opacity:0.4778;fill:url(#path12611_1_);enable-background:new    ;}
	.st19{fill:url(#path12331_1_);}
	.st20{opacity:0.4778;fill:url(#path12335_1_);enable-background:new    ;}
	.st21{opacity:0.4778;fill:url(#path12343_1_);enable-background:new    ;}
	.st22{opacity:0.4778;fill:url(#path12349_1_);enable-background:new    ;}
	.st23{opacity:0.4778;fill:url(#path12353_1_);enable-background:new    ;}
	.st24{opacity:0.4778;fill:url(#path12355_1_);enable-background:new    ;}
	.st25{opacity:0.4778;fill:url(#path12361_1_);enable-background:new    ;}
	.st26{opacity:0.4611;fill:url(#path12195_2_);enable-background:new    ;}
	.st27{fill:url(#path12197_2_);}
	.st28{opacity:0.4611;fill:url(#path6061_2_);enable-background:new    ;}
	.st29{fill:url(#path6063_2_);}
	.st30{opacity:0.4611;fill:url(#path12207_1_);enable-background:new    ;}
	.st31{fill:url(#path12209_1_);}
	.st32{opacity:0.4611;fill:url(#path12219_2_);enable-background:new    ;}
	.st33{fill:url(#path12221_2_);}
	.st34{fill:#FFFFFF;stroke:#729FCF;stroke-miterlimit:10;}
	.st35{fill:#FFFFFF;stroke:#729FCF;stroke-width:1.4748;stroke-miterlimit:1;}
	.st36{fill:#FFFFFF;stroke:#729FCF;stroke-width:1.4678;stroke-miterlimit:1;}
	.st37{fill:#FFFFFF;stroke:#729FCF;stroke-width:0.8992;stroke-miterlimit:1;}
</style>
<g id="layer1_29_">
	<g id="g12227_1_" transform="translate(-202.9549,271.0066)">
		<path id="path12229_1_" class="st0" d="M231.1-229.1c-1-0.6-1.4-1.9-0.8-2.9c1.3-2.1,3.1-1.5,4-3.7
			C235.6-234.4,235.1-227.5,231.1-229.1z"/>
		
			<radialGradient id="path12231_2_" cx="5485.0288" cy="-615.8513" r="21.7436" gradientTransform="matrix(7.065158e-02 4.154803e-02 6.201499e-02 -0.1094 -117.1267 -526.3235)" gradientUnits="userSpaceOnUse">
			<stop  offset="0" style="stop-color:#FFFFFF"/>
			<stop  offset="1" style="stop-color:#FFFFFF;stop-opacity:0"/>
		</radialGradient>
		<path id="path12231_1_" class="st1" d="M233.8-230.2c-0.5,0.9-1.6,1.2-2.4,0.7c-0.8-0.5-1.1-1.6-0.6-2.5s2.6-0.5,3.3-2.3
			C234.9-233.8,234.3-231.1,233.8-230.2z"/>
		
			<linearGradient id="path12233_1_" gradientUnits="userSpaceOnUse" x1="1121.9009" y1="4057.5518" x2="1142.407" y2="4079.0303" gradientTransform="matrix(-5.358613e-02 0.1028 9.281434e-02 5.937964e-02 -84.9951 -590.1888)">
			<stop  offset="0" style="stop-color:#FFFFFF"/>
			<stop  offset="1" style="stop-color:#FFFFFF;stop-opacity:0"/>
		</linearGradient>
		<path id="path12233_4_" class="st2" d="M232.5-229.3c-4.6-1.1,0.2-4.7,1-3.9C229.9-231.9,232.5-229.3,232.5-229.3z"/>
	</g>
	<g id="g12627_5_" transform="matrix(0.999675,0.000000,0.000000,1.000000,-286.8482,245.0001)">
		<g id="g12533_5_">
			<path id="path8887_5_" class="st3" d="M310-243.3c-2.8,0-5.1,1.6-6.4,3.8c-0.9-0.5-2-0.8-3.1-0.8c-3.9,0-7,3.1-7,7s3.1,7,7,7
				c2.4,0,4.4-1.3,5.7-3.2c1.1,0.7,2.4,1.2,3.8,1.2c0.9,0,1.8-0.2,2.6-0.5c0.5,0.9,1.2,1.6,2,2.2c0,0.1-0.1,0.2-0.1,0.4
				c0,3.9,3.1,7,7,7s7-3.1,7-7c0-2.4-1.3-4.4-3.1-5.6c0-0.1,0.1-0.2,0.1-0.4c0-3.9-3.1-7-7-7c-0.6,0-1.2,0.2-1.8,0.4
				C315.5-241.5,313-243.3,310-243.3z"/>
			
				<linearGradient id="path8889_1_" gradientUnits="userSpaceOnUse" x1="1088.4415" y1="-12.4872" x2="1126.3027" y2="-25.5245" gradientTransform="matrix(0.9991 0 0 -1 -791.4814 -250.0001)">
				<stop  offset="0" style="stop-color:#FFFFFF"/>
				<stop  offset="1" style="stop-color:#FFFFFF;stop-opacity:0"/>
			</linearGradient>
			<path id="path8889_5_" class="st4" d="M310-242.3c-2.8,0-5.1,1.8-6.1,4.2c-1-0.7-2.1-1.2-3.4-1.2c-3.3,0-6,2.7-6,6s2.7,6,6,6
				c2.4,0,4.5-1.5,5.4-3.5c1.1,0.9,2.5,1.5,4.1,1.5c1.1,0,2-0.3,2.9-0.8c0.4,1,1.1,1.8,1.9,2.4c-0.2,0.6-0.4,1.2-0.4,1.8
				c0,3.6,2.9,6.5,6.5,6.5s6.5-2.9,6.5-6.5c0-2.4-1.3-4.3-3.2-5.5c0.1-0.3,0.2-0.7,0.2-1c0-3.3-2.7-6-6-6c-0.9,0-1.7,0.2-2.4,0.5
				C315.2-240.4,312.9-242.3,310-242.3z"/>
			<path id="path8891_5_" class="st5" d="M327.5-225.8c0,3.6-2.9,6.5-6.5,6.5s-6.5-2.9-6.5-6.5l0,0c0-3.6,2.9-6.5,6.5-6.5
				S327.5-229.4,327.5-225.8L327.5-225.8z"/>
			<g id="g12520_5_">
				<path id="path8895_5_" class="st5" d="M315.5-235.8c0,3-2.5,5.5-5.5,5.5s-5.5-2.5-5.5-5.5s2.5-5.5,5.5-5.5
					S315.5-238.8,315.5-235.8z"/>
				
					<linearGradient id="path8897_1_" gradientUnits="userSpaceOnUse" x1="1140.9028" y1="-53.0976" x2="1146.6561" y2="-57.9545" gradientTransform="matrix(0.8817 0 0 -0.8826 -699.7896 -285.8582)">
					<stop  offset="0" style="stop-color:#FFFFFF"/>
					<stop  offset="1" style="stop-color:#FFFFFF;stop-opacity:0"/>
				</linearGradient>
				<path id="path8897_5_" class="st6" d="M315.5-235.8c0,3-2.5,5.5-5.5,5.5s-5.5-2.5-5.5-5.5s2.5-5.5,5.5-5.5
					S315.5-238.8,315.5-235.8z"/>
			</g>
			<g id="g12516_5_">
				<path id="path8901_5_" class="st5" d="M323.5-231.8c0,3-2.5,5.5-5.5,5.5s-5.5-2.5-5.5-5.5l0,0c0-3,2.5-5.5,5.5-5.5
					S323.5-234.8,323.5-231.8z"/>
				
					<linearGradient id="path8903_1_" gradientUnits="userSpaceOnUse" x1="1136.2574" y1="-43.997" x2="1142.2148" y2="-49.9592" gradientTransform="matrix(0.9108 0 0 -0.9117 -721.5077 -276.4689)">
					<stop  offset="0" style="stop-color:#FFFFFF"/>
					<stop  offset="1" style="stop-color:#FFFFFF;stop-opacity:0"/>
				</linearGradient>
				<path id="path8903_5_" class="st7" d="M323.5-231.8c0,3-2.5,5.5-5.5,5.5s-5.5-2.5-5.5-5.5l0,0c0-3,2.5-5.5,5.5-5.5
					S323.5-234.8,323.5-231.8z"/>
			</g>
			<g id="g12524_5_">
				<path id="path8907_5_" class="st5" d="M305.5-233.3c0,2.8-2.2,5-5,5s-5-2.2-5-5s2.2-5,5-5S305.5-236.1,305.5-233.3L305.5-233.3z
					"/>
				
					<linearGradient id="path8909_1_" gradientUnits="userSpaceOnUse" x1="1051.9128" y1="24.2456" x2="1056.2935" y2="20.7651" gradientTransform="matrix(1.1416 0 0 -1.1428 -903.6692 -208.1462)">
					<stop  offset="0" style="stop-color:#FFFFFF"/>
					<stop  offset="1" style="stop-color:#FFFFFF;stop-opacity:0"/>
				</linearGradient>
				<path id="path8909_5_" class="st8" d="M305.5-233.3c0,2.8-2.2,5-5,5s-5-2.2-5-5s2.2-5,5-5S305.5-236.1,305.5-233.3L305.5-233.3z
					"/>
			</g>
			<g id="g12529_5_">
				<path id="path8913_5_" class="st5" d="M316.5-229.3c0,3.9-3.1,7-7,7s-7-3.1-7-7l0,0c0-3.9,3.1-7,7-7
					C313.3-236.3,316.5-233.2,316.5-229.3L316.5-229.3z"/>
				
					<linearGradient id="path8915_1_" gradientUnits="userSpaceOnUse" x1="1085.5341" y1="-5.9182" x2="1093.184" y2="-11.7476" gradientTransform="matrix(1.0377 0 0 -1.0386 -821.8514 -239.1419)">
					<stop  offset="0" style="stop-color:#FFFFFF"/>
					<stop  offset="1" style="stop-color:#FFFFFF;stop-opacity:0"/>
				</linearGradient>
				<path id="path8915_5_" class="st9" d="M316.5-229.3c0,3.9-3.1,7-7,7s-7-3.1-7-7l0,0c0-3.9,3.1-7,7-7
					C313.3-236.3,316.5-233.2,316.5-229.3L316.5-229.3z"/>
			</g>
		</g>
		<g id="g12578_5_" transform="translate(72.00007,7.999930)">
			<path id="path12580_5_" class="st10" d="M245-238.8c-2.3,0-4.1,1.6-4.7,3.6c-0.7-0.4-1.4-0.6-2.3-0.6c-2.8,0-5,2.2-5,5
				c0,0.6,0.2,1.1,0.3,1.6c-1.4,0.8-2.3,2.2-2.3,3.9c0,2.5,2,4.5,4.5,4.5c0.2,0,18.8,0,19,0c2.5,0,4.5-2,4.5-4.5
				c0-1.7-1-3.1-2.3-3.9c0.2-0.5,0.3-1,0.3-1.6c0-2.8-2.2-5-5-5c-0.8,0-1.6,0.3-2.3,0.6C249.1-237.2,247.2-238.8,245-238.8z"/>
			
				<linearGradient id="path12582_1_" gradientUnits="userSpaceOnUse" x1="914.6376" y1="27.826" x2="928.6445" y2="18.7441" gradientTransform="matrix(0.9991 0 0 -1 -678.6163 -205.9999)">
				<stop  offset="0" style="stop-color:#FFFFFF"/>
				<stop  offset="1" style="stop-color:#FFFFFF;stop-opacity:0"/>
			</linearGradient>
			<path id="path12582_5_" class="st11" d="M245-238.3c-2.2,0-3.7,1.3-4.4,3.8c-0.7-0.3-1.5-0.8-2.4-0.8c-2.7,0-4.8,1.9-4.8,4.5
				c0,0.5,0.3,1.3,0.4,1.8c-1.3,0.7-2.4,1.9-2.4,3.4c0,2.3,1.5,4.3,4.3,4.3c0.2,0,18.2,0,18.3,0c2.8,0,4.3-1.9,4.3-4.3
				c0-1.6-1.1-2.7-2.4-3.4c0.2-0.5,0.5-1.3,0.5-1.8c0-2.6-2.1-4.6-4.8-4.6c-0.8,0-1.6,0.5-2.3,0.8
				C248.8-236.9,247.2-238.3,245-238.3z"/>
			<path id="path12584_5_" class="st5" d="M248.5-233.8c0,1.9-1.6,3.5-3.5,3.5s-3.5-1.6-3.5-3.5s1.6-3.5,3.5-3.5
				S248.5-235.7,248.5-233.8L248.5-233.8z"/>
			
				<linearGradient id="path12586_1_" gradientUnits="userSpaceOnUse" x1="914.5095" y1="43.4316" x2="916.6685" y2="40.0008" gradientTransform="matrix(1.0557 0 0 -1.0566 -721.6974 -189.9102)">
				<stop  offset="0" style="stop-color:#FFFFFF"/>
				<stop  offset="1" style="stop-color:#FFFFFF;stop-opacity:0"/>
			</linearGradient>
			<path id="path12586_5_" class="st12" d="M248.5-233.8c0,1.9-1.6,3.5-3.5,3.5s-3.5-1.6-3.5-3.5s1.6-3.5,3.5-3.5
				S248.5-235.7,248.5-233.8L248.5-233.8z"/>
			<rect id="rect12588_5_" x="235.5" y="-231.3" class="st5" width="20" height="9"/>
			<path id="path12591_5_" class="st5" d="M238.5-225.3c0,1.7-1.3,3-3,3s-3-1.3-3-3s1.3-3,3-3C237.1-228.3,238.5-227,238.5-225.3
				L238.5-225.3z"/>
			<path id="path12593_5_" class="st5" d="M255.5-230.8c0,1.9-1.6,3.5-3.5,3.5s-3.5-1.6-3.5-3.5s1.6-3.5,3.5-3.5
				S255.5-232.7,255.5-230.8L255.5-230.8z"/>
			
				<linearGradient id="path12595_1_" gradientUnits="userSpaceOnUse" x1="913.4838" y1="44.9503" x2="916.8259" y2="39.8041" gradientTransform="matrix(1.0557 0 0 -1.0566 -714.6974 -186.9102)">
				<stop  offset="0" style="stop-color:#FFFFFF"/>
				<stop  offset="1" style="stop-color:#FFFFFF;stop-opacity:0"/>
			</linearGradient>
			<path id="path12595_5_" class="st13" d="M255.5-230.8c0,1.9-1.6,3.5-3.5,3.5s-3.5-1.6-3.5-3.5s1.6-3.5,3.5-3.5
				S255.5-232.7,255.5-230.8L255.5-230.8z"/>
			<path id="path12597_5_" class="st5" d="M241.5-230.8c0,1.9-1.6,3.5-3.5,3.5s-3.5-1.6-3.5-3.5s1.6-3.5,3.5-3.5
				S241.5-232.7,241.5-230.8L241.5-230.8z"/>
			
				<linearGradient id="path12599_1_" gradientUnits="userSpaceOnUse" x1="913.3482" y1="43.9049" x2="916.7986" y2="40.4088" gradientTransform="matrix(1.0557 0 0 -1.0566 -728.6974 -186.9102)">
				<stop  offset="0" style="stop-color:#FFFFFF"/>
				<stop  offset="1" style="stop-color:#FFFFFF;stop-opacity:0"/>
			</linearGradient>
			<path id="path12599_5_" class="st14" d="M241.5-230.8c0,1.9-1.6,3.5-3.5,3.5s-3.5-1.6-3.5-3.5s1.6-3.5,3.5-3.5
				S241.5-232.7,241.5-230.8L241.5-230.8z"/>
			<path id="path12601_5_" class="st5" d="M243.9-234.3c-3.6,0-6.5,2.9-6.5,6.5c0,2.4,1.3,4.3,3.3,5.5h6.5c1.9-1.1,3.3-3.1,3.3-5.5
				C250.4-231.4,247.5-234.3,243.9-234.3z"/>
			
				<linearGradient id="path12603_1_" gradientUnits="userSpaceOnUse" x1="921.5051" y1="25.6245" x2="925.5388" y2="20.4378" gradientTransform="matrix(0.9991 0 0 -1 -679.6163 -205.9999)">
				<stop  offset="0" style="stop-color:#FFFFFF"/>
				<stop  offset="1" style="stop-color:#FFFFFF;stop-opacity:0"/>
			</linearGradient>
			<path id="path12603_5_" class="st15" d="M244-234.3c-3.6,0-6.5,2.9-6.5,6.5c0,2.4,1.3,4.4,3.3,5.5h6.5c1.9-1.1,3.3-3.1,3.3-5.5
				C250.5-231.4,247.6-234.3,244-234.3z"/>
			
				<linearGradient id="path12605_1_" gradientUnits="userSpaceOnUse" x1="962.7241" y1="-5.8005" x2="965.8239" y2="-8.577" gradientTransform="matrix(0.9048 0 0 -0.9057 -637.3217 -232.0661)">
				<stop  offset="0" style="stop-color:#FFFFFF"/>
				<stop  offset="1" style="stop-color:#FFFFFF;stop-opacity:0"/>
			</linearGradient>
			<path id="path12605_5_" class="st16" d="M238.5-225.3c0,1.7-1.3,3-3,3s-3-1.3-3-3s1.3-3,3-3S238.5-227,238.5-225.3L238.5-225.3z"
				/>
			<path id="path12607_5_" class="st17" d="M257.4-230.6c0,2.7-3.3,3.7-3.3,3.7s2.3-1.6,2.3-3.7H257.4z"/>
			<path id="path12609_5_" class="st5" d="M252.5-226.3c0,2.2-1.8,4-4,4c-2.2,0-4-1.8-4-4s1.8-4,4-4
				C250.7-230.3,252.5-228.5,252.5-226.3L252.5-226.3z"/>
			
				<linearGradient id="path12611_1_" gradientUnits="userSpaceOnUse" x1="875.6172" y1="82.0055" x2="879.7147" y2="77.6037" gradientTransform="matrix(1.2064 0 0 -1.2075 -812.062 -131.7543)">
				<stop  offset="0" style="stop-color:#FFFFFF"/>
				<stop  offset="1" style="stop-color:#FFFFFF;stop-opacity:0"/>
			</linearGradient>
			<path id="path12611_5_" class="st18" d="M252.5-226.3c0,2.2-1.8,4-4,4c-2.2,0-4-1.8-4-4s1.8-4,4-4
				C250.7-230.3,252.5-228.5,252.5-226.3L252.5-226.3z"/>
		</g>
		<g id="g12393_5_" transform="translate(56.98577,3.983930)">
			<path id="path12329_5_" class="st10" d="M245-238.8c-2.3,0-4.1,1.6-4.7,3.6c-0.7-0.4-1.4-0.6-2.3-0.6c-2.8,0-5,2.2-5,5
				c0,0.6,0.2,1.1,0.3,1.6c-1.4,0.8-2.3,2.2-2.3,3.9c0,2.5,2,4.5,4.5,4.5c0.2,0,18.8,0,19,0c2.5,0,4.5-2,4.5-4.5
				c0-1.7-1-3.1-2.3-3.9c0.2-0.5,0.3-1,0.3-1.6c0-2.8-2.2-5-5-5c-0.8,0-1.6,0.3-2.3,0.6C249.1-237.2,247.2-238.8,245-238.8z"/>
			
				<linearGradient id="path12331_1_" gradientUnits="userSpaceOnUse" x1="959.6948" y1="31.8415" x2="973.7017" y2="22.7596" gradientTransform="matrix(0.9991 0 0 -1 -723.631 -201.9839)">
				<stop  offset="0" style="stop-color:#FFFFFF"/>
				<stop  offset="1" style="stop-color:#FFFFFF;stop-opacity:0"/>
			</linearGradient>
			<path id="path12331_5_" class="st19" d="M245-238.3c-2.2,0-3.7,1.3-4.4,3.8c-0.7-0.3-1.5-0.8-2.4-0.8c-2.7,0-4.8,1.9-4.8,4.5
				c0,0.5,0.3,1.3,0.4,1.8c-1.3,0.7-2.4,1.9-2.4,3.4c0,2.3,1.5,4.3,4.3,4.3c0.2,0,18.2,0,18.3,0c2.8,0,4.3-1.9,4.3-4.3
				c0-1.6-1.1-2.7-2.4-3.4c0.2-0.5,0.5-1.3,0.5-1.8c0-2.6-2.1-4.6-4.8-4.6c-0.8,0-1.6,0.5-2.3,0.8
				C248.8-236.9,247.2-238.3,245-238.3z"/>
			<path id="path12333_5_" class="st5" d="M248.5-233.8c0,1.9-1.6,3.5-3.5,3.5s-3.5-1.6-3.5-3.5s1.6-3.5,3.5-3.5
				S248.5-235.7,248.5-233.8L248.5-233.8z"/>
			
				<linearGradient id="path12335_1_" gradientUnits="userSpaceOnUse" x1="959.5657" y1="47.4468" x2="961.7247" y2="44.016" gradientTransform="matrix(1.0557 0 0 -1.0566 -769.2608 -185.6669)">
				<stop  offset="0" style="stop-color:#FFFFFF"/>
				<stop  offset="1" style="stop-color:#FFFFFF;stop-opacity:0"/>
			</linearGradient>
			<path id="path12335_5_" class="st20" d="M248.5-233.8c0,1.9-1.6,3.5-3.5,3.5s-3.5-1.6-3.5-3.5s1.6-3.5,3.5-3.5
				S248.5-235.7,248.5-233.8L248.5-233.8z"/>
			<rect id="rect12337_5_" x="235.5" y="-231.3" class="st5" width="20" height="9"/>
			<path id="path12339_5_" class="st5" d="M238.5-225.3c0,1.7-1.3,3-3,3s-3-1.3-3-3s1.3-3,3-3C237.1-228.3,238.5-227,238.5-225.3
				L238.5-225.3z"/>
			<path id="path12341_5_" class="st5" d="M255.5-230.8c0,1.9-1.6,3.5-3.5,3.5s-3.5-1.6-3.5-3.5s1.6-3.5,3.5-3.5
				S255.5-232.7,255.5-230.8L255.5-230.8z"/>
			
				<linearGradient id="path12343_1_" gradientUnits="userSpaceOnUse" x1="958.5401" y1="48.9654" x2="961.8822" y2="43.8192" gradientTransform="matrix(1.0557 0 0 -1.0566 -762.2608 -182.6669)">
				<stop  offset="0" style="stop-color:#FFFFFF"/>
				<stop  offset="1" style="stop-color:#FFFFFF;stop-opacity:0"/>
			</linearGradient>
			<path id="path12343_5_" class="st21" d="M255.5-230.8c0,1.9-1.6,3.5-3.5,3.5s-3.5-1.6-3.5-3.5s1.6-3.5,3.5-3.5
				S255.5-232.7,255.5-230.8L255.5-230.8z"/>
			<path id="path12347_5_" class="st5" d="M241.5-230.8c0,1.9-1.6,3.5-3.5,3.5s-3.5-1.6-3.5-3.5s1.6-3.5,3.5-3.5
				S241.5-232.7,241.5-230.8L241.5-230.8z"/>
			
				<linearGradient id="path12349_1_" gradientUnits="userSpaceOnUse" x1="958.4048" y1="47.9199" x2="961.8552" y2="44.4238" gradientTransform="matrix(1.0557 0 0 -1.0566 -776.2608 -182.6669)">
				<stop  offset="0" style="stop-color:#FFFFFF"/>
				<stop  offset="1" style="stop-color:#FFFFFF;stop-opacity:0"/>
			</linearGradient>
			<path id="path12349_5_" class="st22" d="M241.5-230.8c0,1.9-1.6,3.5-3.5,3.5s-3.5-1.6-3.5-3.5s1.6-3.5,3.5-3.5
				S241.5-232.7,241.5-230.8L241.5-230.8z"/>
			<path id="path12351_5_" class="st5" d="M243.9-234.3c-3.6,0-6.5,2.9-6.5,6.5c0,2.4,1.3,4.3,3.3,5.5h6.5c1.9-1.1,3.3-3.1,3.3-5.5
				C250.4-231.4,247.5-234.3,243.9-234.3z"/>
			
				<linearGradient id="path12353_1_" gradientUnits="userSpaceOnUse" x1="966.562" y1="29.6399" x2="970.5955" y2="24.4532" gradientTransform="matrix(0.9991 0 0 -1 -724.631 -201.9839)">
				<stop  offset="0" style="stop-color:#FFFFFF"/>
				<stop  offset="1" style="stop-color:#FFFFFF;stop-opacity:0"/>
			</linearGradient>
			<path id="path12353_5_" class="st23" d="M244-234.3c-3.6,0-6.5,2.9-6.5,6.5c0,2.4,1.3,4.4,3.3,5.5h6.5c1.9-1.1,3.3-3.1,3.3-5.5
				C250.5-231.4,247.6-234.3,244-234.3z"/>
			
				<linearGradient id="path12355_1_" gradientUnits="userSpaceOnUse" x1="1007.7813" y1="-1.7848" x2="1010.881" y2="-4.5613" gradientTransform="matrix(0.9048 0 0 -0.9057 -678.0897 -228.429)">
				<stop  offset="0" style="stop-color:#FFFFFF"/>
				<stop  offset="1" style="stop-color:#FFFFFF;stop-opacity:0"/>
			</linearGradient>
			<path id="path12355_5_" class="st24" d="M238.5-225.3c0,1.7-1.3,3-3,3s-3-1.3-3-3s1.3-3,3-3S238.5-227,238.5-225.3L238.5-225.3z"
				/>
			<path id="path12357_5_" class="st17" d="M257.4-230.6c0,2.7-3.3,3.7-3.3,3.7s2.3-1.6,2.3-3.7H257.4z"/>
			<path id="path12359_5_" class="st5" d="M252.5-226.3c0,2.2-1.8,4-4,4s-4-1.8-4-4s1.8-4,4-4S252.5-228.5,252.5-226.3L252.5-226.3z
				"/>
			
				<linearGradient id="path12361_1_" gradientUnits="userSpaceOnUse" x1="920.6747" y1="86.0215" x2="924.7721" y2="81.6196" gradientTransform="matrix(1.2064 0 0 -1.2075 -866.4194 -126.9048)">
				<stop  offset="0" style="stop-color:#FFFFFF"/>
				<stop  offset="1" style="stop-color:#FFFFFF;stop-opacity:0"/>
			</linearGradient>
			<path id="path12361_5_" class="st25" d="M252.5-226.3c0,2.2-1.8,4-4,4s-4-1.8-4-4s1.8-4,4-4S252.5-228.5,252.5-226.3L252.5-226.3
				z"/>
		</g>
	</g>
	<g id="g12191_1_" transform="translate(-222.9549,261.0144)">
		<path id="path12193_1_" class="st0" d="M231.1-229.1c-1-0.6-1.4-1.9-0.8-2.9c1.3-2.1,3.1-1.5,4-3.7
			C235.6-234.4,235.1-227.5,231.1-229.1z"/>
		
			<radialGradient id="path12195_2_" cx="5545.0288" cy="-605.859" r="21.7436" gradientTransform="matrix(7.065158e-02 4.154803e-02 6.201499e-02 -0.1094 -121.9855 -527.7231)" gradientUnits="userSpaceOnUse">
			<stop  offset="0" style="stop-color:#FFFFFF"/>
			<stop  offset="1" style="stop-color:#FFFFFF;stop-opacity:0"/>
		</radialGradient>
		<path id="path12195_1_" class="st26" d="M233.8-230.2c-0.5,0.9-1.6,1.2-2.4,0.7c-0.8-0.5-1.1-1.6-0.6-2.5s2.6-0.5,3.3-2.3
			C234.9-233.8,234.3-231.1,233.8-230.2z"/>
		
			<linearGradient id="path12197_2_" gradientUnits="userSpaceOnUse" x1="1181.9021" y1="4067.5427" x2="1202.4081" y2="4089.021" gradientTransform="matrix(-5.358613e-02 0.1028 9.281434e-02 5.937964e-02 -82.7074 -596.951)">
			<stop  offset="0" style="stop-color:#FFFFFF"/>
			<stop  offset="1" style="stop-color:#FFFFFF;stop-opacity:0"/>
		</linearGradient>
		<path id="path12197_1_" class="st27" d="M232.5-229.3c-4.6-1.1,0.2-4.7,1-3.9C229.9-231.9,232.5-229.3,232.5-229.3z"/>
	</g>
	<g id="g12186_1_" transform="translate(-224.9550,271.0079)">
		<path id="path6059_1_" class="st0" d="M230.1-229.1c-1-0.6-1.4-1.9-0.8-2.9c1.3-2.1,3.1-1.5,4-3.7
			C234.6-234.4,234.1-227.5,230.1-229.1z"/>
		
			<radialGradient id="path6061_2_" cx="5540.4141" cy="-619.8839" r="21.7436" gradientTransform="matrix(7.065158e-02 4.154803e-02 6.201499e-02 -0.1094 -121.7897 -529.0659)" gradientUnits="userSpaceOnUse">
			<stop  offset="0" style="stop-color:#FFFFFF"/>
			<stop  offset="1" style="stop-color:#FFFFFF;stop-opacity:0"/>
		</radialGradient>
		<path id="path6061_1_" class="st28" d="M232.8-230.2c-0.5,0.9-1.6,1.2-2.4,0.7c-0.8-0.5-1.1-1.6-0.6-2.5s2.6-0.5,3.3-2.3
			C233.9-233.8,233.3-231.1,232.8-230.2z"/>
		
			<linearGradient id="path6063_2_" gradientUnits="userSpaceOnUse" x1="1192.5687" y1="4049.4678" x2="1213.0748" y2="4070.946" gradientTransform="matrix(-5.358613e-02 0.1028 9.281434e-02 5.937964e-02 -81.4583 -596.9746)">
			<stop  offset="0" style="stop-color:#FFFFFF"/>
			<stop  offset="1" style="stop-color:#FFFFFF;stop-opacity:0"/>
		</linearGradient>
		<path id="path6063_1_" class="st29" d="M231.5-229.3c-4.6-1.1,0.2-4.7,1-3.9C228.9-231.9,231.5-229.3,231.5-229.3z"/>
	</g>
	<g id="g12203_2_" transform="translate(-214.9565,266.0066)">
		<path id="path12205_2_" class="st0" d="M231.1-230.1c-1-0.6-1.4-1.9-0.8-2.9c1.3-2.1,3.1-1.5,4-3.7
			C235.6-235.4,235.1-228.5,231.1-230.1z"/>
		
			<radialGradient id="path12207_1_" cx="5515.0166" cy="-603.9962" r="21.7436" gradientTransform="matrix(7.065158e-02 4.154803e-02 6.201499e-02 -0.1094 -119.9806 -527.2725)" gradientUnits="userSpaceOnUse">
			<stop  offset="0" style="stop-color:#FFFFFF"/>
			<stop  offset="1" style="stop-color:#FFFFFF;stop-opacity:0"/>
		</radialGradient>
		<path id="path12207_2_" class="st30" d="M233.8-231.2c-0.5,0.9-1.6,1.2-2.4,0.7c-0.8-0.5-1.1-1.6-0.6-2.5s2.6-0.5,3.3-2.3
			C234.9-234.8,234.3-232.1,233.8-231.2z"/>
		
			<linearGradient id="path12209_1_" gradientUnits="userSpaceOnUse" x1="1150.614" y1="4058.3411" x2="1171.12" y2="4079.8193" gradientTransform="matrix(-5.358613e-02 0.1028 9.281434e-02 5.937964e-02 -83.5298 -594.1875)">
			<stop  offset="0" style="stop-color:#FFFFFF"/>
			<stop  offset="1" style="stop-color:#FFFFFF;stop-opacity:0"/>
		</linearGradient>
		<path id="path12209_2_" class="st31" d="M232.5-230.3c-4.6-1.1,0.2-4.7,1-3.9C229.9-232.9,232.5-230.3,232.5-230.3z"/>
	</g>
	<g id="g12215_1_" transform="translate(-200.9565,261.0144)">
		<path id="path12217_1_" class="st0" d="M233.1-230.1c-1-0.6-1.4-1.9-0.8-2.9c1.3-2.1,3.1-1.5,4-3.7
			C237.6-235.4,237.1-228.5,233.1-230.1z"/>
		
			<radialGradient id="path12219_2_" cx="5494.2476" cy="-590.9414" r="21.7436" gradientTransform="matrix(7.065158e-02 4.154803e-02 6.201499e-02 -0.1094 -117.3228 -524.9812)" gradientUnits="userSpaceOnUse">
			<stop  offset="0" style="stop-color:#FFFFFF"/>
			<stop  offset="1" style="stop-color:#FFFFFF;stop-opacity:0"/>
		</radialGradient>
		<path id="path12219_1_" class="st32" d="M235.8-231.2c-0.5,0.9-1.6,1.2-2.4,0.7c-0.8-0.5-1.1-1.6-0.6-2.5s2.6-0.5,3.3-2.3
			C236.9-234.8,236.3-232.1,235.8-231.2z"/>
		
			<linearGradient id="path12221_2_" gradientUnits="userSpaceOnUse" x1="1099.2809" y1="4079.4966" x2="1119.787" y2="4100.9751" gradientTransform="matrix(-5.358613e-02 0.1028 9.281434e-02 5.937964e-02 -86.2439 -590.1657)">
			<stop  offset="0" style="stop-color:#FFFFFF"/>
			<stop  offset="1" style="stop-color:#FFFFFF;stop-opacity:0"/>
		</linearGradient>
		<path id="path12221_1_" class="st33" d="M234.5-230.3c-4.6-1.1,0.2-4.7,1-3.9C231.9-232.9,234.5-230.3,234.5-230.3z"/>
	</g>
	<path id="path12159_6_" class="st34" d="M4.8,33.7c0,0.8-0.7,1.5-1.5,1.5s-1.6-0.7-1.6-1.5s0.7-1.5,1.5-1.5S4.8,32.8,4.8,33.7z"/>
	<path id="path12161_4_" class="st34" d="M23.8,40.2c0,1.1-0.9,2-2,2s-2-0.9-2-2s0.9-2,2-2S23.8,39.1,23.8,40.2z"/>
	<path id="path12163_5_" class="st35" d="M14.7,40.7c0,0.8-0.7,1.5-1.5,1.5s-1.5-0.7-1.5-1.5s0.7-1.5,1.5-1.5S14.7,39.9,14.7,40.7z"
		/>
	<path id="path12165_5_" class="st36" d="M38.7,35.7c0,0.8-0.7,1.5-1.5,1.5s-1.5-0.7-1.5-1.5s0.7-1.5,1.5-1.5
		C38.1,34.2,38.7,34.8,38.7,35.7z"/>
	<path id="path12167_4_" class="st37" d="M28.7,32.7c0,1.4-1.1,2.5-2.4,2.5s-2.4-1.1-2.4-2.5c0-1.4,1.1-2.5,2.4-2.5
		S28.7,31.3,28.7,32.7z"/>
</g>
</svg>
