<?xml version="1.0" encoding="utf-8"?>
<!-- Generator: Adobe Illustrator 24.0.1, SVG Export Plug-In . SVG Version: 6.00 Build 0)  -->
<svg version="1.1"
	 id="svg1306" xmlns:cc="http://creativecommons.org/ns#" xmlns:dc="http://purl.org/dc/elements/1.1/" xmlns:inkscape="http://www.inkscape.org/namespaces/inkscape" xmlns:rdf="http://www.w3.org/1999/02/22-rdf-syntax-ns#" xmlns:sodipodi="http://sodipodi.sourceforge.net/DTD/sodipodi-0.dtd" xmlns:svg="http://www.w3.org/2000/svg"
	 xmlns="http://www.w3.org/2000/svg" xmlns:xlink="http://www.w3.org/1999/xlink" x="0px" y="0px" viewBox="0 0 45 45"
	 style="enable-background:new 0 0 45 45;" xml:space="preserve">
<style type="text/css">
	.st0{fill:#C4C5C2;stroke:#888A85;stroke-miterlimit:2;}
	.st1{fill:url(#path6900_1_);}
	.st2{fill:#C4C5C2;}
	.st3{fill:url(#path6906_1_);}
	.st4{fill:url(#path6916_1_);}
	.st5{fill:url(#path6922_1_);}
	.st6{fill:url(#path6928_1_);}
	.st7{fill:url(#path6930_1_);}
	.st8{fill-rule:evenodd;clip-rule:evenodd;fill:#888A85;}
	.st9{fill:url(#path6938_1_);}
	.st10{fill:#EAECE8;}
	.st11{opacity:0.1056;fill-rule:evenodd;clip-rule:evenodd;fill:#787974;enable-background:new    ;}
	.st12{opacity:0.1889;fill-rule:evenodd;clip-rule:evenodd;fill:#787974;enable-background:new    ;}
	.st13{opacity:0.1833;fill-rule:evenodd;clip-rule:evenodd;fill:#787974;enable-background:new    ;}
	.st14{opacity:0.4722;fill-rule:evenodd;clip-rule:evenodd;fill:#F3F4F2;enable-background:new    ;}
	.st15{opacity:0.1167;fill-rule:evenodd;clip-rule:evenodd;fill:#787974;enable-background:new    ;}
	.st16{fill:none;stroke:#000000;stroke-width:1;stroke-miterlimit:3.9948;}
	.st17{opacity:0.2;fill-rule:evenodd;clip-rule:evenodd;fill:#938F8B;enable-background:new    ;}
	.st18{opacity:0.2889;fill-rule:evenodd;clip-rule:evenodd;fill:#938F8B;enable-background:new    ;}
	.st19{opacity:0.1778;fill-rule:evenodd;clip-rule:evenodd;fill:url(#path5359_1_);enable-background:new    ;}
	.st20{opacity:0.6167;fill:#FFFFFF;enable-background:new    ;}
	.st21{opacity:0.5444;fill:#FFFFFF;enable-background:new    ;}
	.st22{opacity:0.5444;fill:#C2C3BE;enable-background:new    ;}
	.st23{opacity:0.5667;fill:#C2C3BE;enable-background:new    ;}
	.st24{fill-rule:evenodd;clip-rule:evenodd;fill:#FFFFFF;}
	.st25{opacity:0.3167;}
	.st26{fill:#A3A4A0;}
	.st27{fill:#FFFFFF;}
	.st28{fill:none;stroke:#888A85;stroke-width:1;stroke-miterlimit:5.5387;}
	.st29{fill:none;stroke:#FFFFFF;stroke-width:1;stroke-linecap:square;stroke-miterlimit:5.257;}
	.st30{fill:url(#path6960_1_);}
	.st31{fill:url(#path6966_1_);}
	.st32{fill:url(#path6976_1_);}
	.st33{fill:url(#path6982_1_);}
	.st34{fill:url(#path6988_1_);}
	.st35{fill:url(#path6990_1_);}
	.st36{fill:url(#path6998_1_);}
</style>
<g id="layer1">
	<g id="g6896" transform="translate(-264.0000,459.9749)">
		<path id="path6898" class="st0" d="M279-448.4c-2.3,0-4.1,1.6-4.7,3.6c-0.7-0.4-1.4-0.6-2.3-0.6c-2.8,0-5,2.2-5,5
			c0,0.6,0.2,1.1,0.3,1.6c-1.4,0.8-2.3,2.2-2.3,3.9c0,2.5,2,4.5,4.5,4.5c0.2,0,18.8,0,19,0c2.5,0,4.5-2,4.5-4.5c0-1.7-1-3.1-2.3-3.9
			c0.2-0.5,0.3-1,0.3-1.6c0-2.8-2.2-5-5-5c-0.8,0-1.6,0.3-2.3,0.6C283.1-446.8,281.3-448.4,279-448.4z"/>
		
			<linearGradient id="path6900_1_" gradientUnits="userSpaceOnUse" x1="533.215" y1="33.4749" x2="547.2219" y2="24.393" gradientTransform="matrix(1 0 0 -1 -264 -409.9749)">
			<stop  offset="0" style="stop-color:#FFFFFF"/>
			<stop  offset="1" style="stop-color:#FFFFFF;stop-opacity:0"/>
		</linearGradient>
		<path id="path6900" class="st1" d="M279-447.9c-2.2,0-3.7,1.3-4.4,3.8c-0.7-0.3-1.5-0.8-2.4-0.8c-2.7,0-4.8,1.9-4.8,4.5
			c0,0.5,0.3,1.3,0.4,1.8c-1.3,0.7-2.4,1.9-2.4,3.4c0,2.3,1.5,4.3,4.3,4.3c0.2,0,18.2,0,18.3,0c2.8,0,4.3-1.9,4.3-4.3
			c0-1.6-1.1-2.7-2.4-3.4c0.2-0.5,0.5-1.3,0.5-1.8c0-2.6-2.1-4.6-4.8-4.6c-0.8,0-1.6,0.5-2.3,0.8C282.8-446.5,281.2-447.9,279-447.9
			z"/>
		<g id="g6902">
			<path id="path6904" class="st2" d="M282.5-443.4c0,1.9-1.6,3.5-3.5,3.5s-3.5-1.6-3.5-3.5c0-1.9,1.6-3.5,3.5-3.5
				S282.5-445.3,282.5-443.4L282.5-443.4z"/>
			
				<linearGradient id="path6906_1_" gradientUnits="userSpaceOnUse" x1="544.2209" y1="37.7871" x2="546.3799" y2="34.3563" gradientTransform="matrix(1.0566 0 0 -1.0566 -297.3114 -405.4876)">
				<stop  offset="0" style="stop-color:#FFFFFF"/>
				<stop  offset="1" style="stop-color:#FFFFFF;stop-opacity:0"/>
			</linearGradient>
			<path id="path6906" class="st3" d="M282.5-443.4c0,1.9-1.6,3.5-3.5,3.5s-3.5-1.6-3.5-3.5c0-1.9,1.6-3.5,3.5-3.5
				S282.5-445.3,282.5-443.4L282.5-443.4z"/>
		</g>
		<rect id="rect6908" x="269.5" y="-440.9" class="st2" width="20" height="9"/>
		<path id="path6910" class="st2" d="M272.5-434.9c0,1.7-1.3,3-3,3c-1.7,0-3-1.3-3-3c0-1.7,1.3-3,3-3
			C271.2-437.9,272.5-436.5,272.5-434.9L272.5-434.9z"/>
		<g id="g6912">
			<path id="path6914" class="st2" d="M289.5-440.4c0,1.9-1.6,3.5-3.5,3.5c-1.9,0-3.5-1.6-3.5-3.5c0-1.9,1.6-3.5,3.5-3.5
				C287.9-443.9,289.5-442.3,289.5-440.4L289.5-440.4z"/>
			
				<linearGradient id="path6916_1_" gradientUnits="userSpaceOnUse" x1="543.196" y1="39.3053" x2="546.5381" y2="34.1591" gradientTransform="matrix(1.0566 0 0 -1.0566 -290.3114 -402.4876)">
				<stop  offset="0" style="stop-color:#FFFFFF"/>
				<stop  offset="1" style="stop-color:#FFFFFF;stop-opacity:0"/>
			</linearGradient>
			<path id="path6916" class="st4" d="M289.5-440.4c0,1.9-1.6,3.5-3.5,3.5s-3.5-1.6-3.5-3.5c0-1.9,1.6-3.5,3.5-3.5
				S289.5-442.3,289.5-440.4L289.5-440.4z"/>
		</g>
		<g id="g6918">
			<path id="path6920" class="st2" d="M275.5-440.4c0,1.9-1.6,3.5-3.5,3.5s-3.5-1.6-3.5-3.5c0-1.9,1.6-3.5,3.5-3.5
				S275.5-442.3,275.5-440.4L275.5-440.4z"/>
			
				<linearGradient id="path6922_1_" gradientUnits="userSpaceOnUse" x1="543.0639" y1="38.2589" x2="546.5143" y2="34.7628" gradientTransform="matrix(1.0566 0 0 -1.0566 -304.3114 -402.4876)">
				<stop  offset="0" style="stop-color:#FFFFFF"/>
				<stop  offset="1" style="stop-color:#FFFFFF;stop-opacity:0"/>
			</linearGradient>
			<path id="path6922" class="st5" d="M275.5-440.4c0,1.9-1.6,3.5-3.5,3.5s-3.5-1.6-3.5-3.5c0-1.9,1.6-3.5,3.5-3.5
				S275.5-442.3,275.5-440.4L275.5-440.4z"/>
		</g>
		<g id="g6924" transform="translate(-1.000000,0.000000)">
			<path id="path6926" class="st2" d="M279-443.8c-3.6,0-6.5,2.9-6.5,6.5c0,2.4,1.3,4.3,3.3,5.5h6.5c1.9-1.1,3.3-3.1,3.3-5.5
				C285.5-441,282.5-443.8,279-443.8z"/>
			
				<linearGradient id="path6928_1_" gradientUnits="userSpaceOnUse" x1="541.0488" y1="31.2507" x2="545.0824" y2="26.0641" gradientTransform="matrix(1 0 0 -1 -265 -409.9749)">
				<stop  offset="0" style="stop-color:#FFFFFF"/>
				<stop  offset="1" style="stop-color:#FFFFFF;stop-opacity:0"/>
			</linearGradient>
			<path id="path6928" class="st6" d="M279-443.9c-3.6,0-6.5,2.9-6.5,6.5c0,2.4,1.3,4.4,3.3,5.5h6.5c1.9-1.1,3.3-3.1,3.3-5.5
				C285.5-441,282.6-443.9,279-443.9z"/>
		</g>
		
			<linearGradient id="path6930_1_" gradientUnits="userSpaceOnUse" x1="559.5605" y1="21.7503" x2="562.6602" y2="18.9738" gradientTransform="matrix(0.9057 0 0 -0.9057 -238.981 -416.7037)">
			<stop  offset="0" style="stop-color:#FFFFFF"/>
			<stop  offset="1" style="stop-color:#FFFFFF;stop-opacity:0"/>
		</linearGradient>
		<path id="path6930" class="st7" d="M272.5-434.9c0,1.7-1.3,3-3,3c-1.7,0-3-1.3-3-3c0-1.7,1.3-3,3-3
			C271.2-437.9,272.5-436.5,272.5-434.9L272.5-434.9z"/>
		<path id="path6932" class="st8" d="M291.5-440.2c0,2.7-3.3,3.7-3.3,3.7s2.3-1.6,2.3-3.7L291.5-440.2z"/>
		<g id="g6934" transform="matrix(1.142857,0.000000,0.000000,1.142857,-28.57139,67.00008)">
			<path id="path6936" class="st2" d="M275.7-440c0,1.9-1.6,3.5-3.5,3.5s-3.5-1.6-3.5-3.5c0-1.9,1.6-3.5,3.5-3.5
				S275.7-441.9,275.7-440L275.7-440z"/>
			
				<linearGradient id="path6938_1_" gradientUnits="userSpaceOnUse" x1="488.7117" y1="-13.6228" x2="492.8091" y2="-18.0247" gradientTransform="matrix(1.2075 0 0 -1.2075 -321.6251 -460.4052)">
				<stop  offset="0" style="stop-color:#FFFFFF"/>
				<stop  offset="1" style="stop-color:#FFFFFF;stop-opacity:0"/>
			</linearGradient>
			<path id="path6938" class="st9" d="M275.7-440c0,1.9-1.6,3.5-3.5,3.5s-3.5-1.6-3.5-3.5c0-1.9,1.6-3.5,3.5-3.5
				S275.7-441.9,275.7-440L275.7-440z"/>
		</g>
	</g>
	<g id="g5441" transform="matrix(0.998698,0.000000,0.000000,0.998698,-342.5410,469.4118)">
		<path id="path5439" class="st10" d="M379-449c0,7.5-6.1,13.5-13.5,13.5c-7.5,0-13.5-6.1-13.5-13.5l0,0c0-7.5,6.1-13.5,13.5-13.5
			C373-462.5,379-456.5,379-449L379-449z"/>
		<g id="g5405" transform="translate(37.12500,-1.625000)">
			<path id="path5342" class="st11" d="M322.3-459c0,0.2-0.1,0.4-0.3,0.6c-0.2,0.3-0.3,0.4-0.1,0.7c0.1,0.1,0.6,0,0.7,0
				c0.3-0.1,0.7-0.2,1-0.4c0.2-0.1,0.4-0.1,0.7-0.2c0.3-0.1,0.6,0.1,0.7,0.2c0.1,0.1-0.5,0.5-0.5,0.5c-0.2,0.1-0.5,0.2-0.7,0.3
				c-0.3,0.1-0.6,0.2-0.9,0.2c-0.3,0.1-0.5,0.2-0.8,0.3c-0.3,0.2-0.6,0.5-0.9,0.8c-0.3,0.3-0.4,0.6-0.3,0.9c0.1,0.3,0.2,0.5,0.5,0.5
				c0.3,0.1,0.5-0.1,0.7-0.3c0.2-0.3,0.3-0.7,0.6-0.9c0.2-0.2,0.4-0.4,0.6-0.6c0.2-0.2,0.4-0.3,0.7-0.2c0.2,0.1,0.4,0.3,0.7,0.4
				c0.2,0,0.6-0.3,0.8-0.4c0,0,0.1-0.1,0.1-0.1c0.2-0.1,0.6-0.1,0.8-0.1c0.3,0,0.5,0.1,0.7,0.2c0.3,0.1,0.5,0.1,0.8,0.3
				c0.3,0.2,0.4,0.4,0.6,0.6c0.1,0.3,0.2,0.4,0.4,0.6c0.2,0.2,0.6,0.4,0.8,0.6c0.1,0.1,0.2,0.5,0.3,0.7c0.1,0.3,0.1,0.6,0,0.9
				c-0.2,0.3-0.3,0.6-0.5,0.9c-0.1,0.3-0.5,0.5-0.8,0.7c-0.3,0.3-0.8,0.3-1.1,0.6c-0.4,0.4-0.4,0.6-0.8,1.1c-0.3,0.4,0,0.6,0.4,0.5
				c0.3-0.1,0.6-0.2,1-0.2c0.1,0,0.1,0,0.2,0c0.4-0.1,0.7-0.4,1.1-0.5c0.5-0.1,1.5,0.6,2,0.9c0.4,0.2-0.1,0.6-0.2,0.7
				c-0.3,0.2-0.6,0.2-1,0.2c-0.2,0-0.5-0.1-0.7-0.1c-0.3-0.1-0.5-0.1-0.8,0.1c-0.3,0.2-0.2,0.5-0.1,0.7c0.2,0.3,0.4,0.4,0.5,0.7
				c0.1,0.3-0.2,0.5-0.4,0.7c-0.2,0.1-0.7,0-1,0c-0.4,0-0.7,0.2-1,0.4c-0.1,0.1-0.2,0.6-0.3,0.8c0,0.1,0,0.1,0,0.2
				c-0.1,0.4,0,0.6,0.2,0.9c0.1,0.2,0.3,0.5,0.4,0.7c0.1,0.3,0.2,0.5,0.1,0.8c-0.1,0.3-0.2,0.5-0.2,0.7c0,0.2,0.2,0.7,0.3,0.8
				c0.1,0.4,0,0.4-0.2,0.7c-0.2,0.2-0.6,0.3-0.8,0.4c-0.2,0.1-0.7,0-0.9-0.1c-0.3-0.1-0.5,0.1-0.7,0.2c-0.3,0.2-0.3,0.3-0.6,0
				c-0.3-0.3-0.5-0.7-0.6-1.1c0-0.1,0-0.1,0-0.2c-0.1-0.3,0-0.6,0-0.9c0-0.3,0.1-0.5,0.1-0.8c0-0.3-0.8,0.3-1,0.4
				c-0.1,0-0.2,0.1-0.3,0.1c-0.4,0.2-0.4,0.5-0.4,0.9c0,0.3,0.2,0.6,0.2,1c0,0.3-0.4,0.4-0.7,0.4c-0.4,0-0.6-0.5-0.8-0.7
				c-0.3-0.3-0.7-0.5-0.8-0.8c-0.2-0.4-0.3-0.7,0.2-1c0.3-0.2,0.6-0.2,0.8-0.5c0.2-0.3,0.5-0.6,0-0.8c-0.3-0.1-0.5-0.2-0.8-0.1
				c-0.1,0-0.1,0-0.2,0c-0.7,0.1-0.7,0.1-1.3-0.2c-0.4-0.2-0.6-0.6-0.9-0.9c-0.3-0.3-0.5-0.7-0.6-1.1c-0.1-0.4-0.2-0.7-0.3-1
				c-0.1-0.3-0.1-0.6-0.1-0.9c0-0.3-0.1-0.6-0.1-0.9c0-0.3,0-0.7,0-1c0-0.3,0-0.6,0-1c0-0.3,0.1-0.6,0.1-0.9c0,0,0-0.1,0-0.1
				c0-0.3,0.2-0.7,0.3-1c0.1-0.3,0.3-0.5,0.4-0.8c0.1-0.3,0.3-0.5,0.4-0.7c0.2-0.3,0.4-0.5,0.6-0.8c0.3-0.4,0.7-0.8,1.1-1.2
				c0.2-0.2,0.4-0.5,0.6-0.8c0.3-0.3,0.7-0.5,1-0.8c0.3-0.2,0.5-0.4,0.7-0.7c0.1-0.2,0.2-0.5,0.4-0.7
				C322.1-458.8,322.3-458.9,322.3-459z"/>
			<path id="path5345" class="st12" d="M333.4-453.8c-0.4,0.1-1.2,0.2-1.7,0.1c-0.4-0.1-0.4-0.3-0.8,0.1c0,0-0.1,0.1-0.1,0.1
				c-0.2,0.2-0.3,0.3-0.3,0.6c0,0.2,0,0.5,0,0.7c0,0.2,0,0.6,0,0.8c0.1,0.3,0.1,0.5,0.3,0.8c0.1,0.2,0.2,0.4,0.4,0.6
				c0.3,0.2,0.7,0.3,1,0.4c0.2,0.1,0.6,0,0.8,0c0.3,0,0.4,0,0.4,0.4c0,0.3-0.6,0.7-0.8,1c-0.2,0.3-0.1,0.6,0,0.9
				c0.1,0.3,0.1,0.5,0.2,0.8c0.1,0.3,0.1,0.5,0.4,0.7c0.2,0.2,0.7,0,0.9,0.3c0.1,0.2,0.1,0.4,0.1,0.6c0,0.3,0.1,0.5,0.4,0.3
				c0.3-0.1,0.5-0.1,0.7-0.4c0.2-0.3,0.3-0.6,0.4-0.9c0.1-0.3,0.4-0.3,0.6-0.3c0.3,0,0.5,0.1,0.8,0c0.4-0.1,0.5-0.2,0.8-0.5
				c0.4-0.4,0.3-0.6,0.4-1.1c0-0.2,0-0.5-0.1-0.6c0-0.1,0-0.1,0-0.2c-0.1-0.2-0.5-0.2-0.7-0.2c-0.4,0-1-0.2-1.3-0.3
				c-0.2,0-0.7-0.7-0.8-0.8c-0.2-0.2-0.3-0.4-0.3-0.6c-0.1-0.3,0-0.7-0.1-1c-0.1-0.4,0-0.6-0.3-0.9c-0.2-0.2-0.3-0.5-0.4-0.8
				c-0.1-0.3-0.3-0.5-0.5-0.7C333.6-453.8,333.6-453.8,333.4-453.8z"/>
			<path id="path5347" class="st13" d="M339.5-451.5c-0.2,0-0.4,0.3-0.6,0.4c-0.2,0.2-0.1,0.5-0.1,0.7c0,0.3,0.1,0.5,0.1,0.8
				c0.1,0.2,0.3,0.5,0.4,0.6c0.2,0.2,0.5,0.3,0.8,0.4c0.4,0.1,0.6,0.1,0.8-0.3c0.1-0.3,0.2-0.5,0.2-0.8c0-0.3,0-0.5-0.1-0.8
				c-0.1-0.3-0.2-0.5-0.5-0.6c-0.2-0.1-0.4-0.3-0.6-0.5C339.8-451.5,339.6-451.5,339.5-451.5z"/>
			<path id="path5349" class="st14" d="M326.9-439.1c0.2-0.1,0.8-0.8,1.3-1.1c0.1-0.1,0.2-0.1,0.2-0.2c0.4-0.4,0.8-0.9,1.1-1.4
				c0.5-0.7,0.7-1.4,0.9-2.2c0.2-1,0.3-0.3,0,0.3c0,0.1-0.1,0.2-0.1,0.3c-0.1,0.4-0.2,0.9-0.3,1.3c-0.2,0.6-0.7,1-0.8,1.6
				c-0.1,0.3-0.2,0.7-0.1,1c0.1,0.3,0.5-0.4,0.8-0.5c0.4-0.1,0.5-0.2,0.5,0.2c0,0.3-0.1,0.7-0.2,1c-0.1,0.5,1.3,0.1,1.6,0
				c1-0.3,1.7-0.6,2.5-1.3c0.9-0.7,1.6-1.6,2.5-2.4c0.7-0.7,1-1.1,0.6,0c0,0.1-0.1,0.2-0.1,0.3c0,0.1-0.1,0.2-0.1,0.3
				c-0.2,0.6-0.6,1.2-1.2,1.6c-0.8,0.6-1.4,1.6-2.3,2c-0.4,0.2-0.7,0.3-1.1,0.4c-0.4,0.2,0.7,0.3,0.9,0.4c2,0.4-1.6,0.6-2.1,0.6
				c-0.7,0-1.1-0.2-1.7,0.2c-0.2,0.1,0.9,0.6,1,0.6c0.5,0.1,0.9,0.4,1.4,0.4c0.8,0-1.8,0.3-2.5,0.1c-0.6-0.2-1.2-0.3-1.8-0.4
				c-0.3-0.1-0.6,0-0.9,0c-0.1,0,0,0.8,0,0.9c0,0.6-0.2,1.1-0.4,0.2c-0.2-0.5-0.4-0.9-0.4-1.4c0-0.3-0.4,0.5-0.6,0.7
				c-0.3,0.4-0.8,0.9-0.9,0.9c0,0,0.3-0.6,0.4-1c0.1-0.3,0.6-1.1,0.2-1.2c-0.3-0.1-0.7,0-1-0.1c-0.5-0.1-1-0.2-1.4-0.4
				c-0.8-0.4-2.2-0.8-3.1-1c-0.1,0-1.5-1.5-0.2-0.2c0.9,0.9,2.2,1.4,3.4,1.4c0.4,0,1-0.1,1.3-0.2c0.2-0.1,0.5-0.4,0.8-0.5
				c0.3-0.1-0.4-0.4-0.6-0.6c-0.1-0.1-0.1-0.2-0.2-0.2c-0.7-0.9-1-2-1.8-2.9c-0.1-0.1-2.1-2.4-1.2-1.6c1,0.8,1.8,1.5,2.6,2.4
				c0.4,0.5,0.8,1.1,1.2,1.6c0.4,0.5,0.3-0.1,0.2-0.4c-0.2-0.7-0.1-1.7-0.1-2.5c0-1,0.5,1,0.6,1.2c0.1,0.5,0.4,1.1,0.8,0.6
				c0.4-0.5,0.4-0.6,0.4,0c0,0.1,0,0.1,0,0.2C326.8-439.6,326.8-439.3,326.9-439.1z"/>
			<path id="path5351" class="st15" d="M338.5-447.9c0.1,0.1,0.2,0.4,0.2,0.6c0,0.1-0.7,0.6-0.8,0.7c-0.2,0.2-0.2,0.5-0.3,0.8
				c-0.1,0.3-0.1,0.5-0.1,0.8c0.1,0.3,0.2,0.5,0.3,0.8c0.1,0.3,0.4,0.4,0.6,0.7c0.3,0.3,0.6,0.3,1,0.4c0.4,0.1-0.3,0.5-0.4,0.6
				c-0.3,0.2-0.5,0.3-0.7,0.6c-0.2,0.3,0.2,0.5,0.4,0.6c0.2,0.1,0.6-0.3,0.7-0.5c0.2-0.2,0.4-0.4,0.4-0.7c0-0.2,0.1-0.5,0.1-0.8
				c0-0.3,0.1-0.6,0.1-0.8c0.1-0.4,0.2-0.5,0.4-0.7c0.2-0.2,0.2-0.6,0.1-0.8c-0.1-0.2-0.2-0.5-0.3-0.7c-0.1-0.2-0.4-0.4-0.6-0.4
				c-0.2-0.1-0.6-0.5-0.7-0.6C338.9-447.7,338.8-447.9,338.5-447.9z"/>
			<path id="path5353" class="st16" d="M321.2-448.9C321.2-448.9,321.2-448.9,321.2-448.9z"/>
			<path id="path5355" class="st17" d="M326.1-458.6c0.2,0,0.6-0.2,0.8-0.2c0.3-0.1,0.7,0.1,1,0.1c0,0,0.3,0.4,0.6,0.4
				c0.1,0,0.1,0,0.2,0c0.2,0,0.5,0.2,0.7,0.4c0.2,0.2,0,0.5-0.1,0.6c-0.3,0.3-0.5,0.1-0.7-0.1c-0.2-0.2-0.3-0.3-0.6-0.4
				c-0.3-0.1-0.6,0-0.8,0c-0.3,0.1-0.5,0.2-0.9,0.2c-0.1,0-0.5-0.5-0.6-0.6C325.7-458.3,326-458.5,326.1-458.6z"/>
			<path id="path5357" class="st18" d="M330.9-457.9c0.2,0.1,0.6,0,1,0c0.4-0.1,0.9-0.1,1.3,0c0.2,0.1,1.6,0.3,1,0.6
				c-0.3,0.2-0.6,0.2-0.9,0.4c-0.3,0.2,0.4,0.3,0.6,0.3c0.4,0,0.2,0.5,0.1,0.7c-0.2,0.3-0.1,0.7,0,0.9c0.1,0.3,0.5,0.2,0.8,0.2
				c0.3,0,0.6,0,0.8,0.3c0.2,0.2,0.4,0.5,0.3,0.7c-0.1,0.2-0.7,0.3-0.9,0.3c-0.2,0-0.8-0.8-0.8-0.8c-0.2-0.2-0.5,0-0.7,0
				c-0.4,0.1-0.7-0.4-0.9-0.6c-0.3-0.2-0.4-0.5-0.6-0.8c-0.2-0.3,0.1-0.5-0.4-0.5c-0.3,0-0.5-0.1-0.7-0.2c-0.3-0.2-0.6-0.1-0.6-0.6
				c0-0.4,0-0.5,0.4-0.7C330.6-457.8,330.8-457.8,330.9-457.9z"/>
			
				<radialGradient id="path5359_1_" cx="5080.498" cy="-3547.8923" r="358.4465" gradientTransform="matrix(2.126119e-02 0 0 -2.755039e-02 215.9229 -546.9221)" gradientUnits="userSpaceOnUse">
				<stop  offset="0" style="stop-color:#787974"/>
				<stop  offset="1" style="stop-color:#787974;stop-opacity:0"/>
			</radialGradient>
			<path id="path5359" class="st19" d="M322.4-459.1c0,0.2-0.1,0.4-0.3,0.6c-0.2,0.3-0.3,0.4-0.1,0.7c0.1,0.1,0.6,0,0.7,0
				c0.3-0.1,0.7-0.2,1-0.4c0.2-0.1,0.4-0.1,0.7-0.2c0.3-0.1,0.6,0.1,0.7,0.2c0.1,0.1-0.5,0.5-0.5,0.5c-0.2,0.1-0.5,0.2-0.7,0.3
				c-0.3,0.1-0.6,0.2-0.9,0.2c-0.3,0.1-0.5,0.2-0.8,0.3c-0.3,0.2-0.6,0.5-0.9,0.8c-0.3,0.3-0.4,0.6-0.3,0.9c0.1,0.3,0.2,0.5,0.5,0.5
				c0.3,0.1,0.5-0.1,0.7-0.3c0.2-0.3,0.3-0.7,0.6-0.9c0.2-0.2,0.4-0.4,0.6-0.6c0.2-0.2,0.4-0.3,0.7-0.2c0.2,0.1,0.4,0.3,0.7,0.4
				c0.2,0,0.6-0.3,0.8-0.4c0,0,0.1-0.1,0.1-0.1c0.2-0.1,0.6-0.1,0.8-0.1c0.3,0,0.5,0.1,0.7,0.2c0.3,0.1,0.5,0.1,0.8,0.3
				c0.3,0.2,0.4,0.4,0.6,0.6c0.1,0.3,0.2,0.4,0.4,0.6c0.2,0.2,0.6,0.4,0.8,0.6c0.1,0.1,0.2,0.5,0.3,0.7c0.1,0.3,0.1,0.6,0,0.9
				c-0.2,0.3-0.3,0.6-0.5,0.9c-0.1,0.3-0.5,0.5-0.8,0.7c-0.3,0.3-0.8,0.3-1.1,0.6c-0.4,0.4-0.4,0.6-0.8,1.1c-0.3,0.4,0,0.6,0.4,0.5
				c0.3-0.1,0.6-0.2,1-0.2c0.1,0,0.1,0,0.2,0c0.4-0.1,0.7-0.4,1.1-0.5c0.5-0.1,1.5,0.6,2,0.9c0.4,0.2-0.1,0.6-0.2,0.7
				c-0.3,0.2-0.6,0.2-1,0.2c-0.2,0-0.5-0.1-0.7-0.1c-0.3-0.1-0.5-0.1-0.8,0.1c-0.3,0.2-0.2,0.5-0.1,0.7c0.2,0.3,0.4,0.4,0.5,0.7
				c0.1,0.3-0.2,0.5-0.4,0.7c-0.2,0.1-0.7,0-1,0c-0.4,0-0.7,0.2-1,0.4c-0.1,0.1-0.2,0.6-0.3,0.8c0,0.1,0,0.1,0,0.2
				c-0.1,0.4,0,0.6,0.2,0.9c0.1,0.2,0.3,0.5,0.4,0.7c0.1,0.3,0.2,0.5,0.1,0.8c-0.1,0.3-0.2,0.5-0.2,0.7c0,0.2,0.2,0.7,0.3,0.8
				c0.1,0.4,0,0.4-0.2,0.7c-0.2,0.2-0.6,0.3-0.8,0.4c-0.2,0.1-0.7,0-0.9-0.1c-0.3-0.1-0.5,0.1-0.7,0.2c-0.3,0.2-0.3,0.3-0.6,0
				c-0.3-0.3-0.5-0.7-0.6-1.1c0-0.1,0-0.1,0-0.2c-0.1-0.3,0-0.6,0-0.9c0-0.3,0.1-0.5,0.1-0.8c0-0.3-0.8,0.3-1,0.4
				c-0.1,0-0.2,0.1-0.3,0.1c-0.4,0.2-0.4,0.5-0.4,0.9c0,0.3,0.2,0.6,0.2,1c0,0.3-0.4,0.4-0.7,0.4c-0.4,0-0.6-0.5-0.8-0.7
				c-0.3-0.3-0.7-0.5-0.8-0.8c-0.2-0.4-0.3-0.7,0.2-1c0.3-0.2,0.6-0.2,0.8-0.5c0.2-0.3,0.5-0.6,0-0.8c-0.3-0.1-0.5-0.2-0.8-0.1
				c-0.1,0-0.1,0-0.2,0c-0.7,0.1-0.7,0.1-1.3-0.2c-0.4-0.2-0.6-0.6-0.9-0.9c-0.3-0.3-0.5-0.7-0.6-1.1c-0.1-0.4-0.2-0.7-0.3-1
				c-0.1-0.3-0.1-0.6-0.1-0.9c0-0.3-0.1-0.6-0.1-0.9c0-0.3,0-0.7,0-1c0-0.3,0-0.6,0-1c0-0.3,0.1-0.6,0.1-0.9c0,0,0-0.1,0-0.1
				c0-0.3,0.2-0.7,0.3-1c0.1-0.3,0.3-0.5,0.4-0.8c0.1-0.3,0.3-0.5,0.4-0.7c0.2-0.3,0.4-0.5,0.6-0.8c0.3-0.4,0.7-0.8,1.1-1.2
				c0.2-0.2,0.4-0.5,0.6-0.8c0.3-0.3,0.7-0.5,1-0.8c0.3-0.2,0.5-0.4,0.7-0.7c0.1-0.2,0.2-0.5,0.4-0.7
				C322.1-459,322.3-459,322.4-459.1z"/>
			<path id="path5361" class="st20" d="M326.1-446.8c0,0.4-0.3,0.7-0.7,0.7c-0.4,0-0.7-0.3-0.7-0.7l0,0c0-0.4,0.3-0.7,0.7-0.7
				C325.8-447.5,326.1-447.2,326.1-446.8z"/>
			<path id="path5363" class="st21" d="M319.6-452.2c0,0.2-0.2,0.4-0.4,0.4s-0.4-0.2-0.4-0.4l0,0c0-0.2,0.2-0.4,0.4-0.4
				S319.6-452.4,319.6-452.2z"/>
			<path id="path5365" class="st22" d="M335.9-447.6c0,0.4-0.3,0.7-0.7,0.7c-0.4,0-0.7-0.3-0.7-0.7l0,0c0-0.4,0.3-0.7,0.7-0.7
				C335.6-448.3,335.9-448,335.9-447.6z"/>
			<path id="path5367" class="st23" d="M330.8-437.4c0,0.4-0.3,0.7-0.7,0.7c-0.4,0-0.7-0.3-0.7-0.7l0,0c0-0.4,0.3-0.7,0.7-0.7
				C330.5-438,330.8-437.7,330.8-437.4z"/>
			<path id="path5369" class="st20" d="M335-447.4c0,0.2-0.2,0.4-0.4,0.4s-0.4-0.2-0.4-0.4l0,0c0-0.2,0.2-0.4,0.4-0.4
				S335-447.7,335-447.4z"/>
			<path id="path5371" class="st20" d="M326.7-436.9c0,0.2-0.2,0.4-0.4,0.4s-0.4-0.2-0.4-0.4l0,0c0-0.2,0.2-0.4,0.4-0.4
				S326.7-437.1,326.7-436.9z"/>
			<path id="path5373" class="st20" d="M333.3-441.5c0,0.2-0.2,0.4-0.4,0.4s-0.4-0.2-0.4-0.4l0,0c0-0.2,0.2-0.4,0.4-0.4
				S333.3-441.8,333.3-441.5z"/>
			<path id="path5375" class="st20" d="M338.5-452.9c0,0.2-0.2,0.4-0.4,0.4s-0.4-0.2-0.4-0.4l0,0c0-0.2,0.2-0.4,0.4-0.4
				S338.5-453.2,338.5-452.9z"/>
			<path id="path5377" class="st20" d="M335.5-452.1c0,0.2-0.2,0.4-0.4,0.4s-0.4-0.2-0.4-0.4l0,0c0-0.2,0.2-0.4,0.4-0.4
				S335.5-452.4,335.5-452.1z"/>
			<path id="path5379" class="st20" d="M336.7-456.6c0,0.2-0.2,0.4-0.4,0.4s-0.4-0.2-0.4-0.4l0,0c0-0.2,0.2-0.4,0.4-0.4
				S336.7-456.8,336.7-456.6z"/>
			<path id="path5381" class="st20" d="M327.8-443.4c0,0.2-0.2,0.4-0.4,0.4s-0.4-0.2-0.4-0.4l0,0c0-0.2,0.2-0.4,0.4-0.4
				S327.8-443.6,327.8-443.4z"/>
			<path id="path5383" class="st24" d="M326.8-438.8c0.2-0.1,0.8-0.7,1.2-1c0.1-0.1,0.1-0.1,0.2-0.2c0.4-0.3,0.7-0.8,1-1.3
				c0.5-0.7,0.7-1.3,0.8-2c0.2-1,0.2-0.3,0,0.3c0,0.1,0,0.2-0.1,0.3c-0.1,0.4-0.1,0.8-0.3,1.2c-0.2,0.5-0.6,1-0.7,1.5
				c-0.1,0.3-0.2,0.6-0.1,0.9c0.1,0.3,0.5-0.3,0.8-0.4c0.4-0.1,0.5-0.2,0.5,0.2c0,0.3-0.1,0.6-0.2,0.9c-0.1,0.4,1.2,0.1,1.5,0
				c0.9-0.2,1.6-0.5,2.3-1.2c0.8-0.7,1.5-1.4,2.3-2.2c0.6-0.6,0.9-1,0.5,0c0,0.1-0.1,0.2-0.1,0.3c0,0.1-0.1,0.2-0.1,0.3
				c-0.2,0.5-0.6,1.1-1.1,1.5c-0.8,0.5-1.3,1.4-2.1,1.9c-0.3,0.2-0.7,0.2-1,0.4c-0.3,0.2,0.7,0.3,0.9,0.3c1.9,0.4-1.5,0.6-1.9,0.6
				c-0.7,0-1-0.1-1.6,0.2c-0.2,0.1,0.9,0.5,0.9,0.5c0.4,0.1,0.8,0.4,1.3,0.4c0.8,0-1.6,0.2-2.3,0.1c-0.6-0.1-1.1-0.3-1.7-0.4
				c-0.3-0.1-0.6,0-0.9,0c-0.1,0,0,0.8,0,0.8c0,0.5-0.1,1-0.4,0.2c-0.1-0.4-0.4-0.9-0.4-1.3c0-0.3-0.4,0.4-0.6,0.7
				c-0.2,0.3-0.7,0.8-0.8,0.8c0,0,0.2-0.5,0.3-0.9c0.1-0.3,0.5-1,0.2-1.1c-0.3-0.1-0.7,0-1-0.1c-0.4-0.1-0.9-0.2-1.3-0.4
				c-0.8-0.4-2-0.7-2.8-0.9c-0.1,0-1.3-1.4-0.1-0.2c0.8,0.8,2,1.3,3.1,1.3c0.4,0,0.9-0.1,1.2-0.2c0.2,0,0.5-0.3,0.7-0.4
				c0.2-0.1-0.4-0.3-0.6-0.5c-0.1-0.1-0.1-0.1-0.2-0.2c-0.7-0.8-0.9-1.9-1.7-2.6c-0.1-0.1-1.9-2.2-1.1-1.5c0.9,0.7,1.7,1.4,2.4,2.2
				c0.4,0.4,0.7,1,1.1,1.5c0.4,0.5,0.3-0.1,0.2-0.4c-0.2-0.7-0.1-1.6-0.1-2.3c0-0.9,0.5,0.9,0.5,1.1c0.1,0.5,0.4,1,0.7,0.6
				c0.4-0.5,0.4-0.6,0.4,0c0,0,0,0.1,0,0.1C326.8-439.3,326.8-439.1,326.8-438.8z"/>
			<g id="g5385" transform="translate(461.6971,-517.2066)" class="st25">
				<path id="path5387" class="st26" d="M-127.4,65.5c0,0.9-0.8,1.7-1.8,1.7c-1,0-1.8-0.8-1.8-1.7c0-0.9,0.8-1.7,1.8-1.7
					C-128.2,63.9-127.4,64.6-127.4,65.5z"/>
				<path id="path5389" class="st26" d="M-125.4,69.5c0,0.9-0.8,1.7-1.8,1.7c-1,0-1.8-0.8-1.8-1.7c0-0.9,0.8-1.7,1.8-1.7
					C-126.2,67.8-125.4,68.6-125.4,69.5z"/>
				<path id="path5391" class="st26" d="M-123.5,69.5c0,0.6-0.5,1.1-1.1,1.1c-0.6,0-1.1-0.5-1.1-1.1c0-0.6,0.5-1.1,1.1-1.1
					C-124,68.4-123.5,68.9-123.5,69.5z"/>
				<path id="path5393" class="st26" d="M-133.3,64c0,1.4-1.2,2.6-2.7,2.6s-2.7-1.2-2.7-2.6s1.2-2.6,2.7-2.6S-133.3,62.5-133.3,64z"
					/>
				<path id="path5395" class="st26" d="M-138.6,70.1c0,1.7-1.4,3-3.2,3s-3.2-1.4-3.2-3s1.4-3,3.2-3S-138.6,68.4-138.6,70.1z"/>
				<path id="path5397" class="st26" d="M-135.1,72.9c0,1.3-1.1,2.4-2.5,2.4c-1.4,0-2.5-1.1-2.5-2.4s1.1-2.4,2.5-2.4
					C-136.3,70.6-135.1,71.6-135.1,72.9z"/>
				<path id="path5399" class="st26" d="M-136.7,66.3c0,1.3-1.1,2.4-2.5,2.4s-2.5-1.1-2.5-2.4c0-1.3,1.1-2.4,2.5-2.4
					S-136.7,65-136.7,66.3z"/>
			</g>
			<path id="path5401" class="st27" d="M327.6-437.6c0,0.4-0.3,0.7-0.7,0.7s-0.7-0.3-0.7-0.7s0.3-0.7,0.7-0.7S327.6-438,327.6-437.6
				z"/>
		</g>
		<path id="path9201" class="st28" d="M379-448.9c0,7.5-6.1,13.5-13.5,13.5c-7.5,0-13.5-6.1-13.5-13.5l0,0c0-7.5,6.1-13.5,13.5-13.5
			C373-462.4,379-456.4,379-448.9L379-448.9z"/>
		<path id="path9203" class="st29" d="M372.9-459c5.6,4.1,6.8,11.9,2.7,17.5c-4.1,5.6-11.9,6.8-17.5,2.7c-5.6-4.1-6.8-11.9-2.7-17.5
			C359.5-461.8,367.3-463,372.9-459z"/>
	</g>
	<g id="g6956" transform="translate(-249.0000,467.8749)">
		<path id="path6958" class="st0" d="M279-448.4c-2.3,0-4.1,1.6-4.7,3.6c-0.7-0.4-1.4-0.6-2.3-0.6c-2.8,0-5,2.2-5,5
			c0,0.6,0.2,1.1,0.3,1.6c-1.4,0.8-2.3,2.2-2.3,3.9c0,2.5,2,4.5,4.5,4.5c0.2,0,18.8,0,19,0c2.5,0,4.5-2,4.5-4.5c0-1.7-1-3.1-2.3-3.9
			c0.2-0.5,0.3-1,0.3-1.6c0-2.8-2.2-5-5-5c-0.8,0-1.6,0.3-2.3,0.6C283.1-446.8,281.3-448.4,279-448.4z"/>
		
			<linearGradient id="path6960_1_" gradientUnits="userSpaceOnUse" x1="518.215" y1="25.5749" x2="532.2219" y2="16.493" gradientTransform="matrix(1 0 0 -1 -249 -417.8749)">
			<stop  offset="0" style="stop-color:#FFFFFF"/>
			<stop  offset="1" style="stop-color:#FFFFFF;stop-opacity:0"/>
		</linearGradient>
		<path id="path6960" class="st30" d="M279-447.9c-2.2,0-3.7,1.3-4.4,3.8c-0.7-0.3-1.5-0.8-2.4-0.8c-2.7,0-4.8,1.9-4.8,4.5
			c0,0.5,0.3,1.3,0.4,1.8c-1.3,0.7-2.4,1.9-2.4,3.4c0,2.3,1.5,4.3,4.3,4.3c0.2,0,18.2,0,18.3,0c2.8,0,4.3-1.9,4.3-4.3
			c0-1.6-1.1-2.7-2.4-3.4c0.2-0.5,0.5-1.3,0.5-1.8c0-2.6-2.1-4.6-4.8-4.6c-0.8,0-1.6,0.5-2.3,0.8C282.8-446.5,281.2-447.9,279-447.9
			z"/>
		<g id="g6962">
			<path id="path6964" class="st2" d="M282.5-443.4c0,1.9-1.6,3.5-3.5,3.5s-3.5-1.6-3.5-3.5c0-1.9,1.6-3.5,3.5-3.5
				S282.5-445.3,282.5-443.4L282.5-443.4z"/>
			
				<linearGradient id="path6966_1_" gradientUnits="userSpaceOnUse" x1="529.2209" y1="29.8871" x2="531.3799" y2="26.4563" gradientTransform="matrix(1.0566 0 0 -1.0566 -281.4624 -413.8348)">
				<stop  offset="0" style="stop-color:#FFFFFF"/>
				<stop  offset="1" style="stop-color:#FFFFFF;stop-opacity:0"/>
			</linearGradient>
			<path id="path6966" class="st31" d="M282.5-443.4c0,1.9-1.6,3.5-3.5,3.5s-3.5-1.6-3.5-3.5c0-1.9,1.6-3.5,3.5-3.5
				S282.5-445.3,282.5-443.4L282.5-443.4z"/>
		</g>
		<rect id="rect6968" x="269.5" y="-440.9" class="st2" width="20" height="9"/>
		<path id="path6970" class="st2" d="M272.5-434.9c0,1.7-1.3,3-3,3c-1.7,0-3-1.3-3-3c0-1.7,1.3-3,3-3
			C271.2-437.9,272.5-436.5,272.5-434.9L272.5-434.9z"/>
		<g id="g6972">
			<path id="path6974" class="st2" d="M289.5-440.4c0,1.9-1.6,3.5-3.5,3.5c-1.9,0-3.5-1.6-3.5-3.5c0-1.9,1.6-3.5,3.5-3.5
				C287.9-443.9,289.5-442.3,289.5-440.4L289.5-440.4z"/>
			
				<linearGradient id="path6976_1_" gradientUnits="userSpaceOnUse" x1="528.196" y1="31.4053" x2="531.5381" y2="26.2591" gradientTransform="matrix(1.0566 0 0 -1.0566 -274.4624 -410.8348)">
				<stop  offset="0" style="stop-color:#FFFFFF"/>
				<stop  offset="1" style="stop-color:#FFFFFF;stop-opacity:0"/>
			</linearGradient>
			<path id="path6976" class="st32" d="M289.5-440.4c0,1.9-1.6,3.5-3.5,3.5s-3.5-1.6-3.5-3.5c0-1.9,1.6-3.5,3.5-3.5
				S289.5-442.3,289.5-440.4L289.5-440.4z"/>
		</g>
		<g id="g6978">
			<path id="path6980" class="st2" d="M275.5-440.4c0,1.9-1.6,3.5-3.5,3.5s-3.5-1.6-3.5-3.5c0-1.9,1.6-3.5,3.5-3.5
				S275.5-442.3,275.5-440.4L275.5-440.4z"/>
			
				<linearGradient id="path6982_1_" gradientUnits="userSpaceOnUse" x1="528.0639" y1="30.3589" x2="531.5143" y2="26.8628" gradientTransform="matrix(1.0566 0 0 -1.0566 -288.4624 -410.8348)">
				<stop  offset="0" style="stop-color:#FFFFFF"/>
				<stop  offset="1" style="stop-color:#FFFFFF;stop-opacity:0"/>
			</linearGradient>
			<path id="path6982" class="st33" d="M275.5-440.4c0,1.9-1.6,3.5-3.5,3.5s-3.5-1.6-3.5-3.5c0-1.9,1.6-3.5,3.5-3.5
				S275.5-442.3,275.5-440.4L275.5-440.4z"/>
		</g>
		<g id="g6984" transform="translate(-1.000000,0.000000)">
			<path id="path6986" class="st2" d="M279-443.8c-3.6,0-6.5,2.9-6.5,6.5c0,2.4,1.3,4.3,3.3,5.5h6.5c1.9-1.1,3.3-3.1,3.3-5.5
				C285.5-441,282.5-443.8,279-443.8z"/>
			
				<linearGradient id="path6988_1_" gradientUnits="userSpaceOnUse" x1="526.0488" y1="23.3507" x2="530.0824" y2="18.1641" gradientTransform="matrix(1 0 0 -1 -250 -417.8749)">
				<stop  offset="0" style="stop-color:#FFFFFF"/>
				<stop  offset="1" style="stop-color:#FFFFFF;stop-opacity:0"/>
			</linearGradient>
			<path id="path6988" class="st34" d="M279-443.9c-3.6,0-6.5,2.9-6.5,6.5c0,2.4,1.3,4.4,3.3,5.5h6.5c1.9-1.1,3.3-3.1,3.3-5.5
				C285.5-441,282.6-443.9,279-443.9z"/>
		</g>
		
			<linearGradient id="path6990_1_" gradientUnits="userSpaceOnUse" x1="544.5605" y1="13.8504" x2="547.6602" y2="11.0738" gradientTransform="matrix(0.9057 0 0 -0.9057 -225.3961 -423.8584)">
			<stop  offset="0" style="stop-color:#FFFFFF"/>
			<stop  offset="1" style="stop-color:#FFFFFF;stop-opacity:0"/>
		</linearGradient>
		<path id="path6990" class="st35" d="M272.5-434.9c0,1.7-1.3,3-3,3c-1.7,0-3-1.3-3-3c0-1.7,1.3-3,3-3
			C271.2-437.9,272.5-436.5,272.5-434.9L272.5-434.9z"/>
		<path id="path6992" class="st8" d="M291.5-440.2c0,2.7-3.3,3.7-3.3,3.7s2.3-1.6,2.3-3.7L291.5-440.2z"/>
		<g id="g6994" transform="matrix(1.142857,0.000000,0.000000,1.142857,-28.57139,67.00008)">
			<path id="path6996" class="st2" d="M275.7-440c0,1.9-1.6,3.5-3.5,3.5s-3.5-1.6-3.5-3.5c0-1.9,1.6-3.5,3.5-3.5
				S275.7-441.9,275.7-440L275.7-440z"/>
			
				<linearGradient id="path6998_1_" gradientUnits="userSpaceOnUse" x1="475.5867" y1="-20.5353" x2="479.6841" y2="-24.9372" gradientTransform="matrix(1.2075 0 0 -1.2075 -305.776 -468.7523)">
				<stop  offset="0" style="stop-color:#FFFFFF"/>
				<stop  offset="1" style="stop-color:#FFFFFF;stop-opacity:0"/>
			</linearGradient>
			<path id="path6998" class="st36" d="M275.7-440c0,1.9-1.6,3.5-3.5,3.5s-3.5-1.6-3.5-3.5c0-1.9,1.6-3.5,3.5-3.5
				S275.7-441.9,275.7-440L275.7-440z"/>
		</g>
	</g>
</g>
</svg>
