<?xml version="1.0" encoding="utf-8"?>
<!-- Generator: Adobe Illustrator 24.0.1, SVG Export Plug-In . SVG Version: 6.00 Build 0)  -->
<svg version="1.1"
	 id="svg1306" xmlns:cc="http://creativecommons.org/ns#" xmlns:dc="http://purl.org/dc/elements/1.1/" xmlns:inkscape="http://www.inkscape.org/namespaces/inkscape" xmlns:rdf="http://www.w3.org/1999/02/22-rdf-syntax-ns#" xmlns:sodipodi="http://sodipodi.sourceforge.net/DTD/sodipodi-0.dtd" xmlns:svg="http://www.w3.org/2000/svg"
	 xmlns="http://www.w3.org/2000/svg" xmlns:xlink="http://www.w3.org/1999/xlink" x="0px" y="0px" viewBox="0 0 45 45"
	 style="enable-background:new 0 0 45 45;" xml:space="preserve">
<style type="text/css">
	.st0{fill:#888A85;}
	.st1{fill:url(#path8291_1_);}
	.st2{fill:#C4C5C2;}
	.st3{fill:url(#path8329_1_);}
	.st4{fill:url(#path8370_1_);}
	.st5{fill:url(#path8313_1_);}
	.st6{fill:url(#path8395_1_);}
	.st7{fill:url(#path4522_1_);}
	.st8{fill:#C4C5C2;stroke:#888A85;stroke-miterlimit:2;}
	.st9{fill:url(#path7798_1_);}
	.st10{fill:url(#path7804_1_);}
	.st11{fill:url(#path7814_1_);}
	.st12{fill:url(#path7820_1_);}
	.st13{fill:url(#path7826_1_);}
	.st14{fill:url(#path7828_1_);}
	.st15{fill-rule:evenodd;clip-rule:evenodd;fill:#888A85;}
	.st16{fill:url(#path7836_1_);}
	.st17{fill:url(#path7856_1_);}
	.st18{fill:url(#path7862_1_);}
	.st19{fill:url(#path7872_1_);}
	.st20{fill:url(#path7878_1_);}
	.st21{fill:url(#path7884_1_);}
	.st22{fill:url(#path7886_1_);}
	.st23{fill:url(#path7896_1_);}
	.st24{fill:#C8E1FF;stroke:#729FCF;stroke-width:1.0746;stroke-miterlimit:2;}
	.st25{fill:url(#path12233_1_);}
	.st26{fill:url(#path12233_2_);}
</style>
<g id="layer1_23_">
	<g id="g10011_5_" transform="translate(-287.0000,298.0000)">
		<path id="path8267_5_" class="st0" d="M310-294.8c-2.8,0-5.1,1.6-6.4,3.8c-0.9-0.5-2-0.8-3.1-0.8c-3.9,0-7,3.1-7,7s3.1,7,7,7
			c2.4,0,4.4-1.3,5.7-3.2c1.1,0.7,2.4,1.2,3.8,1.2c0.9,0,1.8-0.2,2.6-0.5c0.5,0.9,1.2,1.6,2,2.2c0,0.1-0.1,0.2-0.1,0.4
			c0,3.9,3.1,7,7,7s7-3.1,7-7c0-2.4-1.3-4.4-3.1-5.6c0-0.1,0.1-0.2,0.1-0.4c0-3.9-3.1-7-7-7c-0.6,0-1.2,0.2-1.8,0.4
			C315.6-293,313-294.8,310-294.8z"/>
		
			<linearGradient id="path8291_1_" gradientUnits="userSpaceOnUse" x1="1087.9315" y1="-67.1485" x2="1138.344" y2="-84.0749" gradientTransform="matrix(1 0 0 -1 -791.9974 -356)">
			<stop  offset="0" style="stop-color:#FFFFFF"/>
			<stop  offset="1" style="stop-color:#FFFFFF;stop-opacity:0"/>
		</linearGradient>
		<path id="path8291_5_" class="st1" d="M310-293.8c-2.8,0-5.1,1.8-6.1,4.2c-1-0.7-2.1-1.2-3.4-1.2c-3.3,0-6,2.7-6,6s2.7,6,6,6
			c2.4,0,4.5-1.5,5.4-3.5c1.1,0.9,2.5,1.5,4.1,1.5c1.1,0,2-0.3,2.9-0.8c0.4,1,1.1,1.8,1.9,2.4c-0.2,0.6-0.4,1.2-0.4,1.8
			c0,3.6,2.9,6.5,6.5,6.5s6.5-2.9,6.5-6.5c0-2.4-1.3-4.3-3.2-5.5c0.1-0.3,0.2-0.7,0.2-1c0-3.3-2.7-6-6-6c-0.9,0-1.7,0.2-2.4,0.5
			C315.2-291.9,312.9-293.8,310-293.8z"/>
		<path id="path8414_5_" class="st2" d="M327.5-277.3c0,3.6-2.9,6.5-6.5,6.5s-6.5-2.9-6.5-6.5l0,0c0-3.6,2.9-6.5,6.5-6.5
			S327.5-280.9,327.5-277.3L327.5-277.3z"/>
		<g id="g8349_5_" transform="translate(69.00259,102.0000)">
			<path id="path8327_5_" class="st2" d="M246.5-389.3c0,3-2.5,5.5-5.5,5.5s-5.5-2.5-5.5-5.5s2.5-5.5,5.5-5.5
				S246.5-392.3,246.5-389.3z"/>
			
				<linearGradient id="path8329_1_" gradientUnits="userSpaceOnUse" x1="933.3268" y1="-209.846" x2="939.0801" y2="-214.7029" gradientTransform="matrix(0.8826 0 0 -0.8826 -586.5476 -577.6657)">
				<stop  offset="0" style="stop-color:#FFFFFF"/>
				<stop  offset="1" style="stop-color:#FFFFFF;stop-opacity:0"/>
			</linearGradient>
			<path id="path8329_5_" class="st3" d="M246.5-389.3c0,3-2.5,5.5-5.5,5.5s-5.5-2.5-5.5-5.5s2.5-5.5,5.5-5.5
				S246.5-392.3,246.5-389.3z"/>
		</g>
		<g id="g8389_5_" transform="translate(69.00259,102.0000)">
			<path id="path8368_5_" class="st2" d="M254.5-385.3c0,3-2.5,5.5-5.5,5.5s-5.5-2.5-5.5-5.5l0,0c0-3,2.5-5.5,5.5-5.5
				S254.5-388.3,254.5-385.3z"/>
			
				<linearGradient id="path8370_1_" gradientUnits="userSpaceOnUse" x1="928.6913" y1="-200.6828" x2="934.6489" y2="-206.6449" gradientTransform="matrix(0.9117 0 0 -0.9117 -602.2551 -572.7866)">
				<stop  offset="0" style="stop-color:#FFFFFF"/>
				<stop  offset="1" style="stop-color:#FFFFFF;stop-opacity:0"/>
			</linearGradient>
			<path id="path8370_5_" class="st4" d="M254.5-385.3c0,3-2.5,5.5-5.5,5.5s-5.5-2.5-5.5-5.5l0,0c0-3,2.5-5.5,5.5-5.5
				S254.5-388.3,254.5-385.3z"/>
		</g>
		<g id="g8323_5_" transform="translate(69.00259,102.0000)">
			<path id="path8311_5_" class="st2" d="M236.5-386.8c0,2.8-2.2,5-5,5s-5-2.2-5-5s2.2-5,5-5S236.5-389.6,236.5-386.8L236.5-386.8z"
				/>
			
				<linearGradient id="path8313_1_" gradientUnits="userSpaceOnUse" x1="844.4401" y1="-132.1086" x2="848.8206" y2="-135.5891" gradientTransform="matrix(1.1428 0 0 -1.1428 -736.7391 -540.2799)">
				<stop  offset="0" style="stop-color:#FFFFFF"/>
				<stop  offset="1" style="stop-color:#FFFFFF;stop-opacity:0"/>
			</linearGradient>
			<path id="path8313_5_" class="st5" d="M236.5-386.8c0,2.8-2.2,5-5,5s-5-2.2-5-5s2.2-5,5-5S236.5-389.6,236.5-386.8L236.5-386.8z"
				/>
		</g>
		<g id="g8406_5_" transform="translate(69.00259,102.0000)">
			<path id="path8393_5_" class="st2" d="M247.5-382.8c0,3.9-3.1,7-7,7s-7-3.1-7-7l0,0c0-3.9,3.1-7,7-7S247.5-386.7,247.5-382.8
				L247.5-382.8z"/>
			
				<linearGradient id="path8395_1_" gradientUnits="userSpaceOnUse" x1="878.0759" y1="-162.3628" x2="885.7257" y2="-168.1922" gradientTransform="matrix(1.0386 0 0 -1.0386 -676.3868 -555.1304)">
				<stop  offset="0" style="stop-color:#FFFFFF"/>
				<stop  offset="1" style="stop-color:#FFFFFF;stop-opacity:0"/>
			</linearGradient>
			<path id="path8395_5_" class="st6" d="M247.5-382.8c0,3.9-3.1,7-7,7s-7-3.1-7-7l0,0c0-3.9,3.1-7,7-7S247.5-386.7,247.5-382.8
				L247.5-382.8z"/>
		</g>
		<g id="g4518_5_" transform="matrix(0.935028,0.000000,0.000000,0.935028,446.8280,-187.6162)">
			<path id="path4520_5_" class="st2" d="M-154.8-97c0,3-2.4,5.4-5.4,5.4s-5.4-2.4-5.4-5.4s2.4-5.4,5.4-5.4S-154.8-100-154.8-97z"/>
			
				<linearGradient id="path4522_1_" gradientUnits="userSpaceOnUse" x1="-864.7787" y1="-66.2716" x2="-861.5864" y2="-70.2613" gradientTransform="matrix(1.4205 0 0 -1.4205 1064.379 -196.0794)">
				<stop  offset="0" style="stop-color:#FFFFFF"/>
				<stop  offset="1" style="stop-color:#FFFFFF;stop-opacity:0"/>
			</linearGradient>
			<path id="path4522_5_" class="st7" d="M-154.7-97c0,3-2.4,5.4-5.4,5.4s-5.4-2.4-5.4-5.4s2.4-5.4,5.4-5.4
				C-157.2-102.5-154.7-100-154.7-97z"/>
		</g>
		<g id="g7794_5_" transform="translate(38.00259,162.0000)">
			<path id="path7796_5_" class="st8" d="M279-444.3c-2.3,0-4.1,1.6-4.7,3.6c-0.7-0.4-1.4-0.6-2.3-0.6c-2.8,0-5,2.2-5,5
				c0,0.6,0.2,1.1,0.3,1.6c-1.4,0.8-2.3,2.2-2.3,3.9c0,2.5,2,4.5,4.5,4.5c0.2,0,18.8,0,19,0c2.5,0,4.5-2,4.5-4.5
				c0-1.7-1-3.1-2.3-3.9c0.2-0.5,0.3-1,0.3-1.6c0-2.8-2.2-5-5-5c-0.8,0-1.6,0.3-2.3,0.6C283.1-442.7,281.3-444.3,279-444.3z"/>
			
				<linearGradient id="path7798_1_" gradientUnits="userSpaceOnUse" x1="1016.1917" y1="-180.6898" x2="1030.1986" y2="-189.7717" gradientTransform="matrix(1 0 0 -1 -746.9922 -620)">
				<stop  offset="0" style="stop-color:#FFFFFF"/>
				<stop  offset="1" style="stop-color:#FFFFFF;stop-opacity:0"/>
			</linearGradient>
			<path id="path7798_5_" class="st9" d="M279-443.8c-2.2,0-3.7,1.3-4.4,3.8c-0.7-0.3-1.5-0.8-2.4-0.8c-2.7,0-4.8,1.9-4.8,4.5
				c0,0.5,0.3,1.3,0.4,1.8c-1.3,0.7-2.4,1.9-2.4,3.4c0,2.3,1.5,4.3,4.3,4.3c0.2,0,18.2,0,18.3,0c2.8,0,4.3-1.9,4.3-4.3
				c0-1.6-1.1-2.7-2.4-3.4c0.2-0.5,0.5-1.3,0.5-1.8c0-2.6-2.1-4.6-4.8-4.6c-0.8,0-1.6,0.5-2.3,0.8
				C282.8-442.4,281.2-443.8,279-443.8z"/>
			<g id="g7800_5_">
				<path id="path7802_5_" class="st2" d="M282.5-439.3c0,1.9-1.6,3.5-3.5,3.5s-3.5-1.6-3.5-3.5s1.6-3.5,3.5-3.5
					S282.5-441.2,282.5-439.3L282.5-439.3z"/>
				
					<linearGradient id="path7804_1_" gradientUnits="userSpaceOnUse" x1="1016.0721" y1="-164.9914" x2="1018.2312" y2="-168.4222" gradientTransform="matrix(1.0566 0 0 -1.0566 -795.8682 -615.6273)">
					<stop  offset="0" style="stop-color:#FFFFFF"/>
					<stop  offset="1" style="stop-color:#FFFFFF;stop-opacity:0"/>
				</linearGradient>
				<path id="path7804_5_" class="st10" d="M282.5-439.3c0,1.9-1.6,3.5-3.5,3.5s-3.5-1.6-3.5-3.5s1.6-3.5,3.5-3.5
					S282.5-441.2,282.5-439.3L282.5-439.3z"/>
			</g>
			<rect id="rect7806_5_" x="269.5" y="-436.8" class="st2" width="20" height="9"/>
			<path id="path7808_5_" class="st2" d="M272.5-430.8c0,1.7-1.3,3-3,3s-3-1.3-3-3s1.3-3,3-3S272.5-432.5,272.5-430.8L272.5-430.8z"
				/>
			<g id="g7810_5_">
				<path id="path7812_5_" class="st2" d="M289.5-436.3c0,1.9-1.6,3.5-3.5,3.5s-3.5-1.6-3.5-3.5s1.6-3.5,3.5-3.5
					S289.5-438.2,289.5-436.3L289.5-436.3z"/>
				
					<linearGradient id="path7814_1_" gradientUnits="userSpaceOnUse" x1="1015.0473" y1="-163.4732" x2="1018.3894" y2="-168.6194" gradientTransform="matrix(1.0566 0 0 -1.0566 -788.8682 -612.6273)">
					<stop  offset="0" style="stop-color:#FFFFFF"/>
					<stop  offset="1" style="stop-color:#FFFFFF;stop-opacity:0"/>
				</linearGradient>
				<path id="path7814_5_" class="st11" d="M289.5-436.3c0,1.9-1.6,3.5-3.5,3.5s-3.5-1.6-3.5-3.5s1.6-3.5,3.5-3.5
					S289.5-438.2,289.5-436.3L289.5-436.3z"/>
			</g>
			<g id="g7816_5_">
				<path id="path7818_5_" class="st2" d="M275.5-436.3c0,1.9-1.6,3.5-3.5,3.5s-3.5-1.6-3.5-3.5s1.6-3.5,3.5-3.5
					S275.5-438.2,275.5-436.3L275.5-436.3z"/>
				
					<linearGradient id="path7820_1_" gradientUnits="userSpaceOnUse" x1="1014.9145" y1="-164.5194" x2="1018.3648" y2="-168.0155" gradientTransform="matrix(1.0566 0 0 -1.0566 -802.8682 -612.6273)">
					<stop  offset="0" style="stop-color:#FFFFFF"/>
					<stop  offset="1" style="stop-color:#FFFFFF;stop-opacity:0"/>
				</linearGradient>
				<path id="path7820_5_" class="st12" d="M275.5-436.3c0,1.9-1.6,3.5-3.5,3.5s-3.5-1.6-3.5-3.5s1.6-3.5,3.5-3.5
					S275.5-438.2,275.5-436.3L275.5-436.3z"/>
			</g>
			<g id="g7822_5_" transform="translate(-1.000000,0.000000)">
				<path id="path7824_5_" class="st2" d="M279-439.8c-3.6,0-6.5,2.9-6.5,6.5c0,2.4,1.3,4.3,3.3,5.5h6.5c1.9-1.1,3.3-3.1,3.3-5.5
					C285.5-436.9,282.5-439.8,279-439.8z"/>
				
					<linearGradient id="path7826_1_" gradientUnits="userSpaceOnUse" x1="1026.0415" y1="-182.8908" x2="1030.075" y2="-188.0775" gradientTransform="matrix(1 0 0 -1 -749.9922 -620)">
					<stop  offset="0" style="stop-color:#FFFFFF"/>
					<stop  offset="1" style="stop-color:#FFFFFF;stop-opacity:0"/>
				</linearGradient>
				<path id="path7826_5_" class="st13" d="M279-439.8c-3.6,0-6.5,2.9-6.5,6.5c0,2.4,1.3,4.4,3.3,5.5h6.5c1.9-1.1,3.3-3.1,3.3-5.5
					C285.5-436.9,282.6-439.8,279-439.8z"/>
			</g>
			
				<linearGradient id="path7828_1_" gradientUnits="userSpaceOnUse" x1="1064.1975" y1="-214.4897" x2="1067.2972" y2="-217.2662" gradientTransform="matrix(0.9057 0 0 -0.9057 -696.0421 -626.5378)">
				<stop  offset="0" style="stop-color:#FFFFFF"/>
				<stop  offset="1" style="stop-color:#FFFFFF;stop-opacity:0"/>
			</linearGradient>
			<path id="path7828_5_" class="st14" d="M272.5-430.8c0,1.7-1.3,3-3,3s-3-1.3-3-3s1.3-3,3-3S272.5-432.5,272.5-430.8L272.5-430.8z
				"/>
			<path id="path7830_5_" class="st15" d="M291.5-436.1c0,2.7-3.3,3.7-3.3,3.7s2.3-1.6,2.3-3.7H291.5z"/>
			<g id="g7832_5_" transform="matrix(1.142857,0.000000,0.000000,1.142857,-28.57139,67.00008)">
				<path id="path7834_5_" class="st2" d="M275.7-436.4c0,1.9-1.6,3.5-3.5,3.5s-3.5-1.6-3.5-3.5s1.6-3.5,3.5-3.5
					S275.7-438.3,275.7-436.4L275.7-436.4z"/>
				
					<linearGradient id="path7836_1_" gradientUnits="userSpaceOnUse" x1="764.1654" y1="-170.7895" x2="768.2628" y2="-175.1914" gradientTransform="matrix(1.5771 0 0 -1.5771 -936.71 -709.7067)">
					<stop  offset="0" style="stop-color:#FFFFFF"/>
					<stop  offset="1" style="stop-color:#FFFFFF;stop-opacity:0"/>
				</linearGradient>
				<path id="path7836_5_" class="st16" d="M275.7-436.4c0,1.9-1.6,3.5-3.5,3.5s-3.5-1.6-3.5-3.5s1.6-3.5,3.5-3.5
					S275.7-438.3,275.7-436.4L275.7-436.4z"/>
			</g>
		</g>
		<g id="g7852_5_" transform="translate(23.00000,158.0000)">
			<path id="path7854_5_" class="st8" d="M279-444.3c-2.3,0-4.1,1.6-4.7,3.6c-0.7-0.4-1.4-0.6-2.3-0.6c-2.8,0-5,2.2-5,5
				c0,0.6,0.2,1.1,0.3,1.6c-1.4,0.8-2.3,2.2-2.3,3.9c0,2.5,2,4.5,4.5,4.5c0.2,0,18.8,0,19,0c2.5,0,4.5-2,4.5-4.5
				c0-1.7-1-3.1-2.3-3.9c0.2-0.5,0.3-1,0.3-1.6c0-2.8-2.2-5-5-5c-0.8,0-1.6,0.3-2.3,0.6C283.1-442.7,281.3-444.3,279-444.3z"/>
			
				<linearGradient id="path7856_1_" gradientUnits="userSpaceOnUse" x1="1061.1996" y1="-176.6898" x2="1075.2064" y2="-185.7718" gradientTransform="matrix(1 0 0 -1 -792 -616)">
				<stop  offset="0" style="stop-color:#FFFFFF"/>
				<stop  offset="1" style="stop-color:#FFFFFF;stop-opacity:0"/>
			</linearGradient>
			<path id="path7856_5_" class="st17" d="M279-443.8c-2.2,0-3.7,1.3-4.4,3.8c-0.7-0.3-1.5-0.8-2.4-0.8c-2.7,0-4.8,1.9-4.8,4.5
				c0,0.5,0.3,1.3,0.4,1.8c-1.3,0.7-2.4,1.9-2.4,3.4c0,2.3,1.5,4.3,4.3,4.3c0.2,0,18.2,0,18.3,0c2.8,0,4.3-1.9,4.3-4.3
				c0-1.6-1.1-2.7-2.4-3.4c0.2-0.5,0.5-1.3,0.5-1.8c0-2.6-2.1-4.6-4.8-4.6c-0.8,0-1.6,0.5-2.3,0.8
				C282.8-442.4,281.2-443.8,279-443.8z"/>
			<g id="g7858_5_">
				<path id="path7860_5_" class="st2" d="M282.5-439.3c0,1.9-1.6,3.5-3.5,3.5s-3.5-1.6-3.5-3.5s1.6-3.5,3.5-3.5
					S282.5-441.2,282.5-439.3L282.5-439.3z"/>
				
					<linearGradient id="path7862_1_" gradientUnits="userSpaceOnUse" x1="1061.08" y1="-160.9914" x2="1063.239" y2="-164.4222" gradientTransform="matrix(1.0566 0 0 -1.0566 -843.4234 -611.4009)">
					<stop  offset="0" style="stop-color:#FFFFFF"/>
					<stop  offset="1" style="stop-color:#FFFFFF;stop-opacity:0"/>
				</linearGradient>
				<path id="path7862_5_" class="st18" d="M282.5-439.3c0,1.9-1.6,3.5-3.5,3.5s-3.5-1.6-3.5-3.5s1.6-3.5,3.5-3.5
					S282.5-441.2,282.5-439.3L282.5-439.3z"/>
			</g>
			<rect id="rect7864_5_" x="269.5" y="-436.8" class="st2" width="20" height="9"/>
			<path id="path7866_5_" class="st2" d="M272.5-430.8c0,1.7-1.3,3-3,3s-3-1.3-3-3s1.3-3,3-3S272.5-432.5,272.5-430.8L272.5-430.8z"
				/>
			<g id="g7868_5_">
				<path id="path7870_5_" class="st2" d="M289.5-436.3c0,1.9-1.6,3.5-3.5,3.5s-3.5-1.6-3.5-3.5s1.6-3.5,3.5-3.5
					S289.5-438.2,289.5-436.3L289.5-436.3z"/>
				
					<linearGradient id="path7872_1_" gradientUnits="userSpaceOnUse" x1="1060.0551" y1="-159.4732" x2="1063.3972" y2="-164.6194" gradientTransform="matrix(1.0566 0 0 -1.0566 -836.4234 -608.4009)">
					<stop  offset="0" style="stop-color:#FFFFFF"/>
					<stop  offset="1" style="stop-color:#FFFFFF;stop-opacity:0"/>
				</linearGradient>
				<path id="path7872_5_" class="st19" d="M289.5-436.3c0,1.9-1.6,3.5-3.5,3.5s-3.5-1.6-3.5-3.5s1.6-3.5,3.5-3.5
					S289.5-438.2,289.5-436.3L289.5-436.3z"/>
			</g>
			<g id="g7874_5_">
				<path id="path7876_5_" class="st2" d="M275.5-436.3c0,1.9-1.6,3.5-3.5,3.5s-3.5-1.6-3.5-3.5s1.6-3.5,3.5-3.5
					S275.5-438.2,275.5-436.3L275.5-436.3z"/>
				
					<linearGradient id="path7878_1_" gradientUnits="userSpaceOnUse" x1="1059.9224" y1="-160.5193" x2="1063.3726" y2="-164.0154" gradientTransform="matrix(1.0566 0 0 -1.0566 -850.4234 -608.4009)">
					<stop  offset="0" style="stop-color:#FFFFFF"/>
					<stop  offset="1" style="stop-color:#FFFFFF;stop-opacity:0"/>
				</linearGradient>
				<path id="path7878_5_" class="st20" d="M275.5-436.3c0,1.9-1.6,3.5-3.5,3.5s-3.5-1.6-3.5-3.5s1.6-3.5,3.5-3.5
					S275.5-438.2,275.5-436.3L275.5-436.3z"/>
			</g>
			<g id="g7880_5_" transform="translate(-1.000000,0.000000)">
				<path id="path7882_5_" class="st2" d="M279-439.8c-3.6,0-6.5,2.9-6.5,6.5c0,2.4,1.3,4.3,3.3,5.5h6.5c1.9-1.1,3.3-3.1,3.3-5.5
					C285.5-436.9,282.5-439.8,279-439.8z"/>
				
					<linearGradient id="path7884_1_" gradientUnits="userSpaceOnUse" x1="1071.0491" y1="-178.8908" x2="1075.0828" y2="-184.0775" gradientTransform="matrix(1 0 0 -1 -795 -616)">
					<stop  offset="0" style="stop-color:#FFFFFF"/>
					<stop  offset="1" style="stop-color:#FFFFFF;stop-opacity:0"/>
				</linearGradient>
				<path id="path7884_5_" class="st21" d="M279-439.8c-3.6,0-6.5,2.9-6.5,6.5c0,2.4,1.3,4.4,3.3,5.5h6.5c1.9-1.1,3.3-3.1,3.3-5.5
					C285.5-436.9,282.6-439.8,279-439.8z"/>
			</g>
			
				<linearGradient id="path7886_1_" gradientUnits="userSpaceOnUse" x1="1109.2048" y1="-210.4901" x2="1112.3047" y2="-213.2666" gradientTransform="matrix(0.9057 0 0 -0.9057 -736.805 -622.9152)">
				<stop  offset="0" style="stop-color:#FFFFFF"/>
				<stop  offset="1" style="stop-color:#FFFFFF;stop-opacity:0"/>
			</linearGradient>
			<path id="path7886_5_" class="st22" d="M272.5-430.8c0,1.7-1.3,3-3,3s-3-1.3-3-3s1.3-3,3-3S272.5-432.5,272.5-430.8L272.5-430.8z
				"/>
			<path id="path7888_5_" class="st15" d="M291.5-436.1c0,2.7-3.3,3.7-3.3,3.7s2.3-1.6,2.3-3.7H291.5z"/>
			<g id="g7890_5_" transform="matrix(1.142857,0.000000,0.000000,1.142857,-28.57139,67.00008)">
				<path id="path7892_5_" class="st2" d="M275.7-436.4c0,1.9-1.6,3.5-3.5,3.5s-3.5-1.6-3.5-3.5s1.6-3.5,3.5-3.5
					S275.7-438.3,275.7-436.4L275.7-436.4z"/>
				
					<linearGradient id="path7896_1_" gradientUnits="userSpaceOnUse" x1="798.8299" y1="-167.6722" x2="802.9272" y2="-172.0741" gradientTransform="matrix(1.5771 0 0 -1.5771 -991.381 -704.7903)">
					<stop  offset="0" style="stop-color:#FFFFFF"/>
					<stop  offset="1" style="stop-color:#FFFFFF;stop-opacity:0"/>
				</linearGradient>
				<path id="path7896_5_" class="st23" d="M275.7-436.4c0,1.9-1.6,3.5-3.5,3.5s-3.5-1.6-3.5-3.5s1.6-3.5,3.5-3.5
					S275.7-438.3,275.7-436.4L275.7-436.4z"/>
			</g>
		</g>
	</g>
	<g id="g12239_16_" transform="translate(-193.9565,268.0066)">
		<path id="path12241_16_" class="st24" d="M209.8-229.3c-1.2,0-2.1-1-2.1-2.2c0.2-2.5,2-2.8,1.8-5.2
			C211.2-236.1,214-229.8,209.8-229.3z"/>
		
			<linearGradient id="path12233_1_" gradientUnits="userSpaceOnUse" x1="2176.229" y1="1979.2854" x2="2196.7349" y2="2000.7638" gradientTransform="matrix(9.709367e-04 0.116 0.1098 8.855417e-03 -11.6437 -503.6544)">
			<stop  offset="0" style="stop-color:#FFFFFF"/>
			<stop  offset="1" style="stop-color:#FFFFFF;stop-opacity:0"/>
		</linearGradient>
		<path id="path12233_14_" class="st25" d="M210.9-230.1c-4.6,1.2-2-4.3-1-3.9C207.4-231.2,210.9-230.1,210.9-230.1z"/>
	</g>
	<g id="g12239_17_" transform="translate(-193.9565,268.0066)">
		<path id="path12241_17_" class="st24" d="M221.8-227.3c-1.2,0-2.1-1-2.1-2.2c0.2-2.5,2-2.8,1.8-5.2
			C223.2-234.1,226-227.8,221.8-227.3z"/>
		
			<linearGradient id="path12233_2_" gradientUnits="userSpaceOnUse" x1="2185.1216" y1="2088.4844" x2="2205.6277" y2="2109.9629" gradientTransform="matrix(9.709367e-04 0.116 0.1098 8.855417e-03 -11.6437 -503.6544)">
			<stop  offset="0" style="stop-color:#FFFFFF"/>
			<stop  offset="1" style="stop-color:#FFFFFF;stop-opacity:0"/>
		</linearGradient>
		<path id="path12233_15_" class="st26" d="M222.9-228.1c-4.6,1.2-2-4.3-1-3.9C219.4-229.2,222.9-228.1,222.9-228.1z"/>
	</g>
</g>
</svg>
