<?xml version="1.0" encoding="utf-8"?>
<!-- Generator: Adobe Illustrator 24.0.1, SVG Export Plug-In . SVG Version: 6.00 Build 0)  -->
<svg version="1.1"
	 id="svg1306" xmlns:cc="http://creativecommons.org/ns#" xmlns:dc="http://purl.org/dc/elements/1.1/" xmlns:inkscape="http://www.inkscape.org/namespaces/inkscape" xmlns:rdf="http://www.w3.org/1999/02/22-rdf-syntax-ns#" xmlns:sodipodi="http://sodipodi.sourceforge.net/DTD/sodipodi-0.dtd" xmlns:svg="http://www.w3.org/2000/svg"
	 xmlns="http://www.w3.org/2000/svg" xmlns:xlink="http://www.w3.org/1999/xlink" x="0px" y="0px" viewBox="0 0 45 45"
	 style="enable-background:new 0 0 45 45;" xml:space="preserve">
<style type="text/css">
	.st0{fill:#729FCF;stroke:#3465A4;stroke-width:1.082;stroke-linejoin:round;stroke-miterlimit:1;}
	.st1{fill:url(#rect6088_2_);}
	.st2{fill:url(#rect6088_5_);}
	.st3{fill:url(#rect6088_6_);}
	.st4{fill:#555753;}
	.st5{fill:url(#path13219_2_);}
	.st6{fill:#888A85;}
	.st7{opacity:0.4944;fill:url(#path13227_2_);enable-background:new    ;}
	.st8{opacity:0.4944;fill:url(#path13233_2_);enable-background:new    ;}
	.st9{opacity:0.4944;fill:url(#path13239_2_);enable-background:new    ;}
	.st10{opacity:0.4944;fill:url(#path13245_2_);enable-background:new    ;}
	.st11{fill:#888A85;stroke:#555753;stroke-width:0.9992;stroke-miterlimit:1.9981;}
	.st12{fill:url(#path13251_2_);}
	.st13{opacity:0.4778;fill:url(#path13255_2_);enable-background:new    ;}
	.st14{opacity:0.4778;fill:url(#path13263_2_);enable-background:new    ;}
	.st15{opacity:0.4778;fill:url(#path13267_2_);enable-background:new    ;}
	.st16{opacity:0.4778;fill:url(#path13271_2_);enable-background:new    ;}
	.st17{opacity:0.4778;fill:url(#path13273_2_);enable-background:new    ;}
	.st18{fill-rule:evenodd;clip-rule:evenodd;fill:#555753;}
	.st19{opacity:0.4778;fill:url(#path13279_2_);enable-background:new    ;}
	.st20{fill:url(#path13285_2_);}
	.st21{opacity:0.4778;fill:url(#path13289_2_);enable-background:new    ;}
	.st22{opacity:0.4778;fill:url(#path13297_2_);enable-background:new    ;}
	.st23{opacity:0.4778;fill:url(#path13301_2_);enable-background:new    ;}
	.st24{opacity:0.4778;fill:url(#path13305_2_);enable-background:new    ;}
	.st25{opacity:0.4778;fill:url(#path13307_2_);enable-background:new    ;}
	.st26{opacity:0.4778;fill:url(#path13313_2_);enable-background:new    ;}
</style>
<g id="layer1_27_">
	<g id="g11337_1_" transform="translate(-339.9823,245.0132)">
		<path id="rect6086_1_" class="st0" d="M354.7-218.5h0.2c1.3,0,2,0.5,1.4,1.2l-10.2,13.6c-0.5,0.7-2,1.2-3.3,1.2h-0.2
			c-1.3,0-2-0.5-1.4-1.2l10.2-13.6C351.9-218,353.4-218.5,354.7-218.5z"/>
		
			<linearGradient id="rect6088_2_" gradientUnits="userSpaceOnUse" x1="1086.1204" y1="-128.1913" x2="1089.2958" y2="-128.1913" gradientTransform="matrix(1.0884 0 0.5442 -0.6746 -765.4821 -297.0268)">
			<stop  offset="0" style="stop-color:#FFFFFF"/>
			<stop  offset="1" style="stop-color:#FFFFFF;stop-opacity:0"/>
		</linearGradient>
		<path id="rect6088_1_" class="st1" d="M351.6-216.7c0.6-0.8,2.1-1.3,3.1-1.3h0.1c1.3,0,1,0.5,0.5,1.1l-9.6,12.7
			c-0.5,0.6-1.7,1.1-3,1.1c0,0-1.7,0.1-0.6-1.1L351.6-216.7z"/>
	</g>
	<g id="g11337_3_" transform="translate(-339.9823,245.0132)">
		<path id="rect6086_3_" class="st0" d="M367.7-218.5h0.2c1.3,0,2,0.5,1.4,1.2l-10.2,13.6c-0.5,0.7-2,1.2-3.3,1.2h-0.2
			c-1.3,0-2-0.5-1.4-1.2l10.2-13.6C364.9-218,366.4-218.5,367.7-218.5z"/>
		
			<linearGradient id="rect6088_5_" gradientUnits="userSpaceOnUse" x1="1098.0641" y1="-128.1913" x2="1101.2396" y2="-128.1913" gradientTransform="matrix(1.0884 0 0.5442 -0.6746 -765.4821 -297.0268)">
			<stop  offset="0" style="stop-color:#FFFFFF"/>
			<stop  offset="1" style="stop-color:#FFFFFF;stop-opacity:0"/>
		</linearGradient>
		<path id="rect6088_3_" class="st2" d="M364.6-216.7c0.6-0.8,2.1-1.3,3.1-1.3h0.1c1.3,0,1,0.5,0.5,1.1l-9.6,12.7
			c-0.5,0.6-1.7,1.1-3,1.1c0,0-1.7,0.1-0.6-1.1L364.6-216.7z"/>
	</g>
	<g id="g11337_4_" transform="translate(-339.9823,245.0132)">
		<path id="rect6086_4_" class="st0" d="M380.7-218.5h0.2c1.3,0,2,0.5,1.4,1.2l-10.2,13.6c-0.5,0.7-2,1.2-3.3,1.2h-0.2
			c-1.3,0-2-0.5-1.4-1.2l10.2-13.6C377.9-218,379.4-218.5,380.7-218.5z"/>
		
			<linearGradient id="rect6088_6_" gradientUnits="userSpaceOnUse" x1="1110.0078" y1="-128.1913" x2="1113.1832" y2="-128.1913" gradientTransform="matrix(1.0884 0 0.5442 -0.6746 -765.4821 -297.0268)">
			<stop  offset="0" style="stop-color:#FFFFFF"/>
			<stop  offset="1" style="stop-color:#FFFFFF;stop-opacity:0"/>
		</linearGradient>
		<path id="rect6088_4_" class="st3" d="M377.6-216.7c0.6-0.8,2.1-1.3,3.1-1.3h0.1c1.3,0,1,0.5,0.5,1.1l-9.6,12.7
			c-0.5,0.6-1.7,1.1-3,1.1c0,0-1.7,0.1-0.6-1.1L377.6-216.7z"/>
	</g>
	<g id="g13213_1_" transform="matrix(0.999675,0.000000,0.000000,1.000000,-286.8562,245.0000)">
		<g id="g13215_1_">
			<path id="path13217_1_" class="st4" d="M310-243c-2.8,0-5.1,1.6-6.4,3.8c-0.9-0.5-2-0.8-3.1-0.8c-3.9,0-7,3.1-7,7s3.1,7,7,7
				c2.4,0,4.4-1.3,5.7-3.2c1.1,0.7,2.4,1.2,3.8,1.2c0.9,0,1.8-0.2,2.6-0.5c0.5,0.9,1.2,1.6,2,2.2c0,0.1-0.1,0.2-0.1,0.4
				c0,3.9,3.1,7,7,7s7-3.1,7-7c0-2.4-1.3-4.4-3.1-5.6c0-0.1,0.1-0.2,0.1-0.4c0-3.9-3.1-7-7-7c-0.6,0-1.2,0.2-1.8,0.4
				C315.6-241.2,313-243,310-243z"/>
			
				<linearGradient id="path13219_2_" gradientUnits="userSpaceOnUse" x1="1088.509" y1="-12.7521" x2="1126.3704" y2="-25.7894" gradientTransform="matrix(0.9991 0 0 -1 -791.5054 -250)">
				<stop  offset="0" style="stop-color:#FFFFFF"/>
				<stop  offset="1" style="stop-color:#FFFFFF;stop-opacity:0"/>
			</linearGradient>
			<path id="path13219_1_" class="st5" d="M310-242c-2.8,0-5.1,1.8-6.1,4.2c-1-0.7-2.1-1.2-3.4-1.2c-3.3,0-6,2.7-6,6s2.7,6,6,6
				c2.4,0,4.5-1.5,5.4-3.5c1.1,0.9,2.5,1.5,4.1,1.5c1.1,0,2-0.3,2.9-0.8c0.4,1,1.1,1.8,1.9,2.4c-0.2,0.6-0.4,1.2-0.4,1.8
				c0,3.6,2.9,6.5,6.5,6.5s6.5-2.9,6.5-6.5c0-2.4-1.3-4.3-3.2-5.5c0.1-0.3,0.2-0.7,0.2-1c0-3.3-2.7-6-6-6c-0.9,0-1.7,0.2-2.4,0.5
				C315.2-240.1,312.9-242,310-242z"/>
			<path id="path13221_1_" class="st6" d="M327.5-225.5c0,3.6-2.9,6.5-6.5,6.5s-6.5-2.9-6.5-6.5l0,0c0-3.6,2.9-6.5,6.5-6.5
				S327.5-229.1,327.5-225.5L327.5-225.5z"/>
			<g id="g13223_1_">
				<path id="path13225_1_" class="st6" d="M315.5-235.5c0,3-2.5,5.5-5.5,5.5s-5.5-2.5-5.5-5.5s2.5-5.5,5.5-5.5
					S315.5-238.5,315.5-235.5z"/>
				
					<linearGradient id="path13227_2_" gradientUnits="userSpaceOnUse" x1="1140.959" y1="-53.4079" x2="1146.7123" y2="-58.2648" gradientTransform="matrix(0.8817 0 0 -0.8826 -699.8108 -285.8581)">
					<stop  offset="0" style="stop-color:#FFFFFF"/>
					<stop  offset="1" style="stop-color:#FFFFFF;stop-opacity:0"/>
				</linearGradient>
				<path id="path13227_1_" class="st7" d="M315.5-235.5c0,3-2.5,5.5-5.5,5.5s-5.5-2.5-5.5-5.5s2.5-5.5,5.5-5.5
					S315.5-238.5,315.5-235.5z"/>
			</g>
			<g id="g13229_1_">
				<path id="path13231_1_" class="st6" d="M323.5-231.5c0,3-2.5,5.5-5.5,5.5s-5.5-2.5-5.5-5.5l0,0c0-3,2.5-5.5,5.5-5.5
					S323.5-234.5,323.5-231.5z"/>
				
					<linearGradient id="path13233_2_" gradientUnits="userSpaceOnUse" x1="1136.3081" y1="-44.2978" x2="1142.2655" y2="-50.26" gradientTransform="matrix(0.9108 0 0 -0.9117 -721.5296 -276.4688)">
					<stop  offset="0" style="stop-color:#FFFFFF"/>
					<stop  offset="1" style="stop-color:#FFFFFF;stop-opacity:0"/>
				</linearGradient>
				<path id="path13233_1_" class="st8" d="M323.5-231.5c0,3-2.5,5.5-5.5,5.5s-5.5-2.5-5.5-5.5l0,0c0-3,2.5-5.5,5.5-5.5
					S323.5-234.5,323.5-231.5z"/>
			</g>
			<g id="g13235_1_">
				<path id="path13237_1_" class="st6" d="M305.5-233c0,2.8-2.2,5-5,5s-5-2.2-5-5s2.2-5,5-5S305.5-235.8,305.5-233L305.5-233z"/>
				
					<linearGradient id="path13239_2_" gradientUnits="userSpaceOnUse" x1="1051.963" y1="24.0062" x2="1056.3435" y2="20.5257" gradientTransform="matrix(1.1416 0 0 -1.1428 -903.6966 -208.1461)">
					<stop  offset="0" style="stop-color:#FFFFFF"/>
					<stop  offset="1" style="stop-color:#FFFFFF;stop-opacity:0"/>
				</linearGradient>
				<path id="path13239_1_" class="st9" d="M305.5-233c0,2.8-2.2,5-5,5s-5-2.2-5-5s2.2-5,5-5S305.5-235.8,305.5-233L305.5-233z"/>
			</g>
			<g id="g13241_1_">
				<path id="path13243_1_" class="st6" d="M316.5-229c0,3.9-3.1,7-7,7s-7-3.1-7-7l0,0c0-3.9,3.1-7,7-7S316.5-232.9,316.5-229
					L316.5-229z"/>
				
					<linearGradient id="path13245_2_" gradientUnits="userSpaceOnUse" x1="1085.5952" y1="-6.1715" x2="1093.2451" y2="-12.0009" gradientTransform="matrix(1.0377 0 0 -1.0386 -821.8763 -239.1418)">
					<stop  offset="0" style="stop-color:#FFFFFF"/>
					<stop  offset="1" style="stop-color:#FFFFFF;stop-opacity:0"/>
				</linearGradient>
				<path id="path13245_1_" class="st10" d="M316.5-229c0,3.9-3.1,7-7,7s-7-3.1-7-7l0,0c0-3.9,3.1-7,7-7S316.5-232.9,316.5-229
					L316.5-229z"/>
			</g>
		</g>
		<g id="g13247_1_" transform="translate(72.00007,7.999930)">
			<path id="path13249_1_" class="st11" d="M245-238.5c-2.3,0-4.1,1.6-4.7,3.6c-0.7-0.4-1.4-0.6-2.3-0.6c-2.8,0-5,2.2-5,5
				c0,0.6,0.2,1.1,0.3,1.6c-1.4,0.8-2.3,2.2-2.3,3.9c0,2.5,2,4.5,4.5,4.5c0.2,0,18.8,0,19,0c2.5,0,4.5-2,4.5-4.5
				c0-1.7-1-3.1-2.3-3.9c0.2-0.5,0.3-1,0.3-1.6c0-2.8-2.2-5-5-5c-0.8,0-1.6,0.3-2.3,0.6C249.1-236.9,247.3-238.5,245-238.5z"/>
			
				<linearGradient id="path13251_2_" gradientUnits="userSpaceOnUse" x1="914.6958" y1="27.5538" x2="928.7027" y2="18.4719" gradientTransform="matrix(0.9991 0 0 -1 -678.6403 -205.9998)">
				<stop  offset="0" style="stop-color:#FFFFFF"/>
				<stop  offset="1" style="stop-color:#FFFFFF;stop-opacity:0"/>
			</linearGradient>
			<path id="path13251_1_" class="st12" d="M245-238c-2.2,0-3.7,1.3-4.4,3.8c-0.7-0.3-1.5-0.8-2.4-0.8c-2.7,0-4.8,1.9-4.8,4.5
				c0,0.5,0.3,1.3,0.4,1.8c-1.3,0.7-2.4,1.9-2.4,3.4c0,2.3,1.5,4.3,4.3,4.3c0.2,0,18.2,0,18.3,0c2.8,0,4.3-1.9,4.3-4.3
				c0-1.6-1.1-2.7-2.4-3.4c0.2-0.5,0.5-1.3,0.5-1.8c0-2.6-2.1-4.6-4.8-4.6c-0.8,0-1.6,0.5-2.3,0.8C248.8-236.6,247.2-238,245-238z"
				/>
			<path id="path13253_1_" class="st6" d="M248.5-233.5c0,1.9-1.6,3.5-3.5,3.5s-3.5-1.6-3.5-3.5s1.6-3.5,3.5-3.5
				S248.5-235.4,248.5-233.5L248.5-233.5z"/>
			
				<linearGradient id="path13255_2_" gradientUnits="userSpaceOnUse" x1="914.5466" y1="43.1742" x2="916.7056" y2="39.7434" gradientTransform="matrix(1.0557 0 0 -1.0566 -721.7228 -189.9101)">
				<stop  offset="0" style="stop-color:#FFFFFF"/>
				<stop  offset="1" style="stop-color:#FFFFFF;stop-opacity:0"/>
			</linearGradient>
			<path id="path13255_1_" class="st13" d="M248.5-233.5c0,1.9-1.6,3.5-3.5,3.5s-3.5-1.6-3.5-3.5s1.6-3.5,3.5-3.5
				S248.5-235.4,248.5-233.5L248.5-233.5z"/>
			<rect id="rect13257_1_" x="235.5" y="-231" class="st6" width="20" height="9"/>
			<path id="path13259_1_" class="st6" d="M238.5-225c0,1.7-1.3,3-3,3s-3-1.3-3-3s1.3-3,3-3S238.5-226.7,238.5-225L238.5-225z"/>
			<path id="path13261_1_" class="st6" d="M255.5-230.5c0,1.9-1.6,3.5-3.5,3.5s-3.5-1.6-3.5-3.5s1.6-3.5,3.5-3.5
				S255.5-232.4,255.5-230.5L255.5-230.5z"/>
			
				<linearGradient id="path13263_2_" gradientUnits="userSpaceOnUse" x1="913.5215" y1="44.6926" x2="916.8636" y2="39.5464" gradientTransform="matrix(1.0557 0 0 -1.0566 -714.7228 -186.9101)">
				<stop  offset="0" style="stop-color:#FFFFFF"/>
				<stop  offset="1" style="stop-color:#FFFFFF;stop-opacity:0"/>
			</linearGradient>
			<path id="path13263_1_" class="st14" d="M255.5-230.5c0,1.9-1.6,3.5-3.5,3.5s-3.5-1.6-3.5-3.5s1.6-3.5,3.5-3.5
				S255.5-232.4,255.5-230.5L255.5-230.5z"/>
			<path id="path13265_1_" class="st6" d="M241.5-230.5c0,1.9-1.6,3.5-3.5,3.5s-3.5-1.6-3.5-3.5s1.6-3.5,3.5-3.5
				S241.5-232.4,241.5-230.5L241.5-230.5z"/>
			
				<linearGradient id="path13267_2_" gradientUnits="userSpaceOnUse" x1="913.3951" y1="43.6452" x2="916.8453" y2="40.1491" gradientTransform="matrix(1.0557 0 0 -1.0566 -728.7228 -186.9101)">
				<stop  offset="0" style="stop-color:#FFFFFF"/>
				<stop  offset="1" style="stop-color:#FFFFFF;stop-opacity:0"/>
			</linearGradient>
			<path id="path13267_1_" class="st15" d="M241.5-230.5c0,1.9-1.6,3.5-3.5,3.5s-3.5-1.6-3.5-3.5s1.6-3.5,3.5-3.5
				S241.5-232.4,241.5-230.5L241.5-230.5z"/>
			<path id="path13269_1_" class="st6" d="M244-234c-3.6,0-6.5,2.9-6.5,6.5c0,2.4,1.3,4.3,3.3,5.5h6.5c1.9-1.1,3.3-3.1,3.3-5.5
				C250.5-231.1,247.5-234,244-234z"/>
			
				<linearGradient id="path13271_2_" gradientUnits="userSpaceOnUse" x1="921.5476" y1="25.3509" x2="925.581" y2="20.1642" gradientTransform="matrix(0.9991 0 0 -1 -679.6403 -205.9998)">
				<stop  offset="0" style="stop-color:#FFFFFF"/>
				<stop  offset="1" style="stop-color:#FFFFFF;stop-opacity:0"/>
			</linearGradient>
			<path id="path13271_1_" class="st16" d="M244-234c-3.6,0-6.5,2.9-6.5,6.5c0,2.4,1.3,4.4,3.3,5.5h6.5c1.9-1.1,3.3-3.1,3.3-5.5
				C250.5-231.1,247.6-234,244-234z"/>
			
				<linearGradient id="path13273_2_" gradientUnits="userSpaceOnUse" x1="962.7779" y1="-6.1032" x2="965.8777" y2="-8.8798" gradientTransform="matrix(0.9048 0 0 -0.9057 -637.3434 -232.066)">
				<stop  offset="0" style="stop-color:#FFFFFF"/>
				<stop  offset="1" style="stop-color:#FFFFFF;stop-opacity:0"/>
			</linearGradient>
			<path id="path13273_1_" class="st17" d="M238.5-225c0,1.7-1.3,3-3,3s-3-1.3-3-3s1.3-3,3-3S238.5-226.7,238.5-225L238.5-225z"/>
			<path id="path13275_1_" class="st18" d="M257.5-230.3c0,2.7-3.3,3.7-3.3,3.7s2.3-1.6,2.3-3.7H257.5z"/>
			<path id="path13277_1_" class="st6" d="M252.5-226c0,2.2-1.8,4-4,4s-4-1.8-4-4s1.8-4,4-4S252.5-228.2,252.5-226L252.5-226z"/>
			
				<linearGradient id="path13279_2_" gradientUnits="userSpaceOnUse" x1="875.6602" y1="81.7786" x2="879.7574" y2="77.3766" gradientTransform="matrix(1.2064 0 0 -1.2075 -812.091 -131.7542)">
				<stop  offset="0" style="stop-color:#FFFFFF"/>
				<stop  offset="1" style="stop-color:#FFFFFF;stop-opacity:0"/>
			</linearGradient>
			<path id="path13279_1_" class="st19" d="M252.5-226c0,2.2-1.8,4-4,4s-4-1.8-4-4s1.8-4,4-4S252.5-228.2,252.5-226L252.5-226z"/>
		</g>
		<g id="g13281_1_" transform="translate(56.98577,3.983930)">
			<path id="path13283_1_" class="st11" d="M245-238.5c-2.3,0-4.1,1.6-4.7,3.6c-0.7-0.4-1.4-0.6-2.3-0.6c-2.8,0-5,2.2-5,5
				c0,0.6,0.2,1.1,0.3,1.6c-1.4,0.8-2.3,2.2-2.3,3.9c0,2.5,2,4.5,4.5,4.5c0.2,0,18.8,0,19,0c2.5,0,4.5-2,4.5-4.5
				c0-1.7-1-3.1-2.3-3.9c0.2-0.5,0.3-1,0.3-1.6c0-2.8-2.2-5-5-5c-0.8,0-1.6,0.3-2.3,0.6C249.1-236.9,247.3-238.5,245-238.5z"/>
			
				<linearGradient id="path13285_2_" gradientUnits="userSpaceOnUse" x1="959.7529" y1="31.5693" x2="973.7599" y2="22.4875" gradientTransform="matrix(0.9991 0 0 -1 -723.655 -201.9838)">
				<stop  offset="0" style="stop-color:#FFFFFF"/>
				<stop  offset="1" style="stop-color:#FFFFFF;stop-opacity:0"/>
			</linearGradient>
			<path id="path13285_1_" class="st20" d="M245-238c-2.2,0-3.7,1.3-4.4,3.8c-0.7-0.3-1.5-0.8-2.4-0.8c-2.7,0-4.8,1.9-4.8,4.5
				c0,0.5,0.3,1.3,0.4,1.8c-1.3,0.7-2.4,1.9-2.4,3.4c0,2.3,1.5,4.3,4.3,4.3c0.2,0,18.2,0,18.3,0c2.8,0,4.3-1.9,4.3-4.3
				c0-1.6-1.1-2.7-2.4-3.4c0.2-0.5,0.5-1.3,0.5-1.8c0-2.6-2.1-4.6-4.8-4.6c-0.8,0-1.6,0.5-2.3,0.8C248.8-236.6,247.2-238,245-238z"
				/>
			<path id="path13287_1_" class="st6" d="M248.5-233.5c0,1.9-1.6,3.5-3.5,3.5s-3.5-1.6-3.5-3.5s1.6-3.5,3.5-3.5
				S248.5-235.4,248.5-233.5L248.5-233.5z"/>
			
				<linearGradient id="path13289_2_" gradientUnits="userSpaceOnUse" x1="959.6028" y1="47.1895" x2="961.7618" y2="43.7587" gradientTransform="matrix(1.0557 0 0 -1.0566 -769.2863 -185.6668)">
				<stop  offset="0" style="stop-color:#FFFFFF"/>
				<stop  offset="1" style="stop-color:#FFFFFF;stop-opacity:0"/>
			</linearGradient>
			<path id="path13289_1_" class="st21" d="M248.5-233.5c0,1.9-1.6,3.5-3.5,3.5s-3.5-1.6-3.5-3.5s1.6-3.5,3.5-3.5
				S248.5-235.4,248.5-233.5L248.5-233.5z"/>
			<rect id="rect13291_1_" x="235.5" y="-231" class="st6" width="20" height="9"/>
			<path id="path13293_1_" class="st6" d="M238.5-225c0,1.7-1.3,3-3,3s-3-1.3-3-3s1.3-3,3-3S238.5-226.7,238.5-225L238.5-225z"/>
			<path id="path13295_1_" class="st6" d="M255.5-230.5c0,1.9-1.6,3.5-3.5,3.5s-3.5-1.6-3.5-3.5s1.6-3.5,3.5-3.5
				S255.5-232.4,255.5-230.5L255.5-230.5z"/>
			
				<linearGradient id="path13297_2_" gradientUnits="userSpaceOnUse" x1="958.5779" y1="48.7078" x2="961.92" y2="43.5616" gradientTransform="matrix(1.0557 0 0 -1.0566 -762.2863 -182.6668)">
				<stop  offset="0" style="stop-color:#FFFFFF"/>
				<stop  offset="1" style="stop-color:#FFFFFF;stop-opacity:0"/>
			</linearGradient>
			<path id="path13297_1_" class="st22" d="M255.5-230.5c0,1.9-1.6,3.5-3.5,3.5s-3.5-1.6-3.5-3.5s1.6-3.5,3.5-3.5
				S255.5-232.4,255.5-230.5L255.5-230.5z"/>
			<path id="path13299_1_" class="st6" d="M241.5-230.5c0,1.9-1.6,3.5-3.5,3.5s-3.5-1.6-3.5-3.5s1.6-3.5,3.5-3.5
				S241.5-232.4,241.5-230.5L241.5-230.5z"/>
			
				<linearGradient id="path13301_2_" gradientUnits="userSpaceOnUse" x1="958.4517" y1="47.6604" x2="961.9019" y2="44.1643" gradientTransform="matrix(1.0557 0 0 -1.0566 -776.2863 -182.6668)">
				<stop  offset="0" style="stop-color:#FFFFFF"/>
				<stop  offset="1" style="stop-color:#FFFFFF;stop-opacity:0"/>
			</linearGradient>
			<path id="path13301_1_" class="st23" d="M241.5-230.5c0,1.9-1.6,3.5-3.5,3.5s-3.5-1.6-3.5-3.5s1.6-3.5,3.5-3.5
				S241.5-232.4,241.5-230.5L241.5-230.5z"/>
			<path id="path13303_1_" class="st6" d="M244-234c-3.6,0-6.5,2.9-6.5,6.5c0,2.4,1.3,4.3,3.3,5.5h6.5c1.9-1.1,3.3-3.1,3.3-5.5
				C250.5-231.1,247.5-234,244-234z"/>
			
				<linearGradient id="path13305_2_" gradientUnits="userSpaceOnUse" x1="966.6044" y1="29.3663" x2="970.6379" y2="24.1796" gradientTransform="matrix(0.9991 0 0 -1 -724.655 -201.9838)">
				<stop  offset="0" style="stop-color:#FFFFFF"/>
				<stop  offset="1" style="stop-color:#FFFFFF;stop-opacity:0"/>
			</linearGradient>
			<path id="path13305_1_" class="st24" d="M244-234c-3.6,0-6.5,2.9-6.5,6.5c0,2.4,1.3,4.4,3.3,5.5h6.5c1.9-1.1,3.3-3.1,3.3-5.5
				C250.5-231.1,247.6-234,244-234z"/>
			
				<linearGradient id="path13307_2_" gradientUnits="userSpaceOnUse" x1="1007.8351" y1="-2.0875" x2="1010.9349" y2="-4.8641" gradientTransform="matrix(0.9048 0 0 -0.9057 -678.1113 -228.4289)">
				<stop  offset="0" style="stop-color:#FFFFFF"/>
				<stop  offset="1" style="stop-color:#FFFFFF;stop-opacity:0"/>
			</linearGradient>
			<path id="path13307_1_" class="st25" d="M238.5-225c0,1.7-1.3,3-3,3s-3-1.3-3-3s1.3-3,3-3S238.5-226.7,238.5-225L238.5-225z"/>
			<path id="path13309_1_" class="st18" d="M257.5-230.3c0,2.7-3.3,3.7-3.3,3.7s2.3-1.6,2.3-3.7H257.5z"/>
			<path id="path13311_1_" class="st6" d="M252.5-226c0,2.2-1.8,4-4,4s-4-1.8-4-4s1.8-4,4-4S252.5-228.2,252.5-226L252.5-226z"/>
			
				<linearGradient id="path13313_2_" gradientUnits="userSpaceOnUse" x1="920.7175" y1="85.7944" x2="924.8149" y2="81.3925" gradientTransform="matrix(1.2064 0 0 -1.2075 -866.4483 -126.9047)">
				<stop  offset="0" style="stop-color:#FFFFFF"/>
				<stop  offset="1" style="stop-color:#FFFFFF;stop-opacity:0"/>
			</linearGradient>
			<path id="path13313_1_" class="st26" d="M252.5-226c0,2.2-1.8,4-4,4s-4-1.8-4-4s1.8-4,4-4S252.5-228.2,252.5-226L252.5-226z"/>
		</g>
	</g>
</g>
</svg>
