<?xml version="1.0" encoding="utf-8"?>
<!-- Generator: Adobe Illustrator 24.0.1, SVG Export Plug-In . SVG Version: 6.00 Build 0)  -->
<svg version="1.1"
	 id="svg1306" xmlns:cc="http://creativecommons.org/ns#" xmlns:dc="http://purl.org/dc/elements/1.1/" xmlns:inkscape="http://www.inkscape.org/namespaces/inkscape" xmlns:rdf="http://www.w3.org/1999/02/22-rdf-syntax-ns#" xmlns:sodipodi="http://sodipodi.sourceforge.net/DTD/sodipodi-0.dtd" xmlns:svg="http://www.w3.org/2000/svg"
	 xmlns="http://www.w3.org/2000/svg" xmlns:xlink="http://www.w3.org/1999/xlink" x="0px" y="0px" viewBox="0 0 45 45"
	 style="enable-background:new 0 0 45 45;" xml:space="preserve">
<style type="text/css">
	.st0{fill:#555753;}
	.st1{fill:url(#path8889_1_);}
	.st2{fill:#888A85;}
	.st3{opacity:0.4944;fill:url(#path8897_1_);enable-background:new    ;}
	.st4{opacity:0.4944;fill:url(#path8903_1_);enable-background:new    ;}
	.st5{opacity:0.4944;fill:url(#path8909_1_);enable-background:new    ;}
	.st6{opacity:0.4944;fill:url(#path8915_1_);enable-background:new    ;}
	.st7{fill:#888A85;stroke:#555753;stroke-width:0.9992;stroke-miterlimit:1.9981;}
	.st8{fill:url(#path12582_1_);}
	.st9{opacity:0.4778;fill:url(#path12586_1_);enable-background:new    ;}
	.st10{opacity:0.4778;fill:url(#path12595_1_);enable-background:new    ;}
	.st11{opacity:0.4778;fill:url(#path12599_1_);enable-background:new    ;}
	.st12{opacity:0.4778;fill:url(#path12603_1_);enable-background:new    ;}
	.st13{opacity:0.4778;fill:url(#path12605_1_);enable-background:new    ;}
	.st14{fill-rule:evenodd;clip-rule:evenodd;fill:#555753;}
	.st15{opacity:0.4778;fill:url(#path12611_1_);enable-background:new    ;}
	.st16{fill:url(#path12331_1_);}
	.st17{opacity:0.4778;fill:url(#path12335_1_);enable-background:new    ;}
	.st18{opacity:0.4778;fill:url(#path12343_1_);enable-background:new    ;}
	.st19{opacity:0.4778;fill:url(#path12349_1_);enable-background:new    ;}
	.st20{opacity:0.4778;fill:url(#path12353_1_);enable-background:new    ;}
	.st21{opacity:0.4778;fill:url(#path12355_1_);enable-background:new    ;}
	.st22{opacity:0.4778;fill:url(#path12361_1_);enable-background:new    ;}
	.st23{fill:#C8E1FF;stroke:#729FCF;stroke-width:1.0746;stroke-miterlimit:2;}
	.st24{fill:url(#path12233_2_);}
	.st25{fill:url(#path12233_3_);}
	.st26{fill:url(#path12233_4_);}
</style>
<g id="layer1_22_">
	<g id="g12627_4_" transform="matrix(0.999675,0.000000,0.000000,1.000000,-286.8482,245.0001)">
		<g id="g12533_4_">
			<path id="path8887_4_" class="st0" d="M310-243.2c-2.8,0-5.1,1.6-6.4,3.8c-0.9-0.5-2-0.8-3.1-0.8c-3.9,0-7,3.1-7,7s3.1,7,7,7
				c2.4,0,4.4-1.3,5.7-3.2c1.1,0.7,2.4,1.2,3.8,1.2c0.9,0,1.8-0.2,2.6-0.5c0.5,0.9,1.2,1.6,2,2.2c0,0.1-0.1,0.2-0.1,0.4
				c0,3.9,3.1,7,7,7s7-3.1,7-7c0-2.4-1.3-4.4-3.1-5.6c0-0.1,0.1-0.2,0.1-0.4c0-3.9-3.1-7-7-7c-0.6,0-1.2,0.2-1.8,0.4
				C315.5-241.4,313-243.2,310-243.2z"/>
			
				<linearGradient id="path8889_1_" gradientUnits="userSpaceOnUse" x1="1088.421" y1="-12.5145" x2="1126.2822" y2="-25.5518" gradientTransform="matrix(0.9991 0 0 -1 -791.4814 -250.0001)">
				<stop  offset="0" style="stop-color:#FFFFFF"/>
				<stop  offset="1" style="stop-color:#FFFFFF;stop-opacity:0"/>
			</linearGradient>
			<path id="path8889_4_" class="st1" d="M310-242.2c-2.8,0-5.1,1.8-6.1,4.2c-1-0.7-2.1-1.2-3.4-1.2c-3.3,0-6,2.7-6,6s2.7,6,6,6
				c2.4,0,4.5-1.5,5.4-3.5c1.1,0.9,2.5,1.5,4.1,1.5c1.1,0,2-0.3,2.9-0.8c0.4,1,1.1,1.8,1.9,2.4c-0.2,0.6-0.4,1.2-0.4,1.8
				c0,3.6,2.9,6.5,6.5,6.5s6.5-2.9,6.5-6.5c0-2.4-1.3-4.3-3.2-5.5c0.1-0.3,0.2-0.7,0.2-1c0-3.3-2.7-6-6-6c-0.9,0-1.7,0.2-2.4,0.5
				C315.2-240.3,312.8-242.2,310-242.2z"/>
			<path id="path8891_4_" class="st2" d="M327.5-225.7c0,3.6-2.9,6.5-6.5,6.5s-6.5-2.9-6.5-6.5l0,0c0-3.6,2.9-6.5,6.5-6.5
				C324.5-232.2,327.5-229.3,327.5-225.7L327.5-225.7z"/>
			<g id="g12520_4_">
				<path id="path8895_4_" class="st2" d="M315.5-235.7c0,3-2.5,5.5-5.5,5.5s-5.5-2.5-5.5-5.5s2.5-5.5,5.5-5.5
					S315.5-238.7,315.5-235.7z"/>
				
					<linearGradient id="path8897_1_" gradientUnits="userSpaceOnUse" x1="1140.8893" y1="-53.1168" x2="1146.6425" y2="-57.9737" gradientTransform="matrix(0.8817 0 0 -0.8826 -699.7896 -285.8582)">
					<stop  offset="0" style="stop-color:#FFFFFF"/>
					<stop  offset="1" style="stop-color:#FFFFFF;stop-opacity:0"/>
				</linearGradient>
				<path id="path8897_4_" class="st3" d="M315.5-235.7c0,3-2.5,5.5-5.5,5.5s-5.5-2.5-5.5-5.5s2.5-5.5,5.5-5.5
					S315.5-238.7,315.5-235.7z"/>
			</g>
			<g id="g12516_4_">
				<path id="path8901_4_" class="st2" d="M323.5-231.7c0,3-2.5,5.5-5.5,5.5s-5.5-2.5-5.5-5.5l0,0c0-3,2.5-5.5,5.5-5.5
					S323.5-234.7,323.5-231.7z"/>
				
					<linearGradient id="path8903_1_" gradientUnits="userSpaceOnUse" x1="1136.2462" y1="-44.0154" x2="1142.2036" y2="-49.9776" gradientTransform="matrix(0.9108 0 0 -0.9117 -721.5077 -276.4689)">
					<stop  offset="0" style="stop-color:#FFFFFF"/>
					<stop  offset="1" style="stop-color:#FFFFFF;stop-opacity:0"/>
				</linearGradient>
				<path id="path8903_4_" class="st4" d="M323.5-231.7c0,3-2.5,5.5-5.5,5.5s-5.5-2.5-5.5-5.5l0,0c0-3,2.5-5.5,5.5-5.5
					S323.5-234.7,323.5-231.7z"/>
			</g>
			<g id="g12524_4_">
				<path id="path8907_4_" class="st2" d="M305.5-233.2c0,2.8-2.2,5-5,5s-5-2.2-5-5s2.2-5,5-5C303.2-238.2,305.5-236,305.5-233.2
					L305.5-233.2z"/>
				
					<linearGradient id="path8909_1_" gradientUnits="userSpaceOnUse" x1="1051.8947" y1="24.2217" x2="1056.2753" y2="20.7412" gradientTransform="matrix(1.1416 0 0 -1.1428 -903.6692 -208.1462)">
					<stop  offset="0" style="stop-color:#FFFFFF"/>
					<stop  offset="1" style="stop-color:#FFFFFF;stop-opacity:0"/>
				</linearGradient>
				<path id="path8909_4_" class="st5" d="M305.5-233.2c0,2.8-2.2,5-5,5s-5-2.2-5-5s2.2-5,5-5C303.2-238.2,305.5-236,305.5-233.2
					L305.5-233.2z"/>
			</g>
			<g id="g12529_4_">
				<path id="path8913_4_" class="st2" d="M316.5-229.2c0,3.9-3.1,7-7,7s-7-3.1-7-7l0,0c0-3.9,3.1-7,7-7
					C313.3-236.2,316.5-233.1,316.5-229.2L316.5-229.2z"/>
				
					<linearGradient id="path8915_1_" gradientUnits="userSpaceOnUse" x1="1085.5216" y1="-5.9348" x2="1093.1715" y2="-11.7642" gradientTransform="matrix(1.0377 0 0 -1.0386 -821.8514 -239.1419)">
					<stop  offset="0" style="stop-color:#FFFFFF"/>
					<stop  offset="1" style="stop-color:#FFFFFF;stop-opacity:0"/>
				</linearGradient>
				<path id="path8915_4_" class="st6" d="M316.5-229.2c0,3.9-3.1,7-7,7s-7-3.1-7-7l0,0c0-3.9,3.1-7,7-7
					C313.3-236.2,316.5-233.1,316.5-229.2L316.5-229.2z"/>
			</g>
		</g>
		<g id="g12578_4_" transform="translate(72.00007,7.999930)">
			<path id="path12580_4_" class="st7" d="M245-238.7c-2.3,0-4.1,1.6-4.7,3.6c-0.7-0.4-1.4-0.6-2.3-0.6c-2.8,0-5,2.2-5,5
				c0,0.6,0.2,1.1,0.3,1.6c-1.4,0.8-2.3,2.2-2.3,3.9c0,2.5,2,4.5,4.5,4.5c0.2,0,18.8,0,19,0c2.5,0,4.5-2,4.5-4.5
				c0-1.7-1-3.1-2.3-3.9c0.2-0.5,0.3-1,0.3-1.6c0-2.8-2.2-5-5-5c-0.8,0-1.6,0.3-2.3,0.6C249.1-237.1,247.2-238.7,245-238.7z"/>
			
				<linearGradient id="path12582_1_" gradientUnits="userSpaceOnUse" x1="914.6232" y1="27.8082" x2="928.6301" y2="18.7263" gradientTransform="matrix(0.9991 0 0 -1 -678.6163 -205.9999)">
				<stop  offset="0" style="stop-color:#FFFFFF"/>
				<stop  offset="1" style="stop-color:#FFFFFF;stop-opacity:0"/>
			</linearGradient>
			<path id="path12582_4_" class="st8" d="M245-238.2c-2.2,0-3.7,1.3-4.4,3.8c-0.7-0.3-1.5-0.8-2.4-0.8c-2.7,0-4.8,1.9-4.8,4.5
				c0,0.5,0.3,1.3,0.4,1.8c-1.3,0.7-2.4,1.9-2.4,3.4c0,2.3,1.5,4.3,4.3,4.3c0.2,0,18.2,0,18.3,0c2.8,0,4.3-1.9,4.3-4.3
				c0-1.6-1.1-2.7-2.4-3.4c0.2-0.5,0.5-1.3,0.5-1.8c0-2.6-2.1-4.6-4.8-4.6c-0.8,0-1.6,0.5-2.3,0.8
				C248.7-236.8,247.1-238.2,245-238.2z"/>
			<path id="path12584_4_" class="st2" d="M248.5-233.7c0,1.9-1.6,3.5-3.5,3.5s-3.5-1.6-3.5-3.5s1.6-3.5,3.5-3.5
				S248.5-235.6,248.5-233.7L248.5-233.7z"/>
			
				<linearGradient id="path12586_1_" gradientUnits="userSpaceOnUse" x1="914.504" y1="43.4147" x2="916.663" y2="39.9839" gradientTransform="matrix(1.0557 0 0 -1.0566 -721.6974 -189.9102)">
				<stop  offset="0" style="stop-color:#FFFFFF"/>
				<stop  offset="1" style="stop-color:#FFFFFF;stop-opacity:0"/>
			</linearGradient>
			<path id="path12586_4_" class="st9" d="M248.5-233.7c0,1.9-1.6,3.5-3.5,3.5s-3.5-1.6-3.5-3.5s1.6-3.5,3.5-3.5
				S248.5-235.6,248.5-233.7L248.5-233.7z"/>
			<rect id="rect12588_4_" x="235.5" y="-231.2" class="st2" width="20" height="9"/>
			<path id="path12591_4_" class="st2" d="M238.5-225.2c0,1.7-1.3,3-3,3s-3-1.3-3-3s1.3-3,3-3S238.5-226.9,238.5-225.2L238.5-225.2z
				"/>
			<path id="path12593_4_" class="st2" d="M255.5-230.7c0,1.9-1.6,3.5-3.5,3.5s-3.5-1.6-3.5-3.5s1.6-3.5,3.5-3.5
				S255.5-232.6,255.5-230.7L255.5-230.7z"/>
			
				<linearGradient id="path12595_1_" gradientUnits="userSpaceOnUse" x1="913.4781" y1="44.9335" x2="916.8202" y2="39.7873" gradientTransform="matrix(1.0557 0 0 -1.0566 -714.6974 -186.9102)">
				<stop  offset="0" style="stop-color:#FFFFFF"/>
				<stop  offset="1" style="stop-color:#FFFFFF;stop-opacity:0"/>
			</linearGradient>
			<path id="path12595_4_" class="st10" d="M255.5-230.7c0,1.9-1.6,3.5-3.5,3.5s-3.5-1.6-3.5-3.5s1.6-3.5,3.5-3.5
				S255.5-232.6,255.5-230.7L255.5-230.7z"/>
			<path id="path12597_4_" class="st2" d="M241.5-230.7c0,1.9-1.6,3.5-3.5,3.5s-3.5-1.6-3.5-3.5s1.6-3.5,3.5-3.5
				S241.5-232.6,241.5-230.7L241.5-230.7z"/>
			
				<linearGradient id="path12599_1_" gradientUnits="userSpaceOnUse" x1="913.3386" y1="43.8888" x2="916.7891" y2="40.3928" gradientTransform="matrix(1.0557 0 0 -1.0566 -728.6974 -186.9102)">
				<stop  offset="0" style="stop-color:#FFFFFF"/>
				<stop  offset="1" style="stop-color:#FFFFFF;stop-opacity:0"/>
			</linearGradient>
			<path id="path12599_4_" class="st11" d="M241.5-230.7c0,1.9-1.6,3.5-3.5,3.5s-3.5-1.6-3.5-3.5s1.6-3.5,3.5-3.5
				S241.5-232.6,241.5-230.7L241.5-230.7z"/>
			<path id="path12601_4_" class="st2" d="M243.9-234.2c-3.6,0-6.5,2.9-6.5,6.5c0,2.4,1.3,4.3,3.3,5.5h6.5c1.9-1.1,3.3-3.1,3.3-5.5
				C250.4-231.3,247.5-234.2,243.9-234.2z"/>
			
				<linearGradient id="path12603_1_" gradientUnits="userSpaceOnUse" x1="921.4881" y1="25.6001" x2="925.5217" y2="20.4134" gradientTransform="matrix(0.9991 0 0 -1 -679.6163 -205.9999)">
				<stop  offset="0" style="stop-color:#FFFFFF"/>
				<stop  offset="1" style="stop-color:#FFFFFF;stop-opacity:0"/>
			</linearGradient>
			<path id="path12603_4_" class="st12" d="M244-234.2c-3.6,0-6.5,2.9-6.5,6.5c0,2.4,1.3,4.4,3.3,5.5h6.5c1.9-1.1,3.3-3.1,3.3-5.5
				C250.5-231.3,247.5-234.2,244-234.2z"/>
			
				<linearGradient id="path12605_1_" gradientUnits="userSpaceOnUse" x1="962.7018" y1="-5.8301" x2="965.8015" y2="-8.6066" gradientTransform="matrix(0.9048 0 0 -0.9057 -637.3217 -232.0661)">
				<stop  offset="0" style="stop-color:#FFFFFF"/>
				<stop  offset="1" style="stop-color:#FFFFFF;stop-opacity:0"/>
			</linearGradient>
			<path id="path12605_4_" class="st13" d="M238.5-225.2c0,1.7-1.3,3-3,3s-3-1.3-3-3s1.3-3,3-3C237.1-228.2,238.5-226.9,238.5-225.2
				L238.5-225.2z"/>
			<path id="path12607_4_" class="st14" d="M257.4-230.5c0,2.7-3.3,3.7-3.3,3.7s2.3-1.6,2.3-3.7H257.4z"/>
			<path id="path12609_4_" class="st2" d="M252.5-226.2c0,2.2-1.8,4-4,4c-2.2,0-4-1.8-4-4s1.8-4,4-4
				C250.7-230.2,252.5-228.4,252.5-226.2L252.5-226.2z"/>
			
				<linearGradient id="path12611_1_" gradientUnits="userSpaceOnUse" x1="875.6094" y1="81.9916" x2="879.7068" y2="77.5897" gradientTransform="matrix(1.2064 0 0 -1.2075 -812.062 -131.7543)">
				<stop  offset="0" style="stop-color:#FFFFFF"/>
				<stop  offset="1" style="stop-color:#FFFFFF;stop-opacity:0"/>
			</linearGradient>
			<path id="path12611_4_" class="st15" d="M252.5-226.2c0,2.2-1.8,4-4,4c-2.2,0-4-1.8-4-4s1.8-4,4-4
				C250.7-230.2,252.5-228.4,252.5-226.2L252.5-226.2z"/>
		</g>
		<g id="g12393_4_" transform="translate(56.98577,3.983930)">
			<path id="path12329_4_" class="st7" d="M245-238.7c-2.3,0-4.1,1.6-4.7,3.6c-0.7-0.4-1.4-0.6-2.3-0.6c-2.8,0-5,2.2-5,5
				c0,0.6,0.2,1.1,0.3,1.6c-1.4,0.8-2.3,2.2-2.3,3.9c0,2.5,2,4.5,4.5,4.5c0.2,0,18.8,0,19,0c2.5,0,4.5-2,4.5-4.5
				c0-1.7-1-3.1-2.3-3.9c0.2-0.5,0.3-1,0.3-1.6c0-2.8-2.2-5-5-5c-0.8,0-1.6,0.3-2.3,0.6C249.1-237.1,247.2-238.7,245-238.7z"/>
			
				<linearGradient id="path12331_1_" gradientUnits="userSpaceOnUse" x1="959.6805" y1="31.8237" x2="973.6873" y2="22.7418" gradientTransform="matrix(0.9991 0 0 -1 -723.631 -201.9839)">
				<stop  offset="0" style="stop-color:#FFFFFF"/>
				<stop  offset="1" style="stop-color:#FFFFFF;stop-opacity:0"/>
			</linearGradient>
			<path id="path12331_4_" class="st16" d="M245-238.2c-2.2,0-3.7,1.3-4.4,3.8c-0.7-0.3-1.5-0.8-2.4-0.8c-2.7,0-4.8,1.9-4.8,4.5
				c0,0.5,0.3,1.3,0.4,1.8c-1.3,0.7-2.4,1.9-2.4,3.4c0,2.3,1.5,4.3,4.3,4.3c0.2,0,18.2,0,18.3,0c2.8,0,4.3-1.9,4.3-4.3
				c0-1.6-1.1-2.7-2.4-3.4c0.2-0.5,0.5-1.3,0.5-1.8c0-2.6-2.1-4.6-4.8-4.6c-0.8,0-1.6,0.5-2.3,0.8
				C248.7-236.8,247.1-238.2,245-238.2z"/>
			<path id="path12333_4_" class="st2" d="M248.5-233.7c0,1.9-1.6,3.5-3.5,3.5s-3.5-1.6-3.5-3.5s1.6-3.5,3.5-3.5
				S248.5-235.6,248.5-233.7L248.5-233.7z"/>
			
				<linearGradient id="path12335_1_" gradientUnits="userSpaceOnUse" x1="959.5603" y1="47.4299" x2="961.7192" y2="43.9991" gradientTransform="matrix(1.0557 0 0 -1.0566 -769.2608 -185.6669)">
				<stop  offset="0" style="stop-color:#FFFFFF"/>
				<stop  offset="1" style="stop-color:#FFFFFF;stop-opacity:0"/>
			</linearGradient>
			<path id="path12335_4_" class="st17" d="M248.5-233.7c0,1.9-1.6,3.5-3.5,3.5s-3.5-1.6-3.5-3.5s1.6-3.5,3.5-3.5
				S248.5-235.6,248.5-233.7L248.5-233.7z"/>
			<rect id="rect12337_4_" x="235.5" y="-231.2" class="st2" width="20" height="9"/>
			<path id="path12339_4_" class="st2" d="M238.5-225.2c0,1.7-1.3,3-3,3s-3-1.3-3-3s1.3-3,3-3S238.5-226.9,238.5-225.2L238.5-225.2z
				"/>
			<path id="path12341_4_" class="st2" d="M255.5-230.7c0,1.9-1.6,3.5-3.5,3.5s-3.5-1.6-3.5-3.5s1.6-3.5,3.5-3.5
				S255.5-232.6,255.5-230.7L255.5-230.7z"/>
			
				<linearGradient id="path12343_1_" gradientUnits="userSpaceOnUse" x1="958.5344" y1="48.9486" x2="961.8765" y2="43.8024" gradientTransform="matrix(1.0557 0 0 -1.0566 -762.2608 -182.6669)">
				<stop  offset="0" style="stop-color:#FFFFFF"/>
				<stop  offset="1" style="stop-color:#FFFFFF;stop-opacity:0"/>
			</linearGradient>
			<path id="path12343_4_" class="st18" d="M255.5-230.7c0,1.9-1.6,3.5-3.5,3.5s-3.5-1.6-3.5-3.5s1.6-3.5,3.5-3.5
				S255.5-232.6,255.5-230.7L255.5-230.7z"/>
			<path id="path12347_4_" class="st2" d="M241.5-230.7c0,1.9-1.6,3.5-3.5,3.5s-3.5-1.6-3.5-3.5s1.6-3.5,3.5-3.5
				S241.5-232.6,241.5-230.7L241.5-230.7z"/>
			
				<linearGradient id="path12349_1_" gradientUnits="userSpaceOnUse" x1="958.3952" y1="47.904" x2="961.8456" y2="44.4079" gradientTransform="matrix(1.0557 0 0 -1.0566 -776.2608 -182.6669)">
				<stop  offset="0" style="stop-color:#FFFFFF"/>
				<stop  offset="1" style="stop-color:#FFFFFF;stop-opacity:0"/>
			</linearGradient>
			<path id="path12349_4_" class="st19" d="M241.5-230.7c0,1.9-1.6,3.5-3.5,3.5s-3.5-1.6-3.5-3.5s1.6-3.5,3.5-3.5
				S241.5-232.6,241.5-230.7L241.5-230.7z"/>
			<path id="path12351_4_" class="st2" d="M243.9-234.2c-3.6,0-6.5,2.9-6.5,6.5c0,2.4,1.3,4.3,3.3,5.5h6.5c1.9-1.1,3.3-3.1,3.3-5.5
				C250.4-231.3,247.5-234.2,243.9-234.2z"/>
			
				<linearGradient id="path12353_1_" gradientUnits="userSpaceOnUse" x1="966.5449" y1="29.6155" x2="970.5786" y2="24.4288" gradientTransform="matrix(0.9991 0 0 -1 -724.631 -201.9839)">
				<stop  offset="0" style="stop-color:#FFFFFF"/>
				<stop  offset="1" style="stop-color:#FFFFFF;stop-opacity:0"/>
			</linearGradient>
			<path id="path12353_4_" class="st20" d="M244-234.2c-3.6,0-6.5,2.9-6.5,6.5c0,2.4,1.3,4.4,3.3,5.5h6.5c1.9-1.1,3.3-3.1,3.3-5.5
				C250.5-231.3,247.5-234.2,244-234.2z"/>
			
				<linearGradient id="path12355_1_" gradientUnits="userSpaceOnUse" x1="1007.7591" y1="-1.8144" x2="1010.8587" y2="-4.5909" gradientTransform="matrix(0.9048 0 0 -0.9057 -678.0897 -228.429)">
				<stop  offset="0" style="stop-color:#FFFFFF"/>
				<stop  offset="1" style="stop-color:#FFFFFF;stop-opacity:0"/>
			</linearGradient>
			<path id="path12355_4_" class="st21" d="M238.5-225.2c0,1.7-1.3,3-3,3s-3-1.3-3-3s1.3-3,3-3C237.1-228.2,238.5-226.9,238.5-225.2
				L238.5-225.2z"/>
			<path id="path12357_4_" class="st14" d="M257.4-230.5c0,2.7-3.3,3.7-3.3,3.7s2.3-1.6,2.3-3.7H257.4z"/>
			<path id="path12359_4_" class="st2" d="M252.5-226.2c0,2.2-1.8,4-4,4s-4-1.8-4-4s1.8-4,4-4S252.5-228.4,252.5-226.2L252.5-226.2z
				"/>
			
				<linearGradient id="path12361_1_" gradientUnits="userSpaceOnUse" x1="920.6668" y1="86.0076" x2="924.7642" y2="81.6057" gradientTransform="matrix(1.2064 0 0 -1.2075 -866.4194 -126.9048)">
				<stop  offset="0" style="stop-color:#FFFFFF"/>
				<stop  offset="1" style="stop-color:#FFFFFF;stop-opacity:0"/>
			</linearGradient>
			<path id="path12361_4_" class="st22" d="M252.5-226.2c0,2.2-1.8,4-4,4s-4-1.8-4-4s1.8-4,4-4S252.5-228.4,252.5-226.2L252.5-226.2
				z"/>
		</g>
	</g>
	<g id="g12239_7_" transform="translate(-193.9565,268.0066)">
		<path id="path12241_7_" class="st23" d="M227.1-229c-1-0.6-1.4-1.9-0.8-2.9c1.3-2.1,3.1-1.5,4-3.7
			C231.6-234.3,231.1-227.4,227.1-229z"/>
		
			<linearGradient id="path12233_2_" gradientUnits="userSpaceOnUse" x1="1049.9673" y1="4088.4985" x2="1070.4734" y2="4109.9771" gradientTransform="matrix(-5.358613e-02 0.1028 9.281434e-02 5.937964e-02 -95.7186 -584.5913)">
			<stop  offset="0" style="stop-color:#FFFFFF"/>
			<stop  offset="1" style="stop-color:#FFFFFF;stop-opacity:0"/>
		</linearGradient>
		<path id="path12233_1_" class="st24" d="M228.5-229.2c-4.6-1.1,0.2-4.7,1-3.9C225.9-231.7,228.5-229.2,228.5-229.2z"/>
	</g>
	<g id="g12239_4_" transform="translate(-193.9565,268.0066)">
		<path id="path12241_4_" class="st23" d="M213.1-226c-1-0.6-1.4-1.9-0.8-2.9c1.3-2.1,3.1-1.5,4-3.7
			C217.6-231.3,217.1-224.4,213.1-226z"/>
		
			<linearGradient id="path12233_3_" gradientUnits="userSpaceOnUse" x1="1137.1664" y1="3987.9927" x2="1157.6725" y2="4009.4712" gradientTransform="matrix(-5.358613e-02 0.1028 9.281434e-02 5.937964e-02 -95.7186 -584.5913)">
			<stop  offset="0" style="stop-color:#FFFFFF"/>
			<stop  offset="1" style="stop-color:#FFFFFF;stop-opacity:0"/>
		</linearGradient>
		<path id="path12233_7_" class="st25" d="M214.5-226.2c-4.6-1.1,0.2-4.7,1-3.9C211.9-228.7,214.5-226.2,214.5-226.2z"/>
	</g>
	<g id="g12239_8_" transform="translate(-193.9565,268.0066)">
		<path id="path12241_8_" class="st23" d="M203.1-236c-1-0.6-1.4-1.9-0.8-2.9c1.3-2.1,3.1-1.5,4-3.7
			C207.6-241.3,207.1-234.4,203.1-236z"/>
		
			<linearGradient id="path12233_4_" gradientUnits="userSpaceOnUse" x1="1110.8951" y1="3865.0864" x2="1131.4012" y2="3886.5649" gradientTransform="matrix(-5.358613e-02 0.1028 9.281434e-02 5.937964e-02 -95.7186 -584.5913)">
			<stop  offset="0" style="stop-color:#FFFFFF"/>
			<stop  offset="1" style="stop-color:#FFFFFF;stop-opacity:0"/>
		</linearGradient>
		<path id="path12233_8_" class="st26" d="M204.5-236.2c-4.6-1.1,0.2-4.7,1-3.9C201.9-238.7,204.5-236.2,204.5-236.2z"/>
	</g>
</g>
</svg>
