<?xml version="1.0" encoding="utf-8"?>
<!-- Generator: Adobe Illustrator 24.0.1, SVG Export Plug-In . SVG Version: 6.00 Build 0)  -->
<svg version="1.1"
	 id="svg1306" xmlns:cc="http://creativecommons.org/ns#" xmlns:dc="http://purl.org/dc/elements/1.1/" xmlns:inkscape="http://www.inkscape.org/namespaces/inkscape" xmlns:rdf="http://www.w3.org/1999/02/22-rdf-syntax-ns#" xmlns:sodipodi="http://sodipodi.sourceforge.net/DTD/sodipodi-0.dtd" xmlns:svg="http://www.w3.org/2000/svg"
	 xmlns="http://www.w3.org/2000/svg" xmlns:xlink="http://www.w3.org/1999/xlink" x="0px" y="0px" viewBox="0 0 45 45"
	 style="enable-background:new 0 0 45 45;" xml:space="preserve">
<style type="text/css">
	.st0{fill:#EAECE8;}
	.st1{opacity:0.1056;fill-rule:evenodd;clip-rule:evenodd;fill:#787974;enable-background:new    ;}
	.st2{opacity:0.1889;fill-rule:evenodd;clip-rule:evenodd;fill:#787974;enable-background:new    ;}
	.st3{opacity:0.1833;fill-rule:evenodd;clip-rule:evenodd;fill:#787974;enable-background:new    ;}
	.st4{opacity:0.4722;fill-rule:evenodd;clip-rule:evenodd;fill:#F3F4F2;enable-background:new    ;}
	.st5{opacity:0.1167;fill-rule:evenodd;clip-rule:evenodd;fill:#787974;enable-background:new    ;}
	.st6{opacity:0.2;fill-rule:evenodd;clip-rule:evenodd;fill:#938F8B;enable-background:new    ;}
	.st7{opacity:0.2889;fill-rule:evenodd;clip-rule:evenodd;fill:#938F8B;enable-background:new    ;}
	.st8{opacity:0.1778;fill-rule:evenodd;clip-rule:evenodd;fill:url(#path7616_1_);enable-background:new    ;}
	.st9{opacity:0.6167;fill:#FFFFFF;enable-background:new    ;}
	.st10{opacity:0.5444;fill:#FFFFFF;enable-background:new    ;}
	.st11{opacity:0.5444;fill:#C2C3BE;enable-background:new    ;}
	.st12{opacity:0.5667;fill:#C2C3BE;enable-background:new    ;}
	.st13{fill-rule:evenodd;clip-rule:evenodd;fill:#FFFFFF;}
	.st14{opacity:0.3167;}
	.st15{fill:#A3A4A0;}
	.st16{fill:#FFFFFF;}
	.st17{fill:none;stroke:#888A85;stroke-width:1;stroke-miterlimit:5.5387;}
	.st18{fill:none;stroke:#FFFFFF;stroke-width:1;stroke-linecap:square;stroke-miterlimit:5.257;}
	.st19{fill:#3C3C3C;}
</style>
<g id="g7594" transform="matrix(0.998698,0.000000,0.000000,0.998698,-342.5411,469.4117)">
	<path id="path7596" class="st0" d="M386.5-447.6c0,11.6-9.4,20.9-21,20.9c-11.6,0-21-9.4-21-20.9l0,0c0-11.6,9.4-20.9,21-20.9
		C377.1-468.5,386.5-459.1,386.5-447.6L386.5-447.6z"/>
	<g id="g7598" transform="translate(37.12500,-1.625000)">
		<path id="path7600" class="st1" d="M319-463.9c0.1,0.3-0.2,0.6-0.4,0.9c-0.3,0.4-0.5,0.7-0.1,1.1c0.2,0.2,0.9,0,1.1-0.1
			c0.5-0.2,1-0.4,1.6-0.6c0.4-0.2,0.7-0.2,1.1-0.3c0.4-0.1,0.9,0.1,1.1,0.3c0.1,0.1-0.7,0.8-0.8,0.8c-0.4,0.2-0.7,0.3-1.1,0.4
			c-0.5,0.1-0.9,0.3-1.4,0.4c-0.5,0.1-0.8,0.2-1.2,0.5c-0.5,0.3-1,0.8-1.4,1.2c-0.4,0.4-0.6,0.9-0.4,1.4c0.1,0.5,0.3,0.7,0.8,0.8
			c0.5,0.1,0.8-0.1,1.1-0.5c0.3-0.5,0.5-1,0.9-1.4c0.3-0.3,0.6-0.7,0.9-0.9c0.4-0.3,0.7-0.4,1.1-0.3c0.4,0.1,0.7,0.5,1.1,0.6
			c0.4,0.1,0.9-0.4,1.2-0.6c0.1,0,0.1-0.1,0.2-0.1c0.3-0.2,0.9-0.1,1.2-0.1c0.4,0,0.8,0.2,1.1,0.4c0.4,0.2,0.8,0.2,1.2,0.5
			c0.4,0.3,0.7,0.6,0.9,1c0.2,0.4,0.3,0.7,0.6,1c0.3,0.3,0.9,0.6,1.2,0.9c0.2,0.2,0.4,0.8,0.4,1.1c0.1,0.5,0.2,0.9,0,1.4
			c-0.2,0.5-0.5,0.9-0.7,1.4c-0.2,0.4-0.9,0.8-1.2,1.1c-0.5,0.4-1.2,0.4-1.7,0.9c-0.6,0.6-0.6,0.9-1.2,1.7c-0.4,0.6,0.1,0.9,0.6,0.7
			c0.5-0.1,1-0.2,1.5-0.4c0.1,0,0.2,0,0.2-0.1c0.6-0.2,1.1-0.6,1.7-0.8c0.8-0.2,2.4,1,3.1,1.4c0.6,0.3-0.1,1-0.4,1.1
			c-0.5,0.2-1,0.3-1.6,0.3c-0.4,0-0.8-0.1-1.1-0.2c-0.5-0.1-0.8-0.1-1.2,0.2c-0.4,0.3-0.4,0.7-0.1,1.1c0.2,0.4,0.6,0.7,0.7,1.1
			c0.1,0.5-0.3,0.8-0.7,1.1c-0.4,0.2-1-0.1-1.5-0.1c-0.6,0-1.1,0.3-1.6,0.6c-0.2,0.2-0.4,1-0.4,1.2c0,0.1,0,0.2-0.1,0.2
			c-0.2,0.6,0,0.9,0.2,1.4c0.1,0.4,0.5,0.7,0.7,1.1c0.2,0.4,0.4,0.7,0.1,1.2c-0.2,0.4-0.3,0.7-0.4,1.1c-0.1,0.3,0.3,1,0.4,1.3
			c0.2,0.6,0,0.7-0.4,1.1c-0.3,0.3-0.9,0.4-1.2,0.6c-0.4,0.2-1.1,0-1.4-0.1c-0.4-0.1-0.8,0.1-1.1,0.2c-0.5,0.2-0.5,0.5-0.9,0
			c-0.4-0.5-0.7-1.1-0.9-1.7c0-0.1,0-0.2-0.1-0.2c-0.1-0.4-0.1-0.9-0.1-1.4c0-0.4,0.1-0.8,0.1-1.3c0-0.5-1.2,0.4-1.5,0.6
			c-0.1,0.1-0.3,0.1-0.4,0.2c-0.6,0.3-0.6,0.8-0.6,1.4c0,0.5,0.3,0.9,0.3,1.5c0,0.5-0.6,0.7-1.1,0.7c-0.6,0-0.9-0.7-1.3-1.1
			c-0.4-0.4-1.1-0.8-1.3-1.3c-0.3-0.7-0.4-1,0.2-1.5c0.4-0.3,0.9-0.4,1.2-0.7c0.3-0.4,0.7-1,0-1.2c-0.5-0.1-0.7-0.3-1.3-0.2
			c-0.1,0-0.2,0-0.3,0.1c-1,0.2-1,0.1-2-0.4c-0.7-0.3-0.9-0.9-1.4-1.4c-0.5-0.5-0.7-1.1-0.9-1.7c-0.1-0.5-0.3-1.1-0.4-1.6
			c-0.1-0.4-0.1-1-0.1-1.4c0-0.5-0.1-1-0.1-1.4c0-0.5,0-1,0-1.5c0-0.5,0.1-1,0.1-1.5c0-0.4,0.1-1,0.2-1.4c0,0,0-0.1,0-0.1
			c0-0.5,0.3-1.1,0.5-1.5c0.2-0.4,0.4-0.9,0.6-1.2c0.2-0.4,0.4-0.7,0.7-1.1c0.3-0.4,0.6-0.8,0.9-1.2c0.5-0.6,1.1-1.2,1.7-1.8
			c0.4-0.3,0.6-0.8,1-1.2c0.5-0.4,1-0.8,1.6-1.2c0.4-0.3,0.8-0.7,1.1-1.1c0.2-0.4,0.3-0.7,0.7-1.1
			C318.7-463.7,318.9-463.9,319-463.9z"/>
		<path id="path7602" class="st2" d="M336.1-456c-0.6,0.1-1.8,0.3-2.6,0.2c-0.6-0.1-0.6-0.5-1.2,0.1c0,0-0.1,0.1-0.1,0.1
			c-0.4,0.4-0.4,0.4-0.4,1c0,0.4,0,0.7-0.1,1.1c-0.1,0.4,0,0.9,0.1,1.2c0.1,0.5,0.2,0.8,0.4,1.3c0.2,0.4,0.3,0.7,0.6,0.9
			c0.4,0.3,1.1,0.4,1.6,0.6c0.3,0.1,0.9,0.1,1.3,0.1c0.5,0,0.6,0.1,0.6,0.6c0,0.5-0.9,1.2-1.2,1.6c-0.3,0.5-0.2,0.9,0,1.4
			c0.1,0.4,0.2,0.8,0.3,1.2c0.1,0.4,0.2,0.8,0.6,1.1c0.4,0.4,1.1,0,1.4,0.4c0.2,0.2,0.2,0.6,0.2,0.9c0,0.5,0.2,0.7,0.6,0.5
			c0.4-0.2,0.7-0.2,1.1-0.6c0.3-0.4,0.5-0.9,0.7-1.4c0.2-0.4,0.5-0.4,1-0.4c0.4,0,0.7,0.1,1.2,0c0.6-0.2,0.7-0.4,1.2-0.8
			c0.6-0.6,0.5-1,0.6-1.7c0.1-0.3-0.1-0.7-0.1-1c0-0.1,0-0.2-0.1-0.2c-0.1-0.3-0.8-0.4-1.1-0.4c-0.6,0-1.5-0.3-2-0.4
			c-0.3-0.1-1.1-1-1.3-1.2c-0.3-0.3-0.4-0.6-0.5-1c-0.1-0.5-0.1-1-0.2-1.5c-0.1-0.6,0-0.9-0.4-1.4c-0.3-0.3-0.5-0.8-0.6-1.2
			c-0.1-0.4-0.4-0.8-0.7-1.1C336.5-456,336.4-455.9,336.1-456z"/>
		<path id="path7604" class="st3" d="M345.7-452.4c-0.3,0-0.7,0.4-0.9,0.7c-0.3,0.3-0.2,0.7-0.2,1.1c0,0.4,0.1,0.8,0.2,1.2
			c0.1,0.3,0.4,0.8,0.6,1c0.3,0.3,0.8,0.5,1.2,0.6c0.6,0.1,0.9,0.2,1.2-0.4c0.2-0.4,0.2-0.7,0.2-1.2c0-0.4,0-0.8-0.1-1.2
			c-0.1-0.5-0.3-0.8-0.7-1c-0.3-0.2-0.7-0.5-0.9-0.7C346.1-452.4,345.9-452.4,345.7-452.4z"/>
		<path id="path7606" class="st4" d="M326-433.1c0.3-0.2,1.3-1.2,2-1.7c0.1-0.1,0.2-0.2,0.4-0.3c0.7-0.6,1.3-1.4,1.7-2.2
			c0.8-1.2,1.1-2.2,1.4-3.5c0.3-1.6,0.4-0.5,0.1,0.5c-0.1,0.2-0.1,0.3-0.1,0.5c-0.2,0.7-0.2,1.4-0.5,2c-0.4,0.9-1,1.6-1.2,2.5
			c-0.1,0.5-0.3,1.1-0.2,1.5c0.1,0.5,0.8-0.6,1.3-0.7c0.6-0.2,0.8-0.4,0.8,0.4c0,0.4-0.2,1-0.3,1.5c-0.2,0.8,2,0.1,2.5,0
			c1.6-0.4,2.6-0.9,3.9-2c1.4-1.2,2.6-2.4,3.8-3.7c1-1,1.5-1.7,0.9,0.1c-0.1,0.2-0.1,0.3-0.2,0.5c-0.1,0.2-0.1,0.3-0.2,0.5
			c-0.3,0.9-1,1.9-1.8,2.5c-1.3,0.9-2.1,2.5-3.5,3.2c-0.6,0.3-1.2,0.4-1.7,0.7c-0.6,0.3,1.1,0.5,1.4,0.6c3.1,0.7-2.5,1-3.2,1
			c-1.2,0-1.7-0.2-2.7,0.3c-0.3,0.2,1.5,0.9,1.6,0.9c0.7,0.1,1.4,0.6,2.2,0.6c1.3,0-2.8,0.4-3.9,0.1c-1-0.2-1.9-0.4-2.9-0.7
			c-0.5-0.1-1,0-1.4,0.1c-0.1,0,0.1,1.3,0.1,1.4c0,0.9-0.2,1.6-0.7,0.3c-0.2-0.7-0.7-1.5-0.7-2.2c0-0.5-0.6,0.7-0.9,1.1
			c-0.4,0.5-1.2,1.3-1.4,1.4c0,0,0.4-0.9,0.6-1.5c0.1-0.5,0.9-1.7,0.4-1.9c-0.5-0.1-1.1,0-1.6-0.1c-0.7-0.1-1.5-0.3-2.2-0.6
			c-1.3-0.7-3.4-1.3-4.8-1.6c-0.1,0-2.3-2.3-0.2-0.3c1.3,1.3,3.4,2.2,5.3,2.2c0.6,0,1.5-0.2,2-0.4c0.3-0.1,0.8-0.6,1.2-0.7
			c0.4-0.2-0.6-0.6-0.9-0.9c-0.1-0.1-0.2-0.2-0.3-0.4c-1.1-1.3-1.5-3.2-2.8-4.5c-0.2-0.2-3.2-3.7-1.8-2.5c1.5,1.2,2.8,2.3,4.1,3.8
			c0.6,0.7,1.2,1.7,1.8,2.5c0.6,0.8,0.5-0.2,0.3-0.7c-0.4-1.1-0.2-2.7-0.2-3.8c0-1.5,0.8,1.6,0.9,1.9c0.2,0.8,0.6,1.8,1.2,1
			c0.6-0.8,0.7-1,0.7,0.1c0,0.1,0,0.2,0,0.2C326-434,325.9-433.5,326-433.1z"/>
		<path id="path7608" class="st5" d="M344.2-446.7c0.1,0.1,0.2,0.6,0.2,1c0,0.2-1,1-1.2,1.1c-0.3,0.3-0.4,0.8-0.4,1.2
			c-0.1,0.5-0.2,0.8-0.1,1.3c0.1,0.4,0.2,0.8,0.4,1.2c0.2,0.4,0.5,0.7,0.9,1.1c0.4,0.4,1,0.4,1.5,0.6c0.7,0.2-0.4,0.8-0.6,0.9
			c-0.4,0.3-0.8,0.4-1.1,0.9c-0.3,0.5,0.3,0.7,0.6,0.9c0.4,0.1,0.9-0.5,1.1-0.7c0.2-0.3,0.6-0.7,0.6-1.1c0-0.4,0.2-0.8,0.2-1.2
			c0-0.4,0.1-0.9,0.2-1.2c0.1-0.6,0.3-0.8,0.7-1.1c0.3-0.3,0.3-1,0.2-1.3c-0.1-0.4-0.3-0.7-0.4-1.1c-0.1-0.4-0.6-0.6-0.9-0.7
			c-0.4-0.1-0.9-0.8-1.1-1C344.8-446.5,344.7-446.7,344.2-446.7z"/>
		<path id="path7612" class="st6" d="M324.8-463.3c0.3-0.1,0.9-0.3,1.3-0.4c0.5-0.1,1.1,0.2,1.6,0.2c0.1,0,0.4,0.7,1,0.7
			c0.1,0,0.2,0,0.2,0c0.4,0,0.8,0.3,1.1,0.6c0.3,0.2,0,0.8-0.1,1c-0.4,0.4-0.7,0.1-1.1-0.2c-0.3-0.3-0.5-0.4-0.9-0.6
			c-0.4-0.1-0.9,0-1.3,0.1c-0.5,0.1-0.8,0.2-1.4,0.2c-0.2,0-0.8-0.8-0.9-1C324.2-462.9,324.7-463.2,324.8-463.3z"/>
		<path id="path7614" class="st7" d="M332.3-462.2c0.3,0.1,1,0.1,1.5-0.1c0.5-0.1,1.4-0.2,2-0.1c0.3,0.1,2.5,0.5,1.5,1
			c-0.5,0.2-1,0.3-1.4,0.6c-0.5,0.3,0.6,0.4,0.9,0.4c0.7,0,0.3,0.8,0.1,1.1c-0.2,0.4-0.1,1,0,1.4c0.1,0.4,0.9,0.4,1.2,0.4
			c0.5,0,1,0.1,1.3,0.5c0.3,0.4,0.7,0.8,0.5,1.1c-0.2,0.4-1.1,0.4-1.4,0.4c-0.2,0-1.2-1.2-1.3-1.3c-0.4-0.3-0.8,0-1.1,0.1
			c-0.6,0.2-1.1-0.6-1.4-0.9c-0.4-0.3-0.7-0.8-0.9-1.2c-0.3-0.5,0.2-0.7-0.6-0.7c-0.5,0-0.8-0.1-1.1-0.4c-0.5-0.4-0.9-0.2-0.9-0.9
			c0-0.6,0-0.8,0.6-1.1C331.9-462.1,332.1-462.1,332.3-462.2z"/>
		
			<radialGradient id="path7616_1_" cx="4978.958" cy="-3568.5752" r="537.6698" gradientTransform="matrix(2.203272e-02 0 0 -2.845709e-02 211.7874 -550.2947)" gradientUnits="userSpaceOnUse">
			<stop  offset="0" style="stop-color:#787974"/>
			<stop  offset="1" style="stop-color:#787974;stop-opacity:0"/>
		</radialGradient>
		<path id="path7616" class="st8" d="M319.1-464.1c0.1,0.3-0.2,0.6-0.4,0.9c-0.3,0.4-0.5,0.7-0.1,1.1c0.2,0.2,0.9,0,1.1-0.1
			c0.5-0.2,1-0.4,1.6-0.6c0.4-0.2,0.7-0.2,1.1-0.3c0.4-0.1,0.9,0.1,1.1,0.3c0.1,0.1-0.7,0.8-0.8,0.8c-0.4,0.2-0.7,0.3-1.1,0.4
			c-0.5,0.1-0.9,0.3-1.4,0.4c-0.5,0.1-0.8,0.2-1.2,0.5c-0.5,0.3-1,0.8-1.4,1.2c-0.4,0.4-0.6,0.9-0.4,1.4c0.1,0.5,0.3,0.7,0.8,0.8
			c0.5,0.1,0.8-0.1,1.1-0.5c0.3-0.5,0.5-1,0.9-1.4c0.3-0.3,0.6-0.7,0.9-0.9c0.4-0.3,0.7-0.4,1.1-0.3c0.4,0.1,0.7,0.5,1.1,0.6
			c0.4,0.1,0.9-0.4,1.2-0.6c0.1,0,0.1-0.1,0.2-0.1c0.3-0.2,0.9-0.1,1.2-0.1c0.4,0,0.8,0.2,1.1,0.4c0.4,0.2,0.8,0.2,1.2,0.5
			c0.4,0.3,0.7,0.6,0.9,1c0.2,0.4,0.3,0.7,0.6,1c0.3,0.3,0.9,0.6,1.2,0.9c0.2,0.2,0.4,0.8,0.4,1.1c0.1,0.5,0.2,0.9,0,1.4
			c-0.2,0.5-0.5,0.9-0.7,1.4c-0.2,0.4-0.9,0.8-1.2,1.1c-0.5,0.4-1.2,0.4-1.7,0.9c-0.6,0.6-0.6,0.9-1.2,1.7c-0.4,0.6,0.1,0.9,0.6,0.7
			c0.5-0.1,1-0.2,1.5-0.4c0.1,0,0.2,0,0.2-0.1c0.6-0.2,1.1-0.6,1.7-0.8c0.8-0.2,2.4,1,3.1,1.4c0.6,0.3-0.1,1-0.4,1.1
			c-0.5,0.2-1,0.3-1.6,0.3c-0.4,0-0.8-0.1-1.1-0.2c-0.5-0.1-0.8-0.1-1.2,0.2c-0.4,0.3-0.4,0.7-0.1,1.1c0.2,0.4,0.6,0.7,0.7,1.1
			c0.1,0.5-0.3,0.8-0.7,1.1c-0.4,0.2-1-0.1-1.5-0.1c-0.6,0-1.1,0.3-1.6,0.6c-0.2,0.2-0.4,1-0.4,1.2c0,0.1,0,0.2-0.1,0.2
			c-0.2,0.6,0,0.9,0.2,1.4c0.1,0.4,0.5,0.7,0.7,1.1c0.2,0.4,0.4,0.7,0.1,1.2c-0.2,0.4-0.3,0.7-0.4,1.1c-0.1,0.3,0.3,1,0.4,1.3
			c0.2,0.6,0,0.7-0.4,1.1c-0.3,0.3-0.9,0.4-1.2,0.6c-0.4,0.2-1.1,0-1.4-0.1c-0.4-0.1-0.8,0.1-1.1,0.2c-0.5,0.2-0.5,0.5-0.9,0
			c-0.4-0.5-0.7-1.1-0.9-1.7c0-0.1,0-0.2-0.1-0.2c-0.1-0.4-0.1-0.9-0.1-1.4c0-0.4,0.1-0.8,0.1-1.3c0-0.5-1.2,0.4-1.5,0.6
			c-0.1,0.1-0.3,0.1-0.4,0.2c-0.6,0.3-0.6,0.8-0.6,1.4c0,0.5,0.3,0.9,0.3,1.5c0,0.5-0.6,0.7-1.1,0.7c-0.6,0-0.9-0.7-1.3-1.1
			c-0.4-0.4-1.1-0.8-1.3-1.3c-0.3-0.7-0.4-1,0.2-1.5c0.4-0.3,0.9-0.4,1.2-0.7c0.3-0.4,0.7-1,0-1.2c-0.5-0.1-0.7-0.3-1.3-0.2
			c-0.1,0-0.2,0-0.3,0.1c-1,0.2-1,0.1-2-0.4c-0.7-0.3-0.9-0.9-1.4-1.4c-0.5-0.5-0.7-1.1-0.9-1.7c-0.1-0.5-0.3-1.1-0.4-1.6
			c-0.1-0.4-0.1-1-0.1-1.4c0-0.5-0.1-1-0.1-1.4c0-0.5,0-1,0-1.5c0-0.5,0.1-1,0.1-1.5c0-0.4,0.1-1,0.2-1.4c0,0,0-0.1,0-0.1
			c0-0.5,0.3-1.1,0.5-1.5c0.2-0.4,0.4-0.9,0.6-1.2c0.2-0.4,0.4-0.7,0.7-1.1c0.3-0.4,0.6-0.8,0.9-1.2c0.5-0.6,1.1-1.2,1.7-1.8
			c0.4-0.3,0.6-0.8,1-1.2c0.5-0.4,1-0.8,1.6-1.2c0.4-0.3,0.8-0.7,1.1-1.1c0.2-0.4,0.3-0.7,0.7-1.1C318.7-463.9,319-464,319.1-464.1z
			"/>
		<path id="path7618" class="st9" d="M324.8-445.1c0,0.6-0.5,1.1-1.1,1.1s-1.1-0.5-1.1-1.1l0,0c0-0.6,0.5-1.1,1.1-1.1
			S324.8-445.7,324.8-445.1z"/>
		<path id="path7620" class="st10" d="M314.7-453.4c0,0.3-0.2,0.6-0.6,0.6c-0.3,0-0.6-0.2-0.6-0.6l0,0c0-0.3,0.2-0.6,0.6-0.6
			C314.5-454,314.7-453.7,314.7-453.4z"/>
		<path id="path7622" class="st11" d="M340-446.3c0,0.6-0.5,1.1-1.1,1.1s-1.1-0.5-1.1-1.1l0,0c0-0.6,0.5-1.1,1.1-1.1
			S340-446.9,340-446.3z"/>
		<path id="path7624" class="st12" d="M332.1-430.4c0,0.6-0.5,1.1-1.1,1.1s-1.1-0.5-1.1-1.1l0,0c0-0.6,0.5-1.1,1.1-1.1
			S332.1-431,332.1-430.4z"/>
		<path id="path7626" class="st9" d="M338.7-446c0,0.4-0.3,0.7-0.7,0.7s-0.7-0.3-0.7-0.7l0,0c0-0.4,0.3-0.7,0.7-0.7
			S338.7-446.4,338.7-446z"/>
		<path id="path7628" class="st9" d="M325.8-429.7c0,0.3-0.2,0.6-0.6,0.6c-0.3,0-0.6-0.2-0.6-0.6l0,0c0-0.3,0.2-0.6,0.6-0.6
			C325.5-430.3,325.8-430,325.8-429.7z"/>
		<path id="path7630" class="st9" d="M336.1-436.9c0,0.4-0.3,0.7-0.7,0.7s-0.7-0.3-0.7-0.7l0,0c0-0.4,0.3-0.7,0.7-0.7
			S336.1-437.2,336.1-436.9z"/>
		<path id="path7632" class="st9" d="M344.1-454.6c0,0.4-0.3,0.7-0.7,0.7s-0.7-0.3-0.7-0.7l0,0c0-0.4,0.3-0.7,0.7-0.7
			S344.1-454.9,344.1-454.6z"/>
		<path id="path7634" class="st9" d="M339.4-453.3c0,0.4-0.3,0.7-0.7,0.7c-0.4,0-0.7-0.3-0.7-0.7l0,0c0-0.4,0.3-0.7,0.7-0.7
			C339.1-454,339.4-453.7,339.4-453.3z"/>
		<path id="path7636" class="st9" d="M341.3-460.2c0,0.4-0.3,0.7-0.7,0.7s-0.7-0.3-0.7-0.7l0,0c0-0.4,0.3-0.7,0.7-0.7
			S341.3-460.6,341.3-460.2z"/>
		<path id="path7638" class="st9" d="M327.5-439.7c0,0.4-0.3,0.7-0.7,0.7s-0.7-0.3-0.7-0.7l0,0c0-0.4,0.3-0.7,0.7-0.7
			S327.5-440.1,327.5-439.7z"/>
		<path id="path7640" class="st13" d="M326-432.7c0.3-0.2,1.2-1.1,1.8-1.6c0.1-0.1,0.2-0.2,0.3-0.3c0.6-0.5,1.2-1.3,1.6-2
			c0.7-1.1,1-2,1.3-3.2c0.3-1.5,0.4-0.5,0.1,0.5c0,0.1-0.1,0.3-0.1,0.5c-0.2,0.6-0.2,1.3-0.5,1.9c-0.3,0.8-0.9,1.5-1.1,2.3
			c-0.1,0.4-0.3,1-0.2,1.4c0.1,0.4,0.8-0.5,1.2-0.7c0.6-0.2,0.7-0.3,0.7,0.3c0,0.4-0.2,1-0.3,1.4c-0.1,0.7,1.9,0.1,2.3,0
			c1.5-0.4,2.4-0.8,3.6-1.8c1.3-1.1,2.4-2.2,3.6-3.4c1-0.9,1.4-1.5,0.8,0.1c-0.1,0.2-0.1,0.3-0.2,0.5c-0.1,0.2-0.1,0.3-0.2,0.5
			c-0.3,0.8-0.9,1.8-1.7,2.3c-1.2,0.8-2,2.2-3.3,2.9c-0.5,0.3-1.1,0.4-1.6,0.6c-0.5,0.3,1,0.4,1.3,0.5c2.9,0.6-2.3,0.9-3,0.9
			c-1.1,0-1.6-0.2-2.5,0.3c-0.3,0.2,1.4,0.8,1.4,0.8c0.7,0.1,1.3,0.6,2,0.6c1.2,0-2.6,0.4-3.6,0.1c-0.9-0.2-1.7-0.4-2.6-0.6
			c-0.5-0.1-0.9,0-1.3,0.1c-0.1,0,0.1,1.2,0.1,1.3c0,0.8-0.2,1.5-0.6,0.3c-0.2-0.7-0.6-1.3-0.6-2c0-0.4-0.6,0.7-0.9,1
			c-0.4,0.5-1.1,1.2-1.3,1.2c0,0,0.4-0.8,0.5-1.4c0.1-0.4,0.8-1.6,0.3-1.7c-0.4-0.1-1,0-1.5-0.1c-0.7-0.1-1.4-0.3-2-0.6
			c-1.2-0.6-3.1-1.1-4.4-1.5c-0.1,0-2.1-2.1-0.2-0.3c1.2,1.2,3.2,2,4.9,2c0.6,0,1.4-0.2,1.9-0.3c0.3-0.1,0.7-0.5,1.1-0.7
			c0.4-0.1-0.6-0.5-0.9-0.8c-0.1-0.1-0.2-0.2-0.3-0.3c-1-1.2-1.4-2.9-2.6-4.1c-0.2-0.2-3-3.4-1.7-2.3c1.4,1.1,2.6,2.1,3.8,3.5
			c0.6,0.7,1.1,1.6,1.7,2.3c0.6,0.7,0.4-0.1,0.3-0.6c-0.3-1-0.2-2.4-0.2-3.5c0-1.4,0.7,1.5,0.8,1.7c0.2,0.7,0.5,1.6,1.1,0.9
			c0.6-0.7,0.6-0.9,0.6,0.1c0,0.1,0,0.2,0,0.2C325.9-433.5,325.9-433.1,326-432.7z"/>
		<g id="g7642" transform="translate(461.6971,-517.2066)" class="st14">
			<path id="path7644" class="st15" d="M-124.1,64.6c0,1.4-1.2,2.6-2.7,2.6c-1.5,0-2.7-1.2-2.7-2.6s1.2-2.6,2.7-2.6
				C-125.3,62-124.1,63.2-124.1,64.6z"/>
			<path id="path7646" class="st15" d="M-121,70.8c0,1.4-1.2,2.6-2.7,2.6s-2.7-1.2-2.7-2.6c0-1.4,1.2-2.6,2.7-2.6
				S-121,69.3-121,70.8z"/>
			<path id="path7648" class="st15" d="M-118,70.7c0,0.9-0.8,1.7-1.8,1.7c-1,0-1.8-0.8-1.8-1.7s0.8-1.7,1.8-1.7
				C-118.8,69-118,69.7-118,70.7z"/>
			<path id="path7651" class="st15" d="M-133.3,62.2c0,2.2-1.9,4-4.3,4s-4.3-1.8-4.3-4c0-2.2,1.9-4,4.3-4S-133.3,59.9-133.3,62.2z"
				/>
			<path id="path7653" class="st15" d="M-141.5,71.7c0,2.6-2.2,4.7-4.9,4.7c-2.7,0-4.9-2.1-4.9-4.7c0-2.6,2.2-4.7,4.9-4.7
				C-143.7,67-141.5,69.1-141.5,71.7z"/>
			<path id="path7655" class="st15" d="M-136.2,76c0,2-1.7,3.6-3.8,3.6s-3.8-1.6-3.8-3.6c0-2,1.7-3.6,3.8-3.6S-136.2,74-136.2,76z"
				/>
			<path id="path7657" class="st15" d="M-138.6,65.8c0,2-1.7,3.6-3.8,3.6c-2.1,0-3.8-1.6-3.8-3.6c0-2,1.7-3.6,3.8-3.6
				C-140.3,62.2-138.6,63.8-138.6,65.8z"/>
		</g>
		<path id="path7659" class="st16" d="M327.1-430.8c0,0.6-0.5,1-1,1c-0.6,0-1-0.5-1-1s0.5-1,1-1
			C326.7-431.8,327.1-431.4,327.1-430.8z"/>
	</g>
	<path id="path7661" class="st17" d="M386.5-447.4c0,11.6-9.4,20.9-21,20.9c-11.6,0-21-9.4-21-20.9l0,0c0-11.6,9.4-20.9,21-20.9
		C377.1-468.4,386.5-459,386.5-447.4L386.5-447.4z"/>
	<path id="path7663" class="st18" d="M377-463c8.7,6.3,10.5,18.4,4.2,27.1c-6.3,8.6-18.5,10.5-27.2,4.2s-10.5-18.4-4.2-27.1
		C356.2-467.5,368.3-469.3,377-463z"/>
	<circle class="st19" cx="354.3" cy="-449.9" r="0.5"/>
</g>
</svg>
