<?xml version="1.0" encoding="utf-8"?>
<!-- Generator: Adobe Illustrator 24.0.1, SVG Export Plug-In . SVG Version: 6.00 Build 0)  -->
<svg version="1.1"
	 id="svg1306" xmlns:cc="http://creativecommons.org/ns#" xmlns:dc="http://purl.org/dc/elements/1.1/" xmlns:inkscape="http://www.inkscape.org/namespaces/inkscape" xmlns:rdf="http://www.w3.org/1999/02/22-rdf-syntax-ns#" xmlns:sodipodi="http://sodipodi.sourceforge.net/DTD/sodipodi-0.dtd" xmlns:svg="http://www.w3.org/2000/svg"
	 xmlns="http://www.w3.org/2000/svg" xmlns:xlink="http://www.w3.org/1999/xlink" x="0px" y="0px" viewBox="0 0 48 48"
	 style="enable-background:new 0 0 48 48;" xml:space="preserve">
<style type="text/css">
	.st0{fill:#729FCF;stroke:#3465A4;stroke-width:1.082;stroke-linejoin:round;stroke-miterlimit:1;}
	.st1{fill:url(#rect6088_1_);}
	.st2{fill:url(#rect6088_2_);}
	.st3{fill:url(#rect6088_3_);}
	.st4{fill:#555753;}
	.st5{fill:url(#path13219_1_);}
	.st6{fill:#888A85;}
	.st7{opacity:0.4944;fill:url(#path13227_1_);enable-background:new    ;}
	.st8{opacity:0.4944;fill:url(#path13233_1_);enable-background:new    ;}
	.st9{opacity:0.4944;fill:url(#path13239_1_);enable-background:new    ;}
	.st10{opacity:0.4944;fill:url(#path13245_1_);enable-background:new    ;}
	.st11{fill:#888A85;stroke:#555753;stroke-width:0.9998;stroke-miterlimit:1.9993;}
	.st12{fill:url(#path13251_1_);}
	.st13{opacity:0.4778;fill:url(#path13255_1_);enable-background:new    ;}
	.st14{opacity:0.4778;fill:url(#path13263_1_);enable-background:new    ;}
	.st15{opacity:0.4778;fill:url(#path13267_1_);enable-background:new    ;}
	.st16{opacity:0.4778;fill:url(#path13271_1_);enable-background:new    ;}
	.st17{opacity:0.4778;fill:url(#path13273_1_);enable-background:new    ;}
	.st18{fill-rule:evenodd;clip-rule:evenodd;fill:#555753;}
	.st19{opacity:0.4778;fill:url(#path13279_1_);enable-background:new    ;}
	.st20{fill:url(#path13285_1_);}
	.st21{opacity:0.4778;fill:url(#path13289_1_);enable-background:new    ;}
	.st22{opacity:0.4778;fill:url(#path13297_1_);enable-background:new    ;}
	.st23{opacity:0.4778;fill:url(#path13301_1_);enable-background:new    ;}
	.st24{opacity:0.4778;fill:url(#path13305_1_);enable-background:new    ;}
	.st25{opacity:0.4778;fill:url(#path13307_1_);enable-background:new    ;}
	.st26{opacity:0.4778;fill:url(#path13313_1_);enable-background:new    ;}
</style>
<g id="layer1_28_">
	<g id="g11337_6_" transform="translate(-339.9823,245.0132)">
		<path id="rect6086_6_" class="st0" d="M357.2-218.5h2.2c1.3,0,2,0.5,1.4,1.2l-10.2,13.6c-0.5,0.7-2,1.2-3.3,1.2h-2.2
			c-1.3,0-2-0.5-1.4-1.2l10.2-13.6C354.4-218,355.8-218.5,357.2-218.5z"/>
		
			<linearGradient id="rect6088_1_" gradientUnits="userSpaceOnUse" x1="271.2908" y1="182.0588" x2="275.9547" y2="182.0588" gradientTransform="matrix(1.0884 0 0.5442 -0.6746 -44.8842 -87.6776)">
			<stop  offset="0" style="stop-color:#FFFFFF"/>
			<stop  offset="1" style="stop-color:#FFFFFF;stop-opacity:0"/>
		</linearGradient>
		<path id="rect6088_6_" class="st1" d="M354.1-216.7c0.6-0.8,2.1-1.3,3.1-1.3h2.1c1.3,0,1,0.5,0.5,1.1l-9.6,12.7
			c-0.3,0.4-1.5,1.1-3,1.1c-0.5,0-1.6,0-2,0c0,0-1.7,0.1-0.6-1.1L354.1-216.7z"/>
	</g>
	<g id="g11337_7_" transform="translate(-339.9823,245.0132)">
		<path id="rect6086_7_" class="st0" d="M368.2-218.5h2.2c1.3,0,2,0.5,1.4,1.2l-10.2,13.6c-0.5,0.7-2,1.2-3.3,1.2h-2.2
			c-1.3,0-2-0.5-1.4-1.2l10.2-13.6C365.4-218,366.8-218.5,368.2-218.5z"/>
		
			<linearGradient id="rect6088_2_" gradientUnits="userSpaceOnUse" x1="281.397" y1="182.0588" x2="286.0609" y2="182.0588" gradientTransform="matrix(1.0884 0 0.5442 -0.6746 -44.8842 -87.6776)">
			<stop  offset="0" style="stop-color:#FFFFFF"/>
			<stop  offset="1" style="stop-color:#FFFFFF;stop-opacity:0"/>
		</linearGradient>
		<path id="rect6088_7_" class="st2" d="M365.1-216.7c0.6-0.8,2.1-1.3,3.1-1.3h2.1c1.3,0,1,0.5,0.5,1.1l-9.6,12.7
			c-0.3,0.4-1.5,1.1-3,1.1c-0.5,0-1.6,0-2,0c0,0-1.7,0.1-0.6-1.1L365.1-216.7z"/>
	</g>
	<g id="g11337_8_" transform="translate(-339.9823,245.0132)">
		<path id="rect6086_8_" class="st0" d="M379.2-218.5h2.2c1.3,0,2,0.5,1.4,1.2l-10.2,13.6c-0.5,0.7-2,1.2-3.3,1.2h-2.2
			c-1.3,0-2-0.5-1.4-1.2l10.2-13.6C376.4-218,377.8-218.5,379.2-218.5z"/>
		
			<linearGradient id="rect6088_3_" gradientUnits="userSpaceOnUse" x1="291.5033" y1="182.0588" x2="296.1671" y2="182.0588" gradientTransform="matrix(1.0884 0 0.5442 -0.6746 -44.8842 -87.6776)">
			<stop  offset="0" style="stop-color:#FFFFFF"/>
			<stop  offset="1" style="stop-color:#FFFFFF;stop-opacity:0"/>
		</linearGradient>
		<path id="rect6088_8_" class="st3" d="M376.1-216.7c0.6-0.8,2.1-1.3,3.1-1.3h2.1c1.3,0,1,0.5,0.5,1.1l-9.6,12.7
			c-0.3,0.4-1.5,1.1-3,1.1c-0.5,0-1.6,0-2,0c0,0-1.7,0.1-0.6-1.1L376.1-216.7z"/>
	</g>
	<g id="g13213_2_" transform="matrix(0.999675,0.000000,0.000000,1.000000,-286.8562,245.0000)">
		<g id="g13215_2_">
			<path id="path13217_2_" class="st4" d="M311.5-243c-2.8,0-5.1,1.6-6.4,3.8c-0.9-0.5-2-0.8-3.1-0.8c-3.9,0-7,3.1-7,7s3.1,7,7,7
				c2.4,0,4.4-1.3,5.7-3.2c1.1,0.7,2.4,1.2,3.8,1.2c0.9,0,1.8-0.2,2.6-0.5c0.5,0.9,1.2,1.6,2,2.2c0,0.1-0.1,0.2-0.1,0.4
				c0,3.9,3.1,7,7,7s7-3.1,7-7c0-2.4-1.3-4.4-3.1-5.6c0-0.1,0.1-0.2,0.1-0.4c0-3.9-3.1-7-7-7c-0.6,0-1.2,0.2-1.8,0.4
				C317-241.2,314.5-243,311.5-243z"/>
			
				<linearGradient id="path13219_1_" gradientUnits="userSpaceOnUse" x1="515.515" y1="197.2192" x2="553.3763" y2="184.1819" gradientTransform="matrix(0.9997 0 0 -1 -217.8897 -40)">
				<stop  offset="0" style="stop-color:#FFFFFF"/>
				<stop  offset="1" style="stop-color:#FFFFFF;stop-opacity:0"/>
			</linearGradient>
			<path id="path13219_2_" class="st5" d="M311.5-242c-2.8,0-5.1,1.8-6.1,4.2c-1-0.7-2.1-1.2-3.4-1.2c-3.3,0-6,2.7-6,6
				c0,3.3,2.7,6,6,6c2.4,0,4.5-1.5,5.4-3.5c1.1,0.9,2.5,1.5,4.1,1.5c1.1,0,2-0.3,2.9-0.8c0.4,1,1.1,1.8,1.9,2.4
				c-0.2,0.6-0.4,1.2-0.4,1.8c0,3.6,2.9,6.5,6.5,6.5s6.5-2.9,6.5-6.5c0-2.4-1.3-4.3-3.2-5.5c0.1-0.3,0.2-0.7,0.2-1c0-3.3-2.7-6-6-6
				c-0.9,0-1.7,0.2-2.4,0.5C316.7-240.1,314.4-242,311.5-242z"/>
			<path id="path13221_2_" class="st6" d="M329-225.5c0,3.6-2.9,6.5-6.5,6.5c-3.6,0-6.5-2.9-6.5-6.5c0,0,0,0,0,0
				c0-3.6,2.9-6.5,6.5-6.5C326.1-232,329-229.1,329-225.5C329-225.5,329-225.5,329-225.5z"/>
			<g id="g13223_2_">
				<path id="path13225_2_" class="st6" d="M317-235.5c0,3-2.5,5.5-5.5,5.5s-5.5-2.5-5.5-5.5s2.5-5.5,5.5-5.5S317-238.5,317-235.5z"
					/>
				
					<linearGradient id="path13227_1_" gradientUnits="userSpaceOnUse" x1="540.4131" y1="184.2247" x2="546.1664" y2="179.3678" gradientTransform="matrix(0.8823 0 0 -0.8826 -169.1297 -76.0929)">
					<stop  offset="0" style="stop-color:#FFFFFF"/>
					<stop  offset="1" style="stop-color:#FFFFFF;stop-opacity:0"/>
				</linearGradient>
				<path id="path13227_2_" class="st7" d="M317-235.5c0,3-2.5,5.5-5.5,5.5s-5.5-2.5-5.5-5.5s2.5-5.5,5.5-5.5S317-238.5,317-235.5z"
					/>
			</g>
			<g id="g13229_2_">
				<path id="path13231_2_" class="st6" d="M325-231.5c0,3-2.5,5.5-5.5,5.5s-5.5-2.5-5.5-5.5l0,0c0-3,2.5-5.5,5.5-5.5
					S325-234.5,325-231.5z"/>
				
					<linearGradient id="path13233_1_" gradientUnits="userSpaceOnUse" x1="543.2452" y1="185.8215" x2="549.2026" y2="179.8593" gradientTransform="matrix(0.9114 0 0 -0.9117 -180.2063 -66.6454)">
					<stop  offset="0" style="stop-color:#FFFFFF"/>
					<stop  offset="1" style="stop-color:#FFFFFF;stop-opacity:0"/>
				</linearGradient>
				<path id="path13233_2_" class="st8" d="M325-231.5c0,3-2.5,5.5-5.5,5.5s-5.5-2.5-5.5-5.5l0,0c0-3,2.5-5.5,5.5-5.5
					S325-234.5,325-231.5z"/>
			</g>
			<g id="g13235_2_">
				<path id="path13237_2_" class="st6" d="M307-233c0,2.8-2.2,5-5,5c-2.8,0-5-2.2-5-5c0-2.8,2.2-5,5-5S307-235.8,307-233L307-233z"
					/>
				
					<linearGradient id="path13239_1_" gradientUnits="userSpaceOnUse" x1="504.7886" y1="207.991" x2="509.1691" y2="204.5105" gradientTransform="matrix(1.1424 0 0 -1.1428 -277.9119 2.1395)">
					<stop  offset="0" style="stop-color:#FFFFFF"/>
					<stop  offset="1" style="stop-color:#FFFFFF;stop-opacity:0"/>
				</linearGradient>
				<path id="path13239_2_" class="st9" d="M307-233c0,2.8-2.2,5-5,5c-2.8,0-5-2.2-5-5c0-2.8,2.2-5,5-5S307-235.8,307-233L307-233z"
					/>
			</g>
			<g id="g13241_2_">
				<path id="path13243_2_" class="st6" d="M318-229c0,3.9-3.1,7-7,7c-3.9,0-7-3.1-7-7c0,0,0,0,0,0c0-3.9,3.1-7,7-7
					C314.8-236,318-232.9,318-229C318-229,318-229,318-229z"/>
				
					<linearGradient id="path13245_1_" gradientUnits="userSpaceOnUse" x1="520.2957" y1="196.0981" x2="527.9456" y2="190.2687" gradientTransform="matrix(1.0383 0 0 -1.0386 -234.1441 -29.0646)">
					<stop  offset="0" style="stop-color:#FFFFFF"/>
					<stop  offset="1" style="stop-color:#FFFFFF;stop-opacity:0"/>
				</linearGradient>
				<path id="path13245_2_" class="st10" d="M318-229c0,3.9-3.1,7-7,7c-3.9,0-7-3.1-7-7c0,0,0,0,0,0c0-3.9,3.1-7,7-7
					C314.8-236,318-232.9,318-229C318-229,318-229,318-229z"/>
			</g>
		</g>
		<g id="g13247_2_" transform="translate(72.00007,7.999930)">
			<path id="path13249_2_" class="st11" d="M246.5-238.5c-2.3,0-4.1,1.6-4.7,3.6c-0.7-0.4-1.4-0.6-2.3-0.6c-2.8,0-5,2.2-5,5
				c0,0.6,0.2,1.1,0.3,1.6c-1.4,0.8-2.3,2.2-2.3,3.9c0,2.5,2,4.5,4.5,4.5c0.2,0,18.8,0,19,0c2.5,0,4.5-2,4.5-4.5
				c0-1.7-1-3.1-2.3-3.9c0.2-0.5,0.3-1,0.3-1.6c0-2.8-2.2-5-5-5c-0.8,0-1.6,0.3-2.3,0.6C250.6-236.9,248.8-238.5,246.5-238.5z"/>
			
				<linearGradient id="path13251_1_" gradientUnits="userSpaceOnUse" x1="485.7709" y1="237.5789" x2="499.7778" y2="228.497" gradientTransform="matrix(0.9997 0 0 -1 -248.9131 4.0002)">
				<stop  offset="0" style="stop-color:#FFFFFF"/>
				<stop  offset="1" style="stop-color:#FFFFFF;stop-opacity:0"/>
			</linearGradient>
			<path id="path13251_2_" class="st12" d="M246.5-238c-2.2,0-3.7,1.3-4.4,3.8c-0.7-0.3-1.5-0.8-2.4-0.8c-2.7,0-4.8,1.9-4.8,4.5
				c0,0.5,0.3,1.3,0.4,1.8c-1.3,0.7-2.4,1.9-2.4,3.4c0,2.3,1.5,4.3,4.3,4.3c0.2,0,18.2,0,18.3,0c2.8,0,4.3-1.9,4.3-4.3
				c0-1.6-1.1-2.7-2.4-3.4c0.2-0.5,0.5-1.3,0.5-1.8c0-2.6-2.1-4.6-4.8-4.6c-0.8,0-1.6,0.5-2.3,0.8C250.3-236.6,248.7-238,246.5-238z
				"/>
			<path id="path13253_2_" class="st6" d="M250-233.5c0,1.9-1.6,3.5-3.5,3.5c-1.9,0-3.5-1.6-3.5-3.5c0-1.9,1.6-3.5,3.5-3.5
				C248.4-237,250-235.4,250-233.5L250-233.5z"/>
			
				<linearGradient id="path13255_1_" gradientUnits="userSpaceOnUse" x1="496.699" y1="242.0449" x2="498.858" y2="238.6141" gradientTransform="matrix(1.0563 0 0 -1.0566 -279.4441 20.2031)">
				<stop  offset="0" style="stop-color:#FFFFFF"/>
				<stop  offset="1" style="stop-color:#FFFFFF;stop-opacity:0"/>
			</linearGradient>
			<path id="path13255_2_" class="st13" d="M250-233.5c0,1.9-1.6,3.5-3.5,3.5c-1.9,0-3.5-1.6-3.5-3.5c0-1.9,1.6-3.5,3.5-3.5
				C248.4-237,250-235.4,250-233.5L250-233.5z"/>
			<rect id="rect13257_2_" x="237" y="-231" class="st6" width="20" height="9"/>
			<path id="path13259_2_" class="st6" d="M240-225c0,1.7-1.3,3-3,3c-1.7,0-3-1.3-3-3s1.3-3,3-3C238.6-228,240-226.7,240-225
				L240-225z"/>
			<path id="path13261_2_" class="st6" d="M257-230.5c0,1.9-1.6,3.5-3.5,3.5c-1.9,0-3.5-1.6-3.5-3.5c0-1.9,1.6-3.5,3.5-3.5
				C255.4-234,257-232.4,257-230.5L257-230.5z"/>
			
				<linearGradient id="path13263_1_" gradientUnits="userSpaceOnUse" x1="495.6738" y1="243.5631" x2="499.0158" y2="238.4169" gradientTransform="matrix(1.0563 0 0 -1.0566 -272.4441 23.2031)">
				<stop  offset="0" style="stop-color:#FFFFFF"/>
				<stop  offset="1" style="stop-color:#FFFFFF;stop-opacity:0"/>
			</linearGradient>
			<path id="path13263_2_" class="st14" d="M257-230.5c0,1.9-1.6,3.5-3.5,3.5c-1.9,0-3.5-1.6-3.5-3.5c0-1.9,1.6-3.5,3.5-3.5
				C255.4-234,257-232.4,257-230.5L257-230.5z"/>
			<path id="path13265_2_" class="st6" d="M243-230.5c0,1.9-1.6,3.5-3.5,3.5c-1.9,0-3.5-1.6-3.5-3.5c0-1.9,1.6-3.5,3.5-3.5
				C241.4-234,243-232.4,243-230.5L243-230.5z"/>
			
				<linearGradient id="path13267_1_" gradientUnits="userSpaceOnUse" x1="495.5416" y1="242.5167" x2="498.992" y2="239.0206" gradientTransform="matrix(1.0563 0 0 -1.0566 -286.4441 23.2031)">
				<stop  offset="0" style="stop-color:#FFFFFF"/>
				<stop  offset="1" style="stop-color:#FFFFFF;stop-opacity:0"/>
			</linearGradient>
			<path id="path13267_2_" class="st15" d="M243-230.5c0,1.9-1.6,3.5-3.5,3.5c-1.9,0-3.5-1.6-3.5-3.5c0-1.9,1.6-3.5,3.5-3.5
				C241.4-234,243-232.4,243-230.5L243-230.5z"/>
			<path id="path13269_2_" class="st6" d="M245.5-234c-3.6,0-6.5,2.9-6.5,6.5c0,2.4,1.3,4.3,3.3,5.5h6.5c1.9-1.1,3.3-3.1,3.3-5.5
				C252-231.1,249-234,245.5-234z"/>
			
				<linearGradient id="path13271_1_" gradientUnits="userSpaceOnUse" x1="492.6069" y1="235.3548" x2="496.6405" y2="230.1681" gradientTransform="matrix(0.9997 0 0 -1 -249.9131 4.0002)">
				<stop  offset="0" style="stop-color:#FFFFFF"/>
				<stop  offset="1" style="stop-color:#FFFFFF;stop-opacity:0"/>
			</linearGradient>
			<path id="path13271_2_" class="st16" d="M245.5-234c-3.6,0-6.5,2.9-6.5,6.5c0,2.4,1.3,4.4,3.3,5.5h6.5c1.9-1.1,3.3-3.1,3.3-5.5
				C252-231.1,249.1-234,245.5-234z"/>
			
				<linearGradient id="path13273_1_" gradientUnits="userSpaceOnUse" x1="512.2831" y1="225.5553" x2="515.3829" y2="222.7787" gradientTransform="matrix(0.9054 0 0 -0.9057 -228.5281 -22.2546)">
				<stop  offset="0" style="stop-color:#FFFFFF"/>
				<stop  offset="1" style="stop-color:#FFFFFF;stop-opacity:0"/>
			</linearGradient>
			<path id="path13273_2_" class="st17" d="M240-225c0,1.7-1.3,3-3,3s-3-1.3-3-3s1.3-3,3-3S240-226.7,240-225L240-225z"/>
			<path id="path13275_2_" class="st18" d="M258.9-230.3c0,2.7-3.3,3.7-3.3,3.7s2.3-1.6,2.3-3.7L258.9-230.3z"/>
			<path id="path13277_2_" class="st6" d="M254-226c0,2.2-1.8,4-4,4c-2.2,0-4-1.8-4-4c0-2.2,1.8-4,4-4C252.2-230,254-228.2,254-226
				L254-226z"/>
			
				<linearGradient id="path13279_1_" gradientUnits="userSpaceOnUse" x1="482.2499" y1="256.0286" x2="486.3473" y2="251.6267" gradientTransform="matrix(1.2072 0 0 -1.2075 -336.3598 78.6608)">
				<stop  offset="0" style="stop-color:#FFFFFF"/>
				<stop  offset="1" style="stop-color:#FFFFFF;stop-opacity:0"/>
			</linearGradient>
			<path id="path13279_2_" class="st19" d="M254-226c0,2.2-1.8,4-4,4c-2.2,0-4-1.8-4-4c0-2.2,1.8-4,4-4C252.2-230,254-228.2,254-226
				L254-226z"/>
		</g>
		<g id="g13281_2_" transform="translate(56.98577,3.983930)">
			<path id="path13283_2_" class="st11" d="M246.5-238.5c-2.3,0-4.1,1.6-4.7,3.6c-0.7-0.4-1.4-0.6-2.3-0.6c-2.8,0-5,2.2-5,5
				c0,0.6,0.2,1.1,0.3,1.6c-1.4,0.8-2.3,2.2-2.3,3.9c0,2.5,2,4.5,4.5,4.5c0.2,0,18.8,0,19,0c2.5,0,4.5-2,4.5-4.5
				c0-1.7-1-3.1-2.3-3.9c0.2-0.5,0.3-1,0.3-1.6c0-2.8-2.2-5-5-5c-0.8,0-1.6,0.3-2.3,0.6C250.6-236.9,248.8-238.5,246.5-238.5z"/>
			
				<linearGradient id="path13285_1_" gradientUnits="userSpaceOnUse" x1="500.7852" y1="241.5949" x2="514.7921" y2="232.513" gradientTransform="matrix(0.9997 0 0 -1 -263.9225 8.0162)">
				<stop  offset="0" style="stop-color:#FFFFFF"/>
				<stop  offset="1" style="stop-color:#FFFFFF;stop-opacity:0"/>
			</linearGradient>
			<path id="path13285_2_" class="st20" d="M246.5-238c-2.2,0-3.7,1.3-4.4,3.8c-0.7-0.3-1.5-0.8-2.4-0.8c-2.7,0-4.8,1.9-4.8,4.5
				c0,0.5,0.3,1.3,0.4,1.8c-1.3,0.7-2.4,1.9-2.4,3.4c0,2.3,1.5,4.3,4.3,4.3c0.2,0,18.2,0,18.3,0c2.8,0,4.3-1.9,4.3-4.3
				c0-1.6-1.1-2.7-2.4-3.4c0.2-0.5,0.5-1.3,0.5-1.8c0-2.6-2.1-4.6-4.8-4.6c-0.8,0-1.6,0.5-2.3,0.8C250.3-236.6,248.7-238,246.5-238z
				"/>
			<path id="path13287_2_" class="st6" d="M250-233.5c0,1.9-1.6,3.5-3.5,3.5c-1.9,0-3.5-1.6-3.5-3.5c0-1.9,1.6-3.5,3.5-3.5
				C248.4-237,250-235.4,250-233.5L250-233.5z"/>
			
				<linearGradient id="path13289_1_" gradientUnits="userSpaceOnUse" x1="511.7133" y1="246.0609" x2="513.8723" y2="242.6301" gradientTransform="matrix(1.0563 0 0 -1.0566 -295.3031 24.4464)">
				<stop  offset="0" style="stop-color:#FFFFFF"/>
				<stop  offset="1" style="stop-color:#FFFFFF;stop-opacity:0"/>
			</linearGradient>
			<path id="path13289_2_" class="st21" d="M250-233.5c0,1.9-1.6,3.5-3.5,3.5c-1.9,0-3.5-1.6-3.5-3.5c0-1.9,1.6-3.5,3.5-3.5
				C248.4-237,250-235.4,250-233.5L250-233.5z"/>
			<rect id="rect13291_2_" x="237" y="-231" class="st6" width="20" height="9"/>
			<path id="path13293_2_" class="st6" d="M240-225c0,1.7-1.3,3-3,3c-1.7,0-3-1.3-3-3s1.3-3,3-3C238.6-228,240-226.7,240-225
				L240-225z"/>
			<path id="path13295_2_" class="st6" d="M257-230.5c0,1.9-1.6,3.5-3.5,3.5c-1.9,0-3.5-1.6-3.5-3.5c0-1.9,1.6-3.5,3.5-3.5
				C255.4-234,257-232.4,257-230.5L257-230.5z"/>
			
				<linearGradient id="path13297_1_" gradientUnits="userSpaceOnUse" x1="510.6881" y1="247.5791" x2="514.0302" y2="242.4329" gradientTransform="matrix(1.0563 0 0 -1.0566 -288.3031 27.4464)">
				<stop  offset="0" style="stop-color:#FFFFFF"/>
				<stop  offset="1" style="stop-color:#FFFFFF;stop-opacity:0"/>
			</linearGradient>
			<path id="path13297_2_" class="st22" d="M257-230.5c0,1.9-1.6,3.5-3.5,3.5c-1.9,0-3.5-1.6-3.5-3.5c0-1.9,1.6-3.5,3.5-3.5
				C255.4-234,257-232.4,257-230.5L257-230.5z"/>
			<path id="path13299_2_" class="st6" d="M243-230.5c0,1.9-1.6,3.5-3.5,3.5c-1.9,0-3.5-1.6-3.5-3.5c0-1.9,1.6-3.5,3.5-3.5
				C241.4-234,243-232.4,243-230.5L243-230.5z"/>
			
				<linearGradient id="path13301_1_" gradientUnits="userSpaceOnUse" x1="510.5559" y1="246.5327" x2="514.0063" y2="243.0366" gradientTransform="matrix(1.0563 0 0 -1.0566 -302.3031 27.4464)">
				<stop  offset="0" style="stop-color:#FFFFFF"/>
				<stop  offset="1" style="stop-color:#FFFFFF;stop-opacity:0"/>
			</linearGradient>
			<path id="path13301_2_" class="st23" d="M243-230.5c0,1.9-1.6,3.5-3.5,3.5c-1.9,0-3.5-1.6-3.5-3.5c0-1.9,1.6-3.5,3.5-3.5
				C241.4-234,243-232.4,243-230.5L243-230.5z"/>
			<path id="path13303_2_" class="st6" d="M245.5-234c-3.6,0-6.5,2.9-6.5,6.5c0,2.4,1.3,4.3,3.3,5.5h6.5c1.9-1.1,3.3-3.1,3.3-5.5
				C252-231.1,249-234,245.5-234z"/>
			
				<linearGradient id="path13305_1_" gradientUnits="userSpaceOnUse" x1="507.6212" y1="239.3708" x2="511.6548" y2="234.1841" gradientTransform="matrix(0.9997 0 0 -1 -264.9225 8.0162)">
				<stop  offset="0" style="stop-color:#FFFFFF"/>
				<stop  offset="1" style="stop-color:#FFFFFF;stop-opacity:0"/>
			</linearGradient>
			<path id="path13305_2_" class="st24" d="M245.5-234c-3.6,0-6.5,2.9-6.5,6.5c0,2.4,1.3,4.4,3.3,5.5h6.5c1.9-1.1,3.3-3.1,3.3-5.5
				C252-231.1,249.1-234,245.5-234z"/>
			
				<linearGradient id="path13307_1_" gradientUnits="userSpaceOnUse" x1="527.2974" y1="229.5713" x2="530.3972" y2="226.7947" gradientTransform="matrix(0.9054 0 0 -0.9057 -242.1215 -18.6175)">
				<stop  offset="0" style="stop-color:#FFFFFF"/>
				<stop  offset="1" style="stop-color:#FFFFFF;stop-opacity:0"/>
			</linearGradient>
			<path id="path13307_2_" class="st25" d="M240-225c0,1.7-1.3,3-3,3s-3-1.3-3-3s1.3-3,3-3S240-226.7,240-225L240-225z"/>
			<path id="path13309_2_" class="st18" d="M258.9-230.3c0,2.7-3.3,3.7-3.3,3.7s2.3-1.6,2.3-3.7L258.9-230.3z"/>
			<path id="path13311_2_" class="st6" d="M254-226c0,2.2-1.8,4-4,4c-2.2,0-4-1.8-4-4c0-2.2,1.8-4,4-4C252.2-230,254-228.2,254-226
				L254-226z"/>
			
				<linearGradient id="path13313_1_" gradientUnits="userSpaceOnUse" x1="497.2642" y1="260.0446" x2="501.3616" y2="255.6427" gradientTransform="matrix(1.2072 0 0 -1.2075 -354.4844 83.5103)">
				<stop  offset="0" style="stop-color:#FFFFFF"/>
				<stop  offset="1" style="stop-color:#FFFFFF;stop-opacity:0"/>
			</linearGradient>
			<path id="path13313_2_" class="st26" d="M254-226c0,2.2-1.8,4-4,4c-2.2,0-4-1.8-4-4c0-2.2,1.8-4,4-4C252.2-230,254-228.2,254-226
				L254-226z"/>
		</g>
	</g>
</g>
</svg>
