<?xml version="1.0" encoding="utf-8"?>
<!-- Generator: Adobe Illustrator 24.0.1, SVG Export Plug-In . SVG Version: 6.00 Build 0)  -->
<svg version="1.1"
	 id="svg1306" xmlns:cc="http://creativecommons.org/ns#" xmlns:dc="http://purl.org/dc/elements/1.1/" xmlns:inkscape="http://www.inkscape.org/namespaces/inkscape" xmlns:rdf="http://www.w3.org/1999/02/22-rdf-syntax-ns#" xmlns:sodipodi="http://sodipodi.sourceforge.net/DTD/sodipodi-0.dtd" xmlns:svg="http://www.w3.org/2000/svg"
	 xmlns="http://www.w3.org/2000/svg" xmlns:xlink="http://www.w3.org/1999/xlink" x="0px" y="0px" viewBox="0 0 48 48"
	 style="enable-background:new 0 0 48 48;" xml:space="preserve">
<style type="text/css">
	.st0{fill:#C4C5C2;stroke:#888A85;stroke-miterlimit:2;}
	.st1{fill:url(#path7798_1_);}
	.st2{fill:#C4C5C2;}
	.st3{fill:url(#path7804_1_);}
	.st4{fill:url(#path7814_1_);}
	.st5{fill:url(#path7820_1_);}
	.st6{fill:url(#path7826_1_);}
	.st7{fill:url(#path7828_1_);}
	.st8{fill-rule:evenodd;clip-rule:evenodd;fill:#888A85;}
	.st9{fill:url(#path7836_1_);}
	.st10{fill:url(#path7856_1_);}
	.st11{fill:url(#path7862_1_);}
	.st12{fill:url(#path7872_1_);}
	.st13{fill:url(#path7878_1_);}
	.st14{fill:url(#path7884_1_);}
	.st15{fill:url(#path7886_1_);}
	.st16{fill:url(#path7896_1_);}
	.st17{fill:url(#SVGID_1_);}
	.st18{fill:url(#SVGID_2_);}
	.st19{fill:url(#SVGID_3_);}
	.st20{fill:url(#SVGID_4_);}
	.st21{fill:url(#SVGID_5_);}
	.st22{fill:url(#SVGID_6_);}
</style>
<g id="layer1_35_">
	<g id="g10011_6_" transform="translate(-287.0000,298.0000)">
		<g id="g7794_6_" transform="translate(38.00259,162.0000)">
			<path id="path7796_6_" class="st0" d="M280.5-454c-2.3,0-4.1,1.6-4.7,3.6c-0.7-0.4-1.4-0.6-2.3-0.6c-2.8,0-5,2.2-5,5
				c0,0.6,0.2,1.1,0.3,1.6c-1.4,0.8-2.3,2.2-2.3,3.9c0,2.5,2,4.5,4.5,4.5c0.2,0,18.8,0,19,0c2.5,0,4.5-2,4.5-4.5
				c0-1.7-1-3.1-2.3-3.9c0.2-0.5,0.3-1,0.3-1.6c0-2.8-2.2-5-5-5c-0.8,0-1.6,0.3-2.3,0.6C284.7-452.4,282.8-454,280.5-454z"/>
			
				<linearGradient id="path7798_1_" gradientUnits="userSpaceOnUse" x1="519.7559" y1="39.0787" x2="533.7628" y2="29.9968" gradientTransform="matrix(1 0 0 -1 -248.9974 -410)">
				<stop  offset="0" style="stop-color:#FFFFFF"/>
				<stop  offset="1" style="stop-color:#FFFFFF;stop-opacity:0"/>
			</linearGradient>
			<path id="path7798_6_" class="st1" d="M280.5-453.5c-2.2,0-3.7,1.3-4.4,3.8c-0.7-0.3-1.5-0.8-2.4-0.8c-2.7,0-4.8,1.9-4.8,4.5
				c0,0.5,0.3,1.3,0.4,1.8c-1.3,0.7-2.4,1.9-2.4,3.4c0,2.3,1.5,4.3,4.3,4.3c0.2,0,18.2,0,18.3,0c2.8,0,4.3-1.9,4.3-4.3
				c0-1.6-1.1-2.7-2.4-3.4c0.2-0.5,0.5-1.3,0.5-1.8c0-2.6-2.1-4.6-4.8-4.6c-0.8,0-1.6,0.5-2.3,0.8
				C284.3-452.1,282.7-453.5,280.5-453.5z"/>
			<g id="g7800_6_">
				<path id="path7802_6_" class="st2" d="M284-449c0,1.9-1.6,3.5-3.5,3.5s-3.5-1.6-3.5-3.5s1.6-3.5,3.5-3.5S284-450.9,284-449
					L284-449z"/>
				
					<linearGradient id="path7804_1_" gradientUnits="userSpaceOnUse" x1="530.6791" y1="43.0894" x2="532.8381" y2="39.6586" gradientTransform="matrix(1.0566 0 0 -1.0566 -281.4596 -405.5141)">
					<stop  offset="0" style="stop-color:#FFFFFF"/>
					<stop  offset="1" style="stop-color:#FFFFFF;stop-opacity:0"/>
				</linearGradient>
				<path id="path7804_6_" class="st3" d="M284-449c0,1.9-1.6,3.5-3.5,3.5s-3.5-1.6-3.5-3.5s1.6-3.5,3.5-3.5S284-450.9,284-449
					L284-449z"/>
			</g>
			<rect id="rect7806_6_" x="271" y="-446.5" class="st2" width="20" height="9"/>
			<path id="path7808_6_" class="st2" d="M274-440.5c0,1.7-1.3,3-3,3s-3-1.3-3-3s1.3-3,3-3S274-442.2,274-440.5L274-440.5z"/>
			<g id="g7810_6_">
				<path id="path7812_6_" class="st2" d="M291-446c0,1.9-1.6,3.5-3.5,3.5s-3.5-1.6-3.5-3.5s1.6-3.5,3.5-3.5S291-447.9,291-446
					L291-446z"/>
				
					<linearGradient id="path7814_1_" gradientUnits="userSpaceOnUse" x1="529.6542" y1="44.6076" x2="532.9963" y2="39.4614" gradientTransform="matrix(1.0566 0 0 -1.0566 -274.4596 -402.5141)">
					<stop  offset="0" style="stop-color:#FFFFFF"/>
					<stop  offset="1" style="stop-color:#FFFFFF;stop-opacity:0"/>
				</linearGradient>
				<path id="path7814_6_" class="st4" d="M291-446c0,1.9-1.6,3.5-3.5,3.5s-3.5-1.6-3.5-3.5s1.6-3.5,3.5-3.5S291-447.9,291-446
					L291-446z"/>
			</g>
			<g id="g7816_6_">
				<path id="path7818_6_" class="st2" d="M277-446c0,1.9-1.6,3.5-3.5,3.5s-3.5-1.6-3.5-3.5s1.6-3.5,3.5-3.5S277-447.9,277-446
					L277-446z"/>
				
					<linearGradient id="path7820_1_" gradientUnits="userSpaceOnUse" x1="529.5221" y1="43.5612" x2="532.9725" y2="40.0651" gradientTransform="matrix(1.0566 0 0 -1.0566 -288.4596 -402.5141)">
					<stop  offset="0" style="stop-color:#FFFFFF"/>
					<stop  offset="1" style="stop-color:#FFFFFF;stop-opacity:0"/>
				</linearGradient>
				<path id="path7820_6_" class="st5" d="M277-446c0,1.9-1.6,3.5-3.5,3.5s-3.5-1.6-3.5-3.5s1.6-3.5,3.5-3.5S277-447.9,277-446
					L277-446z"/>
			</g>
			<g id="g7822_6_" transform="translate(-1.000000,0.000000)">
				<path id="path7824_6_" class="st2" d="M280.5-449.5c-3.6,0-6.5,2.9-6.5,6.5c0,2.4,1.3,4.3,3.3,5.5h6.5c1.9-1.1,3.3-3.1,3.3-5.5
					C287-446.6,284.1-449.5,280.5-449.5z"/>
				
					<linearGradient id="path7826_1_" gradientUnits="userSpaceOnUse" x1="527.5897" y1="36.8546" x2="531.6233" y2="31.6679" gradientTransform="matrix(1 0 0 -1 -249.9974 -410)">
					<stop  offset="0" style="stop-color:#FFFFFF"/>
					<stop  offset="1" style="stop-color:#FFFFFF;stop-opacity:0"/>
				</linearGradient>
				<path id="path7826_6_" class="st6" d="M280.5-449.5c-3.6,0-6.5,2.9-6.5,6.5c0,2.4,1.3,4.4,3.3,5.5h6.5c1.9-1.1,3.3-3.1,3.3-5.5
					C287-446.6,284.1-449.5,280.5-449.5z"/>
			</g>
			
				<linearGradient id="path7828_1_" gradientUnits="userSpaceOnUse" x1="546.2621" y1="27.9405" x2="549.3619" y2="25.164" gradientTransform="matrix(0.9057 0 0 -0.9057 -225.3937 -416.7264)">
				<stop  offset="0" style="stop-color:#FFFFFF"/>
				<stop  offset="1" style="stop-color:#FFFFFF;stop-opacity:0"/>
			</linearGradient>
			<path id="path7828_6_" class="st7" d="M274-440.5c0,1.7-1.3,3-3,3c-1.7,0-3-1.3-3-3s1.3-3,3-3C272.7-443.5,274-442.2,274-440.5
				L274-440.5z"/>
			<path id="path7830_6_" class="st8" d="M293-445.8c0,2.7-3.3,3.7-3.3,3.7s2.3-1.6,2.3-3.7L293-445.8z"/>
			<g id="g7832_6_" transform="matrix(1.142857,0.000000,0.000000,1.142857,-28.57139,67.00008)">
				<path id="path7834_6_" class="st2" d="M277-444.9c0,1.9-1.6,3.5-3.5,3.5c-1.9,0-3.5-1.6-3.5-3.5c0-1.9,1.6-3.5,3.5-3.5
					C275.5-448.4,277-446.9,277-444.9L277-444.9z"/>
				
					<linearGradient id="path7836_1_" gradientUnits="userSpaceOnUse" x1="476.7029" y1="-9.566" x2="480.8002" y2="-13.9679" gradientTransform="matrix(1.2075 0 0 -1.2075 -305.7733 -460.4317)">
					<stop  offset="0" style="stop-color:#FFFFFF"/>
					<stop  offset="1" style="stop-color:#FFFFFF;stop-opacity:0"/>
				</linearGradient>
				<path id="path7836_6_" class="st9" d="M277-444.9c0,1.9-1.6,3.5-3.5,3.5c-1.9,0-3.5-1.6-3.5-3.5c0-1.9,1.6-3.5,3.5-3.5
					C275.5-448.4,277-446.9,277-444.9L277-444.9z"/>
			</g>
		</g>
		<g id="g7852_6_" transform="translate(23.00000,158.0000)">
			<path id="path7854_6_" class="st0" d="M280.5-454c-2.3,0-4.1,1.6-4.7,3.6c-0.7-0.4-1.4-0.6-2.3-0.6c-2.8,0-5,2.2-5,5
				c0,0.6,0.2,1.1,0.3,1.6c-1.4,0.8-2.3,2.2-2.3,3.9c0,2.5,2,4.5,4.5,4.5c0.2,0,18.8,0,19,0c2.5,0,4.5-2,4.5-4.5
				c0-1.7-1-3.1-2.3-3.9c0.2-0.5,0.3-1,0.3-1.6c0-2.8-2.2-5-5-5c-0.8,0-1.6,0.3-2.3,0.6C284.7-452.4,282.8-454,280.5-454z"/>
			
				<linearGradient id="path7856_1_" gradientUnits="userSpaceOnUse" x1="534.7585" y1="43.0787" x2="548.7654" y2="33.9968" gradientTransform="matrix(1 0 0 -1 -264 -406)">
				<stop  offset="0" style="stop-color:#FFFFFF"/>
				<stop  offset="1" style="stop-color:#FFFFFF;stop-opacity:0"/>
			</linearGradient>
			<path id="path7856_6_" class="st10" d="M280.5-453.5c-2.2,0-3.7,1.3-4.4,3.8c-0.7-0.3-1.5-0.8-2.4-0.8c-2.7,0-4.8,1.9-4.8,4.5
				c0,0.5,0.3,1.3,0.4,1.8c-1.3,0.7-2.4,1.9-2.4,3.4c0,2.3,1.5,4.3,4.3,4.3c0.2,0,18.2,0,18.3,0c2.8,0,4.3-1.9,4.3-4.3
				c0-1.6-1.1-2.7-2.4-3.4c0.2-0.5,0.5-1.3,0.5-1.8c0-2.6-2.1-4.6-4.8-4.6c-0.8,0-1.6,0.5-2.3,0.8
				C284.3-452.1,282.7-453.5,280.5-453.5z"/>
			<g id="g7858_6_">
				<path id="path7860_6_" class="st2" d="M284-449c0,1.9-1.6,3.5-3.5,3.5s-3.5-1.6-3.5-3.5s1.6-3.5,3.5-3.5S284-450.9,284-449
					L284-449z"/>
				
					<linearGradient id="path7862_1_" gradientUnits="userSpaceOnUse" x1="545.6817" y1="47.0894" x2="547.8407" y2="43.6586" gradientTransform="matrix(1.0566 0 0 -1.0566 -297.3114 -401.2877)">
					<stop  offset="0" style="stop-color:#FFFFFF"/>
					<stop  offset="1" style="stop-color:#FFFFFF;stop-opacity:0"/>
				</linearGradient>
				<path id="path7862_6_" class="st11" d="M284-449c0,1.9-1.6,3.5-3.5,3.5s-3.5-1.6-3.5-3.5s1.6-3.5,3.5-3.5S284-450.9,284-449
					L284-449z"/>
			</g>
			<rect id="rect7864_6_" x="271" y="-446.5" class="st2" width="20" height="9"/>
			<path id="path7866_6_" class="st2" d="M274-440.5c0,1.7-1.3,3-3,3s-3-1.3-3-3s1.3-3,3-3S274-442.2,274-440.5L274-440.5z"/>
			<g id="g7868_6_">
				<path id="path7870_6_" class="st2" d="M291-446c0,1.9-1.6,3.5-3.5,3.5s-3.5-1.6-3.5-3.5s1.6-3.5,3.5-3.5S291-447.9,291-446
					L291-446z"/>
				
					<linearGradient id="path7872_1_" gradientUnits="userSpaceOnUse" x1="544.6569" y1="48.6076" x2="547.9989" y2="43.4614" gradientTransform="matrix(1.0566 0 0 -1.0566 -290.3114 -398.2877)">
					<stop  offset="0" style="stop-color:#FFFFFF"/>
					<stop  offset="1" style="stop-color:#FFFFFF;stop-opacity:0"/>
				</linearGradient>
				<path id="path7872_6_" class="st12" d="M291-446c0,1.9-1.6,3.5-3.5,3.5s-3.5-1.6-3.5-3.5s1.6-3.5,3.5-3.5S291-447.9,291-446
					L291-446z"/>
			</g>
			<g id="g7874_6_">
				<path id="path7876_6_" class="st2" d="M277-446c0,1.9-1.6,3.5-3.5,3.5s-3.5-1.6-3.5-3.5s1.6-3.5,3.5-3.5S277-447.9,277-446
					L277-446z"/>
				
					<linearGradient id="path7878_1_" gradientUnits="userSpaceOnUse" x1="544.5247" y1="47.5612" x2="547.9751" y2="44.0651" gradientTransform="matrix(1.0566 0 0 -1.0566 -304.3114 -398.2877)">
					<stop  offset="0" style="stop-color:#FFFFFF"/>
					<stop  offset="1" style="stop-color:#FFFFFF;stop-opacity:0"/>
				</linearGradient>
				<path id="path7878_6_" class="st13" d="M277-446c0,1.9-1.6,3.5-3.5,3.5s-3.5-1.6-3.5-3.5s1.6-3.5,3.5-3.5S277-447.9,277-446
					L277-446z"/>
			</g>
			<g id="g7880_6_" transform="translate(-1.000000,0.000000)">
				<path id="path7882_6_" class="st2" d="M280.5-449.5c-3.6,0-6.5,2.9-6.5,6.5c0,2.4,1.3,4.3,3.3,5.5h6.5c1.9-1.1,3.3-3.1,3.3-5.5
					C287-446.6,284.1-449.5,280.5-449.5z"/>
				
					<linearGradient id="path7884_1_" gradientUnits="userSpaceOnUse" x1="542.5923" y1="40.8546" x2="546.6259" y2="35.6679" gradientTransform="matrix(1 0 0 -1 -265 -406)">
					<stop  offset="0" style="stop-color:#FFFFFF"/>
					<stop  offset="1" style="stop-color:#FFFFFF;stop-opacity:0"/>
				</linearGradient>
				<path id="path7884_6_" class="st14" d="M280.5-449.5c-3.6,0-6.5,2.9-6.5,6.5c0,2.4,1.3,4.4,3.3,5.5h6.5c1.9-1.1,3.3-3.1,3.3-5.5
					C287-446.6,284.1-449.5,280.5-449.5z"/>
			</g>
			
				<linearGradient id="path7886_1_" gradientUnits="userSpaceOnUse" x1="561.2647" y1="31.9405" x2="564.3644" y2="29.164" gradientTransform="matrix(0.9057 0 0 -0.9057 -238.981 -413.1038)">
				<stop  offset="0" style="stop-color:#FFFFFF"/>
				<stop  offset="1" style="stop-color:#FFFFFF;stop-opacity:0"/>
			</linearGradient>
			<path id="path7886_6_" class="st15" d="M274-440.5c0,1.7-1.3,3-3,3c-1.7,0-3-1.3-3-3s1.3-3,3-3C272.7-443.5,274-442.2,274-440.5
				L274-440.5z"/>
			<path id="path7888_6_" class="st8" d="M293-445.8c0,2.7-3.3,3.7-3.3,3.7s2.3-1.6,2.3-3.7L293-445.8z"/>
			<g id="g7890_6_" transform="matrix(1.142857,0.000000,0.000000,1.142857,-28.57139,67.00008)">
				<path id="path7892_6_" class="st2" d="M277-444.9c0,1.9-1.6,3.5-3.5,3.5c-1.9,0-3.5-1.6-3.5-3.5c0-1.9,1.6-3.5,3.5-3.5
					C275.5-448.4,277-446.9,277-444.9L277-444.9z"/>
				
					<linearGradient id="path7896_1_" gradientUnits="userSpaceOnUse" x1="489.8301" y1="-6.066" x2="493.9275" y2="-10.4679" gradientTransform="matrix(1.2075 0 0 -1.2075 -321.6251 -456.2053)">
					<stop  offset="0" style="stop-color:#FFFFFF"/>
					<stop  offset="1" style="stop-color:#FFFFFF;stop-opacity:0"/>
				</linearGradient>
				<path id="path7896_6_" class="st16" d="M277-444.9c0,1.9-1.6,3.5-3.5,3.5c-1.9,0-3.5-1.6-3.5-3.5c0-1.9,1.6-3.5,3.5-3.5
					C275.5-448.4,277-446.9,277-444.9L277-444.9z"/>
			</g>
		</g>
	</g>
	<g>
		<path class="st0" d="M23,38L23,38c0,1.1-0.9,2-2,2h-8c-1.1,0-2-0.9-2-2v0c0-1.1-0.9-2-2-2H5.9c-1.1,0-2-0.9-2-2v0c0-1.1,0.9-2,2-2
			h8c1.1,0,2,0.9,2,2v0c0,1.1,0.9,2,2,2H21C22.1,36,23,36.9,23,38z"/>
		<linearGradient id="SVGID_1_" gradientUnits="userSpaceOnUse" x1="4.8403" y1="33.9793" x2="14.8403" y2="33.9793">
			<stop  offset="0" style="stop-color:#FFFFFF"/>
			<stop  offset="1" style="stop-color:#FFFFFF;stop-opacity:0"/>
		</linearGradient>
		<path class="st17" d="M13.8,35h-8c-0.6,0-1-0.4-1-1l0,0c0-0.6,0.4-1,1-1h8c0.6,0,1,0.4,1,1l0,0C14.8,34.5,14.4,35,13.8,35z"/>
		<linearGradient id="SVGID_2_" gradientUnits="userSpaceOnUse" x1="12.0461" y1="38.0001" x2="22.0461" y2="38.0001">
			<stop  offset="0" style="stop-color:#FFFFFF"/>
			<stop  offset="1" style="stop-color:#FFFFFF;stop-opacity:0"/>
		</linearGradient>
		<path class="st18" d="M21,39h-8c-0.6,0-1-0.4-1-1l0,0c0-0.6,0.4-1,1-1h8c0.6,0,1,0.4,1,1l0,0C22,38.6,21.6,39,21,39z"/>
	</g>
	<g>
		<path class="st0" d="M45.5,40L45.5,40c0,1.1-0.9,2-2,2h-8c-1.1,0-2-0.9-2-2v0c0-1.1-0.9-2-2-2h-3.1c-1.1,0-2-0.9-2-2v0
			c0-1.1,0.9-2,2-2h8c1.1,0,2,0.9,2,2v0c0,1.1,0.9,2,2,2h3.1C44.7,38,45.5,38.9,45.5,40z"/>
		<linearGradient id="SVGID_3_" gradientUnits="userSpaceOnUse" x1="27.3782" y1="35.9897" x2="37.3782" y2="35.9897">
			<stop  offset="0" style="stop-color:#FFFFFF"/>
			<stop  offset="1" style="stop-color:#FFFFFF;stop-opacity:0"/>
		</linearGradient>
		<path class="st19" d="M36.4,37h-8c-0.6,0-1-0.4-1-1v0c0-0.6,0.4-1,1-1h8c0.6,0,1,0.4,1,1v0C37.4,36.5,36.9,37,36.4,37z"/>
		<linearGradient id="SVGID_4_" gradientUnits="userSpaceOnUse" x1="34.5839" y1="40.0105" x2="44.5839" y2="40.0105">
			<stop  offset="0" style="stop-color:#FFFFFF"/>
			<stop  offset="1" style="stop-color:#FFFFFF;stop-opacity:0"/>
		</linearGradient>
		<path class="st20" d="M43.6,41h-8c-0.6,0-1-0.4-1-1v0c0-0.6,0.4-1,1-1h8c0.6,0,1,0.4,1,1v0C44.6,40.6,44.1,41,43.6,41z"/>
	</g>
	<g>
		<path class="st0" d="M40,29L40,29c0,1.1-0.9,2-2,2H22c-1.1,0-2-0.9-2-2v0c0-1.1-0.9-2-2-2H9.9c-1.1,0-2-0.9-2-2v0c0-1.1,0.9-2,2-2
			h16c1.1,0,2,0.9,2,2v0c0,1.1,0.9,2,2,2H38C39.1,27,40,27.9,40,29z"/>
		<linearGradient id="SVGID_5_" gradientUnits="userSpaceOnUse" x1="8.8733" y1="24.9793" x2="26.8733" y2="24.9793">
			<stop  offset="0" style="stop-color:#FFFFFF"/>
			<stop  offset="1" style="stop-color:#FFFFFF;stop-opacity:0"/>
		</linearGradient>
		<path class="st21" d="M25.9,26h-16c-0.6,0-1-0.4-1-1v0c0-0.6,0.4-1,1-1h16c0.6,0,1,0.4,1,1v0C26.9,25.5,26.4,26,25.9,26z"/>
		<linearGradient id="SVGID_6_" gradientUnits="userSpaceOnUse" x1="20.8733" y1="28.9793" x2="38.8733" y2="28.9793">
			<stop  offset="0" style="stop-color:#FFFFFF"/>
			<stop  offset="1" style="stop-color:#FFFFFF;stop-opacity:0"/>
		</linearGradient>
		<path class="st22" d="M37.9,30h-16c-0.6,0-1-0.4-1-1v0c0-0.6,0.4-1,1-1h16c0.6,0,1,0.4,1,1v0C38.9,29.5,38.4,30,37.9,30z"/>
	</g>
</g>
</svg>
