<?xml version="1.0" encoding="utf-8"?>
<!-- Generator: Adobe Illustrator 24.0.1, SVG Export Plug-In . SVG Version: 6.00 Build 0)  -->
<svg version="1.1"
	 id="svg1306" xmlns:cc="http://creativecommons.org/ns#" xmlns:dc="http://purl.org/dc/elements/1.1/" xmlns:inkscape="http://www.inkscape.org/namespaces/inkscape" xmlns:rdf="http://www.w3.org/1999/02/22-rdf-syntax-ns#" xmlns:sodipodi="http://sodipodi.sourceforge.net/DTD/sodipodi-0.dtd" xmlns:svg="http://www.w3.org/2000/svg"
	 xmlns="http://www.w3.org/2000/svg" xmlns:xlink="http://www.w3.org/1999/xlink" x="0px" y="0px" viewBox="0 0 48 48"
	 style="enable-background:new 0 0 48 48;" xml:space="preserve">
<style type="text/css">
	.st0{fill:#EAECE8;}
	.st1{opacity:0.1056;fill-rule:evenodd;clip-rule:evenodd;fill:#787974;enable-background:new    ;}
	.st2{opacity:0.1889;fill-rule:evenodd;clip-rule:evenodd;fill:#787974;enable-background:new    ;}
	.st3{opacity:0.1833;fill-rule:evenodd;clip-rule:evenodd;fill:#787974;enable-background:new    ;}
	.st4{opacity:0.4722;fill-rule:evenodd;clip-rule:evenodd;fill:#F3F4F2;enable-background:new    ;}
	.st5{opacity:0.1167;fill-rule:evenodd;clip-rule:evenodd;fill:#787974;enable-background:new    ;}
	.st6{fill:none;stroke:#000000;stroke-width:1;stroke-miterlimit:3.9948;}
	.st7{opacity:0.2;fill-rule:evenodd;clip-rule:evenodd;fill:#938F8B;enable-background:new    ;}
	.st8{opacity:0.2889;fill-rule:evenodd;clip-rule:evenodd;fill:#938F8B;enable-background:new    ;}
	.st9{opacity:0.1778;fill-rule:evenodd;clip-rule:evenodd;fill:url(#path5359_2_);enable-background:new    ;}
	.st10{opacity:0.6167;fill:#FFFFFF;enable-background:new    ;}
	.st11{opacity:0.5444;fill:#FFFFFF;enable-background:new    ;}
	.st12{opacity:0.5444;fill:#C2C3BE;enable-background:new    ;}
	.st13{opacity:0.5667;fill:#C2C3BE;enable-background:new    ;}
	.st14{fill-rule:evenodd;clip-rule:evenodd;fill:#FFFFFF;}
	.st15{opacity:0.3167;}
	.st16{fill:#A3A4A0;}
	.st17{fill:#FFFFFF;}
	.st18{fill:none;stroke:#888A85;stroke-width:1;stroke-miterlimit:5.5387;}
	.st19{fill:none;stroke:#FFFFFF;stroke-width:1;stroke-linecap:square;stroke-miterlimit:5.257;}
	.st20{fill:#C4C5C2;stroke:#888A85;stroke-miterlimit:2;}
	.st21{fill:url(#path6960_2_);}
	.st22{fill:#C4C5C2;}
	.st23{fill:url(#path6966_2_);}
	.st24{fill:url(#path6976_2_);}
	.st25{fill:url(#path6982_2_);}
	.st26{fill:url(#path6988_2_);}
	.st27{fill:url(#path6990_2_);}
	.st28{fill-rule:evenodd;clip-rule:evenodd;fill:#888A85;}
	.st29{fill:url(#path6998_2_);}
</style>
<g id="layer1_12_">
	<g id="g5441_1_" transform="matrix(0.998698,0.000000,0.000000,0.998698,-342.5410,469.4118)">
		<path id="path5439_1_" class="st0" d="M380.5-446.1c0,7.5-6.1,13.5-13.5,13.5c-7.5,0-13.5-6.1-13.5-13.5l0,0
			c0-7.5,6.1-13.5,13.5-13.5C374.5-459.6,380.5-453.6,380.5-446.1L380.5-446.1z"/>
		<g id="g5405_1_" transform="translate(37.12500,-1.625000)">
			<path id="path5342_1_" class="st1" d="M323.8-456.1c0,0.2-0.1,0.4-0.3,0.6c-0.2,0.3-0.3,0.4-0.1,0.7c0.1,0.1,0.6,0,0.7,0
				c0.3-0.1,0.7-0.2,1-0.4c0.2-0.1,0.4-0.1,0.7-0.2c0.3-0.1,0.6,0.1,0.7,0.2c0.1,0.1-0.5,0.5-0.5,0.5c-0.2,0.1-0.5,0.2-0.7,0.3
				c-0.3,0.1-0.6,0.2-0.9,0.2c-0.3,0.1-0.5,0.2-0.8,0.3c-0.3,0.2-0.6,0.5-0.9,0.8c-0.3,0.3-0.4,0.6-0.3,0.9c0.1,0.3,0.2,0.5,0.5,0.5
				c0.3,0.1,0.5-0.1,0.7-0.3c0.2-0.3,0.3-0.7,0.6-0.9c0.2-0.2,0.4-0.4,0.6-0.6c0.2-0.2,0.4-0.3,0.7-0.2c0.2,0.1,0.4,0.3,0.7,0.4
				c0.2,0,0.6-0.3,0.8-0.4c0,0,0.1-0.1,0.1-0.1c0.2-0.1,0.6-0.1,0.8-0.1c0.3,0,0.5,0.1,0.7,0.2c0.3,0.1,0.5,0.1,0.8,0.3
				c0.3,0.2,0.4,0.4,0.6,0.6c0.1,0.3,0.2,0.4,0.4,0.6c0.2,0.2,0.6,0.4,0.8,0.6c0.1,0.1,0.2,0.5,0.3,0.7c0.1,0.3,0.1,0.6,0,0.9
				c-0.2,0.3-0.3,0.6-0.5,0.9c-0.1,0.3-0.5,0.5-0.8,0.7c-0.3,0.3-0.8,0.3-1.1,0.6c-0.4,0.4-0.4,0.6-0.8,1.1c-0.3,0.4,0,0.6,0.4,0.5
				c0.3-0.1,0.6-0.2,1-0.2c0.1,0,0.1,0,0.2,0c0.4-0.1,0.7-0.4,1.1-0.5c0.5-0.1,1.5,0.6,2,0.9c0.4,0.2-0.1,0.6-0.2,0.7
				c-0.3,0.2-0.6,0.2-1,0.2c-0.2,0-0.5-0.1-0.7-0.1c-0.3-0.1-0.5-0.1-0.8,0.1c-0.3,0.2-0.2,0.5-0.1,0.7c0.2,0.3,0.4,0.4,0.5,0.7
				c0.1,0.3-0.2,0.5-0.4,0.7c-0.2,0.1-0.7,0-1,0c-0.4,0-0.7,0.2-1,0.4c-0.1,0.1-0.2,0.6-0.3,0.8c0,0.1,0,0.1,0,0.2
				c-0.1,0.4,0,0.6,0.2,0.9c0.1,0.2,0.3,0.5,0.4,0.7c0.1,0.3,0.2,0.5,0.1,0.8c-0.1,0.3-0.2,0.5-0.2,0.7c0,0.2,0.2,0.7,0.3,0.8
				c0.1,0.4,0,0.4-0.2,0.7c-0.2,0.2-0.6,0.3-0.8,0.4c-0.2,0.1-0.7,0-0.9-0.1c-0.3-0.1-0.5,0.1-0.7,0.2c-0.3,0.2-0.3,0.3-0.6,0
				c-0.3-0.3-0.5-0.7-0.6-1.1c0-0.1,0-0.1,0-0.2c-0.1-0.3,0-0.6,0-0.9c0-0.3,0.1-0.5,0.1-0.8c0-0.3-0.8,0.3-1,0.4
				c-0.1,0-0.2,0.1-0.3,0.1c-0.4,0.2-0.4,0.5-0.4,0.9c0,0.3,0.2,0.6,0.2,1c0,0.3-0.4,0.4-0.7,0.4c-0.4,0-0.6-0.5-0.8-0.7
				c-0.3-0.3-0.7-0.5-0.8-0.8c-0.2-0.4-0.3-0.7,0.2-1c0.3-0.2,0.6-0.2,0.8-0.5c0.2-0.3,0.5-0.6,0-0.8c-0.3-0.1-0.5-0.2-0.8-0.1
				c-0.1,0-0.1,0-0.2,0c-0.7,0.1-0.7,0.1-1.3-0.2c-0.4-0.2-0.6-0.6-0.9-0.9c-0.3-0.3-0.5-0.7-0.6-1.1c-0.1-0.4-0.2-0.7-0.3-1
				c-0.1-0.3-0.1-0.6-0.1-0.9c0-0.3-0.1-0.6-0.1-0.9c0-0.3,0-0.7,0-1c0-0.3,0-0.6,0-1c0-0.3,0.1-0.6,0.1-0.9c0,0,0-0.1,0-0.1
				c0-0.3,0.2-0.7,0.3-1c0.1-0.3,0.3-0.5,0.4-0.8c0.1-0.3,0.3-0.5,0.4-0.7c0.2-0.3,0.4-0.5,0.6-0.8c0.3-0.4,0.7-0.8,1.1-1.2
				c0.2-0.2,0.4-0.5,0.6-0.8c0.3-0.3,0.7-0.5,1-0.8c0.3-0.2,0.5-0.4,0.7-0.7c0.1-0.2,0.2-0.5,0.4-0.7
				C323.6-456,323.8-456.1,323.8-456.1z"/>
			<path id="path5345_1_" class="st2" d="M334.9-451c-0.4,0.1-1.2,0.2-1.7,0.1c-0.4-0.1-0.4-0.3-0.8,0.1c0,0-0.1,0.1-0.1,0.1
				c-0.2,0.2-0.3,0.3-0.3,0.6c0,0.2,0,0.5,0,0.7c0,0.2,0,0.6,0,0.8c0.1,0.3,0.1,0.5,0.3,0.8c0.1,0.2,0.2,0.4,0.4,0.6
				c0.3,0.2,0.7,0.3,1,0.4c0.2,0.1,0.6,0,0.8,0c0.3,0,0.4,0,0.4,0.4c0,0.3-0.6,0.7-0.8,1c-0.2,0.3-0.1,0.6,0,0.9
				c0.1,0.3,0.1,0.5,0.2,0.8c0.1,0.3,0.1,0.5,0.4,0.7c0.2,0.2,0.7,0,0.9,0.3c0.1,0.2,0.1,0.4,0.1,0.6c0,0.3,0.1,0.5,0.4,0.3
				c0.3-0.1,0.5-0.1,0.7-0.4c0.2-0.3,0.3-0.6,0.4-0.9c0.1-0.3,0.4-0.3,0.6-0.3c0.3,0,0.5,0.1,0.8,0c0.4-0.1,0.5-0.2,0.8-0.5
				c0.4-0.4,0.3-0.6,0.4-1.1c0-0.2,0-0.5-0.1-0.6c0-0.1,0-0.1,0-0.2c-0.1-0.2-0.5-0.2-0.7-0.2c-0.4,0-1-0.2-1.3-0.3
				c-0.2,0-0.7-0.7-0.8-0.8c-0.2-0.2-0.3-0.4-0.3-0.6c-0.1-0.3,0-0.7-0.1-1c-0.1-0.4,0-0.6-0.3-0.9c-0.2-0.2-0.3-0.5-0.4-0.8
				c-0.1-0.3-0.3-0.5-0.5-0.7C335.1-451,335.1-450.9,334.9-451z"/>
			<path id="path5347_1_" class="st3" d="M341-448.7c-0.2,0-0.4,0.3-0.6,0.4c-0.2,0.2-0.1,0.5-0.1,0.7c0,0.3,0.1,0.5,0.1,0.8
				c0.1,0.2,0.3,0.5,0.4,0.6c0.2,0.2,0.5,0.3,0.8,0.4c0.4,0.1,0.6,0.1,0.8-0.3c0.1-0.3,0.2-0.5,0.2-0.8c0-0.3,0-0.5-0.1-0.8
				c-0.1-0.3-0.2-0.5-0.5-0.6c-0.2-0.1-0.4-0.3-0.6-0.5C341.3-448.7,341.1-448.7,341-448.7z"/>
			<path id="path5349_1_" class="st4" d="M328.4-436.2c0.2-0.1,0.8-0.8,1.3-1.1c0.1-0.1,0.2-0.1,0.2-0.2c0.4-0.4,0.8-0.9,1.1-1.4
				c0.5-0.7,0.7-1.4,0.9-2.2c0.2-1,0.3-0.3,0,0.3c0,0.1-0.1,0.2-0.1,0.3c-0.1,0.4-0.2,0.9-0.3,1.3c-0.2,0.6-0.7,1-0.8,1.6
				c-0.1,0.3-0.2,0.7-0.1,1c0.1,0.3,0.5-0.4,0.8-0.5c0.4-0.1,0.5-0.2,0.5,0.2c0,0.3-0.1,0.7-0.2,1c-0.1,0.5,1.3,0.1,1.6,0
				c1-0.3,1.7-0.6,2.5-1.3c0.9-0.7,1.6-1.6,2.5-2.4c0.7-0.7,1-1.1,0.6,0c0,0.1-0.1,0.2-0.1,0.3c0,0.1-0.1,0.2-0.1,0.3
				c-0.2,0.6-0.6,1.2-1.2,1.6c-0.8,0.6-1.4,1.6-2.3,2c-0.4,0.2-0.7,0.3-1.1,0.4c-0.4,0.2,0.7,0.3,0.9,0.4c2,0.4-1.6,0.6-2.1,0.6
				c-0.7,0-1.1-0.2-1.7,0.2c-0.2,0.1,0.9,0.6,1,0.6c0.5,0.1,0.9,0.4,1.4,0.4c0.8,0-1.8,0.3-2.5,0.1c-0.6-0.2-1.2-0.3-1.8-0.4
				c-0.3-0.1-0.6,0-0.9,0c-0.1,0,0,0.8,0,0.9c0,0.6-0.2,1.1-0.4,0.2c-0.2-0.5-0.4-0.9-0.4-1.4c0-0.3-0.4,0.5-0.6,0.7
				c-0.3,0.4-0.8,0.9-0.9,0.9c0,0,0.3-0.6,0.4-1c0.1-0.3,0.6-1.1,0.2-1.2c-0.3-0.1-0.7,0-1-0.1c-0.5-0.1-1-0.2-1.4-0.4
				c-0.8-0.4-2.2-0.8-3.1-1c-0.1,0-1.5-1.5-0.2-0.2c0.9,0.9,2.2,1.4,3.4,1.4c0.4,0,1-0.1,1.3-0.2c0.2-0.1,0.5-0.4,0.8-0.5
				c0.3-0.1-0.4-0.4-0.6-0.6c-0.1-0.1-0.1-0.2-0.2-0.2c-0.7-0.9-1-2-1.8-2.9c-0.1-0.1-2.1-2.4-1.2-1.6c1,0.8,1.8,1.5,2.6,2.4
				c0.4,0.5,0.8,1.1,1.2,1.6c0.4,0.5,0.3-0.1,0.2-0.4c-0.2-0.7-0.1-1.7-0.1-2.5c0-1,0.5,1,0.6,1.2c0.1,0.5,0.4,1.1,0.8,0.6
				c0.4-0.5,0.4-0.6,0.4,0c0,0.1,0,0.1,0,0.2C328.3-436.8,328.3-436.5,328.4-436.2z"/>
			<path id="path5351_1_" class="st5" d="M340-445c0.1,0.1,0.2,0.4,0.2,0.6c0,0.1-0.7,0.6-0.8,0.7c-0.2,0.2-0.2,0.5-0.3,0.8
				c-0.1,0.3-0.1,0.5-0.1,0.8c0.1,0.3,0.2,0.5,0.3,0.8c0.1,0.3,0.4,0.4,0.6,0.7c0.3,0.3,0.6,0.3,1,0.4c0.4,0.1-0.3,0.5-0.4,0.6
				c-0.3,0.2-0.5,0.3-0.7,0.6c-0.2,0.3,0.2,0.5,0.4,0.6c0.2,0.1,0.6-0.3,0.7-0.5c0.2-0.2,0.4-0.4,0.4-0.7c0-0.2,0.1-0.5,0.1-0.8
				c0-0.3,0.1-0.6,0.1-0.8c0.1-0.4,0.2-0.5,0.4-0.7c0.2-0.2,0.2-0.6,0.1-0.8c-0.1-0.2-0.2-0.5-0.3-0.7c-0.1-0.2-0.4-0.4-0.6-0.4
				c-0.2-0.1-0.6-0.5-0.7-0.6C340.4-444.8,340.3-445,340-445z"/>
			<path id="path5353_1_" class="st6" d="M322.7-446C322.7-446,322.7-446,322.7-446z"/>
			<path id="path5355_1_" class="st7" d="M327.6-455.7c0.2,0,0.6-0.2,0.8-0.2c0.3-0.1,0.7,0.1,1,0.1c0,0,0.3,0.4,0.6,0.4
				c0.1,0,0.1,0,0.2,0c0.2,0,0.5,0.2,0.7,0.4c0.2,0.2,0,0.5-0.1,0.6c-0.3,0.3-0.5,0.1-0.7-0.1c-0.2-0.2-0.3-0.3-0.6-0.4
				c-0.3-0.1-0.6,0-0.8,0c-0.3,0.1-0.5,0.2-0.9,0.2c-0.1,0-0.5-0.5-0.6-0.6C327.2-455.4,327.5-455.7,327.6-455.7z"/>
			<path id="path5357_1_" class="st8" d="M332.4-455c0.2,0.1,0.6,0,1,0c0.4-0.1,0.9-0.1,1.3,0c0.2,0.1,1.6,0.3,1,0.6
				c-0.3,0.2-0.6,0.2-0.9,0.4c-0.3,0.2,0.4,0.3,0.6,0.3c0.4,0,0.2,0.5,0.1,0.7c-0.2,0.3-0.1,0.7,0,0.9c0.1,0.3,0.5,0.2,0.8,0.2
				c0.3,0,0.6,0,0.8,0.3c0.2,0.2,0.4,0.5,0.3,0.7c-0.1,0.2-0.7,0.3-0.9,0.3c-0.2,0-0.8-0.8-0.8-0.8c-0.2-0.2-0.5,0-0.7,0
				c-0.4,0.1-0.7-0.4-0.9-0.6c-0.3-0.2-0.4-0.5-0.6-0.8c-0.2-0.3,0.1-0.5-0.4-0.5c-0.3,0-0.5-0.1-0.7-0.2c-0.3-0.2-0.6-0.1-0.6-0.6
				c0-0.4,0-0.5,0.4-0.7C332.1-454.9,332.3-454.9,332.4-455z"/>
			
				<radialGradient id="path5359_2_" cx="5151.1353" cy="-3652.2329" r="358.4465" gradientTransform="matrix(2.126119e-02 0 0 -2.755039e-02 215.9229 -546.9221)" gradientUnits="userSpaceOnUse">
				<stop  offset="0" style="stop-color:#787974"/>
				<stop  offset="1" style="stop-color:#787974;stop-opacity:0"/>
			</radialGradient>
			<path id="path5359_1_" class="st9" d="M323.9-456.2c0,0.2-0.1,0.4-0.3,0.6c-0.2,0.3-0.3,0.4-0.1,0.7c0.1,0.1,0.6,0,0.7,0
				c0.3-0.1,0.7-0.2,1-0.4c0.2-0.1,0.4-0.1,0.7-0.2c0.3-0.1,0.6,0.1,0.7,0.2c0.1,0.1-0.5,0.5-0.5,0.5c-0.2,0.1-0.5,0.2-0.7,0.3
				c-0.3,0.1-0.6,0.2-0.9,0.2c-0.3,0.1-0.5,0.2-0.8,0.3c-0.3,0.2-0.6,0.5-0.9,0.8c-0.3,0.3-0.4,0.6-0.3,0.9c0.1,0.3,0.2,0.5,0.5,0.5
				c0.3,0.1,0.5-0.1,0.7-0.3c0.2-0.3,0.3-0.7,0.6-0.9c0.2-0.2,0.4-0.4,0.6-0.6c0.2-0.2,0.4-0.3,0.7-0.2c0.2,0.1,0.4,0.3,0.7,0.4
				c0.2,0,0.6-0.3,0.8-0.4c0,0,0.1-0.1,0.1-0.1c0.2-0.1,0.6-0.1,0.8-0.1c0.3,0,0.5,0.1,0.7,0.2c0.3,0.1,0.5,0.1,0.8,0.3
				c0.3,0.2,0.4,0.4,0.6,0.6c0.1,0.3,0.2,0.4,0.4,0.6c0.2,0.2,0.6,0.4,0.8,0.6c0.1,0.1,0.2,0.5,0.3,0.7c0.1,0.3,0.1,0.6,0,0.9
				c-0.2,0.3-0.3,0.6-0.5,0.9c-0.1,0.3-0.5,0.5-0.8,0.7c-0.3,0.3-0.8,0.3-1.1,0.6c-0.4,0.4-0.4,0.6-0.8,1.1c-0.3,0.4,0,0.6,0.4,0.5
				c0.3-0.1,0.6-0.2,1-0.2c0.1,0,0.1,0,0.2,0c0.4-0.1,0.7-0.4,1.1-0.5c0.5-0.1,1.5,0.6,2,0.9c0.4,0.2-0.1,0.6-0.2,0.7
				c-0.3,0.2-0.6,0.2-1,0.2c-0.2,0-0.5-0.1-0.7-0.1c-0.3-0.1-0.5-0.1-0.8,0.1c-0.3,0.2-0.2,0.5-0.1,0.7c0.2,0.3,0.4,0.4,0.5,0.7
				c0.1,0.3-0.2,0.5-0.4,0.7c-0.2,0.1-0.7,0-1,0c-0.4,0-0.7,0.2-1,0.4c-0.1,0.1-0.2,0.6-0.3,0.8c0,0.1,0,0.1,0,0.2
				c-0.1,0.4,0,0.6,0.2,0.9c0.1,0.2,0.3,0.5,0.4,0.7c0.1,0.3,0.2,0.5,0.1,0.8c-0.1,0.3-0.2,0.5-0.2,0.7c0,0.2,0.2,0.7,0.3,0.8
				c0.1,0.4,0,0.4-0.2,0.7c-0.2,0.2-0.6,0.3-0.8,0.4c-0.2,0.1-0.7,0-0.9-0.1c-0.3-0.1-0.5,0.1-0.7,0.2c-0.3,0.2-0.3,0.3-0.6,0
				c-0.3-0.3-0.5-0.7-0.6-1.1c0-0.1,0-0.1,0-0.2c-0.1-0.3,0-0.6,0-0.9c0-0.3,0.1-0.5,0.1-0.8c0-0.3-0.8,0.3-1,0.4
				c-0.1,0-0.2,0.1-0.3,0.1c-0.4,0.2-0.4,0.5-0.4,0.9c0,0.3,0.2,0.6,0.2,1c0,0.3-0.4,0.4-0.7,0.4c-0.4,0-0.6-0.5-0.8-0.7
				c-0.3-0.3-0.7-0.5-0.8-0.8c-0.2-0.4-0.3-0.7,0.2-1c0.3-0.2,0.6-0.2,0.8-0.5c0.2-0.3,0.5-0.6,0-0.8c-0.3-0.1-0.5-0.2-0.8-0.1
				c-0.1,0-0.1,0-0.2,0c-0.7,0.1-0.7,0.1-1.3-0.2c-0.4-0.2-0.6-0.6-0.9-0.9c-0.3-0.3-0.5-0.7-0.6-1.1c-0.1-0.4-0.2-0.7-0.3-1
				c-0.1-0.3-0.1-0.6-0.1-0.9c0-0.3-0.1-0.6-0.1-0.9c0-0.3,0-0.7,0-1c0-0.3,0-0.6,0-1c0-0.3,0.1-0.6,0.1-0.9c0,0,0-0.1,0-0.1
				c0-0.3,0.2-0.7,0.3-1c0.1-0.3,0.3-0.5,0.4-0.8c0.1-0.3,0.3-0.5,0.4-0.7c0.2-0.3,0.4-0.5,0.6-0.8c0.3-0.4,0.7-0.8,1.1-1.2
				c0.2-0.2,0.4-0.5,0.6-0.8c0.3-0.3,0.7-0.5,1-0.8c0.3-0.2,0.5-0.4,0.7-0.7c0.1-0.2,0.2-0.5,0.4-0.7
				C323.6-456.1,323.8-456.2,323.9-456.2z"/>
			<path id="path5361_1_" class="st10" d="M327.6-443.9c0,0.4-0.3,0.7-0.7,0.7s-0.7-0.3-0.7-0.7l0,0c0-0.4,0.3-0.7,0.7-0.7
				S327.6-444.3,327.6-443.9z"/>
			<path id="path5363_1_" class="st11" d="M321.1-449.3c0,0.2-0.2,0.4-0.4,0.4s-0.4-0.2-0.4-0.4l0,0c0-0.2,0.2-0.4,0.4-0.4
				S321.1-449.5,321.1-449.3z"/>
			<path id="path5365_1_" class="st12" d="M337.4-444.7c0,0.4-0.3,0.7-0.7,0.7s-0.7-0.3-0.7-0.7l0,0c0-0.4,0.3-0.7,0.7-0.7
				S337.4-445.1,337.4-444.7z"/>
			<path id="path5367_1_" class="st13" d="M332.3-434.5c0,0.4-0.3,0.7-0.7,0.7s-0.7-0.3-0.7-0.7l0,0c0-0.4,0.3-0.7,0.7-0.7
				S332.3-434.9,332.3-434.5z"/>
			<path id="path5369_1_" class="st10" d="M336.5-444.5c0,0.2-0.2,0.4-0.4,0.4s-0.4-0.2-0.4-0.4l0,0c0-0.2,0.2-0.4,0.4-0.4
				S336.5-444.8,336.5-444.5z"/>
			<path id="path5371_1_" class="st10" d="M328.2-434c0,0.2-0.2,0.4-0.4,0.4s-0.4-0.2-0.4-0.4l0,0c0-0.2,0.2-0.4,0.4-0.4
				S328.2-434.2,328.2-434z"/>
			<path id="path5373_1_" class="st10" d="M334.8-438.6c0,0.2-0.2,0.4-0.4,0.4s-0.4-0.2-0.4-0.4l0,0c0-0.2,0.2-0.4,0.4-0.4
				S334.8-438.9,334.8-438.6z"/>
			<path id="path5375_1_" class="st10" d="M340-450.1c0,0.2-0.2,0.4-0.4,0.4s-0.4-0.2-0.4-0.4l0,0c0-0.2,0.2-0.4,0.4-0.4
				S340-450.3,340-450.1z"/>
			<path id="path5377_1_" class="st10" d="M337-449.3c0,0.2-0.2,0.4-0.4,0.4s-0.4-0.2-0.4-0.4l0,0c0-0.2,0.2-0.4,0.4-0.4
				S337-449.5,337-449.3z"/>
			<path id="path5379_1_" class="st10" d="M338.2-453.7c0,0.2-0.2,0.4-0.4,0.4s-0.4-0.2-0.4-0.4l0,0c0-0.2,0.2-0.4,0.4-0.4
				S338.2-454,338.2-453.7z"/>
			<path id="path5381_1_" class="st10" d="M329.3-440.5c0,0.2-0.2,0.4-0.4,0.4s-0.4-0.2-0.4-0.4l0,0c0-0.2,0.2-0.4,0.4-0.4
				S329.3-440.7,329.3-440.5z"/>
			<path id="path5383_1_" class="st14" d="M328.3-435.9c0.2-0.1,0.8-0.7,1.2-1c0.1-0.1,0.1-0.1,0.2-0.2c0.4-0.3,0.7-0.8,1-1.3
				c0.5-0.7,0.7-1.3,0.8-2c0.2-1,0.2-0.3,0,0.3c0,0.1,0,0.2-0.1,0.3c-0.1,0.4-0.1,0.8-0.3,1.2c-0.2,0.5-0.6,1-0.7,1.5
				c-0.1,0.3-0.2,0.6-0.1,0.9c0.1,0.3,0.5-0.3,0.8-0.4c0.4-0.1,0.5-0.2,0.5,0.2c0,0.3-0.1,0.6-0.2,0.9c-0.1,0.4,1.2,0.1,1.5,0
				c0.9-0.2,1.6-0.5,2.3-1.2c0.8-0.7,1.5-1.4,2.3-2.2c0.6-0.6,0.9-1,0.5,0c0,0.1-0.1,0.2-0.1,0.3c0,0.1-0.1,0.2-0.1,0.3
				c-0.2,0.5-0.6,1.1-1.1,1.5c-0.8,0.5-1.3,1.4-2.1,1.9c-0.3,0.2-0.7,0.2-1,0.4c-0.3,0.2,0.7,0.3,0.9,0.3c1.9,0.4-1.5,0.6-1.9,0.6
				c-0.7,0-1-0.1-1.6,0.2c-0.2,0.1,0.9,0.5,0.9,0.5c0.4,0.1,0.8,0.4,1.3,0.4c0.8,0-1.6,0.2-2.3,0.1c-0.6-0.1-1.1-0.3-1.7-0.4
				c-0.3-0.1-0.6,0-0.9,0c-0.1,0,0,0.8,0,0.8c0,0.5-0.1,1-0.4,0.2c-0.1-0.4-0.4-0.9-0.4-1.3c0-0.3-0.4,0.4-0.6,0.7
				c-0.2,0.3-0.7,0.8-0.8,0.8c0,0,0.2-0.5,0.3-0.9c0.1-0.3,0.5-1,0.2-1.1c-0.3-0.1-0.7,0-1-0.1c-0.4-0.1-0.9-0.2-1.3-0.4
				c-0.8-0.4-2-0.7-2.8-0.9c-0.1,0-1.3-1.4-0.1-0.2c0.8,0.8,2,1.3,3.1,1.3c0.4,0,0.9-0.1,1.2-0.2c0.2,0,0.5-0.3,0.7-0.4
				c0.2-0.1-0.4-0.3-0.6-0.5c-0.1-0.1-0.1-0.1-0.2-0.2c-0.7-0.8-0.9-1.9-1.7-2.6c-0.1-0.1-1.9-2.2-1.1-1.5c0.9,0.7,1.7,1.4,2.4,2.2
				c0.4,0.4,0.7,1,1.1,1.5c0.4,0.5,0.3-0.1,0.2-0.4c-0.2-0.7-0.1-1.6-0.1-2.3c0-0.9,0.5,0.9,0.5,1.1c0.1,0.5,0.4,1,0.7,0.6
				c0.4-0.5,0.4-0.6,0.4,0c0,0,0,0.1,0,0.1C328.3-436.4,328.3-436.2,328.3-435.9z"/>
			<g id="g5385_1_" transform="translate(461.6971,-517.2066)" class="st15">
				<path id="path5387_1_" class="st16" d="M-125.9,68.4c0,0.9-0.8,1.7-1.8,1.7c-1,0-1.8-0.8-1.8-1.7s0.8-1.7,1.8-1.7
					C-126.7,66.7-125.9,67.5-125.9,68.4z"/>
				<path id="path5389_1_" class="st16" d="M-123.9,72.4c0,0.9-0.8,1.7-1.8,1.7s-1.8-0.8-1.8-1.7c0-0.9,0.8-1.7,1.8-1.7
					S-123.9,71.5-123.9,72.4z"/>
				<path id="path5391_1_" class="st16" d="M-122,72.3c0,0.6-0.5,1.1-1.1,1.1c-0.6,0-1.1-0.5-1.1-1.1s0.5-1.1,1.1-1.1
					C-122.5,71.2-122,71.7-122,72.3z"/>
				<path id="path5393_1_" class="st16" d="M-131.8,66.8c0,1.4-1.2,2.6-2.7,2.6c-1.5,0-2.7-1.2-2.7-2.6s1.2-2.6,2.7-2.6
					C-133,64.2-131.8,65.4-131.8,66.8z"/>
				<path id="path5395_1_" class="st16" d="M-137.1,73c0,1.7-1.4,3-3.2,3s-3.2-1.4-3.2-3s1.4-3,3.2-3S-137.1,71.3-137.1,73z"/>
				<path id="path5397_1_" class="st16" d="M-133.6,75.8c0,1.3-1.1,2.4-2.5,2.4s-2.5-1.1-2.5-2.4c0-1.3,1.1-2.4,2.5-2.4
					S-133.6,74.5-133.6,75.8z"/>
				<path id="path5399_1_" class="st16" d="M-135.2,69.2c0,1.3-1.1,2.4-2.5,2.4s-2.5-1.1-2.5-2.4s1.1-2.4,2.5-2.4
					S-135.2,67.9-135.2,69.2z"/>
			</g>
			<path id="path5401_1_" class="st17" d="M329.1-434.7c0,0.4-0.3,0.7-0.7,0.7s-0.7-0.3-0.7-0.7s0.3-0.7,0.7-0.7
				S329.1-435.1,329.1-434.7z"/>
		</g>
		<path id="path9201_1_" class="st18" d="M380.5-446c0,7.5-6.1,13.5-13.5,13.5c-7.5,0-13.5-6.1-13.5-13.5l0,0
			c0-7.5,6.1-13.5,13.5-13.5C374.5-459.5,380.5-453.5,380.5-446L380.5-446z"/>
		<path id="path9203_1_" class="st19" d="M374.4-456.1c5.6,4.1,6.8,11.9,2.7,17.5c-4.1,5.6-11.9,6.8-17.5,2.7s-6.8-11.9-2.7-17.5
			C361-459,368.8-460.2,374.4-456.1z"/>
	</g>
	<g id="g6956_1_" transform="translate(-249.0000,467.8749)">
		<path id="path6958_1_" class="st20" d="M280.5-442.5c-1.6,0-2.9,1.1-3.4,2.6c-0.5-0.3-1-0.4-1.6-0.4c-2,0-3.6,1.6-3.6,3.6
			c0,0.4,0.1,0.8,0.2,1.2c-1,0.6-1.7,1.6-1.7,2.8c0,1.8,1.4,3.2,3.2,3.2c0.1,0,13.4,0,13.6,0c1.8,0,3.2-1.4,3.2-3.2
			c0-1.2-0.7-2.2-1.7-2.8c0.1-0.4,0.2-0.7,0.2-1.2c0-2-1.6-3.6-3.6-3.6c-0.6,0-1.1,0.2-1.6,0.4C283.4-441.4,282.1-442.5,280.5-442.5
			z"/>
		
			<linearGradient id="path6960_2_" gradientUnits="userSpaceOnUse" x1="522.5106" y1="21.1101" x2="532.5155" y2="14.623" gradientTransform="matrix(1 0 0 -1 -249 -417.8749)">
			<stop  offset="0" style="stop-color:#FFFFFF"/>
			<stop  offset="1" style="stop-color:#FFFFFF;stop-opacity:0"/>
		</linearGradient>
		<path id="path6960_1_" class="st21" d="M280.5-442.1c-1.6,0-2.7,1-3.1,2.7c-0.5-0.2-1.1-0.6-1.7-0.6c-1.9,0-3.4,1.4-3.4,3.2
			c0,0.4,0.2,1,0.3,1.3c-0.9,0.5-1.7,1.4-1.7,2.4c0,1.7,1.1,3,3.1,3c0.1,0,13,0,13.1,0c2,0,3.1-1.4,3.1-3c0-1.1-0.8-1.9-1.7-2.4
			c0.1-0.3,0.3-0.9,0.3-1.3c0-1.9-1.5-3.3-3.4-3.3c-0.6,0-1.2,0.3-1.7,0.6C283.2-441.1,282.1-442.1,280.5-442.1z"/>
		<g id="g6962_1_">
			<path id="path6964_1_" class="st22" d="M283-438.9c0,1.4-1.1,2.5-2.5,2.5s-2.5-1.1-2.5-2.5s1.1-2.5,2.5-2.5S283-440.3,283-438.9
				L283-438.9z"/>
			
				<linearGradient id="path6966_2_" gradientUnits="userSpaceOnUse" x1="530.988" y1="25.1304" x2="532.5302" y2="22.6798" gradientTransform="matrix(1.0566 0 0 -1.0566 -281.4624 -413.8348)">
				<stop  offset="0" style="stop-color:#FFFFFF"/>
				<stop  offset="1" style="stop-color:#FFFFFF;stop-opacity:0"/>
			</linearGradient>
			<path id="path6966_1_" class="st23" d="M283-438.9c0,1.4-1.1,2.5-2.5,2.5s-2.5-1.1-2.5-2.5s1.1-2.5,2.5-2.5S283-440.3,283-438.9
				L283-438.9z"/>
		</g>
		<rect id="rect6968_1_" x="273.7" y="-437.1" class="st22" width="14.3" height="6.4"/>
		<path id="path6970_1_" class="st22" d="M275.9-432.9c0,1.2-1,2.1-2.1,2.1s-2.1-1-2.1-2.1s1-2.1,2.1-2.1S275.9-434,275.9-432.9
			L275.9-432.9z"/>
		<g id="g6972_1_">
			<path id="path6974_1_" class="st22" d="M288-436.8c0,1.4-1.1,2.5-2.5,2.5s-2.5-1.1-2.5-2.5s1.1-2.5,2.5-2.5S288-438.2,288-436.8
				L288-436.8z"/>
			
				<linearGradient id="path6976_2_" gradientUnits="userSpaceOnUse" x1="528.3631" y1="27.0261" x2="530.7503" y2="23.3502" gradientTransform="matrix(1.0566 0 0 -1.0566 -274.4624 -410.8348)">
				<stop  offset="0" style="stop-color:#FFFFFF"/>
				<stop  offset="1" style="stop-color:#FFFFFF;stop-opacity:0"/>
			</linearGradient>
			<path id="path6976_1_" class="st24" d="M288-436.8c0,1.4-1.1,2.5-2.5,2.5s-2.5-1.1-2.5-2.5c0-1.4,1.1-2.5,2.5-2.5
				S288-438.2,288-436.8L288-436.8z"/>
		</g>
		<g id="g6978_1_">
			<path id="path6980_1_" class="st22" d="M278-436.8c0,1.4-1.1,2.5-2.5,2.5s-2.5-1.1-2.5-2.5c0-1.4,1.1-2.5,2.5-2.5
				S278-438.2,278-436.8L278-436.8z"/>
			
				<linearGradient id="path6982_2_" gradientUnits="userSpaceOnUse" x1="532.0544" y1="26.2787" x2="534.519" y2="23.7815" gradientTransform="matrix(1.0566 0 0 -1.0566 -288.4624 -410.8348)">
				<stop  offset="0" style="stop-color:#FFFFFF"/>
				<stop  offset="1" style="stop-color:#FFFFFF;stop-opacity:0"/>
			</linearGradient>
			<path id="path6982_1_" class="st25" d="M278-436.8c0,1.4-1.1,2.5-2.5,2.5s-2.5-1.1-2.5-2.5c0-1.4,1.1-2.5,2.5-2.5
				S278-438.2,278-436.8L278-436.8z"/>
		</g>
		<g id="g6984_1_" transform="translate(-1.000000,0.000000)">
			<path id="path6986_1_" class="st22" d="M280.8-439.3c-2.6,0-4.6,2.1-4.6,4.6c0,1.7,1,3.1,2.3,3.9h4.6c1.4-0.8,2.3-2.2,2.3-3.9
				C285.4-437.2,283.3-439.3,280.8-439.3z"/>
			
				<linearGradient id="path6988_2_" gradientUnits="userSpaceOnUse" x1="528.6776" y1="19.5214" x2="531.5587" y2="15.8166" gradientTransform="matrix(1 0 0 -1 -250 -417.8749)">
				<stop  offset="0" style="stop-color:#FFFFFF"/>
				<stop  offset="1" style="stop-color:#FFFFFF;stop-opacity:0"/>
			</linearGradient>
			<path id="path6988_1_" class="st26" d="M280.8-439.3c-2.6,0-4.6,2.1-4.6,4.6c0,1.7,1,3.1,2.3,3.9h4.6c1.4-0.8,2.3-2.2,2.3-3.9
				C285.4-437.2,283.3-439.3,280.8-439.3z"/>
		</g>
		
			<linearGradient id="path6990_2_" gradientUnits="userSpaceOnUse" x1="549.7529" y1="11.1438" x2="551.967" y2="9.1605" gradientTransform="matrix(0.9057 0 0 -0.9057 -225.3961 -423.8584)">
			<stop  offset="0" style="stop-color:#FFFFFF"/>
			<stop  offset="1" style="stop-color:#FFFFFF;stop-opacity:0"/>
		</linearGradient>
		<path id="path6990_1_" class="st27" d="M275.9-432.9c0,1.2-1,2.1-2.1,2.1c-1.2,0-2.1-1-2.1-2.1c0-1.2,1-2.1,2.1-2.1
			C274.9-435,275.9-434,275.9-432.9L275.9-432.9z"/>
		<path id="path6992_1_" class="st28" d="M289.4-436.7c0,1.9-2.3,2.7-2.3,2.7s1.7-1.2,1.7-2.6L289.4-436.7z"/>
		<g id="g6994_1_" transform="matrix(1.142857,0.000000,0.000000,1.142857,-28.57139,67.00008)">
			<path id="path6996_1_" class="st22" d="M275.1-438c0,1.4-1.1,2.5-2.5,2.5s-2.5-1.1-2.5-2.5s1.1-2.5,2.5-2.5
				S275.1-439.4,275.1-438L275.1-438z"/>
			
				<linearGradient id="path6998_2_" gradientUnits="userSpaceOnUse" x1="476.8173" y1="-23.1344" x2="479.744" y2="-26.2786" gradientTransform="matrix(1.2075 0 0 -1.2075 -305.776 -468.7523)">
				<stop  offset="0" style="stop-color:#FFFFFF"/>
				<stop  offset="1" style="stop-color:#FFFFFF;stop-opacity:0"/>
			</linearGradient>
			<path id="path6998_1_" class="st29" d="M275.1-438c0,1.4-1.1,2.5-2.5,2.5s-2.5-1.1-2.5-2.5s1.1-2.5,2.5-2.5
				S275.1-439.4,275.1-438L275.1-438z"/>
		</g>
	</g>
</g>
</svg>
