<?xml version="1.0" encoding="utf-8"?>
<!-- Generator: Adobe Illustrator 24.0.1, SVG Export Plug-In . SVG Version: 6.00 Build 0)  -->
<svg version="1.1"
	 id="svg1306" xmlns:cc="http://creativecommons.org/ns#" xmlns:dc="http://purl.org/dc/elements/1.1/" xmlns:inkscape="http://www.inkscape.org/namespaces/inkscape" xmlns:rdf="http://www.w3.org/1999/02/22-rdf-syntax-ns#" xmlns:sodipodi="http://sodipodi.sourceforge.net/DTD/sodipodi-0.dtd" xmlns:svg="http://www.w3.org/2000/svg"
	 xmlns="http://www.w3.org/2000/svg" xmlns:xlink="http://www.w3.org/1999/xlink" x="0px" y="0px" viewBox="0 0 48 48"
	 style="enable-background:new 0 0 48 48;" xml:space="preserve">
<style type="text/css">
	.st0{fill:#555753;}
	.st1{fill:url(#path8889_2_);}
	.st2{fill:#888A85;}
	.st3{opacity:0.4944;fill:url(#path8897_2_);enable-background:new    ;}
	.st4{opacity:0.4944;fill:url(#path8903_2_);enable-background:new    ;}
	.st5{opacity:0.4944;fill:url(#path8909_2_);enable-background:new    ;}
	.st6{opacity:0.4944;fill:url(#path8915_2_);enable-background:new    ;}
	.st7{fill:#888A85;stroke:#555753;stroke-width:0.9998;stroke-miterlimit:1.9993;}
	.st8{fill:url(#path12582_2_);}
	.st9{opacity:0.4778;fill:url(#path12586_2_);enable-background:new    ;}
	.st10{opacity:0.4778;fill:url(#path12595_2_);enable-background:new    ;}
	.st11{opacity:0.4778;fill:url(#path12599_2_);enable-background:new    ;}
	.st12{opacity:0.4778;fill:url(#path12603_2_);enable-background:new    ;}
	.st13{opacity:0.4778;fill:url(#path12605_2_);enable-background:new    ;}
	.st14{fill-rule:evenodd;clip-rule:evenodd;fill:#555753;}
	.st15{opacity:0.4778;fill:url(#path12611_2_);enable-background:new    ;}
	.st16{fill:url(#path12331_2_);}
	.st17{opacity:0.4778;fill:url(#path12335_2_);enable-background:new    ;}
	.st18{opacity:0.4778;fill:url(#path12343_2_);enable-background:new    ;}
	.st19{opacity:0.4778;fill:url(#path12349_2_);enable-background:new    ;}
	.st20{opacity:0.4778;fill:url(#path12353_2_);enable-background:new    ;}
	.st21{opacity:0.4778;fill:url(#path12355_2_);enable-background:new    ;}
	.st22{opacity:0.4778;fill:url(#path12361_2_);enable-background:new    ;}
	.st23{fill:#FFFFFF;stroke:#729FCF;stroke-width:1;stroke-miterlimit:10;}
	.st24{fill:#FFFFFF;stroke:#729FCF;stroke-width:1.4748;stroke-miterlimit:1;}
	.st25{fill:#FFFFFF;stroke:#729FCF;stroke-width:1.4678;stroke-miterlimit:1;}
	.st26{fill:#FFFFFF;stroke:#729FCF;stroke-width:0.8992;stroke-miterlimit:1;}
	.st27{fill:#FFFFFF;stroke:#729FCF;stroke-width:0.9182;stroke-miterlimit:1;}
	.st28{fill:#FFFFFF;stroke:#729FCF;stroke-width:1.4641;stroke-miterlimit:1;}
</style>
<g id="layer1_26_">
	<g id="g12627_1_" transform="matrix(0.999675,0.000000,0.000000,1.000000,-286.8482,245.0001)">
		<g id="g12533_1_">
			<path id="path8887_1_" class="st0" d="M311.4-243c-2.8,0-5.1,1.6-6.4,3.8c-0.9-0.5-2-0.8-3.1-0.8c-3.9,0-7,3.1-7,7s3.1,7,7,7
				c2.4,0,4.4-1.3,5.7-3.2c1.1,0.7,2.4,1.2,3.8,1.2c0.9,0,1.8-0.2,2.6-0.5c0.5,0.9,1.2,1.6,2,2.2c0,0.1-0.1,0.2-0.1,0.4
				c0,3.9,3.1,7,7,7s7-3.1,7-7c0-2.4-1.3-4.4-3.1-5.6c0-0.1,0.1-0.2,0.1-0.4c0-3.9-3.1-7-7-7c-0.6,0-1.2,0.2-1.8,0.4
				C317-241.2,314.4-243,311.4-243z"/>
			
				<linearGradient id="path8889_2_" gradientUnits="userSpaceOnUse" x1="515.4534" y1="197.2191" x2="553.3148" y2="184.1819" gradientTransform="matrix(0.9997 0 0 -1 -217.8817 -40.0001)">
				<stop  offset="0" style="stop-color:#FFFFFF"/>
				<stop  offset="1" style="stop-color:#FFFFFF;stop-opacity:0"/>
			</linearGradient>
			<path id="path8889_1_" class="st1" d="M311.4-242c-2.8,0-5.1,1.8-6.1,4.2c-1-0.7-2.1-1.2-3.4-1.2c-3.3,0-6,2.7-6,6
				c0,3.3,2.7,6,6,6c2.4,0,4.5-1.5,5.4-3.5c1.1,0.9,2.5,1.5,4.1,1.5c1.1,0,2-0.3,2.9-0.8c0.4,1,1.1,1.8,1.9,2.4
				c-0.2,0.6-0.4,1.2-0.4,1.8c0,3.6,2.9,6.5,6.5,6.5s6.5-2.9,6.5-6.5c0-2.4-1.3-4.3-3.2-5.5c0.1-0.3,0.2-0.7,0.2-1c0-3.3-2.7-6-6-6
				c-0.9,0-1.7,0.2-2.4,0.5C316.7-240.1,314.3-242,311.4-242z"/>
			<path id="path8891_1_" class="st2" d="M328.9-225.5c0,3.6-2.9,6.5-6.5,6.5s-6.5-2.9-6.5-6.5c0,0,0,0,0,0c0-3.6,2.9-6.5,6.5-6.5
				C326-232,328.9-229.1,328.9-225.5C328.9-225.5,328.9-225.5,328.9-225.5z"/>
			<g id="g12520_1_">
				<path id="path8895_1_" class="st2" d="M316.9-235.5c0,3-2.5,5.5-5.5,5.5s-5.5-2.5-5.5-5.5s2.5-5.5,5.5-5.5
					S316.9-238.5,316.9-235.5z"/>
				
					<linearGradient id="path8897_2_" gradientUnits="userSpaceOnUse" x1="540.3445" y1="184.2247" x2="546.0978" y2="179.3678" gradientTransform="matrix(0.8823 0 0 -0.8826 -169.1227 -76.093)">
					<stop  offset="0" style="stop-color:#FFFFFF"/>
					<stop  offset="1" style="stop-color:#FFFFFF;stop-opacity:0"/>
				</linearGradient>
				<path id="path8897_1_" class="st3" d="M316.9-235.5c0,3-2.5,5.5-5.5,5.5s-5.5-2.5-5.5-5.5s2.5-5.5,5.5-5.5
					S316.9-238.5,316.9-235.5z"/>
			</g>
			<g id="g12516_1_">
				<path id="path8901_1_" class="st2" d="M324.9-231.5c0,3-2.5,5.5-5.5,5.5c-3,0-5.5-2.5-5.5-5.5l0,0c0-3,2.5-5.5,5.5-5.5
					C322.5-237,324.9-234.5,324.9-231.5z"/>
				
					<linearGradient id="path8903_2_" gradientUnits="userSpaceOnUse" x1="543.1785" y1="185.8214" x2="549.136" y2="179.8592" gradientTransform="matrix(0.9114 0 0 -0.9117 -180.199 -66.6455)">
					<stop  offset="0" style="stop-color:#FFFFFF"/>
					<stop  offset="1" style="stop-color:#FFFFFF;stop-opacity:0"/>
				</linearGradient>
				<path id="path8903_1_" class="st4" d="M324.9-231.5c0,3-2.5,5.5-5.5,5.5c-3,0-5.5-2.5-5.5-5.5l0,0c0-3,2.5-5.5,5.5-5.5
					C322.5-237,324.9-234.5,324.9-231.5z"/>
			</g>
			<g id="g12524_1_">
				<path id="path8907_1_" class="st2" d="M306.9-233c0,2.8-2.2,5-5,5c-2.8,0-5-2.2-5-5c0-2.8,2.2-5,5-5S306.9-235.8,306.9-233
					L306.9-233z"/>
				
					<linearGradient id="path8909_2_" gradientUnits="userSpaceOnUse" x1="504.7338" y1="207.991" x2="509.1143" y2="204.5105" gradientTransform="matrix(1.1424 0 0 -1.1428 -277.9027 2.1394)">
					<stop  offset="0" style="stop-color:#FFFFFF"/>
					<stop  offset="1" style="stop-color:#FFFFFF;stop-opacity:0"/>
				</linearGradient>
				<path id="path8909_1_" class="st5" d="M306.9-233c0,2.8-2.2,5-5,5c-2.8,0-5-2.2-5-5c0-2.8,2.2-5,5-5S306.9-235.8,306.9-233
					L306.9-233z"/>
			</g>
			<g id="g12529_1_">
				<path id="path8913_1_" class="st2" d="M317.9-229c0,3.9-3.1,7-7,7c-3.9,0-7-3.1-7-7c0,0,0,0,0,0c0-3.9,3.1-7,7-7
					C314.8-236,317.9-232.9,317.9-229C317.9-229,317.9-229,317.9-229z"/>
				
					<linearGradient id="path8915_2_" gradientUnits="userSpaceOnUse" x1="520.2362" y1="196.098" x2="527.886" y2="190.2686" gradientTransform="matrix(1.0383 0 0 -1.0386 -234.1358 -29.0647)">
					<stop  offset="0" style="stop-color:#FFFFFF"/>
					<stop  offset="1" style="stop-color:#FFFFFF;stop-opacity:0"/>
				</linearGradient>
				<path id="path8915_1_" class="st6" d="M317.9-229c0,3.9-3.1,7-7,7c-3.9,0-7-3.1-7-7c0,0,0,0,0,0c0-3.9,3.1-7,7-7
					C314.8-236,317.9-232.9,317.9-229C317.9-229,317.9-229,317.9-229z"/>
			</g>
		</g>
		<g id="g12578_1_" transform="translate(72.00007,7.999930)">
			<path id="path12580_1_" class="st7" d="M246.4-238.5c-2.3,0-4.1,1.6-4.7,3.6c-0.7-0.4-1.4-0.6-2.3-0.6c-2.8,0-5,2.2-5,5
				c0,0.6,0.2,1.1,0.3,1.6c-1.4,0.8-2.3,2.2-2.3,3.9c0,2.5,2,4.5,4.5,4.5c0.2,0,18.8,0,19,0c2.5,0,4.5-2,4.5-4.5
				c0-1.7-1-3.1-2.3-3.9c0.2-0.5,0.3-1,0.3-1.6c0-2.8-2.2-5-5-5c-0.8,0-1.6,0.3-2.3,0.6C250.5-236.9,248.7-238.5,246.4-238.5z"/>
			
				<linearGradient id="path12582_2_" gradientUnits="userSpaceOnUse" x1="485.7094" y1="237.5788" x2="499.7163" y2="228.4969" gradientTransform="matrix(0.9997 0 0 -1 -248.9051 4.0001)">
				<stop  offset="0" style="stop-color:#FFFFFF"/>
				<stop  offset="1" style="stop-color:#FFFFFF;stop-opacity:0"/>
			</linearGradient>
			<path id="path12582_1_" class="st8" d="M246.4-238c-2.2,0-3.7,1.3-4.4,3.8c-0.7-0.3-1.5-0.8-2.4-0.8c-2.7,0-4.8,1.9-4.8,4.5
				c0,0.5,0.3,1.3,0.4,1.8c-1.3,0.7-2.4,1.9-2.4,3.4c0,2.3,1.5,4.3,4.3,4.3c0.2,0,18.2,0,18.3,0c2.8,0,4.3-1.9,4.3-4.3
				c0-1.6-1.1-2.7-2.4-3.4c0.2-0.5,0.5-1.3,0.5-1.8c0-2.6-2.1-4.6-4.8-4.6c-0.8,0-1.6,0.5-2.3,0.8C250.2-236.6,248.6-238,246.4-238z
				"/>
			<path id="path12584_1_" class="st2" d="M249.9-233.5c0,1.9-1.6,3.5-3.5,3.5c-1.9,0-3.5-1.6-3.5-3.5c0-1.9,1.6-3.5,3.5-3.5
				C248.4-237,249.9-235.4,249.9-233.5L249.9-233.5z"/>
			
				<linearGradient id="path12586_2_" gradientUnits="userSpaceOnUse" x1="496.6404" y1="242.0448" x2="498.7994" y2="238.614" gradientTransform="matrix(1.0563 0 0 -1.0566 -279.4356 20.203)">
				<stop  offset="0" style="stop-color:#FFFFFF"/>
				<stop  offset="1" style="stop-color:#FFFFFF;stop-opacity:0"/>
			</linearGradient>
			<path id="path12586_1_" class="st9" d="M249.9-233.5c0,1.9-1.6,3.5-3.5,3.5c-1.9,0-3.5-1.6-3.5-3.5c0-1.9,1.6-3.5,3.5-3.5
				C248.4-237,249.9-235.4,249.9-233.5L249.9-233.5z"/>
			<rect id="rect12588_1_" x="236.9" y="-231" class="st2" width="20" height="9"/>
			<path id="path12591_1_" class="st2" d="M239.9-225c0,1.7-1.3,3-3,3s-3-1.3-3-3s1.3-3,3-3S239.9-226.7,239.9-225L239.9-225z"/>
			<path id="path12593_1_" class="st2" d="M256.9-230.5c0,1.9-1.6,3.5-3.5,3.5c-1.9,0-3.5-1.6-3.5-3.5c0-1.9,1.6-3.5,3.5-3.5
				C255.4-234,256.9-232.4,256.9-230.5L256.9-230.5z"/>
			
				<linearGradient id="path12595_2_" gradientUnits="userSpaceOnUse" x1="495.6151" y1="243.563" x2="498.9572" y2="238.4168" gradientTransform="matrix(1.0563 0 0 -1.0566 -272.4356 23.203)">
				<stop  offset="0" style="stop-color:#FFFFFF"/>
				<stop  offset="1" style="stop-color:#FFFFFF;stop-opacity:0"/>
			</linearGradient>
			<path id="path12595_1_" class="st10" d="M256.9-230.5c0,1.9-1.6,3.5-3.5,3.5c-1.9,0-3.5-1.6-3.5-3.5c0-1.9,1.6-3.5,3.5-3.5
				C255.4-234,256.9-232.4,256.9-230.5L256.9-230.5z"/>
			<path id="path12597_1_" class="st2" d="M242.9-230.5c0,1.9-1.6,3.5-3.5,3.5c-1.9,0-3.5-1.6-3.5-3.5c0-1.9,1.6-3.5,3.5-3.5
				C241.4-234,242.9-232.4,242.9-230.5L242.9-230.5z"/>
			
				<linearGradient id="path12599_2_" gradientUnits="userSpaceOnUse" x1="495.483" y1="242.5166" x2="498.9333" y2="239.0206" gradientTransform="matrix(1.0563 0 0 -1.0566 -286.4356 23.203)">
				<stop  offset="0" style="stop-color:#FFFFFF"/>
				<stop  offset="1" style="stop-color:#FFFFFF;stop-opacity:0"/>
			</linearGradient>
			<path id="path12599_1_" class="st11" d="M242.9-230.5c0,1.9-1.6,3.5-3.5,3.5c-1.9,0-3.5-1.6-3.5-3.5c0-1.9,1.6-3.5,3.5-3.5
				C241.4-234,242.9-232.4,242.9-230.5L242.9-230.5z"/>
			<path id="path12601_1_" class="st2" d="M245.4-234c-3.6,0-6.5,2.9-6.5,6.5c0,2.4,1.3,4.3,3.3,5.5h6.5c1.9-1.1,3.3-3.1,3.3-5.5
				C251.9-231.1,249-234,245.4-234z"/>
			
				<linearGradient id="path12603_2_" gradientUnits="userSpaceOnUse" x1="492.5454" y1="235.3547" x2="496.579" y2="230.168" gradientTransform="matrix(0.9997 0 0 -1 -249.9051 4.0001)">
				<stop  offset="0" style="stop-color:#FFFFFF"/>
				<stop  offset="1" style="stop-color:#FFFFFF;stop-opacity:0"/>
			</linearGradient>
			<path id="path12603_1_" class="st12" d="M245.4-234c-3.6,0-6.5,2.9-6.5,6.5c0,2.4,1.3,4.4,3.3,5.5h6.5c1.9-1.1,3.3-3.1,3.3-5.5
				C251.9-231.1,249-234,245.4-234z"/>
			
				<linearGradient id="path12605_2_" gradientUnits="userSpaceOnUse" x1="512.2161" y1="225.5552" x2="515.3158" y2="222.7787" gradientTransform="matrix(0.9054 0 0 -0.9057 -228.5208 -22.2547)">
				<stop  offset="0" style="stop-color:#FFFFFF"/>
				<stop  offset="1" style="stop-color:#FFFFFF;stop-opacity:0"/>
			</linearGradient>
			<path id="path12605_1_" class="st13" d="M239.9-225c0,1.7-1.3,3-3,3c-1.7,0-3-1.3-3-3s1.3-3,3-3C238.6-228,239.9-226.7,239.9-225
				L239.9-225z"/>
			<path id="path12607_1_" class="st14" d="M258.9-230.3c0,2.7-3.3,3.7-3.3,3.7s2.3-1.6,2.3-3.7L258.9-230.3z"/>
			<path id="path12609_1_" class="st2" d="M253.9-226c0,2.2-1.8,4-4,4c-2.2,0-4-1.8-4-4c0-2.2,1.8-4,4-4
				C252.1-230,253.9-228.2,253.9-226L253.9-226z"/>
			
				<linearGradient id="path12611_2_" gradientUnits="userSpaceOnUse" x1="482.1976" y1="256.0285" x2="486.295" y2="251.6266" gradientTransform="matrix(1.2072 0 0 -1.2075 -336.3501 78.6607)">
				<stop  offset="0" style="stop-color:#FFFFFF"/>
				<stop  offset="1" style="stop-color:#FFFFFF;stop-opacity:0"/>
			</linearGradient>
			<path id="path12611_1_" class="st15" d="M253.9-226c0,2.2-1.8,4-4,4c-2.2,0-4-1.8-4-4c0-2.2,1.8-4,4-4
				C252.1-230,253.9-228.2,253.9-226L253.9-226z"/>
		</g>
		<g id="g12393_1_" transform="translate(56.98577,3.983930)">
			<path id="path12329_1_" class="st7" d="M246.4-238.5c-2.3,0-4.1,1.6-4.7,3.6c-0.7-0.4-1.4-0.6-2.3-0.6c-2.8,0-5,2.2-5,5
				c0,0.6,0.2,1.1,0.3,1.6c-1.4,0.8-2.3,2.2-2.3,3.9c0,2.5,2,4.5,4.5,4.5c0.2,0,18.8,0,19,0c2.5,0,4.5-2,4.5-4.5
				c0-1.7-1-3.1-2.3-3.9c0.2-0.5,0.3-1,0.3-1.6c0-2.8-2.2-5-5-5c-0.8,0-1.6,0.3-2.3,0.6C250.5-236.9,248.7-238.5,246.4-238.5z"/>
			
				<linearGradient id="path12331_2_" gradientUnits="userSpaceOnUse" x1="500.7237" y1="241.5948" x2="514.7306" y2="232.5129" gradientTransform="matrix(0.9997 0 0 -1 -263.9145 8.0161)">
				<stop  offset="0" style="stop-color:#FFFFFF"/>
				<stop  offset="1" style="stop-color:#FFFFFF;stop-opacity:0"/>
			</linearGradient>
			<path id="path12331_1_" class="st16" d="M246.4-238c-2.2,0-3.7,1.3-4.4,3.8c-0.7-0.3-1.5-0.8-2.4-0.8c-2.7,0-4.8,1.9-4.8,4.5
				c0,0.5,0.3,1.3,0.4,1.8c-1.3,0.7-2.4,1.9-2.4,3.4c0,2.3,1.5,4.3,4.3,4.3c0.2,0,18.2,0,18.3,0c2.8,0,4.3-1.9,4.3-4.3
				c0-1.6-1.1-2.7-2.4-3.4c0.2-0.5,0.5-1.3,0.5-1.8c0-2.6-2.1-4.6-4.8-4.6c-0.8,0-1.6,0.5-2.3,0.8C250.2-236.6,248.6-238,246.4-238z
				"/>
			<path id="path12333_1_" class="st2" d="M249.9-233.5c0,1.9-1.6,3.5-3.5,3.5c-1.9,0-3.5-1.6-3.5-3.5c0-1.9,1.6-3.5,3.5-3.5
				C248.4-237,249.9-235.4,249.9-233.5L249.9-233.5z"/>
			
				<linearGradient id="path12335_2_" gradientUnits="userSpaceOnUse" x1="511.6546" y1="246.0608" x2="513.8137" y2="242.63" gradientTransform="matrix(1.0563 0 0 -1.0566 -295.2946 24.4463)">
				<stop  offset="0" style="stop-color:#FFFFFF"/>
				<stop  offset="1" style="stop-color:#FFFFFF;stop-opacity:0"/>
			</linearGradient>
			<path id="path12335_1_" class="st17" d="M249.9-233.5c0,1.9-1.6,3.5-3.5,3.5c-1.9,0-3.5-1.6-3.5-3.5c0-1.9,1.6-3.5,3.5-3.5
				C248.4-237,249.9-235.4,249.9-233.5L249.9-233.5z"/>
			<rect id="rect12337_1_" x="236.9" y="-231" class="st2" width="20" height="9"/>
			<path id="path12339_1_" class="st2" d="M239.9-225c0,1.7-1.3,3-3,3s-3-1.3-3-3s1.3-3,3-3S239.9-226.7,239.9-225L239.9-225z"/>
			<path id="path12341_1_" class="st2" d="M256.9-230.5c0,1.9-1.6,3.5-3.5,3.5c-1.9,0-3.5-1.6-3.5-3.5c0-1.9,1.6-3.5,3.5-3.5
				C255.4-234,256.9-232.4,256.9-230.5L256.9-230.5z"/>
			
				<linearGradient id="path12343_2_" gradientUnits="userSpaceOnUse" x1="510.6295" y1="247.579" x2="513.9715" y2="242.4328" gradientTransform="matrix(1.0563 0 0 -1.0566 -288.2946 27.4463)">
				<stop  offset="0" style="stop-color:#FFFFFF"/>
				<stop  offset="1" style="stop-color:#FFFFFF;stop-opacity:0"/>
			</linearGradient>
			<path id="path12343_1_" class="st18" d="M256.9-230.5c0,1.9-1.6,3.5-3.5,3.5c-1.9,0-3.5-1.6-3.5-3.5c0-1.9,1.6-3.5,3.5-3.5
				C255.4-234,256.9-232.4,256.9-230.5L256.9-230.5z"/>
			<path id="path12347_1_" class="st2" d="M242.9-230.5c0,1.9-1.6,3.5-3.5,3.5c-1.9,0-3.5-1.6-3.5-3.5c0-1.9,1.6-3.5,3.5-3.5
				C241.4-234,242.9-232.4,242.9-230.5L242.9-230.5z"/>
			
				<linearGradient id="path12349_2_" gradientUnits="userSpaceOnUse" x1="510.4973" y1="246.5326" x2="513.9476" y2="243.0365" gradientTransform="matrix(1.0563 0 0 -1.0566 -302.2946 27.4463)">
				<stop  offset="0" style="stop-color:#FFFFFF"/>
				<stop  offset="1" style="stop-color:#FFFFFF;stop-opacity:0"/>
			</linearGradient>
			<path id="path12349_1_" class="st19" d="M242.9-230.5c0,1.9-1.6,3.5-3.5,3.5c-1.9,0-3.5-1.6-3.5-3.5c0-1.9,1.6-3.5,3.5-3.5
				C241.4-234,242.9-232.4,242.9-230.5L242.9-230.5z"/>
			<path id="path12351_1_" class="st2" d="M245.4-234c-3.6,0-6.5,2.9-6.5,6.5c0,2.4,1.3,4.3,3.3,5.5h6.5c1.9-1.1,3.3-3.1,3.3-5.5
				C251.9-231.1,249-234,245.4-234z"/>
			
				<linearGradient id="path12353_2_" gradientUnits="userSpaceOnUse" x1="507.5598" y1="239.3707" x2="511.5933" y2="234.184" gradientTransform="matrix(0.9997 0 0 -1 -264.9145 8.0161)">
				<stop  offset="0" style="stop-color:#FFFFFF"/>
				<stop  offset="1" style="stop-color:#FFFFFF;stop-opacity:0"/>
			</linearGradient>
			<path id="path12353_1_" class="st20" d="M245.4-234c-3.6,0-6.5,2.9-6.5,6.5c0,2.4,1.3,4.4,3.3,5.5h6.5c1.9-1.1,3.3-3.1,3.3-5.5
				C251.9-231.1,249-234,245.4-234z"/>
			
				<linearGradient id="path12355_2_" gradientUnits="userSpaceOnUse" x1="527.2303" y1="229.5712" x2="530.3301" y2="226.7947" gradientTransform="matrix(0.9054 0 0 -0.9057 -242.1143 -18.6176)">
				<stop  offset="0" style="stop-color:#FFFFFF"/>
				<stop  offset="1" style="stop-color:#FFFFFF;stop-opacity:0"/>
			</linearGradient>
			<path id="path12355_1_" class="st21" d="M239.9-225c0,1.7-1.3,3-3,3c-1.7,0-3-1.3-3-3s1.3-3,3-3C238.6-228,239.9-226.7,239.9-225
				L239.9-225z"/>
			<path id="path12357_1_" class="st14" d="M258.9-230.3c0,2.7-3.3,3.7-3.3,3.7s2.3-1.6,2.3-3.7L258.9-230.3z"/>
			<path id="path12359_1_" class="st2" d="M253.9-226c0,2.2-1.8,4-4,4c-2.2,0-4-1.8-4-4c0-2.2,1.8-4,4-4
				C252.1-230,253.9-228.2,253.9-226L253.9-226z"/>
			
				<linearGradient id="path12361_2_" gradientUnits="userSpaceOnUse" x1="497.2119" y1="260.0445" x2="501.3093" y2="255.6426" gradientTransform="matrix(1.2072 0 0 -1.2075 -354.4747 83.5102)">
				<stop  offset="0" style="stop-color:#FFFFFF"/>
				<stop  offset="1" style="stop-color:#FFFFFF;stop-opacity:0"/>
			</linearGradient>
			<path id="path12361_1_" class="st22" d="M253.9-226c0,2.2-1.8,4-4,4c-2.2,0-4-1.8-4-4c0-2.2,1.8-4,4-4
				C252.1-230,253.9-228.2,253.9-226L253.9-226z"/>
		</g>
	</g>
	<g id="g12157_3_" transform="translate(-163.0077,222.0147)">
		<path id="path12159_3_" class="st23" d="M173.5-190c0,0.8-0.7,1.5-1.5,1.5s-1.5-0.7-1.5-1.5s0.7-1.5,1.5-1.5
			S173.5-190.8,173.5-190z"/>
		<path id="path12161_3_" class="st23" d="M181.5-186.5c0,1.1-0.9,2-2,2s-2-0.9-2-2c0-1.1,0.9-2,2-2S181.5-187.6,181.5-186.5z"/>
		<path id="path12163_3_" class="st24" d="M174.5-182c0,0.8-0.7,1.5-1.5,1.5s-1.5-0.7-1.5-1.5s0.7-1.5,1.5-1.5
			S174.5-182.8,174.5-182z"/>
		<path id="path12165_3_" class="st25" d="M203.5-185c0,0.8-0.7,1.5-1.5,1.5c-0.8,0-1.5-0.7-1.5-1.5s0.7-1.5,1.5-1.5
			C202.8-186.5,203.5-185.8,203.5-185z"/>
		<path id="path12167_3_" class="st26" d="M192.4-189c0,1.4-1.1,2.5-2.4,2.5c-1.4,0-2.4-1.1-2.4-2.5s1.1-2.5,2.4-2.5
			C191.3-191.4,192.4-190.3,192.4-189z"/>
		<path id="path12169_3_" class="st27" d="M197.5-181.8c0,1.3-1.1,2.3-2.5,2.3s-2.5-1-2.5-2.3c0-1.3,1.1-2.3,2.5-2.3
			S197.5-183.1,197.5-181.8z"/>
		<path id="path12171_3_" class="st28" d="M186.5-181c0,0.8-0.7,1.5-1.5,1.5s-1.5-0.7-1.5-1.5c0-0.8,0.7-1.5,1.5-1.5
			S186.5-181.8,186.5-181z"/>
	</g>
</g>
</svg>
