<?xml version="1.0" encoding="utf-8"?>
<!-- Generator: Adobe Illustrator 24.0.1, SVG Export Plug-In . SVG Version: 6.00 Build 0)  -->
<svg version="1.1"
	 id="svg1306" xmlns:cc="http://creativecommons.org/ns#" xmlns:dc="http://purl.org/dc/elements/1.1/" xmlns:inkscape="http://www.inkscape.org/namespaces/inkscape" xmlns:rdf="http://www.w3.org/1999/02/22-rdf-syntax-ns#" xmlns:sodipodi="http://sodipodi.sourceforge.net/DTD/sodipodi-0.dtd" xmlns:svg="http://www.w3.org/2000/svg"
	 xmlns="http://www.w3.org/2000/svg" xmlns:xlink="http://www.w3.org/1999/xlink" x="0px" y="0px" viewBox="0 0 48 48"
	 style="enable-background:new 0 0 48 48;" xml:space="preserve">
<style type="text/css">
	.st0{fill:#888A85;}
	.st1{fill:url(#path8720_2_);}
	.st2{fill:#C4C5C2;}
	.st3{fill:url(#path8728_2_);}
	.st4{fill:url(#path8734_2_);}
	.st5{fill:url(#path8740_2_);}
	.st6{fill:url(#path8746_2_);}
	.st7{fill:url(#path8752_2_);}
	.st8{fill:#C4C5C2;stroke:#888A85;stroke-miterlimit:2;}
	.st9{fill:url(#path8802_2_);}
	.st10{fill:url(#path8808_2_);}
	.st11{fill:url(#path8818_2_);}
	.st12{fill:url(#path8824_2_);}
	.st13{fill:url(#path8830_2_);}
	.st14{fill:url(#path8832_2_);}
	.st15{fill-rule:evenodd;clip-rule:evenodd;fill:#888A85;}
	.st16{fill:url(#path8840_2_);}
	.st17{fill:url(#path8758_2_);}
	.st18{fill:url(#path8764_2_);}
	.st19{fill:url(#path8774_2_);}
	.st20{fill:url(#path8780_2_);}
	.st21{fill:url(#path8786_2_);}
	.st22{fill:url(#path8788_2_);}
	.st23{fill:url(#path8796_2_);}
	.st24{fill:#FFFFFF;stroke:#729FCF;stroke-width:1;stroke-miterlimit:10;}
	.st25{fill:#FFFFFF;stroke:#729FCF;stroke-width:1.4748;stroke-miterlimit:1;}
	.st26{fill:#FFFFFF;stroke:#729FCF;stroke-width:1.4678;stroke-miterlimit:1;}
	.st27{fill:#FFFFFF;stroke:#729FCF;stroke-width:1.4641;stroke-miterlimit:1;}
</style>
<g id="layer1_24_">
	<g id="g9947_1_" transform="translate(-340.0455,298.0001)">
		<path id="path8718_1_" class="st0" d="M364.5-296c-2.8,0-5.1,1.6-6.4,3.8c-0.9-0.5-2-0.8-3.1-0.8c-3.9,0-7,3.1-7,7s3.1,7,7,7
			c2.4,0,4.4-1.3,5.7-3.2c1.1,0.7,2.4,1.2,3.8,1.2c0.9,0,1.8-0.2,2.6-0.5c0.5,0.9,1.2,1.6,2,2.2c0,0.1-0.1,0.2-0.1,0.4
			c0,3.9,3.1,7,7,7c3.9,0,7-3.1,7-7c0-2.4-1.3-4.4-3.1-5.6c0-0.1,0.1-0.2,0.1-0.4c0-3.9-3.1-7-7-7c-0.6,0-1.2,0.2-1.8,0.4
			C370.1-294.2,367.5-296,364.5-296z"/>
		
			<linearGradient id="path8720_2_" gradientUnits="userSpaceOnUse" x1="568.4684" y1="144.0685" x2="618.8809" y2="127.1421" gradientTransform="matrix(1 0 0 -1 -218.0225 -146.0001)">
			<stop  offset="0" style="stop-color:#FFFFFF"/>
			<stop  offset="1" style="stop-color:#FFFFFF;stop-opacity:0"/>
		</linearGradient>
		<path id="path8720_1_" class="st1" d="M364.5-295c-2.8,0-5.1,1.8-6.1,4.2c-1-0.7-2.1-1.2-3.4-1.2c-3.3,0-6,2.7-6,6s2.7,6,6,6
			c2.4,0,4.5-1.5,5.4-3.5c1.1,0.9,2.5,1.5,4.1,1.5c1.1,0,2-0.3,2.9-0.8c0.4,1,1.1,1.8,1.9,2.4c-0.2,0.6-0.4,1.2-0.4,1.8
			c0,3.6,2.9,6.5,6.5,6.5c3.6,0,6.5-2.9,6.5-6.5c0-2.4-1.3-4.3-3.2-5.5c0.1-0.3,0.2-0.7,0.2-1c0-3.3-2.7-6-6-6
			c-0.9,0-1.7,0.2-2.4,0.5C369.8-293.1,367.4-295,364.5-295z"/>
		<path id="path8722_1_" class="st2" d="M382-278.5c0,3.6-2.9,6.5-6.5,6.5c-3.6,0-6.5-2.9-6.5-6.5c0,0,0,0,0,0
			c0-3.6,2.9-6.5,6.5-6.5S382-282.1,382-278.5C382-278.5,382-278.5,382-278.5z"/>
		<g id="g8724_1_" transform="translate(122.0230,102.0000)">
			<path id="path8726_1_" class="st2" d="M248-390.5c0,3-2.5,5.5-5.5,5.5c-3,0-5.5-2.5-5.5-5.5s2.5-5.5,5.5-5.5
				C245.5-396,248-393.5,248-390.5z"/>
			
				<linearGradient id="path8728_2_" gradientUnits="userSpaceOnUse" x1="471.3829" y1="29.2246" x2="477.1361" y2="24.3677" gradientTransform="matrix(0.8826 0 0 -0.8826 -177.3415 -367.9006)">
				<stop  offset="0" style="stop-color:#FFFFFF"/>
				<stop  offset="1" style="stop-color:#FFFFFF;stop-opacity:0"/>
			</linearGradient>
			<path id="path8728_1_" class="st3" d="M248-390.5c0,3-2.5,5.5-5.5,5.5c-3,0-5.5-2.5-5.5-5.5s2.5-5.5,5.5-5.5
				C245.5-396,248-393.5,248-390.5z"/>
		</g>
		<g id="g8730_1_" transform="translate(122.0230,102.0000)">
			<path id="path8732_1_" class="st2" d="M256-386.5c0,3-2.5,5.5-5.5,5.5c-3,0-5.5-2.5-5.5-5.5l0,0c0-3,2.5-5.5,5.5-5.5
				C253.5-392,256-389.5,256-386.5z"/>
			
				<linearGradient id="path8734_2_" gradientUnits="userSpaceOnUse" x1="474.2147" y1="30.8214" x2="480.1721" y2="24.8592" gradientTransform="matrix(0.9117 0 0 -0.9117 -186.4152 -362.9633)">
				<stop  offset="0" style="stop-color:#FFFFFF"/>
				<stop  offset="1" style="stop-color:#FFFFFF;stop-opacity:0"/>
			</linearGradient>
			<path id="path8734_1_" class="st4" d="M256-386.5c0,3-2.5,5.5-5.5,5.5c-3,0-5.5-2.5-5.5-5.5l0,0c0-3,2.5-5.5,5.5-5.5
				C253.5-392,256-389.5,256-386.5z"/>
		</g>
		<g id="g8736_1_" transform="translate(122.0230,102.0000)">
			<path id="path8738_1_" class="st2" d="M238-388c0,2.8-2.2,5-5,5c-2.8,0-5-2.2-5-5c0-2.8,2.2-5,5-5C235.8-393,238-390.8,238-388
				L238-388z"/>
			
				<linearGradient id="path8740_2_" gradientUnits="userSpaceOnUse" x1="435.7747" y1="52.9909" x2="440.1552" y2="49.5104" gradientTransform="matrix(1.1428 0 0 -1.1428 -268.2153 -329.9944)">
				<stop  offset="0" style="stop-color:#FFFFFF"/>
				<stop  offset="1" style="stop-color:#FFFFFF;stop-opacity:0"/>
			</linearGradient>
			<path id="path8740_1_" class="st5" d="M238-388c0,2.8-2.2,5-5,5c-2.8,0-5-2.2-5-5c0-2.8,2.2-5,5-5C235.8-393,238-390.8,238-388
				L238-388z"/>
		</g>
		<g id="g8742_1_" transform="translate(122.0230,102.0000)">
			<path id="path8744_1_" class="st2" d="M249-384c0,3.9-3.1,7-7,7c-3.9,0-7-3.1-7-7c0,0,0,0,0,0c0-3.9,3.1-7,7-7S249-387.9,249-384
				C249-384,249-384,249-384z"/>
			
				<linearGradient id="path8746_2_" gradientUnits="userSpaceOnUse" x1="451.2752" y1="41.098" x2="458.925" y2="35.2686" gradientTransform="matrix(1.0386 0 0 -1.0386 -231.6174 -345.0533)">
				<stop  offset="0" style="stop-color:#FFFFFF"/>
				<stop  offset="1" style="stop-color:#FFFFFF;stop-opacity:0"/>
			</linearGradient>
			<path id="path8746_1_" class="st6" d="M249-384c0,3.9-3.1,7-7,7c-3.9,0-7-3.1-7-7c0,0,0,0,0,0c0-3.9,3.1-7,7-7
				C245.9-391,249-387.9,249-384C249-384,249-384,249-384z"/>
		</g>
		<g id="g8748_1_" transform="matrix(0.935028,0.000000,0.000000,0.935028,499.8484,-187.6162)">
			<path id="path8750_1_" class="st2" d="M-153.2-98.4c0,3-2.4,5.4-5.4,5.4c-3,0-5.4-2.4-5.4-5.4s2.4-5.4,5.4-5.4
				C-155.6-103.8-153.2-101.4-153.2-98.4z"/>
			
				<linearGradient id="path8752_2_" gradientUnits="userSpaceOnUse" x1="-381.4944" y1="84.4404" x2="-378.3021" y2="80.4507" gradientTransform="matrix(1.6248 0 0 -1.6248 457.4189 33.9123)">
				<stop  offset="0" style="stop-color:#FFFFFF"/>
				<stop  offset="1" style="stop-color:#FFFFFF;stop-opacity:0"/>
			</linearGradient>
			<path id="path8752_1_" class="st7" d="M-153.1-98.4c0,3-2.4,5.4-5.4,5.4c-3,0-5.4-2.4-5.4-5.4s2.4-5.4,5.4-5.4
				C-155.6-103.9-153.1-101.4-153.1-98.4z"/>
		</g>
		<g id="g8798_1_" transform="translate(91.02300,162.0000)">
			<path id="path8800_1_" class="st8" d="M280.5-445.5c-2.3,0-4.1,1.6-4.7,3.6c-0.7-0.4-1.4-0.6-2.3-0.6c-2.8,0-5,2.2-5,5
				c0,0.6,0.2,1.1,0.3,1.6c-1.4,0.8-2.3,2.2-2.3,3.9c0,2.5,2,4.5,4.5,4.5c0.2,0,18.8,0,19,0c2.5,0,4.5-2,4.5-4.5
				c0-1.7-1-3.1-2.3-3.9c0.2-0.5,0.3-1,0.3-1.6c0-2.8-2.2-5-5-5c-0.8,0-1.6,0.3-2.3,0.6C284.6-443.9,282.8-445.5,280.5-445.5z"/>
			
				<linearGradient id="path8802_2_" gradientUnits="userSpaceOnUse" x1="519.7375" y1="30.5787" x2="533.7444" y2="21.4968" gradientTransform="matrix(1 0 0 -1 -249.0225 -410.0001)">
				<stop  offset="0" style="stop-color:#FFFFFF"/>
				<stop  offset="1" style="stop-color:#FFFFFF;stop-opacity:0"/>
			</linearGradient>
			<path id="path8802_1_" class="st9" d="M280.5-445c-2.2,0-3.7,1.3-4.4,3.8c-0.7-0.3-1.5-0.8-2.4-0.8c-2.7,0-4.8,1.9-4.8,4.5
				c0,0.5,0.3,1.3,0.4,1.8c-1.3,0.7-2.4,1.9-2.4,3.4c0,2.3,1.5,4.3,4.3,4.3c0.2,0,18.2,0,18.3,0c2.8,0,4.3-1.9,4.3-4.3
				c0-1.6-1.1-2.7-2.4-3.4c0.2-0.5,0.5-1.3,0.5-1.8c0-2.6-2.1-4.6-4.8-4.6c-0.8,0-1.6,0.5-2.3,0.8C284.3-443.6,282.7-445,280.5-445z
				"/>
			<g id="g8804_1_">
				<path id="path8806_1_" class="st2" d="M284-440.5c0,1.9-1.6,3.5-3.5,3.5s-3.5-1.6-3.5-3.5c0-1.9,1.6-3.5,3.5-3.5
					S284-442.4,284-440.5L284-440.5z"/>
				
					<linearGradient id="path8808_2_" gradientUnits="userSpaceOnUse" x1="530.663" y1="35.0448" x2="532.8221" y2="31.6139" gradientTransform="matrix(1.0566 0 0 -1.0566 -281.4861 -405.5142)">
					<stop  offset="0" style="stop-color:#FFFFFF"/>
					<stop  offset="1" style="stop-color:#FFFFFF;stop-opacity:0"/>
				</linearGradient>
				<path id="path8808_1_" class="st10" d="M284-440.5c0,1.9-1.6,3.5-3.5,3.5s-3.5-1.6-3.5-3.5c0-1.9,1.6-3.5,3.5-3.5
					S284-442.4,284-440.5L284-440.5z"/>
			</g>
			<rect id="rect8810_1_" x="271" y="-438" class="st2" width="20" height="9"/>
			<path id="path8812_1_" class="st2" d="M274-432c0,1.7-1.3,3-3,3c-1.7,0-3-1.3-3-3c0-1.7,1.3-3,3-3C272.7-435,274-433.7,274-432
				L274-432z"/>
			<g id="g8814_1_">
				<path id="path8816_1_" class="st2" d="M291-437.5c0,1.9-1.6,3.5-3.5,3.5c-1.9,0-3.5-1.6-3.5-3.5c0-1.9,1.6-3.5,3.5-3.5
					C289.4-441,291-439.4,291-437.5L291-437.5z"/>
				
					<linearGradient id="path8818_2_" gradientUnits="userSpaceOnUse" x1="529.6382" y1="36.563" x2="532.9803" y2="31.4167" gradientTransform="matrix(1.0566 0 0 -1.0566 -274.4861 -402.5142)">
					<stop  offset="0" style="stop-color:#FFFFFF"/>
					<stop  offset="1" style="stop-color:#FFFFFF;stop-opacity:0"/>
				</linearGradient>
				<path id="path8818_1_" class="st11" d="M291-437.5c0,1.9-1.6,3.5-3.5,3.5s-3.5-1.6-3.5-3.5c0-1.9,1.6-3.5,3.5-3.5
					S291-439.4,291-437.5L291-437.5z"/>
			</g>
			<g id="g8820_1_">
				<path id="path8822_1_" class="st2" d="M277-437.5c0,1.9-1.6,3.5-3.5,3.5s-3.5-1.6-3.5-3.5c0-1.9,1.6-3.5,3.5-3.5
					S277-439.4,277-437.5L277-437.5z"/>
				
					<linearGradient id="path8824_2_" gradientUnits="userSpaceOnUse" x1="529.506" y1="35.5166" x2="532.9564" y2="32.0205" gradientTransform="matrix(1.0566 0 0 -1.0566 -288.4861 -402.5142)">
					<stop  offset="0" style="stop-color:#FFFFFF"/>
					<stop  offset="1" style="stop-color:#FFFFFF;stop-opacity:0"/>
				</linearGradient>
				<path id="path8824_1_" class="st12" d="M277-437.5c0,1.9-1.6,3.5-3.5,3.5s-3.5-1.6-3.5-3.5c0-1.9,1.6-3.5,3.5-3.5
					S277-439.4,277-437.5L277-437.5z"/>
			</g>
			<g id="g8826_1_" transform="translate(-1.000000,0.000000)">
				<path id="path8828_1_" class="st2" d="M280.5-441c-3.6,0-6.5,2.9-6.5,6.5c0,2.4,1.3,4.3,3.3,5.5h6.5c1.9-1.1,3.3-3.1,3.3-5.5
					C287-438.1,284-441,280.5-441z"/>
				
					<linearGradient id="path8830_2_" gradientUnits="userSpaceOnUse" x1="527.5714" y1="28.3546" x2="531.6049" y2="23.1679" gradientTransform="matrix(1 0 0 -1 -250.0225 -410.0001)">
					<stop  offset="0" style="stop-color:#FFFFFF"/>
					<stop  offset="1" style="stop-color:#FFFFFF;stop-opacity:0"/>
				</linearGradient>
				<path id="path8830_1_" class="st13" d="M280.5-441c-3.6,0-6.5,2.9-6.5,6.5c0,2.4,1.3,4.4,3.3,5.5h6.5c1.9-1.1,3.3-3.1,3.3-5.5
					C287-438.1,284.1-441,280.5-441z"/>
			</g>
			
				<linearGradient id="path8832_2_" gradientUnits="userSpaceOnUse" x1="546.2393" y1="18.5551" x2="549.339" y2="15.7786" gradientTransform="matrix(0.9057 0 0 -0.9057 -225.4164 -416.7265)">
				<stop  offset="0" style="stop-color:#FFFFFF"/>
				<stop  offset="1" style="stop-color:#FFFFFF;stop-opacity:0"/>
			</linearGradient>
			<path id="path8832_1_" class="st14" d="M274-432c0,1.7-1.3,3-3,3c-1.7,0-3-1.3-3-3c0-1.7,1.3-3,3-3C272.7-435,274-433.7,274-432
				L274-432z"/>
			<path id="path8834_1_" class="st15" d="M293-437.3c0,2.7-3.3,3.7-3.3,3.7s2.3-1.6,2.3-3.7L293-437.3z"/>
			<g id="g8836_1_" transform="matrix(1.142857,0.000000,0.000000,1.142857,-28.57139,67.00008)">
				<path id="path8838_1_" class="st2" d="M277-437.5c0,1.9-1.6,3.5-3.5,3.5s-3.5-1.6-3.5-3.5c0-1.9,1.6-3.5,3.5-3.5
					S277-439.4,277-437.5L277-437.5z"/>
				
					<linearGradient id="path8840_2_" gradientUnits="userSpaceOnUse" x1="476.6933" y1="-15.7252" x2="480.7906" y2="-20.1271" gradientTransform="matrix(1.2075 0 0 -1.2075 -305.7998 -460.4318)">
					<stop  offset="0" style="stop-color:#FFFFFF"/>
					<stop  offset="1" style="stop-color:#FFFFFF;stop-opacity:0"/>
				</linearGradient>
				<path id="path8840_1_" class="st16" d="M277-437.5c0,1.9-1.6,3.5-3.5,3.5s-3.5-1.6-3.5-3.5c0-1.9,1.6-3.5,3.5-3.5
					S277-439.4,277-437.5L277-437.5z"/>
			</g>
		</g>
		<g id="g8754_1_" transform="translate(76.02041,158.0000)">
			<path id="path8756_1_" class="st8" d="M280.5-445.5c-2.3,0-4.1,1.6-4.7,3.6c-0.7-0.4-1.4-0.6-2.3-0.6c-2.8,0-5,2.2-5,5
				c0,0.6,0.2,1.1,0.3,1.6c-1.4,0.8-2.3,2.2-2.3,3.9c0,2.5,2,4.5,4.5,4.5c0.2,0,18.8,0,19,0c2.5,0,4.5-2,4.5-4.5
				c0-1.7-1-3.1-2.3-3.9c0.2-0.5,0.3-1,0.3-1.6c0-2.8-2.2-5-5-5c-0.8,0-1.6,0.3-2.3,0.6C284.6-443.9,282.8-445.5,280.5-445.5z"/>
			
				<linearGradient id="path8758_2_" gradientUnits="userSpaceOnUse" x1="534.7401" y1="34.5787" x2="548.747" y2="25.4968" gradientTransform="matrix(1 0 0 -1 -264.0251 -406.0001)">
				<stop  offset="0" style="stop-color:#FFFFFF"/>
				<stop  offset="1" style="stop-color:#FFFFFF;stop-opacity:0"/>
			</linearGradient>
			<path id="path8758_1_" class="st17" d="M280.5-445c-2.2,0-3.7,1.3-4.4,3.8c-0.7-0.3-1.5-0.8-2.4-0.8c-2.7,0-4.8,1.9-4.8,4.5
				c0,0.5,0.3,1.3,0.4,1.8c-1.3,0.7-2.4,1.9-2.4,3.4c0,2.3,1.5,4.3,4.3,4.3c0.2,0,18.2,0,18.3,0c2.8,0,4.3-1.9,4.3-4.3
				c0-1.6-1.1-2.7-2.4-3.4c0.2-0.5,0.5-1.3,0.5-1.8c0-2.6-2.1-4.6-4.8-4.6c-0.8,0-1.6,0.5-2.3,0.8C284.3-443.6,282.7-445,280.5-445z
				"/>
			<g id="g8760_1_">
				<path id="path8762_1_" class="st2" d="M284-440.5c0,1.9-1.6,3.5-3.5,3.5s-3.5-1.6-3.5-3.5c0-1.9,1.6-3.5,3.5-3.5
					S284-442.4,284-440.5L284-440.5z"/>
				
					<linearGradient id="path8764_2_" gradientUnits="userSpaceOnUse" x1="545.6656" y1="39.0448" x2="547.8246" y2="35.6139" gradientTransform="matrix(1.0566 0 0 -1.0566 -297.338 -401.2878)">
					<stop  offset="0" style="stop-color:#FFFFFF"/>
					<stop  offset="1" style="stop-color:#FFFFFF;stop-opacity:0"/>
				</linearGradient>
				<path id="path8764_1_" class="st18" d="M284-440.5c0,1.9-1.6,3.5-3.5,3.5s-3.5-1.6-3.5-3.5c0-1.9,1.6-3.5,3.5-3.5
					S284-442.4,284-440.5L284-440.5z"/>
			</g>
			<rect id="rect8766_1_" x="271" y="-438" class="st2" width="20" height="9"/>
			<path id="path8768_1_" class="st2" d="M274-432c0,1.7-1.3,3-3,3c-1.7,0-3-1.3-3-3c0-1.7,1.3-3,3-3C272.7-435,274-433.7,274-432
				L274-432z"/>
			<g id="g8770_1_">
				<path id="path8772_1_" class="st2" d="M291-437.5c0,1.9-1.6,3.5-3.5,3.5c-1.9,0-3.5-1.6-3.5-3.5c0-1.9,1.6-3.5,3.5-3.5
					C289.4-441,291-439.4,291-437.5L291-437.5z"/>
				
					<linearGradient id="path8774_2_" gradientUnits="userSpaceOnUse" x1="544.6408" y1="40.563" x2="547.9828" y2="35.4167" gradientTransform="matrix(1.0566 0 0 -1.0566 -290.338 -398.2878)">
					<stop  offset="0" style="stop-color:#FFFFFF"/>
					<stop  offset="1" style="stop-color:#FFFFFF;stop-opacity:0"/>
				</linearGradient>
				<path id="path8774_1_" class="st19" d="M291-437.5c0,1.9-1.6,3.5-3.5,3.5s-3.5-1.6-3.5-3.5c0-1.9,1.6-3.5,3.5-3.5
					S291-439.4,291-437.5L291-437.5z"/>
			</g>
			<g id="g8776_1_">
				<path id="path8778_1_" class="st2" d="M277-437.5c0,1.9-1.6,3.5-3.5,3.5s-3.5-1.6-3.5-3.5c0-1.9,1.6-3.5,3.5-3.5
					S277-439.4,277-437.5L277-437.5z"/>
				
					<linearGradient id="path8780_2_" gradientUnits="userSpaceOnUse" x1="544.5087" y1="39.5166" x2="547.959" y2="36.0205" gradientTransform="matrix(1.0566 0 0 -1.0566 -304.338 -398.2878)">
					<stop  offset="0" style="stop-color:#FFFFFF"/>
					<stop  offset="1" style="stop-color:#FFFFFF;stop-opacity:0"/>
				</linearGradient>
				<path id="path8780_1_" class="st20" d="M277-437.5c0,1.9-1.6,3.5-3.5,3.5s-3.5-1.6-3.5-3.5c0-1.9,1.6-3.5,3.5-3.5
					S277-439.4,277-437.5L277-437.5z"/>
			</g>
			<g id="g8782_1_" transform="translate(-1.000000,0.000000)">
				<path id="path8784_1_" class="st2" d="M280.5-441c-3.6,0-6.5,2.9-6.5,6.5c0,2.4,1.3,4.3,3.3,5.5h6.5c1.9-1.1,3.3-3.1,3.3-5.5
					C287-438.1,284-441,280.5-441z"/>
				
					<linearGradient id="path8786_2_" gradientUnits="userSpaceOnUse" x1="542.5739" y1="32.3546" x2="546.6075" y2="27.1679" gradientTransform="matrix(1 0 0 -1 -265.0251 -406.0001)">
					<stop  offset="0" style="stop-color:#FFFFFF"/>
					<stop  offset="1" style="stop-color:#FFFFFF;stop-opacity:0"/>
				</linearGradient>
				<path id="path8786_1_" class="st21" d="M280.5-441c-3.6,0-6.5,2.9-6.5,6.5c0,2.4,1.3,4.4,3.3,5.5h6.5c1.9-1.1,3.3-3.1,3.3-5.5
					C287-438.1,284.1-441,280.5-441z"/>
			</g>
			
				<linearGradient id="path8788_2_" gradientUnits="userSpaceOnUse" x1="561.2418" y1="22.5551" x2="564.3416" y2="19.7786" gradientTransform="matrix(0.9057 0 0 -0.9057 -239.0037 -413.1039)">
				<stop  offset="0" style="stop-color:#FFFFFF"/>
				<stop  offset="1" style="stop-color:#FFFFFF;stop-opacity:0"/>
			</linearGradient>
			<path id="path8788_1_" class="st22" d="M274-432c0,1.7-1.3,3-3,3c-1.7,0-3-1.3-3-3c0-1.7,1.3-3,3-3C272.7-435,274-433.7,274-432
				L274-432z"/>
			<path id="path8790_1_" class="st15" d="M293-437.3c0,2.7-3.3,3.7-3.3,3.7s2.3-1.6,2.3-3.7L293-437.3z"/>
			<g id="g8792_1_" transform="matrix(1.142857,0.000000,0.000000,1.142857,-28.57139,67.00008)">
				<path id="path8794_1_" class="st2" d="M277-437.5c0,1.9-1.6,3.5-3.5,3.5s-3.5-1.6-3.5-3.5c0-1.9,1.6-3.5,3.5-3.5
					S277-439.4,277-437.5L277-437.5z"/>
				
					<linearGradient id="path8796_2_" gradientUnits="userSpaceOnUse" x1="489.8206" y1="-12.2252" x2="493.9179" y2="-16.6271" gradientTransform="matrix(1.2075 0 0 -1.2075 -321.6516 -456.2054)">
					<stop  offset="0" style="stop-color:#FFFFFF"/>
					<stop  offset="1" style="stop-color:#FFFFFF;stop-opacity:0"/>
				</linearGradient>
				<path id="path8796_1_" class="st23" d="M277-437.5c0,1.9-1.6,3.5-3.5,3.5s-3.5-1.6-3.5-3.5c0-1.9,1.6-3.5,3.5-3.5
					S277-439.4,277-437.5L277-437.5z"/>
			</g>
		</g>
	</g>
	<g id="g12157_1_" transform="translate(-163.0077,222.0147)">
		<path id="path12159_1_" class="st24" d="M175.5-192c0,0.8-0.7,1.5-1.5,1.5c-0.8,0-1.5-0.7-1.5-1.5s0.7-1.5,1.5-1.5
			C174.8-193.5,175.5-192.8,175.5-192z"/>
		<path id="path12159_4_" class="st24" d="M187.5-186c0,0.8-0.7,1.5-1.5,1.5c-0.8,0-1.5-0.7-1.5-1.5s0.7-1.5,1.5-1.5
			C186.8-187.5,187.5-186.8,187.5-186z"/>
		<path id="path12163_1_" class="st25" d="M196.5-190c0,0.8-0.7,1.5-1.5,1.5c-0.8,0-1.5-0.7-1.5-1.5s0.7-1.5,1.5-1.5
			C195.8-191.5,196.5-190.8,196.5-190z"/>
		<path id="path12165_1_" class="st26" d="M202.5-185c0,0.8-0.7,1.5-1.5,1.5s-1.5-0.7-1.5-1.5s0.7-1.5,1.5-1.5
			S202.5-185.8,202.5-185z"/>
		<path id="path12171_1_" class="st27" d="M178.5-185c0,0.8-0.7,1.5-1.5,1.5c-0.8,0-1.5-0.7-1.5-1.5c0-0.8,0.7-1.5,1.5-1.5
			C177.8-186.5,178.5-185.8,178.5-185z"/>
	</g>
</g>
</svg>
