<?xml version="1.0" encoding="utf-8"?>
<!-- Generator: Adobe Illustrator 24.0.1, SVG Export Plug-In . SVG Version: 6.00 Build 0)  -->
<svg version="1.1"
	 id="svg1306" xmlns:cc="http://creativecommons.org/ns#" xmlns:dc="http://purl.org/dc/elements/1.1/" xmlns:inkscape="http://www.inkscape.org/namespaces/inkscape" xmlns:rdf="http://www.w3.org/1999/02/22-rdf-syntax-ns#" xmlns:sodipodi="http://sodipodi.sourceforge.net/DTD/sodipodi-0.dtd" xmlns:svg="http://www.w3.org/2000/svg"
	 xmlns="http://www.w3.org/2000/svg" xmlns:xlink="http://www.w3.org/1999/xlink" x="0px" y="0px" viewBox="0 0 48 48"
	 style="enable-background:new 0 0 48 48;" xml:space="preserve">
<style type="text/css">
	.st0{fill:#888A85;}
	.st1{fill:url(#path8291_2_);}
	.st2{fill:#C4C5C2;}
	.st3{fill:url(#path8329_2_);}
	.st4{fill:url(#path8370_2_);}
	.st5{fill:url(#path8313_2_);}
	.st6{fill:url(#path8395_2_);}
	.st7{fill:url(#path4522_2_);}
	.st8{fill:#C4C5C2;stroke:#888A85;stroke-miterlimit:2;}
	.st9{fill:url(#path7798_2_);}
	.st10{fill:url(#path7804_2_);}
	.st11{fill:url(#path7814_2_);}
	.st12{fill:url(#path7820_2_);}
	.st13{fill:url(#path7826_2_);}
	.st14{fill:url(#path7828_2_);}
	.st15{fill-rule:evenodd;clip-rule:evenodd;fill:#888A85;}
	.st16{fill:url(#path7836_2_);}
	.st17{fill:url(#path7856_2_);}
	.st18{fill:url(#path7862_2_);}
	.st19{fill:url(#path7872_2_);}
	.st20{fill:url(#path7878_2_);}
	.st21{fill:url(#path7884_2_);}
	.st22{fill:url(#path7886_2_);}
	.st23{fill:url(#path7896_2_);}
	.st24{fill:#729FCF;stroke:#204A87;stroke-width:1.0746;stroke-miterlimit:2;}
	.st25{opacity:0.4611;fill:url(#path12243_2_);enable-background:new    ;}
	.st26{fill:url(#path12245_2_);}
	.st27{opacity:0.4611;fill:url(#path12207_2_);enable-background:new    ;}
	.st28{fill:url(#path12209_2_);}
</style>
<g id="layer1_16_">
	<g id="g10011_1_" transform="translate(-287.0000,298.0000)">
		<path id="path8267_1_" class="st0" d="M311.5-296c-2.8,0-5.1,1.6-6.4,3.8c-0.9-0.5-2-0.8-3.1-0.8c-3.9,0-7,3.1-7,7s3.1,7,7,7
			c2.4,0,4.4-1.3,5.7-3.2c1.1,0.7,2.4,1.2,3.8,1.2c0.9,0,1.8-0.2,2.6-0.5c0.5,0.9,1.2,1.6,2,2.2c0,0.1-0.1,0.2-0.1,0.4
			c0,3.9,3.1,7,7,7c3.9,0,7-3.1,7-7c0-2.4-1.3-4.4-3.1-5.6c0-0.1,0.1-0.2,0.1-0.4c0-3.9-3.1-7-7-7c-0.6,0-1.2,0.2-1.8,0.4
			C317.1-294.2,314.5-296,311.5-296z"/>
		
			<linearGradient id="path8291_2_" gradientUnits="userSpaceOnUse" x1="515.4229" y1="144.0686" x2="565.8354" y2="127.1422" gradientTransform="matrix(1 0 0 -1 -217.9974 -146)">
			<stop  offset="0" style="stop-color:#FFFFFF"/>
			<stop  offset="1" style="stop-color:#FFFFFF;stop-opacity:0"/>
		</linearGradient>
		<path id="path8291_1_" class="st1" d="M311.5-295c-2.8,0-5.1,1.8-6.1,4.2c-1-0.7-2.1-1.2-3.4-1.2c-3.3,0-6,2.7-6,6s2.7,6,6,6
			c2.4,0,4.5-1.5,5.4-3.5c1.1,0.9,2.5,1.5,4.1,1.5c1.1,0,2-0.3,2.9-0.8c0.4,1,1.1,1.8,1.9,2.4c-0.2,0.6-0.4,1.2-0.4,1.8
			c0,3.6,2.9,6.5,6.5,6.5c3.6,0,6.5-2.9,6.5-6.5c0-2.4-1.3-4.3-3.2-5.5c0.1-0.3,0.2-0.7,0.2-1c0-3.3-2.7-6-6-6
			c-0.9,0-1.7,0.2-2.4,0.5C316.7-293.1,314.4-295,311.5-295z"/>
		<path id="path8414_1_" class="st2" d="M329-278.5c0,3.6-2.9,6.5-6.5,6.5s-6.5-2.9-6.5-6.5c0,0,0,0,0,0c0-3.6,2.9-6.5,6.5-6.5
			S329-282.1,329-278.5C329-278.5,329-278.5,329-278.5z"/>
		<g id="g8349_1_" transform="translate(69.00259,102.0000)">
			<path id="path8327_1_" class="st2" d="M248-390.5c0,3-2.5,5.5-5.5,5.5c-3,0-5.5-2.5-5.5-5.5s2.5-5.5,5.5-5.5
				C245.5-396,248-393.5,248-390.5z"/>
			
				<linearGradient id="path8329_2_" gradientUnits="userSpaceOnUse" x1="471.3578" y1="29.2247" x2="477.1111" y2="24.3678" gradientTransform="matrix(0.8826 0 0 -0.8826 -177.3194 -367.9005)">
				<stop  offset="0" style="stop-color:#FFFFFF"/>
				<stop  offset="1" style="stop-color:#FFFFFF;stop-opacity:0"/>
			</linearGradient>
			<path id="path8329_1_" class="st3" d="M248-390.5c0,3-2.5,5.5-5.5,5.5c-3,0-5.5-2.5-5.5-5.5s2.5-5.5,5.5-5.5
				C245.5-396,248-393.5,248-390.5z"/>
		</g>
		<g id="g8389_1_" transform="translate(69.00259,102.0000)">
			<path id="path8368_1_" class="st2" d="M256-386.5c0,3-2.5,5.5-5.5,5.5c-3,0-5.5-2.5-5.5-5.5l0,0c0-3,2.5-5.5,5.5-5.5
				C253.5-392,256-389.5,256-386.5z"/>
			
				<linearGradient id="path8370_2_" gradientUnits="userSpaceOnUse" x1="474.1896" y1="30.8215" x2="480.1471" y2="24.8593" gradientTransform="matrix(0.9117 0 0 -0.9117 -186.3923 -362.9632)">
				<stop  offset="0" style="stop-color:#FFFFFF"/>
				<stop  offset="1" style="stop-color:#FFFFFF;stop-opacity:0"/>
			</linearGradient>
			<path id="path8370_1_" class="st4" d="M256-386.5c0,3-2.5,5.5-5.5,5.5c-3,0-5.5-2.5-5.5-5.5l0,0c0-3,2.5-5.5,5.5-5.5
				C253.5-392,256-389.5,256-386.5z"/>
		</g>
		<g id="g8323_1_" transform="translate(69.00259,102.0000)">
			<path id="path8311_1_" class="st2" d="M238-388c0,2.8-2.2,5-5,5c-2.8,0-5-2.2-5-5c0-2.8,2.2-5,5-5C235.8-393,238-390.8,238-388
				L238-388z"/>
			
				<linearGradient id="path8313_2_" gradientUnits="userSpaceOnUse" x1="435.7496" y1="52.991" x2="440.1301" y2="49.5105" gradientTransform="matrix(1.1428 0 0 -1.1428 -268.1866 -329.9943)">
				<stop  offset="0" style="stop-color:#FFFFFF"/>
				<stop  offset="1" style="stop-color:#FFFFFF;stop-opacity:0"/>
			</linearGradient>
			<path id="path8313_1_" class="st5" d="M238-388c0,2.8-2.2,5-5,5c-2.8,0-5-2.2-5-5c0-2.8,2.2-5,5-5C235.8-393,238-390.8,238-388
				L238-388z"/>
		</g>
		<g id="g8406_1_" transform="translate(69.00259,102.0000)">
			<path id="path8393_1_" class="st2" d="M249-384c0,3.9-3.1,7-7,7c-3.9,0-7-3.1-7-7c0,0,0,0,0,0c0-3.9,3.1-7,7-7S249-387.9,249-384
				C249-384,249-384,249-384z"/>
			
				<linearGradient id="path8395_2_" gradientUnits="userSpaceOnUse" x1="451.2501" y1="41.0981" x2="458.8999" y2="35.2687" gradientTransform="matrix(1.0386 0 0 -1.0386 -231.5914 -345.0532)">
				<stop  offset="0" style="stop-color:#FFFFFF"/>
				<stop  offset="1" style="stop-color:#FFFFFF;stop-opacity:0"/>
			</linearGradient>
			<path id="path8395_1_" class="st6" d="M249-384c0,3.9-3.1,7-7,7c-3.9,0-7-3.1-7-7c0,0,0,0,0,0c0-3.9,3.1-7,7-7
				C245.9-391,249-387.9,249-384C249-384,249-384,249-384z"/>
		</g>
		<g id="g4518_1_" transform="matrix(0.935028,0.000000,0.000000,0.935028,446.8280,-187.6162)">
			<path id="path4520_1_" class="st2" d="M-153.2-98.4c0,3-2.4,5.4-5.4,5.4c-3,0-5.4-2.4-5.4-5.4s2.4-5.4,5.4-5.4
				C-155.6-103.8-153.2-101.4-153.2-98.4z"/>
			
				<linearGradient id="path4522_2_" gradientUnits="userSpaceOnUse" x1="-381.5213" y1="84.4405" x2="-378.3289" y2="80.4508" gradientTransform="matrix(1.6248 0 0 -1.6248 457.4626 33.9125)">
				<stop  offset="0" style="stop-color:#FFFFFF"/>
				<stop  offset="1" style="stop-color:#FFFFFF;stop-opacity:0"/>
			</linearGradient>
			<path id="path4522_1_" class="st7" d="M-153.1-98.4c0,3-2.4,5.4-5.4,5.4c-3,0-5.4-2.4-5.4-5.4s2.4-5.4,5.4-5.4
				C-155.6-103.9-153.1-101.4-153.1-98.4z"/>
		</g>
		<g id="g7794_1_" transform="translate(38.00259,162.0000)">
			<path id="path7796_1_" class="st8" d="M280.5-445.5c-2.3,0-4.1,1.6-4.7,3.6c-0.7-0.4-1.4-0.6-2.3-0.6c-2.8,0-5,2.2-5,5
				c0,0.6,0.2,1.1,0.3,1.6c-1.4,0.8-2.3,2.2-2.3,3.9c0,2.5,2,4.5,4.5,4.5c0.2,0,18.8,0,19,0c2.5,0,4.5-2,4.5-4.5
				c0-1.7-1-3.1-2.3-3.9c0.2-0.5,0.3-1,0.3-1.6c0-2.8-2.2-5-5-5c-0.8,0-1.6,0.3-2.3,0.6C284.6-443.9,282.8-445.5,280.5-445.5z"/>
			
				<linearGradient id="path7798_2_" gradientUnits="userSpaceOnUse" x1="519.7124" y1="30.5788" x2="533.7193" y2="21.4969" gradientTransform="matrix(1 0 0 -1 -248.9974 -410)">
				<stop  offset="0" style="stop-color:#FFFFFF"/>
				<stop  offset="1" style="stop-color:#FFFFFF;stop-opacity:0"/>
			</linearGradient>
			<path id="path7798_1_" class="st9" d="M280.5-445c-2.2,0-3.7,1.3-4.4,3.8c-0.7-0.3-1.5-0.8-2.4-0.8c-2.7,0-4.8,1.9-4.8,4.5
				c0,0.5,0.3,1.3,0.4,1.8c-1.3,0.7-2.4,1.9-2.4,3.4c0,2.3,1.5,4.3,4.3,4.3c0.2,0,18.2,0,18.3,0c2.8,0,4.3-1.9,4.3-4.3
				c0-1.6-1.1-2.7-2.4-3.4c0.2-0.5,0.5-1.3,0.5-1.8c0-2.6-2.1-4.6-4.8-4.6c-0.8,0-1.6,0.5-2.3,0.8C284.3-443.6,282.7-445,280.5-445z
				"/>
			<g id="g7800_1_">
				<path id="path7802_1_" class="st2" d="M284-440.5c0,1.9-1.6,3.5-3.5,3.5s-3.5-1.6-3.5-3.5c0-1.9,1.6-3.5,3.5-3.5
					S284-442.4,284-440.5L284-440.5z"/>
				
					<linearGradient id="path7804_2_" gradientUnits="userSpaceOnUse" x1="530.6379" y1="35.0448" x2="532.797" y2="31.614" gradientTransform="matrix(1.0566 0 0 -1.0566 -281.4596 -405.5141)">
					<stop  offset="0" style="stop-color:#FFFFFF"/>
					<stop  offset="1" style="stop-color:#FFFFFF;stop-opacity:0"/>
				</linearGradient>
				<path id="path7804_1_" class="st10" d="M284-440.5c0,1.9-1.6,3.5-3.5,3.5s-3.5-1.6-3.5-3.5c0-1.9,1.6-3.5,3.5-3.5
					S284-442.4,284-440.5L284-440.5z"/>
			</g>
			<rect id="rect7806_1_" x="271" y="-438" class="st2" width="20" height="9"/>
			<path id="path7808_1_" class="st2" d="M274-432c0,1.7-1.3,3-3,3c-1.7,0-3-1.3-3-3c0-1.7,1.3-3,3-3C272.7-435,274-433.7,274-432
				L274-432z"/>
			<g id="g7810_1_">
				<path id="path7812_1_" class="st2" d="M291-437.5c0,1.9-1.6,3.5-3.5,3.5c-1.9,0-3.5-1.6-3.5-3.5c0-1.9,1.6-3.5,3.5-3.5
					C289.4-441,291-439.4,291-437.5L291-437.5z"/>
				
					<linearGradient id="path7814_2_" gradientUnits="userSpaceOnUse" x1="529.6131" y1="36.563" x2="532.9552" y2="31.4168" gradientTransform="matrix(1.0566 0 0 -1.0566 -274.4596 -402.5141)">
					<stop  offset="0" style="stop-color:#FFFFFF"/>
					<stop  offset="1" style="stop-color:#FFFFFF;stop-opacity:0"/>
				</linearGradient>
				<path id="path7814_1_" class="st11" d="M291-437.5c0,1.9-1.6,3.5-3.5,3.5s-3.5-1.6-3.5-3.5c0-1.9,1.6-3.5,3.5-3.5
					S291-439.4,291-437.5L291-437.5z"/>
			</g>
			<g id="g7816_1_">
				<path id="path7818_1_" class="st2" d="M277-437.5c0,1.9-1.6,3.5-3.5,3.5s-3.5-1.6-3.5-3.5c0-1.9,1.6-3.5,3.5-3.5
					S277-439.4,277-437.5L277-437.5z"/>
				
					<linearGradient id="path7820_2_" gradientUnits="userSpaceOnUse" x1="529.481" y1="35.5167" x2="532.9313" y2="32.0206" gradientTransform="matrix(1.0566 0 0 -1.0566 -288.4596 -402.5141)">
					<stop  offset="0" style="stop-color:#FFFFFF"/>
					<stop  offset="1" style="stop-color:#FFFFFF;stop-opacity:0"/>
				</linearGradient>
				<path id="path7820_1_" class="st12" d="M277-437.5c0,1.9-1.6,3.5-3.5,3.5s-3.5-1.6-3.5-3.5c0-1.9,1.6-3.5,3.5-3.5
					S277-439.4,277-437.5L277-437.5z"/>
			</g>
			<g id="g7822_1_" transform="translate(-1.000000,0.000000)">
				<path id="path7824_1_" class="st2" d="M280.5-441c-3.6,0-6.5,2.9-6.5,6.5c0,2.4,1.3,4.3,3.3,5.5h6.5c1.9-1.1,3.3-3.1,3.3-5.5
					C287-438.1,284-441,280.5-441z"/>
				
					<linearGradient id="path7826_2_" gradientUnits="userSpaceOnUse" x1="527.5463" y1="28.3547" x2="531.5798" y2="23.168" gradientTransform="matrix(1 0 0 -1 -249.9974 -410)">
					<stop  offset="0" style="stop-color:#FFFFFF"/>
					<stop  offset="1" style="stop-color:#FFFFFF;stop-opacity:0"/>
				</linearGradient>
				<path id="path7826_1_" class="st13" d="M280.5-441c-3.6,0-6.5,2.9-6.5,6.5c0,2.4,1.3,4.4,3.3,5.5h6.5c1.9-1.1,3.3-3.1,3.3-5.5
					C287-438.1,284.1-441,280.5-441z"/>
			</g>
			
				<linearGradient id="path7828_2_" gradientUnits="userSpaceOnUse" x1="546.2142" y1="18.5552" x2="549.3139" y2="15.7787" gradientTransform="matrix(0.9057 0 0 -0.9057 -225.3937 -416.7264)">
				<stop  offset="0" style="stop-color:#FFFFFF"/>
				<stop  offset="1" style="stop-color:#FFFFFF;stop-opacity:0"/>
			</linearGradient>
			<path id="path7828_1_" class="st14" d="M274-432c0,1.7-1.3,3-3,3c-1.7,0-3-1.3-3-3c0-1.7,1.3-3,3-3C272.7-435,274-433.7,274-432
				L274-432z"/>
			<path id="path7830_1_" class="st15" d="M293-437.3c0,2.7-3.3,3.7-3.3,3.7s2.3-1.6,2.3-3.7L293-437.3z"/>
			<g id="g7832_1_" transform="matrix(1.142857,0.000000,0.000000,1.142857,-28.57139,67.00008)">
				<path id="path7834_1_" class="st2" d="M277-437.5c0,1.9-1.6,3.5-3.5,3.5s-3.5-1.6-3.5-3.5c0-1.9,1.6-3.5,3.5-3.5
					S277-439.4,277-437.5L277-437.5z"/>
				
					<linearGradient id="path7836_2_" gradientUnits="userSpaceOnUse" x1="476.6713" y1="-15.7251" x2="480.7687" y2="-20.127" gradientTransform="matrix(1.2075 0 0 -1.2075 -305.7733 -460.4317)">
					<stop  offset="0" style="stop-color:#FFFFFF"/>
					<stop  offset="1" style="stop-color:#FFFFFF;stop-opacity:0"/>
				</linearGradient>
				<path id="path7836_1_" class="st16" d="M277-437.5c0,1.9-1.6,3.5-3.5,3.5s-3.5-1.6-3.5-3.5c0-1.9,1.6-3.5,3.5-3.5
					S277-439.4,277-437.5L277-437.5z"/>
			</g>
		</g>
		<g id="g7852_1_" transform="translate(23.00000,158.0000)">
			<path id="path7854_1_" class="st8" d="M280.5-445.5c-2.3,0-4.1,1.6-4.7,3.6c-0.7-0.4-1.4-0.6-2.3-0.6c-2.8,0-5,2.2-5,5
				c0,0.6,0.2,1.1,0.3,1.6c-1.4,0.8-2.3,2.2-2.3,3.9c0,2.5,2,4.5,4.5,4.5c0.2,0,18.8,0,19,0c2.5,0,4.5-2,4.5-4.5
				c0-1.7-1-3.1-2.3-3.9c0.2-0.5,0.3-1,0.3-1.6c0-2.8-2.2-5-5-5c-0.8,0-1.6,0.3-2.3,0.6C284.6-443.9,282.8-445.5,280.5-445.5z"/>
			
				<linearGradient id="path7856_2_" gradientUnits="userSpaceOnUse" x1="534.715" y1="34.5788" x2="548.7219" y2="25.4969" gradientTransform="matrix(1 0 0 -1 -264 -406)">
				<stop  offset="0" style="stop-color:#FFFFFF"/>
				<stop  offset="1" style="stop-color:#FFFFFF;stop-opacity:0"/>
			</linearGradient>
			<path id="path7856_1_" class="st17" d="M280.5-445c-2.2,0-3.7,1.3-4.4,3.8c-0.7-0.3-1.5-0.8-2.4-0.8c-2.7,0-4.8,1.9-4.8,4.5
				c0,0.5,0.3,1.3,0.4,1.8c-1.3,0.7-2.4,1.9-2.4,3.4c0,2.3,1.5,4.3,4.3,4.3c0.2,0,18.2,0,18.3,0c2.8,0,4.3-1.9,4.3-4.3
				c0-1.6-1.1-2.7-2.4-3.4c0.2-0.5,0.5-1.3,0.5-1.8c0-2.6-2.1-4.6-4.8-4.6c-0.8,0-1.6,0.5-2.3,0.8C284.3-443.6,282.7-445,280.5-445z
				"/>
			<g id="g7858_1_">
				<path id="path7860_1_" class="st2" d="M284-440.5c0,1.9-1.6,3.5-3.5,3.5s-3.5-1.6-3.5-3.5c0-1.9,1.6-3.5,3.5-3.5
					S284-442.4,284-440.5L284-440.5z"/>
				
					<linearGradient id="path7862_2_" gradientUnits="userSpaceOnUse" x1="545.6406" y1="39.0448" x2="547.7996" y2="35.614" gradientTransform="matrix(1.0566 0 0 -1.0566 -297.3114 -401.2877)">
					<stop  offset="0" style="stop-color:#FFFFFF"/>
					<stop  offset="1" style="stop-color:#FFFFFF;stop-opacity:0"/>
				</linearGradient>
				<path id="path7862_1_" class="st18" d="M284-440.5c0,1.9-1.6,3.5-3.5,3.5s-3.5-1.6-3.5-3.5c0-1.9,1.6-3.5,3.5-3.5
					S284-442.4,284-440.5L284-440.5z"/>
			</g>
			<rect id="rect7864_1_" x="271" y="-438" class="st2" width="20" height="9"/>
			<path id="path7866_1_" class="st2" d="M274-432c0,1.7-1.3,3-3,3c-1.7,0-3-1.3-3-3c0-1.7,1.3-3,3-3C272.7-435,274-433.7,274-432
				L274-432z"/>
			<g id="g7868_1_">
				<path id="path7870_1_" class="st2" d="M291-437.5c0,1.9-1.6,3.5-3.5,3.5c-1.9,0-3.5-1.6-3.5-3.5c0-1.9,1.6-3.5,3.5-3.5
					C289.4-441,291-439.4,291-437.5L291-437.5z"/>
				
					<linearGradient id="path7872_2_" gradientUnits="userSpaceOnUse" x1="544.6157" y1="40.563" x2="547.9578" y2="35.4168" gradientTransform="matrix(1.0566 0 0 -1.0566 -290.3114 -398.2877)">
					<stop  offset="0" style="stop-color:#FFFFFF"/>
					<stop  offset="1" style="stop-color:#FFFFFF;stop-opacity:0"/>
				</linearGradient>
				<path id="path7872_1_" class="st19" d="M291-437.5c0,1.9-1.6,3.5-3.5,3.5s-3.5-1.6-3.5-3.5c0-1.9,1.6-3.5,3.5-3.5
					S291-439.4,291-437.5L291-437.5z"/>
			</g>
			<g id="g7874_1_">
				<path id="path7876_1_" class="st2" d="M277-437.5c0,1.9-1.6,3.5-3.5,3.5s-3.5-1.6-3.5-3.5c0-1.9,1.6-3.5,3.5-3.5
					S277-439.4,277-437.5L277-437.5z"/>
				
					<linearGradient id="path7878_2_" gradientUnits="userSpaceOnUse" x1="544.4835" y1="39.5167" x2="547.9339" y2="36.0206" gradientTransform="matrix(1.0566 0 0 -1.0566 -304.3114 -398.2877)">
					<stop  offset="0" style="stop-color:#FFFFFF"/>
					<stop  offset="1" style="stop-color:#FFFFFF;stop-opacity:0"/>
				</linearGradient>
				<path id="path7878_1_" class="st20" d="M277-437.5c0,1.9-1.6,3.5-3.5,3.5s-3.5-1.6-3.5-3.5c0-1.9,1.6-3.5,3.5-3.5
					S277-439.4,277-437.5L277-437.5z"/>
			</g>
			<g id="g7880_1_" transform="translate(-1.000000,0.000000)">
				<path id="path7882_1_" class="st2" d="M280.5-441c-3.6,0-6.5,2.9-6.5,6.5c0,2.4,1.3,4.3,3.3,5.5h6.5c1.9-1.1,3.3-3.1,3.3-5.5
					C287-438.1,284-441,280.5-441z"/>
				
					<linearGradient id="path7884_2_" gradientUnits="userSpaceOnUse" x1="542.5488" y1="32.3547" x2="546.5824" y2="27.168" gradientTransform="matrix(1 0 0 -1 -265 -406)">
					<stop  offset="0" style="stop-color:#FFFFFF"/>
					<stop  offset="1" style="stop-color:#FFFFFF;stop-opacity:0"/>
				</linearGradient>
				<path id="path7884_1_" class="st21" d="M280.5-441c-3.6,0-6.5,2.9-6.5,6.5c0,2.4,1.3,4.4,3.3,5.5h6.5c1.9-1.1,3.3-3.1,3.3-5.5
					C287-438.1,284.1-441,280.5-441z"/>
			</g>
			
				<linearGradient id="path7886_2_" gradientUnits="userSpaceOnUse" x1="561.2167" y1="22.5552" x2="564.3165" y2="19.7787" gradientTransform="matrix(0.9057 0 0 -0.9057 -238.981 -413.1038)">
				<stop  offset="0" style="stop-color:#FFFFFF"/>
				<stop  offset="1" style="stop-color:#FFFFFF;stop-opacity:0"/>
			</linearGradient>
			<path id="path7886_1_" class="st22" d="M274-432c0,1.7-1.3,3-3,3c-1.7,0-3-1.3-3-3c0-1.7,1.3-3,3-3C272.7-435,274-433.7,274-432
				L274-432z"/>
			<path id="path7888_1_" class="st15" d="M293-437.3c0,2.7-3.3,3.7-3.3,3.7s2.3-1.6,2.3-3.7L293-437.3z"/>
			<g id="g7890_1_" transform="matrix(1.142857,0.000000,0.000000,1.142857,-28.57139,67.00008)">
				<path id="path7892_1_" class="st2" d="M277-437.5c0,1.9-1.6,3.5-3.5,3.5s-3.5-1.6-3.5-3.5c0-1.9,1.6-3.5,3.5-3.5
					S277-439.4,277-437.5L277-437.5z"/>
				
					<linearGradient id="path7896_2_" gradientUnits="userSpaceOnUse" x1="489.7986" y1="-12.2251" x2="493.896" y2="-16.627" gradientTransform="matrix(1.2075 0 0 -1.2075 -321.6251 -456.2053)">
					<stop  offset="0" style="stop-color:#FFFFFF"/>
					<stop  offset="1" style="stop-color:#FFFFFF;stop-opacity:0"/>
				</linearGradient>
				<path id="path7896_1_" class="st23" d="M277-437.5c0,1.9-1.6,3.5-3.5,3.5s-3.5-1.6-3.5-3.5c0-1.9,1.6-3.5,3.5-3.5
					S277-439.4,277-437.5L277-437.5z"/>
			</g>
		</g>
	</g>
	<g id="g12239_1_" transform="translate(-193.9565,268.0066)">
		<path id="path12241_1_" class="st24" d="M223.3-228.5c-1.2,0-2.1-1-2.1-2.2c0.2-2.5,2-2.8,1.8-5.2
			C224.7-235.3,227.5-229,223.3-228.5z"/>
		
			<radialGradient id="path12243_2_" cx="438.1253" cy="-1281.3475" r="21.7436" gradientTransform="matrix(8.188726e-02 3.515823e-03 3.392042e-03 -0.1257 191.7879 -393.4665)" gradientUnits="userSpaceOnUse">
			<stop  offset="0" style="stop-color:#FFFFFF"/>
			<stop  offset="1" style="stop-color:#FFFFFF;stop-opacity:0"/>
		</radialGradient>
		<path id="path12243_1_" class="st25" d="M225.1-230.8c0,1-0.8,1.8-1.8,1.7c-1,0-1.8-0.9-1.7-1.9s2.1-1.6,1.9-3.6
			C224.4-234.5,225.1-231.8,225.1-230.8z"/>
		
			<linearGradient id="path12245_2_" gradientUnits="userSpaceOnUse" x1="1772.996" y1="425.159" x2="1793.5021" y2="446.6374" gradientTransform="matrix(9.709367e-04 0.116 0.1098 8.855417e-03 172.8966 -442.3552)">
			<stop  offset="0" style="stop-color:#FFFFFF"/>
			<stop  offset="1" style="stop-color:#FFFFFF;stop-opacity:0"/>
		</linearGradient>
		<path id="path12245_1_" class="st26" d="M224.4-229.4c-4.6,1.2-2-4.3-1-3.9C220.9-230.4,224.4-229.4,224.4-229.4z"/>
	</g>
	<g id="g12203_1_" transform="translate(-214.9565,266.0066)">
		<path id="path12205_1_" class="st24" d="M232.3-228.5c-1.2,0-2.1-1-2.1-2.2c0.2-2.5,2-2.8,1.8-5.2
			C233.7-235.3,236.5-229,232.3-228.5z"/>
		
			<radialGradient id="path12207_2_" cx="568.9053" cy="-1276.2773" r="21.7436" gradientTransform="matrix(8.188726e-02 3.515823e-03 3.392042e-03 -0.1257 190.0615 -393.2889)" gradientUnits="userSpaceOnUse">
			<stop  offset="0" style="stop-color:#FFFFFF"/>
			<stop  offset="1" style="stop-color:#FFFFFF;stop-opacity:0"/>
		</radialGradient>
		<path id="path12207_1_" class="st27" d="M234.1-230.8c0,1-0.8,1.8-1.8,1.7c-1,0-1.8-0.9-1.7-1.9s2.1-1.6,1.9-3.6
			C233.4-234.5,234.1-231.8,234.1-230.8z"/>
		
			<linearGradient id="path12209_2_" gradientUnits="userSpaceOnUse" x1="1787.7343" y1="509.1612" x2="1808.2404" y2="530.6396" gradientTransform="matrix(9.709367e-04 0.116 0.1098 8.855417e-03 172.6565 -444.8082)">
			<stop  offset="0" style="stop-color:#FFFFFF"/>
			<stop  offset="1" style="stop-color:#FFFFFF;stop-opacity:0"/>
		</linearGradient>
		<path id="path12209_1_" class="st28" d="M233.4-229.4c-4.6,1.2-2-4.3-1-3.9C229.9-230.4,233.4-229.4,233.4-229.4z"/>
	</g>
</g>
</svg>
