<?xml version="1.0" encoding="utf-8"?>
<!-- Generator: Adobe Illustrator 24.0.1, SVG Export Plug-In . SVG Version: 6.00 Build 0)  -->
<svg version="1.1"
	 id="svg1306" xmlns:cc="http://creativecommons.org/ns#" xmlns:dc="http://purl.org/dc/elements/1.1/" xmlns:inkscape="http://www.inkscape.org/namespaces/inkscape" xmlns:rdf="http://www.w3.org/1999/02/22-rdf-syntax-ns#" xmlns:sodipodi="http://sodipodi.sourceforge.net/DTD/sodipodi-0.dtd" xmlns:svg="http://www.w3.org/2000/svg"
	 xmlns="http://www.w3.org/2000/svg" xmlns:xlink="http://www.w3.org/1999/xlink" x="0px" y="0px" viewBox="0 0 48 48"
	 style="enable-background:new 0 0 48 48;" xml:space="preserve">
<style type="text/css">
	.st0{fill:#555753;}
	.st1{fill:url(#path12829_1_);}
	.st2{fill:#888A85;}
	.st3{opacity:0.4944;fill:url(#path12837_1_);enable-background:new    ;}
	.st4{opacity:0.4944;fill:url(#path12843_1_);enable-background:new    ;}
	.st5{opacity:0.4944;fill:url(#path12849_1_);enable-background:new    ;}
	.st6{opacity:0.4944;fill:url(#path12855_1_);enable-background:new    ;}
	.st7{fill-rule:evenodd;clip-rule:evenodd;fill:#EDD400;stroke:url(#path11179_1_);stroke-width:1;}
	.st8{fill-rule:evenodd;clip-rule:evenodd;fill:url(#path11181_1_);}
	.st9{fill:#888A85;stroke:#555753;stroke-miterlimit:2;}
	.st10{fill:url(#path12861_1_);}
	.st11{opacity:0.4778;fill:url(#path12865_1_);enable-background:new    ;}
	.st12{opacity:0.4778;fill:url(#path12873_1_);enable-background:new    ;}
	.st13{opacity:0.4778;fill:url(#path12877_1_);enable-background:new    ;}
	.st14{opacity:0.4778;fill:url(#path12881_1_);enable-background:new    ;}
	.st15{opacity:0.4778;fill:url(#path12883_1_);enable-background:new    ;}
	.st16{fill-rule:evenodd;clip-rule:evenodd;fill:#555753;}
	.st17{opacity:0.4778;fill:url(#path12889_1_);enable-background:new    ;}
	.st18{fill-rule:evenodd;clip-rule:evenodd;fill:#EDD400;stroke:url(#path11185_1_);stroke-width:1;}
	.st19{fill-rule:evenodd;clip-rule:evenodd;fill:url(#path11187_1_);}
	.st20{fill:url(#path13209_1_);}
	.st21{fill:url(#path12895_1_);}
	.st22{opacity:0.4778;fill:url(#path12899_1_);enable-background:new    ;}
	.st23{opacity:0.4778;fill:url(#path12907_1_);enable-background:new    ;}
	.st24{opacity:0.4778;fill:url(#path12911_1_);enable-background:new    ;}
	.st25{opacity:0.4778;fill:url(#path12915_1_);enable-background:new    ;}
	.st26{opacity:0.4778;fill:url(#path12917_1_);enable-background:new    ;}
	.st27{opacity:0.4778;fill:url(#path12923_1_);enable-background:new    ;}
	.st28{fill:url(#path11418_1_);}
	.st29{fill:#729FCF;stroke:#204A87;stroke-width:1.0746;stroke-miterlimit:2;}
	.st30{opacity:0.4611;fill:url(#path12231_1_);enable-background:new    ;}
	.st31{fill:url(#path12233_1_);}
	.st32{opacity:0.4611;fill:url(#path12195_1_);enable-background:new    ;}
	.st33{fill:url(#path12197_1_);}
	.st34{opacity:0.4611;fill:url(#path12243_1_);enable-background:new    ;}
	.st35{fill:url(#path12245_1_);}
	.st36{fill:#C8E1FF;stroke:#729FCF;stroke-width:1.0746;stroke-miterlimit:2;}
	.st37{fill:url(#SVGID_1_);}
	.st38{fill:url(#SVGID_2_);}
	.st39{fill:url(#SVGID_3_);}
</style>
<g id="layer1_33_">
	<g id="g12825_3_" transform="translate(-287.0204,244.9995)">
		<path id="path12827_3_" class="st0" d="M311.5-243c-2.8,0-5.1,1.6-6.4,3.8c-0.9-0.5-2-0.8-3.1-0.8c-3.9,0-7,3.1-7,7s3.1,7,7,7
			c2.4,0,4.4-1.3,5.7-3.2c1.1,0.7,2.4,1.2,3.8,1.2c0.9,0,1.8-0.2,2.6-0.5c0.5,0.9,1.2,1.6,2,2.2c0,0.1-0.1,0.2-0.1,0.4
			c0,3.9,3.1,7,7,7s7-3.1,7-7c0-2.4-1.3-4.4-3.1-5.6c0-0.1,0.1-0.2,0.1-0.4c0-3.9-3.1-7-7-7c-0.6,0-1.2,0.2-1.8,0.4
			C317.1-241.2,314.5-243,311.5-243z"/>
		
			<linearGradient id="path12829_1_" gradientUnits="userSpaceOnUse" x1="515.5339" y1="197.2192" x2="553.3952" y2="184.1819" gradientTransform="matrix(1 0 0 -1 -218.0204 -39.9995)">
			<stop  offset="0" style="stop-color:#FFFFFF"/>
			<stop  offset="1" style="stop-color:#FFFFFF;stop-opacity:0"/>
		</linearGradient>
		<path id="path12829_3_" class="st1" d="M311.5-242c-2.8,0-5.1,1.8-6.1,4.2c-1-0.7-2.1-1.2-3.4-1.2c-3.3,0-6,2.7-6,6
			c0,3.3,2.7,6,6,6c2.4,0,4.5-1.5,5.4-3.5c1.1,0.9,2.5,1.5,4.1,1.5c1.1,0,2-0.3,2.9-0.8c0.4,1,1.1,1.8,1.9,2.4
			c-0.2,0.6-0.4,1.2-0.4,1.8c0,3.6,2.9,6.5,6.5,6.5s6.5-2.9,6.5-6.5c0-2.4-1.3-4.3-3.2-5.5c0.1-0.3,0.2-0.7,0.2-1c0-3.3-2.7-6-6-6
			c-0.9,0-1.7,0.2-2.4,0.5C316.8-240.1,314.4-242,311.5-242z"/>
		<path id="path12831_3_" class="st2" d="M329-225.5c0,3.6-2.9,6.5-6.5,6.5c-3.6,0-6.5-2.9-6.5-6.5c0,0,0,0,0,0
			c0-3.6,2.9-6.5,6.5-6.5C326.1-232,329-229.1,329-225.5C329-225.5,329-225.5,329-225.5z"/>
		<g id="g12833_3_">
			<path id="path12835_3_" class="st2" d="M317-235.5c0,3-2.5,5.5-5.5,5.5s-5.5-2.5-5.5-5.5s2.5-5.5,5.5-5.5S317-238.5,317-235.5z"
				/>
			
				<linearGradient id="path12837_1_" gradientUnits="userSpaceOnUse" x1="540.4269" y1="184.2247" x2="546.1802" y2="179.3678" gradientTransform="matrix(0.8826 0 0 -0.8826 -169.2411 -76.0924)">
				<stop  offset="0" style="stop-color:#FFFFFF"/>
				<stop  offset="1" style="stop-color:#FFFFFF;stop-opacity:0"/>
			</linearGradient>
			<path id="path12837_3_" class="st3" d="M317-235.5c0,3-2.5,5.5-5.5,5.5s-5.5-2.5-5.5-5.5s2.5-5.5,5.5-5.5S317-238.5,317-235.5z"
				/>
		</g>
		<g id="g12839_3_">
			<path id="path12841_3_" class="st2" d="M325-231.5c0,3-2.5,5.5-5.5,5.5s-5.5-2.5-5.5-5.5l0,0c0-3,2.5-5.5,5.5-5.5
				S325-234.5,325-231.5z"/>
			
				<linearGradient id="path12843_1_" gradientUnits="userSpaceOnUse" x1="543.2573" y1="185.8214" x2="549.2147" y2="179.8592" gradientTransform="matrix(0.9117 0 0 -0.9117 -180.3225 -66.6449)">
				<stop  offset="0" style="stop-color:#FFFFFF"/>
				<stop  offset="1" style="stop-color:#FFFFFF;stop-opacity:0"/>
			</linearGradient>
			<path id="path12843_3_" class="st4" d="M325-231.5c0,3-2.5,5.5-5.5,5.5s-5.5-2.5-5.5-5.5l0,0c0-3,2.5-5.5,5.5-5.5
				S325-234.5,325-231.5z"/>
		</g>
		<g id="g12845_3_">
			<path id="path12847_3_" class="st2" d="M307-233c0,2.8-2.2,5-5,5c-2.8,0-5-2.2-5-5c0-2.8,2.2-5,5-5S307-235.8,307-233L307-233z"
				/>
			
				<linearGradient id="path12849_1_" gradientUnits="userSpaceOnUse" x1="504.8082" y1="207.9911" x2="509.1888" y2="204.5106" gradientTransform="matrix(1.1428 0 0 -1.1428 -278.066 2.1401)">
				<stop  offset="0" style="stop-color:#FFFFFF"/>
				<stop  offset="1" style="stop-color:#FFFFFF;stop-opacity:0"/>
			</linearGradient>
			<path id="path12849_3_" class="st5" d="M307-233c0,2.8-2.2,5-5,5c-2.8,0-5-2.2-5-5c0-2.8,2.2-5,5-5S307-235.8,307-233L307-233z"
				/>
		</g>
		<g id="g12851_3_">
			<path id="path12853_3_" class="st2" d="M318-229c0,3.9-3.1,7-7,7c-3.9,0-7-3.1-7-7c0,0,0,0,0,0c0-3.9,3.1-7,7-7
				C314.9-236,318-232.9,318-229C318-229,318-229,318-229z"/>
			
				<linearGradient id="path12855_1_" gradientUnits="userSpaceOnUse" x1="520.3123" y1="196.0981" x2="527.9621" y2="190.2687" gradientTransform="matrix(1.0386 0 0 -1.0386 -234.2811 -29.0641)">
				<stop  offset="0" style="stop-color:#FFFFFF"/>
				<stop  offset="1" style="stop-color:#FFFFFF;stop-opacity:0"/>
			</linearGradient>
			<path id="path12855_3_" class="st6" d="M318-229c0,3.9-3.1,7-7,7c-3.9,0-7-3.1-7-7c0,0,0,0,0,0c0-3.9,3.1-7,7-7
				C314.9-236,318-232.9,318-229C318-229,318-229,318-229z"/>
		</g>
	</g>
	<g id="g11177_3_" transform="translate(208.8564,357.8851)">
		
			<linearGradient id="path11179_1_" gradientUnits="userSpaceOnUse" x1="-398.8697" y1="20.1723" x2="-399.9947" y2="7.4223" gradientTransform="matrix(1 0 0 -1 222.6616 -305.0449)">
			<stop  offset="0" style="stop-color:#FCAF3E"/>
			<stop  offset="1" style="stop-color:#FCAF3E;stop-opacity:0"/>
		</linearGradient>
		<path id="path11179_3_" class="st7" d="M-172.2-327.6l-3.1,4.3h3.8c0,0-2.7,4.5-7.6,12.9c2.1-7.9,3-11,3-11h-5.2l4-6.2H-172.2z"/>
		
			<linearGradient id="path11181_1_" gradientUnits="userSpaceOnUse" x1="-396.7077" y1="22.3496" x2="-402.4212" y2="18.3721" gradientTransform="matrix(1 0 0 -1 223.0151 -300.8022)">
			<stop  offset="0" style="stop-color:#FFFFFF"/>
			<stop  offset="1" style="stop-color:#FFFFFF;stop-opacity:0"/>
		</linearGradient>
		<path id="path11181_3_" class="st8" d="M-172.7-327.8l-3.7,5.2l4-0.2c0,0-0.1,0.5-5,8.9c2.1-7.9,2.1-8,2.1-8l-4.9,0.1l3.7-5.7
			L-172.7-327.8z"/>
	</g>
	<g id="g12857_6_" transform="translate(-215.0060,252.9994)">
		<path id="path12859_6_" class="st9" d="M246.5-238.5c-2.3,0-4.1,1.6-4.7,3.6c-0.7-0.4-1.4-0.6-2.3-0.6c-2.8,0-5,2.2-5,5
			c0,0.6,0.2,1.1,0.3,1.6c-1.4,0.8-2.3,2.2-2.3,3.9c0,2.5,2,4.5,4.5,4.5c0.2,0,18.8,0,19,0c2.5,0,4.5-2,4.5-4.5c0-1.7-1-3.1-2.3-3.9
			c0.2-0.5,0.3-1,0.3-1.6c0-2.8-2.2-5-5-5c-0.8,0-1.6,0.3-2.3,0.6C250.7-236.9,248.8-238.5,246.5-238.5z"/>
		
			<linearGradient id="path12861_1_" gradientUnits="userSpaceOnUse" x1="485.7618" y1="237.5789" x2="499.7687" y2="228.497" gradientTransform="matrix(1 0 0 -1 -249.0061 4.0007)">
			<stop  offset="0" style="stop-color:#FFFFFF"/>
			<stop  offset="1" style="stop-color:#FFFFFF;stop-opacity:0"/>
		</linearGradient>
		<path id="path12861_6_" class="st10" d="M246.5-238c-2.2,0-3.7,1.3-4.4,3.8c-0.7-0.3-1.5-0.8-2.4-0.8c-2.7,0-4.8,1.9-4.8,4.5
			c0,0.5,0.3,1.3,0.4,1.8c-1.3,0.7-2.4,1.9-2.4,3.4c0,2.3,1.5,4.3,4.3,4.3c0.2,0,18.2,0,18.3,0c2.8,0,4.3-1.9,4.3-4.3
			c0-1.6-1.1-2.7-2.4-3.4c0.2-0.5,0.5-1.3,0.5-1.8c0-2.6-2.1-4.6-4.8-4.6c-0.8,0-1.6,0.5-2.3,0.8C250.3-236.6,248.7-238,246.5-238z"
			/>
		<path id="path12863_3_" class="st2" d="M250-233.5c0,1.9-1.6,3.5-3.5,3.5c-1.9,0-3.5-1.6-3.5-3.5c0-1.9,1.6-3.5,3.5-3.5
			C248.5-237,250-235.4,250-233.5L250-233.5z"/>
		
			<linearGradient id="path12865_1_" gradientUnits="userSpaceOnUse" x1="496.6851" y1="242.045" x2="498.8441" y2="238.6142" gradientTransform="matrix(1.0566 0 0 -1.0566 -279.5443 20.2036)">
			<stop  offset="0" style="stop-color:#FFFFFF"/>
			<stop  offset="1" style="stop-color:#FFFFFF;stop-opacity:0"/>
		</linearGradient>
		<path id="path12865_3_" class="st11" d="M250-233.5c0,1.9-1.6,3.5-3.5,3.5c-1.9,0-3.5-1.6-3.5-3.5c0-1.9,1.6-3.5,3.5-3.5
			C248.5-237,250-235.4,250-233.5L250-233.5z"/>
		<rect id="rect12867_6_" x="237" y="-231" class="st2" width="20" height="9"/>
		<path id="path12869_6_" class="st2" d="M240-225c0,1.7-1.3,3-3,3c-1.7,0-3-1.3-3-3s1.3-3,3-3C238.7-228,240-226.7,240-225L240-225
			z"/>
		<path id="path12871_6_" class="st2" d="M257-230.5c0,1.9-1.6,3.5-3.5,3.5c-1.9,0-3.5-1.6-3.5-3.5c0-1.9,1.6-3.5,3.5-3.5
			C255.5-234,257-232.4,257-230.5L257-230.5z"/>
		
			<linearGradient id="path12873_1_" gradientUnits="userSpaceOnUse" x1="495.6602" y1="243.5632" x2="499.0023" y2="238.4169" gradientTransform="matrix(1.0566 0 0 -1.0566 -272.5443 23.2036)">
			<stop  offset="0" style="stop-color:#FFFFFF"/>
			<stop  offset="1" style="stop-color:#FFFFFF;stop-opacity:0"/>
		</linearGradient>
		<path id="path12873_6_" class="st12" d="M257-230.5c0,1.9-1.6,3.5-3.5,3.5c-1.9,0-3.5-1.6-3.5-3.5c0-1.9,1.6-3.5,3.5-3.5
			C255.5-234,257-232.4,257-230.5L257-230.5z"/>
		<path id="path12875_6_" class="st2" d="M243-230.5c0,1.9-1.6,3.5-3.5,3.5c-1.9,0-3.5-1.6-3.5-3.5c0-1.9,1.6-3.5,3.5-3.5
			C241.5-234,243-232.4,243-230.5L243-230.5z"/>
		
			<linearGradient id="path12877_1_" gradientUnits="userSpaceOnUse" x1="495.5281" y1="242.5168" x2="498.9785" y2="239.0207" gradientTransform="matrix(1.0566 0 0 -1.0566 -286.5443 23.2036)">
			<stop  offset="0" style="stop-color:#FFFFFF"/>
			<stop  offset="1" style="stop-color:#FFFFFF;stop-opacity:0"/>
		</linearGradient>
		<path id="path12877_6_" class="st13" d="M243-230.5c0,1.9-1.6,3.5-3.5,3.5c-1.9,0-3.5-1.6-3.5-3.5c0-1.9,1.6-3.5,3.5-3.5
			C241.5-234,243-232.4,243-230.5L243-230.5z"/>
		<path id="path12879_6_" class="st2" d="M245.5-234c-3.6,0-6.5,2.9-6.5,6.5c0,2.4,1.3,4.3,3.3,5.5h6.5c1.9-1.1,3.3-3.1,3.3-5.5
			C252-231.1,249.1-234,245.5-234z"/>
		
			<linearGradient id="path12881_1_" gradientUnits="userSpaceOnUse" x1="492.5956" y1="235.3548" x2="496.6292" y2="230.1681" gradientTransform="matrix(1 0 0 -1 -250.0061 4.0007)">
			<stop  offset="0" style="stop-color:#FFFFFF"/>
			<stop  offset="1" style="stop-color:#FFFFFF;stop-opacity:0"/>
		</linearGradient>
		<path id="path12881_6_" class="st14" d="M245.5-234c-3.6,0-6.5,2.9-6.5,6.5c0,2.4,1.3,4.4,3.3,5.5h6.5c1.9-1.1,3.3-3.1,3.3-5.5
			C252-231.1,249.1-234,245.5-234z"/>
		
			<linearGradient id="path12883_1_" gradientUnits="userSpaceOnUse" x1="512.2677" y1="225.5553" x2="515.3674" y2="222.7787" gradientTransform="matrix(0.9057 0 0 -0.9057 -228.6091 -22.2542)">
			<stop  offset="0" style="stop-color:#FFFFFF"/>
			<stop  offset="1" style="stop-color:#FFFFFF;stop-opacity:0"/>
		</linearGradient>
		<path id="path12883_6_" class="st15" d="M240-225c0,1.7-1.3,3-3,3s-3-1.3-3-3s1.3-3,3-3S240-226.7,240-225L240-225z"/>
		<path id="path12885_3_" class="st16" d="M259-230.3c0,2.7-3.3,3.7-3.3,3.7s2.3-1.6,2.3-3.7L259-230.3z"/>
		<path id="path12887_6_" class="st2" d="M254-226c0,2.2-1.8,4-4,4c-2.2,0-4-1.8-4-4c0-2.2,1.8-4,4-4C252.2-230,254-228.2,254-226
			L254-226z"/>
		
			<linearGradient id="path12889_1_" gradientUnits="userSpaceOnUse" x1="482.2381" y1="256.0287" x2="486.3355" y2="251.6268" gradientTransform="matrix(1.2075 0 0 -1.2075 -336.479 78.6614)">
			<stop  offset="0" style="stop-color:#FFFFFF"/>
			<stop  offset="1" style="stop-color:#FFFFFF;stop-opacity:0"/>
		</linearGradient>
		<path id="path12889_6_" class="st17" d="M254-226c0,2.2-1.8,4-4,4c-2.2,0-4-1.8-4-4c0-2.2,1.8-4,4-4C252.2-230,254-228.2,254-226
			L254-226z"/>
	</g>
	<g id="g11183_3_" transform="translate(192.8564,354.8851)">
		
			<linearGradient id="path11185_1_" gradientUnits="userSpaceOnUse" x1="-382.8697" y1="23.1723" x2="-383.9947" y2="10.4223" gradientTransform="matrix(1 0 0 -1 206.6616 -302.0449)">
			<stop  offset="0" style="stop-color:#FCAF3E"/>
			<stop  offset="1" style="stop-color:#FCAF3E;stop-opacity:0"/>
		</linearGradient>
		<path id="path11185_3_" class="st18" d="M-172.2-327.6l-3.1,4.3h3.8c0,0-2.7,4.5-7.6,12.9c2.1-7.9,3-11,3-11h-5.2l4-6.2H-172.2z"
			/>
		
			<linearGradient id="path11187_1_" gradientUnits="userSpaceOnUse" x1="-380.7077" y1="25.3496" x2="-386.4212" y2="21.3721" gradientTransform="matrix(1 0 0 -1 207.0151 -297.8022)">
			<stop  offset="0" style="stop-color:#FFFFFF"/>
			<stop  offset="1" style="stop-color:#FFFFFF;stop-opacity:0"/>
		</linearGradient>
		<path id="path11187_3_" class="st19" d="M-172.7-327.8l-3.7,5.2l4-0.2c0,0-0.1,0.5-5,8.9c2.1-7.9,2.1-8,2.1-8l-4.9,0.1l3.7-5.7
			L-172.7-327.8z"/>
	</g>
	
		<radialGradient id="path13209_1_" cx="-222.066" cy="267.1689" r="14.5014" gradientTransform="matrix(0.9309 0 0 -0.4482 238.2518 150.5069)" gradientUnits="userSpaceOnUse">
		<stop  offset="0" style="stop-color:#FFFFFF"/>
		<stop  offset="1" style="stop-color:#FFFFFF;stop-opacity:0"/>
	</radialGradient>
	<path id="path13209_3_" class="st20" d="M31.7,15c-2,0-3.7,1.1-4.5,2.6c-0.6-0.2-1.2-0.4-1.9-0.4c-2.8,0-5.1,2.1-5.1,4.7
		c0,0.5,0.1,0.9,0.3,1.3C19,24.1,18,25.5,18,27.2c0,2.7,0.7,5,5.2,4.8c0,0,17.5,0.1,17.7,0c3.1,0.2,4.1-2.4,4.1-4.7
		c0-1.7-0.8-3-2.3-3.9c0-0.3,0-0.6,0-0.8c0-2.6-2.3-4.7-5.1-4.7c-0.4,0-0.7,0.1-1.1,0.2C35.7,16.3,33.9,15,31.7,15z"/>
	<g id="g12891_3_" transform="translate(-230.0203,248.9834)">
		<path id="path12893_3_" class="st9" d="M246.5-238.5c-2.3,0-4.1,1.6-4.7,3.6c-0.7-0.4-1.4-0.6-2.3-0.6c-2.8,0-5,2.2-5,5
			c0,0.6,0.2,1.1,0.3,1.6c-1.4,0.8-2.3,2.2-2.3,3.9c0,2.5,2,4.5,4.5,4.5c0.2,0,18.8,0,19,0c2.5,0,4.5-2,4.5-4.5c0-1.7-1-3.1-2.3-3.9
			c0.2-0.5,0.3-1,0.3-1.6c0-2.8-2.2-5-5-5c-0.8,0-1.6,0.3-2.3,0.6C250.7-236.9,248.8-238.5,246.5-238.5z"/>
		
			<linearGradient id="path12895_1_" gradientUnits="userSpaceOnUse" x1="500.7761" y1="241.595" x2="514.783" y2="232.513" gradientTransform="matrix(1 0 0 -1 -264.0204 8.0167)">
			<stop  offset="0" style="stop-color:#FFFFFF"/>
			<stop  offset="1" style="stop-color:#FFFFFF;stop-opacity:0"/>
		</linearGradient>
		<path id="path12895_3_" class="st21" d="M246.5-238c-2.2,0-3.7,1.3-4.4,3.8c-0.7-0.3-1.5-0.8-2.4-0.8c-2.7,0-4.8,1.9-4.8,4.5
			c0,0.5,0.3,1.3,0.4,1.8c-1.3,0.7-2.4,1.9-2.4,3.4c0,2.3,1.5,4.3,4.3,4.3c0.2,0,18.2,0,18.3,0c2.8,0,4.3-1.9,4.3-4.3
			c0-1.6-1.1-2.7-2.4-3.4c0.2-0.5,0.5-1.3,0.5-1.8c0-2.6-2.1-4.6-4.8-4.6c-0.8,0-1.6,0.5-2.3,0.8C250.3-236.6,248.7-238,246.5-238z"
			/>
		<path id="path12897_3_" class="st2" d="M250-233.5c0,1.9-1.6,3.5-3.5,3.5c-1.9,0-3.5-1.6-3.5-3.5c0-1.9,1.6-3.5,3.5-3.5
			C248.5-237,250-235.4,250-233.5L250-233.5z"/>
		
			<linearGradient id="path12899_1_" gradientUnits="userSpaceOnUse" x1="511.6994" y1="246.061" x2="513.8584" y2="242.6302" gradientTransform="matrix(1.0566 0 0 -1.0566 -295.4084 24.447)">
			<stop  offset="0" style="stop-color:#FFFFFF"/>
			<stop  offset="1" style="stop-color:#FFFFFF;stop-opacity:0"/>
		</linearGradient>
		<path id="path12899_3_" class="st22" d="M250-233.5c0,1.9-1.6,3.5-3.5,3.5c-1.9,0-3.5-1.6-3.5-3.5c0-1.9,1.6-3.5,3.5-3.5
			C248.5-237,250-235.4,250-233.5L250-233.5z"/>
		<rect id="rect12901_3_" x="237" y="-231" class="st2" width="20" height="9"/>
		<path id="path12903_3_" class="st2" d="M240-225c0,1.7-1.3,3-3,3c-1.7,0-3-1.3-3-3s1.3-3,3-3C238.7-228,240-226.7,240-225L240-225
			z"/>
		<path id="path12905_3_" class="st2" d="M257-230.5c0,1.9-1.6,3.5-3.5,3.5c-1.9,0-3.5-1.6-3.5-3.5c0-1.9,1.6-3.5,3.5-3.5
			C255.5-234,257-232.4,257-230.5L257-230.5z"/>
		
			<linearGradient id="path12907_1_" gradientUnits="userSpaceOnUse" x1="510.6745" y1="247.5792" x2="514.0166" y2="242.433" gradientTransform="matrix(1.0566 0 0 -1.0566 -288.4084 27.447)">
			<stop  offset="0" style="stop-color:#FFFFFF"/>
			<stop  offset="1" style="stop-color:#FFFFFF;stop-opacity:0"/>
		</linearGradient>
		<path id="path12907_3_" class="st23" d="M257-230.5c0,1.9-1.6,3.5-3.5,3.5c-1.9,0-3.5-1.6-3.5-3.5c0-1.9,1.6-3.5,3.5-3.5
			C255.5-234,257-232.4,257-230.5L257-230.5z"/>
		<path id="path12909_3_" class="st2" d="M243-230.5c0,1.9-1.6,3.5-3.5,3.5c-1.9,0-3.5-1.6-3.5-3.5c0-1.9,1.6-3.5,3.5-3.5
			C241.5-234,243-232.4,243-230.5L243-230.5z"/>
		
			<linearGradient id="path12911_1_" gradientUnits="userSpaceOnUse" x1="510.5424" y1="246.5328" x2="513.9928" y2="243.0367" gradientTransform="matrix(1.0566 0 0 -1.0566 -302.4084 27.447)">
			<stop  offset="0" style="stop-color:#FFFFFF"/>
			<stop  offset="1" style="stop-color:#FFFFFF;stop-opacity:0"/>
		</linearGradient>
		<path id="path12911_3_" class="st24" d="M243-230.5c0,1.9-1.6,3.5-3.5,3.5c-1.9,0-3.5-1.6-3.5-3.5c0-1.9,1.6-3.5,3.5-3.5
			C241.5-234,243-232.4,243-230.5L243-230.5z"/>
		<path id="path12913_3_" class="st2" d="M245.5-234c-3.6,0-6.5,2.9-6.5,6.5c0,2.4,1.3,4.3,3.3,5.5h6.5c1.9-1.1,3.3-3.1,3.3-5.5
			C252-231.1,249.1-234,245.5-234z"/>
		
			<linearGradient id="path12915_1_" gradientUnits="userSpaceOnUse" x1="507.6099" y1="239.3708" x2="511.6434" y2="234.1841" gradientTransform="matrix(1 0 0 -1 -265.0204 8.0167)">
			<stop  offset="0" style="stop-color:#FFFFFF"/>
			<stop  offset="1" style="stop-color:#FFFFFF;stop-opacity:0"/>
		</linearGradient>
		<path id="path12915_3_" class="st25" d="M245.5-234c-3.6,0-6.5,2.9-6.5,6.5c0,2.4,1.3,4.4,3.3,5.5h6.5c1.9-1.1,3.3-3.1,3.3-5.5
			C252-231.1,249.1-234,245.5-234z"/>
		
			<linearGradient id="path12917_1_" gradientUnits="userSpaceOnUse" x1="527.282" y1="229.5713" x2="530.3818" y2="226.7947" gradientTransform="matrix(0.9057 0 0 -0.9057 -242.207 -18.617)">
			<stop  offset="0" style="stop-color:#FFFFFF"/>
			<stop  offset="1" style="stop-color:#FFFFFF;stop-opacity:0"/>
		</linearGradient>
		<path id="path12917_3_" class="st26" d="M240-225c0,1.7-1.3,3-3,3s-3-1.3-3-3s1.3-3,3-3S240-226.7,240-225L240-225z"/>
		<path id="path12919_3_" class="st16" d="M259-230.3c0,2.7-3.3,3.7-3.3,3.7s2.3-1.6,2.3-3.7L259-230.3z"/>
		<path id="path12921_3_" class="st2" d="M254-226c0,2.2-1.8,4-4,4c-2.2,0-4-1.8-4-4c0-2.2,1.8-4,4-4C252.2-230,254-228.2,254-226
			L254-226z"/>
		
			<linearGradient id="path12923_1_" gradientUnits="userSpaceOnUse" x1="497.2524" y1="260.0447" x2="501.3498" y2="255.6428" gradientTransform="matrix(1.2075 0 0 -1.2075 -354.6095 83.5109)">
			<stop  offset="0" style="stop-color:#FFFFFF"/>
			<stop  offset="1" style="stop-color:#FFFFFF;stop-opacity:0"/>
		</linearGradient>
		<path id="path12923_3_" class="st27" d="M254-226c0,2.2-1.8,4-4,4c-2.2,0-4-1.8-4-4c0-2.2,1.8-4,4-4C252.2-230,254-228.2,254-226
			L254-226z"/>
	</g>
	
		<radialGradient id="path11418_1_" cx="-222.066" cy="267.1689" r="14.5014" gradientTransform="matrix(0.9309 0 0 -0.4482 222.8143 146.5074)" gradientUnits="userSpaceOnUse">
		<stop  offset="0" style="stop-color:#FFFFFF"/>
		<stop  offset="1" style="stop-color:#FFFFFF;stop-opacity:0"/>
	</radialGradient>
	<path id="path11418_3_" class="st28" d="M16.2,11c-2,0-3.7,1.1-4.5,2.6c-0.6-0.2-1.2-0.4-1.9-0.4c-2.8,0-5.1,2.1-5.1,4.7
		c0,0.5,0.1,0.9,0.3,1.3c-1.4,0.9-2.3,2.3-2.3,3.9c0,2.7,0.7,5,5.2,4.8c0,0,17.5,0.1,17.7,0c3.1,0.2,4.1-2.4,4.1-4.7
		c0-1.7-0.8-3-2.3-3.9c0-0.3,0-0.6,0-0.8c0-2.6-2.3-4.7-5.1-4.7c-0.4,0-0.7,0.1-1.1,0.2C20.3,12.3,18.4,11,16.2,11z"/>
	<g id="g12227_8_" transform="translate(-202.9549,271.0066)">
		<path id="path12229_8_" class="st29" d="M224.2-225.4c-1-0.6-1.4-1.9-0.8-2.9c1.3-2.1,3.1-1.5,4-3.7
			C228.7-230.7,228.2-223.8,224.2-225.4z"/>
		
			<radialGradient id="path12231_1_" cx="1776.3925" cy="-79.2079" r="21.7436" gradientTransform="matrix(7.065158e-02 4.154803e-02 6.201499e-02 -0.1094 104.7319 -309.882)" gradientUnits="userSpaceOnUse">
			<stop  offset="0" style="stop-color:#FFFFFF"/>
			<stop  offset="1" style="stop-color:#FFFFFF;stop-opacity:0"/>
		</radialGradient>
		<path id="path12231_8_" class="st30" d="M226.9-226.5c-0.5,0.9-1.6,1.2-2.4,0.7c-0.8-0.5-1.1-1.6-0.6-2.5c0.5-0.9,2.6-0.5,3.3-2.3
			C228-230.1,227.4-227.4,226.9-226.5z"/>
		
			<linearGradient id="path12233_1_" gradientUnits="userSpaceOnUse" x1="436.4167" y1="1462.3793" x2="456.9228" y2="1483.8577" gradientTransform="matrix(-5.358613e-02 0.1028 9.281434e-02 5.937964e-02 112.214 -361.9624)">
			<stop  offset="0" style="stop-color:#FFFFFF"/>
			<stop  offset="1" style="stop-color:#FFFFFF;stop-opacity:0"/>
		</linearGradient>
		<path id="path12233_22_" class="st31" d="M225.6-225.6c-4.6-1.1,0.2-4.7,1-3.9C223-228.2,225.6-225.6,225.6-225.6z"/>
	</g>
	<g id="g12191_8_" transform="translate(-222.9549,261.0144)">
		<path id="path12193_8_" class="st29" d="M229.2-229.4c-1-0.6-1.4-1.9-0.8-2.9c1.3-2.1,3.1-1.5,4-3.7
			C233.7-234.7,233.2-227.8,229.2-229.4z"/>
		
			<radialGradient id="path12195_1_" cx="1825.4014" cy="-21.639" r="21.7436" gradientTransform="matrix(7.065158e-02 4.154803e-02 6.201499e-02 -0.1094 102.6992 -309.6197)" gradientUnits="userSpaceOnUse">
			<stop  offset="0" style="stop-color:#FFFFFF"/>
			<stop  offset="1" style="stop-color:#FFFFFF;stop-opacity:0"/>
		</radialGradient>
		<path id="path12195_8_" class="st32" d="M231.9-230.5c-0.5,0.9-1.6,1.2-2.4,0.7c-0.8-0.5-1.1-1.6-0.6-2.5c0.5-0.9,2.6-0.5,3.3-2.3
			C233-234.1,232.4-231.4,231.9-230.5z"/>
		
			<linearGradient id="path12197_1_" gradientUnits="userSpaceOnUse" x1="403.9209" y1="1495.9341" x2="424.427" y2="1517.4125" gradientTransform="matrix(-5.358613e-02 0.1028 9.281434e-02 5.937964e-02 112.3583 -364.6127)">
			<stop  offset="0" style="stop-color:#FFFFFF"/>
			<stop  offset="1" style="stop-color:#FFFFFF;stop-opacity:0"/>
		</linearGradient>
		<path id="path12197_8_" class="st33" d="M230.6-229.6c-4.6-1.1,0.2-4.7,1-3.9C228-232.2,230.6-229.6,230.6-229.6z"/>
	</g>
	<g id="g12239_22_" transform="translate(-193.9565,268.0066)">
		<path id="path12241_22_" class="st29" d="M228.2-237.4c-1-0.6-1.4-1.9-0.8-2.9c1.3-2.1,3.1-1.5,4-3.7
			C232.7-242.7,232.2-235.8,228.2-237.4z"/>
		
			<radialGradient id="path12243_1_" cx="1737.6508" cy="22.1782" r="21.7436" gradientTransform="matrix(7.065158e-02 4.154803e-02 6.201499e-02 -0.1094 105.1816 -309.1799)" gradientUnits="userSpaceOnUse">
			<stop  offset="0" style="stop-color:#FFFFFF"/>
			<stop  offset="1" style="stop-color:#FFFFFF;stop-opacity:0"/>
		</radialGradient>
		<path id="path12243_8_" class="st34" d="M230.9-238.5c-0.5,0.9-1.6,1.2-2.4,0.7c-0.8-0.5-1.1-1.6-0.6-2.5c0.5-0.9,2.6-0.5,3.3-2.3
			C232-242.1,231.4-239.4,230.9-238.5z"/>
		
			<linearGradient id="path12245_1_" gradientUnits="userSpaceOnUse" x1="321.2498" y1="1447.1799" x2="341.7559" y2="1468.6583" gradientTransform="matrix(-5.358613e-02 0.1028 9.281434e-02 5.937964e-02 111.4534 -361.215)">
			<stop  offset="0" style="stop-color:#FFFFFF"/>
			<stop  offset="1" style="stop-color:#FFFFFF;stop-opacity:0"/>
		</linearGradient>
		<path id="path12245_8_" class="st35" d="M229.6-237.6c-4.6-1.1,0.2-4.7,1-3.9C227-240.2,229.6-237.6,229.6-237.6z"/>
	</g>
	<g>
		<polygon class="st36" points="40.5,38.9 37.5,38.9 36,41.5 37.5,44.1 40.5,44.1 42,41.5 		"/>
		<linearGradient id="SVGID_1_" gradientUnits="userSpaceOnUse" x1="38.4737" y1="39.9663" x2="40.2962" y2="41.8753">
			<stop  offset="0" style="stop-color:#FFFFFF"/>
			<stop  offset="1" style="stop-color:#FFFFFF;stop-opacity:0"/>
		</linearGradient>
		<polygon class="st37" points="40.7,40.3 39.3,40.3 38.5,41.5 39.3,42.8 40.7,42.8 41.4,41.5 		"/>
	</g>
	<g>
		<polygon class="st36" points="26.6,23.8 23.6,23.8 22.1,26.4 23.6,29 26.6,29 28.1,26.4 		"/>
		<linearGradient id="SVGID_2_" gradientUnits="userSpaceOnUse" x1="24.4977" y1="24.8271" x2="26.3202" y2="26.736">
			<stop  offset="0" style="stop-color:#FFFFFF"/>
			<stop  offset="1" style="stop-color:#FFFFFF;stop-opacity:0"/>
		</linearGradient>
		<polygon class="st38" points="26.7,25.2 25.3,25.2 24.6,26.4 25.3,27.6 26.7,27.6 27.4,26.4 		"/>
	</g>
	<g>
		<polygon class="st36" points="10.1,37 7.1,37 5.6,39.6 7.1,42.2 10.1,42.2 11.6,39.6 		"/>
		<linearGradient id="SVGID_3_" gradientUnits="userSpaceOnUse" x1="8.0357" y1="37.9891" x2="9.8582" y2="39.898">
			<stop  offset="0" style="stop-color:#FFFFFF"/>
			<stop  offset="1" style="stop-color:#FFFFFF;stop-opacity:0"/>
		</linearGradient>
		<polygon class="st39" points="10.3,38.3 8.8,38.3 8.1,39.6 8.8,40.8 10.3,40.8 11,39.6 		"/>
	</g>
</g>
</svg>
