<?xml version="1.0" encoding="utf-8"?>
<!-- Generator: Adobe Illustrator 24.0.1, SVG Export Plug-In . SVG Version: 6.00 Build 0)  -->
<svg version="1.1"
	 id="svg1306" xmlns:cc="http://creativecommons.org/ns#" xmlns:dc="http://purl.org/dc/elements/1.1/" xmlns:inkscape="http://www.inkscape.org/namespaces/inkscape" xmlns:rdf="http://www.w3.org/1999/02/22-rdf-syntax-ns#" xmlns:sodipodi="http://sodipodi.sourceforge.net/DTD/sodipodi-0.dtd" xmlns:svg="http://www.w3.org/2000/svg"
	 xmlns="http://www.w3.org/2000/svg" xmlns:xlink="http://www.w3.org/1999/xlink" x="0px" y="0px" viewBox="0 0 48 48"
	 style="enable-background:new 0 0 48 48;" xml:space="preserve">
<style type="text/css">
	.st0{fill:#FFFFFF;stroke:#729FCF;stroke-width:1;stroke-miterlimit:10;}
	.st1{fill:#FFFFFF;stroke:#729FCF;stroke-width:0.75;stroke-miterlimit:10;}
	.st2{fill:#FFFFFF;stroke:#729FCF;stroke-width:0.5;stroke-miterlimit:10;}
</style>
<path id="rect2991" class="st0" d="M20.7,3.9v3.3l-2.5-1.4L17,7.9l3.7,2.1v4.8l-4.2-2.4l0-4.3l-2.5,0l0,2.9l-2.8-1.6L10,11.5
	l2.8,1.6l-2.5,1.4l1.2,2.2l3.7-2.1l4.2,2.4l-4.2,2.4l-3.7-2.1l-1.2,2.2l2.5,1.4L10,22.5l1.2,2.2l2.8-1.6l0,2.8l2.5,0l0-4.3l4.2-2.4
	V24L17,26.1l1.2,2.2l2.5-1.4v3.3h2.5v-3.3l2.5,1.4l1.2-2.2L23.3,24v-4.8l4.2,2.4l0,4.3l2.5,0l0-2.9l2.8,1.6l1.2-2.2l-2.8-1.6
	l2.5-1.4l-1.2-2.2l-3.7,2.1L24.5,17l4.2-2.4l3.7,2.1l1.2-2.2l-2.5-1.4l2.8-1.6l-1.2-2.2L29.9,11l0-2.8l-2.5,0l0,4.3l-4.2,2.4V10
	L27,7.9l-1.2-2.2l-2.5,1.4V3.9H20.7z"/>
<path id="rect2991_2_" class="st1" d="M34.2,25.4v2.2l-1.6-0.9L31.7,28l2.5,1.4v3.2l-2.8-1.6l0-2.9l-1.7,0l0,1.9L27.9,29L27,30.5
	l1.9,1.1l-1.6,0.9l0.8,1.4l2.5-1.4l2.8,1.6l-2.8,1.6l-2.5-1.4l-0.8,1.4l1.7,1L27,37.8l0.8,1.4l1.9-1.1l0,1.9l1.7,0l0-2.9l2.8-1.6
	v3.2l-2.5,1.4l0.8,1.4l1.6-1v2.2h1.7v-2.2l1.6,0.9l0.8-1.4l-2.5-1.4v-3.2l2.8,1.6l0,2.9l1.7,0l0-1.9l1.9,1.1l0.8-1.4l-1.9-1.1
	l1.6-0.9L42,34.3l-2.5,1.4l-2.8-1.6l2.8-1.6l2.5,1.4l0.8-1.4l-1.7-1l1.9-1.1L42.2,29l-1.9,1.1l0-1.9l-1.7,0l0,2.9l-2.8,1.6v-3.2
	l2.5-1.4l-0.8-1.4l-1.6,1v-2.2H34.2z"/>
<path id="rect2991_1_" class="st2" d="M9.9,27.3v1.7l-1.2-0.7L8,29.3l1.9,1.1v2.5l-2.1-1.2l0-2.2l-1.2,0l0,1.5l-1.4-0.8l-0.6,1.1
	L5.9,32l-1.2,0.7l0.6,1.1l1.9-1.1L9.2,34l-2.1,1.2l-1.9-1.1l-0.6,1.1L5.9,36l-1.4,0.8l0.6,1.1l1.4-0.8l0,1.5l1.2,0l0-2.2l2.1-1.2
	v2.5L8,38.7l0.6,1.1L9.9,39v1.7h1.2v-1.7l1.2,0.7l0.6-1.1l-1.9-1.1v-2.5l2.1,1.2l0,2.2l1.2,0l0-1.5l1.4,0.8l0.6-1.1L15.1,36l1.2-0.7
	l-0.6-1.1l-1.9,1.1L11.7,34l2.1-1.2l1.9,1.1l0.6-1.1L15.1,32l1.4-0.8l-0.6-1.1l-1.4,0.8l0-1.5l-1.2,0l0,2.2l-2.1,1.2v-2.5l1.9-1.1
	l-0.6-1.1L11.1,29v-1.7H9.9z"/>
</svg>
