<?xml version="1.0" encoding="utf-8"?>
<!-- Generator: Adobe Illustrator 24.0.1, SVG Export Plug-In . SVG Version: 6.00 Build 0)  -->
<svg version="1.1"
	 id="svg1306" xmlns:cc="http://creativecommons.org/ns#" xmlns:dc="http://purl.org/dc/elements/1.1/" xmlns:inkscape="http://www.inkscape.org/namespaces/inkscape" xmlns:rdf="http://www.w3.org/1999/02/22-rdf-syntax-ns#" xmlns:sodipodi="http://sodipodi.sourceforge.net/DTD/sodipodi-0.dtd" xmlns:svg="http://www.w3.org/2000/svg"
	 xmlns="http://www.w3.org/2000/svg" xmlns:xlink="http://www.w3.org/1999/xlink" x="0px" y="0px" viewBox="0 0 48 48"
	 style="enable-background:new 0 0 48 48;" xml:space="preserve">
<style type="text/css">
	.st0{fill:#888A85;stroke:#555753;stroke-width:0.9998;stroke-miterlimit:1.9993;}
	.st1{fill:url(#path12582_1_);}
	.st2{fill:#888A85;}
	.st3{opacity:0.4778;fill:url(#path12586_1_);enable-background:new    ;}
	.st4{opacity:0.4778;fill:url(#path12595_1_);enable-background:new    ;}
	.st5{opacity:0.4778;fill:url(#path12599_1_);enable-background:new    ;}
	.st6{opacity:0.4778;fill:url(#path12603_1_);enable-background:new    ;}
	.st7{opacity:0.4778;fill:url(#path12605_1_);enable-background:new    ;}
	.st8{fill-rule:evenodd;clip-rule:evenodd;fill:#555753;}
	.st9{opacity:0.4778;fill:url(#path12611_1_);enable-background:new    ;}
	.st10{fill:url(#path12331_1_);}
	.st11{opacity:0.4778;fill:url(#path12335_1_);enable-background:new    ;}
	.st12{opacity:0.4778;fill:url(#path12343_1_);enable-background:new    ;}
	.st13{opacity:0.4778;fill:url(#path12349_1_);enable-background:new    ;}
	.st14{opacity:0.4778;fill:url(#path12353_1_);enable-background:new    ;}
	.st15{opacity:0.4778;fill:url(#path12355_1_);enable-background:new    ;}
	.st16{opacity:0.4778;fill:url(#path12361_1_);enable-background:new    ;}
	.st17{opacity:0.4778;fill:url(#SVGID_1_);enable-background:new    ;}
	.st18{opacity:0.4778;fill:url(#SVGID_2_);enable-background:new    ;}
	.st19{opacity:0.4778;fill:url(#SVGID_3_);enable-background:new    ;}
	.st20{opacity:0.4778;fill:url(#SVGID_4_);enable-background:new    ;}
	.st21{opacity:0.4778;fill:url(#SVGID_5_);enable-background:new    ;}
	.st22{opacity:0.4778;fill:url(#SVGID_6_);enable-background:new    ;}
</style>
<g id="layer1_36_">
	<g id="g12627_8_" transform="matrix(0.999675,0.000000,0.000000,1.000000,-286.8482,245.0001)">
		<g id="g12578_8_" transform="translate(72.00007,7.999930)">
			<path id="path12580_8_" class="st0" d="M246.5-247c-2.3,0-4.1,1.6-4.7,3.6c-0.7-0.4-1.4-0.6-2.3-0.6c-2.8,0-5,2.2-5,5
				c0,0.6,0.2,1.1,0.3,1.6c-1.4,0.8-2.3,2.2-2.3,3.9c0,2.5,2,4.5,4.5,4.5c0.2,0,18.8,0,19,0c2.5,0,4.5-2,4.5-4.5
				c0-1.7-1-3.1-2.3-3.9c0.2-0.5,0.3-1,0.3-1.6c0-2.8-2.2-5-5-5c-0.8,0-1.6,0.3-2.3,0.6C250.6-245.4,248.8-247,246.5-247z"/>
			
				<linearGradient id="path12582_1_" gradientUnits="userSpaceOnUse" x1="485.778" y1="246.0628" x2="499.7849" y2="236.9809" gradientTransform="matrix(0.9997 0 0 -1 -248.9051 4.0001)">
				<stop  offset="0" style="stop-color:#FFFFFF"/>
				<stop  offset="1" style="stop-color:#FFFFFF;stop-opacity:0"/>
			</linearGradient>
			<path id="path12582_8_" class="st1" d="M246.5-246.5c-2.2,0-3.7,1.3-4.4,3.8c-0.7-0.3-1.5-0.8-2.4-0.8c-2.7,0-4.8,1.9-4.8,4.5
				c0,0.5,0.3,1.3,0.4,1.8c-1.3,0.7-2.4,1.9-2.4,3.4c0,2.3,1.5,4.3,4.3,4.3c0.2,0,18.2,0,18.3,0c2.8,0,4.3-1.9,4.3-4.3
				c0-1.6-1.1-2.7-2.4-3.4c0.2-0.5,0.5-1.3,0.5-1.8c0-2.6-2.1-4.6-4.8-4.6c-0.8,0-1.6,0.5-2.3,0.8
				C250.3-245.1,248.7-246.5,246.5-246.5z"/>
			<path id="path12584_8_" class="st2" d="M250-242c0,1.9-1.6,3.5-3.5,3.5c-1.9,0-3.5-1.6-3.5-3.5c0-1.9,1.6-3.5,3.5-3.5
				C248.4-245.5,250-243.9,250-242L250-242z"/>
			
				<linearGradient id="path12586_1_" gradientUnits="userSpaceOnUse" x1="496.7053" y1="250.0743" x2="498.8643" y2="246.6435" gradientTransform="matrix(1.0563 0 0 -1.0566 -279.4356 20.203)">
				<stop  offset="0" style="stop-color:#FFFFFF"/>
				<stop  offset="1" style="stop-color:#FFFFFF;stop-opacity:0"/>
			</linearGradient>
			<path id="path12586_8_" class="st3" d="M250-242c0,1.9-1.6,3.5-3.5,3.5c-1.9,0-3.5-1.6-3.5-3.5c0-1.9,1.6-3.5,3.5-3.5
				C248.4-245.5,250-243.9,250-242L250-242z"/>
			<rect id="rect12588_8_" x="237" y="-239.5" class="st2" width="20" height="9"/>
			<path id="path12591_8_" class="st2" d="M240-233.5c0,1.7-1.3,3-3,3s-3-1.3-3-3s1.3-3,3-3S240-235.1,240-233.5L240-233.5z"/>
			<path id="path12593_8_" class="st2" d="M257-239c0,1.9-1.6,3.5-3.5,3.5c-1.9,0-3.5-1.6-3.5-3.5c0-1.9,1.6-3.5,3.5-3.5
				C255.4-242.5,257-240.9,257-239L257-239z"/>
			
				<linearGradient id="path12595_1_" gradientUnits="userSpaceOnUse" x1="495.6801" y1="251.5925" x2="499.0222" y2="246.4463" gradientTransform="matrix(1.0563 0 0 -1.0566 -272.4356 23.203)">
				<stop  offset="0" style="stop-color:#FFFFFF"/>
				<stop  offset="1" style="stop-color:#FFFFFF;stop-opacity:0"/>
			</linearGradient>
			<path id="path12595_8_" class="st4" d="M257-239c0,1.9-1.6,3.5-3.5,3.5c-1.9,0-3.5-1.6-3.5-3.5c0-1.9,1.6-3.5,3.5-3.5
				C255.4-242.5,257-240.9,257-239L257-239z"/>
			<path id="path12597_8_" class="st2" d="M243-239c0,1.9-1.6,3.5-3.5,3.5c-1.9,0-3.5-1.6-3.5-3.5c0-1.9,1.6-3.5,3.5-3.5
				C241.4-242.5,243-240.9,243-239L243-239z"/>
			
				<linearGradient id="path12599_1_" gradientUnits="userSpaceOnUse" x1="495.5479" y1="250.5461" x2="498.9983" y2="247.05" gradientTransform="matrix(1.0563 0 0 -1.0566 -286.4356 23.203)">
				<stop  offset="0" style="stop-color:#FFFFFF"/>
				<stop  offset="1" style="stop-color:#FFFFFF;stop-opacity:0"/>
			</linearGradient>
			<path id="path12599_8_" class="st5" d="M243-239c0,1.9-1.6,3.5-3.5,3.5c-1.9,0-3.5-1.6-3.5-3.5c0-1.9,1.6-3.5,3.5-3.5
				C241.4-242.5,243-240.9,243-239L243-239z"/>
			<path id="path12601_8_" class="st2" d="M245.5-242.5c-3.6,0-6.5,2.9-6.5,6.5c0,2.4,1.3,4.3,3.3,5.5h6.5c1.9-1.1,3.3-3.1,3.3-5.5
				C252-239.6,249-242.5,245.5-242.5z"/>
			
				<linearGradient id="path12603_1_" gradientUnits="userSpaceOnUse" x1="492.6141" y1="243.8387" x2="496.6476" y2="238.652" gradientTransform="matrix(0.9997 0 0 -1 -249.9051 4.0001)">
				<stop  offset="0" style="stop-color:#FFFFFF"/>
				<stop  offset="1" style="stop-color:#FFFFFF;stop-opacity:0"/>
			</linearGradient>
			<path id="path12603_8_" class="st6" d="M245.5-242.5c-3.6,0-6.5,2.9-6.5,6.5c0,2.4,1.3,4.4,3.3,5.5h6.5c1.9-1.1,3.3-3.1,3.3-5.5
				C252-239.6,249.1-242.5,245.5-242.5z"/>
			
				<linearGradient id="path12605_1_" gradientUnits="userSpaceOnUse" x1="512.2918" y1="234.9229" x2="515.3915" y2="232.1464" gradientTransform="matrix(0.9054 0 0 -0.9057 -228.5208 -22.2547)">
				<stop  offset="0" style="stop-color:#FFFFFF"/>
				<stop  offset="1" style="stop-color:#FFFFFF;stop-opacity:0"/>
			</linearGradient>
			<path id="path12605_8_" class="st7" d="M240-233.5c0,1.7-1.3,3-3,3c-1.7,0-3-1.3-3-3s1.3-3,3-3C238.7-236.5,240-235.1,240-233.5
				L240-233.5z"/>
			<path id="path12607_8_" class="st8" d="M259-238.8c0,2.7-3.3,3.7-3.3,3.7s2.3-1.6,2.3-3.7L259-238.8z"/>
			<path id="path12609_8_" class="st2" d="M254-234.5c0,2.2-1.8,4-4,4c-2.2,0-4-1.8-4-4c0-2.2,1.8-4,4-4
				C252.2-238.5,254-236.7,254-234.5L254-234.5z"/>
			
				<linearGradient id="path12611_1_" gradientUnits="userSpaceOnUse" x1="482.2545" y1="263.0543" x2="486.3518" y2="258.6524" gradientTransform="matrix(1.2072 0 0 -1.2075 -336.3501 78.6607)">
				<stop  offset="0" style="stop-color:#FFFFFF"/>
				<stop  offset="1" style="stop-color:#FFFFFF;stop-opacity:0"/>
			</linearGradient>
			<path id="path12611_8_" class="st9" d="M254-234.5c0,2.2-1.8,4-4,4c-2.2,0-4-1.8-4-4c0-2.2,1.8-4,4-4
				C252.2-238.5,254-236.7,254-234.5L254-234.5z"/>
		</g>
		<g id="g12393_8_" transform="translate(56.98577,3.983930)">
			<path id="path12329_8_" class="st0" d="M246.5-247c-2.3,0-4.1,1.6-4.7,3.6c-0.7-0.4-1.4-0.6-2.3-0.6c-2.8,0-5,2.2-5,5
				c0,0.6,0.2,1.1,0.3,1.6c-1.4,0.8-2.3,2.2-2.3,3.9c0,2.5,2,4.5,4.5,4.5c0.2,0,18.8,0,19,0c2.5,0,4.5-2,4.5-4.5
				c0-1.7-1-3.1-2.3-3.9c0.2-0.5,0.3-1,0.3-1.6c0-2.8-2.2-5-5-5c-0.8,0-1.6,0.3-2.3,0.6C250.6-245.4,248.8-247,246.5-247z"/>
			
				<linearGradient id="path12331_1_" gradientUnits="userSpaceOnUse" x1="500.7923" y1="250.0788" x2="514.7992" y2="240.9969" gradientTransform="matrix(0.9997 0 0 -1 -263.9145 8.0161)">
				<stop  offset="0" style="stop-color:#FFFFFF"/>
				<stop  offset="1" style="stop-color:#FFFFFF;stop-opacity:0"/>
			</linearGradient>
			<path id="path12331_8_" class="st10" d="M246.5-246.5c-2.2,0-3.7,1.3-4.4,3.8c-0.7-0.3-1.5-0.8-2.4-0.8c-2.7,0-4.8,1.9-4.8,4.5
				c0,0.5,0.3,1.3,0.4,1.8c-1.3,0.7-2.4,1.9-2.4,3.4c0,2.3,1.5,4.3,4.3,4.3c0.2,0,18.2,0,18.3,0c2.8,0,4.3-1.9,4.3-4.3
				c0-1.6-1.1-2.7-2.4-3.4c0.2-0.5,0.5-1.3,0.5-1.8c0-2.6-2.1-4.6-4.8-4.6c-0.8,0-1.6,0.5-2.3,0.8
				C250.3-245.1,248.7-246.5,246.5-246.5z"/>
			<path id="path12333_8_" class="st2" d="M250-242c0,1.9-1.6,3.5-3.5,3.5c-1.9,0-3.5-1.6-3.5-3.5c0-1.9,1.6-3.5,3.5-3.5
				C248.4-245.5,250-243.9,250-242L250-242z"/>
			
				<linearGradient id="path12335_1_" gradientUnits="userSpaceOnUse" x1="511.7196" y1="254.0903" x2="513.8786" y2="250.6595" gradientTransform="matrix(1.0563 0 0 -1.0566 -295.2946 24.4463)">
				<stop  offset="0" style="stop-color:#FFFFFF"/>
				<stop  offset="1" style="stop-color:#FFFFFF;stop-opacity:0"/>
			</linearGradient>
			<path id="path12335_8_" class="st11" d="M250-242c0,1.9-1.6,3.5-3.5,3.5c-1.9,0-3.5-1.6-3.5-3.5c0-1.9,1.6-3.5,3.5-3.5
				C248.4-245.5,250-243.9,250-242L250-242z"/>
			<rect id="rect12337_8_" x="237" y="-239.5" class="st2" width="20" height="9"/>
			<path id="path12339_8_" class="st2" d="M240-233.5c0,1.7-1.3,3-3,3s-3-1.3-3-3s1.3-3,3-3S240-235.1,240-233.5L240-233.5z"/>
			<path id="path12341_8_" class="st2" d="M257-239c0,1.9-1.6,3.5-3.5,3.5c-1.9,0-3.5-1.6-3.5-3.5c0-1.9,1.6-3.5,3.5-3.5
				C255.4-242.5,257-240.9,257-239L257-239z"/>
			
				<linearGradient id="path12343_1_" gradientUnits="userSpaceOnUse" x1="510.6944" y1="255.6085" x2="514.0364" y2="250.4623" gradientTransform="matrix(1.0563 0 0 -1.0566 -288.2946 27.4463)">
				<stop  offset="0" style="stop-color:#FFFFFF"/>
				<stop  offset="1" style="stop-color:#FFFFFF;stop-opacity:0"/>
			</linearGradient>
			<path id="path12343_8_" class="st12" d="M257-239c0,1.9-1.6,3.5-3.5,3.5c-1.9,0-3.5-1.6-3.5-3.5c0-1.9,1.6-3.5,3.5-3.5
				C255.4-242.5,257-240.9,257-239L257-239z"/>
			<path id="path12347_8_" class="st2" d="M243-239c0,1.9-1.6,3.5-3.5,3.5c-1.9,0-3.5-1.6-3.5-3.5c0-1.9,1.6-3.5,3.5-3.5
				C241.4-242.5,243-240.9,243-239L243-239z"/>
			
				<linearGradient id="path12349_1_" gradientUnits="userSpaceOnUse" x1="510.5622" y1="254.5621" x2="514.0126" y2="251.066" gradientTransform="matrix(1.0563 0 0 -1.0566 -302.2946 27.4463)">
				<stop  offset="0" style="stop-color:#FFFFFF"/>
				<stop  offset="1" style="stop-color:#FFFFFF;stop-opacity:0"/>
			</linearGradient>
			<path id="path12349_8_" class="st13" d="M243-239c0,1.9-1.6,3.5-3.5,3.5c-1.9,0-3.5-1.6-3.5-3.5c0-1.9,1.6-3.5,3.5-3.5
				C241.4-242.5,243-240.9,243-239L243-239z"/>
			<path id="path12351_8_" class="st2" d="M245.5-242.5c-3.6,0-6.5,2.9-6.5,6.5c0,2.4,1.3,4.3,3.3,5.5h6.5c1.9-1.1,3.3-3.1,3.3-5.5
				C252-239.6,249-242.5,245.5-242.5z"/>
			
				<linearGradient id="path12353_1_" gradientUnits="userSpaceOnUse" x1="507.6284" y1="247.8546" x2="511.6619" y2="242.668" gradientTransform="matrix(0.9997 0 0 -1 -264.9145 8.0161)">
				<stop  offset="0" style="stop-color:#FFFFFF"/>
				<stop  offset="1" style="stop-color:#FFFFFF;stop-opacity:0"/>
			</linearGradient>
			<path id="path12353_8_" class="st14" d="M245.5-242.5c-3.6,0-6.5,2.9-6.5,6.5c0,2.4,1.3,4.4,3.3,5.5h6.5c1.9-1.1,3.3-3.1,3.3-5.5
				C252-239.6,249.1-242.5,245.5-242.5z"/>
			
				<linearGradient id="path12355_1_" gradientUnits="userSpaceOnUse" x1="527.3062" y1="238.9389" x2="530.4059" y2="236.1624" gradientTransform="matrix(0.9054 0 0 -0.9057 -242.1143 -18.6176)">
				<stop  offset="0" style="stop-color:#FFFFFF"/>
				<stop  offset="1" style="stop-color:#FFFFFF;stop-opacity:0"/>
			</linearGradient>
			<path id="path12355_8_" class="st15" d="M240-233.5c0,1.7-1.3,3-3,3s-3-1.3-3-3s1.3-3,3-3S240-235.1,240-233.5L240-233.5z"/>
			<path id="path12357_8_" class="st8" d="M259-238.8c0,2.7-3.3,3.7-3.3,3.7s2.3-1.6,2.3-3.7L259-238.8z"/>
			<path id="path12359_8_" class="st2" d="M254-234.5c0,2.2-1.8,4-4,4c-2.2,0-4-1.8-4-4c0-2.2,1.8-4,4-4
				C252.2-238.5,254-236.7,254-234.5L254-234.5z"/>
			
				<linearGradient id="path12361_1_" gradientUnits="userSpaceOnUse" x1="497.2688" y1="267.0703" x2="501.3661" y2="262.6684" gradientTransform="matrix(1.2072 0 0 -1.2075 -354.4747 83.5102)">
				<stop  offset="0" style="stop-color:#FFFFFF"/>
				<stop  offset="1" style="stop-color:#FFFFFF;stop-opacity:0"/>
			</linearGradient>
			<path id="path12361_8_" class="st16" d="M254-234.5c0,2.2-1.8,4-4,4c-2.2,0-4-1.8-4-4c0-2.2,1.8-4,4-4
				C252.2-238.5,254-236.7,254-234.5L254-234.5z"/>
		</g>
	</g>
	<g>
		<path class="st0" d="M23,38L23,38c0,1.1-0.9,2-2,2h-8c-1.1,0-2-0.9-2-2v0c0-1.1-0.9-2-2-2H5.8c-1.1,0-2-0.9-2-2v0c0-1.1,0.9-2,2-2
			h8c1.1,0,2,0.9,2,2v0c0,1.1,0.9,2,2,2H21C22.1,36,23,36.9,23,38z"/>
		<linearGradient id="SVGID_1_" gradientUnits="userSpaceOnUse" x1="4.8103" y1="33.9953" x2="14.8103" y2="33.9953">
			<stop  offset="0" style="stop-color:#FFFFFF"/>
			<stop  offset="1" style="stop-color:#FFFFFF;stop-opacity:0"/>
		</linearGradient>
		<path class="st17" d="M13.8,35h-8c-0.6,0-1-0.4-1-1v0c0-0.6,0.4-1,1-1h8c0.6,0,1,0.4,1,1v0C14.8,34.5,14.4,35,13.8,35z"/>
		<linearGradient id="SVGID_2_" gradientUnits="userSpaceOnUse" x1="12.016" y1="38.0161" x2="22.016" y2="38.0161">
			<stop  offset="0" style="stop-color:#FFFFFF"/>
			<stop  offset="1" style="stop-color:#FFFFFF;stop-opacity:0"/>
		</linearGradient>
		<path class="st18" d="M21,39h-8c-0.6,0-1-0.4-1-1v0c0-0.6,0.4-1,1-1h8c0.6,0,1,0.4,1,1v0C22,38.6,21.6,39,21,39z"/>
	</g>
	<g>
		<path class="st0" d="M45.5,40L45.5,40c0,1.1-0.9,2-2,2h-8c-1.1,0-2-0.9-2-2v0c0-1.1-0.9-2-2-2h-3.1c-1.1,0-2-0.9-2-2v0
			c0-1.1,0.9-2,2-2h8c1.1,0,2,0.9,2,2v0c0,1.1,0.9,2,2,2h3.1C44.6,38,45.5,38.9,45.5,40z"/>
		<linearGradient id="SVGID_3_" gradientUnits="userSpaceOnUse" x1="27.3482" y1="36.0057" x2="37.3482" y2="36.0057">
			<stop  offset="0" style="stop-color:#FFFFFF"/>
			<stop  offset="1" style="stop-color:#FFFFFF;stop-opacity:0"/>
		</linearGradient>
		<path class="st19" d="M36.3,37h-8c-0.6,0-1-0.4-1-1l0,0c0-0.6,0.4-1,1-1h8c0.6,0,1,0.4,1,1l0,0C37.3,36.6,36.9,37,36.3,37z"/>
		<linearGradient id="SVGID_4_" gradientUnits="userSpaceOnUse" x1="34.5539" y1="40.0265" x2="44.5539" y2="40.0265">
			<stop  offset="0" style="stop-color:#FFFFFF"/>
			<stop  offset="1" style="stop-color:#FFFFFF;stop-opacity:0"/>
		</linearGradient>
		<path class="st20" d="M43.6,41h-8c-0.6,0-1-0.4-1-1l0,0c0-0.6,0.4-1,1-1h8c0.6,0,1,0.4,1,1l0,0C44.6,40.6,44.1,41,43.6,41z"/>
	</g>
	<g>
		<path class="st0" d="M40,29L40,29c0,1.1-0.9,2-2,2H22c-1.1,0-2-0.9-2-2v0c0-1.1-0.9-2-2-2H9.8c-1.1,0-2-0.9-2-2v0c0-1.1,0.9-2,2-2
			h16c1.1,0,2,0.9,2,2v0c0,1.1,0.9,2,2,2H38C39.1,27,40,27.9,40,29z"/>
		<linearGradient id="SVGID_5_" gradientUnits="userSpaceOnUse" x1="8.8433" y1="24.9953" x2="26.8433" y2="24.9953">
			<stop  offset="0" style="stop-color:#FFFFFF"/>
			<stop  offset="1" style="stop-color:#FFFFFF;stop-opacity:0"/>
		</linearGradient>
		<path class="st21" d="M25.8,26h-16c-0.6,0-1-0.4-1-1v0c0-0.6,0.4-1,1-1h16c0.6,0,1,0.4,1,1v0C26.8,25.5,26.4,26,25.8,26z"/>
		<linearGradient id="SVGID_6_" gradientUnits="userSpaceOnUse" x1="20.8433" y1="28.9953" x2="38.8433" y2="28.9953">
			<stop  offset="0" style="stop-color:#FFFFFF"/>
			<stop  offset="1" style="stop-color:#FFFFFF;stop-opacity:0"/>
		</linearGradient>
		<path class="st22" d="M37.8,30h-16c-0.6,0-1-0.4-1-1v0c0-0.6,0.4-1,1-1h16c0.6,0,1,0.4,1,1v0C38.8,29.5,38.4,30,37.8,30z"/>
	</g>
</g>
</svg>
