<?xml version="1.0" encoding="utf-8"?>
<!-- Generator: Adobe Illustrator 24.0.1, SVG Export Plug-In . SVG Version: 6.00 Build 0)  -->
<svg version="1.1"
	 id="svg1306" xmlns:cc="http://creativecommons.org/ns#" xmlns:dc="http://purl.org/dc/elements/1.1/" xmlns:inkscape="http://www.inkscape.org/namespaces/inkscape" xmlns:rdf="http://www.w3.org/1999/02/22-rdf-syntax-ns#" xmlns:sodipodi="http://sodipodi.sourceforge.net/DTD/sodipodi-0.dtd" xmlns:svg="http://www.w3.org/2000/svg"
	 xmlns="http://www.w3.org/2000/svg" xmlns:xlink="http://www.w3.org/1999/xlink" x="0px" y="0px" viewBox="0 0 48 48"
	 style="enable-background:new 0 0 48 48;" xml:space="preserve">
<style type="text/css">
	.st0{opacity:0.7;}
	.st1{fill:#FCE94F;stroke:#FCAF3E;stroke-width:0.7373;stroke-linecap:square;}
	.st2{fill:none;stroke:url(#path7494_1_);stroke-width:0.8465;stroke-linecap:square;}
	.st3{fill:#FFEE54;stroke:#FCAF3E;stroke-width:1;stroke-linecap:square;stroke-miterlimit:5.2638;}
	.st4{fill:url(#path7500_1_);}
	.st5{fill:none;stroke:url(#path7502_1_);stroke-width:1;stroke-linecap:square;stroke-miterlimit:4.8425;}
	.st6{fill:#C4C5C2;stroke:#888A85;stroke-miterlimit:2;}
	.st7{fill:url(#path6672_2_);}
	.st8{fill:#C4C5C2;}
	.st9{fill:url(#path6678_2_);}
	.st10{fill:url(#path6688_2_);}
	.st11{fill:url(#path6694_2_);}
	.st12{fill:url(#path6700_2_);}
	.st13{fill:url(#path6702_2_);}
	.st14{fill-rule:evenodd;clip-rule:evenodd;fill:#888A85;}
	.st15{fill:url(#path6710_2_);}
</style>
<g id="layer1_10_">
	<g id="g3936_2_">
		<g id="g4091_2_" class="st0">
			<path id="path7492_2_" class="st1" d="M24,2.5l-2.4,6.7C22.4,9.1,23.2,9,24,9s1.6,0.1,2.4,0.2L24,2.5z M8.8,8.8l3,6.4
				c0.9-1.3,2.1-2.4,3.4-3.4L8.8,8.8z M39.2,8.8l-6.4,3.1c1.3,0.9,2.4,2.1,3.4,3.4L39.2,8.8z M9.2,21.6L2.5,24l6.7,2.4
				C9.1,25.6,9,24.8,9,24C9,23.2,9.1,22.4,9.2,21.6z M38.8,21.6c0.1,0.8,0.2,1.6,0.2,2.4s-0.1,1.6-0.2,2.4l6.7-2.4L38.8,21.6z
				 M11.8,32.8l-3,6.4l6.4-3C13.9,35.2,12.8,34.1,11.8,32.8z M36.2,32.8c-0.9,1.3-2.1,2.4-3.3,3.3l6.4,3.1L36.2,32.8z M21.6,38.8
				l2.4,6.7l2.4-6.7C25.6,38.9,24.8,39,24,39S22.4,38.9,21.6,38.8z"/>
			
				<radialGradient id="path7494_1_" cx="23.3144" cy="27.3921" r="19.1398" gradientTransform="matrix(1.0067 0 0 -1.0075 0.5294 51.5778)" gradientUnits="userSpaceOnUse">
				<stop  offset="0" style="stop-color:#FFFFFF;stop-opacity:0"/>
				<stop  offset="0.75" style="stop-color:#FFFFFF;stop-opacity:0"/>
				<stop  offset="1" style="stop-color:#FFFFFF"/>
			</radialGradient>
			<path id="path7494_2_" class="st2" d="M24,5.3l-1.3,3.8C23.1,9,23.5,9,24,9s0.9,0,1.3,0.1L24,5.3z M10.8,10.8l1.7,3.6
				c0.6-0.7,1.2-1.3,1.9-1.9L10.8,10.8z M37.3,10.8l-3.6,1.7c0.7,0.6,1.3,1.2,1.9,1.9L37.3,10.8z M9.1,22.6L5.3,24l3.8,1.3
				C9,24.9,9,24.4,9,24C9,23.5,9,23.1,9.1,22.6z M38.9,22.7c0,0.4,0.1,0.9,0.1,1.3s0,0.9-0.1,1.3l3.8-1.3L38.9,22.7z M35.5,33.6
				c-0.6,0.7-1.2,1.4-1.9,1.9l3.6,1.7L35.5,33.6z M12.5,33.6l-1.7,3.6l3.6-1.7C13.7,34.9,13.1,34.3,12.5,33.6z M22.7,38.9l1.3,3.8
				l1.3-3.8C24.9,39,24.5,39,24,39S23.1,39,22.7,38.9z"/>
		</g>
		<g id="g4046_2_">
			<g id="g3931_2_">
				<path id="path7498_2_" class="st3" d="M31.4,13.9c5.6,4.1,6.8,11.9,2.7,17.5s-11.9,6.8-17.5,2.7s-6.8-11.9-2.7-17.5
					S25.8,9.8,31.4,13.9z"/>
				
					<radialGradient id="path7500_1_" cx="-56.2425" cy="200.2706" r="9.5" gradientTransform="matrix(0.8869 1.5361 1.2643 -0.8074 -182.4269 266.8597)" gradientUnits="userSpaceOnUse">
					<stop  offset="0" style="stop-color:#FFF7C2;stop-opacity:0.6383"/>
					<stop  offset="0.5939" style="stop-color:#FCAF3E;stop-opacity:0.1835"/>
					<stop  offset="0.8385" style="stop-color:#FCAF3E;stop-opacity:0.5046"/>
					<stop  offset="1" style="stop-color:#FCAF3E"/>
				</radialGradient>
				<path id="path7500_2_" class="st4" d="M35.8,22.4C37,29,32.6,35,26.1,35.9s-12.7-3.7-13.9-10.3S15.4,13,22,12.1
					S34.7,15.8,35.8,22.4z"/>
				
					<linearGradient id="path7502_1_" gradientUnits="userSpaceOnUse" x1="-149.4526" y1="58.9753" x2="-157.6806" y2="43.2075" gradientTransform="matrix(0.7158 -0.9763 -0.9764 -0.7158 184.1085 -88.7782)">
					<stop  offset="0" style="stop-color:#FFF9C6"/>
					<stop  offset="0.5417" style="stop-color:#FFF28C"/>
					<stop  offset="1" style="stop-color:#FFEA85"/>
				</linearGradient>
				<path id="path7502_2_" class="st5" d="M30.8,14.7c5.1,3.8,6.2,11,2.5,16.1c-3.8,5.1-11,6.2-16.1,2.5c-5.1-3.8-6.2-11-2.5-16.1
					S25.7,11,30.8,14.7z"/>
			</g>
		</g>
	</g>
	<g id="g6668_1_" transform="translate(-248.99,467.9855)">
		<path id="path6670_1_" class="st6" d="M280.5-442.5c-1.6,0-2.9,1.1-3.4,2.6c-0.5-0.3-1-0.4-1.6-0.4c-2,0-3.6,1.6-3.6,3.6
			c0,0.4,0.1,0.8,0.2,1.2c-1,0.6-1.7,1.6-1.7,2.8c0,1.8,1.4,3.2,3.2,3.2c0.1,0,13.4,0,13.6,0c1.8,0,3.2-1.4,3.2-3.2
			c0-1.2-0.7-2.2-1.7-2.8c0.1-0.4,0.2-0.7,0.2-1.2c0-2-1.6-3.6-3.6-3.6c-0.6,0-1.1,0.2-1.6,0.4C283.4-441.4,282.1-442.5,280.5-442.5
			z"/>
		
			<linearGradient id="path6672_2_" gradientUnits="userSpaceOnUse" x1="522.5007" y1="20.9994" x2="532.5057" y2="14.5123" gradientTransform="matrix(1 0 0 -1 -248.99 -417.9855)">
			<stop  offset="0" style="stop-color:#FFFFFF"/>
			<stop  offset="1" style="stop-color:#FFFFFF;stop-opacity:0"/>
		</linearGradient>
		<path id="path6672_1_" class="st7" d="M280.5-442.1c-1.6,0-2.7,1-3.1,2.7c-0.5-0.2-1.1-0.6-1.7-0.6c-1.9,0-3.4,1.4-3.4,3.2
			c0,0.4,0.2,1,0.3,1.3c-0.9,0.5-1.7,1.4-1.7,2.4c0,1.7,1.1,3,3.1,3c0.1,0,13,0,13.1,0c2,0,3.1-1.4,3.1-3c0-1.1-0.8-1.9-1.7-2.4
			c0.1-0.3,0.3-0.9,0.3-1.3c0-1.9-1.5-3.3-3.4-3.3c-0.6,0-1.2,0.3-1.7,0.6C283.2-441.1,282.1-442.1,280.5-442.1z"/>
		<g id="g6674_1_">
			<path id="path6676_1_" class="st8" d="M283-438.9c0,1.4-1.1,2.5-2.5,2.5s-2.5-1.1-2.5-2.5s1.1-2.5,2.5-2.5S283-440.3,283-438.9
				L283-438.9z"/>
			
				<linearGradient id="path6678_2_" gradientUnits="userSpaceOnUse" x1="530.9781" y1="25.0197" x2="532.5203" y2="22.5692" gradientTransform="matrix(1.0566 0 0 -1.0566 -281.4518 -413.9516)">
				<stop  offset="0" style="stop-color:#FFFFFF"/>
				<stop  offset="1" style="stop-color:#FFFFFF;stop-opacity:0"/>
			</linearGradient>
			<path id="path6678_1_" class="st9" d="M283-438.9c0,1.4-1.1,2.5-2.5,2.5s-2.5-1.1-2.5-2.5s1.1-2.5,2.5-2.5S283-440.3,283-438.9
				L283-438.9z"/>
		</g>
		<rect id="rect6680_1_" x="273.7" y="-437.1" class="st8" width="14.3" height="6.4"/>
		<path id="path6682_1_" class="st8" d="M275.9-432.9c0,1.2-1,2.1-2.1,2.1s-2.1-1-2.1-2.1s1-2.1,2.1-2.1S275.9-434,275.9-432.9
			L275.9-432.9z"/>
		<g id="g6684_1_">
			<path id="path6686_1_" class="st8" d="M288-436.8c0,1.4-1.1,2.5-2.5,2.5s-2.5-1.1-2.5-2.5s1.1-2.5,2.5-2.5S288-438.2,288-436.8
				L288-436.8z"/>
			
				<linearGradient id="path6688_2_" gradientUnits="userSpaceOnUse" x1="528.3533" y1="26.9154" x2="530.7404" y2="23.2395" gradientTransform="matrix(1.0566 0 0 -1.0566 -274.4518 -410.9516)">
				<stop  offset="0" style="stop-color:#FFFFFF"/>
				<stop  offset="1" style="stop-color:#FFFFFF;stop-opacity:0"/>
			</linearGradient>
			<path id="path6688_1_" class="st10" d="M288-436.8c0,1.4-1.1,2.5-2.5,2.5s-2.5-1.1-2.5-2.5c0-1.4,1.1-2.5,2.5-2.5
				S288-438.2,288-436.8L288-436.8z"/>
		</g>
		<g id="g6690_1_">
			<path id="path6692_1_" class="st8" d="M278-436.8c0,1.4-1.1,2.5-2.5,2.5s-2.5-1.1-2.5-2.5c0-1.4,1.1-2.5,2.5-2.5
				S278-438.2,278-436.8L278-436.8z"/>
			
				<linearGradient id="path6694_2_" gradientUnits="userSpaceOnUse" x1="532.0446" y1="26.168" x2="534.5092" y2="23.6708" gradientTransform="matrix(1.0566 0 0 -1.0566 -288.4518 -410.9516)">
				<stop  offset="0" style="stop-color:#FFFFFF"/>
				<stop  offset="1" style="stop-color:#FFFFFF;stop-opacity:0"/>
			</linearGradient>
			<path id="path6694_1_" class="st11" d="M278-436.8c0,1.4-1.1,2.5-2.5,2.5s-2.5-1.1-2.5-2.5c0-1.4,1.1-2.5,2.5-2.5
				S278-438.2,278-436.8L278-436.8z"/>
		</g>
		<g id="g6696_1_" transform="translate(-1.000000,0.000000)">
			<path id="path6698_1_" class="st8" d="M280.8-439.3c-2.6,0-4.6,2.1-4.6,4.6c0,1.7,1,3.1,2.3,3.9h4.6c1.4-0.8,2.3-2.2,2.3-3.9
				C285.4-437.2,283.3-439.3,280.8-439.3z"/>
			
				<linearGradient id="path6700_2_" gradientUnits="userSpaceOnUse" x1="528.6677" y1="19.4107" x2="531.5488" y2="15.7059" gradientTransform="matrix(1 0 0 -1 -249.99 -417.9855)">
				<stop  offset="0" style="stop-color:#FFFFFF"/>
				<stop  offset="1" style="stop-color:#FFFFFF;stop-opacity:0"/>
			</linearGradient>
			<path id="path6700_1_" class="st12" d="M280.8-439.3c-2.6,0-4.6,2.1-4.6,4.6c0,1.7,1,3.1,2.3,3.9h4.6c1.4-0.8,2.3-2.2,2.3-3.9
				C285.4-437.2,283.3-439.3,280.8-439.3z"/>
		</g>
		
			<linearGradient id="path6702_2_" gradientUnits="userSpaceOnUse" x1="549.743" y1="11.0331" x2="551.9572" y2="9.0499" gradientTransform="matrix(0.9057 0 0 -0.9057 -225.387 -423.9586)">
			<stop  offset="0" style="stop-color:#FFFFFF"/>
			<stop  offset="1" style="stop-color:#FFFFFF;stop-opacity:0"/>
		</linearGradient>
		<path id="path6702_1_" class="st13" d="M275.9-432.9c0,1.2-1,2.1-2.1,2.1c-1.2,0-2.1-1-2.1-2.1c0-1.2,1-2.1,2.1-2.1
			C274.9-435,275.9-434,275.9-432.9L275.9-432.9z"/>
		<path id="path6704_1_" class="st14" d="M289.4-436.7c0,1.9-2.3,2.7-2.3,2.7s1.7-1.2,1.7-2.6L289.4-436.7z"/>
		<g id="g6706_1_" transform="matrix(1.142857,0.000000,0.000000,1.142857,-28.57139,67.00008)">
			<path id="path6708_1_" class="st8" d="M275.1-438c0,1.4-1.1,2.5-2.5,2.5s-2.5-1.1-2.5-2.5s1.1-2.5,2.5-2.5S275.1-439.4,275.1-438
				L275.1-438z"/>
			
				<linearGradient id="path6710_2_" gradientUnits="userSpaceOnUse" x1="476.8086" y1="-23.2312" x2="479.7353" y2="-26.3754" gradientTransform="matrix(1.2075 0 0 -1.2075 -305.7654 -468.8692)">
				<stop  offset="0" style="stop-color:#FFFFFF"/>
				<stop  offset="1" style="stop-color:#FFFFFF;stop-opacity:0"/>
			</linearGradient>
			<path id="path6710_1_" class="st15" d="M275.1-438c0,1.4-1.1,2.5-2.5,2.5s-2.5-1.1-2.5-2.5s1.1-2.5,2.5-2.5
				S275.1-439.4,275.1-438L275.1-438z"/>
		</g>
	</g>
</g>
</svg>
