<?xml version="1.0" encoding="utf-8"?>
<!-- Generator: Adobe Illustrator 24.0.1, SVG Export Plug-In . SVG Version: 6.00 Build 0)  -->
<svg version="1.1"
	 id="svg1306" xmlns:cc="http://creativecommons.org/ns#" xmlns:dc="http://purl.org/dc/elements/1.1/" xmlns:inkscape="http://www.inkscape.org/namespaces/inkscape" xmlns:rdf="http://www.w3.org/1999/02/22-rdf-syntax-ns#" xmlns:sodipodi="http://sodipodi.sourceforge.net/DTD/sodipodi-0.dtd" xmlns:svg="http://www.w3.org/2000/svg"
	 xmlns="http://www.w3.org/2000/svg" xmlns:xlink="http://www.w3.org/1999/xlink" x="0px" y="0px" viewBox="0 0 48 48"
	 style="enable-background:new 0 0 48 48;" xml:space="preserve">
<style type="text/css">
	.st0{fill:#729FCF;stroke:#204A87;stroke-width:1.0746;stroke-miterlimit:2;}
	.st1{opacity:0.4611;fill:url(#path12231_2_);enable-background:new    ;}
	.st2{fill:url(#path12233_1_);}
	.st3{fill:#555753;}
	.st4{fill:url(#path8889_1_);}
	.st5{fill:#888A85;}
	.st6{opacity:0.4944;fill:url(#path8897_1_);enable-background:new    ;}
	.st7{opacity:0.4944;fill:url(#path8903_1_);enable-background:new    ;}
	.st8{opacity:0.4944;fill:url(#path8909_1_);enable-background:new    ;}
	.st9{opacity:0.4944;fill:url(#path8915_1_);enable-background:new    ;}
	.st10{fill:#888A85;stroke:#555753;stroke-width:0.9998;stroke-miterlimit:1.9993;}
	.st11{fill:url(#path12582_1_);}
	.st12{opacity:0.4778;fill:url(#path12586_1_);enable-background:new    ;}
	.st13{opacity:0.4778;fill:url(#path12595_1_);enable-background:new    ;}
	.st14{opacity:0.4778;fill:url(#path12599_1_);enable-background:new    ;}
	.st15{opacity:0.4778;fill:url(#path12603_1_);enable-background:new    ;}
	.st16{opacity:0.4778;fill:url(#path12605_1_);enable-background:new    ;}
	.st17{fill-rule:evenodd;clip-rule:evenodd;fill:#555753;}
	.st18{opacity:0.4778;fill:url(#path12611_1_);enable-background:new    ;}
	.st19{fill:url(#path12331_1_);}
	.st20{opacity:0.4778;fill:url(#path12335_1_);enable-background:new    ;}
	.st21{opacity:0.4778;fill:url(#path12343_1_);enable-background:new    ;}
	.st22{opacity:0.4778;fill:url(#path12349_1_);enable-background:new    ;}
	.st23{opacity:0.4778;fill:url(#path12353_1_);enable-background:new    ;}
	.st24{opacity:0.4778;fill:url(#path12355_1_);enable-background:new    ;}
	.st25{opacity:0.4778;fill:url(#path12361_1_);enable-background:new    ;}
	.st26{opacity:0.4611;fill:url(#path12195_2_);enable-background:new    ;}
	.st27{fill:url(#path12197_2_);}
	.st28{opacity:0.4611;fill:url(#path6061_2_);enable-background:new    ;}
	.st29{fill:url(#path6063_2_);}
	.st30{opacity:0.4611;fill:url(#path12207_1_);enable-background:new    ;}
	.st31{fill:url(#path12209_1_);}
	.st32{opacity:0.4611;fill:url(#path12219_2_);enable-background:new    ;}
	.st33{fill:url(#path12221_2_);}
	.st34{fill:#FFFFFF;stroke:#729FCF;stroke-width:1;stroke-miterlimit:10;}
	.st35{fill:#FFFFFF;stroke:#729FCF;stroke-width:1.4748;stroke-miterlimit:1;}
	.st36{fill:#FFFFFF;stroke:#729FCF;stroke-width:1.4678;stroke-miterlimit:1;}
	.st37{fill:#FFFFFF;stroke:#729FCF;stroke-width:0.8992;stroke-miterlimit:1;}
</style>
<g id="layer1_29_">
	<g id="g12227_1_" transform="translate(-202.9549,271.0066)">
		<path id="path12229_1_" class="st0" d="M232.6-228.8c-1-0.6-1.4-1.9-0.8-2.9c1.3-2.1,3.1-1.5,4-3.7
			C237.1-234.1,236.6-227.2,232.6-228.8z"/>
		
			<radialGradient id="path12231_2_" cx="1845.4027" cy="-21.9563" r="21.7436" gradientTransform="matrix(7.065158e-02 4.154803e-02 6.201499e-02 -0.1094 104.7319 -309.882)" gradientUnits="userSpaceOnUse">
			<stop  offset="0" style="stop-color:#FFFFFF"/>
			<stop  offset="1" style="stop-color:#FFFFFF;stop-opacity:0"/>
		</radialGradient>
		<path id="path12231_1_" class="st1" d="M235.3-229.9c-0.5,0.9-1.6,1.2-2.4,0.7c-0.8-0.5-1.1-1.6-0.6-2.5c0.5-0.9,2.6-0.5,3.3-2.3
			C236.4-233.5,235.8-230.8,235.3-229.9z"/>
		
			<linearGradient id="path12233_1_" gradientUnits="userSpaceOnUse" x1="372.3373" y1="1516.1681" x2="392.8434" y2="1537.6465" gradientTransform="matrix(-5.358613e-02 0.1028 9.281434e-02 5.937964e-02 112.214 -361.9624)">
			<stop  offset="0" style="stop-color:#FFFFFF"/>
			<stop  offset="1" style="stop-color:#FFFFFF;stop-opacity:0"/>
		</linearGradient>
		<path id="path12233_4_" class="st2" d="M234-229c-4.6-1.1,0.2-4.7,1-3.9C231.4-231.6,234-229,234-229z"/>
	</g>
	<g id="g12627_5_" transform="matrix(0.999675,0.000000,0.000000,1.000000,-286.8482,245.0001)">
		<g id="g12533_5_">
			<path id="path8887_5_" class="st3" d="M311.5-243c-2.8,0-5.1,1.6-6.4,3.8c-0.9-0.5-2-0.8-3.1-0.8c-3.9,0-7,3.1-7,7s3.1,7,7,7
				c2.4,0,4.4-1.3,5.7-3.2c1.1,0.7,2.4,1.2,3.8,1.2c0.9,0,1.8-0.2,2.6-0.5c0.5,0.9,1.2,1.6,2,2.2c0,0.1-0.1,0.2-0.1,0.4
				c0,3.9,3.1,7,7,7s7-3.1,7-7c0-2.4-1.3-4.4-3.1-5.6c0-0.1,0.1-0.2,0.1-0.4c0-3.9-3.1-7-7-7c-0.6,0-1.2,0.2-1.8,0.4
				C317-241.2,314.5-243,311.5-243z"/>
			
				<linearGradient id="path8889_1_" gradientUnits="userSpaceOnUse" x1="515.499" y1="197.2192" x2="553.3603" y2="184.1819" gradientTransform="matrix(0.9997 0 0 -1 -217.8817 -40.0001)">
				<stop  offset="0" style="stop-color:#FFFFFF"/>
				<stop  offset="1" style="stop-color:#FFFFFF;stop-opacity:0"/>
			</linearGradient>
			<path id="path8889_5_" class="st4" d="M311.5-242c-2.8,0-5.1,1.8-6.1,4.2c-1-0.7-2.1-1.2-3.4-1.2c-3.3,0-6,2.7-6,6
				c0,3.3,2.7,6,6,6c2.4,0,4.5-1.5,5.4-3.5c1.1,0.9,2.5,1.5,4.1,1.5c1.1,0,2-0.3,2.9-0.8c0.4,1,1.1,1.8,1.9,2.4
				c-0.2,0.6-0.4,1.2-0.4,1.8c0,3.6,2.9,6.5,6.5,6.5s6.5-2.9,6.5-6.5c0-2.4-1.3-4.3-3.2-5.5c0.1-0.3,0.2-0.7,0.2-1c0-3.3-2.7-6-6-6
				c-0.9,0-1.7,0.2-2.4,0.5C316.7-240.1,314.4-242,311.5-242z"/>
			<path id="path8891_5_" class="st5" d="M329-225.5c0,3.6-2.9,6.5-6.5,6.5s-6.5-2.9-6.5-6.5c0,0,0,0,0,0c0-3.6,2.9-6.5,6.5-6.5
				C326.1-232,329-229.1,329-225.5C329-225.5,329-225.5,329-225.5z"/>
			<g id="g12520_5_">
				<path id="path8895_5_" class="st5" d="M317-235.5c0,3-2.5,5.5-5.5,5.5s-5.5-2.5-5.5-5.5s2.5-5.5,5.5-5.5S317-238.5,317-235.5z"
					/>
				
					<linearGradient id="path8897_1_" gradientUnits="userSpaceOnUse" x1="540.3961" y1="184.2247" x2="546.1494" y2="179.3678" gradientTransform="matrix(0.8823 0 0 -0.8826 -169.1227 -76.093)">
					<stop  offset="0" style="stop-color:#FFFFFF"/>
					<stop  offset="1" style="stop-color:#FFFFFF;stop-opacity:0"/>
				</linearGradient>
				<path id="path8897_5_" class="st6" d="M317-235.5c0,3-2.5,5.5-5.5,5.5s-5.5-2.5-5.5-5.5s2.5-5.5,5.5-5.5S317-238.5,317-235.5z"
					/>
			</g>
			<g id="g12516_5_">
				<path id="path8901_5_" class="st5" d="M325-231.5c0,3-2.5,5.5-5.5,5.5s-5.5-2.5-5.5-5.5l0,0c0-3,2.5-5.5,5.5-5.5
					S325-234.5,325-231.5z"/>
				
					<linearGradient id="path8903_1_" gradientUnits="userSpaceOnUse" x1="543.2285" y1="185.8215" x2="549.1859" y2="179.8593" gradientTransform="matrix(0.9114 0 0 -0.9117 -180.199 -66.6455)">
					<stop  offset="0" style="stop-color:#FFFFFF"/>
					<stop  offset="1" style="stop-color:#FFFFFF;stop-opacity:0"/>
				</linearGradient>
				<path id="path8903_5_" class="st7" d="M325-231.5c0,3-2.5,5.5-5.5,5.5s-5.5-2.5-5.5-5.5l0,0c0-3,2.5-5.5,5.5-5.5
					S325-234.5,325-231.5z"/>
			</g>
			<g id="g12524_5_">
				<path id="path8907_5_" class="st5" d="M307-233c0,2.8-2.2,5-5,5c-2.8,0-5-2.2-5-5c0-2.8,2.2-5,5-5S307-235.8,307-233L307-233z"
					/>
				
					<linearGradient id="path8909_1_" gradientUnits="userSpaceOnUse" x1="504.7736" y1="207.991" x2="509.1541" y2="204.5105" gradientTransform="matrix(1.1424 0 0 -1.1428 -277.9027 2.1394)">
					<stop  offset="0" style="stop-color:#FFFFFF"/>
					<stop  offset="1" style="stop-color:#FFFFFF;stop-opacity:0"/>
				</linearGradient>
				<path id="path8909_5_" class="st8" d="M307-233c0,2.8-2.2,5-5,5c-2.8,0-5-2.2-5-5c0-2.8,2.2-5,5-5S307-235.8,307-233L307-233z"
					/>
			</g>
			<g id="g12529_5_">
				<path id="path8913_5_" class="st5" d="M318-229c0,3.9-3.1,7-7,7c-3.9,0-7-3.1-7-7c0,0,0,0,0,0c0-3.9,3.1-7,7-7
					C314.8-236,318-232.9,318-229C318-229,318-229,318-229z"/>
				
					<linearGradient id="path8915_1_" gradientUnits="userSpaceOnUse" x1="520.28" y1="196.0981" x2="527.9299" y2="190.2687" gradientTransform="matrix(1.0383 0 0 -1.0386 -234.1358 -29.0647)">
					<stop  offset="0" style="stop-color:#FFFFFF"/>
					<stop  offset="1" style="stop-color:#FFFFFF;stop-opacity:0"/>
				</linearGradient>
				<path id="path8915_5_" class="st9" d="M318-229c0,3.9-3.1,7-7,7c-3.9,0-7-3.1-7-7c0,0,0,0,0,0c0-3.9,3.1-7,7-7
					C314.8-236,318-232.9,318-229C318-229,318-229,318-229z"/>
			</g>
		</g>
		<g id="g12578_5_" transform="translate(72.00007,7.999930)">
			<path id="path12580_5_" class="st10" d="M246.5-238.5c-2.3,0-4.1,1.6-4.7,3.6c-0.7-0.4-1.4-0.6-2.3-0.6c-2.8,0-5,2.2-5,5
				c0,0.6,0.2,1.1,0.3,1.6c-1.4,0.8-2.3,2.2-2.3,3.9c0,2.5,2,4.5,4.5,4.5c0.2,0,18.8,0,19,0c2.5,0,4.5-2,4.5-4.5
				c0-1.7-1-3.1-2.3-3.9c0.2-0.5,0.3-1,0.3-1.6c0-2.8-2.2-5-5-5c-0.8,0-1.6,0.3-2.3,0.6C250.6-236.9,248.7-238.5,246.5-238.5z"/>
			
				<linearGradient id="path12582_1_" gradientUnits="userSpaceOnUse" x1="485.7549" y1="237.5789" x2="499.7618" y2="228.497" gradientTransform="matrix(0.9997 0 0 -1 -248.9051 4.0001)">
				<stop  offset="0" style="stop-color:#FFFFFF"/>
				<stop  offset="1" style="stop-color:#FFFFFF;stop-opacity:0"/>
			</linearGradient>
			<path id="path12582_5_" class="st11" d="M246.5-238c-2.2,0-3.7,1.3-4.4,3.8c-0.7-0.3-1.5-0.8-2.4-0.8c-2.7,0-4.8,1.9-4.8,4.5
				c0,0.5,0.3,1.3,0.4,1.8c-1.3,0.7-2.4,1.9-2.4,3.4c0,2.3,1.5,4.3,4.3,4.3c0.2,0,18.2,0,18.3,0c2.8,0,4.3-1.9,4.3-4.3
				c0-1.6-1.1-2.7-2.4-3.4c0.2-0.5,0.5-1.3,0.5-1.8c0-2.6-2.1-4.6-4.8-4.6c-0.8,0-1.6,0.5-2.3,0.8C250.3-236.6,248.7-238,246.5-238z
				"/>
			<path id="path12584_5_" class="st5" d="M250-233.5c0,1.9-1.6,3.5-3.5,3.5c-1.9,0-3.5-1.6-3.5-3.5c0-1.9,1.6-3.5,3.5-3.5
				C248.4-237,250-235.4,250-233.5L250-233.5z"/>
			
				<linearGradient id="path12586_1_" gradientUnits="userSpaceOnUse" x1="496.6834" y1="242.0449" x2="498.8424" y2="238.6141" gradientTransform="matrix(1.0563 0 0 -1.0566 -279.4356 20.203)">
				<stop  offset="0" style="stop-color:#FFFFFF"/>
				<stop  offset="1" style="stop-color:#FFFFFF;stop-opacity:0"/>
			</linearGradient>
			<path id="path12586_5_" class="st12" d="M250-233.5c0,1.9-1.6,3.5-3.5,3.5c-1.9,0-3.5-1.6-3.5-3.5c0-1.9,1.6-3.5,3.5-3.5
				C248.4-237,250-235.4,250-233.5L250-233.5z"/>
			<rect id="rect12588_5_" x="237" y="-231" class="st5" width="20" height="9"/>
			<path id="path12591_5_" class="st5" d="M240-225c0,1.7-1.3,3-3,3c-1.7,0-3-1.3-3-3s1.3-3,3-3C238.6-228,240-226.7,240-225
				L240-225z"/>
			<path id="path12593_5_" class="st5" d="M257-230.5c0,1.9-1.6,3.5-3.5,3.5c-1.9,0-3.5-1.6-3.5-3.5c0-1.9,1.6-3.5,3.5-3.5
				C255.4-234,257-232.4,257-230.5L257-230.5z"/>
			
				<linearGradient id="path12595_1_" gradientUnits="userSpaceOnUse" x1="495.6582" y1="243.5631" x2="499.0003" y2="238.4169" gradientTransform="matrix(1.0563 0 0 -1.0566 -272.4356 23.203)">
				<stop  offset="0" style="stop-color:#FFFFFF"/>
				<stop  offset="1" style="stop-color:#FFFFFF;stop-opacity:0"/>
			</linearGradient>
			<path id="path12595_5_" class="st13" d="M257-230.5c0,1.9-1.6,3.5-3.5,3.5c-1.9,0-3.5-1.6-3.5-3.5c0-1.9,1.6-3.5,3.5-3.5
				C255.4-234,257-232.4,257-230.5L257-230.5z"/>
			<path id="path12597_5_" class="st5" d="M243-230.5c0,1.9-1.6,3.5-3.5,3.5c-1.9,0-3.5-1.6-3.5-3.5c0-1.9,1.6-3.5,3.5-3.5
				C241.4-234,243-232.4,243-230.5L243-230.5z"/>
			
				<linearGradient id="path12599_1_" gradientUnits="userSpaceOnUse" x1="495.526" y1="242.5167" x2="498.9764" y2="239.0206" gradientTransform="matrix(1.0563 0 0 -1.0566 -286.4356 23.203)">
				<stop  offset="0" style="stop-color:#FFFFFF"/>
				<stop  offset="1" style="stop-color:#FFFFFF;stop-opacity:0"/>
			</linearGradient>
			<path id="path12599_5_" class="st14" d="M243-230.5c0,1.9-1.6,3.5-3.5,3.5c-1.9,0-3.5-1.6-3.5-3.5c0-1.9,1.6-3.5,3.5-3.5
				C241.4-234,243-232.4,243-230.5L243-230.5z"/>
			<path id="path12601_5_" class="st5" d="M245.4-234c-3.6,0-6.5,2.9-6.5,6.5c0,2.4,1.3,4.3,3.3,5.5h6.5c1.9-1.1,3.3-3.1,3.3-5.5
				C251.9-231.1,249-234,245.4-234z"/>
			
				<linearGradient id="path12603_1_" gradientUnits="userSpaceOnUse" x1="492.5909" y1="235.3548" x2="496.6245" y2="230.1681" gradientTransform="matrix(0.9997 0 0 -1 -249.9051 4.0001)">
				<stop  offset="0" style="stop-color:#FFFFFF"/>
				<stop  offset="1" style="stop-color:#FFFFFF;stop-opacity:0"/>
			</linearGradient>
			<path id="path12603_5_" class="st15" d="M245.5-234c-3.6,0-6.5,2.9-6.5,6.5c0,2.4,1.3,4.4,3.3,5.5h6.5c1.9-1.1,3.3-3.1,3.3-5.5
				C252-231.1,249.1-234,245.5-234z"/>
			
				<linearGradient id="path12605_1_" gradientUnits="userSpaceOnUse" x1="512.2663" y1="225.5553" x2="515.366" y2="222.7788" gradientTransform="matrix(0.9054 0 0 -0.9057 -228.5208 -22.2547)">
				<stop  offset="0" style="stop-color:#FFFFFF"/>
				<stop  offset="1" style="stop-color:#FFFFFF;stop-opacity:0"/>
			</linearGradient>
			<path id="path12605_5_" class="st16" d="M240-225c0,1.7-1.3,3-3,3s-3-1.3-3-3s1.3-3,3-3S240-226.7,240-225L240-225z"/>
			<path id="path12607_5_" class="st17" d="M258.9-230.3c0,2.7-3.3,3.7-3.3,3.7s2.3-1.6,2.3-3.7L258.9-230.3z"/>
			<path id="path12609_5_" class="st5" d="M254-226c0,2.2-1.8,4-4,4s-4-1.8-4-4c0-2.2,1.8-4,4-4S254-228.2,254-226L254-226z"/>
			
				<linearGradient id="path12611_1_" gradientUnits="userSpaceOnUse" x1="482.2353" y1="256.0285" x2="486.3327" y2="251.6267" gradientTransform="matrix(1.2072 0 0 -1.2075 -336.3501 78.6607)">
				<stop  offset="0" style="stop-color:#FFFFFF"/>
				<stop  offset="1" style="stop-color:#FFFFFF;stop-opacity:0"/>
			</linearGradient>
			<path id="path12611_5_" class="st18" d="M254-226c0,2.2-1.8,4-4,4s-4-1.8-4-4c0-2.2,1.8-4,4-4S254-228.2,254-226L254-226z"/>
		</g>
		<g id="g12393_5_" transform="translate(56.98577,3.983930)">
			<path id="path12329_5_" class="st10" d="M246.5-238.5c-2.3,0-4.1,1.6-4.7,3.6c-0.7-0.4-1.4-0.6-2.3-0.6c-2.8,0-5,2.2-5,5
				c0,0.6,0.2,1.1,0.3,1.6c-1.4,0.8-2.3,2.2-2.3,3.9c0,2.5,2,4.5,4.5,4.5c0.2,0,18.8,0,19,0c2.5,0,4.5-2,4.5-4.5
				c0-1.7-1-3.1-2.3-3.9c0.2-0.5,0.3-1,0.3-1.6c0-2.8-2.2-5-5-5c-0.8,0-1.6,0.3-2.3,0.6C250.6-236.9,248.7-238.5,246.5-238.5z"/>
			
				<linearGradient id="path12331_1_" gradientUnits="userSpaceOnUse" x1="500.7692" y1="241.5949" x2="514.7761" y2="232.513" gradientTransform="matrix(0.9997 0 0 -1 -263.9145 8.0161)">
				<stop  offset="0" style="stop-color:#FFFFFF"/>
				<stop  offset="1" style="stop-color:#FFFFFF;stop-opacity:0"/>
			</linearGradient>
			<path id="path12331_5_" class="st19" d="M246.5-238c-2.2,0-3.7,1.3-4.4,3.8c-0.7-0.3-1.5-0.8-2.4-0.8c-2.7,0-4.8,1.9-4.8,4.5
				c0,0.5,0.3,1.3,0.4,1.8c-1.3,0.7-2.4,1.9-2.4,3.4c0,2.3,1.5,4.3,4.3,4.3c0.2,0,18.2,0,18.3,0c2.8,0,4.3-1.9,4.3-4.3
				c0-1.6-1.1-2.7-2.4-3.4c0.2-0.5,0.5-1.3,0.5-1.8c0-2.6-2.1-4.6-4.8-4.6c-0.8,0-1.6,0.5-2.3,0.8C250.3-236.6,248.7-238,246.5-238z
				"/>
			<path id="path12333_5_" class="st5" d="M250-233.5c0,1.9-1.6,3.5-3.5,3.5c-1.9,0-3.5-1.6-3.5-3.5c0-1.9,1.6-3.5,3.5-3.5
				C248.4-237,250-235.4,250-233.5L250-233.5z"/>
			
				<linearGradient id="path12335_1_" gradientUnits="userSpaceOnUse" x1="511.6977" y1="246.0609" x2="513.8567" y2="242.6301" gradientTransform="matrix(1.0563 0 0 -1.0566 -295.2946 24.4463)">
				<stop  offset="0" style="stop-color:#FFFFFF"/>
				<stop  offset="1" style="stop-color:#FFFFFF;stop-opacity:0"/>
			</linearGradient>
			<path id="path12335_5_" class="st20" d="M250-233.5c0,1.9-1.6,3.5-3.5,3.5c-1.9,0-3.5-1.6-3.5-3.5c0-1.9,1.6-3.5,3.5-3.5
				C248.4-237,250-235.4,250-233.5L250-233.5z"/>
			<rect id="rect12337_5_" x="237" y="-231" class="st5" width="20" height="9"/>
			<path id="path12339_5_" class="st5" d="M240-225c0,1.7-1.3,3-3,3c-1.7,0-3-1.3-3-3s1.3-3,3-3C238.6-228,240-226.7,240-225
				L240-225z"/>
			<path id="path12341_5_" class="st5" d="M257-230.5c0,1.9-1.6,3.5-3.5,3.5c-1.9,0-3.5-1.6-3.5-3.5c0-1.9,1.6-3.5,3.5-3.5
				C255.4-234,257-232.4,257-230.5L257-230.5z"/>
			
				<linearGradient id="path12343_1_" gradientUnits="userSpaceOnUse" x1="510.6725" y1="247.5791" x2="514.0146" y2="242.4329" gradientTransform="matrix(1.0563 0 0 -1.0566 -288.2946 27.4463)">
				<stop  offset="0" style="stop-color:#FFFFFF"/>
				<stop  offset="1" style="stop-color:#FFFFFF;stop-opacity:0"/>
			</linearGradient>
			<path id="path12343_5_" class="st21" d="M257-230.5c0,1.9-1.6,3.5-3.5,3.5c-1.9,0-3.5-1.6-3.5-3.5c0-1.9,1.6-3.5,3.5-3.5
				C255.4-234,257-232.4,257-230.5L257-230.5z"/>
			<path id="path12347_5_" class="st5" d="M243-230.5c0,1.9-1.6,3.5-3.5,3.5c-1.9,0-3.5-1.6-3.5-3.5c0-1.9,1.6-3.5,3.5-3.5
				C241.4-234,243-232.4,243-230.5L243-230.5z"/>
			
				<linearGradient id="path12349_1_" gradientUnits="userSpaceOnUse" x1="510.5403" y1="246.5327" x2="513.9907" y2="243.0366" gradientTransform="matrix(1.0563 0 0 -1.0566 -302.2946 27.4463)">
				<stop  offset="0" style="stop-color:#FFFFFF"/>
				<stop  offset="1" style="stop-color:#FFFFFF;stop-opacity:0"/>
			</linearGradient>
			<path id="path12349_5_" class="st22" d="M243-230.5c0,1.9-1.6,3.5-3.5,3.5c-1.9,0-3.5-1.6-3.5-3.5c0-1.9,1.6-3.5,3.5-3.5
				C241.4-234,243-232.4,243-230.5L243-230.5z"/>
			<path id="path12351_5_" class="st5" d="M245.4-234c-3.6,0-6.5,2.9-6.5,6.5c0,2.4,1.3,4.3,3.3,5.5h6.5c1.9-1.1,3.3-3.1,3.3-5.5
				C251.9-231.1,249-234,245.4-234z"/>
			
				<linearGradient id="path12353_1_" gradientUnits="userSpaceOnUse" x1="507.6052" y1="239.3708" x2="511.6388" y2="234.1841" gradientTransform="matrix(0.9997 0 0 -1 -264.9145 8.0161)">
				<stop  offset="0" style="stop-color:#FFFFFF"/>
				<stop  offset="1" style="stop-color:#FFFFFF;stop-opacity:0"/>
			</linearGradient>
			<path id="path12353_5_" class="st23" d="M245.5-234c-3.6,0-6.5,2.9-6.5,6.5c0,2.4,1.3,4.4,3.3,5.5h6.5c1.9-1.1,3.3-3.1,3.3-5.5
				C252-231.1,249.1-234,245.5-234z"/>
			
				<linearGradient id="path12355_1_" gradientUnits="userSpaceOnUse" x1="527.2806" y1="229.5713" x2="530.3803" y2="226.7948" gradientTransform="matrix(0.9054 0 0 -0.9057 -242.1143 -18.6176)">
				<stop  offset="0" style="stop-color:#FFFFFF"/>
				<stop  offset="1" style="stop-color:#FFFFFF;stop-opacity:0"/>
			</linearGradient>
			<path id="path12355_5_" class="st24" d="M240-225c0,1.7-1.3,3-3,3s-3-1.3-3-3s1.3-3,3-3S240-226.7,240-225L240-225z"/>
			<path id="path12357_5_" class="st17" d="M258.9-230.3c0,2.7-3.3,3.7-3.3,3.7s2.3-1.6,2.3-3.7L258.9-230.3z"/>
			<path id="path12359_5_" class="st5" d="M254-226c0,2.2-1.8,4-4,4s-4-1.8-4-4c0-2.2,1.8-4,4-4S254-228.2,254-226L254-226z"/>
			
				<linearGradient id="path12361_1_" gradientUnits="userSpaceOnUse" x1="497.2496" y1="260.0446" x2="501.347" y2="255.6427" gradientTransform="matrix(1.2072 0 0 -1.2075 -354.4747 83.5102)">
				<stop  offset="0" style="stop-color:#FFFFFF"/>
				<stop  offset="1" style="stop-color:#FFFFFF;stop-opacity:0"/>
			</linearGradient>
			<path id="path12361_5_" class="st25" d="M254-226c0,2.2-1.8,4-4,4s-4-1.8-4-4c0-2.2,1.8-4,4-4S254-228.2,254-226L254-226z"/>
		</g>
	</g>
	<g id="g12191_1_" transform="translate(-222.9549,261.0144)">
		<path id="path12193_1_" class="st0" d="M232.6-228.8c-1-0.6-1.4-1.9-0.8-2.9c1.3-2.1,3.1-1.5,4-3.7
			C237.1-234.1,236.6-227.2,232.6-228.8z"/>
		
			<radialGradient id="path12195_2_" cx="1865.4027" cy="-11.9641" r="21.7436" gradientTransform="matrix(7.065158e-02 4.154803e-02 6.201499e-02 -0.1094 102.6992 -309.6197)" gradientUnits="userSpaceOnUse">
			<stop  offset="0" style="stop-color:#FFFFFF"/>
			<stop  offset="1" style="stop-color:#FFFFFF;stop-opacity:0"/>
		</radialGradient>
		<path id="path12195_1_" class="st26" d="M235.3-229.9c-0.5,0.9-1.6,1.2-2.4,0.7c-0.8-0.5-1.1-1.6-0.6-2.5c0.5-0.9,2.6-0.5,3.3-2.3
			C236.4-233.5,235.8-230.8,235.3-229.9z"/>
		
			<linearGradient id="path12197_2_" gradientUnits="userSpaceOnUse" x1="392.3373" y1="1526.1603" x2="412.8434" y2="1547.6387" gradientTransform="matrix(-5.358613e-02 0.1028 9.281434e-02 5.937964e-02 112.3583 -364.6127)">
			<stop  offset="0" style="stop-color:#FFFFFF"/>
			<stop  offset="1" style="stop-color:#FFFFFF;stop-opacity:0"/>
		</linearGradient>
		<path id="path12197_1_" class="st27" d="M234-229c-4.6-1.1,0.2-4.7,1-3.9C231.4-231.6,234-229,234-229z"/>
	</g>
	<g id="g12186_1_" transform="translate(-224.9550,271.0079)">
		<path id="path6059_1_" class="st0" d="M231.6-228.8c-1-0.6-1.4-1.9-0.8-2.9c1.3-2.1,3.1-1.5,4-3.7
			C236.1-234.1,235.6-227.2,231.6-228.8z"/>
		
			<radialGradient id="path6061_2_" cx="1856.7872" cy="-25.9889" r="21.7436" gradientTransform="matrix(7.065158e-02 4.154803e-02 6.201499e-02 -0.1094 103.1776 -310.7962)" gradientUnits="userSpaceOnUse">
			<stop  offset="0" style="stop-color:#FFFFFF"/>
			<stop  offset="1" style="stop-color:#FFFFFF;stop-opacity:0"/>
		</radialGradient>
		<path id="path6061_1_" class="st28" d="M234.3-229.9c-0.5,0.9-1.6,1.2-2.4,0.7c-0.8-0.5-1.1-1.6-0.6-2.5c0.5-0.9,2.6-0.5,3.3-2.3
			C235.4-233.5,234.8-230.8,234.3-229.9z"/>
		
			<linearGradient id="path6063_2_" gradientUnits="userSpaceOnUse" x1="399.0028" y1="1508.0861" x2="419.5089" y2="1529.5645" gradientTransform="matrix(-5.358613e-02 0.1028 9.281434e-02 5.937964e-02 113.393 -364.225)">
			<stop  offset="0" style="stop-color:#FFFFFF"/>
			<stop  offset="1" style="stop-color:#FFFFFF;stop-opacity:0"/>
		</linearGradient>
		<path id="path6063_1_" class="st29" d="M233-229c-4.6-1.1,0.2-4.7,1-3.9C230.4-231.6,233-229,233-229z"/>
	</g>
	<g id="g12203_2_" transform="translate(-214.9565,266.0066)">
		<path id="path12205_2_" class="st0" d="M232.6-229.8c-1-0.6-1.4-1.9-0.8-2.9c1.3-2.1,3.1-1.5,4-3.7
			C237.1-235.1,236.6-228.2,232.6-229.8z"/>
		
			<radialGradient id="path12207_1_" cx="1851.3872" cy="-10.1012" r="21.7436" gradientTransform="matrix(7.065158e-02 4.154803e-02 6.201499e-02 -0.1094 103.5739 -309.8336)" gradientUnits="userSpaceOnUse">
			<stop  offset="0" style="stop-color:#FFFFFF"/>
			<stop  offset="1" style="stop-color:#FFFFFF;stop-opacity:0"/>
		</radialGradient>
		<path id="path12207_2_" class="st30" d="M235.3-230.9c-0.5,0.9-1.6,1.2-2.4,0.7c-0.8-0.5-1.1-1.6-0.6-2.5c0.5-0.9,2.6-0.5,3.3-2.3
			C236.4-234.5,235.8-231.8,235.3-230.9z"/>
		
			<linearGradient id="path12209_1_" gradientUnits="userSpaceOnUse" x1="377.0467" y1="1516.9579" x2="397.5528" y2="1538.4363" gradientTransform="matrix(-5.358613e-02 0.1028 9.281434e-02 5.937964e-02 112.3931 -363.4936)">
			<stop  offset="0" style="stop-color:#FFFFFF"/>
			<stop  offset="1" style="stop-color:#FFFFFF;stop-opacity:0"/>
		</linearGradient>
		<path id="path12209_2_" class="st31" d="M234-230c-4.6-1.1,0.2-4.7,1-3.9C231.4-232.6,234-230,234-230z"/>
	</g>
	<g id="g12215_1_" transform="translate(-200.9565,261.0144)">
		<path id="path12217_1_" class="st0" d="M234.6-229.8c-1-0.6-1.4-1.9-0.8-2.9c1.3-2.1,3.1-1.5,4-3.7
			C239.1-235.1,238.6-228.2,234.6-229.8z"/>
		
			<radialGradient id="path12219_2_" cx="1858.6182" cy="2.9535" r="21.7436" gradientTransform="matrix(7.065158e-02 4.154803e-02 6.201499e-02 -0.1094 104.2534 -308.7057)" gradientUnits="userSpaceOnUse">
			<stop  offset="0" style="stop-color:#FFFFFF"/>
			<stop  offset="1" style="stop-color:#FFFFFF;stop-opacity:0"/>
		</radialGradient>
		<path id="path12219_1_" class="st32" d="M237.3-230.9c-0.5,0.9-1.6,1.2-2.4,0.7c-0.8-0.5-1.1-1.6-0.6-2.5c0.5-0.9,2.6-0.5,3.3-2.3
			C238.4-234.5,237.8-231.8,237.3-230.9z"/>
		
			<linearGradient id="path12221_2_" gradientUnits="userSpaceOnUse" x1="353.7159" y1="1538.1115" x2="374.222" y2="1559.5898" gradientTransform="matrix(-5.358613e-02 0.1028 9.281434e-02 5.937964e-02 111.1795 -362.3502)">
			<stop  offset="0" style="stop-color:#FFFFFF"/>
			<stop  offset="1" style="stop-color:#FFFFFF;stop-opacity:0"/>
		</linearGradient>
		<path id="path12221_1_" class="st33" d="M236-230c-4.6-1.1,0.2-4.7,1-3.9C233.4-232.6,236-230,236-230z"/>
	</g>
	<path id="path12159_6_" class="st34" d="M6.3,34c0,0.8-0.7,1.5-1.5,1.5S3.2,34.8,3.2,34c0-0.8,0.7-1.5,1.5-1.5S6.3,33.1,6.3,34z"/>
	<path id="path12161_4_" class="st34" d="M25.3,40.5c0,1.1-0.9,2-2,2s-2-0.9-2-2c0-1.1,0.9-2,2-2S25.3,39.4,25.3,40.5z"/>
	<path id="path12163_5_" class="st35" d="M16.2,41c0,0.8-0.7,1.5-1.5,1.5c-0.8,0-1.5-0.7-1.5-1.5c0-0.8,0.7-1.5,1.5-1.5
		C15.5,39.5,16.2,40.2,16.2,41z"/>
	<path id="path12165_5_" class="st36" d="M40.2,36c0,0.8-0.7,1.5-1.5,1.5c-0.8,0-1.5-0.7-1.5-1.5c0-0.8,0.7-1.5,1.5-1.5
		C39.6,34.5,40.2,35.1,40.2,36z"/>
	<path id="path12167_4_" class="st37" d="M30.2,33c0,1.4-1.1,2.5-2.4,2.5s-2.4-1.1-2.4-2.5c0-1.4,1.1-2.5,2.4-2.5S30.2,31.6,30.2,33
		z"/>
</g>
</svg>
