<?xml version="1.0" encoding="utf-8"?>
<!-- Generator: Adobe Illustrator 24.0.1, SVG Export Plug-In . SVG Version: 6.00 Build 0)  -->
<svg version="1.1"
	 id="svg1306" xmlns:cc="http://creativecommons.org/ns#" xmlns:dc="http://purl.org/dc/elements/1.1/" xmlns:inkscape="http://www.inkscape.org/namespaces/inkscape" xmlns:rdf="http://www.w3.org/1999/02/22-rdf-syntax-ns#" xmlns:sodipodi="http://sodipodi.sourceforge.net/DTD/sodipodi-0.dtd" xmlns:svg="http://www.w3.org/2000/svg"
	 xmlns="http://www.w3.org/2000/svg" xmlns:xlink="http://www.w3.org/1999/xlink" x="0px" y="0px" viewBox="0 0 48 48"
	 style="enable-background:new 0 0 48 48;" xml:space="preserve">
<style type="text/css">
	.st0{fill:#555753;}
	.st1{fill:url(#path8889_1_);}
	.st2{fill:#888A85;}
	.st3{opacity:0.4944;fill:url(#path8897_1_);enable-background:new    ;}
	.st4{opacity:0.4944;fill:url(#path8903_1_);enable-background:new    ;}
	.st5{opacity:0.4944;fill:url(#path8909_1_);enable-background:new    ;}
	.st6{opacity:0.4944;fill:url(#path8915_1_);enable-background:new    ;}
	.st7{fill:#888A85;stroke:#555753;stroke-width:0.9998;stroke-miterlimit:1.9993;}
	.st8{fill:url(#path12582_1_);}
	.st9{opacity:0.4778;fill:url(#path12586_1_);enable-background:new    ;}
	.st10{opacity:0.4778;fill:url(#path12595_1_);enable-background:new    ;}
	.st11{opacity:0.4778;fill:url(#path12599_1_);enable-background:new    ;}
	.st12{opacity:0.4778;fill:url(#path12603_1_);enable-background:new    ;}
	.st13{opacity:0.4778;fill:url(#path12605_1_);enable-background:new    ;}
	.st14{fill-rule:evenodd;clip-rule:evenodd;fill:#555753;}
	.st15{opacity:0.4778;fill:url(#path12611_1_);enable-background:new    ;}
	.st16{fill:url(#path12331_1_);}
	.st17{opacity:0.4778;fill:url(#path12335_1_);enable-background:new    ;}
	.st18{opacity:0.4778;fill:url(#path12343_1_);enable-background:new    ;}
	.st19{opacity:0.4778;fill:url(#path12349_1_);enable-background:new    ;}
	.st20{opacity:0.4778;fill:url(#path12353_1_);enable-background:new    ;}
	.st21{opacity:0.4778;fill:url(#path12355_1_);enable-background:new    ;}
	.st22{opacity:0.4778;fill:url(#path12361_1_);enable-background:new    ;}
	.st23{fill:#729FCF;stroke:#204A87;stroke-width:1.0746;stroke-miterlimit:2;}
	.st24{opacity:0.4611;fill:url(#path12195_1_);enable-background:new    ;}
	.st25{fill:url(#path12197_1_);}
	.st26{opacity:0.4611;fill:url(#path12243_1_);enable-background:new    ;}
	.st27{fill:url(#path12245_1_);}
</style>
<g id="layer1_34_">
	<g id="g12627_6_" transform="matrix(0.999675,0.000000,0.000000,1.000000,-286.8482,245.0001)">
		<g id="g12533_6_">
			<path id="path8887_6_" class="st0" d="M311.5-243c-2.8,0-5.1,1.6-6.4,3.8c-0.9-0.5-2-0.8-3.1-0.8c-3.9,0-7,3.1-7,7s3.1,7,7,7
				c2.4,0,4.4-1.3,5.7-3.2c1.1,0.7,2.4,1.2,3.8,1.2c0.9,0,1.8-0.2,2.6-0.5c0.5,0.9,1.2,1.6,2,2.2c0,0.1-0.1,0.2-0.1,0.4
				c0,3.9,3.1,7,7,7s7-3.1,7-7c0-2.4-1.3-4.4-3.1-5.6c0-0.1,0.1-0.2,0.1-0.4c0-3.9-3.1-7-7-7c-0.6,0-1.2,0.2-1.8,0.4
				C317.1-241.2,314.5-243,311.5-243z"/>
			
				<linearGradient id="path8889_1_" gradientUnits="userSpaceOnUse" x1="515.5221" y1="197.2191" x2="553.3834" y2="184.1818" gradientTransform="matrix(0.9997 0 0 -1 -217.8817 -40.0001)">
				<stop  offset="0" style="stop-color:#FFFFFF"/>
				<stop  offset="1" style="stop-color:#FFFFFF;stop-opacity:0"/>
			</linearGradient>
			<path id="path8889_6_" class="st1" d="M311.5-242c-2.8,0-5.1,1.8-6.1,4.2c-1-0.7-2.1-1.2-3.4-1.2c-3.3,0-6,2.7-6,6
				c0,3.3,2.7,6,6,6c2.4,0,4.5-1.5,5.4-3.5c1.1,0.9,2.5,1.5,4.1,1.5c1.1,0,2-0.3,2.9-0.8c0.4,1,1.1,1.8,1.9,2.4
				c-0.2,0.6-0.4,1.2-0.4,1.8c0,3.6,2.9,6.5,6.5,6.5s6.5-2.9,6.5-6.5c0-2.4-1.3-4.3-3.2-5.5c0.1-0.3,0.2-0.7,0.2-1c0-3.3-2.7-6-6-6
				c-0.9,0-1.7,0.2-2.4,0.5C316.7-240.1,314.4-242,311.5-242z"/>
			<path id="path8891_6_" class="st2" d="M329-225.5c0,3.6-2.9,6.5-6.5,6.5c-3.6,0-6.5-2.9-6.5-6.5c0,0,0,0,0,0
				c0-3.6,2.9-6.5,6.5-6.5C326.1-232,329-229.1,329-225.5C329-225.5,329-225.5,329-225.5z"/>
			<g id="g12520_6_">
				<path id="path8895_6_" class="st2" d="M317-235.5c0,3-2.5,5.5-5.5,5.5s-5.5-2.5-5.5-5.5s2.5-5.5,5.5-5.5S317-238.5,317-235.5z"
					/>
				
					<linearGradient id="path8897_1_" gradientUnits="userSpaceOnUse" x1="540.4222" y1="184.2246" x2="546.1755" y2="179.3677" gradientTransform="matrix(0.8823 0 0 -0.8826 -169.1227 -76.093)">
					<stop  offset="0" style="stop-color:#FFFFFF"/>
					<stop  offset="1" style="stop-color:#FFFFFF;stop-opacity:0"/>
				</linearGradient>
				<path id="path8897_6_" class="st3" d="M317-235.5c0,3-2.5,5.5-5.5,5.5s-5.5-2.5-5.5-5.5s2.5-5.5,5.5-5.5S317-238.5,317-235.5z"
					/>
			</g>
			<g id="g12516_6_">
				<path id="path8901_6_" class="st2" d="M325-231.5c0,3-2.5,5.5-5.5,5.5s-5.5-2.5-5.5-5.5l0,0c0-3,2.5-5.5,5.5-5.5
					S325-234.5,325-231.5z"/>
				
					<linearGradient id="path8903_1_" gradientUnits="userSpaceOnUse" x1="543.2538" y1="185.8214" x2="549.2112" y2="179.8592" gradientTransform="matrix(0.9114 0 0 -0.9117 -180.199 -66.6455)">
					<stop  offset="0" style="stop-color:#FFFFFF"/>
					<stop  offset="1" style="stop-color:#FFFFFF;stop-opacity:0"/>
				</linearGradient>
				<path id="path8903_6_" class="st4" d="M325-231.5c0,3-2.5,5.5-5.5,5.5s-5.5-2.5-5.5-5.5l0,0c0-3,2.5-5.5,5.5-5.5
					S325-234.5,325-231.5z"/>
			</g>
			<g id="g12524_6_">
				<path id="path8907_6_" class="st2" d="M307-233c0,2.8-2.2,5-5,5c-2.8,0-5-2.2-5-5c0-2.8,2.2-5,5-5C304.8-238,307-235.8,307-233
					L307-233z"/>
				
					<linearGradient id="path8909_1_" gradientUnits="userSpaceOnUse" x1="504.7938" y1="207.9909" x2="509.1743" y2="204.5104" gradientTransform="matrix(1.1424 0 0 -1.1428 -277.9027 2.1394)">
					<stop  offset="0" style="stop-color:#FFFFFF"/>
					<stop  offset="1" style="stop-color:#FFFFFF;stop-opacity:0"/>
				</linearGradient>
				<path id="path8909_6_" class="st5" d="M307-233c0,2.8-2.2,5-5,5c-2.8,0-5-2.2-5-5c0-2.8,2.2-5,5-5C304.8-238,307-235.8,307-233
					L307-233z"/>
			</g>
			<g id="g12529_6_">
				<path id="path8913_6_" class="st2" d="M318-229c0,3.9-3.1,7-7,7c-3.9,0-7-3.1-7-7c0,0,0,0,0,0c0-3.9,3.1-7,7-7
					C314.9-236,318-232.9,318-229C318-229,318-229,318-229z"/>
				
					<linearGradient id="path8915_1_" gradientUnits="userSpaceOnUse" x1="520.3023" y1="196.098" x2="527.9521" y2="190.2686" gradientTransform="matrix(1.0383 0 0 -1.0386 -234.1358 -29.0647)">
					<stop  offset="0" style="stop-color:#FFFFFF"/>
					<stop  offset="1" style="stop-color:#FFFFFF;stop-opacity:0"/>
				</linearGradient>
				<path id="path8915_6_" class="st6" d="M318-229c0,3.9-3.1,7-7,7c-3.9,0-7-3.1-7-7c0,0,0,0,0,0c0-3.9,3.1-7,7-7
					C314.9-236,318-232.9,318-229C318-229,318-229,318-229z"/>
			</g>
		</g>
		<g id="g12578_6_" transform="translate(72.00007,7.999930)">
			<path id="path12580_6_" class="st7" d="M246.5-238.5c-2.3,0-4.1,1.6-4.7,3.6c-0.7-0.4-1.4-0.6-2.3-0.6c-2.8,0-5,2.2-5,5
				c0,0.6,0.2,1.1,0.3,1.6c-1.4,0.8-2.3,2.2-2.3,3.9c0,2.5,2,4.5,4.5,4.5c0.2,0,18.8,0,19,0c2.5,0,4.5-2,4.5-4.5
				c0-1.7-1-3.1-2.3-3.9c0.2-0.5,0.3-1,0.3-1.6c0-2.8-2.2-5-5-5c-0.8,0-1.6,0.3-2.3,0.6C250.6-236.9,248.8-238.5,246.5-238.5z"/>
			
				<linearGradient id="path12582_1_" gradientUnits="userSpaceOnUse" x1="485.778" y1="237.5788" x2="499.7849" y2="228.4969" gradientTransform="matrix(0.9997 0 0 -1 -248.9051 4.0001)">
				<stop  offset="0" style="stop-color:#FFFFFF"/>
				<stop  offset="1" style="stop-color:#FFFFFF;stop-opacity:0"/>
			</linearGradient>
			<path id="path12582_6_" class="st8" d="M246.5-238c-2.2,0-3.7,1.3-4.4,3.8c-0.7-0.3-1.5-0.8-2.4-0.8c-2.7,0-4.8,1.9-4.8,4.5
				c0,0.5,0.3,1.3,0.4,1.8c-1.3,0.7-2.4,1.9-2.4,3.4c0,2.3,1.5,4.3,4.3,4.3c0.2,0,18.2,0,18.3,0c2.8,0,4.3-1.9,4.3-4.3
				c0-1.6-1.1-2.7-2.4-3.4c0.2-0.5,0.5-1.3,0.5-1.8c0-2.6-2.1-4.6-4.8-4.6c-0.8,0-1.6,0.5-2.3,0.8C250.3-236.6,248.7-238,246.5-238z
				"/>
			<path id="path12584_6_" class="st2" d="M250-233.5c0,1.9-1.6,3.5-3.5,3.5c-1.9,0-3.5-1.6-3.5-3.5c0-1.9,1.6-3.5,3.5-3.5
				C248.4-237,250-235.4,250-233.5L250-233.5z"/>
			
				<linearGradient id="path12586_1_" gradientUnits="userSpaceOnUse" x1="496.7053" y1="242.0448" x2="498.8643" y2="238.614" gradientTransform="matrix(1.0563 0 0 -1.0566 -279.4356 20.203)">
				<stop  offset="0" style="stop-color:#FFFFFF"/>
				<stop  offset="1" style="stop-color:#FFFFFF;stop-opacity:0"/>
			</linearGradient>
			<path id="path12586_6_" class="st9" d="M250-233.5c0,1.9-1.6,3.5-3.5,3.5c-1.9,0-3.5-1.6-3.5-3.5c0-1.9,1.6-3.5,3.5-3.5
				C248.4-237,250-235.4,250-233.5L250-233.5z"/>
			<rect id="rect12588_6_" x="237" y="-231" class="st2" width="20" height="9"/>
			<path id="path12591_6_" class="st2" d="M240-225c0,1.7-1.3,3-3,3s-3-1.3-3-3s1.3-3,3-3S240-226.7,240-225L240-225z"/>
			<path id="path12593_6_" class="st2" d="M257-230.5c0,1.9-1.6,3.5-3.5,3.5c-1.9,0-3.5-1.6-3.5-3.5c0-1.9,1.6-3.5,3.5-3.5
				C255.4-234,257-232.4,257-230.5L257-230.5z"/>
			
				<linearGradient id="path12595_1_" gradientUnits="userSpaceOnUse" x1="495.6801" y1="243.563" x2="499.0222" y2="238.4168" gradientTransform="matrix(1.0563 0 0 -1.0566 -272.4356 23.203)">
				<stop  offset="0" style="stop-color:#FFFFFF"/>
				<stop  offset="1" style="stop-color:#FFFFFF;stop-opacity:0"/>
			</linearGradient>
			<path id="path12595_6_" class="st10" d="M257-230.5c0,1.9-1.6,3.5-3.5,3.5c-1.9,0-3.5-1.6-3.5-3.5c0-1.9,1.6-3.5,3.5-3.5
				C255.4-234,257-232.4,257-230.5L257-230.5z"/>
			<path id="path12597_6_" class="st2" d="M243-230.5c0,1.9-1.6,3.5-3.5,3.5c-1.9,0-3.5-1.6-3.5-3.5c0-1.9,1.6-3.5,3.5-3.5
				C241.4-234,243-232.4,243-230.5L243-230.5z"/>
			
				<linearGradient id="path12599_1_" gradientUnits="userSpaceOnUse" x1="495.5479" y1="242.5166" x2="498.9983" y2="239.0205" gradientTransform="matrix(1.0563 0 0 -1.0566 -286.4356 23.203)">
				<stop  offset="0" style="stop-color:#FFFFFF"/>
				<stop  offset="1" style="stop-color:#FFFFFF;stop-opacity:0"/>
			</linearGradient>
			<path id="path12599_6_" class="st11" d="M243-230.5c0,1.9-1.6,3.5-3.5,3.5c-1.9,0-3.5-1.6-3.5-3.5c0-1.9,1.6-3.5,3.5-3.5
				C241.4-234,243-232.4,243-230.5L243-230.5z"/>
			<path id="path12601_6_" class="st2" d="M245.5-234c-3.6,0-6.5,2.9-6.5,6.5c0,2.4,1.3,4.3,3.3,5.5h6.5c1.9-1.1,3.3-3.1,3.3-5.5
				C252-231.1,249-234,245.5-234z"/>
			
				<linearGradient id="path12603_1_" gradientUnits="userSpaceOnUse" x1="492.6141" y1="235.3547" x2="496.6476" y2="230.168" gradientTransform="matrix(0.9997 0 0 -1 -249.9051 4.0001)">
				<stop  offset="0" style="stop-color:#FFFFFF"/>
				<stop  offset="1" style="stop-color:#FFFFFF;stop-opacity:0"/>
			</linearGradient>
			<path id="path12603_6_" class="st12" d="M245.5-234c-3.6,0-6.5,2.9-6.5,6.5c0,2.4,1.3,4.4,3.3,5.5h6.5c1.9-1.1,3.3-3.1,3.3-5.5
				C252-231.1,249.1-234,245.5-234z"/>
			
				<linearGradient id="path12605_1_" gradientUnits="userSpaceOnUse" x1="512.2918" y1="225.5552" x2="515.3915" y2="222.7787" gradientTransform="matrix(0.9054 0 0 -0.9057 -228.5208 -22.2547)">
				<stop  offset="0" style="stop-color:#FFFFFF"/>
				<stop  offset="1" style="stop-color:#FFFFFF;stop-opacity:0"/>
			</linearGradient>
			<path id="path12605_6_" class="st13" d="M240-225c0,1.7-1.3,3-3,3c-1.7,0-3-1.3-3-3s1.3-3,3-3C238.7-228,240-226.7,240-225
				L240-225z"/>
			<path id="path12607_6_" class="st14" d="M259-230.3c0,2.7-3.3,3.7-3.3,3.7s2.3-1.6,2.3-3.7L259-230.3z"/>
			<path id="path12609_6_" class="st2" d="M254-226c0,2.2-1.8,4-4,4c-2.2,0-4-1.8-4-4c0-2.2,1.8-4,4-4C252.2-230,254-228.2,254-226
				L254-226z"/>
			
				<linearGradient id="path12611_1_" gradientUnits="userSpaceOnUse" x1="482.2545" y1="256.0285" x2="486.3518" y2="251.6266" gradientTransform="matrix(1.2072 0 0 -1.2075 -336.3501 78.6607)">
				<stop  offset="0" style="stop-color:#FFFFFF"/>
				<stop  offset="1" style="stop-color:#FFFFFF;stop-opacity:0"/>
			</linearGradient>
			<path id="path12611_6_" class="st15" d="M254-226c0,2.2-1.8,4-4,4c-2.2,0-4-1.8-4-4c0-2.2,1.8-4,4-4C252.2-230,254-228.2,254-226
				L254-226z"/>
		</g>
		<g id="g12393_6_" transform="translate(56.98577,3.983930)">
			<path id="path12329_6_" class="st7" d="M246.5-238.5c-2.3,0-4.1,1.6-4.7,3.6c-0.7-0.4-1.4-0.6-2.3-0.6c-2.8,0-5,2.2-5,5
				c0,0.6,0.2,1.1,0.3,1.6c-1.4,0.8-2.3,2.2-2.3,3.9c0,2.5,2,4.5,4.5,4.5c0.2,0,18.8,0,19,0c2.5,0,4.5-2,4.5-4.5
				c0-1.7-1-3.1-2.3-3.9c0.2-0.5,0.3-1,0.3-1.6c0-2.8-2.2-5-5-5c-0.8,0-1.6,0.3-2.3,0.6C250.6-236.9,248.8-238.5,246.5-238.5z"/>
			
				<linearGradient id="path12331_1_" gradientUnits="userSpaceOnUse" x1="500.7923" y1="241.5948" x2="514.7992" y2="232.5129" gradientTransform="matrix(0.9997 0 0 -1 -263.9145 8.0161)">
				<stop  offset="0" style="stop-color:#FFFFFF"/>
				<stop  offset="1" style="stop-color:#FFFFFF;stop-opacity:0"/>
			</linearGradient>
			<path id="path12331_6_" class="st16" d="M246.5-238c-2.2,0-3.7,1.3-4.4,3.8c-0.7-0.3-1.5-0.8-2.4-0.8c-2.7,0-4.8,1.9-4.8,4.5
				c0,0.5,0.3,1.3,0.4,1.8c-1.3,0.7-2.4,1.9-2.4,3.4c0,2.3,1.5,4.3,4.3,4.3c0.2,0,18.2,0,18.3,0c2.8,0,4.3-1.9,4.3-4.3
				c0-1.6-1.1-2.7-2.4-3.4c0.2-0.5,0.5-1.3,0.5-1.8c0-2.6-2.1-4.6-4.8-4.6c-0.8,0-1.6,0.5-2.3,0.8C250.3-236.6,248.7-238,246.5-238z
				"/>
			<path id="path12333_6_" class="st2" d="M250-233.5c0,1.9-1.6,3.5-3.5,3.5c-1.9,0-3.5-1.6-3.5-3.5c0-1.9,1.6-3.5,3.5-3.5
				C248.4-237,250-235.4,250-233.5L250-233.5z"/>
			
				<linearGradient id="path12335_1_" gradientUnits="userSpaceOnUse" x1="511.7196" y1="246.0608" x2="513.8786" y2="242.63" gradientTransform="matrix(1.0563 0 0 -1.0566 -295.2946 24.4463)">
				<stop  offset="0" style="stop-color:#FFFFFF"/>
				<stop  offset="1" style="stop-color:#FFFFFF;stop-opacity:0"/>
			</linearGradient>
			<path id="path12335_6_" class="st17" d="M250-233.5c0,1.9-1.6,3.5-3.5,3.5c-1.9,0-3.5-1.6-3.5-3.5c0-1.9,1.6-3.5,3.5-3.5
				C248.4-237,250-235.4,250-233.5L250-233.5z"/>
			<rect id="rect12337_6_" x="237" y="-231" class="st2" width="20" height="9"/>
			<path id="path12339_6_" class="st2" d="M240-225c0,1.7-1.3,3-3,3s-3-1.3-3-3s1.3-3,3-3S240-226.7,240-225L240-225z"/>
			<path id="path12341_6_" class="st2" d="M257-230.5c0,1.9-1.6,3.5-3.5,3.5c-1.9,0-3.5-1.6-3.5-3.5c0-1.9,1.6-3.5,3.5-3.5
				C255.4-234,257-232.4,257-230.5L257-230.5z"/>
			
				<linearGradient id="path12343_1_" gradientUnits="userSpaceOnUse" x1="510.6944" y1="247.579" x2="514.0364" y2="242.4328" gradientTransform="matrix(1.0563 0 0 -1.0566 -288.2946 27.4463)">
				<stop  offset="0" style="stop-color:#FFFFFF"/>
				<stop  offset="1" style="stop-color:#FFFFFF;stop-opacity:0"/>
			</linearGradient>
			<path id="path12343_6_" class="st18" d="M257-230.5c0,1.9-1.6,3.5-3.5,3.5c-1.9,0-3.5-1.6-3.5-3.5c0-1.9,1.6-3.5,3.5-3.5
				C255.4-234,257-232.4,257-230.5L257-230.5z"/>
			<path id="path12347_6_" class="st2" d="M243-230.5c0,1.9-1.6,3.5-3.5,3.5c-1.9,0-3.5-1.6-3.5-3.5c0-1.9,1.6-3.5,3.5-3.5
				C241.4-234,243-232.4,243-230.5L243-230.5z"/>
			
				<linearGradient id="path12349_1_" gradientUnits="userSpaceOnUse" x1="510.5622" y1="246.5326" x2="514.0126" y2="243.0365" gradientTransform="matrix(1.0563 0 0 -1.0566 -302.2946 27.4463)">
				<stop  offset="0" style="stop-color:#FFFFFF"/>
				<stop  offset="1" style="stop-color:#FFFFFF;stop-opacity:0"/>
			</linearGradient>
			<path id="path12349_6_" class="st19" d="M243-230.5c0,1.9-1.6,3.5-3.5,3.5c-1.9,0-3.5-1.6-3.5-3.5c0-1.9,1.6-3.5,3.5-3.5
				C241.4-234,243-232.4,243-230.5L243-230.5z"/>
			<path id="path12351_6_" class="st2" d="M245.5-234c-3.6,0-6.5,2.9-6.5,6.5c0,2.4,1.3,4.3,3.3,5.5h6.5c1.9-1.1,3.3-3.1,3.3-5.5
				C252-231.1,249-234,245.5-234z"/>
			
				<linearGradient id="path12353_1_" gradientUnits="userSpaceOnUse" x1="507.6284" y1="239.3707" x2="511.6619" y2="234.184" gradientTransform="matrix(0.9997 0 0 -1 -264.9145 8.0161)">
				<stop  offset="0" style="stop-color:#FFFFFF"/>
				<stop  offset="1" style="stop-color:#FFFFFF;stop-opacity:0"/>
			</linearGradient>
			<path id="path12353_6_" class="st20" d="M245.5-234c-3.6,0-6.5,2.9-6.5,6.5c0,2.4,1.3,4.4,3.3,5.5h6.5c1.9-1.1,3.3-3.1,3.3-5.5
				C252-231.1,249.1-234,245.5-234z"/>
			
				<linearGradient id="path12355_1_" gradientUnits="userSpaceOnUse" x1="527.3062" y1="229.5712" x2="530.4059" y2="226.7946" gradientTransform="matrix(0.9054 0 0 -0.9057 -242.1143 -18.6176)">
				<stop  offset="0" style="stop-color:#FFFFFF"/>
				<stop  offset="1" style="stop-color:#FFFFFF;stop-opacity:0"/>
			</linearGradient>
			<path id="path12355_6_" class="st21" d="M240-225c0,1.7-1.3,3-3,3s-3-1.3-3-3s1.3-3,3-3S240-226.7,240-225L240-225z"/>
			<path id="path12357_6_" class="st14" d="M259-230.3c0,2.7-3.3,3.7-3.3,3.7s2.3-1.6,2.3-3.7L259-230.3z"/>
			<path id="path12359_6_" class="st2" d="M254-226c0,2.2-1.8,4-4,4c-2.2,0-4-1.8-4-4c0-2.2,1.8-4,4-4C252.2-230,254-228.2,254-226
				L254-226z"/>
			
				<linearGradient id="path12361_1_" gradientUnits="userSpaceOnUse" x1="497.2688" y1="260.0445" x2="501.3661" y2="255.6426" gradientTransform="matrix(1.2072 0 0 -1.2075 -354.4747 83.5102)">
				<stop  offset="0" style="stop-color:#FFFFFF"/>
				<stop  offset="1" style="stop-color:#FFFFFF;stop-opacity:0"/>
			</linearGradient>
			<path id="path12361_6_" class="st22" d="M254-226c0,2.2-1.8,4-4,4c-2.2,0-4-1.8-4-4c0-2.2,1.8-4,4-4C252.2-230,254-228.2,254-226
				L254-226z"/>
		</g>
	</g>
	<g id="g12191_9_" transform="translate(-222.9549,261.0144)">
		<path id="path12193_9_" class="st23" d="M236.6-226.8c-1-0.6-1.4-1.9-0.8-2.9c1.3-2.1,3.1-1.5,4-3.7
			C241.1-232.1,240.6-225.2,236.6-226.8z"/>
		
			<radialGradient id="path12195_1_" cx="1920.1447" cy="-9.4567" r="21.7436" gradientTransform="matrix(7.065158e-02 4.154803e-02 6.201499e-02 -0.1094 102.6992 -309.6197)" gradientUnits="userSpaceOnUse">
			<stop  offset="0" style="stop-color:#FFFFFF"/>
			<stop  offset="1" style="stop-color:#FFFFFF;stop-opacity:0"/>
		</radialGradient>
		<path id="path12195_9_" class="st24" d="M239.3-227.9c-0.5,0.9-1.6,1.2-2.4,0.7c-0.8-0.5-1.1-1.6-0.6-2.5c0.5-0.9,2.6-0.5,3.3-2.3
			C240.4-231.5,239.8-228.8,239.3-227.9z"/>
		
			<linearGradient id="path12197_1_" gradientUnits="userSpaceOnUse" x1="388.1533" y1="1567.0903" x2="408.6594" y2="1588.5687" gradientTransform="matrix(-5.358613e-02 0.1028 9.281434e-02 5.937964e-02 112.3583 -364.6127)">
			<stop  offset="0" style="stop-color:#FFFFFF"/>
			<stop  offset="1" style="stop-color:#FFFFFF;stop-opacity:0"/>
		</linearGradient>
		<path id="path12197_9_" class="st25" d="M238-227c-4.6-1.1,0.2-4.7,1-3.9C235.4-229.6,238-227,238-227z"/>
	</g>
	<g id="g12239_23_" transform="translate(-193.9565,268.0066)">
		<path id="path12241_23_" class="st23" d="M222.6-228.8c-1-0.6-1.4-1.9-0.8-2.9c1.3-2.1,3.1-1.5,4-3.7
			C227.1-234.1,226.6-227.2,222.6-228.8z"/>
		
			<radialGradient id="path12243_1_" cx="1730.4952" cy="-59.1765" r="21.7436" gradientTransform="matrix(7.065158e-02 4.154803e-02 6.201499e-02 -0.1094 105.1816 -309.1799)" gradientUnits="userSpaceOnUse">
			<stop  offset="0" style="stop-color:#FFFFFF"/>
			<stop  offset="1" style="stop-color:#FFFFFF;stop-opacity:0"/>
		</radialGradient>
		<path id="path12243_9_" class="st26" d="M225.3-229.9c-0.5,0.9-1.6,1.2-2.4,0.7c-0.8-0.5-1.1-1.6-0.6-2.5c0.5-0.9,2.6-0.5,3.3-2.3
			C226.4-233.5,225.8-230.8,225.3-229.9z"/>
		
			<linearGradient id="path12245_1_" gradientUnits="userSpaceOnUse" x1="409.8853" y1="1438.5485" x2="430.3914" y2="1460.0269" gradientTransform="matrix(-5.358613e-02 0.1028 9.281434e-02 5.937964e-02 111.4534 -361.215)">
			<stop  offset="0" style="stop-color:#FFFFFF"/>
			<stop  offset="1" style="stop-color:#FFFFFF;stop-opacity:0"/>
		</linearGradient>
		<path id="path12245_9_" class="st27" d="M224-229c-4.6-1.1,0.2-4.7,1-3.9C221.4-231.6,224-229,224-229z"/>
	</g>
</g>
</svg>
