<?xml version="1.0" encoding="utf-8"?>
<!-- Generator: Adobe Illustrator 24.0.1, SVG Export Plug-In . SVG Version: 6.00 Build 0)  -->
<svg version="1.1"
	 id="svg1306" xmlns:cc="http://creativecommons.org/ns#" xmlns:dc="http://purl.org/dc/elements/1.1/" xmlns:inkscape="http://www.inkscape.org/namespaces/inkscape" xmlns:rdf="http://www.w3.org/1999/02/22-rdf-syntax-ns#" xmlns:sodipodi="http://sodipodi.sourceforge.net/DTD/sodipodi-0.dtd" xmlns:svg="http://www.w3.org/2000/svg"
	 xmlns="http://www.w3.org/2000/svg" xmlns:xlink="http://www.w3.org/1999/xlink" x="0px" y="0px" viewBox="0 0 48 48"
	 style="enable-background:new 0 0 48 48;" xml:space="preserve">
<style type="text/css">
	.st0{fill:#CC0000;stroke:#9F0000;stroke-width:1;}
	.st1{fill:#FFFFFF;}
	.st2{opacity:0.5;fill:none;stroke:url(#path9791_1_);stroke-width:1;enable-background:new    ;}
</style>
<g id="layer1">
	<g id="g10804" transform="translate(-220.9232,219.3848)">
		<path id="path9775" class="st0" d="M260.7-183.8l-14-26.2c-0.4-0.7-1.1-1.1-1.9-1.1s-1.5,0.5-1.9,1.2l-13.7,26.2
			c-0.3,0.6-0.3,1.5,0.1,2.2c0.4,0.6,1,1,1.9,1h27.7c0.8,0,1.5-0.4,1.9-1.1C261-182.2,261-183,260.7-183.8z"/>
		<g id="g9777" transform="matrix(0.611426,0.000000,0.000000,0.645740,230.1627,-206.1565)">
			<path id="path9785" class="st1" d="M5.4,33.7c-0.4,0.6,0,1.2,0.6,1.2h36.1c0.6,0,1-0.5,0.6-1.2l-18.3-34c-0.4-0.6-0.9-0.6-1.2,0
				L5.4,33.7z"/>
		</g>
		<g id="g9787" transform="matrix(0.573369,0.000000,0.000000,0.574712,231.0777,-204.2725)">
			<path id="path9789" d="M23.8,31.5c-1.7,0-2.9-1.3-2.9-2.9c0-1.8,1.2-2.9,2.9-2.9s2.8,1.2,2.9,2.9C26.8,30.2,25.6,31.5,23.8,31.5
				L23.8,31.5z M22.1,23.9L21.3,9.2h5.1l-0.8,14.7h-3.7H22.1z"/>
		</g>
		
			<linearGradient id="path9791_1_" gradientUnits="userSpaceOnUse" x1="246.1554" y1="-198.9324" x2="267.7913" y2="-226.91" gradientTransform="matrix(0.875 0 0 -0.9215 20.0581 -382.7425)">
			<stop  offset="0" style="stop-color:#FFFFFF"/>
			<stop  offset="1" style="stop-color:#FFFFFF;stop-opacity:0.3402"/>
		</linearGradient>
		<path id="path9791" class="st2" d="M258.9-184.6l-12.7-23.9c-0.5-1-0.7-1.4-1.5-1.4c-0.7,0-1.1,0.5-1.6,1.5l-12.3,23.8
			c-0.7,1.3-0.8,1.7-0.4,2.3c0.3,0.6,0.8,0.6,2.4,0.6h24.4c1.5,0,1.9-0.1,2.2-0.7C259.8-183,259.6-183.4,258.9-184.6z"/>
	</g>
</g>
</svg>
